<?xml version="1.0" standalone="no"?>
<!DOCTYPE svg PUBLIC "-//W3C//DTD SVG 1.1//EN" "http://www.w3.org/Graphics/SVG/1.1/DTD/svg11.dtd" >
<svg xmlns="http://www.w3.org/2000/svg" xmlns:xlink="http://www.w3.org/1999/xlink" version="1.1">
<metadata></metadata>
<defs>
<font id="als_haussbold" horiz-adv-x="642" >
<font-face units-per-em="1000" ascent="800" descent="-200" />
<missing-glyph horiz-adv-x="216" />
<glyph horiz-adv-x="0" />
<glyph horiz-adv-x="333" />
<glyph horiz-adv-x="0" />
<glyph horiz-adv-x="0" />
<glyph unicode="&#xd;" horiz-adv-x="216" />
<glyph unicode=" "  horiz-adv-x="216" />
<glyph unicode="&#x09;" horiz-adv-x="216" />
<glyph unicode="&#xa0;" horiz-adv-x="216" />
<glyph unicode="!" horiz-adv-x="335" d="M102 233l-11 471h151l-11 -471h-129zM168 162q37 0 62 -25t25 -62t-25 -62t-62 -25q-38 0 -63.5 25t-25.5 62t25.5 62t63.5 25z" />
<glyph unicode="&#x22;" horiz-adv-x="492" d="M289 408v296h134l-9 -296h-125zM69 408v296h134l-9 -296h-125z" />
<glyph unicode="#" horiz-adv-x="729" d="M686 537v-118h-120l-24 -135h99v-118h-119l-29 -166h-123l28 166h-131l-29 -166h-123l29 166h-101v118h121l24 135h-100v118h120l29 167h123l-29 -167h131l29 167h124l-29 -167h100zM309 420l-24 -137h135l23 137h-134z" />
<glyph unicode="$" horiz-adv-x="608" d="M41 209h147q22 -81 125 -81q49 0 78 22.5t29 59.5q0 60 -80 73l-107 16q-184 28 -184 188q0 81 54.5 137.5t142.5 70.5v92h118v-94q81 -14 132 -64t62 -128h-145q-22 74 -115 74q-43 0 -72 -21t-29 -57q0 -54 75 -66l106 -16q88 -14 139 -62t51 -132q0 -87 -54 -143.5 t-150 -69.5v-97h-118v99q-86 15 -140.5 67t-64.5 132z" />
<glyph unicode="%" horiz-adv-x="951" d="M158 0l499 704h136l-500 -704h-135zM219 612q-31 0 -49 -24t-18 -61t18 -61t49 -24t48.5 24t17.5 61t-17.5 61t-48.5 24zM33 527q0 83 52.5 136t133.5 53t133.5 -53t52.5 -136t-52.5 -136.5t-133.5 -53.5t-133.5 53.5t-52.5 136.5zM732 262q-31 0 -49 -24t-18 -61t18 -61 t49 -24t49 24t18 61t-18 61t-49 24zM546 177q0 83 52.5 136.5t133.5 53.5t133.5 -53.5t52.5 -136.5t-52.5 -136t-133.5 -53t-133.5 53t-52.5 136z" />
<glyph unicode="&#x26;" horiz-adv-x="735" d="M715 325l-137 -169l139 -156h-165l-62 69l-7 -7q-79 -74 -198 -74q-108 0 -174 58.5t-66 150.5q0 126 152 198l-6 8q-22 24 -34 39.5t-23.5 43t-11.5 56.5q0 72 57.5 123t145.5 51q86 0 140 -49t54 -125q0 -106 -131 -175l112 -125l66 83h149zM407 152l6 5l-140 158 q-86 -41 -86 -111q0 -43 28.5 -69t79.5 -26q64 0 112 43zM253 541q0 -36 45 -81l17 -17q77 41 77 99q0 28 -19.5 45t-48.5 17q-31 0 -51 -17t-20 -46z" />
<glyph unicode="'" horiz-adv-x="272" d="M69 408v296h134l-9 -296h-125z" />
<glyph unicode="(" horiz-adv-x="388" d="M363 727q-146 -201 -146 -443q0 -241 146 -442h-139q-64 80 -108.5 193.5t-44.5 248.5t44.5 249t108.5 194h139z" />
<glyph unicode=")" horiz-adv-x="388" d="M24 727h140q64 -80 108 -194t44 -249t-44 -248.5t-108 -193.5h-140q146 199 146 442q0 244 -146 443z" />
<glyph unicode="*" horiz-adv-x="476" d="M288 716l-3 -138l131 45l31 -94l-132 -41l82 -111l-79 -57l-80 112l-79 -112l-81 57l83 111l-132 41l30 94l131 -44l-2 137h100z" />
<glyph unicode="+" d="M252 528h137v-189h181v-132h-181v-189h-137v189h-180v132h180v189z" />
<glyph unicode="," horiz-adv-x="295" d="M235 72q0 -29 -12 -60l-66 -170h-106l60 157q-53 22 -53 77q0 36 24.5 59.5t62.5 23.5t64 -25t26 -62z" />
<glyph unicode="-" horiz-adv-x="443" d="M59 207v132h325v-132h-325z" />
<glyph unicode="." horiz-adv-x="295" d="M148 162q37 0 62 -25t25 -62t-25 -62t-62 -25q-38 0 -63.5 25t-25.5 62t25.5 62t63.5 25z" />
<glyph unicode="/" horiz-adv-x="409" d="M265 727h138l-258 -885h-139z" />
<glyph unicode="0" horiz-adv-x="670" d="M335 716q130 0 207.5 -100t77.5 -264t-77.5 -264t-207.5 -100t-207.5 100t-77.5 264t77.5 264t207.5 100zM335 121q65 0 99 64t34 167t-34 167t-99 64t-98.5 -64t-33.5 -167t33.5 -167t98.5 -64z" />
<glyph unicode="1" horiz-adv-x="457" d="M353 704v-704h-150v539l-159 -101v150l171 116h138z" />
<glyph unicode="2" horiz-adv-x="625" d="M409 497q0 38 -27.5 62.5t-70.5 24.5q-45 0 -73 -23t-35 -62h-147q8 96 77.5 156.5t180.5 60.5q114 0 181 -61t67 -153q0 -68 -32 -118t-94 -104l-170 -148h308v-132h-513v124l266 240q43 39 62.5 68t19.5 65z" />
<glyph unicode="3" horiz-adv-x="631" d="M54 509q10 96 83 151.5t177 55.5q110 0 177.5 -55.5t67.5 -139.5q0 -58 -30.5 -96t-72.5 -55q50 -14 89 -56.5t39 -113.5q0 -93 -73.5 -152.5t-190.5 -59.5q-113 0 -189 57.5t-84 156.5h148q9 -37 41.5 -60t83.5 -23q48 0 79.5 24.5t31.5 66.5t-32.5 64t-84.5 22h-78v126 h66q49 0 77 23t28 60q0 36 -26.5 58t-71.5 22q-44 0 -72 -21t-35 -55h-148z" />
<glyph unicode="4" horiz-adv-x="657" d="M524 0h-147v139h-336v124l292 441h191v-439h94v-126h-94v-139zM189 265h188v282z" />
<glyph unicode="5" horiz-adv-x="638" d="M324 119q50 0 81.5 31.5t31.5 82.5q0 50 -32.5 80.5t-79.5 30.5q-74 0 -110 -57h-150l34 417h450v-132h-322l-16 -169q55 62 152 62q94 0 160.5 -60.5t66.5 -168.5q0 -114 -75 -181t-188 -67q-111 0 -184 58.5t-83 148.5h151q8 -30 37.5 -53t75.5 -23z" />
<glyph unicode="6" horiz-adv-x="650" d="M376 463q92 0 160.5 -62.5t68.5 -163.5q0 -109 -72.5 -179t-187.5 -70q-139 0 -217 97t-78 261q0 181 80.5 275.5t212.5 94.5q104 0 171.5 -56t78.5 -138h-149q-8 26 -34 45t-67 19q-137 0 -147 -212q57 89 180 89zM340 119q49 0 80.5 31.5t31.5 80.5t-32.5 80t-81.5 31 q-48 0 -81 -30.5t-33 -80.5q0 -48 33.5 -80t82.5 -32z" />
<glyph unicode="7" horiz-adv-x="571" d="M531 582l-266 -582h-164l265 572h-333v132h498v-122z" />
<glyph unicode="8" horiz-adv-x="647" d="M50 196q0 66 37.5 110.5t88.5 59.5q-107 46 -107 155q0 82 69.5 138.5t185.5 56.5q115 0 184.5 -56.5t69.5 -138.5q0 -109 -107 -155q51 -15 88.5 -59.5t37.5 -110.5q0 -91 -76 -149.5t-197 -58.5q-122 0 -198 58.5t-76 149.5zM427 504q0 39 -28.5 63t-74.5 24 q-47 0 -75.5 -24t-28.5 -63q0 -37 30 -62t74 -25q43 0 73 25t30 62zM442 208q0 43 -33 70t-85 27q-53 0 -86 -27t-33 -70q0 -42 33 -68.5t86 -26.5t85.5 26.5t32.5 68.5z" />
<glyph unicode="9" horiz-adv-x="650" d="M274 241q-92 0 -160.5 62.5t-68.5 163.5q0 109 72.5 179t187.5 70q139 0 217 -97t78 -261q0 -181 -80.5 -275.5t-212.5 -94.5q-104 0 -171.5 56t-78.5 138h149q8 -26 34 -45t67 -19q138 0 146 213q-56 -90 -179 -90zM310 585q-49 0 -80.5 -31.5t-31.5 -80.5t32.5 -80 t81.5 -31q48 0 80.5 30.5t32.5 80.5q0 48 -33 80t-82 32z" />
<glyph unicode=":" horiz-adv-x="295" d="M148 162q37 0 62 -25t25 -62t-25 -62t-62 -25q-38 0 -63.5 25t-25.5 62t25.5 62t63.5 25zM148 502q37 0 62 -25t25 -62t-25 -62t-62 -25q-38 0 -63.5 25t-25.5 62t25.5 62t63.5 25z" />
<glyph unicode=";" horiz-adv-x="295" d="M235 72q0 -29 -12 -60l-66 -170h-106l60 157q-53 22 -53 77q0 36 24.5 59.5t62.5 23.5t64 -25t26 -62zM148 502q37 0 62 -25t25 -62t-25 -62t-62 -25q-38 0 -63.5 25t-25.5 62t25.5 62t63.5 25z" />
<glyph unicode="&#x3c;" d="M568 5l-493 212v111l493 213v-140l-309 -128l309 -128v-140z" />
<glyph unicode="=" d="M80 325v126h482v-126h-482zM80 94v126h482v-126h-482z" />
<glyph unicode="&#x3e;" d="M75 5v140l308 128l-308 128v140l493 -213v-111z" />
<glyph unicode="?" horiz-adv-x="543" d="M357 518q0 32 -23 50.5t-62 18.5q-41 0 -67.5 -20t-34.5 -56h-137q6 89 72 147t170 58q106 0 166.5 -54t60.5 -136q0 -16 -2 -30.5t-4.5 -26t-9 -23.5t-9.5 -19t-13 -17t-13.5 -14t-16 -13t-14.5 -10.5t-16.5 -10.5t-15.5 -10q-22 -14 -30.5 -20.5t-21 -19t-16.5 -26.5 t-4 -34v-19h-134v34q0 63 23 95.5t76 66.5q51 33 63 49q13 19 13 40zM253 162q37 0 62 -25t25 -62t-25 -62t-62 -25q-38 0 -63.5 25t-25.5 62t25.5 62t63.5 25z" />
<glyph unicode="@" horiz-adv-x="906" d="M471 706q175 0 286.5 -110t111.5 -279q0 -126 -53.5 -183.5t-138.5 -57.5q-91 0 -127 69q-41 -69 -130 -69q-76 0 -127.5 56.5t-51.5 155.5q0 94 51.5 152.5t128.5 58.5q76 0 114 -57v46h124v-256q0 -23 12 -37.5t32 -14.5q60 0 60 137q0 131 -78 211.5t-216 80.5 q-134 0 -225 -89.5t-91 -238.5q0 -150 95 -232.5t234 -82.5q96 0 173 27v-96q-69 -27 -174 -27q-120 0 -217.5 47.5t-157 142t-59.5 221.5q0 126 58 224t154 149.5t212 51.5zM449 185q36 0 59.5 27t23.5 72v7q0 45 -23.5 72t-59.5 27q-34 0 -57 -27.5t-23 -74.5 q0 -46 23 -74.5t57 -28.5z" />
<glyph unicode="A" horiz-adv-x="699" d="M270 704h158l258 -704h-158l-50 145h-258l-49 -145h-158zM348 527l-85 -254h170z" />
<glyph unicode="B" horiz-adv-x="646" d="M74 0v704h284q108 0 165.5 -52t57.5 -132q0 -57 -26.5 -95.5t-65.5 -55.5q48 -14 83.5 -56.5t35.5 -110.5q0 -89 -64.5 -145.5t-173.5 -56.5h-296zM351 300h-125v-173h124q47 0 75 23t28 63t-27.5 63.5t-74.5 23.5zM334 577h-108v-158h112q43 0 66 22t23 57 q0 38 -24 58.5t-69 20.5z" />
<glyph unicode="C" horiz-adv-x="715" d="M525 243h152q-3 -46 -23 -90t-56 -81.5t-95 -60.5t-132 -23q-143 0 -236 98.5t-93 265.5q0 163 92 263.5t237 100.5q133 0 212 -72t93 -182h-152q-13 51 -52 84t-101 33q-77 0 -125 -62t-48 -165q0 -102 48 -164.5t126 -62.5q65 0 105 36.5t48 81.5z" />
<glyph unicode="D" horiz-adv-x="716" d="M323 704q167 0 259 -93.5t92 -258.5t-92 -258.5t-259 -93.5h-249v704h249zM310 134q102 0 155 57t53 161t-53 161t-155 57h-83v-436h83z" />
<glyph unicode="E" horiz-adv-x="596" d="M546 568h-319v-144h300v-131h-300v-157h319v-136h-472v704h472v-136z" />
<glyph unicode="F" horiz-adv-x="589" d="M227 0h-153v704h469v-137h-316v-160h293v-131h-293v-276z" />
<glyph unicode="G" horiz-adv-x="734" d="M369 386h318v-79q0 -143 -81.5 -231t-229.5 -88q-147 0 -240.5 100t-93.5 264q0 160 91.5 262t243.5 102q125 0 204.5 -67t99.5 -170h-155q-34 101 -148 101q-80 0 -130 -60.5t-50 -167.5q0 -109 51 -169.5t132 -60.5q72 0 112.5 39.5t40.5 97.5v3h-165v124z" />
<glyph unicode="H" horiz-adv-x="739" d="M227 0h-153v704h153v-275h285v275h153v-704h-153v292h-285v-292z" />
<glyph unicode="I" horiz-adv-x="301" d="M227 704v-704h-153v704h153z" />
<glyph unicode="J" horiz-adv-x="578" d="M23 204h149q3 -31 26 -55t63 -24q45 0 69.5 29.5t24.5 83.5v466h153v-468q0 -118 -66 -183t-182 -65q-106 0 -171 61.5t-66 154.5z" />
<glyph unicode="K" horiz-adv-x="665" d="M227 0h-153v704h153v-290l246 290h179l-282 -338l288 -366h-186l-245 307v-307z" />
<glyph unicode="L" horiz-adv-x="581" d="M227 704v-568h319v-136h-472v704h153z" />
<glyph unicode="M" horiz-adv-x="916" d="M74 704h190l195 -494l194 494h189v-704h-143v473l-185 -467h-112l-184 463v-469h-144v704z" />
<glyph unicode="N" horiz-adv-x="747" d="M234 704l292 -446v446h147v-704h-144l-308 468v-468h-147v704h160z" />
<glyph unicode="O" horiz-adv-x="758" d="M379 716q150 0 243.5 -100.5t93.5 -263.5t-93.5 -263.5t-243.5 -100.5t-243.5 100.5t-93.5 263.5t93.5 263.5t243.5 100.5zM379 125q84 0 132.5 63.5t48.5 163.5t-48.5 163.5t-132.5 63.5t-132.5 -63.5t-48.5 -163.5t48.5 -163.5t132.5 -63.5z" />
<glyph unicode="P" horiz-adv-x="631" d="M342 704q118 0 185.5 -66.5t67.5 -171.5q0 -102 -68.5 -169.5t-180.5 -67.5h-119v-229h-153v704h268zM328 573h-101v-213h101q52 0 82 29.5t30 76.5q0 48 -29.5 77.5t-82.5 29.5z" />
<glyph unicode="Q" horiz-adv-x="758" d="M379 716q150 0 243.5 -100.5t93.5 -263.5q0 -179 -114 -282l88 -132h-152l-45 68q-57 -18 -114 -18q-150 0 -243.5 100.5t-93.5 263.5t93.5 263.5t243.5 100.5zM379 124q17 0 34 3l-76 116h151l31 -47q41 61 41 156q0 101 -48.5 164.5t-132.5 63.5t-132.5 -63.5 t-48.5 -164.5t48.5 -164.5t132.5 -63.5z" />
<glyph unicode="R" horiz-adv-x="652" d="M598 472q0 -67 -31.5 -121t-88.5 -83l159 -268h-171l-140 239h-99v-239h-153v704h272q117 0 184.5 -65.5t67.5 -166.5zM333 573h-106v-205h106q51 0 80.5 28.5t29.5 73.5q0 46 -29 74.5t-81 28.5z" />
<glyph unicode="S" horiz-adv-x="634" d="M41 202h154q23 -85 131 -85q52 0 82 23.5t30 62.5q0 63 -83 76l-113 18q-193 29 -193 196q0 99 74 161t188 62q112 0 185.5 -55t87.5 -153h-152q-24 78 -121 78q-46 0 -76.5 -22.5t-30.5 -59.5q0 -57 80 -69l111 -17q92 -14 145 -64t53 -139q0 -105 -72 -166t-196 -61 q-117 0 -194 57t-90 157z" />
<glyph unicode="T" horiz-adv-x="634" d="M31 568v136h572v-136h-209v-568h-153v568h-210z" />
<glyph unicode="U" horiz-adv-x="730" d="M69 286v418h153v-414q0 -79 38.5 -122t104.5 -43t104.5 43t38.5 122v414h153v-418q0 -146 -82 -222t-214 -76t-214 76t-82 222z" />
<glyph unicode="V" horiz-adv-x="687" d="M674 704l-251 -704h-159l-251 704h161l170 -510l169 510h161z" />
<glyph unicode="W" horiz-adv-x="1012" d="M991 704l-208 -704h-145l-133 485l-132 -485h-144l-208 704h155l130 -460l130 460h140l131 -461l130 461h154z" />
<glyph unicode="X" horiz-adv-x="696" d="M501 0l-155 241l-154 -241h-171l232 354l-230 350h175l152 -240l154 240h169l-230 -353l232 -351h-174z" />
<glyph unicode="Y" horiz-adv-x="669" d="M411 0h-153v267l-248 437h166l159 -291l159 291h165l-248 -437v-267z" />
<glyph unicode="Z" horiz-adv-x="629" d="M50 121l339 447h-339v136h528v-120l-339 -448h339v-136h-528v121z" />
<glyph unicode="[" horiz-adv-x="388" d="M361 606h-127v-643h127v-121h-267v885h267v-121z" />
<glyph unicode="\" horiz-adv-x="409" d="M145 727l258 -885h-139l-258 885h139z" />
<glyph unicode="]" horiz-adv-x="388" d="M27 -158v121h127v643h-127v121h267v-885h-267z" />
<glyph unicode="^" horiz-adv-x="486" d="M464 343h-131l-88 215l-93 -215h-131l164 353h123z" />
<glyph unicode="_" horiz-adv-x="483" d="M0 -48h483v-124h-483v124z" />
<glyph unicode="`" horiz-adv-x="520" d="M146 756h134l94 -170h-119z" />
<glyph unicode="a" horiz-adv-x="560" d="M359 343q0 35 -23.5 54t-61.5 19q-69 0 -84 -50h-136q11 71 70 117t156 46q102 0 162 -49.5t60 -141.5v-338h-135v56q-53 -68 -153 -68q-78 0 -129 44t-51 120q0 79 56.5 123t155.5 44h113v24zM254 101q44 0 74.5 25.5t30.5 68.5v23h-102q-34 0 -55.5 -16t-21.5 -43 t20 -42.5t54 -15.5z" />
<glyph unicode="b" horiz-adv-x="613" d="M354 529q96 0 160 -72.5t64 -198.5q0 -124 -65 -197t-163 -73q-52 0 -90.5 19.5t-56.5 51.5v-59h-140v727h146v-262q48 64 145 64zM319 114q51 0 81.5 39t30.5 105t-30.5 105.5t-81.5 39.5t-82 -39t-31 -104v-4q0 -65 31 -103.5t82 -38.5z" />
<glyph unicode="c" horiz-adv-x="560" d="M293 114q77 0 96 72h139q-7 -86 -71 -142t-165 -56q-117 0 -187 75.5t-70 194.5q0 118 70 194.5t187 76.5q102 0 164 -57t71 -140h-140q-22 71 -95 71q-51 0 -81 -39.5t-30 -105.5t30.5 -105t81.5 -39z" />
<glyph unicode="d" horiz-adv-x="613" d="M259 -12q-96 0 -160 72.5t-64 197.5t65 198t163 73q97 0 141 -63v261h146v-727h-140v61q-47 -73 -151 -73zM294 403q-51 0 -82 -39.5t-31 -105.5q0 -65 31 -104.5t82 -39.5t82 39t31 103v4q0 66 -31 104.5t-82 38.5z" />
<glyph unicode="e" horiz-adv-x="566" d="M531 217h-349v-2q0 -48 32.5 -80t84.5 -32q34 0 57 14t29 31h141q-12 -63 -70.5 -111.5t-159.5 -48.5q-119 0 -190 71.5t-71 196.5t69.5 199t183.5 74q111 0 177 -71t66 -191v-50zM289 415q-44 0 -72 -25.5t-34 -70.5h206q-3 44 -30 70t-70 26z" />
<glyph unicode="f" horiz-adv-x="362" d="M242 0h-146v398h-80v119h80v34q0 176 193 176h47v-116h-26q-71 0 -71 -65v-29h97v-119h-94v-398z" />
<glyph unicode="g" horiz-adv-x="612" d="M409 517h140v-480q0 -114 -68 -180.5t-187 -66.5q-108 0 -170.5 51t-69.5 122h143q19 -57 98 -57q52 0 80 34.5t28 97.5v35q-47 -65 -145 -65q-96 0 -159.5 70t-63.5 190q0 117 64.5 189t162.5 72q53 0 91 -20t56 -50v58zM294 131q51 0 81.5 38t30.5 97v4q0 59 -30 97.5 t-82 38.5q-51 0 -82 -39t-31 -99t30.5 -98.5t82.5 -38.5z" />
<glyph unicode="h" horiz-adv-x="597" d="M353 529q80 0 133 -49.5t53 -149.5v-330h-146v298q0 49 -24 74.5t-65 25.5q-39 0 -67 -26t-28 -76v-296h-146v727h146v-262q50 64 144 64z" />
<glyph unicode="i" horiz-adv-x="272" d="M209 517v-517h-146v517h146zM135 749q35 0 59.5 -24t24.5 -58q0 -35 -24.5 -59t-59.5 -24t-59 24t-24 59t24 58.5t59 23.5z" />
<glyph unicode="j" horiz-adv-x="272" d="M-20 -193v117h21q63 0 63 82v511h145v-516q0 -100 -45 -147t-148 -47h-36zM136 749q35 0 59.5 -24t24.5 -58q0 -35 -24.5 -59t-59.5 -24t-59 24t-24 59t24 58.5t59 23.5z" />
<glyph unicode="k" horiz-adv-x="552" d="M209 0h-146v727h146v-415l169 205h165l-201 -243l205 -274h-170l-168 229v-229z" />
<glyph unicode="l" horiz-adv-x="272" d="M209 727v-727h-146v727h146z" />
<glyph unicode="m" horiz-adv-x="900" d="M660 529q75 0 128.5 -49t53.5 -147v-333h-146v303q0 48 -23 71.5t-60 23.5t-62.5 -25.5t-25.5 -70.5v-302h-146v303q0 48 -23 71.5t-60 23.5t-62 -25.5t-25 -70.5v-302h-146v517h140v-60q50 72 144 72q101 0 148 -80q59 80 165 80z" />
<glyph unicode="n" horiz-adv-x="597" d="M63 517h140v-61q20 31 59 52t91 21q80 0 133 -49.5t53 -149.5v-330h-146v298q0 49 -24 74.5t-65 25.5q-39 0 -67 -26t-28 -76v-296h-146v517z" />
<glyph unicode="o" horiz-adv-x="591" d="M296 529q115 0 187.5 -74.5t72.5 -196.5t-72.5 -196t-187.5 -74q-116 0 -188.5 74t-72.5 196t72.5 196.5t188.5 74.5zM296 114q52 0 83 40t31 104q0 65 -30.5 105t-83.5 40t-84 -40t-31 -105q0 -64 31 -104t84 -40z" />
<glyph unicode="p" horiz-adv-x="613" d="M354 529q96 0 160 -72.5t64 -198.5q0 -124 -65 -197t-163 -73t-141 62v-241h-146v708h140v-60q48 72 151 72zM319 114q51 0 81.5 39t30.5 105t-30.5 105.5t-81.5 39.5t-82 -39t-31 -104v-4q0 -65 31 -103.5t82 -38.5z" />
<glyph unicode="q" horiz-adv-x="613" d="M259 -12q-96 0 -160 72.5t-64 197.5t65 198t163 73q52 0 90.5 -20t56.5 -53v61h140v-708h-146v243q-48 -64 -145 -64zM294 403q-51 0 -82 -39.5t-31 -105.5q0 -65 31 -104.5t82 -39.5t82 39t31 103v4q0 66 -31 104.5t-82 38.5z" />
<glyph unicode="r" horiz-adv-x="404" d="M353 519h26v-138h-34q-65 0 -100.5 -31.5t-35.5 -87.5v-262h-146v517h140v-81q46 83 150 83z" />
<glyph unicode="s" horiz-adv-x="519" d="M177 153q12 -55 90 -55q36 0 56 14.5t20 38.5q0 36 -57 44l-88 10q-156 19 -156 152q0 76 61 124t155 48q91 0 149.5 -43t68.5 -119h-141q-15 51 -81 51q-32 0 -51.5 -14.5t-19.5 -35.5q0 -37 54 -43l92 -11q72 -9 114 -47t42 -107q0 -81 -61 -126.5t-157 -45.5 q-94 0 -159 42t-73 123h142z" />
<glyph unicode="t" horiz-adv-x="374" d="M240 192q0 -39 17 -53.5t52 -14.5h30v-125h-56q-98 0 -143.5 42.5t-45.5 139.5v217h-79v119h79v132h146v-132h99v-119h-99v-206z" />
<glyph unicode="u" horiz-adv-x="597" d="M535 0h-140v60q-21 -31 -60 -51.5t-91 -20.5q-79 0 -132 49t-53 150v330h145v-298q0 -49 24.5 -74.5t65.5 -25.5q40 0 67.5 25.5t27.5 76.5v296h146v-517z" />
<glyph unicode="v" horiz-adv-x="543" d="M539 517l-192 -517h-152l-191 517h157l111 -339l111 339h156z" />
<glyph unicode="w" horiz-adv-x="814" d="M806 517l-161 -517h-143l-96 339l-95 -339h-142l-160 517h148l90 -316l90 316h141l90 -317l89 317h149z" />
<glyph unicode="x" horiz-adv-x="550" d="M375 0l-104 159l-102 -159h-159l176 260l-174 257h165l102 -162l103 162h156l-174 -261l176 -256h-165z" />
<glyph unicode="y" horiz-adv-x="550" d="M390 517h156l-272 -708h-155l78 205l-193 503h157l114 -333z" />
<glyph unicode="z" horiz-adv-x="511" d="M42 0v113l244 278h-244v126h427v-114l-244 -278h244v-125h-427z" />
<glyph unicode="{" horiz-adv-x="400" d="M264 418q0 -116 -91 -134q91 -18 91 -135v-93q0 -51 17 -72t58 -21h33v-121h-40q-209 0 -209 186v98q0 51 -16 74t-56 23h-30v120h30q40 0 56 23.5t16 74.5v100q0 186 209 186h40v-121h-33q-41 0 -58 -21t-17 -72v-95z" />
<glyph unicode="|" horiz-adv-x="318" d="M90 727h138v-885h-138v885z" />
<glyph unicode="}" horiz-adv-x="400" d="M136 418v95q0 51 -17.5 72t-57.5 21h-34v121h41q208 0 208 -186v-100q0 -51 16 -74.5t56 -23.5h30v-120h-30q-40 0 -56 -23t-16 -74v-98q0 -186 -208 -186h-41v121h34q40 0 57.5 21t17.5 72v93q0 117 90 135q-90 18 -90 134z" />
<glyph unicode="~" d="M460 368h117v-31q0 -80 -45.5 -125t-111.5 -45q-41 0 -77.5 20.5t-64.5 41.5t-48 21q-21 0 -34.5 -15t-13.5 -39v-20h-116v30q0 80 45 125t112 45q41 0 77.5 -20.5t64.5 -41t48 -20.5t33.5 14.5t13.5 38.5v21z" />
<glyph unicode="&#xa1;" horiz-adv-x="335" d="M102 282h129l11 -473h-151zM168 529q37 0 62 -25t25 -62t-25 -62t-62 -25q-38 0 -63.5 25t-25.5 62t25.5 62t63.5 25z" />
<glyph unicode="&#xa2;" horiz-adv-x="582" d="M304 204q43 0 68 21t33 51h139q-6 -74 -56.5 -127t-132.5 -67v-92h-117v95q-90 20 -143 92.5t-53 174.5t53 174.5t143 92.5v95h117v-93q81 -14 130.5 -67.5t57.5 -124.5h-140q-9 29 -34.5 50t-66.5 21q-51 0 -82.5 -40.5t-31.5 -107.5q0 -68 32 -108t84 -40z" />
<glyph unicode="&#xa3;" horiz-adv-x="608" d="M496 287h-206q0 -84 -69 -157h342v-130h-518v121q40 33 69.5 76.5t29.5 87.5v2h-102v111h68q-23 61 -23 108q0 90 65.5 150t172.5 60q103 0 167 -56.5t74 -143.5h-146q-8 32 -32.5 51.5t-62.5 19.5q-40 0 -64 -23.5t-24 -65.5q0 -29 27 -100h232v-111z" />
<glyph unicode="&#xa4;" horiz-adv-x="632" d="M548 352q0 -61 -33 -114l86 -84l-87 -89l-87 88q-51 -28 -111 -28t-111 28l-87 -88l-87 89l85 83q-32 54 -32 115q0 60 32 114l-85 84l87 89l87 -88q51 28 111 28q58 0 111 -29l87 89l87 -89l-86 -84q33 -53 33 -114zM213 352q0 -46 30.5 -75.5t72.5 -29.5q43 0 73.5 29 t30.5 76t-30.5 76t-73.5 29q-42 0 -72.5 -29.5t-30.5 -75.5z" />
<glyph unicode="&#xa5;" horiz-adv-x="645" d="M557 113h-160v-113h-149v113h-160v99h160v61h-160v99h111l-184 332h161l147 -281l147 281h160l-184 -332h111v-99h-160v-61h160v-99z" />
<glyph unicode="&#xa6;" horiz-adv-x="318" d="M228 207v-365h-138v365h138zM90 362v365h138v-365h-138z" />
<glyph unicode="&#xa7;" horiz-adv-x="563" d="M39 275q0 49 27 83.5t67 53.5q-67 44 -67 125q0 79 61.5 129t157.5 50q87 0 149 -44.5t69 -119.5h-143q-14 51 -78 51q-32 0 -51.5 -15t-19.5 -40q0 -41 59 -51l111 -21q67 -13 105 -52t38 -97q0 -44 -25 -78.5t-62 -53.5q63 -47 63 -125q0 -80 -62.5 -131.5 t-159.5 -51.5q-95 0 -157 45t-69 125h144q5 -26 28 -41t57 -15q33 0 53.5 16t20.5 41q0 43 -59 54l-112 20q-66 12 -105.5 49t-39.5 94zM183 309q0 -51 65 -61l86 -16q45 26 45 68q0 51 -69 64l-75 14q-52 -25 -52 -69z" />
<glyph unicode="&#xa8;" horiz-adv-x="520" d="M150 743q32 0 55 -22.5t23 -54.5t-23 -55t-55 -23q-33 0 -56 23t-23 55t23 54.5t56 22.5zM369 743q33 0 55.5 -22.5t22.5 -54.5t-22.5 -55t-55.5 -23t-55.5 23t-22.5 55t22.5 54.5t55.5 22.5z" />
<glyph unicode="&#xa9;" horiz-adv-x="876" d="M438 -12q130 0 216.5 87.5t86.5 222.5t-86.5 222.5t-216.5 87.5q-129 0 -216 -87.5t-87 -222.5t87 -222.5t216 -87.5zM438 -109q-170 0 -286.5 116t-116.5 291q0 176 116.5 292t286.5 116t286.5 -116.5t116.5 -291.5t-116.5 -291t-286.5 -116zM439 188q62 0 76 59h116 q-6 -74 -61 -120.5t-133 -46.5q-91 0 -150.5 60.5t-59.5 157.5q0 98 59 159t151 61q81 0 133 -45.5t61 -117.5h-119q-15 56 -75 56q-39 0 -62.5 -30t-23.5 -83q0 -52 24 -81t64 -29z" />
<glyph unicode="&#xaa;" horiz-adv-x="411" d="M259 582q0 50 -58 50q-47 0 -56 -32h-104q8 51 52.5 83.5t112.5 32.5q75 0 119 -35t44 -100v-235h-102v40q-38 -49 -111 -49q-56 0 -93 31.5t-37 84.5q0 55 41.5 86t113.5 31h78v12zM189 422q29 0 49.5 16.5t20.5 43.5v14h-70q-51 0 -51 -37q0 -16 14 -26.5t37 -10.5z " />
<glyph unicode="&#xab;" horiz-adv-x="684" d="M204 263l170 -215h-153l-175 215l175 216h153zM467 263l170 -215h-153l-175 215l175 216h153z" />
<glyph unicode="&#xac;" d="M74 408h487v-301h-136v168h-351v133z" />
<glyph unicode="&#xad;" horiz-adv-x="443" d="M59 207v132h325v-132h-325z" />
<glyph unicode="&#xae;" horiz-adv-x="625" d="M312 179q-116 0 -196.5 80.5t-80.5 200.5t80 200t197 80t197.5 -80t80.5 -200q0 -121 -80.5 -201t-197.5 -80zM312 260q84 0 140 56.5t56 143.5t-56 143.5t-140 56.5q-83 0 -139 -56.5t-56 -143.5t56 -143.5t139 -56.5zM420 501q0 -44 -37 -71l55 -99h-83l-44 78h-30v-78 h-75v260h112q47 0 74.5 -25t27.5 -65zM311 529h-30v-59h30q14 0 22.5 8.5t8.5 21.5t-8.5 21t-22.5 8z" />
<glyph unicode="&#xaf;" horiz-adv-x="520" d="M99 717h322v-103h-322v103z" />
<glyph unicode="&#xb0;" horiz-adv-x="476" d="M436 516q0 -84 -58 -140t-140 -56q-83 0 -140.5 56t-57.5 140q0 83 57.5 139t140.5 56q82 0 140 -56t58 -139zM154 516q0 -37 24.5 -61t59.5 -24t59 24t24 61q0 36 -24 60t-59 24t-59.5 -24t-24.5 -60z" />
<glyph unicode="&#xb1;" d="M565 275h-180v-153h180v-120h-487v120h179v153h-180v115h180v158h128v-158h180v-115z" />
<glyph unicode="&#xb2;" horiz-adv-x="411" d="M198 433h181v-99h-339v93l170 147q45 39 45 65q0 18 -14.5 30t-37.5 12q-47 0 -56 -41h-112q5 61 51 100.5t120 39.5q76 0 121 -39t45 -97q0 -42 -20 -71.5t-58 -60.5z" />
<glyph unicode="&#xb3;" horiz-adv-x="417" d="M34 646q6 61 55.5 97.5t117.5 36.5q72 0 117.5 -34.5t45.5 -86.5q0 -67 -65 -95q32 -9 57 -36.5t25 -68.5q0 -58 -50 -96t-127 -38q-74 0 -125 38.5t-55 102.5h112q5 -19 23.5 -31t44.5 -12q25 0 42 12t17 33q0 41 -62 41h-50v95h39q27 0 42.5 11t15.5 29 q0 17 -14.5 27.5t-37.5 10.5q-22 0 -37.5 -10.5t-17.5 -25.5h-113z" />
<glyph unicode="&#xb4;" horiz-adv-x="520" d="M374 756l-109 -170h-119l94 170h134z" />
<glyph unicode="&#xb5;" horiz-adv-x="603" d="M394 517h146v-517h-140v60q-21 -31 -60 -51.5t-91 -20.5q-22 0 -40 8v-187h-146v708h146v-298q0 -49 24.5 -74.5t65.5 -25.5q40 0 67.5 25.5t27.5 76.5v296z" />
<glyph unicode="&#xb6;" horiz-adv-x="647" d="M39 498q0 91 60.5 148.5t161.5 57.5h126v-805h-117v395h-9q-101 0 -161.5 57.5t-60.5 146.5zM457 704h116v-805h-116v805z" />
<glyph unicode="&#xb7;" horiz-adv-x="295" d="M148 346q37 0 62 -25t25 -62t-25 -62t-62 -25q-38 0 -63.5 25t-25.5 62t25.5 62t63.5 25z" />
<glyph unicode="&#xb8;" horiz-adv-x="520" d="M296 14v-14l-16 -49q35 -4 61 -28t26 -65q0 -51 -39 -81.5t-114 -30.5h-63v82h51q46 0 46 35q0 33 -45 33h-30v21l36 97h87z" />
<glyph unicode="&#xb9;" horiz-adv-x="305" d="M239 772v-438h-116v315l-95 -59v113l103 69h108z" />
<glyph unicode="&#xba;" horiz-adv-x="432" d="M216 716q83 0 136 -52.5t53 -137.5t-53 -137t-136 -52t-136.5 52.5t-53.5 137.5t53.5 137t136.5 52zM216 433q35 0 56 26t21 67t-21 68t-56 27t-56.5 -26.5t-21.5 -67.5t21.5 -67.5t56.5 -26.5z" />
<glyph unicode="&#xbb;" horiz-adv-x="684" d="M217 263l-171 216h154l174 -216l-174 -215h-154zM479 263l-170 216h153l175 -216l-175 -215h-153z" />
<glyph unicode="&#xbc;" horiz-adv-x="996" d="M239 704v-438h-116v315l-95 -59v113l103 69h108zM142 0l499 704h135l-499 -704h-135zM970 172v-93h-58v-79h-112v79h-211v93l173 266h150v-266h58zM700 172h100v151z" />
<glyph unicode="&#xbd;" horiz-adv-x="1024" d="M239 704v-438h-116v315l-95 -59v113l103 69h108zM142 0l499 704h135l-499 -704h-135zM811 99h181v-99h-339v93l170 147q45 39 45 65q0 18 -14.5 30t-37.5 12q-47 0 -56 -41h-112q5 61 51 100.5t120 39.5q76 0 121 -39t45 -97q0 -42 -20 -71.5t-58 -60.5z" />
<glyph unicode="&#xbe;" horiz-adv-x="1108" d="M34 578q6 61 55.5 97.5t117.5 36.5q72 0 117.5 -34.5t45.5 -86.5q0 -67 -65 -95q32 -9 57 -36.5t25 -68.5q0 -58 -50 -96t-127 -38q-74 0 -125 38.5t-55 102.5h112q5 -19 23.5 -31t44.5 -12q25 0 42 12t17 33q0 41 -62 41h-50v95h39q27 0 42.5 11t15.5 29 q0 17 -14.5 27.5t-37.5 10.5q-22 0 -37.5 -10.5t-17.5 -25.5h-113zM254 0l499 704h135l-499 -704h-135zM1082 172v-93h-58v-79h-112v79h-211v93l173 266h150v-266h58zM812 172h100v151z" />
<glyph unicode="&#xbf;" horiz-adv-x="543" d="M290 529q37 0 62.5 -25t25.5 -62t-25.5 -62t-62.5 -25t-62.5 25t-25.5 62t25.5 62t62.5 25zM186 -2q0 -31 23 -50t62 -19q41 0 67.5 20.5t34.5 56.5h137q-6 -89 -72 -147.5t-170 -58.5q-106 0 -166.5 54t-60.5 137q0 47 17.5 82t36.5 50.5t50 35.5q7 4 10 6 q22 14 30.5 20t21 18.5t16.5 26.5t4 34v19h134v-33q0 -63 -23 -95.5t-76 -66.5q-30 -19 -40 -26.5t-23 -25t-13 -38.5z" />
<glyph unicode="&#xc0;" horiz-adv-x="699" d="M270 704h158l258 -704h-158l-50 145h-258l-49 -145h-158zM348 527l-85 -254h170zM177 941h134l94 -170h-119z" />
<glyph unicode="&#xc1;" horiz-adv-x="699" d="M270 704h158l258 -704h-158l-50 145h-258l-49 -145h-158zM348 527l-85 -254h170zM523 941l-109 -170h-119l94 170h134z" />
<glyph unicode="&#xc2;" horiz-adv-x="699" d="M270 704h158l258 -704h-158l-50 145h-258l-49 -145h-158zM348 527l-85 -254h170zM274 771h-126l142 170h120l142 -170h-126l-76 84z" />
<glyph unicode="&#xc3;" horiz-adv-x="699" d="M270 704h158l258 -704h-158l-50 145h-258l-49 -145h-158zM348 527l-85 -254h170zM445 928h91v-22q0 -66 -31 -102t-84 -36q-29 0 -56 15t-46.5 30t-31.5 15q-14 0 -23.5 -10t-9.5 -29v-14h-90v22q0 66 30.5 102t83.5 36q29 0 56 -14.5t46.5 -29.5t31.5 -15q33 0 33 38v14 z" />
<glyph unicode="&#xc4;" horiz-adv-x="699" d="M270 704h158l258 -704h-158l-50 145h-258l-49 -145h-158zM348 527l-85 -254h170zM236 928q33 0 55.5 -23t22.5 -55t-22.5 -54.5t-55.5 -22.5t-55.5 22.5t-22.5 54.5t22.5 55t55.5 23zM465 928q32 0 55 -23t23 -55t-23 -54.5t-55 -22.5q-33 0 -55.5 22.5t-22.5 54.5 t22.5 55t55.5 23z" />
<glyph unicode="&#xc5;" horiz-adv-x="699" d="M270 704h158l258 -704h-158l-50 145h-258l-49 -145h-158zM348 527l-85 -254h170zM472 876q0 -50 -35 -83.5t-87 -33.5t-87 33.5t-35 83.5q0 51 34.5 84t87.5 33t87.5 -33t34.5 -84zM307 876q0 -19 12.5 -31t30.5 -12t30.5 12t12.5 31t-12.5 31t-30.5 12t-30.5 -12 t-12.5 -31z" />
<glyph unicode="&#xc6;" horiz-adv-x="1004" d="M399 704h555v-136h-319v-144h300v-131h-300v-157h319v-136h-470v146h-239l-82 -146h-160zM317 273h167v297z" />
<glyph unicode="&#xc7;" horiz-adv-x="715" d="M525 243h152q-7 -92 -74 -166t-187 -87l-13 -39q35 -4 61 -28t26 -65q0 -51 -39 -81.5t-114 -30.5h-63v82h51q46 0 46 35q0 33 -45 33h-30v21l27 74q-125 16 -203 112.5t-78 248.5q0 163 92 263.5t237 100.5q133 0 212 -72t93 -182h-152q-13 51 -52 84t-101 33 q-77 0 -125 -62t-48 -165q0 -102 48 -164.5t126 -62.5q65 0 105 36.5t48 81.5z" />
<glyph unicode="&#xc8;" horiz-adv-x="596" d="M546 568h-319v-144h300v-131h-300v-157h319v-136h-472v704h472v-136zM140 941h134l94 -170h-119z" />
<glyph unicode="&#xc9;" horiz-adv-x="596" d="M546 568h-319v-144h300v-131h-300v-157h319v-136h-472v704h472v-136zM486 941l-109 -170h-119l94 170h134z" />
<glyph unicode="&#xca;" horiz-adv-x="596" d="M546 568h-319v-144h300v-131h-300v-157h319v-136h-472v704h472v-136zM237 771h-126l142 170h120l142 -170h-126l-76 84z" />
<glyph unicode="&#xcb;" horiz-adv-x="596" d="M546 568h-319v-144h300v-131h-300v-157h319v-136h-472v704h472v-136zM199 928q33 0 55.5 -23t22.5 -55t-22.5 -54.5t-55.5 -22.5t-55.5 22.5t-22.5 54.5t22.5 55t55.5 23zM428 928q32 0 55 -23t23 -55t-23 -54.5t-55 -22.5q-33 0 -55.5 22.5t-22.5 54.5t22.5 55t55.5 23z " />
<glyph unicode="&#xcc;" horiz-adv-x="301" d="M227 704v-704h-153v704h153zM-21 941h134l94 -170h-119z" />
<glyph unicode="&#xcd;" horiz-adv-x="301" d="M227 704v-704h-153v704h153zM323 941l-109 -170h-119l94 170h134z" />
<glyph unicode="&#xce;" horiz-adv-x="301" d="M227 704v-704h-153v704h153zM79 771h-126l138 170h120l138 -170h-125l-73 84z" />
<glyph unicode="&#xcf;" horiz-adv-x="301" d="M227 704v-704h-153v704h153zM42 928q32 0 55 -22.5t23 -54.5t-23 -55t-55 -23q-33 0 -56 23t-23 55t23 54.5t56 22.5zM261 928q33 0 55.5 -22.5t22.5 -54.5t-22.5 -55t-55.5 -23t-55.5 23t-22.5 55t22.5 54.5t55.5 22.5z" />
<glyph unicode="&#xd0;" horiz-adv-x="736" d="M343 704q167 0 259 -93.5t92 -258.5t-92 -258.5t-259 -93.5h-249v303h-73v115h73v286h249zM380 303h-133v-169h84q102 0 155 57t53 161t-53 161t-155 57h-84v-152h133v-115z" />
<glyph unicode="&#xd1;" horiz-adv-x="747" d="M234 704l292 -446v446h147v-704h-144l-308 468v-468h-147v704h160zM471 928h91v-22q0 -66 -31 -102t-84 -36q-29 0 -56 15t-46.5 30t-31.5 15q-14 0 -23.5 -10t-9.5 -29v-14h-90v22q0 66 30.5 102t83.5 36q29 0 56 -14.5t46.5 -29.5t31.5 -15q33 0 33 38v14z" />
<glyph unicode="&#xd2;" horiz-adv-x="758" d="M379 716q150 0 243.5 -100.5t93.5 -263.5t-93.5 -263.5t-243.5 -100.5t-243.5 100.5t-93.5 263.5t93.5 263.5t243.5 100.5zM379 125q84 0 132.5 63.5t48.5 163.5t-48.5 163.5t-132.5 63.5t-132.5 -63.5t-48.5 -163.5t48.5 -163.5t132.5 -63.5zM206 941h134l94 -170h-119z " />
<glyph unicode="&#xd3;" horiz-adv-x="758" d="M379 716q150 0 243.5 -100.5t93.5 -263.5t-93.5 -263.5t-243.5 -100.5t-243.5 100.5t-93.5 263.5t93.5 263.5t243.5 100.5zM379 125q84 0 132.5 63.5t48.5 163.5t-48.5 163.5t-132.5 63.5t-132.5 -63.5t-48.5 -163.5t48.5 -163.5t132.5 -63.5zM552 941l-109 -170h-119 l94 170h134z" />
<glyph unicode="&#xd4;" horiz-adv-x="758" d="M379 716q150 0 243.5 -100.5t93.5 -263.5t-93.5 -263.5t-243.5 -100.5t-243.5 100.5t-93.5 263.5t93.5 263.5t243.5 100.5zM379 125q84 0 132.5 63.5t48.5 163.5t-48.5 163.5t-132.5 63.5t-132.5 -63.5t-48.5 -163.5t48.5 -163.5t132.5 -63.5zM303 771h-126l142 170h120 l142 -170h-126l-76 84z" />
<glyph unicode="&#xd5;" horiz-adv-x="758" d="M379 716q150 0 243.5 -100.5t93.5 -263.5t-93.5 -263.5t-243.5 -100.5t-243.5 100.5t-93.5 263.5t93.5 263.5t243.5 100.5zM379 125q84 0 132.5 63.5t48.5 163.5t-48.5 163.5t-132.5 63.5t-132.5 -63.5t-48.5 -163.5t48.5 -163.5t132.5 -63.5zM474 928h91v-22 q0 -66 -31 -102t-84 -36q-29 0 -56 15t-46.5 30t-31.5 15q-14 0 -23.5 -10t-9.5 -29v-14h-90v22q0 66 30.5 102t83.5 36q29 0 56 -14.5t46.5 -29.5t31.5 -15q33 0 33 38v14z" />
<glyph unicode="&#xd6;" horiz-adv-x="758" d="M379 716q150 0 243.5 -100.5t93.5 -263.5t-93.5 -263.5t-243.5 -100.5t-243.5 100.5t-93.5 263.5t93.5 263.5t243.5 100.5zM379 125q84 0 132.5 63.5t48.5 163.5t-48.5 163.5t-132.5 63.5t-132.5 -63.5t-48.5 -163.5t48.5 -163.5t132.5 -63.5zM265 928q33 0 55.5 -23 t22.5 -55t-22.5 -54.5t-55.5 -22.5t-55.5 22.5t-22.5 54.5t22.5 55t55.5 23zM494 928q32 0 55 -23t23 -55t-23 -54.5t-55 -22.5q-33 0 -55.5 22.5t-22.5 54.5t22.5 55t55.5 23z" />
<glyph unicode="&#xd7;" d="M567 115l-88 -87l-158 157l-158 -158l-88 88l158 158l-158 159l88 87l158 -158l158 158l89 -87l-159 -159z" />
<glyph unicode="&#xd8;" horiz-adv-x="758" d="M702 740l-82 -123q96 -102 96 -265t-93.5 -263.5t-243.5 -100.5q-83 0 -153 34l-39 -58h-131l82 123q-96 101 -96 265q0 163 93.5 263.5t243.5 100.5q85 0 153 -35l39 59h131zM192 352q0 -82 30 -137l234 352q-36 17 -77 17q-86 0 -136.5 -64.5t-50.5 -167.5zM379 120 q86 0 136.5 65t50.5 167q0 79 -31 136l-233 -351q34 -17 77 -17z" />
<glyph unicode="&#xd9;" horiz-adv-x="730" d="M69 286v418h153v-414q0 -79 38.5 -122t104.5 -43t104.5 43t38.5 122v414h153v-418q0 -146 -82 -222t-214 -76t-214 76t-82 222zM192 941h134l94 -170h-119z" />
<glyph unicode="&#xda;" horiz-adv-x="730" d="M69 286v418h153v-414q0 -79 38.5 -122t104.5 -43t104.5 43t38.5 122v414h153v-418q0 -146 -82 -222t-214 -76t-214 76t-82 222zM538 941l-109 -170h-119l94 170h134z" />
<glyph unicode="&#xdb;" horiz-adv-x="730" d="M69 286v418h153v-414q0 -79 38.5 -122t104.5 -43t104.5 43t38.5 122v414h153v-418q0 -146 -82 -222t-214 -76t-214 76t-82 222zM289 771h-126l142 170h120l142 -170h-126l-76 84z" />
<glyph unicode="&#xdc;" horiz-adv-x="730" d="M69 286v418h153v-414q0 -79 38.5 -122t104.5 -43t104.5 43t38.5 122v414h153v-418q0 -146 -82 -222t-214 -76t-214 76t-82 222zM251 928q33 0 55.5 -23t22.5 -55t-22.5 -54.5t-55.5 -22.5t-55.5 22.5t-22.5 54.5t22.5 55t55.5 23zM480 928q32 0 55 -23t23 -55t-23 -54.5 t-55 -22.5q-33 0 -55.5 22.5t-22.5 54.5t22.5 55t55.5 23z" />
<glyph unicode="&#xdd;" horiz-adv-x="669" d="M411 0h-153v267l-248 437h166l159 -291l159 291h165l-248 -437v-267zM511 941l-109 -170h-119l94 170h134z" />
<glyph unicode="&#xde;" horiz-adv-x="630" d="M227 0h-153v704h153v-115h117q116 0 183 -63.5t67 -166.5q0 -101 -68 -165.5t-179 -64.5h-120v-129zM330 457h-103v-197h103q49 0 79 27t30 72q0 47 -29 72.5t-80 25.5z" />
<glyph unicode="&#xdf;" horiz-adv-x="620" d="M63 0v490q0 112 72.5 174.5t180.5 62.5q105 0 170.5 -56.5t65.5 -141.5q0 -102 -91 -145q49 -14 86.5 -59t37.5 -116q0 -91 -64.5 -150t-172.5 -59h-75v125h62q47 0 75 25.5t28 67.5q0 43 -28.5 69t-75.5 26h-49v119h30q42 0 67 24t25 60q0 37 -25.5 61t-65.5 24 q-47 0 -77 -31t-30 -88v-482h-146z" />
<glyph unicode="&#xe0;" horiz-adv-x="560" d="M359 343q0 35 -23.5 54t-61.5 19q-69 0 -84 -50h-136q11 71 70 117t156 46q102 0 162 -49.5t60 -141.5v-338h-135v56q-53 -68 -153 -68q-78 0 -129 44t-51 120q0 79 56.5 123t155.5 44h113v24zM254 101q44 0 74.5 25.5t30.5 68.5v23h-102q-34 0 -55.5 -16t-21.5 -43 t20 -42.5t54 -15.5zM109 756h134l94 -170h-119z" />
<glyph unicode="&#xe1;" horiz-adv-x="560" d="M359 343q0 35 -23.5 54t-61.5 19q-69 0 -84 -50h-136q11 71 70 117t156 46q102 0 162 -49.5t60 -141.5v-338h-135v56q-53 -68 -153 -68q-78 0 -129 44t-51 120q0 79 56.5 123t155.5 44h113v24zM254 101q44 0 74.5 25.5t30.5 68.5v23h-102q-34 0 -55.5 -16t-21.5 -43 t20 -42.5t54 -15.5zM455 756l-109 -170h-119l94 170h134z" />
<glyph unicode="&#xe2;" horiz-adv-x="560" d="M359 343q0 35 -23.5 54t-61.5 19q-69 0 -84 -50h-136q11 71 70 117t156 46q102 0 162 -49.5t60 -141.5v-338h-135v56q-53 -68 -153 -68q-78 0 -129 44t-51 120q0 79 56.5 123t155.5 44h113v24zM254 101q44 0 74.5 25.5t30.5 68.5v23h-102q-34 0 -55.5 -16t-21.5 -43 t20 -42.5t54 -15.5zM210 586h-126l138 170h120l138 -170h-125l-73 84z" />
<glyph unicode="&#xe3;" horiz-adv-x="560" d="M359 343q0 35 -23.5 54t-61.5 19q-69 0 -84 -50h-136q11 71 70 117t156 46q102 0 162 -49.5t60 -141.5v-338h-135v56q-53 -68 -153 -68q-78 0 -129 44t-51 120q0 79 56.5 123t155.5 44h113v24zM254 101q44 0 74.5 25.5t30.5 68.5v23h-102q-34 0 -55.5 -16t-21.5 -43 t20 -42.5t54 -15.5zM375 743h90v-22q0 -66 -31 -101.5t-84 -35.5q-38 0 -78 29.5t-52 29.5q-31 0 -31 -38v-15h-90v22q0 66 30.5 102t83.5 36q29 0 55 -15t44.5 -29.5t30.5 -14.5q32 0 32 38v14z" />
<glyph unicode="&#xe4;" horiz-adv-x="560" d="M359 343q0 35 -23.5 54t-61.5 19q-69 0 -84 -50h-136q11 71 70 117t156 46q102 0 162 -49.5t60 -141.5v-338h-135v56q-53 -68 -153 -68q-78 0 -129 44t-51 120q0 79 56.5 123t155.5 44h113v24zM254 101q44 0 74.5 25.5t30.5 68.5v23h-102q-34 0 -55.5 -16t-21.5 -43 t20 -42.5t54 -15.5zM173 743q32 0 55 -22.5t23 -54.5t-23 -55t-55 -23q-33 0 -56 23t-23 55t23 54.5t56 22.5zM392 743q33 0 55.5 -22.5t22.5 -54.5t-22.5 -55t-55.5 -23t-55.5 23t-22.5 55t22.5 54.5t55.5 22.5z" />
<glyph unicode="&#xe5;" horiz-adv-x="560" d="M359 343q0 35 -23.5 54t-61.5 19q-69 0 -84 -50h-136q11 71 70 117t156 46q102 0 162 -49.5t60 -141.5v-338h-135v56q-53 -68 -153 -68q-78 0 -129 44t-51 120q0 79 56.5 123t155.5 44h113v24zM254 101q44 0 74.5 25.5t30.5 68.5v23h-102q-34 0 -55.5 -16t-21.5 -43 t20 -42.5t54 -15.5zM404 691q0 -50 -35 -83.5t-87 -33.5t-87 33.5t-35 83.5q0 51 34.5 84t87.5 33t87.5 -33t34.5 -84zM239 691q0 -19 12.5 -31t30.5 -12t30.5 12t12.5 31t-12.5 31t-30.5 12t-30.5 -12t-12.5 -31z" />
<glyph unicode="&#xe6;" horiz-adv-x="886" d="M273 529q119 0 169 -76q65 76 173 76q107 0 171.5 -71t64.5 -191v-50h-349v-2q0 -48 32.5 -80t83.5 -32q35 0 58 14t28 31h141q-11 -63 -68.5 -111.5t-155.5 -48.5q-130 0 -195 93q-68 -93 -198 -93q-85 0 -139.5 44t-54.5 120q0 79 56.5 123t155.5 44h113v24 q0 35 -23.5 54t-62.5 19q-68 0 -83 -50h-136q11 70 68.5 116.5t150.5 46.5zM255 101q44 0 74 25.5t30 68.5v23h-102q-34 0 -55.5 -16t-21.5 -43t20.5 -42.5t54.5 -15.5zM609 415q-44 0 -72.5 -25.5t-33.5 -70.5h205q-3 44 -29.5 70t-69.5 26z" />
<glyph unicode="&#xe7;" horiz-adv-x="560" d="M293 114q77 0 96 72h139q-6 -76 -57.5 -129.5t-134.5 -65.5l-13 -40q35 -4 61 -28t26 -65q0 -51 -39 -81.5t-114 -30.5h-63v82h51q46 0 46 35q0 33 -45 33h-30v21l28 75q-97 16 -153 88t-56 178q0 118 70 194.5t187 76.5q102 0 164 -57t71 -140h-140q-22 71 -95 71 q-51 0 -81 -39.5t-30 -105.5t30.5 -105t81.5 -39z" />
<glyph unicode="&#xe8;" horiz-adv-x="566" d="M531 217h-349v-2q0 -48 32.5 -80t84.5 -32q34 0 57 14t29 31h141q-12 -63 -70.5 -111.5t-159.5 -48.5q-119 0 -190 71.5t-71 196.5t69.5 199t183.5 74q111 0 177 -71t66 -191v-50zM289 415q-44 0 -72 -25.5t-34 -70.5h206q-3 44 -30 70t-70 26zM115 756h134l94 -170h-119 z" />
<glyph unicode="&#xe9;" horiz-adv-x="566" d="M531 217h-349v-2q0 -48 32.5 -80t84.5 -32q34 0 57 14t29 31h141q-12 -63 -70.5 -111.5t-159.5 -48.5q-119 0 -190 71.5t-71 196.5t69.5 199t183.5 74q111 0 177 -71t66 -191v-50zM289 415q-44 0 -72 -25.5t-34 -70.5h206q-3 44 -30 70t-70 26zM461 756l-109 -170h-119 l94 170h134z" />
<glyph unicode="&#xea;" horiz-adv-x="566" d="M531 217h-349v-2q0 -48 32.5 -80t84.5 -32q34 0 57 14t29 31h141q-12 -63 -70.5 -111.5t-159.5 -48.5q-119 0 -190 71.5t-71 196.5t69.5 199t183.5 74q111 0 177 -71t66 -191v-50zM289 415q-44 0 -72 -25.5t-34 -70.5h206q-3 44 -30 70t-70 26zM216 586h-126l138 170h120 l138 -170h-125l-73 84z" />
<glyph unicode="&#xeb;" horiz-adv-x="566" d="M531 217h-349v-2q0 -48 32.5 -80t84.5 -32q34 0 57 14t29 31h141q-12 -63 -70.5 -111.5t-159.5 -48.5q-119 0 -190 71.5t-71 196.5t69.5 199t183.5 74q111 0 177 -71t66 -191v-50zM289 415q-44 0 -72 -25.5t-34 -70.5h206q-3 44 -30 70t-70 26zM179 743q32 0 55 -22.5 t23 -54.5t-23 -55t-55 -23q-33 0 -56 23t-23 55t23 54.5t56 22.5zM398 743q33 0 55.5 -22.5t22.5 -54.5t-22.5 -55t-55.5 -23t-55.5 23t-22.5 55t22.5 54.5t55.5 22.5z" />
<glyph unicode="&#xec;" horiz-adv-x="272" d="M209 517v-517h-146v517h146zM-37 756h134l94 -170h-119z" />
<glyph unicode="&#xed;" horiz-adv-x="272" d="M209 517v-517h-146v517h146zM307 756l-109 -170h-119l94 170h134z" />
<glyph unicode="&#xee;" horiz-adv-x="272" d="M209 517v-517h-146v517h146zM72 586h-123l126 170h120l126 -170h-123l-63 84z" />
<glyph unicode="&#xef;" horiz-adv-x="272" d="M209 517v-517h-146v517h146zM31 743q33 0 55.5 -22.5t22.5 -54.5t-22.5 -55t-55.5 -23t-55.5 23t-22.5 55t22.5 54.5t55.5 22.5zM240 743q32 0 55 -22.5t23 -54.5t-23 -55t-55 -23q-33 0 -55.5 23t-22.5 55t22.5 54.5t55.5 22.5z" />
<glyph unicode="&#xf0;" horiz-adv-x="603" d="M319 727q33 -19 62 -43l128 43v-89l-62 -21q112 -140 112 -320q0 -143 -68.5 -226t-195.5 -83q-117 0 -188.5 73.5t-71.5 187.5q0 113 65.5 183t167.5 70q83 0 129 -52q-20 63 -70 126l-138 -46v89l73 25q-33 29 -111 83h168zM296 110q55 0 85.5 39.5t30.5 101.5 q0 59 -31 96t-85 37t-84.5 -37.5t-30.5 -97.5q0 -59 30.5 -99t84.5 -40z" />
<glyph unicode="&#xf1;" horiz-adv-x="597" d="M63 517h140v-61q20 31 59 52t91 21q80 0 133 -49.5t53 -149.5v-330h-146v298q0 49 -24 74.5t-65 25.5q-39 0 -67 -26t-28 -76v-296h-146v517zM397 743h90v-22q0 -66 -31 -101.5t-84 -35.5q-38 0 -78 29.5t-52 29.5q-31 0 -31 -38v-15h-90v22q0 66 30.5 102t83.5 36 q29 0 55 -15t44.5 -29.5t30.5 -14.5q32 0 32 38v14z" />
<glyph unicode="&#xf2;" horiz-adv-x="591" d="M296 529q115 0 187.5 -74.5t72.5 -196.5t-72.5 -196t-187.5 -74q-116 0 -188.5 74t-72.5 196t72.5 196.5t188.5 74.5zM296 114q52 0 83 40t31 104q0 65 -30.5 105t-83.5 40t-84 -40t-31 -105q0 -64 31 -104t84 -40zM123 756h134l94 -170h-119z" />
<glyph unicode="&#xf3;" horiz-adv-x="591" d="M296 529q115 0 187.5 -74.5t72.5 -196.5t-72.5 -196t-187.5 -74q-116 0 -188.5 74t-72.5 196t72.5 196.5t188.5 74.5zM296 114q52 0 83 40t31 104q0 65 -30.5 105t-83.5 40t-84 -40t-31 -105q0 -64 31 -104t84 -40zM469 756l-109 -170h-119l94 170h134z" />
<glyph unicode="&#xf4;" horiz-adv-x="591" d="M296 529q115 0 187.5 -74.5t72.5 -196.5t-72.5 -196t-187.5 -74q-116 0 -188.5 74t-72.5 196t72.5 196.5t188.5 74.5zM296 114q52 0 83 40t31 104q0 65 -30.5 105t-83.5 40t-84 -40t-31 -105q0 -64 31 -104t84 -40zM224 586h-126l138 170h120l138 -170h-125l-73 84z" />
<glyph unicode="&#xf5;" horiz-adv-x="591" d="M296 529q115 0 187.5 -74.5t72.5 -196.5t-72.5 -196t-187.5 -74q-116 0 -188.5 74t-72.5 196t72.5 196.5t188.5 74.5zM296 114q52 0 83 40t31 104q0 65 -30.5 105t-83.5 40t-84 -40t-31 -105q0 -64 31 -104t84 -40zM389 743h90v-22q0 -66 -31 -101.5t-84 -35.5 q-38 0 -78 29.5t-52 29.5q-31 0 -31 -38v-15h-90v22q0 66 30.5 102t83.5 36q29 0 55 -15t44.5 -29.5t30.5 -14.5q32 0 32 38v14z" />
<glyph unicode="&#xf6;" horiz-adv-x="591" d="M296 529q115 0 187.5 -74.5t72.5 -196.5t-72.5 -196t-187.5 -74q-116 0 -188.5 74t-72.5 196t72.5 196.5t188.5 74.5zM296 114q52 0 83 40t31 104q0 65 -30.5 105t-83.5 40t-84 -40t-31 -105q0 -64 31 -104t84 -40zM187 743q32 0 55 -22.5t23 -54.5t-23 -55t-55 -23 q-33 0 -56 23t-23 55t23 54.5t56 22.5zM406 743q33 0 55.5 -22.5t22.5 -54.5t-22.5 -55t-55.5 -23t-55.5 23t-22.5 55t22.5 54.5t55.5 22.5z" />
<glyph unicode="&#xf7;" d="M319 550q34 0 57.5 -23t23.5 -56q0 -34 -23.5 -56.5t-57.5 -22.5t-57.5 22.5t-23.5 56.5q0 33 23.5 56t57.5 23zM570 213h-498v120h498v-120zM319 154q33 0 57 -23t24 -56t-23.5 -55.5t-57.5 -22.5t-57.5 22.5t-23.5 55.5t23.5 56t57.5 23z" />
<glyph unicode="&#xf8;" horiz-adv-x="591" d="M540 556l-62 -97q78 -75 78 -201q0 -122 -72.5 -196t-187.5 -74q-58 0 -107 20l-30 -47h-108l61 96q-77 77 -77 201q0 122 72.5 196.5t188.5 74.5q57 0 106 -20l30 47h108zM296 102q56 0 90 43t34 113q0 48 -17 85l-149 -234q18 -7 42 -7zM171 258q0 -46 16 -84l150 234 q-23 7 -41 7q-57 0 -91 -43t-34 -114z" />
<glyph unicode="&#xf9;" horiz-adv-x="597" d="M535 0h-140v60q-21 -31 -60 -51.5t-91 -20.5q-79 0 -132 49t-53 150v330h145v-298q0 -49 24.5 -74.5t65.5 -25.5q40 0 67.5 25.5t27.5 76.5v296h146v-517zM123 756h134l94 -170h-119z" />
<glyph unicode="&#xfa;" horiz-adv-x="597" d="M535 0h-140v60q-21 -31 -60 -51.5t-91 -20.5q-79 0 -132 49t-53 150v330h145v-298q0 -49 24.5 -74.5t65.5 -25.5q40 0 67.5 25.5t27.5 76.5v296h146v-517zM469 756l-109 -170h-119l94 170h134z" />
<glyph unicode="&#xfb;" horiz-adv-x="597" d="M535 0h-140v60q-21 -31 -60 -51.5t-91 -20.5q-79 0 -132 49t-53 150v330h145v-298q0 -49 24.5 -74.5t65.5 -25.5q40 0 67.5 25.5t27.5 76.5v296h146v-517zM224 586h-126l138 170h120l138 -170h-125l-73 84z" />
<glyph unicode="&#xfc;" horiz-adv-x="597" d="M535 0h-140v60q-21 -31 -60 -51.5t-91 -20.5q-79 0 -132 49t-53 150v330h145v-298q0 -49 24.5 -74.5t65.5 -25.5q40 0 67.5 25.5t27.5 76.5v296h146v-517zM187 743q32 0 55 -22.5t23 -54.5t-23 -55t-55 -23q-33 0 -56 23t-23 55t23 54.5t56 22.5zM406 743 q33 0 55.5 -22.5t22.5 -54.5t-22.5 -55t-55.5 -23t-55.5 23t-22.5 55t22.5 54.5t55.5 22.5z" />
<glyph unicode="&#xfd;" horiz-adv-x="550" d="M390 517h156l-272 -708h-155l78 205l-193 503h157l114 -333zM448 756l-109 -170h-119l94 170h134z" />
<glyph unicode="&#xfe;" horiz-adv-x="613" d="M354 529q96 0 160 -72.5t64 -198.5q0 -124 -65 -197t-163 -73t-141 62v-241h-146v918h146v-262q48 64 145 64zM319 114q51 0 81.5 39t30.5 105t-30.5 105.5t-81.5 39.5t-82 -39t-31 -104v-4q0 -65 31 -103.5t82 -38.5z" />
<glyph unicode="&#xff;" horiz-adv-x="550" d="M390 517h156l-272 -708h-155l78 205l-193 503h157l114 -333zM166 743q32 0 55 -22.5t23 -54.5t-23 -55t-55 -23q-33 0 -56 23t-23 55t23 54.5t56 22.5zM385 743q33 0 55.5 -22.5t22.5 -54.5t-22.5 -55t-55.5 -23t-55.5 23t-22.5 55t22.5 54.5t55.5 22.5z" />
<glyph unicode="&#x100;" horiz-adv-x="699" d="M270 704h158l258 -704h-158l-50 145h-258l-49 -145h-158zM348 527l-85 -254h170zM184 902h332v-104h-332v104z" />
<glyph unicode="&#x101;" horiz-adv-x="560" d="M359 343q0 35 -23.5 54t-61.5 19q-69 0 -84 -50h-136q11 71 70 117t156 46q102 0 162 -49.5t60 -141.5v-338h-135v56q-53 -68 -153 -68q-78 0 -129 44t-51 120q0 79 56.5 123t155.5 44h113v24zM254 101q44 0 74.5 25.5t30.5 68.5v23h-102q-34 0 -55.5 -16t-21.5 -43 t20 -42.5t54 -15.5zM121 717h322v-103h-322v103z" />
<glyph unicode="&#x102;" horiz-adv-x="699" d="M270 704h158l258 -704h-158l-50 145h-258l-49 -145h-158zM348 527l-85 -254h170zM276 938q0 -33 19 -55.5t55 -22.5t55 22.5t19 55.5h110q-1 -78 -50.5 -125.5t-133.5 -47.5t-133.5 47.5t-50.5 125.5h110z" />
<glyph unicode="&#x103;" horiz-adv-x="560" d="M359 343q0 35 -23.5 54t-61.5 19q-69 0 -84 -50h-136q11 71 70 117t156 46q102 0 162 -49.5t60 -141.5v-338h-135v56q-53 -68 -153 -68q-78 0 -129 44t-51 120q0 79 56.5 123t155.5 44h113v24zM254 101q44 0 74.5 25.5t30.5 68.5v23h-102q-34 0 -55.5 -16t-21.5 -43 t20 -42.5t54 -15.5zM211 753q0 -33 18.5 -55.5t52.5 -22.5t52.5 22.5t18.5 55.5h109q-1 -79 -49 -126t-131 -47t-131 47t-49 126h109z" />
<glyph unicode="&#x104;" horiz-adv-x="699" d="M270 704h158l258 -704q-74 -53 -74 -98q0 -46 52 -46h39v-96h-68q-72 0 -110 30t-38 80q0 73 79 130h-38l-50 145h-258l-49 -145h-158zM348 527l-85 -254h170z" />
<glyph unicode="&#x105;" horiz-adv-x="560" d="M359 343q0 35 -23.5 54t-61.5 19q-69 0 -84 -50h-136q11 71 70 117t156 46q102 0 162 -49.5t60 -141.5v-338q-74 -53 -74 -98q0 -46 52 -46h39v-96h-68q-72 0 -110 30t-38 80q0 73 79 130h-15v56q-53 -68 -153 -68q-78 0 -129 44t-51 120q0 79 56.5 123t155.5 44h113v24z M254 101q44 0 74.5 25.5t30.5 68.5v23h-102q-34 0 -55.5 -16t-21.5 -43t20 -42.5t54 -15.5z" />
<glyph unicode="&#x106;" horiz-adv-x="715" d="M525 243h152q-3 -46 -23 -90t-56 -81.5t-95 -60.5t-132 -23q-143 0 -236 98.5t-93 265.5q0 163 92 263.5t237 100.5q133 0 212 -72t93 -182h-152q-13 51 -52 84t-101 33q-77 0 -125 -62t-48 -165q0 -102 48 -164.5t126 -62.5q65 0 105 36.5t48 81.5zM544 941l-109 -170 h-119l94 170h134z" />
<glyph unicode="&#x107;" horiz-adv-x="560" d="M293 114q77 0 96 72h139q-7 -86 -71 -142t-165 -56q-117 0 -187 75.5t-70 194.5q0 118 70 194.5t187 76.5q102 0 164 -57t71 -140h-140q-22 71 -95 71q-51 0 -81 -39.5t-30 -105.5t30.5 -105t81.5 -39zM465 756l-109 -170h-119l94 170h134z" />
<glyph unicode="&#x108;" horiz-adv-x="715" d="M525 243h152q-3 -46 -23 -90t-56 -81.5t-95 -60.5t-132 -23q-143 0 -236 98.5t-93 265.5q0 163 92 263.5t237 100.5q133 0 212 -72t93 -182h-152q-13 51 -52 84t-101 33q-77 0 -125 -62t-48 -165q0 -102 48 -164.5t126 -62.5q65 0 105 36.5t48 81.5zM295 771h-126 l142 170h120l142 -170h-126l-76 84z" />
<glyph unicode="&#x109;" horiz-adv-x="560" d="M293 114q77 0 96 72h139q-7 -86 -71 -142t-165 -56q-117 0 -187 75.5t-70 194.5q0 118 70 194.5t187 76.5q102 0 164 -57t71 -140h-140q-22 71 -95 71q-51 0 -81 -39.5t-30 -105.5t30.5 -105t81.5 -39zM220 586h-126l138 170h120l138 -170h-125l-73 84z" />
<glyph unicode="&#x10a;" horiz-adv-x="715" d="M525 243h152q-3 -46 -23 -90t-56 -81.5t-95 -60.5t-132 -23q-143 0 -236 98.5t-93 265.5q0 163 92 263.5t237 100.5q133 0 212 -72t93 -182h-152q-13 51 -52 84t-101 33q-77 0 -125 -62t-48 -165q0 -102 48 -164.5t126 -62.5q65 0 105 36.5t48 81.5zM371 934 q35 0 59.5 -24t24.5 -58q0 -35 -24.5 -59t-59.5 -24t-59 24t-24 59t24 58.5t59 23.5z" />
<glyph unicode="&#x10b;" horiz-adv-x="560" d="M293 114q77 0 96 72h139q-7 -86 -71 -142t-165 -56q-117 0 -187 75.5t-70 194.5q0 118 70 194.5t187 76.5q102 0 164 -57t71 -140h-140q-22 71 -95 71q-51 0 -81 -39.5t-30 -105.5t30.5 -105t81.5 -39zM292 749q35 0 59.5 -24t24.5 -58q0 -35 -24.5 -59t-59.5 -24t-59 24 t-24 59t24 58.5t59 23.5z" />
<glyph unicode="&#x10c;" horiz-adv-x="715" d="M525 243h152q-3 -46 -23 -90t-56 -81.5t-95 -60.5t-132 -23q-143 0 -236 98.5t-93 265.5q0 163 92 263.5t237 100.5q133 0 212 -72t93 -182h-152q-13 51 -52 84t-101 33q-77 0 -125 -62t-48 -165q0 -102 48 -164.5t126 -62.5q65 0 105 36.5t48 81.5zM295 941l76 -84 l76 84h126l-142 -170h-120l-142 170h126z" />
<glyph unicode="&#x10d;" horiz-adv-x="560" d="M293 114q77 0 96 72h139q-7 -86 -71 -142t-165 -56q-117 0 -187 75.5t-70 194.5q0 118 70 194.5t187 76.5q102 0 164 -57t71 -140h-140q-22 71 -95 71q-51 0 -81 -39.5t-30 -105.5t30.5 -105t81.5 -39zM220 756l72 -84l73 84h125l-138 -170h-120l-138 170h126z" />
<glyph unicode="&#x10e;" horiz-adv-x="716" d="M323 704q167 0 259 -93.5t92 -258.5t-92 -258.5t-259 -93.5h-249v704h249zM310 134q102 0 155 57t53 161t-53 161t-155 57h-83v-436h83zM252 941l76 -84l76 84h126l-142 -170h-120l-142 170h126z" />
<glyph unicode="&#x10f;" horiz-adv-x="770" d="M259 -12q-96 0 -160 72.5t-64 197.5t65 198t163 73q97 0 141 -63v261h146v-727h-140v61q-47 -73 -151 -73zM294 403q-51 0 -82 -39.5t-31 -105.5q0 -65 31 -104.5t82 -39.5t82 39t31 103v4q0 66 -31 104.5t-82 38.5zM772 652q0 -29 -12 -59l-52 -124h-100l47 115 q-50 20 -50 73q0 34 23 56t59 22t60.5 -23.5t24.5 -59.5z" />
<glyph unicode="&#x110;" horiz-adv-x="736" d="M343 704q167 0 259 -93.5t92 -258.5t-92 -258.5t-259 -93.5h-249v303h-73v115h73v286h249zM380 303h-133v-169h84q102 0 155 57t53 161t-53 161t-155 57h-84v-152h133v-115z" />
<glyph unicode="&#x111;" horiz-adv-x="615" d="M283 668h121v59h146v-59h65v-89h-65v-579h-140v61q-47 -73 -151 -73q-96 0 -160 72.5t-64 197.5t65 198t163 73q97 0 141 -63v113h-121v89zM294 403q-51 0 -82 -39.5t-31 -105.5q0 -65 31 -104.5t82 -39.5t82 39t31 103v4q0 66 -31 104.5t-82 38.5z" />
<glyph unicode="&#x112;" horiz-adv-x="596" d="M546 568h-319v-144h300v-131h-300v-157h319v-136h-472v704h472v-136zM147 902h332v-104h-332v104z" />
<glyph unicode="&#x113;" horiz-adv-x="566" d="M531 217h-349v-2q0 -48 32.5 -80t84.5 -32q34 0 57 14t29 31h141q-12 -63 -70.5 -111.5t-159.5 -48.5q-119 0 -190 71.5t-71 196.5t69.5 199t183.5 74q111 0 177 -71t66 -191v-50zM289 415q-44 0 -72 -25.5t-34 -70.5h206q-3 44 -30 70t-70 26zM127 717h322v-103h-322 v103z" />
<glyph unicode="&#x116;" horiz-adv-x="596" d="M546 568h-319v-144h300v-131h-300v-157h319v-136h-472v704h472v-136zM313 934q35 0 59.5 -24t24.5 -58q0 -35 -24.5 -59t-59.5 -24t-59 24t-24 59t24 58.5t59 23.5z" />
<glyph unicode="&#x117;" horiz-adv-x="566" d="M531 217h-349v-2q0 -48 32.5 -80t84.5 -32q34 0 57 14t29 31h141q-12 -63 -70.5 -111.5t-159.5 -48.5q-119 0 -190 71.5t-71 196.5t69.5 199t183.5 74q111 0 177 -71t66 -191v-50zM289 415q-44 0 -72 -25.5t-34 -70.5h206q-3 44 -30 70t-70 26zM288 749q35 0 59.5 -24 t24.5 -58q0 -35 -24.5 -59t-59.5 -24t-59 24t-24 59t24 58.5t59 23.5z" />
<glyph unicode="&#x118;" horiz-adv-x="596" d="M546 568h-319v-144h300v-131h-300v-157h319v-136q-74 -53 -74 -98q0 -46 52 -46h39v-96h-68q-72 0 -110 30t-38 80q0 73 79 130h-352v704h472v-136z" />
<glyph unicode="&#x119;" horiz-adv-x="566" d="M455 36q-2 -2 -20 -16t-23.5 -19t-21 -18t-21.5 -21t-15 -19.5t-12.5 -21t-3.5 -19.5q0 -46 52 -46h39v-96h-68q-72 0 -110 30t-38 80q0 59 68 118q-113 5 -179.5 76t-66.5 192q0 125 69.5 199t183.5 74q111 0 177 -71t66 -191v-50h-349v-2q0 -48 32.5 -80t84.5 -32 q34 0 57 14t29 31h141q-15 -70 -72 -112h1zM289 415q-44 0 -72 -25.5t-34 -70.5h206q-3 44 -30 70t-70 26z" />
<glyph unicode="&#x11a;" horiz-adv-x="596" d="M546 568h-319v-144h300v-131h-300v-157h319v-136h-472v704h472v-136zM237 941l76 -84l76 84h126l-142 -170h-120l-142 170h126z" />
<glyph unicode="&#x11b;" horiz-adv-x="566" d="M531 217h-349v-2q0 -48 32.5 -80t84.5 -32q34 0 57 14t29 31h141q-12 -63 -70.5 -111.5t-159.5 -48.5q-119 0 -190 71.5t-71 196.5t69.5 199t183.5 74q111 0 177 -71t66 -191v-50zM289 415q-44 0 -72 -25.5t-34 -70.5h206q-3 44 -30 70t-70 26zM216 756l72 -84l73 84h125 l-138 -170h-120l-138 170h126z" />
<glyph unicode="&#x11c;" horiz-adv-x="734" d="M369 386h318v-79q0 -143 -81.5 -231t-229.5 -88q-147 0 -240.5 100t-93.5 264q0 160 91.5 262t243.5 102q125 0 204.5 -67t99.5 -170h-155q-34 101 -148 101q-80 0 -130 -60.5t-50 -167.5q0 -109 51 -169.5t132 -60.5q72 0 112.5 39.5t40.5 97.5v3h-165v124zM301 771 h-126l142 170h120l142 -170h-126l-76 84z" />
<glyph unicode="&#x11d;" horiz-adv-x="612" d="M409 517h140v-480q0 -114 -68 -180.5t-187 -66.5q-108 0 -170.5 51t-69.5 122h143q19 -57 98 -57q52 0 80 34.5t28 97.5v35q-47 -65 -145 -65q-96 0 -159.5 70t-63.5 190q0 117 64.5 189t162.5 72q53 0 91 -20t56 -50v58zM294 131q51 0 81.5 38t30.5 97v4q0 59 -30 97.5 t-82 38.5q-51 0 -82 -39t-31 -99t30.5 -98.5t82.5 -38.5zM227 586h-126l138 170h120l138 -170h-125l-73 84z" />
<glyph unicode="&#x11e;" horiz-adv-x="734" d="M369 386h318v-79q0 -143 -81.5 -231t-229.5 -88q-147 0 -240.5 100t-93.5 264q0 160 91.5 262t243.5 102q125 0 204.5 -67t99.5 -170h-155q-34 101 -148 101q-80 0 -130 -60.5t-50 -167.5q0 -109 51 -169.5t132 -60.5q72 0 112.5 39.5t40.5 97.5v3h-165v124zM303 938 q0 -33 19 -55.5t55 -22.5t55 22.5t19 55.5h110q-1 -78 -50.5 -125.5t-133.5 -47.5t-133.5 47.5t-50.5 125.5h110z" />
<glyph unicode="&#x11f;" horiz-adv-x="612" d="M409 517h140v-480q0 -114 -68 -180.5t-187 -66.5q-108 0 -170.5 51t-69.5 122h143q19 -57 98 -57q52 0 80 34.5t28 97.5v35q-47 -65 -145 -65q-96 0 -159.5 70t-63.5 190q0 117 64.5 189t162.5 72q53 0 91 -20t56 -50v58zM294 131q51 0 81.5 38t30.5 97v4q0 59 -30 97.5 t-82 38.5q-51 0 -82 -39t-31 -99t30.5 -98.5t82.5 -38.5zM228 753q0 -33 18.5 -55.5t52.5 -22.5t52.5 22.5t18.5 55.5h109q-1 -79 -49 -126t-131 -47t-131 47t-49 126h109z" />
<glyph unicode="&#x120;" horiz-adv-x="734" d="M369 386h318v-79q0 -143 -81.5 -231t-229.5 -88q-147 0 -240.5 100t-93.5 264q0 160 91.5 262t243.5 102q125 0 204.5 -67t99.5 -170h-155q-34 101 -148 101q-80 0 -130 -60.5t-50 -167.5q0 -109 51 -169.5t132 -60.5q72 0 112.5 39.5t40.5 97.5v3h-165v124zM377 934 q35 0 59.5 -24t24.5 -58q0 -35 -24.5 -59t-59.5 -24t-59 24t-24 59t24 58.5t59 23.5z" />
<glyph unicode="&#x121;" horiz-adv-x="612" d="M409 517h140v-480q0 -114 -68 -180.5t-187 -66.5q-108 0 -170.5 51t-69.5 122h143q19 -57 98 -57q52 0 80 34.5t28 97.5v35q-47 -65 -145 -65q-96 0 -159.5 70t-63.5 190q0 117 64.5 189t162.5 72q53 0 91 -20t56 -50v58zM294 131q51 0 81.5 38t30.5 97v4q0 59 -30 97.5 t-82 38.5q-51 0 -82 -39t-31 -99t30.5 -98.5t82.5 -38.5zM299 749q35 0 59.5 -24t24.5 -58q0 -35 -24.5 -59t-59.5 -24t-59 24t-24 59t24 58.5t59 23.5z" />
<glyph unicode="&#x122;" horiz-adv-x="734" d="M369 386h318v-79q0 -143 -81.5 -231t-229.5 -88q-147 0 -240.5 100t-93.5 264q0 160 91.5 262t243.5 102q125 0 204.5 -67t99.5 -170h-155q-34 101 -148 101q-80 0 -130 -60.5t-50 -167.5q0 -109 51 -169.5t132 -60.5q72 0 112.5 39.5t40.5 97.5v3h-165v124zM459 -139 q0 -29 -12 -59l-45 -107h-100l40 98q-50 20 -50 73q0 35 23 57t59 22t60.5 -24t24.5 -60z" />
<glyph unicode="&#x123;" horiz-adv-x="612" d="M409 517h140v-480q0 -114 -68 -180.5t-187 -66.5q-108 0 -170.5 51t-69.5 122h143q19 -57 98 -57q52 0 80 34.5t28 97.5v35q-47 -65 -145 -65q-96 0 -159.5 70t-63.5 190q0 117 64.5 189t162.5 72q53 0 91 -20t56 -50v58zM294 131q51 0 81.5 38t30.5 97v4q0 59 -30 97.5 t-82 38.5q-51 0 -82 -39t-31 -99t30.5 -98.5t82.5 -38.5zM216 662q0 30 12 59l45 107h100l-40 -98q50 -20 50 -72q0 -35 -23 -57t-59 -22t-60.5 23.5t-24.5 59.5z" />
<glyph unicode="&#x124;" horiz-adv-x="739" d="M227 0h-153v704h153v-275h285v275h153v-704h-153v292h-285v-292zM293 771h-126l142 170h120l142 -170h-126l-76 84z" />
<glyph unicode="&#x125;" horiz-adv-x="597" d="M353 529q80 0 133 -49.5t53 -149.5v-330h-146v298q0 49 -24 74.5t-65 25.5q-39 0 -67 -26t-28 -76v-296h-146v727h146v-262q50 64 144 64zM73 784h-123l126 170h120l126 -170h-123l-63 84z" />
<glyph unicode="&#x126;" horiz-adv-x="777" d="M246 0h-152v509h-67v109h67v86h152v-86h285v86h152v-86h67v-109h-67v-509h-152v269h-285v-269zM246 509v-103h285v103h-285z" />
<glyph unicode="&#x127;" horiz-adv-x="600" d="M0 668h65v59h146v-59h121v-89h-121v-114q50 64 144 64q80 0 133 -49.5t53 -149.5v-330h-146v298q0 49 -24 74.5t-65 25.5q-39 0 -67 -26t-28 -76v-296h-146v579h-65v89z" />
<glyph unicode="&#x128;" horiz-adv-x="301" d="M227 704v-704h-153v704h153zM244 928h90v-22q0 -66 -31 -101.5t-84 -35.5q-38 0 -78 29.5t-52 29.5q-31 0 -31 -38v-15h-90v22q0 66 30.5 102t83.5 36q29 0 54.5 -14.5t44.5 -29.5t31 -15q32 0 32 38v14z" />
<glyph unicode="&#x129;" horiz-adv-x="272" d="M209 517v-517h-146v517h146zM222 743h90v-22q0 -66 -30 -101.5t-80 -35.5q-31 0 -55 15t-40.5 29.5t-30.5 14.5q-28 0 -28 -38v-15h-90v22q0 66 30 102t80 36q31 0 54.5 -15t40 -29.5t30.5 -14.5q29 0 29 38v14z" />
<glyph unicode="&#x12a;" horiz-adv-x="301" d="M227 704v-704h-153v704h153zM-10 901h322v-103h-322v103z" />
<glyph unicode="&#x12b;" horiz-adv-x="272" d="M209 517v-517h-146v517h146zM-10 717h290v-103h-290v103z" />
<glyph unicode="&#x12c;" horiz-adv-x="301" d="M227 704v-704h-153v704h153zM80 938q0 -33 18.5 -55.5t52.5 -22.5t52.5 22.5t18.5 55.5h109q-1 -79 -49 -126t-131 -47t-131 47t-49 126h109z" />
<glyph unicode="&#x12d;" horiz-adv-x="272" d="M209 517v-517h-146v517h146zM69 753q0 -34 16.5 -56t49.5 -22t49.5 22t16.5 56h109q-1 -79 -47.5 -126t-127.5 -47t-127.5 47t-47.5 126h109z" />
<glyph unicode="&#x12e;" horiz-adv-x="301" d="M227 704v-704q-74 -53 -74 -98q0 -46 52 -46h39v-96h-68q-72 0 -110 30t-38 80q0 73 79 130h-33v704h153z" />
<glyph unicode="&#x12f;" horiz-adv-x="272" d="M209 517v-517q-74 -53 -74 -98q0 -46 52 -46h39v-96h-68q-72 0 -110 30t-38 80q0 73 79 130h-26v517h146zM135 749q35 0 59.5 -24t24.5 -58q0 -35 -24.5 -59t-59.5 -24t-59 24t-24 59t24 58.5t59 23.5z" />
<glyph unicode="&#x130;" horiz-adv-x="301" d="M227 704v-704h-153v704h153zM151 934q35 0 59.5 -24t24.5 -58q0 -35 -24.5 -59t-59.5 -24t-59 24t-24 59t24 58.5t59 23.5z" />
<glyph unicode="&#x131;" horiz-adv-x="272" d="M209 517v-517h-146v517h146z" />
<glyph unicode="&#x134;" horiz-adv-x="578" d="M23 204h149q3 -31 26 -55t63 -24q45 0 69.5 29.5t24.5 83.5v466h153v-468q0 -118 -66 -183t-182 -65q-106 0 -171 61.5t-66 154.5zM360 771h-126l138 170h120l138 -170h-125l-73 84z" />
<glyph unicode="&#x135;" horiz-adv-x="272" d="M-20 -193v117h21q63 0 63 82v511h145v-516q0 -100 -45 -147t-148 -47h-36zM73 586h-123l126 170h120l126 -170h-123l-63 84z" />
<glyph unicode="&#x136;" horiz-adv-x="665" d="M227 0h-153v704h153v-290l246 290h179l-282 -338l288 -366h-186l-245 307v-307zM428 -139q0 -29 -12 -59l-45 -107h-100l40 98q-50 20 -50 73q0 35 23 57t59 22t60.5 -24t24.5 -60z" />
<glyph unicode="&#x137;" horiz-adv-x="552" d="M209 0h-146v727h146v-415l169 205h165l-201 -243l205 -274h-170l-168 229v-229zM369 -139q0 -29 -12 -59l-45 -107h-100l40 98q-50 20 -50 73q0 35 23 57t59 22t60.5 -24t24.5 -60z" />
<glyph unicode="&#x139;" horiz-adv-x="581" d="M227 704v-568h319v-136h-472v704h153zM324 941l-109 -170h-119l94 170h134z" />
<glyph unicode="&#x13a;" horiz-adv-x="272" d="M209 727v-727h-146v727h146zM309 954l-109 -170h-119l94 170h134z" />
<glyph unicode="&#x13b;" horiz-adv-x="581" d="M227 704v-568h319v-136h-472v704h153zM404 -139q0 -29 -12 -59l-45 -107h-100l40 98q-50 20 -50 73q0 35 23 57t59 22t60.5 -24t24.5 -60z" />
<glyph unicode="&#x13c;" horiz-adv-x="272" d="M209 727v-727h-146v727h146zM219 -139q0 -29 -12 -59l-45 -107h-100l40 98q-50 20 -50 73q0 35 23 57t59 22t60.5 -24t24.5 -60z" />
<glyph unicode="&#x13d;" horiz-adv-x="581" d="M227 704v-568h319v-136h-472v704h153zM463 629q0 -29 -12 -59l-52 -124h-100l47 115q-50 20 -50 73q0 34 23 56t59 22t60.5 -23.5t24.5 -59.5z" />
<glyph unicode="&#x13e;" horiz-adv-x="429" d="M209 727v-727h-146v727h146zM431 652q0 -29 -12 -59l-52 -124h-100l47 115q-50 20 -50 73q0 34 23 56t59 22t60.5 -23.5t24.5 -59.5z" />
<glyph unicode="&#x13f;" horiz-adv-x="581" d="M227 704v-568h319v-136h-472v704h153zM394 494q37 0 62 -25t25 -62t-25 -62t-62 -25q-38 0 -63.5 25t-25.5 62t25.5 62t63.5 25z" />
<glyph unicode="&#x140;" horiz-adv-x="443" d="M209 727v-727h-146v727h146zM351 439q37 0 62 -25t25 -62t-25 -62t-62 -25q-38 0 -63.5 25t-25.5 62t25.5 62t63.5 25z" />
<glyph unicode="&#x141;" horiz-adv-x="601" d="M394 433l-147 -70v-227h320v-136h-473v291l-74 -35v122l74 35v291h153v-219l147 70v-122z" />
<glyph unicode="&#x142;" horiz-adv-x="319" d="M10 380l77 37v310h145v-240l77 38v-112l-77 -38v-375h-145v305l-77 -37v112z" />
<glyph unicode="&#x143;" horiz-adv-x="747" d="M234 704l292 -446v446h147v-704h-144l-308 468v-468h-147v704h160zM549 941l-109 -170h-119l94 170h134z" />
<glyph unicode="&#x144;" horiz-adv-x="597" d="M63 517h140v-61q20 31 59 52t91 21q80 0 133 -49.5t53 -149.5v-330h-146v298q0 49 -24 74.5t-65 25.5q-39 0 -67 -26t-28 -76v-296h-146v517zM477 756l-109 -170h-119l94 170h134z" />
<glyph unicode="&#x145;" horiz-adv-x="747" d="M234 704l292 -446v446h147v-704h-144l-308 468v-468h-147v704h160zM454 -129q0 -29 -12 -59l-45 -107h-100l40 98q-50 20 -50 73q0 35 23 57t59 22t60.5 -24t24.5 -60z" />
<glyph unicode="&#x146;" horiz-adv-x="597" d="M63 517h140v-61q20 31 59 52t91 21q80 0 133 -49.5t53 -149.5v-330h-146v298q0 49 -24 74.5t-65 25.5q-39 0 -67 -26t-28 -76v-296h-146v517zM384 -139q0 -29 -12 -59l-45 -107h-100l40 98q-50 20 -50 73q0 35 23 57t59 22t60.5 -24t24.5 -60z" />
<glyph unicode="&#x147;" horiz-adv-x="747" d="M234 704l292 -446v446h147v-704h-144l-308 468v-468h-147v704h160zM300 941l76 -84l76 84h126l-142 -170h-120l-142 170h126z" />
<glyph unicode="&#x148;" horiz-adv-x="597" d="M63 517h140v-61q20 31 59 52t91 21q80 0 133 -49.5t53 -149.5v-330h-146v298q0 49 -24 74.5t-65 25.5q-39 0 -67 -26t-28 -76v-296h-146v517zM232 756l72 -84l73 84h125l-138 -170h-120l-138 170h126z" />
<glyph unicode="&#x14a;" horiz-adv-x="747" d="M526 704h147v-703q0 -100 -46 -147t-150 -47h-37v120h22q67 0 67 65v11l-308 465v-468h-147v704h160l292 -443v443z" />
<glyph unicode="&#x14b;" horiz-adv-x="597" d="M353 529q80 0 133 -49.5t53 -149.5v-329q0 -100 -45.5 -147t-148.5 -47h-36v117h21q63 0 63 82v292q0 49 -24 74.5t-65 25.5q-39 0 -67 -26t-28 -76v-296h-146v517h140v-61q20 31 59 52t91 21z" />
<glyph unicode="&#x14c;" horiz-adv-x="758" d="M379 716q150 0 243.5 -100.5t93.5 -263.5t-93.5 -263.5t-243.5 -100.5t-243.5 100.5t-93.5 263.5t93.5 263.5t243.5 100.5zM379 125q84 0 132.5 63.5t48.5 163.5t-48.5 163.5t-132.5 63.5t-132.5 -63.5t-48.5 -163.5t48.5 -163.5t132.5 -63.5zM213 902h332v-104h-332v104 z" />
<glyph unicode="&#x14d;" horiz-adv-x="591" d="M296 529q115 0 187.5 -74.5t72.5 -196.5t-72.5 -196t-187.5 -74q-116 0 -188.5 74t-72.5 196t72.5 196.5t188.5 74.5zM296 114q52 0 83 40t31 104q0 65 -30.5 105t-83.5 40t-84 -40t-31 -105q0 -64 31 -104t84 -40zM135 717h322v-103h-322v103z" />
<glyph unicode="&#x14e;" horiz-adv-x="758" d="M379 716q150 0 243.5 -100.5t93.5 -263.5t-93.5 -263.5t-243.5 -100.5t-243.5 100.5t-93.5 263.5t93.5 263.5t243.5 100.5zM379 125q84 0 132.5 63.5t48.5 163.5t-48.5 163.5t-132.5 63.5t-132.5 -63.5t-48.5 -163.5t48.5 -163.5t132.5 -63.5zM305 938q0 -33 19 -55.5 t55 -22.5t55 22.5t19 55.5h110q-1 -78 -50.5 -125.5t-133.5 -47.5t-133.5 47.5t-50.5 125.5h110z" />
<glyph unicode="&#x14f;" horiz-adv-x="591" d="M296 529q115 0 187.5 -74.5t72.5 -196.5t-72.5 -196t-187.5 -74q-116 0 -188.5 74t-72.5 196t72.5 196.5t188.5 74.5zM296 114q52 0 83 40t31 104q0 65 -30.5 105t-83.5 40t-84 -40t-31 -105q0 -64 31 -104t84 -40zM225 753q0 -33 18.5 -55.5t52.5 -22.5t52.5 22.5 t18.5 55.5h109q-1 -79 -49 -126t-131 -47t-131 47t-49 126h109z" />
<glyph unicode="&#x150;" horiz-adv-x="758" d="M379 716q150 0 243.5 -100.5t93.5 -263.5t-93.5 -263.5t-243.5 -100.5t-243.5 100.5t-93.5 263.5t93.5 263.5t243.5 100.5zM379 125q84 0 132.5 63.5t48.5 163.5t-48.5 163.5t-132.5 63.5t-132.5 -63.5t-48.5 -163.5t48.5 -163.5t132.5 -63.5zM444 941l-104 -170h-114 l89 170h129zM637 941l-103 -170h-114l88 170h129z" />
<glyph unicode="&#x151;" horiz-adv-x="591" d="M296 529q115 0 187.5 -74.5t72.5 -196.5t-72.5 -196t-187.5 -74q-116 0 -188.5 74t-72.5 196t72.5 196.5t188.5 74.5zM296 114q52 0 83 40t31 104q0 65 -30.5 105t-83.5 40t-84 -40t-31 -105q0 -64 31 -104t84 -40zM362 756l-103 -170h-114l88 170h129zM552 756 l-103 -170h-114l88 170h129z" />
<glyph unicode="&#x152;" horiz-adv-x="1020" d="M970 704v-136h-319v-144h300v-131h-300v-157h319v-136h-559q-167 0 -268 95t-101 257t101 257t268 95h559zM198 352q0 -101 61 -159.5t163 -58.5h76v436h-76q-102 0 -163 -58.5t-61 -159.5z" />
<glyph unicode="&#x153;" horiz-adv-x="938" d="M288 529q126 0 193 -92q65 92 186 92q107 0 171.5 -71t64.5 -191v-50h-349v-2q0 -48 32.5 -80t83.5 -32q35 0 58 14t28 31h142q-12 -63 -69 -111.5t-156 -48.5q-128 0 -193 90q-66 -90 -192 -90q-111 0 -182 74.5t-71 195.5t71 196t182 75zM296 114q52 0 83 40t31 104 t-31 104.5t-83 40.5q-53 0 -84 -40.5t-31 -104.5t31 -104t84 -40zM661 415q-44 0 -72.5 -25.5t-33.5 -70.5h205q-3 44 -29.5 70t-69.5 26z" />
<glyph unicode="&#x154;" horiz-adv-x="652" d="M598 472q0 -67 -31.5 -121t-88.5 -83l159 -268h-171l-140 239h-99v-239h-153v704h272q117 0 184.5 -65.5t67.5 -166.5zM333 573h-106v-205h106q51 0 80.5 28.5t29.5 73.5q0 46 -29 74.5t-81 28.5zM499 941l-109 -170h-119l94 170h134z" />
<glyph unicode="&#x155;" horiz-adv-x="404" d="M353 519h26v-138h-34q-65 0 -100.5 -31.5t-35.5 -87.5v-262h-146v517h140v-81q46 83 150 83zM396 756l-109 -170h-119l94 170h134z" />
<glyph unicode="&#x156;" horiz-adv-x="652" d="M598 472q0 -67 -31.5 -121t-88.5 -83l159 -268h-171l-140 239h-99v-239h-153v704h272q117 0 184.5 -65.5t67.5 -166.5zM333 573h-106v-205h106q51 0 80.5 28.5t29.5 73.5q0 46 -29 74.5t-81 28.5zM426 -139q0 -29 -12 -59l-45 -107h-100l40 98q-50 20 -50 73q0 35 23 57 t59 22t60.5 -24t24.5 -60z" />
<glyph unicode="&#x157;" horiz-adv-x="404" d="M353 519h26v-138h-34q-65 0 -100.5 -31.5t-35.5 -87.5v-262h-146v517h140v-81q46 83 150 83zM219 -139q0 -29 -12 -59l-45 -107h-100l40 98q-50 20 -50 73q0 35 23 57t59 22t60.5 -24t24.5 -60z" />
<glyph unicode="&#x158;" horiz-adv-x="652" d="M598 472q0 -67 -31.5 -121t-88.5 -83l159 -268h-171l-140 239h-99v-239h-153v704h272q117 0 184.5 -65.5t67.5 -166.5zM333 573h-106v-205h106q51 0 80.5 28.5t29.5 73.5q0 46 -29 74.5t-81 28.5zM250 941l76 -84l76 84h126l-142 -170h-120l-142 170h126z" />
<glyph unicode="&#x159;" horiz-adv-x="404" d="M353 519h26v-138h-34q-65 0 -100.5 -31.5t-35.5 -87.5v-262h-146v517h140v-81q46 83 150 83zM151 756l72 -84l73 84h125l-138 -170h-120l-138 170h126z" />
<glyph unicode="&#x15a;" horiz-adv-x="634" d="M41 202h154q23 -85 131 -85q52 0 82 23.5t30 62.5q0 63 -83 76l-113 18q-193 29 -193 196q0 99 74 161t188 62q112 0 185.5 -55t87.5 -153h-152q-24 78 -121 78q-46 0 -76.5 -22.5t-30.5 -59.5q0 -57 80 -69l111 -17q92 -14 145 -64t53 -139q0 -105 -72 -166t-196 -61 q-117 0 -194 57t-90 157zM489 941l-109 -170h-119l94 170h134z" />
<glyph unicode="&#x15b;" horiz-adv-x="519" d="M177 153q12 -55 90 -55q36 0 56 14.5t20 38.5q0 36 -57 44l-88 10q-156 19 -156 152q0 76 61 124t155 48q91 0 149.5 -43t68.5 -119h-141q-15 51 -81 51q-32 0 -51.5 -14.5t-19.5 -35.5q0 -37 54 -43l92 -11q72 -9 114 -47t42 -107q0 -81 -61 -126.5t-157 -45.5 q-94 0 -159 42t-73 123h142zM432 756l-109 -170h-119l94 170h134z" />
<glyph unicode="&#x15c;" horiz-adv-x="634" d="M41 202h154q23 -85 131 -85q52 0 82 23.5t30 62.5q0 63 -83 76l-113 18q-193 29 -193 196q0 99 74 161t188 62q112 0 185.5 -55t87.5 -153h-152q-24 78 -121 78q-46 0 -76.5 -22.5t-30.5 -59.5q0 -57 80 -69l111 -17q92 -14 145 -64t53 -139q0 -105 -72 -166t-196 -61 q-117 0 -194 57t-90 157zM240 771h-126l142 170h120l142 -170h-126l-76 84z" />
<glyph unicode="&#x15d;" horiz-adv-x="519" d="M177 153q12 -55 90 -55q36 0 56 14.5t20 38.5q0 36 -57 44l-88 10q-156 19 -156 152q0 76 61 124t155 48q91 0 149.5 -43t68.5 -119h-141q-15 51 -81 51q-32 0 -51.5 -14.5t-19.5 -35.5q0 -37 54 -43l92 -11q72 -9 114 -47t42 -107q0 -81 -61 -126.5t-157 -45.5 q-94 0 -159 42t-73 123h142zM187 586h-126l138 170h120l138 -170h-125l-73 84z" />
<glyph unicode="&#x15e;" horiz-adv-x="634" d="M41 202h154q23 -85 131 -85q52 0 82 23.5t30 62.5q0 63 -83 76l-113 18q-193 29 -193 196q0 99 74 161t188 62q112 0 185.5 -55t87.5 -153h-152q-24 78 -121 78q-46 0 -76.5 -22.5t-30.5 -59.5q0 -57 80 -69l111 -17q92 -14 145 -64t53 -139q0 -95 -59.5 -154.5 t-164.5 -70.5l-13 -39q35 -4 61 -28t26 -65q0 -51 -39 -81.5t-114 -30.5h-63v82h51q46 0 46 35q0 33 -45 33h-30v21l27 74q-98 11 -160.5 66.5t-74.5 144.5z" />
<glyph unicode="&#x15f;" horiz-adv-x="519" d="M177 153q12 -55 90 -55q36 0 56 14.5t20 38.5q0 36 -57 44l-88 10q-156 19 -156 152q0 76 61 124t155 48q91 0 149.5 -43t68.5 -119h-141q-15 51 -81 51q-32 0 -51.5 -14.5t-19.5 -35.5q0 -37 54 -43l92 -11q72 -9 114 -47t42 -107q0 -71 -47.5 -115t-126.5 -54l-13 -40 q35 -4 61 -28t26 -65q0 -51 -39 -81.5t-114 -30.5h-63v82h51q46 0 46 35q0 33 -45 33h-30v21l27 74q-76 10 -126.5 51t-56.5 111h142z" />
<glyph unicode="&#x160;" horiz-adv-x="634" d="M41 202h154q23 -85 131 -85q52 0 82 23.5t30 62.5q0 63 -83 76l-113 18q-193 29 -193 196q0 99 74 161t188 62q112 0 185.5 -55t87.5 -153h-152q-24 78 -121 78q-46 0 -76.5 -22.5t-30.5 -59.5q0 -57 80 -69l111 -17q92 -14 145 -64t53 -139q0 -105 -72 -166t-196 -61 q-117 0 -194 57t-90 157zM240 941l76 -84l76 84h126l-142 -170h-120l-142 170h126z" />
<glyph unicode="&#x161;" horiz-adv-x="519" d="M177 153q12 -55 90 -55q36 0 56 14.5t20 38.5q0 36 -57 44l-88 10q-156 19 -156 152q0 76 61 124t155 48q91 0 149.5 -43t68.5 -119h-141q-15 51 -81 51q-32 0 -51.5 -14.5t-19.5 -35.5q0 -37 54 -43l92 -11q72 -9 114 -47t42 -107q0 -81 -61 -126.5t-157 -45.5 q-94 0 -159 42t-73 123h142zM187 756l72 -84l73 84h125l-138 -170h-120l-138 170h126z" />
<glyph unicode="&#x162;" horiz-adv-x="634" d="M31 568v136h572v-136h-209v-568h-29l-16 -49q35 -4 61 -28t26 -65q0 -51 -39 -81.5t-114 -30.5h-63v82h51q46 0 46 35q0 33 -45 33h-30v21l31 83h-32v568h-210z" />
<glyph unicode="&#x163;" horiz-adv-x="374" d="M240 192q0 -39 17 -53.5t52 -14.5h30v-125h-68l-15 -48q35 -4 61 -28t26 -65q0 -51 -39 -81.5t-114 -30.5h-63v82h51q46 0 46 35q0 33 -45 33h-30v21l36 96q-91 34 -91 168v217h-79v119h79v132h146v-132h99v-119h-99v-206z" />
<glyph unicode="&#x164;" horiz-adv-x="634" d="M31 568v136h572v-136h-209v-568h-153v568h-210zM242 941l76 -84l76 84h126l-142 -170h-120l-142 170h126z" />
<glyph unicode="&#x165;" horiz-adv-x="414" d="M240 192q0 -39 17 -53.5t52 -14.5h30v-125h-56q-98 0 -143.5 42.5t-45.5 139.5v217h-79v119h79v132h146v-132h99v-119h-99v-206zM445 740q0 -26 -13 -59l-45 -107h-99l40 98q-51 20 -51 73q0 34 23.5 56.5t58.5 22.5q36 0 61 -24t25 -60z" />
<glyph unicode="&#x166;" horiz-adv-x="634" d="M537 255h-143v-255h-153v255h-143v118h143v195h-210v136h572v-136h-209v-195h143v-118z" />
<glyph unicode="&#x167;" horiz-adv-x="374" d="M15 323h79v79h-79v115h79v132h145v-132h100v-115h-100v-79h100v-98h-100v-36q0 -39 17.5 -53.5t52.5 -14.5h30v-122h-56q-98 0 -143.5 42.5t-45.5 139.5v44h-79v98z" />
<glyph unicode="&#x168;" horiz-adv-x="730" d="M69 286v418h153v-414q0 -79 38.5 -122t104.5 -43t104.5 43t38.5 122v414h153v-418q0 -146 -82 -222t-214 -76t-214 76t-82 222zM460 928h91v-22q0 -66 -31 -102t-84 -36q-29 0 -56 15t-46.5 30t-31.5 15q-14 0 -23.5 -10t-9.5 -29v-14h-90v22q0 66 30.5 102t83.5 36 q29 0 56 -14.5t46.5 -29.5t31.5 -15q33 0 33 38v14z" />
<glyph unicode="&#x169;" horiz-adv-x="597" d="M535 0h-140v60q-21 -31 -60 -51.5t-91 -20.5q-79 0 -132 49t-53 150v330h145v-298q0 -49 24.5 -74.5t65.5 -25.5q40 0 67.5 25.5t27.5 76.5v296h146v-517zM389 743h90v-22q0 -66 -31 -101.5t-84 -35.5q-38 0 -78 29.5t-52 29.5q-31 0 -31 -38v-15h-90v22q0 66 30.5 102 t83.5 36q29 0 55 -15t44.5 -29.5t30.5 -14.5q32 0 32 38v14z" />
<glyph unicode="&#x16a;" horiz-adv-x="730" d="M69 286v418h153v-414q0 -79 38.5 -122t104.5 -43t104.5 43t38.5 122v414h153v-418q0 -146 -82 -222t-214 -76t-214 76t-82 222zM199 902h332v-104h-332v104z" />
<glyph unicode="&#x16b;" horiz-adv-x="597" d="M535 0h-140v60q-21 -31 -60 -51.5t-91 -20.5q-79 0 -132 49t-53 150v330h145v-298q0 -49 24.5 -74.5t65.5 -25.5q40 0 67.5 25.5t27.5 76.5v296h146v-517zM135 717h322v-103h-322v103z" />
<glyph unicode="&#x16c;" horiz-adv-x="730" d="M69 286v418h153v-414q0 -79 38.5 -122t104.5 -43t104.5 43t38.5 122v414h153v-418q0 -146 -82 -222t-214 -76t-214 76t-82 222zM291 938q0 -33 19 -55.5t55 -22.5t55 22.5t19 55.5h110q-1 -78 -50.5 -125.5t-133.5 -47.5t-133.5 47.5t-50.5 125.5h110z" />
<glyph unicode="&#x16d;" horiz-adv-x="597" d="M535 0h-140v60q-21 -31 -60 -51.5t-91 -20.5q-79 0 -132 49t-53 150v330h145v-298q0 -49 24.5 -74.5t65.5 -25.5q40 0 67.5 25.5t27.5 76.5v296h146v-517zM225 753q0 -33 18.5 -55.5t52.5 -22.5t52.5 22.5t18.5 55.5h109q-1 -79 -49 -126t-131 -47t-131 47t-49 126h109z " />
<glyph unicode="&#x16e;" horiz-adv-x="730" d="M69 286v418h153v-414q0 -79 38.5 -122t104.5 -43t104.5 43t38.5 122v414h153v-418q0 -146 -82 -222t-214 -76t-214 76t-82 222zM487 876q0 -50 -35 -83.5t-87 -33.5t-87 33.5t-35 83.5q0 51 34.5 84t87.5 33t87.5 -33t34.5 -84zM322 876q0 -19 12.5 -31t30.5 -12t30.5 12 t12.5 31t-12.5 31t-30.5 12t-30.5 -12t-12.5 -31z" />
<glyph unicode="&#x16f;" horiz-adv-x="597" d="M535 0h-140v60q-21 -31 -60 -51.5t-91 -20.5q-79 0 -132 49t-53 150v330h145v-298q0 -49 24.5 -74.5t65.5 -25.5q40 0 67.5 25.5t27.5 76.5v296h146v-517zM418 691q0 -50 -35 -83.5t-87 -33.5t-87 33.5t-35 83.5q0 51 34.5 84t87.5 33t87.5 -33t34.5 -84zM253 691 q0 -19 12.5 -31t30.5 -12t30.5 12t12.5 31t-12.5 31t-30.5 12t-30.5 -12t-12.5 -31z" />
<glyph unicode="&#x170;" horiz-adv-x="730" d="M69 286v418h153v-414q0 -79 38.5 -122t104.5 -43t104.5 43t38.5 122v414h153v-418q0 -146 -82 -222t-214 -76t-214 76t-82 222zM430 941l-104 -170h-114l89 170h129zM623 941l-103 -170h-114l88 170h129z" />
<glyph unicode="&#x171;" horiz-adv-x="597" d="M535 0h-140v60q-21 -31 -60 -51.5t-91 -20.5q-79 0 -132 49t-53 150v330h145v-298q0 -49 24.5 -74.5t65.5 -25.5q40 0 67.5 25.5t27.5 76.5v296h146v-517zM362 756l-103 -170h-114l88 170h129zM552 756l-103 -170h-114l88 170h129z" />
<glyph unicode="&#x172;" horiz-adv-x="730" d="M545 36q-2 -2 -20 -16t-23.5 -19t-21 -18t-21.5 -21t-15 -19.5t-12.5 -21t-3.5 -19.5q0 -46 52 -46h39v-96h-68q-72 0 -110 30t-38 80q0 61 68 118h-6q-132 0 -214 76t-82 222v418h153v-414q0 -79 38.5 -122t104.5 -43t104.5 43t38.5 122v414h153v-418q0 -174 -117 -250 h1z" />
<glyph unicode="&#x173;" horiz-adv-x="597" d="M535 0q-74 -53 -74 -98q0 -46 52 -46h39v-96h-68q-72 0 -110 30t-38 80q0 73 79 130h-20v60q-21 -31 -60 -51.5t-91 -20.5q-79 0 -132 49t-53 150v330h145v-298q0 -49 24.5 -74.5t65.5 -25.5q40 0 67.5 25.5t27.5 76.5v296h146v-517z" />
<glyph unicode="&#x174;" horiz-adv-x="1012" d="M991 704l-208 -704h-145l-133 485l-132 -485h-144l-208 704h155l130 -460l130 460h140l131 -461l130 461h154zM429 771h-126l142 170h120l142 -170h-126l-76 84z" />
<glyph unicode="&#x175;" horiz-adv-x="814" d="M806 517l-161 -517h-143l-96 339l-95 -339h-142l-160 517h148l90 -316l90 316h141l90 -317l89 317h149zM335 586h-126l138 170h120l138 -170h-125l-73 84z" />
<glyph unicode="&#x176;" horiz-adv-x="669" d="M411 0h-153v267l-248 437h166l159 -291l159 291h165l-248 -437v-267zM262 771h-126l142 170h120l142 -170h-126l-76 84z" />
<glyph unicode="&#x177;" horiz-adv-x="550" d="M390 517h156l-272 -708h-155l78 205l-193 503h157l114 -333zM203 586h-126l138 170h120l138 -170h-125l-73 84z" />
<glyph unicode="&#x178;" horiz-adv-x="669" d="M411 0h-153v267l-248 437h166l159 -291l159 291h165l-248 -437v-267zM224 928q33 0 55.5 -23t22.5 -55t-22.5 -54.5t-55.5 -22.5t-55.5 22.5t-22.5 54.5t22.5 55t55.5 23zM453 928q32 0 55 -23t23 -55t-23 -54.5t-55 -22.5q-33 0 -55.5 22.5t-22.5 54.5t22.5 55t55.5 23z " />
<glyph unicode="&#x179;" horiz-adv-x="629" d="M50 121l339 447h-339v136h528v-120l-339 -448h339v-136h-528v121zM488 941l-109 -170h-119l94 170h134z" />
<glyph unicode="&#x17a;" horiz-adv-x="511" d="M42 0v113l244 278h-244v126h427v-114l-244 -278h244v-125h-427zM429 756l-109 -170h-119l94 170h134z" />
<glyph unicode="&#x17b;" horiz-adv-x="629" d="M50 121l339 447h-339v136h528v-120l-339 -448h339v-136h-528v121zM315 934q35 0 59.5 -24t24.5 -58q0 -35 -24.5 -59t-59.5 -24t-59 24t-24 59t24 58.5t59 23.5z" />
<glyph unicode="&#x17c;" horiz-adv-x="511" d="M42 0v113l244 278h-244v126h427v-114l-244 -278h244v-125h-427zM256 749q35 0 59.5 -24t24.5 -58q0 -35 -24.5 -59t-59.5 -24t-59 24t-24 59t24 58.5t59 23.5z" />
<glyph unicode="&#x17d;" horiz-adv-x="629" d="M50 121l339 447h-339v136h528v-120l-339 -448h339v-136h-528v121zM239 941l76 -84l76 84h126l-142 -170h-120l-142 170h126z" />
<glyph unicode="&#x17e;" horiz-adv-x="511" d="M42 0v113l244 278h-244v126h427v-114l-244 -278h244v-125h-427zM184 756l72 -84l73 84h125l-138 -170h-120l-138 170h126z" />
<glyph unicode="&#x18f;" horiz-adv-x="727" d="M42 343v59h483q-1 82 -50.5 131.5t-122.5 49.5q-105 0 -148 -87h-154q22 95 101.5 157.5t201.5 62.5q152 0 242 -100t90 -264q0 -166 -88 -265t-233 -99q-149 0 -235.5 100t-86.5 255zM365 121q67 0 108.5 43t49.5 114h-319q3 -67 46.5 -112t114.5 -45z" />
<glyph unicode="&#x192;" horiz-adv-x="513" d="M119 461h90l10 58q15 95 66 140t148 45h47v-123h-33q-71 0 -85 -79l-7 -41h84v-119h-104l-51 -315q-16 -95 -66.5 -140t-147.5 -45h-47v123h32q73 0 85 79l49 298h-70v119z" />
<glyph unicode="&#x1cd;" horiz-adv-x="699" d="M270 704h158l258 -704h-158l-50 145h-258l-49 -145h-158zM348 527l-85 -254h170zM274 941l76 -84l76 84h126l-142 -170h-120l-142 170h126z" />
<glyph unicode="&#x1ce;" horiz-adv-x="560" d="M359 343q0 35 -23.5 54t-61.5 19q-69 0 -84 -50h-136q11 71 70 117t156 46q102 0 162 -49.5t60 -141.5v-338h-135v56q-53 -68 -153 -68q-78 0 -129 44t-51 120q0 79 56.5 123t155.5 44h113v24zM254 101q44 0 74.5 25.5t30.5 68.5v23h-102q-34 0 -55.5 -16t-21.5 -43 t20 -42.5t54 -15.5zM210 756l72 -84l73 84h125l-138 -170h-120l-138 170h126z" />
<glyph unicode="&#x1d1;" horiz-adv-x="758" d="M379 716q150 0 243.5 -100.5t93.5 -263.5t-93.5 -263.5t-243.5 -100.5t-243.5 100.5t-93.5 263.5t93.5 263.5t243.5 100.5zM379 125q84 0 132.5 63.5t48.5 163.5t-48.5 163.5t-132.5 63.5t-132.5 -63.5t-48.5 -163.5t48.5 -163.5t132.5 -63.5zM303 941l76 -84l76 84h126 l-142 -170h-120l-142 170h126z" />
<glyph unicode="&#x1d2;" horiz-adv-x="591" d="M296 529q115 0 187.5 -74.5t72.5 -196.5t-72.5 -196t-187.5 -74q-116 0 -188.5 74t-72.5 196t72.5 196.5t188.5 74.5zM296 114q52 0 83 40t31 104q0 65 -30.5 105t-83.5 40t-84 -40t-31 -105q0 -64 31 -104t84 -40zM224 756l72 -84l73 84h125l-138 -170h-120l-138 170 h126z" />
<glyph unicode="&#x1d3;" horiz-adv-x="730" d="M69 286v418h153v-414q0 -79 38.5 -122t104.5 -43t104.5 43t38.5 122v414h153v-418q0 -146 -82 -222t-214 -76t-214 76t-82 222zM289 941l76 -84l76 84h126l-142 -170h-120l-142 170h126z" />
<glyph unicode="&#x1d4;" horiz-adv-x="597" d="M535 0h-140v60q-21 -31 -60 -51.5t-91 -20.5q-79 0 -132 49t-53 150v330h145v-298q0 -49 24.5 -74.5t65.5 -25.5q40 0 67.5 25.5t27.5 76.5v296h146v-517zM224 756l72 -84l73 84h125l-138 -170h-120l-138 170h126z" />
<glyph unicode="&#x218;" horiz-adv-x="634" d="M41 202h154q23 -85 131 -85q52 0 82 23.5t30 62.5q0 63 -83 76l-113 18q-193 29 -193 196q0 99 74 161t188 62q112 0 185.5 -55t87.5 -153h-152q-24 78 -121 78q-46 0 -76.5 -22.5t-30.5 -59.5q0 -57 80 -69l111 -17q92 -14 145 -64t53 -139q0 -105 -72 -166t-196 -61 q-117 0 -194 57t-90 157zM408 -139q0 -29 -12 -59l-45 -107h-100l40 98q-50 20 -50 73q0 35 23 57t59 22t60.5 -24t24.5 -60z" />
<glyph unicode="&#x219;" horiz-adv-x="519" d="M177 153q12 -55 90 -55q36 0 56 14.5t20 38.5q0 36 -57 44l-88 10q-156 19 -156 152q0 76 61 124t155 48q91 0 149.5 -43t68.5 -119h-141q-15 51 -81 51q-32 0 -51.5 -14.5t-19.5 -35.5q0 -37 54 -43l92 -11q72 -9 114 -47t42 -107q0 -81 -61 -126.5t-157 -45.5 q-94 0 -159 42t-73 123h142zM350 -139q0 -29 -12 -59l-45 -107h-100l40 98q-50 20 -50 73q0 35 23 57t59 22t60.5 -24t24.5 -60z" />
<glyph unicode="&#x21a;" horiz-adv-x="634" d="M31 568v136h572v-136h-209v-568h-153v568h-210zM401 -139q0 -29 -12 -59l-45 -107h-100l40 98q-50 20 -50 73q0 35 23 57t59 22t60.5 -24t24.5 -60z" />
<glyph unicode="&#x21b;" horiz-adv-x="374" d="M240 192q0 -39 17 -53.5t52 -14.5h30v-125h-56q-98 0 -143.5 42.5t-45.5 139.5v217h-79v119h79v132h146v-132h99v-119h-99v-206zM300 -139q0 -29 -12 -59l-45 -107h-100l40 98q-50 20 -50 73q0 35 23 57t59 22t60.5 -24t24.5 -60z" />
<glyph unicode="&#x237;" horiz-adv-x="272" d="M-20 -193v117h21q63 0 63 82v511h145v-516q0 -100 -45 -147t-148 -47h-36z" />
<glyph unicode="&#x2c6;" horiz-adv-x="520" d="M188 586h-126l138 170h120l138 -170h-125l-73 84z" />
<glyph unicode="&#x2c7;" horiz-adv-x="520" d="M188 756l72 -84l73 84h125l-138 -170h-120l-138 170h126z" />
<glyph unicode="&#x2d8;" horiz-adv-x="520" d="M189 753q0 -33 18.5 -55.5t52.5 -22.5t52.5 22.5t18.5 55.5h109q-1 -79 -49 -126t-131 -47t-131 47t-49 126h109z" />
<glyph unicode="&#x2d9;" horiz-adv-x="520" d="M259 749q35 0 59.5 -24t24.5 -58q0 -35 -24.5 -59t-59.5 -24t-59 24t-24 59t24 58.5t59 23.5z" />
<glyph unicode="&#x2da;" horiz-adv-x="520" d="M382 691q0 -50 -35 -83.5t-87 -33.5t-87 33.5t-35 83.5q0 51 34.5 84t87.5 33t87.5 -33t34.5 -84zM217 691q0 -19 12.5 -31t30.5 -12t30.5 12t12.5 31t-12.5 31t-30.5 12t-30.5 -12t-12.5 -31z" />
<glyph unicode="&#x2db;" horiz-adv-x="520" d="M351 0q-74 -53 -74 -98q0 -46 52 -46h39v-96h-68q-72 0 -110 30t-38 80q0 47 35 89t83 64z" />
<glyph unicode="&#x2dc;" horiz-adv-x="520" d="M353 743h90v-22q0 -66 -31 -101.5t-84 -35.5q-38 0 -78 29.5t-52 29.5q-31 0 -31 -38v-15h-90v22q0 66 30.5 102t83.5 36q29 0 55 -15t44.5 -29.5t30.5 -14.5q32 0 32 38v14z" />
<glyph unicode="&#x2dd;" horiz-adv-x="520" d="M273 756l-103 -170h-114l88 170h129zM463 756l-103 -170h-114l88 170h129z" />
<glyph unicode="&#x394;" horiz-adv-x="715" d="M436 704l267 -704h-691l266 704h158zM356 529l-137 -392h277z" />
<glyph unicode="&#x3a9;" horiz-adv-x="768" d="M721 385q0 -78 -33.5 -143t-91.5 -110h125v-132h-275v154q47 29 83.5 89t36.5 131q0 90 -49 147.5t-133 57.5t-133.5 -57.5t-49.5 -147.5q0 -71 37 -131t84 -89v-154h-275v132h124q-124 97 -124 253q0 147 93.5 239t243.5 92t243.5 -92t93.5 -239z" />
<glyph unicode="&#x3c0;" horiz-adv-x="650" d="M247 0h-145v391h-76v126h598v-126h-76v-391h-146v391h-155v-391z" />
<glyph unicode="&#x400;" horiz-adv-x="596" d="M546 568h-319v-144h300v-131h-300v-157h319v-136h-472v704h472v-136zM140 941h134l94 -170h-119z" />
<glyph unicode="&#x401;" horiz-adv-x="596" d="M546 568h-319v-144h300v-131h-300v-157h319v-136h-472v704h472v-136zM199 928q33 0 55.5 -23t22.5 -55t-22.5 -54.5t-55.5 -22.5t-55.5 22.5t-22.5 54.5t22.5 55t55.5 23zM428 928q32 0 55 -23t23 -55t-23 -54.5t-55 -22.5q-33 0 -55.5 22.5t-22.5 54.5t22.5 55t55.5 23z " />
<glyph unicode="&#x402;" horiz-adv-x="827" d="M549 442q107 0 174 -61.5t67 -165.5t-62.5 -165.5t-171.5 -61.5h-42v133h21q43 0 72 23.5t29 67.5q0 47 -32 71.5t-85 24.5q-72 0 -128 -38v-270h-153v569h-204v135h566v-135h-209v-167q65 40 158 40z" />
<glyph unicode="&#x403;" horiz-adv-x="573" d="M538 568h-311v-568h-153v704h464v-136zM493 941l-109 -170h-119l94 170h134z" />
<glyph unicode="&#x404;" horiz-adv-x="717" d="M527 232h152q-5 -42 -25.5 -83t-56 -78t-94 -60t-130.5 -23q-144 0 -237.5 97.5t-93.5 266.5q0 165 92.5 264.5t238.5 99.5q129 0 209 -70.5t96 -173.5h-151q-13 46 -52.5 77t-101.5 31q-67 0 -113 -41t-58 -118h248v-127h-250q10 -81 56.5 -125.5t116.5 -44.5 q65 0 104 33t50 75z" />
<glyph unicode="&#x405;" horiz-adv-x="634" d="M41 202h154q23 -85 131 -85q52 0 82 23.5t30 62.5q0 63 -83 76l-113 18q-193 29 -193 196q0 99 74 161t188 62q112 0 185.5 -55t87.5 -153h-152q-24 78 -121 78q-46 0 -76.5 -22.5t-30.5 -59.5q0 -57 80 -69l111 -17q92 -14 145 -64t53 -139q0 -105 -72 -166t-196 -61 q-117 0 -194 57t-90 157z" />
<glyph unicode="&#x406;" horiz-adv-x="301" d="M227 704v-704h-153v704h153z" />
<glyph unicode="&#x407;" horiz-adv-x="301" d="M227 704v-704h-153v704h153zM42 928q32 0 55 -22.5t23 -54.5t-23 -55t-55 -23q-33 0 -56 23t-23 55t23 54.5t56 22.5zM261 928q33 0 55.5 -22.5t22.5 -54.5t-22.5 -55t-55.5 -23t-55.5 23t-22.5 55t22.5 54.5t55.5 22.5z" />
<glyph unicode="&#x408;" horiz-adv-x="578" d="M23 204h149q3 -31 26 -55t63 -24q45 0 69.5 29.5t24.5 83.5v466h153v-468q0 -118 -66 -183t-182 -65q-106 0 -171 61.5t-66 154.5z" />
<glyph unicode="&#x409;" horiz-adv-x="1048" d="M762 466q116 0 183 -65t67 -168q0 -102 -68 -167.5t-179 -65.5h-270v568h-194l-20 -307q-9 -127 -61 -195t-169 -68h-41v137h19q54 0 78 31.5t29 104.5l28 433h484v-238h114zM747 334h-99v-203h99q50 0 80 28t30 74q0 47 -29 74t-81 27z" />
<glyph unicode="&#x40a;" horiz-adv-x="1059" d="M227 0h-153v704h153v-260h282v260h153v-258h117q112 0 178 -60.5t66 -161.5t-65 -162.5t-176 -61.5h-273v308h-282v-308zM765 315h-103v-184h103q47 0 75 25t28 68t-27.5 67t-75.5 24z" />
<glyph unicode="&#x40b;" horiz-adv-x="840" d="M34 569v135h566v-135h-209v-170q63 41 148 41q112 0 177.5 -66t65.5 -200v-174h-153v171q0 133 -120 133q-68 0 -118 -37v-267h-153v569h-204z" />
<glyph unicode="&#x40c;" horiz-adv-x="665" d="M227 0h-153v704h153v-290l246 290h179l-282 -338l288 -366h-186l-245 307v-307zM514 941l-109 -170h-119l94 170h134z" />
<glyph unicode="&#x40d;" horiz-adv-x="747" d="M673 704v-704h-150v462l-299 -462h-150v704h150v-464l299 464h150zM200 934h134l94 -170h-119z" />
<glyph unicode="&#x40e;" horiz-adv-x="674" d="M13 704h162l171 -349l156 349h159l-324 -704h-160l90 196zM265 938q0 -33 19 -55.5t55 -22.5t55 22.5t19 55.5h110q-1 -78 -50.5 -125.5t-133.5 -47.5t-133.5 47.5t-50.5 125.5h110z" />
<glyph unicode="&#x40f;" horiz-adv-x="736" d="M74 0v704h153v-567h282v567h153v-704h-222v-154h-146v154h-220z" />
<glyph unicode="&#x410;" horiz-adv-x="699" d="M270 704h158l258 -704h-158l-50 145h-258l-49 -145h-158zM348 527l-85 -254h170z" />
<glyph unicode="&#x411;" horiz-adv-x="628" d="M536 569h-309v-130h129q108 0 171 -59t63 -160q0 -95 -64.5 -157.5t-169.5 -62.5h-282v704h462v-135zM334 315h-107v-186h107q47 0 74.5 25.5t27.5 68.5q0 42 -27 67t-75 25z" />
<glyph unicode="&#x412;" horiz-adv-x="646" d="M74 0v704h284q108 0 165.5 -52t57.5 -132q0 -57 -26.5 -95.5t-65.5 -55.5q48 -14 83.5 -56.5t35.5 -110.5q0 -89 -64.5 -145.5t-173.5 -56.5h-296zM351 300h-125v-173h124q47 0 75 23t28 63t-27.5 63.5t-74.5 23.5zM334 577h-108v-158h112q43 0 66 22t23 57 q0 38 -24 58.5t-69 20.5z" />
<glyph unicode="&#x413;" horiz-adv-x="573" d="M538 568h-311v-568h-153v704h464v-136z" />
<glyph unicode="&#x414;" horiz-adv-x="766" d="M744 136v-270h-147v134h-441v-134h-146v270h55q33 21 48.5 73.5t21.5 144.5l23 350h500v-568h86zM280 354q-6 -92 -17 -138.5t-37 -79.5h279v432h-210z" />
<glyph unicode="&#x415;" horiz-adv-x="596" d="M546 568h-319v-144h300v-131h-300v-157h319v-136h-472v704h472v-136z" />
<glyph unicode="&#x416;" horiz-adv-x="976" d="M414 0v317l-228 -317h-176l263 363l-257 341h172l226 -298v298h148v-297l226 297h172l-257 -337l263 -367h-175l-229 316v-316h-148z" />
<glyph unicode="&#x417;" horiz-adv-x="618" d="M41 504q9 99 82.5 155.5t180.5 56.5q113 0 181.5 -54t68.5 -143q0 -56 -29 -95.5t-70 -54.5q46 -11 85.5 -53.5t39.5 -109.5q0 -100 -74 -159t-194 -59q-119 0 -195 59t-83 160h151q8 -39 41 -62.5t86 -23.5q52 0 82.5 24t30.5 65q0 42 -30.5 62.5t-83.5 20.5h-94v130h80 q50 0 76 22t26 59q0 36 -27 57.5t-71 21.5q-46 0 -75 -20.5t-36 -58.5h-149z" />
<glyph unicode="&#x418;" horiz-adv-x="747" d="M673 704v-704h-150v462l-299 -462h-150v704h150v-464l299 464h150z" />
<glyph unicode="&#x419;" horiz-adv-x="747" d="M673 704v-704h-150v462l-299 -462h-150v704h150v-464l299 464h150zM299 931q0 -33 19 -55.5t55 -22.5t55 22.5t19 55.5h110q-1 -78 -50.5 -125.5t-133.5 -47.5t-133.5 47.5t-50.5 125.5h110z" />
<glyph unicode="&#x41a;" horiz-adv-x="665" d="M227 0h-153v704h153v-290l246 290h179l-282 -338l288 -366h-186l-245 307v-307z" />
<glyph unicode="&#x41b;" horiz-adv-x="722" d="M10 -2v137h19q54 0 78 31.5t29 104.5l28 433h484v-704h-153v568h-194l-20 -307q-9 -127 -61 -195t-169 -68h-41z" />
<glyph unicode="&#x41c;" horiz-adv-x="916" d="M74 704h190l195 -494l194 494h189v-704h-143v473l-185 -467h-112l-184 463v-469h-144v704z" />
<glyph unicode="&#x41d;" horiz-adv-x="739" d="M227 0h-153v704h153v-275h285v275h153v-704h-153v292h-285v-292z" />
<glyph unicode="&#x41e;" horiz-adv-x="758" d="M379 716q150 0 243.5 -100.5t93.5 -263.5t-93.5 -263.5t-243.5 -100.5t-243.5 100.5t-93.5 263.5t93.5 263.5t243.5 100.5zM379 125q84 0 132.5 63.5t48.5 163.5t-48.5 163.5t-132.5 63.5t-132.5 -63.5t-48.5 -163.5t48.5 -163.5t132.5 -63.5z" />
<glyph unicode="&#x41f;" horiz-adv-x="736" d="M74 704h588v-704h-153v568h-282v-568h-153v704z" />
<glyph unicode="&#x420;" horiz-adv-x="631" d="M342 704q118 0 185.5 -66.5t67.5 -171.5q0 -102 -68.5 -169.5t-180.5 -67.5h-119v-229h-153v704h268zM328 573h-101v-213h101q52 0 82 29.5t30 76.5q0 48 -29.5 77.5t-82.5 29.5z" />
<glyph unicode="&#x421;" horiz-adv-x="715" d="M525 243h152q-3 -46 -23 -90t-56 -81.5t-95 -60.5t-132 -23q-143 0 -236 98.5t-93 265.5q0 163 92 263.5t237 100.5q133 0 212 -72t93 -182h-152q-13 51 -52 84t-101 33q-77 0 -125 -62t-48 -165q0 -102 48 -164.5t126 -62.5q65 0 105 36.5t48 81.5z" />
<glyph unicode="&#x422;" horiz-adv-x="634" d="M31 568v136h572v-136h-209v-568h-153v568h-210z" />
<glyph unicode="&#x423;" horiz-adv-x="674" d="M13 704h162l171 -349l156 349h159l-324 -704h-160l90 196z" />
<glyph unicode="&#x424;" horiz-adv-x="863" d="M506 651q133 -5 226 -82.5t93 -212.5t-93 -212.5t-226 -82.5v-72h-149v72q-134 5 -226.5 82.5t-92.5 212.5t92.5 212.5t226.5 82.5v73h149v-73zM357 190v331q-75 -2 -121.5 -46t-46.5 -119q0 -74 46.5 -119t121.5 -47zM506 190q74 2 121 47t47 119t-47 118.5t-121 46.5 v-331z" />
<glyph unicode="&#x425;" horiz-adv-x="696" d="M501 0l-155 241l-154 -241h-171l232 354l-230 350h175l152 -240l154 240h169l-230 -353l232 -351h-174z" />
<glyph unicode="&#x426;" horiz-adv-x="770" d="M747 137v-271h-147v134h-526v704h153v-567h281v567h153v-567h86z" />
<glyph unicode="&#x427;" horiz-adv-x="692" d="M466 704h153v-704h-153v277q-58 -32 -145 -32q-118 0 -191.5 69.5t-73.5 207.5v182h153v-178q0 -71 38.5 -108t102.5 -37q67 0 116 30v293z" />
<glyph unicode="&#x428;" horiz-adv-x="997" d="M575 704v-567h196v567h153v-704h-850v704h153v-567h195v567h153z" />
<glyph unicode="&#x429;" horiz-adv-x="1033" d="M1010 137v-271h-147v134h-789v704h153v-567h195v567h153v-567h196v567h153v-567h86z" />
<glyph unicode="&#x42a;" horiz-adv-x="734" d="M448 466q116 0 183 -65t67 -168q0 -102 -67.5 -167.5t-179.5 -65.5h-270v567h-150v137h303v-238h114zM434 334h-100v-203h100q50 0 79.5 28t29.5 74q0 47 -29 74t-80 27z" />
<glyph unicode="&#x42b;" horiz-adv-x="877" d="M340 466q116 0 183 -65t67 -168q0 -102 -67.5 -167.5t-178.5 -65.5h-270v704h153v-238h113zM803 704v-704h-152v704h152zM326 334h-99v-203h99q50 0 79.5 28t29.5 74q0 47 -28.5 74t-80.5 27z" />
<glyph unicode="&#x42c;" horiz-adv-x="627" d="M340 466q116 0 183 -65t67 -168q0 -102 -67.5 -167.5t-178.5 -65.5h-270v704h153v-238h113zM326 334h-99v-203h99q50 0 79.5 28t29.5 74q0 47 -28.5 74t-80.5 27z" />
<glyph unicode="&#x42d;" horiz-adv-x="717" d="M266 294v127h248q-12 77 -57.5 118t-112.5 41q-62 0 -101.5 -31t-52.5 -77h-151q16 103 96 173.5t209 70.5q147 0 239 -97.5t92 -266.5t-93.5 -266.5t-237.5 -97.5q-72 0 -131 23t-94.5 60t-55.5 78t-25 83h152q11 -42 50 -75t104 -33q69 0 115 44.5t56 125.5h-249z" />
<glyph unicode="&#x42e;" horiz-adv-x="1020" d="M227 0h-153v704h153v-275h90q21 131 109 209t219 78q149 0 241 -100.5t92 -263.5t-92 -263.5t-241 -100.5q-134 0 -224 82.5t-107 221.5h-87v-292zM645 125q83 0 130 63t47 164t-47 164t-130 63q-84 0 -131 -63t-47 -164t47 -164t131 -63z" />
<glyph unicode="&#x42f;" horiz-adv-x="652" d="M183 0h-168l160 268q-56 30 -87.5 82t-31.5 119q0 107 68.5 171t185.5 64h268v-704h-152v236h-104zM211 469q0 -45 31 -74t83 -29h101v207h-101q-53 0 -83.5 -29t-30.5 -75z" />
<glyph unicode="&#x430;" horiz-adv-x="560" d="M359 343q0 35 -23.5 54t-61.5 19q-69 0 -84 -50h-136q11 71 70 117t156 46q102 0 162 -49.5t60 -141.5v-338h-135v56q-53 -68 -153 -68q-78 0 -129 44t-51 120q0 79 56.5 123t155.5 44h113v24zM254 101q44 0 74.5 25.5t30.5 68.5v23h-102q-34 0 -55.5 -16t-21.5 -43 t20 -42.5t54 -15.5z" />
<glyph unicode="&#x431;" horiz-adv-x="607" d="M347 508q101 0 163 -70t62 -186q0 -111 -69.5 -187.5t-184.5 -76.5q-131 0 -202.5 85.5t-71.5 239.5q0 179 60 275.5t207 121.5l211 35v-127l-197 -29q-72 -11 -105.5 -48.5t-41.5 -111.5q58 79 169 79zM311 110q54 0 84.5 40.5t30.5 101.5q0 60 -30.5 98.5t-83.5 38.5 q-55 0 -87 -38t-32 -98q0 -63 31 -103t87 -40z" />
<glyph unicode="&#x432;" horiz-adv-x="542" d="M63 0v517h246q87 0 133 -37t46 -97q0 -42 -21.5 -70.5t-54.5 -40.5q41 -12 68 -43.5t27 -81.5q0 -65 -50 -106t-142 -41h-252zM297 213h-91v-110h91q31 0 48 15t17 41q0 54 -65 54zM287 414h-81v-101h81q27 0 42.5 13.5t15.5 37.5q0 50 -58 50z" />
<glyph unicode="&#x433;" horiz-adv-x="460" d="M430 391h-221v-391h-146v517h367v-126z" />
<glyph unicode="&#x434;" horiz-adv-x="644" d="M618 126v-254h-140v128h-323v-128h-140v254h40q41 24 52 142l19 249h419v-391h73zM244 261q-9 -100 -38 -135h193v265h-146z" />
<glyph unicode="&#x435;" horiz-adv-x="566" d="M531 217h-349v-2q0 -48 32.5 -80t84.5 -32q34 0 57 14t29 31h141q-12 -63 -70.5 -111.5t-159.5 -48.5q-119 0 -190 71.5t-71 196.5t69.5 199t183.5 74q111 0 177 -71t66 -191v-50zM289 415q-44 0 -72 -25.5t-34 -70.5h206q-3 44 -30 70t-70 26z" />
<glyph unicode="&#x436;" horiz-adv-x="799" d="M471 517v-212l155 212h162l-180 -244l182 -273h-165l-154 233v-233h-144v231l-153 -231h-165l182 269l-180 248h161l155 -211v211h144z" />
<glyph unicode="&#x437;" horiz-adv-x="520" d="M39 365q8 78 71 121t155 43q88 0 144.5 -40.5t56.5 -107.5q0 -82 -77 -113q39 -9 67.5 -38t28.5 -81q0 -71 -61 -116t-163 -45q-97 0 -158.5 45.5t-71.5 123.5h140q17 -56 89 -56q36 0 57.5 15t21.5 42q0 50 -78 50h-70v107h62q33 0 51 13.5t18 37.5t-18 37t-49 13 q-66 0 -78 -51h-138z" />
<glyph unicode="&#x438;" horiz-adv-x="607" d="M544 517v-517h-143v302l-200 -302h-138v517h143v-301l200 301h138z" />
<glyph unicode="&#x439;" horiz-adv-x="607" d="M544 517v-517h-143v302l-200 -302h-138v517h143v-301l200 301h138zM233 746q0 -33 18.5 -55.5t52.5 -22.5t52.5 22.5t18.5 55.5h109q-1 -79 -49 -126t-131 -47t-131 47t-49 126h109z" />
<glyph unicode="&#x43a;" horiz-adv-x="552" d="M209 0h-146v517h146v-205l169 205h165l-201 -243l205 -274h-170l-168 229v-229z" />
<glyph unicode="&#x43b;" horiz-adv-x="602" d="M15 -2v126h18q38 0 55 20.5t20 69.5l24 303h407v-517h-146v391h-133l-14 -187q-8 -109 -54 -157.5t-138 -48.5h-39z" />
<glyph unicode="&#x43c;" horiz-adv-x="774" d="M63 517h187l139 -333l139 333h183v-517h-139v328l-136 -324h-98l-136 323v-327h-139v517z" />
<glyph unicode="&#x43d;" horiz-adv-x="601" d="M209 0h-146v517h146v-189h183v189h146v-517h-146v202h-183v-202z" />
<glyph unicode="&#x43e;" horiz-adv-x="591" d="M296 529q115 0 187.5 -74.5t72.5 -196.5t-72.5 -196t-187.5 -74q-116 0 -188.5 74t-72.5 196t72.5 196.5t188.5 74.5zM296 114q52 0 83 40t31 104q0 65 -30.5 105t-83.5 40t-84 -40t-31 -105q0 -64 31 -104t84 -40z" />
<glyph unicode="&#x43f;" horiz-adv-x="598" d="M63 517h472v-517h-146v391h-180v-391h-146v517z" />
<glyph unicode="&#x440;" horiz-adv-x="613" d="M354 529q96 0 160 -72.5t64 -198.5q0 -124 -65 -197t-163 -73t-141 62v-241h-146v708h140v-60q48 72 151 72zM319 114q51 0 81.5 39t30.5 105t-30.5 105.5t-81.5 39.5t-82 -39t-31 -104v-4q0 -65 31 -103.5t82 -38.5z" />
<glyph unicode="&#x441;" horiz-adv-x="560" d="M293 114q77 0 96 72h139q-7 -86 -71 -142t-165 -56q-117 0 -187 75.5t-70 194.5q0 118 70 194.5t187 76.5q102 0 164 -57t71 -140h-140q-22 71 -95 71q-51 0 -81 -39.5t-30 -105.5t30.5 -105t81.5 -39z" />
<glyph unicode="&#x442;" horiz-adv-x="508" d="M26 391v126h456v-126h-155v-391h-146v391h-155z" />
<glyph unicode="&#x443;" horiz-adv-x="550" d="M390 517h156l-272 -708h-155l78 205l-193 503h157l114 -333z" />
<glyph unicode="&#x444;" horiz-adv-x="763" d="M453 529q122 -5 198.5 -79t76.5 -192q0 -117 -76.5 -191t-198.5 -79v-179h-143v179q-123 5 -199 79t-76 191q0 118 76.5 192t198.5 79v188h143v-188zM310 110v296q-56 -2 -93 -42t-37 -106q0 -65 37 -105.5t93 -42.5zM582 258q0 66 -36.5 106t-92.5 42v-296q55 2 92 42.5 t37 105.5z" />
<glyph unicode="&#x445;" horiz-adv-x="550" d="M375 0l-104 159l-102 -159h-159l176 260l-174 257h165l102 -162l103 162h156l-174 -261l176 -256h-165z" />
<glyph unicode="&#x446;" horiz-adv-x="633" d="M607 126v-254h-140v128h-404v517h146v-391h179v391h146v-391h73z" />
<glyph unicode="&#x447;" horiz-adv-x="571" d="M362 517h146v-517h-146v195q-50 -25 -116 -25q-86 0 -141.5 52.5t-55.5 155.5v139h145v-124q0 -98 96 -98q39 0 72 15v207z" />
<glyph unicode="&#x448;" horiz-adv-x="839" d="M492 517v-391h139v391h145v-517h-713v517h146v-391h138v391h145z" />
<glyph unicode="&#x449;" horiz-adv-x="875" d="M850 126v-254h-140v128h-647v517h146v-391h138v391h145v-391h139v391h145v-391h74z" />
<glyph unicode="&#x44a;" horiz-adv-x="622" d="M302 517v-147h89q91 0 144.5 -51.5t53.5 -132.5t-54 -133.5t-144 -52.5h-233v394h-132v123h276zM373 253h-71v-136h71q33 0 53 19.5t20 49.5t-20 48.5t-53 18.5z" />
<glyph unicode="&#x44b;" horiz-adv-x="755" d="M207 517v-147h89q91 0 144.5 -51.5t53.5 -132.5t-54 -133.5t-144 -52.5h-233v517h144zM692 517v-517h-143v517h143zM278 253h-71v-136h71q33 0 53 19.5t20 49.5t-20 48.5t-53 18.5z" />
<glyph unicode="&#x44c;" horiz-adv-x="527" d="M207 517v-147h89q91 0 144.5 -51.5t53.5 -132.5t-54 -133.5t-144 -52.5h-233v517h144zM278 253h-71v-136h71q33 0 53 19.5t20 49.5t-20 48.5t-53 18.5z" />
<glyph unicode="&#x44d;" horiz-adv-x="558" d="M200 317h175q-8 45 -36.5 69.5t-70.5 24.5q-40 0 -64.5 -19t-32.5 -45h-137q11 75 72.5 128.5t161.5 53.5q116 0 185.5 -74t69.5 -197q0 -122 -70.5 -196t-187.5 -74q-102 0 -164 54t-70 132h136q19 -68 100 -68q46 0 74.5 27.5t34.5 75.5h-176v108z" />
<glyph unicode="&#x44e;" horiz-adv-x="827" d="M209 0h-146v517h146v-189h75q20 92 87.5 146.5t163.5 54.5q114 0 185.5 -74.5t71.5 -196.5t-71 -196t-186 -74q-100 0 -168.5 58t-85.5 156h-72v-202zM535 114q52 0 81.5 40t29.5 104q0 65 -29.5 105t-81.5 40t-81.5 -40t-29.5 -105q0 -64 29.5 -104t81.5 -40z" />
<glyph unicode="&#x44f;" horiz-adv-x="547" d="M484 0h-144v158h-62l-101 -158h-161l121 185q-90 48 -90 153q0 79 51.5 129t146.5 50h239v-517zM191 337q0 -30 20 -49t54 -19h75v134h-75q-34 0 -54 -18.5t-20 -47.5z" />
<glyph unicode="&#x450;" horiz-adv-x="566" d="M531 217h-349v-2q0 -48 32.5 -80t84.5 -32q34 0 57 14t29 31h141q-12 -63 -70.5 -111.5t-159.5 -48.5q-119 0 -190 71.5t-71 196.5t69.5 199t183.5 74q111 0 177 -71t66 -191v-50zM289 415q-44 0 -72 -25.5t-34 -70.5h206q-3 44 -30 70t-70 26zM115 756h134l94 -170h-119 z" />
<glyph unicode="&#x451;" horiz-adv-x="566" d="M531 217h-349v-2q0 -48 32.5 -80t84.5 -32q34 0 57 14t29 31h141q-12 -63 -70.5 -111.5t-159.5 -48.5q-119 0 -190 71.5t-71 196.5t69.5 199t183.5 74q111 0 177 -71t66 -191v-50zM289 415q-44 0 -72 -25.5t-34 -70.5h206q-3 44 -30 70t-70 26zM179 743q32 0 55 -22.5 t23 -54.5t-23 -55t-55 -23q-33 0 -56 23t-23 55t23 54.5t56 22.5zM398 743q33 0 55.5 -22.5t22.5 -54.5t-22.5 -55t-55.5 -23t-55.5 23t-22.5 55t22.5 54.5t55.5 22.5z" />
<glyph unicode="&#x452;" horiz-adv-x="600" d="M355 529q80 0 133 -49.5t53 -149.5v-329q0 -100 -45 -147t-148 -47h-36v117h20q63 0 63 82v292q0 49 -24 74.5t-65 25.5q-39 0 -67 -26t-28 -76v-296h-146v579h-66v89h66v59h146v-59h121v-89h-121v-114q50 64 144 64z" />
<glyph unicode="&#x453;" horiz-adv-x="460" d="M430 391h-221v-391h-146v517h367v-126zM424 756l-109 -170h-119l94 170h134z" />
<glyph unicode="&#x454;" horiz-adv-x="558" d="M357 317v-108h-176q7 -48 36 -75.5t74 -27.5q79 0 100 68h135q-8 -78 -69.5 -132t-163.5 -54q-117 0 -187.5 74t-70.5 196q0 123 69.5 197t186.5 74q100 0 162 -53.5t73 -128.5h-138q-8 26 -33 45t-65 19q-42 0 -70.5 -24.5t-36.5 -69.5h174z" />
<glyph unicode="&#x455;" horiz-adv-x="519" d="M177 153q12 -55 90 -55q36 0 56 14.5t20 38.5q0 36 -57 44l-88 10q-156 19 -156 152q0 76 61 124t155 48q91 0 149.5 -43t68.5 -119h-141q-15 51 -81 51q-32 0 -51.5 -14.5t-19.5 -35.5q0 -37 54 -43l92 -11q72 -9 114 -47t42 -107q0 -81 -61 -126.5t-157 -45.5 q-94 0 -159 42t-73 123h142z" />
<glyph unicode="&#x456;" horiz-adv-x="272" d="M209 517v-517h-146v517h146zM135 749q35 0 59.5 -24t24.5 -58q0 -35 -24.5 -59t-59.5 -24t-59 24t-24 59t24 58.5t59 23.5z" />
<glyph unicode="&#x457;" horiz-adv-x="272" d="M209 517v-517h-146v517h146zM50 738q31 0 52.5 -21.5t21.5 -50.5q0 -30 -21.5 -51.5t-52.5 -21.5t-52 21.5t-21 51.5t21.5 51t51.5 21zM221 738q31 0 52.5 -21.5t21.5 -50.5q0 -30 -21.5 -51.5t-52.5 -21.5q-30 0 -51.5 21.5t-21.5 51.5q0 29 21.5 50.5t51.5 21.5z" />
<glyph unicode="&#x458;" horiz-adv-x="272" d="M-20 -193v117h21q63 0 63 82v511h145v-516q0 -100 -45 -147t-148 -47h-36zM136 749q35 0 59.5 -24t24.5 -58q0 -35 -24.5 -59t-59.5 -24t-59 24t-24 59t24 58.5t59 23.5z" />
<glyph unicode="&#x459;" horiz-adv-x="857" d="M626 370q91 0 144.5 -51.5t53.5 -132.5t-54 -133.5t-144 -52.5h-233v391h-133l-14 -187q-8 -109 -54 -157.5t-138 -48.5h-39v126h18q38 0 55 20.5t20 69.5l24 303h405v-147h89zM608 253h-71v-136h71q33 0 53 19.5t20 49.5t-20 48.5t-53 18.5z" />
<glyph unicode="&#x45a;" horiz-adv-x="851" d="M207 0h-144v517h144v-173h182v173h143v-169h99q86 0 136.5 -48.5t50.5 -125.5q0 -76 -50.5 -125t-136.5 -49h-242v224h-182v-224zM604 237h-72v-124h72q33 0 51.5 17.5t18.5 45.5q0 27 -18.5 44t-51.5 17z" />
<glyph unicode="&#x45b;" horiz-adv-x="600" d="M0 668h65v59h146v-59h121v-89h-121v-114q50 64 144 64q80 0 133 -49.5t53 -149.5v-330h-146v298q0 49 -24 74.5t-65 25.5q-39 0 -67 -26t-28 -76v-296h-146v579h-65v89z" />
<glyph unicode="&#x45c;" horiz-adv-x="552" d="M209 0h-146v517h146v-205l169 205h165l-201 -243l205 -274h-170l-168 229v-229zM461 756l-109 -170h-119l94 170h134z" />
<glyph unicode="&#x45d;" horiz-adv-x="607" d="M544 517v-517h-143v302l-200 -302h-138v517h143v-301l200 301h138zM131 749h134l94 -170h-119z" />
<glyph unicode="&#x45e;" horiz-adv-x="550" d="M390 517h156l-272 -708h-155l78 205l-193 503h157l114 -333zM204 753q0 -33 18.5 -55.5t52.5 -22.5t52.5 22.5t18.5 55.5h109q-1 -79 -49 -126t-131 -47t-131 47t-49 126h109z" />
<glyph unicode="&#x45f;" horiz-adv-x="599" d="M63 0v517h146v-391h181v391h146v-517h-167v-146h-140v146h-166z" />
<glyph unicode="&#x462;" horiz-adv-x="755" d="M31 514v116h171v86h152v-86h192v-116h-192v-76h129q109 0 172 -58.5t63 -159.5q0 -96 -64.5 -158t-170.5 -62h-281v514h-171zM462 315h-108v-186h108q47 0 74.5 25.5t27.5 67.5q0 43 -27 68t-75 25z" />
<glyph unicode="&#x463;" horiz-adv-x="635" d="M26 411v106h148v187h143v-187h165v-106h-165v-76h101q85 0 134.5 -46t49.5 -122t-49.5 -121.5t-135.5 -45.5h-243v411h-148zM390 229h-73v-122h73q33 0 51 17t18 45q0 27 -18 43.5t-51 16.5z" />
<glyph unicode="&#x472;" horiz-adv-x="758" d="M379 716q150 0 243.5 -100.5t93.5 -263.5t-93.5 -263.5t-243.5 -100.5t-243.5 100.5t-93.5 263.5t93.5 263.5t243.5 100.5zM379 122q77 0 125.5 53.5t56.5 140.5q-39 -35 -99 -35q-39 0 -95 20t-84 20q-49 0 -84 -24q12 -80 59.5 -127.5t120.5 -47.5zM379 582 q-70 0 -116.5 -45t-61.5 -120q37 32 94 32q40 0 96 -19.5t83 -19.5q48 0 80 20q-17 70 -62.5 111t-112.5 41z" />
<glyph unicode="&#x473;" horiz-adv-x="591" d="M296 529q115 0 187.5 -74.5t72.5 -196.5t-72.5 -196t-187.5 -74q-116 0 -188.5 74t-72.5 196t72.5 196.5t188.5 74.5zM296 110q46 0 76 29.5t38 79.5q-24 -20 -58 -20q-27 0 -64.5 13t-55.5 13q-28 0 -50 -13q10 -47 39.5 -74.5t74.5 -27.5zM296 406q-45 0 -74 -26.5 t-39 -73.5q21 19 56 19q27 0 64.5 -13t55.5 -13q27 0 48 12q-11 44 -39.5 69.5t-71.5 25.5z" />
<glyph unicode="&#x474;" horiz-adv-x="741" d="M685 706h34v-136h-16q-52 0 -74 -26.5t-48 -100.5l-158 -443h-159l-251 704h161l170 -510l96 287q17 51 29 80.5t31.5 61t43 47t58.5 26t83 10.5z" />
<glyph unicode="&#x475;" horiz-adv-x="578" d="M540 519h30v-126h-16q-35 0 -54 -17t-37 -64l-116 -312h-152l-191 517h157l111 -340l58 175q30 94 73 130.5t137 36.5z" />
<glyph unicode="&#x490;" horiz-adv-x="573" d="M538 836v-268h-311v-568h-153v704h320v132h144z" />
<glyph unicode="&#x491;" horiz-adv-x="466" d="M437 643v-252h-228v-391h-146v517h236v126h138z" />
<glyph unicode="&#x492;" horiz-adv-x="593" d="M465 262h-218v-262h-153v262h-73v118h73v324h465v-136h-312v-188h218v-118z" />
<glyph unicode="&#x493;" horiz-adv-x="478" d="M15 279h66v238h367v-125h-222v-113h149v-98h-149v-181h-145v181h-66v98z" />
<glyph unicode="&#x496;" horiz-adv-x="1002" d="M979 136v-270h-146v134h-42l-229 316v-316h-148v317l-228 -317h-176l263 363l-257 341h172l226 -298v298h148v-297l226 297h172l-257 -337l165 -231h111z" />
<glyph unicode="&#x497;" horiz-adv-x="820" d="M794 126v-254h-140v128h-29l-154 233v-233h-144v231l-153 -231h-165l182 269l-180 248h161l155 -211v211h144v-212l155 212h162l-180 -244l98 -147h88z" />
<glyph unicode="&#x498;" horiz-adv-x="618" d="M41 504q9 99 82.5 155.5t180.5 56.5q113 0 181.5 -54t68.5 -143q0 -56 -29 -95.5t-70 -54.5q46 -11 85.5 -53.5t39.5 -109.5q0 -84 -53 -139.5t-143 -71.5v-159h-142v158q-91 16 -146.5 72t-61.5 141h151q8 -39 41 -62.5t86 -23.5q52 0 82.5 24t30.5 65q0 42 -30.5 62.5 t-83.5 20.5h-94v130h80q50 0 76 22t26 59q0 36 -27 57.5t-71 21.5q-46 0 -75 -20.5t-36 -58.5h-149z" />
<glyph unicode="&#x499;" horiz-adv-x="520" d="M39 365q8 78 71 121t155 43q88 0 144.5 -40.5t56.5 -107.5q0 -82 -77 -113q39 -9 67.5 -38t28.5 -81q0 -59 -41.5 -100.5t-114.5 -54.5v-147h-134v148q-70 14 -113.5 56.5t-50.5 105.5h140q17 -56 89 -56q36 0 57.5 15t21.5 42q0 50 -78 50h-70v107h62q33 0 51 13.5 t18 37.5t-18 37t-49 13q-66 0 -78 -51h-138z" />
<glyph unicode="&#x49a;" horiz-adv-x="684" d="M660 136v-270h-146v134h-42l-245 307v-307h-153v704h153v-290l246 290h179l-282 -338l181 -230h109z" />
<glyph unicode="&#x49b;" horiz-adv-x="573" d="M546 126v-125l1 -1h-1v-128h-140v128h-29l-168 229v-229h-146v517h146v-205l169 205h165l-201 -243l110 -148h94z" />
<glyph unicode="&#x49c;" horiz-adv-x="777" d="M226 0h-152v704h152v-278h75v157h104v-150l175 271h170l-221 -338l227 -366h-177l-174 287v-149h-104v157h-75v-295z" />
<glyph unicode="&#x49d;" horiz-adv-x="643" d="M206 0h-143v517h143v-194h54v113h91v-103l126 184h157l-168 -243l173 -274h-163l-125 205v-111h-91v113h-54v-207z" />
<glyph unicode="&#x4a0;" horiz-adv-x="773" d="M334 704v-291l247 291h179l-283 -338l289 -366h-187l-245 309v-309h-153v567h-150v137h303z" />
<glyph unicode="&#x4a1;" horiz-adv-x="644" d="M158 0v391h-132v126h276v-205l169 205h165l-201 -243l205 -274h-170l-168 229v-229h-144z" />
<glyph unicode="&#x4a2;" horiz-adv-x="773" d="M750 136v-270h-146v134h-92v292h-285v-292h-153v704h153v-275h285v275h153v-568h85z" />
<glyph unicode="&#x4a3;" horiz-adv-x="637" d="M611 126v-254h-140v128h-79v202h-183v-202h-146v517h146v-189h183v189h146v-391h73z" />
<glyph unicode="&#x4a4;" horiz-adv-x="1011" d="M227 0h-153v704h153v-275h285v275h464v-136h-311v-568h-153v292h-285v-292z" />
<glyph unicode="&#x4a5;" horiz-adv-x="789" d="M209 0h-146v517h146v-189h183v189h368v-126h-222v-391h-146v202h-183v-202z" />
<glyph unicode="&#x4aa;" horiz-adv-x="715" d="M525 243h152q-6 -86 -66.5 -157.5t-168.5 -91.5v-158h-142v159q-116 23 -187 118t-71 239q0 163 92 263.5t237 100.5q133 0 212 -72t93 -182h-152q-13 51 -52 84t-101 33q-77 0 -125 -62t-48 -165q0 -102 48 -164.5t126 -62.5q65 0 105 36.5t48 81.5z" />
<glyph unicode="&#x4ab;" horiz-adv-x="560" d="M293 114q77 0 96 72h139q-6 -71 -51 -122.5t-118 -67.5v-149h-134v149q-89 20 -139.5 91t-50.5 171q0 118 70 194.5t187 76.5q102 0 164 -57t71 -140h-140q-22 71 -95 71q-51 0 -81 -39.5t-30 -105.5t30.5 -105t81.5 -39z" />
<glyph unicode="&#x4ac;" horiz-adv-x="634" d="M479 136v-270h-146v134h-92v568h-210v136h572v-136h-209v-432h85z" />
<glyph unicode="&#x4ad;" horiz-adv-x="508" d="M400 126v-254h-140v128h-79v391h-155v126h456v-126h-155v-265h73z" />
<glyph unicode="&#x4ae;" horiz-adv-x="669" d="M411 0h-153v267l-248 437h166l159 -291l159 291h165l-248 -437v-267z" />
<glyph unicode="&#x4af;" horiz-adv-x="550" d="M546 517l-198 -515v-193h-146v191l-198 517h157l114 -333l115 333h156z" />
<glyph unicode="&#x4b0;" horiz-adv-x="667" d="M570 243h-160v-243h-153v243h-160v115h109l-196 346h165l159 -294l159 294h164l-196 -346h109v-115z" />
<glyph unicode="&#x4b1;" horiz-adv-x="550" d="M98 5h102l-196 512h157l114 -333l115 333h156l-197 -512h103v-96h-104v-100h-146v100h-104v96z" />
<glyph unicode="&#x4b2;" horiz-adv-x="711" d="M689 136v-270h-146v134h-42l-155 241l-154 -241h-171l232 354l-230 350h175l152 -240l154 240h169l-230 -353l142 -215h104z" />
<glyph unicode="&#x4b3;" horiz-adv-x="570" d="M544 126v-254h-140v128h-29l-104 159l-102 -159h-159l176 260l-174 257h165l102 -162l103 162h156l-174 -261l89 -130h91z" />
<glyph unicode="&#x4b4;" horiz-adv-x="918" d="M31 568v136h516v-136h-178v-431h287v567h153v-567h86v-271h-147v134h-532v568h-185z" />
<glyph unicode="&#x4b5;" horiz-adv-x="752" d="M26 391v126h414v-126h-129v-265h196v391h146v-391h73v-254h-140v128h-421v391h-139z" />
<glyph unicode="&#x4b6;" horiz-adv-x="727" d="M704 136v-270h-146v134h-92v277q-58 -32 -145 -32q-118 0 -191.5 69.5t-73.5 207.5v182h153v-178q0 -71 38.5 -108t102.5 -37q67 0 116 30v293h153v-568h85z" />
<glyph unicode="&#x4b7;" horiz-adv-x="607" d="M581 126v-254h-140v128h-79v195q-50 -25 -116 -25q-86 0 -141.5 52.5t-55.5 155.5v139h145v-124q0 -98 96 -98q39 0 72 15v207h146v-391h73z" />
<glyph unicode="&#x4b8;" horiz-adv-x="707" d="M399 102h-105v145q-109 9 -173.5 78.5t-64.5 197.5v181h153v-178q0 -109 85 -137v159h105v-165q43 5 81 26v295h153v-704h-153v278q-37 -20 -81 -27v-149z" />
<glyph unicode="&#x4b9;" horiz-adv-x="594" d="M338 70h-92v101q-89 2 -143 54.5t-54 154.5v137h145v-126q0 -76 52 -91v118h92v-122q21 4 48 15v206h145v-517h-145v198q-26 -13 -48 -18v-110z" />
<glyph unicode="&#x4ba;" horiz-adv-x="695" d="M227 0h-153v704h153v-270q58 33 144 33q118 0 192 -70t74 -208v-189h-153v185q0 71 -39 108t-102 37q-68 0 -116 -29v-301z" />
<glyph unicode="&#x4bb;" horiz-adv-x="597" d="M353 529q80 0 133 -49.5t53 -149.5v-330h-146v298q0 49 -24 74.5t-65 25.5q-39 0 -67 -26t-28 -76v-296h-146v727h146v-262q50 64 144 64z" />
<glyph unicode="&#x4c0;" horiz-adv-x="301" d="M227 704v-704h-153v704h153z" />
<glyph unicode="&#x4c1;" horiz-adv-x="976" d="M414 0v317l-228 -317h-176l263 363l-257 341h172l226 -298v298h148v-297l226 297h172l-257 -337l263 -367h-175l-229 316v-316h-148zM414 938q0 -33 19 -55.5t55 -22.5t55 22.5t19 55.5h110q-1 -78 -50.5 -125.5t-133.5 -47.5t-133.5 47.5t-50.5 125.5h110z" />
<glyph unicode="&#x4c2;" horiz-adv-x="799" d="M471 517v-212l155 212h162l-180 -244l182 -273h-165l-154 233v-233h-144v231l-153 -231h-165l182 269l-180 248h161l155 -211v211h144zM328 753q0 -33 18.5 -55.5t52.5 -22.5t52.5 22.5t18.5 55.5h109q-1 -79 -49 -126t-131 -47t-131 47t-49 126h109z" />
<glyph unicode="&#x4cf;" horiz-adv-x="272" d="M209 727v-727h-146v727h146z" />
<glyph unicode="&#x4d0;" horiz-adv-x="699" d="M270 704h158l258 -704h-158l-50 145h-258l-49 -145h-158zM348 527l-85 -254h170zM276 938q0 -33 19 -55.5t55 -22.5t55 22.5t19 55.5h110q-1 -78 -50.5 -125.5t-133.5 -47.5t-133.5 47.5t-50.5 125.5h110z" />
<glyph unicode="&#x4d1;" horiz-adv-x="560" d="M359 343q0 35 -23.5 54t-61.5 19q-69 0 -84 -50h-136q11 71 70 117t156 46q102 0 162 -49.5t60 -141.5v-338h-135v56q-53 -68 -153 -68q-78 0 -129 44t-51 120q0 79 56.5 123t155.5 44h113v24zM254 101q44 0 74.5 25.5t30.5 68.5v23h-102q-34 0 -55.5 -16t-21.5 -43 t20 -42.5t54 -15.5zM211 753q0 -33 18.5 -55.5t52.5 -22.5t52.5 22.5t18.5 55.5h109q-1 -79 -49 -126t-131 -47t-131 47t-49 126h109z" />
<glyph unicode="&#x4d2;" horiz-adv-x="699" d="M270 704h158l258 -704h-158l-50 145h-258l-49 -145h-158zM348 527l-85 -254h170zM236 928q33 0 55.5 -23t22.5 -55t-22.5 -54.5t-55.5 -22.5t-55.5 22.5t-22.5 54.5t22.5 55t55.5 23zM465 928q32 0 55 -23t23 -55t-23 -54.5t-55 -22.5q-33 0 -55.5 22.5t-22.5 54.5 t22.5 55t55.5 23z" />
<glyph unicode="&#x4d3;" horiz-adv-x="560" d="M359 343q0 35 -23.5 54t-61.5 19q-69 0 -84 -50h-136q11 71 70 117t156 46q102 0 162 -49.5t60 -141.5v-338h-135v56q-53 -68 -153 -68q-78 0 -129 44t-51 120q0 79 56.5 123t155.5 44h113v24zM254 101q44 0 74.5 25.5t30.5 68.5v23h-102q-34 0 -55.5 -16t-21.5 -43 t20 -42.5t54 -15.5zM173 743q32 0 55 -22.5t23 -54.5t-23 -55t-55 -23q-33 0 -56 23t-23 55t23 54.5t56 22.5zM392 743q33 0 55.5 -22.5t22.5 -54.5t-22.5 -55t-55.5 -23t-55.5 23t-22.5 55t22.5 54.5t55.5 22.5z" />
<glyph unicode="&#x4d4;" horiz-adv-x="1004" d="M399 704h555v-136h-319v-144h300v-131h-300v-157h319v-136h-470v146h-239l-82 -146h-160zM317 273h167v297z" />
<glyph unicode="&#x4d5;" horiz-adv-x="886" d="M273 529q119 0 169 -76q65 76 173 76q107 0 171.5 -71t64.5 -191v-50h-349v-2q0 -48 32.5 -80t83.5 -32q35 0 58 14t28 31h141q-11 -63 -68.5 -111.5t-155.5 -48.5q-130 0 -195 93q-68 -93 -198 -93q-85 0 -139.5 44t-54.5 120q0 79 56.5 123t155.5 44h113v24 q0 35 -23.5 54t-62.5 19q-68 0 -83 -50h-136q11 70 68.5 116.5t150.5 46.5zM255 101q44 0 74 25.5t30 68.5v23h-102q-34 0 -55.5 -16t-21.5 -43t20.5 -42.5t54.5 -15.5zM609 415q-44 0 -72.5 -25.5t-33.5 -70.5h205q-3 44 -29.5 70t-69.5 26z" />
<glyph unicode="&#x4d6;" horiz-adv-x="596" d="M546 568h-319v-144h300v-131h-300v-157h319v-136h-472v704h472v-136zM239 938q0 -33 19 -55.5t55 -22.5t55 22.5t19 55.5h110q-1 -78 -50.5 -125.5t-133.5 -47.5t-133.5 47.5t-50.5 125.5h110z" />
<glyph unicode="&#x4d7;" horiz-adv-x="566" d="M531 217h-349v-2q0 -48 32.5 -80t84.5 -32q34 0 57 14t29 31h141q-12 -63 -70.5 -111.5t-159.5 -48.5q-119 0 -190 71.5t-71 196.5t69.5 199t183.5 74q111 0 177 -71t66 -191v-50zM289 415q-44 0 -72 -25.5t-34 -70.5h206q-3 44 -30 70t-70 26zM217 753q0 -33 18.5 -55.5 t52.5 -22.5t52.5 22.5t18.5 55.5h109q-1 -79 -49 -126t-131 -47t-131 47t-49 126h109z" />
<glyph unicode="&#x4d8;" horiz-adv-x="727" d="M42 343v59h483q-1 82 -50.5 131.5t-122.5 49.5q-105 0 -148 -87h-154q22 95 101.5 157.5t201.5 62.5q152 0 242 -100t90 -264q0 -166 -88 -265t-233 -99q-149 0 -235.5 100t-86.5 255zM365 121q67 0 108.5 43t49.5 114h-319q3 -67 46.5 -112t114.5 -45z" />
<glyph unicode="&#x4d9;" horiz-adv-x="567" d="M35 251v55h350v2q0 47 -30.5 77t-82.5 30q-34 0 -58 -13.5t-30 -30.5h-141q12 63 71.5 110.5t160.5 47.5q119 0 188 -71t69 -197t-68 -199.5t-181 -73.5t-180.5 71t-67.5 192zM281 102q45 0 71.5 27t31.5 75h-206q1 -47 29.5 -74.5t73.5 -27.5z" />
<glyph unicode="&#x4da;" horiz-adv-x="727" d="M42 343v59h483q-1 82 -50.5 131.5t-122.5 49.5q-105 0 -148 -87h-154q22 95 101.5 157.5t201.5 62.5q152 0 242 -100t90 -264q0 -166 -88 -265t-233 -99q-149 0 -235.5 100t-86.5 255zM365 121q67 0 108.5 43t49.5 114h-319q3 -67 46.5 -112t114.5 -45zM249 928 q33 0 55.5 -23t22.5 -55t-22.5 -54.5t-55.5 -22.5t-55.5 22.5t-22.5 54.5t22.5 55t55.5 23zM478 928q32 0 55 -23t23 -55t-23 -54.5t-55 -22.5q-33 0 -55.5 22.5t-22.5 54.5t22.5 55t55.5 23z" />
<glyph unicode="&#x4db;" horiz-adv-x="567" d="M35 251v55h350v2q0 47 -30.5 77t-82.5 30q-34 0 -58 -13.5t-30 -30.5h-141q12 63 71.5 110.5t160.5 47.5q119 0 188 -71t69 -197t-68 -199.5t-181 -73.5t-180.5 71t-67.5 192zM281 102q45 0 71.5 27t31.5 75h-206q1 -47 29.5 -74.5t73.5 -27.5zM174 743q32 0 55 -22.5 t23 -54.5t-23 -55t-55 -23q-33 0 -56 23t-23 55t23 54.5t56 22.5zM393 743q33 0 55.5 -22.5t22.5 -54.5t-22.5 -55t-55.5 -23t-55.5 23t-22.5 55t22.5 54.5t55.5 22.5z" />
<glyph unicode="&#x4dc;" horiz-adv-x="976" d="M414 0v317l-228 -317h-176l263 363l-257 341h172l226 -298v298h148v-297l226 297h172l-257 -337l263 -367h-175l-229 316v-316h-148zM374 928q33 0 55.5 -23t22.5 -55t-22.5 -54.5t-55.5 -22.5t-55.5 22.5t-22.5 54.5t22.5 55t55.5 23zM603 928q32 0 55 -23t23 -55 t-23 -54.5t-55 -22.5q-33 0 -55.5 22.5t-22.5 54.5t22.5 55t55.5 23z" />
<glyph unicode="&#x4dd;" horiz-adv-x="799" d="M471 517v-212l155 212h162l-180 -244l182 -273h-165l-154 233v-233h-144v231l-153 -231h-165l182 269l-180 248h161l155 -211v211h144zM290 743q32 0 55 -22.5t23 -54.5t-23 -55t-55 -23q-33 0 -56 23t-23 55t23 54.5t56 22.5zM509 743q33 0 55.5 -22.5t22.5 -54.5 t-22.5 -55t-55.5 -23t-55.5 23t-22.5 55t22.5 54.5t55.5 22.5z" />
<glyph unicode="&#x4de;" horiz-adv-x="618" d="M41 504q9 99 82.5 155.5t180.5 56.5q113 0 181.5 -54t68.5 -143q0 -56 -29 -95.5t-70 -54.5q46 -11 85.5 -53.5t39.5 -109.5q0 -100 -74 -159t-194 -59q-119 0 -195 59t-83 160h151q8 -39 41 -62.5t86 -23.5q52 0 82.5 24t30.5 65q0 42 -30.5 62.5t-83.5 20.5h-94v130h80 q50 0 76 22t26 59q0 36 -27 57.5t-71 21.5q-46 0 -75 -20.5t-36 -58.5h-149zM191 928q33 0 55.5 -23t22.5 -55t-22.5 -54.5t-55.5 -22.5t-55.5 22.5t-22.5 54.5t22.5 55t55.5 23zM420 928q32 0 55 -23t23 -55t-23 -54.5t-55 -22.5q-33 0 -55.5 22.5t-22.5 54.5t22.5 55 t55.5 23z" />
<glyph unicode="&#x4df;" horiz-adv-x="520" d="M39 365q8 78 71 121t155 43q88 0 144.5 -40.5t56.5 -107.5q0 -82 -77 -113q39 -9 67.5 -38t28.5 -81q0 -71 -61 -116t-163 -45q-97 0 -158.5 45.5t-71.5 123.5h140q17 -56 89 -56q36 0 57.5 15t21.5 42q0 50 -78 50h-70v107h62q33 0 51 13.5t18 37.5t-18 37t-49 13 q-66 0 -78 -51h-138zM155 743q32 0 55 -22.5t23 -54.5t-23 -55t-55 -23q-33 0 -56 23t-23 55t23 54.5t56 22.5zM374 743q33 0 55.5 -22.5t22.5 -54.5t-22.5 -55t-55.5 -23t-55.5 23t-22.5 55t22.5 54.5t55.5 22.5z" />
<glyph unicode="&#x4e2;" horiz-adv-x="747" d="M673 704v-704h-150v462l-299 -462h-150v704h150v-464l299 464h150zM207 895h332v-104h-332v104z" />
<glyph unicode="&#x4e3;" horiz-adv-x="607" d="M544 517v-517h-143v302l-200 -302h-138v517h143v-301l200 301h138zM143 710h322v-103h-322v103z" />
<glyph unicode="&#x4e4;" horiz-adv-x="747" d="M673 704v-704h-150v462l-299 -462h-150v704h150v-464l299 464h150zM259 921q33 0 55.5 -23t22.5 -55t-22.5 -54.5t-55.5 -22.5t-55.5 22.5t-22.5 54.5t22.5 55t55.5 23zM488 921q32 0 55 -23t23 -55t-23 -54.5t-55 -22.5q-33 0 -55.5 22.5t-22.5 54.5t22.5 55t55.5 23z " />
<glyph unicode="&#x4e5;" horiz-adv-x="607" d="M544 517v-517h-143v302l-200 -302h-138v517h143v-301l200 301h138zM195 736q32 0 55 -22.5t23 -54.5t-23 -55t-55 -23q-33 0 -56 23t-23 55t23 54.5t56 22.5zM414 736q33 0 55.5 -22.5t22.5 -54.5t-22.5 -55t-55.5 -23t-55.5 23t-22.5 55t22.5 54.5t55.5 22.5z" />
<glyph unicode="&#x4e6;" horiz-adv-x="758" d="M379 716q150 0 243.5 -100.5t93.5 -263.5t-93.5 -263.5t-243.5 -100.5t-243.5 100.5t-93.5 263.5t93.5 263.5t243.5 100.5zM379 125q84 0 132.5 63.5t48.5 163.5t-48.5 163.5t-132.5 63.5t-132.5 -63.5t-48.5 -163.5t48.5 -163.5t132.5 -63.5zM265 928q33 0 55.5 -23 t22.5 -55t-22.5 -54.5t-55.5 -22.5t-55.5 22.5t-22.5 54.5t22.5 55t55.5 23zM494 928q32 0 55 -23t23 -55t-23 -54.5t-55 -22.5q-33 0 -55.5 22.5t-22.5 54.5t22.5 55t55.5 23z" />
<glyph unicode="&#x4e7;" horiz-adv-x="591" d="M296 529q115 0 187.5 -74.5t72.5 -196.5t-72.5 -196t-187.5 -74q-116 0 -188.5 74t-72.5 196t72.5 196.5t188.5 74.5zM296 114q52 0 83 40t31 104q0 65 -30.5 105t-83.5 40t-84 -40t-31 -105q0 -64 31 -104t84 -40zM187 743q32 0 55 -22.5t23 -54.5t-23 -55t-55 -23 q-33 0 -56 23t-23 55t23 54.5t56 22.5zM406 743q33 0 55.5 -22.5t22.5 -54.5t-22.5 -55t-55.5 -23t-55.5 23t-22.5 55t22.5 54.5t55.5 22.5z" />
<glyph unicode="&#x4e8;" horiz-adv-x="758" d="M379 716q150 0 243.5 -100.5t93.5 -263.5t-93.5 -263.5t-243.5 -100.5t-243.5 100.5t-93.5 263.5t93.5 263.5t243.5 100.5zM379 122q73 0 120 47.5t60 126.5h-360q13 -79 60 -126.5t120 -47.5zM379 582q-69 0 -115.5 -42.5t-61.5 -114.5h353q-15 70 -60.5 113.5 t-115.5 43.5z" />
<glyph unicode="&#x4e9;" horiz-adv-x="591" d="M296 529q115 0 187.5 -74.5t72.5 -196.5t-72.5 -196t-187.5 -74q-116 0 -188.5 74t-72.5 196t72.5 196.5t188.5 74.5zM296 110q47 0 75.5 28.5t36.5 72.5h-226q10 -47 39.5 -74t74.5 -27zM296 406q-45 0 -73.5 -25.5t-38.5 -67.5h222q-11 43 -39.5 68t-70.5 25z" />
<glyph unicode="&#x4ea;" horiz-adv-x="758" d="M379 716q150 0 243.5 -100.5t93.5 -263.5t-93.5 -263.5t-243.5 -100.5t-243.5 100.5t-93.5 263.5t93.5 263.5t243.5 100.5zM379 122q73 0 120 47.5t60 126.5h-360q13 -79 60 -126.5t120 -47.5zM379 582q-69 0 -115.5 -42.5t-61.5 -114.5h353q-15 70 -60.5 113.5 t-115.5 43.5zM265 928q33 0 55.5 -23t22.5 -55t-22.5 -54.5t-55.5 -22.5t-55.5 22.5t-22.5 54.5t22.5 55t55.5 23zM494 928q32 0 55 -23t23 -55t-23 -54.5t-55 -22.5q-33 0 -55.5 22.5t-22.5 54.5t22.5 55t55.5 23z" />
<glyph unicode="&#x4eb;" horiz-adv-x="591" d="M296 529q115 0 187.5 -74.5t72.5 -196.5t-72.5 -196t-187.5 -74q-116 0 -188.5 74t-72.5 196t72.5 196.5t188.5 74.5zM296 110q47 0 75.5 28.5t36.5 72.5h-226q10 -47 39.5 -74t74.5 -27zM296 406q-45 0 -73.5 -25.5t-38.5 -67.5h222q-11 43 -39.5 68t-70.5 25zM187 743 q32 0 55 -22.5t23 -54.5t-23 -55t-55 -23q-33 0 -56 23t-23 55t23 54.5t56 22.5zM406 743q33 0 55.5 -22.5t22.5 -54.5t-22.5 -55t-55.5 -23t-55.5 23t-22.5 55t22.5 54.5t55.5 22.5z" />
<glyph unicode="&#x4ec;" horiz-adv-x="717" d="M266 294v127h248q-12 77 -57.5 118t-112.5 41q-62 0 -101.5 -31t-52.5 -77h-151q16 103 96 173.5t209 70.5q147 0 239 -97.5t92 -266.5t-93.5 -266.5t-237.5 -97.5q-72 0 -131 23t-94.5 60t-55.5 78t-25 83h152q11 -42 50 -75t104 -33q69 0 115 44.5t56 125.5h-249z M230 928q33 0 55.5 -23t22.5 -55t-22.5 -54.5t-55.5 -22.5t-55.5 22.5t-22.5 54.5t22.5 55t55.5 23zM459 928q32 0 55 -23t23 -55t-23 -54.5t-55 -22.5q-33 0 -55.5 22.5t-22.5 54.5t22.5 55t55.5 23z" />
<glyph unicode="&#x4ed;" horiz-adv-x="558" d="M200 317h175q-8 45 -36.5 69.5t-70.5 24.5q-40 0 -64.5 -19t-32.5 -45h-137q11 75 72.5 128.5t161.5 53.5q116 0 185.5 -74t69.5 -197q0 -122 -70.5 -196t-187.5 -74q-102 0 -164 54t-70 132h136q19 -68 100 -68q46 0 74.5 27.5t34.5 75.5h-176v108zM159 743 q32 0 55 -22.5t23 -54.5t-23 -55t-55 -23q-33 0 -56 23t-23 55t23 54.5t56 22.5zM378 743q33 0 55.5 -22.5t22.5 -54.5t-22.5 -55t-55.5 -23t-55.5 23t-22.5 55t22.5 54.5t55.5 22.5z" />
<glyph unicode="&#x4ee;" horiz-adv-x="674" d="M13 704h162l171 -349l156 349h159l-324 -704h-160l90 196zM173 902h332v-104h-332v104z" />
<glyph unicode="&#x4ef;" horiz-adv-x="550" d="M390 517h156l-272 -708h-155l78 205l-193 503h157l114 -333zM114 717h322v-103h-322v103z" />
<glyph unicode="&#x4f0;" horiz-adv-x="674" d="M13 704h162l171 -349l156 349h159l-324 -704h-160l90 196zM225 928q33 0 55.5 -23t22.5 -55t-22.5 -54.5t-55.5 -22.5t-55.5 22.5t-22.5 54.5t22.5 55t55.5 23zM454 928q32 0 55 -23t23 -55t-23 -54.5t-55 -22.5q-33 0 -55.5 22.5t-22.5 54.5t22.5 55t55.5 23z" />
<glyph unicode="&#x4f1;" horiz-adv-x="550" d="M390 517h156l-272 -708h-155l78 205l-193 503h157l114 -333zM166 743q32 0 55 -22.5t23 -54.5t-23 -55t-55 -23q-33 0 -56 23t-23 55t23 54.5t56 22.5zM385 743q33 0 55.5 -22.5t22.5 -54.5t-22.5 -55t-55.5 -23t-55.5 23t-22.5 55t22.5 54.5t55.5 22.5z" />
<glyph unicode="&#x4f2;" horiz-adv-x="674" d="M13 704h162l171 -349l156 349h159l-324 -704h-160l90 196zM404 941l-104 -170h-114l89 170h129zM597 941l-103 -170h-114l88 170h129z" />
<glyph unicode="&#x4f3;" horiz-adv-x="550" d="M390 517h156l-272 -708h-155l78 205l-193 503h157l114 -333zM341 756l-103 -170h-114l88 170h129zM531 756l-103 -170h-114l88 170h129z" />
<glyph unicode="&#x4f4;" horiz-adv-x="692" d="M466 704h153v-704h-153v277q-58 -32 -145 -32q-118 0 -191.5 69.5t-73.5 207.5v182h153v-178q0 -71 38.5 -108t102.5 -37q67 0 116 30v293zM224 928q33 0 55.5 -23t22.5 -55t-22.5 -54.5t-55.5 -22.5t-55.5 22.5t-22.5 54.5t22.5 55t55.5 23zM453 928q32 0 55 -23t23 -55 t-23 -54.5t-55 -22.5q-33 0 -55.5 22.5t-22.5 54.5t22.5 55t55.5 23z" />
<glyph unicode="&#x4f5;" horiz-adv-x="571" d="M362 517h146v-517h-146v195q-50 -25 -116 -25q-86 0 -141.5 52.5t-55.5 155.5v139h145v-124q0 -98 96 -98q39 0 72 15v207zM171 743q32 0 55 -22.5t23 -54.5t-23 -55t-55 -23q-33 0 -56 23t-23 55t23 54.5t56 22.5zM390 743q33 0 55.5 -22.5t22.5 -54.5t-22.5 -55 t-55.5 -23t-55.5 23t-22.5 55t22.5 54.5t55.5 22.5z" />
<glyph unicode="&#x4f6;" horiz-adv-x="573" d="M312 136v-270h-146v134h-92v704h464v-136h-311v-432h85z" />
<glyph unicode="&#x4f7;" horiz-adv-x="460" d="M282 126v-254h-140v128h-79v517h367v-126h-221v-265h73z" />
<glyph unicode="&#x4f8;" horiz-adv-x="877" d="M340 466q116 0 183 -65t67 -168q0 -102 -67.5 -167.5t-178.5 -65.5h-270v704h153v-238h113zM803 704v-704h-152v704h152zM326 334h-99v-203h99q50 0 79.5 28t29.5 74q0 47 -28.5 74t-80.5 27zM325 928q33 0 55.5 -23t22.5 -55t-22.5 -54.5t-55.5 -22.5t-55.5 22.5 t-22.5 54.5t22.5 55t55.5 23zM554 928q32 0 55 -23t23 -55t-23 -54.5t-55 -22.5q-33 0 -55.5 22.5t-22.5 54.5t22.5 55t55.5 23z" />
<glyph unicode="&#x4f9;" horiz-adv-x="755" d="M207 517v-147h89q91 0 144.5 -51.5t53.5 -132.5t-54 -133.5t-144 -52.5h-233v517h144zM692 517v-517h-143v517h143zM278 253h-71v-136h71q33 0 53 19.5t20 49.5t-20 48.5t-53 18.5zM269 743q32 0 55 -22.5t23 -54.5t-23 -55t-55 -23q-33 0 -56 23t-23 55t23 54.5t56 22.5 zM488 743q33 0 55.5 -22.5t22.5 -54.5t-22.5 -55t-55.5 -23t-55.5 23t-22.5 55t22.5 54.5t55.5 22.5z" />
<glyph unicode="&#x1e80;" horiz-adv-x="1012" d="M991 704l-208 -704h-145l-133 485l-132 -485h-144l-208 704h155l130 -460l130 460h140l131 -461l130 461h154zM332 941h134l94 -170h-119z" />
<glyph unicode="&#x1e81;" horiz-adv-x="814" d="M806 517l-161 -517h-143l-96 339l-95 -339h-142l-160 517h148l90 -316l90 316h141l90 -317l89 317h149zM234 756h134l94 -170h-119z" />
<glyph unicode="&#x1e82;" horiz-adv-x="1012" d="M991 704l-208 -704h-145l-133 485l-132 -485h-144l-208 704h155l130 -460l130 460h140l131 -461l130 461h154zM678 941l-109 -170h-119l94 170h134z" />
<glyph unicode="&#x1e83;" horiz-adv-x="814" d="M806 517l-161 -517h-143l-96 339l-95 -339h-142l-160 517h148l90 -316l90 316h141l90 -317l89 317h149zM580 756l-109 -170h-119l94 170h134z" />
<glyph unicode="&#x1e84;" horiz-adv-x="1012" d="M991 704l-208 -704h-145l-133 485l-132 -485h-144l-208 704h155l130 -460l130 460h140l131 -461l130 461h154zM391 928q33 0 55.5 -23t22.5 -55t-22.5 -54.5t-55.5 -22.5t-55.5 22.5t-22.5 54.5t22.5 55t55.5 23zM620 928q32 0 55 -23t23 -55t-23 -54.5t-55 -22.5 q-33 0 -55.5 22.5t-22.5 54.5t22.5 55t55.5 23z" />
<glyph unicode="&#x1e85;" horiz-adv-x="814" d="M806 517l-161 -517h-143l-96 339l-95 -339h-142l-160 517h148l90 -316l90 316h141l90 -317l89 317h149zM298 743q32 0 55 -22.5t23 -54.5t-23 -55t-55 -23q-33 0 -56 23t-23 55t23 54.5t56 22.5zM517 743q33 0 55.5 -22.5t22.5 -54.5t-22.5 -55t-55.5 -23t-55.5 23 t-22.5 55t22.5 54.5t55.5 22.5z" />
<glyph unicode="&#x1ef2;" horiz-adv-x="669" d="M411 0h-153v267l-248 437h166l159 -291l159 291h165l-248 -437v-267zM165 941h134l94 -170h-119z" />
<glyph unicode="&#x1ef3;" horiz-adv-x="550" d="M390 517h156l-272 -708h-155l78 205l-193 503h157l114 -333zM102 756h134l94 -170h-119z" />
<glyph unicode="&#x2000;" horiz-adv-x="500" />
<glyph unicode="&#x2001;" horiz-adv-x="1000" />
<glyph unicode="&#x2002;" horiz-adv-x="516" />
<glyph unicode="&#x2003;" horiz-adv-x="1000" />
<glyph unicode="&#x2004;" horiz-adv-x="316" />
<glyph unicode="&#x2005;" horiz-adv-x="250" />
<glyph unicode="&#x2006;" horiz-adv-x="146" />
<glyph unicode="&#x2007;" horiz-adv-x="596" />
<glyph unicode="&#x2008;" horiz-adv-x="295" />
<glyph unicode="&#x2009;" horiz-adv-x="186" />
<glyph unicode="&#x200a;" horiz-adv-x="46" />
<glyph unicode="&#x200b;" horiz-adv-x="0" />
<glyph unicode="&#x2010;" horiz-adv-x="443" d="M59 207v132h325v-132h-325z" />
<glyph unicode="&#x2011;" horiz-adv-x="443" d="M59 207v132h325v-132h-325z" />
<glyph unicode="&#x2012;" horiz-adv-x="443" d="M59 207v132h325v-132h-325z" />
<glyph unicode="&#x2013;" horiz-adv-x="500" d="M0 207v132h500v-132h-500z" />
<glyph unicode="&#x2014;" horiz-adv-x="1000" d="M0 207v132h1000v-132h-1000z" />
<glyph unicode="&#x2018;" horiz-adv-x="295" d="M59 481q0 29 12 60l63 163h106l-57 -150q53 -22 53 -77q0 -36 -24.5 -59.5t-62.5 -23.5t-64 25t-26 62z" />
<glyph unicode="&#x2019;" horiz-adv-x="295" d="M236 617q0 -29 -12 -60l-63 -163h-106l57 150q-53 22 -53 77q0 36 24.5 59.5t62.5 23.5t64 -25t26 -62z" />
<glyph unicode="&#x201a;" horiz-adv-x="295" d="M236 72q0 -29 -12 -60l-63 -163h-106l57 150q-53 22 -53 77q0 36 24.5 59.5t62.5 23.5t64 -25t26 -62z" />
<glyph unicode="&#x201c;" horiz-adv-x="521" d="M285 481q0 29 12 60l63 163h106l-57 -150q53 -22 53 -77q0 -36 -24.5 -59.5t-62.5 -23.5t-64 25t-26 62zM60 481q0 29 12 60l63 163h106l-57 -150q53 -22 53 -77q0 -36 -24.5 -59.5t-62.5 -23.5t-64 25t-26 62z" />
<glyph unicode="&#x201d;" horiz-adv-x="521" d="M236 617q0 -29 -12 -60l-63 -163h-106l57 150q-53 22 -53 77q0 36 24.5 59.5t62.5 23.5t64 -25t26 -62zM461 617q0 -29 -12 -60l-63 -163h-106l57 150q-53 22 -53 77q0 36 24.5 59.5t62.5 23.5t64 -25t26 -62z" />
<glyph unicode="&#x201e;" horiz-adv-x="521" d="M236 72q0 -29 -12 -60l-63 -163h-106l57 150q-53 22 -53 77q0 36 24.5 59.5t62.5 23.5t64 -25t26 -62zM461 72q0 -29 -12 -60l-63 -163h-106l57 150q-53 22 -53 77q0 36 24.5 59.5t62.5 23.5t64 -25t26 -62z" />
<glyph unicode="&#x2020;" horiz-adv-x="486" d="M443 473h-140v-282h-121v282h-139v120h139v162h121v-162h140v-120z" />
<glyph unicode="&#x2021;" horiz-adv-x="486" d="M443 183h-140v-162h-121v162h-139v120h139v170h-139v120h139v162h121v-162h140v-120h-140v-170h140v-120z" />
<glyph unicode="&#x2022;" horiz-adv-x="458" d="M229 440q72 0 122.5 -50t50.5 -123q0 -72 -50.5 -122t-122.5 -50t-122.5 50t-50.5 122t50.5 122.5t122.5 50.5z" />
<glyph unicode="&#x2026;" horiz-adv-x="851" d="M426 162q37 0 62 -25t25 -62t-25 -62t-62 -25q-38 0 -63.5 25t-25.5 62t25.5 62t63.5 25zM148 162q37 0 62 -25t25 -62t-25 -62t-62 -25q-38 0 -63.5 25t-25.5 62t25.5 62t63.5 25zM705 162q37 0 62 -25t25 -62t-25 -62t-62 -25q-38 0 -63.5 25t-25.5 62t25.5 62t63.5 25 z" />
<glyph unicode="&#x202f;" horiz-adv-x="198" />
<glyph unicode="&#x2030;" horiz-adv-x="1368" d="M158 0l499 704h136l-500 -704h-135zM219 612q-31 0 -49 -24t-18 -61t18 -61t49 -24t48.5 24t17.5 61t-17.5 61t-48.5 24zM33 527q0 83 52.5 136t133.5 53t133.5 -53t52.5 -136t-52.5 -136.5t-133.5 -53.5t-133.5 53.5t-52.5 136.5zM732 262q-31 0 -49 -24t-18 -61t18 -61 t49 -24t49 24t18 61t-18 61t-49 24zM546 177q0 83 52.5 136.5t133.5 53.5t133.5 -53.5t52.5 -136.5t-52.5 -136t-133.5 -53t-133.5 53t-52.5 136zM1149 262q-31 0 -49 -24t-18 -61t18 -61t49 -24t49 24t18 61t-18 61t-49 24zM963 177q0 83 52.5 136.5t133.5 53.5 t133.5 -53.5t52.5 -136.5t-52.5 -136t-133.5 -53t-133.5 53t-52.5 136z" />
<glyph unicode="&#x2039;" horiz-adv-x="421" d="M204 263l170 -215h-153l-175 215l175 216h153z" />
<glyph unicode="&#x203a;" horiz-adv-x="421" d="M217 263l-171 216h154l174 -216l-174 -215h-154z" />
<glyph unicode="&#x2044;" horiz-adv-x="308" d="M-163 0l499 704h135l-499 -704h-135z" />
<glyph unicode="&#x205f;" horiz-adv-x="248" />
<glyph unicode="&#x2070;" horiz-adv-x="444" d="M222 780q84 0 136.5 -63t52.5 -164t-52 -164.5t-137 -63.5t-137.5 63.5t-52.5 164.5t52.5 164t137.5 63zM222 425q35 0 53 36t18 92t-17.5 91.5t-53.5 35.5t-53.5 -35.5t-17.5 -91.5t17.5 -92t53.5 -36z" />
<glyph unicode="&#x2074;" horiz-adv-x="433" d="M407 506v-93h-58v-79h-112v79h-211v93l173 266h150v-266h58zM137 506h100v151z" />
<glyph unicode="&#x2075;" horiz-adv-x="421" d="M245 623q60 0 102.5 -37t42.5 -104q0 -72 -51 -114.5t-125 -42.5q-71 0 -120.5 37.5t-55.5 95.5h114q4 -13 20.5 -24t40.5 -11q25 0 42 16t17 40t-17.5 39t-41.5 15q-40 0 -58 -28h-114l21 267h300v-99h-203l-8 -86q36 36 94 36z" />
<glyph unicode="&#x2076;" horiz-adv-x="430" d="M254 622q59 0 103.5 -38t44.5 -100q0 -67 -48 -113t-125 -46q-92 0 -144.5 62t-52.5 163q0 110 54 170t140 60q68 0 114 -37t53 -91h-111q-6 12 -20.5 21.5t-34.5 9.5q-75 0 -82 -109q35 48 109 48zM224 423q25 0 42.5 16t17.5 38q0 24 -17.5 39.5t-42.5 15.5 t-43.5 -15.5t-18.5 -39.5q0 -22 18 -38t44 -16z" />
<glyph unicode="&#x2077;" horiz-adv-x="376" d="M21 772h329v-90l-164 -348h-125l163 339h-203v99z" />
<glyph unicode="&#x2078;" horiz-adv-x="429" d="M32 457q0 37 23 65t56 40q-66 27 -66 94q0 51 47 87.5t123 36.5t123 -36.5t47 -87.5q0 -66 -67 -94q34 -12 56.5 -39.5t22.5 -65.5q0 -56 -51.5 -94t-130.5 -38q-80 0 -131.5 38t-51.5 94zM271 643q0 19 -15.5 31.5t-40.5 12.5t-41 -12.5t-16 -31.5q0 -18 16.5 -30.5 t40.5 -12.5q23 0 39.5 12.5t16.5 30.5zM278 467q0 21 -17.5 35t-45.5 14t-46 -14t-18 -35t18 -34t46 -13t45.5 13t17.5 34z" />
<glyph unicode="&#x2079;" horiz-adv-x="430" d="M176 484q-59 0 -103.5 37.5t-44.5 100.5q0 67 48.5 112.5t124.5 45.5q91 0 144 -62t53 -163q0 -110 -54 -170t-140 -60q-68 0 -114 37t-53 91h111q14 -30 55 -30q75 0 82 108q-37 -47 -109 -47zM206 682q-25 0 -42.5 -16t-17.5 -38q0 -24 17 -39.5t43 -15.5 q25 0 43.5 15.5t18.5 39.5q0 22 -18 38t-44 16z" />
<glyph unicode="&#x207a;" horiz-adv-x="414" d="M157 712h100v-111h108v-96h-108v-112h-100v112h-109v96h109v111z" />
<glyph unicode="&#x207c;" horiz-adv-x="414" d="M50 584v95h313v-95h-313zM50 427v95h313v-95h-313z" />
<glyph unicode="&#x207d;" horiz-adv-x="262" d="M245 825q-86 -122 -86 -272q0 -152 86 -273h-108q-39 48 -66 119.5t-27 153.5q0 81 27.5 153t65.5 119h108z" />
<glyph unicode="&#x207e;" horiz-adv-x="262" d="M17 825h109q38 -48 65 -119t27 -153q0 -155 -92 -273h-109q87 120 87 273t-87 272z" />
<glyph unicode="&#x2080;" horiz-adv-x="444" d="M222 318q84 0 136.5 -63t52.5 -164t-52 -164.5t-137 -63.5t-137.5 63.5t-52.5 164.5t52.5 164t137.5 63zM222 -37q35 0 53 36t18 92t-17.5 91.5t-53.5 35.5t-53.5 -35.5t-17.5 -91.5t17.5 -92t53.5 -36z" />
<glyph unicode="&#x2081;" horiz-adv-x="305" d="M239 310v-438h-116v315l-95 -59v113l103 69h108z" />
<glyph unicode="&#x2082;" horiz-adv-x="411" d="M198 -29h181v-99h-339v93l170 147q45 39 45 65q0 18 -14.5 30t-37.5 12q-47 0 -56 -41h-112q5 61 51 100.5t120 39.5q76 0 121 -39t45 -97q0 -42 -20 -71.5t-58 -60.5z" />
<glyph unicode="&#x2083;" horiz-adv-x="417" d="M34 184q6 61 55.5 97.5t117.5 36.5q72 0 117.5 -34.5t45.5 -86.5q0 -67 -65 -95q32 -9 57 -36.5t25 -68.5q0 -58 -50 -96t-127 -38q-74 0 -125 38.5t-55 102.5h112q5 -19 23.5 -31t44.5 -12q25 0 42 12t17 33q0 41 -62 41h-50v95h39q27 0 42.5 11t15.5 29 q0 17 -14.5 27.5t-37.5 10.5q-22 0 -37.5 -10.5t-17.5 -25.5h-113z" />
<glyph unicode="&#x2084;" horiz-adv-x="433" d="M407 44v-93h-58v-79h-112v79h-211v93l173 266h150v-266h58zM137 44h100v151z" />
<glyph unicode="&#x2085;" horiz-adv-x="421" d="M245 161q60 0 102.5 -37t42.5 -104q0 -72 -51 -114.5t-125 -42.5q-71 0 -120.5 37.5t-55.5 95.5h114q4 -13 20.5 -24t40.5 -11q25 0 42 16t17 40t-17.5 39t-41.5 15q-40 0 -58 -28h-114l21 267h300v-99h-203l-8 -86q36 36 94 36z" />
<glyph unicode="&#x2086;" horiz-adv-x="430" d="M254 160q59 0 103.5 -38t44.5 -100q0 -67 -48 -113t-125 -46q-92 0 -144.5 62t-52.5 163q0 110 54 170t140 60q68 0 114 -37t53 -91h-111q-6 12 -20.5 21.5t-34.5 9.5q-75 0 -82 -109q35 48 109 48zM224 -39q25 0 42.5 16t17.5 38q0 24 -17.5 39.5t-42.5 15.5 t-43.5 -15.5t-18.5 -39.5q0 -22 18 -38t44 -16z" />
<glyph unicode="&#x2087;" horiz-adv-x="376" d="M21 310h329v-90l-164 -348h-125l163 339h-203v99z" />
<glyph unicode="&#x2088;" horiz-adv-x="429" d="M32 -5q0 37 23 65t56 40q-66 27 -66 94q0 51 47 87.5t123 36.5t123 -36.5t47 -87.5q0 -66 -67 -94q34 -12 56.5 -39.5t22.5 -65.5q0 -56 -51.5 -94t-130.5 -38q-80 0 -131.5 38t-51.5 94zM271 181q0 19 -15.5 31.5t-40.5 12.5t-41 -12.5t-16 -31.5q0 -18 16.5 -30.5 t40.5 -12.5q23 0 39.5 12.5t16.5 30.5zM278 5q0 21 -17.5 35t-45.5 14t-46 -14t-18 -35t18 -34t46 -13t45.5 13t17.5 34z" />
<glyph unicode="&#x2089;" horiz-adv-x="430" d="M176 22q-59 0 -103.5 37.5t-44.5 100.5q0 67 48.5 112.5t124.5 45.5q91 0 144 -62t53 -163q0 -110 -54 -170t-140 -60q-68 0 -114 37t-53 91h111q14 -30 55 -30q75 0 82 108q-37 -47 -109 -47zM206 220q-25 0 -42.5 -16t-17.5 -38q0 -24 17 -39.5t43 -15.5 q25 0 43.5 15.5t18.5 39.5q0 22 -18 38t-44 16z" />
<glyph unicode="&#x208a;" horiz-adv-x="414" d="M157 250h100v-111h108v-96h-108v-112h-100v112h-109v96h109v111z" />
<glyph unicode="&#x208c;" horiz-adv-x="414" d="M50 122v95h313v-95h-313zM50 -35v95h313v-95h-313z" />
<glyph unicode="&#x208d;" horiz-adv-x="262" d="M245 363q-86 -122 -86 -272q0 -152 86 -273h-108q-39 48 -66 119.5t-27 153.5q0 81 27.5 153t65.5 119h108z" />
<glyph unicode="&#x208e;" horiz-adv-x="262" d="M17 363h109q38 -48 65 -119t27 -153q0 -155 -92 -273h-109q87 120 87 273t-87 272z" />
<glyph unicode="&#x20ac;" horiz-adv-x="683" d="M512 198h143q-13 -83 -81 -146.5t-175 -63.5q-102 0 -174 63t-98 174h-101v97h88q-1 10 -1 30t1 31h-88v96h101q27 109 97.5 173t174.5 64t172 -61t81 -148h-141q-28 81 -112 81q-92 0 -123 -110h192l-16 -95h-190q-1 -10 -1 -31v-30h183l-15 -95h-153q32 -111 123 -111 q44 0 73 24t40 58z" />
<glyph unicode="&#x20b4;" horiz-adv-x="683" d="M38 227v97h607v-97h-376q-22 -19 -22 -49q0 -31 26.5 -50t69.5 -19q45 0 73.5 17.5t38.5 44.5h143q-13 -85 -81 -134t-175 -49t-174 51t-67 127q0 35 16 61h-79zM38 381v97h370q27 20 27 51q0 29 -24.5 47t-65.5 18q-80 0 -102 -62h-141q15 81 82 132.5t167 51.5 q104 0 167.5 -50.5t63.5 -123.5q0 -36 -20 -64h83v-97h-607z" />
<glyph unicode="&#x20b8;" horiz-adv-x="611" d="M41 397v129h529v-129h-190v-397h-149v397h-190zM41 594v110h529v-110h-529z" />
<glyph unicode="&#x20bd;" horiz-adv-x="651" d="M27 106v99h96v69h-96v110h96v320h255q109 0 173 -59.5t64 -156.5q0 -96 -62.5 -155t-167.5 -59h-115v-69h198v-99h-198v-106h-147v106h-96zM360 582h-90v-193h90q50 0 78 26.5t28 70.5t-27.5 70t-78.5 26z" />
<glyph unicode="&#x20bf;" horiz-adv-x="619" d="M74 17v670h103v100h91v-100h65v100h92v-111q63 -18 97 -62t34 -102q0 -54 -25.5 -91t-61.5 -53q45 -13 78.5 -53.5t33.5 -105.5q0 -69 -41.5 -118.5t-114.5 -66.5v-113h-92v106h-65v-106h-91v106h-103zM337 302h-117v-164h116q45 0 71.5 21.5t26.5 59.5q0 39 -26 61 t-71 22zM321 566h-101v-150h105q41 0 63 21t22 54q0 35 -23 55t-66 20z" />
<glyph unicode="&#x2122;" horiz-adv-x="1048" d="M481 704h151l106 -272l105 272h150v-438h-111v273l-105 -269h-79l-105 267v-271h-112v438zM26 597v107h382v-107h-130v-331h-122v331h-130z" />
<glyph unicode="&#x2202;" horiz-adv-x="603" d="M319 727q22 -12 48 -31.5t61.5 -58t63.5 -84.5t47.5 -113.5t19.5 -142.5q0 -143 -68.5 -226t-195.5 -83q-117 0 -188.5 73.5t-71.5 187.5q0 113 65.5 183t167.5 70q72 0 117 -40q-48 136 -242 265h176zM296 110q55 0 85.5 39.5t30.5 101.5q-2 59 -32 96t-84 37 t-84.5 -37.5t-30.5 -97.5q0 -59 30.5 -99t84.5 -40z" />
<glyph unicode="&#x220f;" horiz-adv-x="708" d="M74 704h560v-844h-153v708h-254v-708h-153v844z" />
<glyph unicode="&#x2211;" horiz-adv-x="602" d="M542 704v-133h-302l198 -288l-199 -290h303v-133h-482v120l206 302l-206 302v120h482z" />
<glyph unicode="&#x221a;" horiz-adv-x="781" d="M576 727h140l-245 -842h-156l-134 326h-122v123h222l107 -259z" />
<glyph unicode="&#x221e;" horiz-adv-x="917" d="M668 494q98 0 158 -61.5t60 -151.5t-60 -151.5t-158 -61.5q-114 0 -211 117q-96 -117 -208 -117q-98 0 -158 61.5t-60 151.5t60 151.5t158 61.5q112 0 210 -119q96 119 209 119zM256 193q36 0 65 22.5t61 64.5q-32 43 -61 66t-65 23q-40 0 -65 -25t-25 -63t25 -63t65 -25 zM661 193q40 0 65 25t25 63t-25 63t-65 25q-35 0 -64.5 -23t-61.5 -65q32 -42 61 -65t65 -23z" />
<glyph unicode="&#x222b;" horiz-adv-x="523" d="M490 704v-123h-33q-71 0 -85 -79l-78 -475q-16 -95 -66.5 -140t-147.5 -45h-47v123h32q73 0 85 79l79 475q15 95 66 140t148 45h47z" />
<glyph unicode="&#x2248;" d="M459 478h110v-23q0 -77 -44 -121t-107 -44q-39 0 -75.5 18t-64.5 36.5t-47 18.5q-20 0 -33.5 -14.5t-13.5 -36.5v-13h-111v24q0 76 44 120t108 44q39 0 75.5 -18.5t64.5 -36.5t47 -18q20 0 33.5 14.5t13.5 36.5v13zM459 247h110v-24q0 -77 -43.5 -120.5t-107.5 -43.5 q-39 0 -75.5 18t-64.5 36t-47 18q-20 0 -33.5 -14.5t-13.5 -36.5v-13h-111v24q0 76 44 120t108 44q39 0 75.5 -18.5t64.5 -36.5t47 -18q20 0 33.5 14.5t13.5 36.5v14z" />
<glyph unicode="&#x2260;" d="M370 538h125l-38 -91h105v-120h-156l-45 -109h201v-121h-252l-38 -90h-124l37 90h-105v121h156l45 109h-201v120h252z" />
<glyph unicode="&#x2264;" d="M567 550v-120l-325 -111l325 -119v-198h-492v115h398l-398 144v123z" />
<glyph unicode="&#x2265;" d="M568 384v-123l-398 -144h398v-115h-493v198l324 119l-324 111v120z" />
<glyph unicode="&#x2460;" horiz-adv-x="974" d="M487 10q139 0 233.5 94t94.5 239t-94.5 239.5t-233.5 94.5t-233.5 -94t-94.5 -239q0 -146 94.5 -240t233.5 -94zM487 -104q-187 0 -316 127.5t-129 319.5q0 193 129 320.5t316 127.5t316 -127.5t129 -319.5q0 -193 -129 -320.5t-316 -127.5zM561 563v-438h-116v315 l-95 -59v113l103 69h108z" />
<glyph unicode="&#x2461;" horiz-adv-x="974" d="M487 10q139 0 233.5 94t94.5 239t-94.5 239.5t-233.5 94.5t-233.5 -94t-94.5 -239q0 -146 94.5 -240t233.5 -94zM487 -104q-187 0 -316 127.5t-129 319.5q0 193 129 320.5t316 127.5t316 -127.5t129 -319.5q0 -193 -129 -320.5t-316 -127.5zM478 224h181v-99h-339v93 l170 147q45 39 45 65q0 18 -14.5 30t-37.5 12q-47 0 -56 -41h-112q5 61 51 100.5t120 39.5q76 0 121 -39t45 -97q0 -42 -20 -71.5t-58 -60.5z" />
<glyph unicode="&#x2462;" horiz-adv-x="974" d="M487 10q139 0 233.5 94t94.5 239t-94.5 239.5t-233.5 94.5t-233.5 -94t-94.5 -239q0 -146 94.5 -240t233.5 -94zM487 -104q-187 0 -316 127.5t-129 319.5q0 193 129 320.5t316 127.5t316 -127.5t129 -319.5q0 -193 -129 -320.5t-316 -127.5zM313 437q6 61 55.5 97.5 t117.5 36.5q72 0 117.5 -34.5t45.5 -86.5q0 -67 -65 -95q32 -9 57 -36.5t25 -68.5q0 -58 -50 -96t-127 -38q-74 0 -125 38.5t-55 102.5h112q5 -19 23.5 -31t44.5 -12q25 0 42 12t17 33q0 41 -62 41h-50v95h39q27 0 42.5 11t15.5 29q0 17 -14.5 27.5t-37.5 10.5 q-22 0 -37.5 -10.5t-17.5 -25.5h-113z" />
<glyph unicode="&#x2463;" horiz-adv-x="974" d="M487 10q139 0 233.5 94t94.5 239t-94.5 239.5t-233.5 94.5t-233.5 -94t-94.5 -239q0 -146 94.5 -240t233.5 -94zM487 -104q-187 0 -316 127.5t-129 319.5q0 193 129 320.5t316 127.5t316 -127.5t129 -319.5q0 -193 -129 -320.5t-316 -127.5zM667 297v-93h-58v-79h-112v79 h-211v93l173 266h150v-266h58zM397 297h100v151z" />
<glyph unicode="&#x2464;" horiz-adv-x="974" d="M487 10q139 0 233.5 94t94.5 239t-94.5 239.5t-233.5 94.5t-233.5 -94t-94.5 -239q0 -146 94.5 -240t233.5 -94zM487 -104q-187 0 -316 127.5t-129 319.5q0 193 129 320.5t316 127.5t316 -127.5t129 -319.5q0 -193 -129 -320.5t-316 -127.5zM518 414q60 0 102.5 -37 t42.5 -104q0 -72 -51 -114.5t-125 -42.5q-71 0 -120.5 37.5t-55.5 95.5h114q4 -13 20.5 -24t40.5 -11q25 0 42 16t17 40t-17.5 39t-41.5 15q-40 0 -58 -28h-114l21 267h300v-99h-203l-8 -86q36 36 94 36z" />
<glyph unicode="&#x2465;" horiz-adv-x="974" d="M487 10q139 0 233.5 94t94.5 239t-94.5 239.5t-233.5 94.5t-233.5 -94t-94.5 -239q0 -146 94.5 -240t233.5 -94zM487 -104q-187 0 -316 127.5t-129 319.5q0 193 129 320.5t316 127.5t316 -127.5t129 -319.5q0 -193 -129 -320.5t-316 -127.5zM517 413q59 0 103.5 -38 t44.5 -100q0 -67 -48 -113t-125 -46q-92 0 -144.5 62t-52.5 163q0 110 54 170t140 60q68 0 114 -37t53 -91h-111q-6 12 -20.5 21.5t-34.5 9.5q-75 0 -82 -109q35 48 109 48zM487 214q25 0 42.5 16t17.5 38q0 24 -17.5 39.5t-42.5 15.5t-43.5 -15.5t-18.5 -39.5q0 -22 18 -38 t44 -16z" />
<glyph unicode="&#x2466;" horiz-adv-x="974" d="M487 10q139 0 233.5 94t94.5 239t-94.5 239.5t-233.5 94.5t-233.5 -94t-94.5 -239q0 -146 94.5 -240t233.5 -94zM487 -104q-187 0 -316 127.5t-129 319.5q0 193 129 320.5t316 127.5t316 -127.5t129 -319.5q0 -193 -129 -320.5t-316 -127.5zM323 564h329v-90l-164 -348 h-125l163 339h-203v99z" />
<glyph unicode="&#x2467;" horiz-adv-x="974" d="M487 10q139 0 233.5 94t94.5 239t-94.5 239.5t-233.5 94.5t-233.5 -94t-94.5 -239q0 -146 94.5 -240t233.5 -94zM487 -104q-187 0 -316 127.5t-129 319.5q0 193 129 320.5t316 127.5t316 -127.5t129 -319.5q0 -193 -129 -320.5t-316 -127.5zM304 248q0 37 23 65t56 40 q-66 27 -66 94q0 51 47 87.5t123 36.5t123 -36.5t47 -87.5q0 -66 -67 -94q34 -12 56.5 -39.5t22.5 -65.5q0 -56 -51.5 -94t-130.5 -38q-80 0 -131.5 38t-51.5 94zM543 434q0 19 -15.5 31.5t-40.5 12.5t-41 -12.5t-16 -31.5q0 -18 16.5 -30.5t40.5 -12.5q23 0 39.5 12.5 t16.5 30.5zM550 258q0 21 -17.5 35t-45.5 14t-46 -14t-18 -35t18 -34t46 -13t45.5 13t17.5 34z" />
<glyph unicode="&#x2468;" horiz-adv-x="974" d="M487 10q139 0 233.5 94t94.5 239t-94.5 239.5t-233.5 94.5t-233.5 -94t-94.5 -239q0 -146 94.5 -240t233.5 -94zM487 -104q-187 0 -316 127.5t-129 319.5q0 193 129 320.5t316 127.5t316 -127.5t129 -319.5q0 -193 -129 -320.5t-316 -127.5zM457 276q-59 0 -103.5 37.5 t-44.5 100.5q0 67 48.5 112.5t124.5 45.5q91 0 144 -62t53 -163q0 -110 -54 -170t-140 -60q-68 0 -114 37t-53 91h111q14 -30 55 -30q75 0 82 108q-37 -47 -109 -47zM487 474q-25 0 -42.5 -16t-17.5 -38q0 -24 17 -39.5t43 -15.5q25 0 43.5 15.5t18.5 39.5q0 22 -18 38 t-44 16z" />
<glyph unicode="&#x24ea;" horiz-adv-x="974" d="M487 10q139 0 233.5 94t94.5 239t-94.5 239.5t-233.5 94.5t-233.5 -94t-94.5 -239q0 -146 94.5 -240t233.5 -94zM487 -104q-187 0 -316 127.5t-129 319.5q0 193 129 320.5t316 127.5t316 -127.5t129 -319.5q0 -193 -129 -320.5t-316 -127.5zM487 571q84 0 136.5 -63 t52.5 -164t-52 -164.5t-137 -63.5t-137.5 63.5t-52.5 164.5t52.5 164t137.5 63zM487 216q35 0 53 36t18 92t-17.5 91.5t-53.5 35.5t-53.5 -35.5t-17.5 -91.5t17.5 -92t53.5 -36z" />
<glyph unicode="&#x25ca;" horiz-adv-x="615" d="M383 704l190 -352l-190 -352h-151l-190 352l190 352h151zM420 352l-113 212l-112 -212l112 -213z" />
<glyph unicode="&#x25fc;" horiz-adv-x="515" d="M0 515h515v-515h-515v515z" />
<glyph horiz-adv-x="272" d="M209 517v-517h-146v517h146zM135 749q35 0 59.5 -24t24.5 -58q0 -35 -24.5 -59t-59.5 -24t-59 24t-24 59t24 58.5t59 23.5z" />
<glyph horiz-adv-x="613" d="M259 -12q-96 0 -160 72.5t-64 197.5t65 198t163 73q52 0 90.5 -20t56.5 -53v61h140v-517h-140v61q-47 -73 -151 -73zM294 403q-51 0 -82 -39.5t-31 -105.5q0 -65 31 -104.5t82 -39.5t82 39t31 103v4q0 66 -31 104.5t-82 38.5z" />
<glyph horiz-adv-x="613" d="M259 -12q-96 0 -160 72.5t-64 197.5t65 198t163 73q52 0 90.5 -20t56.5 -53v61h140v-517h-140v61q-47 -73 -151 -73zM294 403q-51 0 -82 -39.5t-31 -105.5q0 -65 31 -104.5t82 -39.5t82 39t31 103v4q0 66 -31 104.5t-82 38.5zM472 756l-109 -170h-119l94 170h134z" />
<glyph horiz-adv-x="613" d="M259 -12q-96 0 -160 72.5t-64 197.5t65 198t163 73q52 0 90.5 -20t56.5 -53v61h140v-517h-140v61q-47 -73 -151 -73zM294 403q-51 0 -82 -39.5t-31 -105.5q0 -65 31 -104.5t82 -39.5t82 39t31 103v4q0 66 -31 104.5t-82 38.5zM228 753q0 -33 18.5 -55.5t52.5 -22.5 t52.5 22.5t18.5 55.5h109q-1 -79 -49 -126t-131 -47t-131 47t-49 126h109z" />
<glyph horiz-adv-x="613" d="M259 -12q-96 0 -160 72.5t-64 197.5t65 198t163 73q52 0 90.5 -20t56.5 -53v61h140v-517h-140v61q-47 -73 -151 -73zM294 403q-51 0 -82 -39.5t-31 -105.5q0 -65 31 -104.5t82 -39.5t82 39t31 103v4q0 66 -31 104.5t-82 38.5zM227 756l72 -84l73 84h125l-138 -170h-120 l-138 170h126z" />
<glyph horiz-adv-x="613" d="M259 -12q-96 0 -160 72.5t-64 197.5t65 198t163 73q52 0 90.5 -20t56.5 -53v61h140v-517h-140v61q-47 -73 -151 -73zM294 403q-51 0 -82 -39.5t-31 -105.5q0 -65 31 -104.5t82 -39.5t82 39t31 103v4q0 66 -31 104.5t-82 38.5zM227 586h-126l138 170h120l138 -170h-125 l-73 84z" />
<glyph horiz-adv-x="613" d="M259 -12q-96 0 -160 72.5t-64 197.5t65 198t163 73q52 0 90.5 -20t56.5 -53v61h140v-517h-140v61q-47 -73 -151 -73zM294 403q-51 0 -82 -39.5t-31 -105.5q0 -65 31 -104.5t82 -39.5t82 39t31 103v4q0 66 -31 104.5t-82 38.5zM190 743q32 0 55 -22.5t23 -54.5t-23 -55 t-55 -23q-33 0 -56 23t-23 55t23 54.5t56 22.5zM409 743q33 0 55.5 -22.5t22.5 -54.5t-22.5 -55t-55.5 -23t-55.5 23t-22.5 55t22.5 54.5t55.5 22.5z" />
<glyph horiz-adv-x="613" d="M259 -12q-96 0 -160 72.5t-64 197.5t65 198t163 73q52 0 90.5 -20t56.5 -53v61h140v-517h-140v61q-47 -73 -151 -73zM294 403q-51 0 -82 -39.5t-31 -105.5q0 -65 31 -104.5t82 -39.5t82 39t31 103v4q0 66 -31 104.5t-82 38.5zM126 756h134l94 -170h-119z" />
<glyph horiz-adv-x="613" d="M259 -12q-96 0 -160 72.5t-64 197.5t65 198t163 73q52 0 90.5 -20t56.5 -53v61h140v-517h-140v61q-47 -73 -151 -73zM294 403q-51 0 -82 -39.5t-31 -105.5q0 -65 31 -104.5t82 -39.5t82 39t31 103v4q0 66 -31 104.5t-82 38.5zM138 717h322v-103h-322v103z" />
<glyph horiz-adv-x="613" d="M259 -12q-96 0 -160 72.5t-64 197.5t65 198t163 73q52 0 90.5 -20t56.5 -53v61h140v-517q-74 -53 -74 -98q0 -46 52 -46h39v-96h-68q-72 0 -110 30t-38 80q0 73 79 130h-20v61q-47 -73 -151 -73zM294 403q-51 0 -82 -39.5t-31 -105.5q0 -65 31 -104.5t82 -39.5t82 39 t31 103v4q0 66 -31 104.5t-82 38.5z" />
<glyph horiz-adv-x="613" d="M259 -12q-96 0 -160 72.5t-64 197.5t65 198t163 73q52 0 90.5 -20t56.5 -53v61h140v-517h-140v61q-47 -73 -151 -73zM294 403q-51 0 -82 -39.5t-31 -105.5q0 -65 31 -104.5t82 -39.5t82 39t31 103v4q0 66 -31 104.5t-82 38.5zM421 691q0 -50 -35 -83.5t-87 -33.5 t-87 33.5t-35 83.5q0 51 34.5 84t87.5 33t87.5 -33t34.5 -84zM256 691q0 -19 12.5 -31t30.5 -12t30.5 12t12.5 31t-12.5 31t-30.5 12t-30.5 -12t-12.5 -31z" />
<glyph horiz-adv-x="613" d="M259 -12q-96 0 -160 72.5t-64 197.5t65 198t163 73q52 0 90.5 -20t56.5 -53v61h140v-517h-140v61q-47 -73 -151 -73zM294 403q-51 0 -82 -39.5t-31 -105.5q0 -65 31 -104.5t82 -39.5t82 39t31 103v4q0 66 -31 104.5t-82 38.5zM392 743h90v-22q0 -66 -31 -101.5t-84 -35.5 q-38 0 -78 29.5t-52 29.5q-31 0 -31 -38v-15h-90v22q0 66 30.5 102t83.5 36q29 0 54.5 -15t44.5 -29.5t31 -14.5q32 0 32 38v14z" />
<glyph horiz-adv-x="779" d="M756 136v-270h-146v134h-441v-134h-146v270h72l215 568h159l215 -568h72zM389 512l-136 -376h271z" />
<glyph horiz-adv-x="976" d="M414 0v317l-228 -317h-176l263 363l-257 341h172l226 -298v298h148v-297l226 297h172l-257 -337l263 -367h-175l-229 316v-316h-148z" />
<glyph horiz-adv-x="665" d="M227 0h-153v704h153v-290l246 290h179l-282 -338l288 -366h-186l-245 307v-307z" />
<glyph horiz-adv-x="690" d="M16 0l249 704h159l250 -704h-162l-168 507l-167 -507h-161z" />
<glyph horiz-adv-x="583" d="M423 390q51 -19 86.5 -64t35.5 -120q0 -93 -66.5 -155.5t-175.5 -62.5q-117 0 -180.5 63.5t-63.5 170.5v281q0 113 65.5 175t169.5 62q102 0 163 -57t61 -143q0 -58 -27 -95.5t-68 -54.5zM303 114q46 0 71 28.5t25 73.5q0 47 -29 75t-83 28h-86v-99q0 -49 28 -77.5 t74 -28.5zM201 507v-69h77q46 0 71.5 26t25.5 64t-22 62t-61 24q-43 0 -67 -27.5t-24 -79.5z" />
<glyph horiz-adv-x="518" d="M343 155h141q-7 -80 -72.5 -123.5t-158.5 -43.5q-97 0 -158 42.5t-61 122.5q0 124 157 153l91 17q54 10 54 45q0 22 -19.5 35t-51.5 13q-65 0 -80 -51h-142q11 75 70 119.5t149 44.5q95 0 155.5 -45.5t60.5 -121.5q0 -69 -40 -103t-116 -46l-89 -14q-57 -11 -57 -49 q0 -49 76 -49q36 0 60 14.5t31 39.5z" />
<glyph horiz-adv-x="612" d="M409 517h140v-480q0 -114 -68 -180.5t-187 -66.5q-108 0 -170.5 51t-69.5 122h143q19 -57 98 -57q52 0 80 34.5t28 97.5v35q-47 -65 -145 -65q-96 0 -159.5 70t-63.5 190q0 117 64.5 189t162.5 72q53 0 91 -20t56 -50v58zM294 131q51 0 81.5 38t30.5 97v4q0 59 -30 97.5 t-82 38.5q-51 0 -82 -39t-31 -99t30.5 -98.5t82.5 -38.5z" />
<glyph horiz-adv-x="799" d="M471 727v-422l155 212h162l-180 -244l182 -273h-165l-154 233v-233h-144v231l-153 -231h-165l182 269l-180 248h161l155 -211v421h144z" />
<glyph horiz-adv-x="557" d="M175 20q4 -45 32.5 -71.5t73.5 -26.5q44 0 69.5 26.5t25.5 69.5q0 46 -30 70.5t-88 24.5h-69v122h64q50 0 75 24.5t25 62.5q0 36 -22 58.5t-61 22.5q-40 0 -64 -23.5t-29 -64.5h-140q6 100 71.5 157t167.5 57q100 0 161 -55.5t61 -139.5q0 -104 -97 -149q51 -18 86.5 -61 t35.5 -113q0 -93 -66 -154t-176 -61q-108 0 -175.5 60.5t-71.5 163.5h141z" />
<glyph horiz-adv-x="597" d="M535 0h-140v60q-21 -31 -60 -51.5t-91 -20.5q-79 0 -132 49t-53 150v330h145v-298q0 -49 24.5 -74.5t65.5 -25.5q40 0 67.5 25.5t27.5 76.5v296h146v-517z" />
<glyph horiz-adv-x="597" d="M535 0h-140v60q-21 -31 -60 -51.5t-91 -20.5q-79 0 -132 49t-53 150v330h145v-298q0 -49 24.5 -74.5t65.5 -25.5q40 0 67.5 25.5t27.5 76.5v296h146v-517zM225 753q0 -33 18.5 -55.5t52.5 -22.5t52.5 22.5t18.5 55.5h109q-1 -79 -49 -126t-131 -47t-131 47t-49 126h109z " />
<glyph horiz-adv-x="597" d="M535 0h-140v60q-21 -31 -60 -51.5t-91 -20.5q-79 0 -132 49t-53 150v330h145v-298q0 -49 24.5 -74.5t65.5 -25.5q40 0 67.5 25.5t27.5 76.5v296h146v-517zM123 756h134l94 -170h-119z" />
<glyph horiz-adv-x="552" d="M209 0h-146v727h146v-415l169 205h165l-201 -243l205 -274h-170l-168 229v-229z" />
<glyph horiz-adv-x="563" d="M14 0l192 517h152l191 -517h-157l-111 339l-111 -339h-156z" />
<glyph horiz-adv-x="601" d="M209 0h-146v517h146v-189h183v189h146v-517h-146v202h-183v-202z" />
<glyph horiz-adv-x="597" d="M63 517h140v-61q20 31 59 52t91 21q80 0 133 -49.5t53 -149.5v-330h-146v298q0 49 -24 74.5t-65 25.5q-39 0 -67 -26t-28 -76v-296h-146v517z" />
<glyph horiz-adv-x="900" d="M660 529q75 0 128.5 -49t53.5 -147v-333h-146v303q0 48 -23 71.5t-60 23.5t-62.5 -25.5t-25.5 -70.5v-302h-146v303q0 48 -23 71.5t-60 23.5t-62 -25.5t-25 -70.5v-302h-146v517h140v-60q50 72 144 72q101 0 148 -80q59 80 165 80z" />
<glyph horiz-adv-x="571" d="M362 517h146v-517h-146v195q-50 -25 -116 -25q-86 0 -141.5 52.5t-55.5 155.5v139h145v-124q0 -98 96 -98q39 0 72 15v207z" />
<glyph horiz-adv-x="634" d="M564 122h44v-250h-137v128h-8q-62 0 -68 61q-20 -31 -59.5 -52t-91.5 -21q-79 0 -132 49t-53 150v330h145v-298q0 -49 24.5 -74.5t65.5 -25.5q40 0 67.5 25.5t27.5 76.5v296h146v-352q0 -25 5 -34t24 -9z" />
<glyph horiz-adv-x="900" d="M240 -12q-75 0 -128 49t-53 147v333h145v-303q0 -48 23.5 -71.5t60.5 -23.5t62 25.5t25 70.5v302h146v-303q0 -48 23 -71.5t60 -23.5t62.5 25.5t25.5 70.5v302h146v-517h-140v61q-51 -73 -145 -73q-45 0 -85 20t-64 59q-57 -79 -164 -79z" />
<glyph horiz-adv-x="937" d="M240 -12q-75 0 -128 49t-53 147v333h145v-303q0 -48 23.5 -71.5t60.5 -23.5t62 25.5t25 70.5v302h146v-303q0 -48 23 -71.5t60 -23.5t62.5 25.5t25.5 70.5v302h146v-352q0 -25 5 -34t24 -9h44v-250h-137v128h-8q-62 0 -68 62q-49 -74 -145 -74q-45 0 -85 20t-64 59 q-57 -79 -164 -79z" />
<glyph horiz-adv-x="535" d="M202 517v-147h91q98 0 153.5 -52.5t55.5 -136.5t-59 -138.5t-157 -54.5q-103 0 -165 54.5t-62 156.5v318h143zM276 253h-74v-61q0 -39 23.5 -60.5t58.5 -21.5q33 0 53.5 20t20.5 52t-21 51.5t-61 19.5z" />
<glyph horiz-adv-x="634" d="M302 517v-147h90q98 0 153.5 -52.5t55.5 -136.5t-59 -138.5t-157 -54.5q-103 0 -165 54.5t-62 156.5v195h-132v123h276zM375 253h-73v-61q0 -39 23.5 -60.5t57.5 -21.5t54.5 20t20.5 52t-21.5 51.5t-61.5 19.5z" />
<glyph horiz-adv-x="827" d="M209 0h-146v727h146v-399h75q20 92 87.5 146.5t163.5 54.5q114 0 185.5 -74.5t71.5 -196.5t-71 -196t-186 -74q-100 0 -168.5 58t-85.5 156h-72v-202zM535 114q52 0 81.5 40t29.5 104q0 65 -29.5 105t-81.5 40t-81.5 -40t-29.5 -105q0 -64 29.5 -104t81.5 -40z" />
<glyph horiz-adv-x="595" d="M250 610q-22 0 -35 -9.5t-13 -25.5q0 -21 20 -31.5t58 -18.5q95 -18 139 -39q141 -69 141 -234q0 -113 -71 -188.5t-192 -75.5t-191.5 73.5t-70.5 185.5q0 80 35.5 132.5t98.5 75.5q-106 43 -106 135q0 66 48 105t126 39h280v-124h-267zM297 110q55 0 86 40t31 102 q0 61 -32 99t-86 38q-53 0 -84 -38t-31 -99t31 -101.5t85 -40.5z" />
<glyph horiz-adv-x="613" d="M259 -12q-96 0 -160 72.5t-64 197.5t65 198t163 73q52 0 90.5 -20t56.5 -53v61h140v-517h-140v61q-47 -73 -151 -73zM294 403q-51 0 -82 -39.5t-31 -105.5q0 -65 31 -104.5t82 -39.5t82 39t31 103v4q0 66 -31 104.5t-82 38.5z" />
<glyph horiz-adv-x="613" d="M259 -12q-96 0 -160 72.5t-64 197.5t65 198t163 73q52 0 90.5 -20t56.5 -53v61h140v-517h-140v61q-47 -73 -151 -73zM294 403q-51 0 -82 -39.5t-31 -105.5q0 -65 31 -104.5t82 -39.5t82 39t31 103v4q0 66 -31 104.5t-82 38.5zM228 753q0 -33 18.5 -55.5t52.5 -22.5 t52.5 22.5t18.5 55.5h109q-1 -79 -49 -126t-131 -47t-131 47t-49 126h109z" />
<glyph horiz-adv-x="613" d="M259 -12q-96 0 -160 72.5t-64 197.5t65 198t163 73q52 0 90.5 -20t56.5 -53v61h140v-517h-140v61q-47 -73 -151 -73zM294 403q-51 0 -82 -39.5t-31 -105.5q0 -65 31 -104.5t82 -39.5t82 39t31 103v4q0 66 -31 104.5t-82 38.5zM190 743q32 0 55 -22.5t23 -54.5t-23 -55 t-55 -23q-33 0 -56 23t-23 55t23 54.5t56 22.5zM409 743q33 0 55.5 -22.5t22.5 -54.5t-22.5 -55t-55.5 -23t-55.5 23t-22.5 55t22.5 54.5t55.5 22.5z" />
<glyph d="M321 717q129 0 206.5 -100.5t77.5 -264.5q0 -163 -77.5 -263.5t-206.5 -100.5t-206.5 100.5t-77.5 263.5q0 164 77.5 264.5t206.5 100.5zM321 121q64 0 97.5 64t33.5 167t-33.5 167.5t-97.5 64.5t-97.5 -64t-33.5 -168q0 -103 33.5 -167t97.5 -64z" />
<glyph d="M452 705v-705h-152v540l-176 -101v150l190 116h138z" />
<glyph d="M418 498q0 38 -27.5 62.5t-71.5 24.5q-45 0 -73 -23t-36 -62h-147q8 96 78 156.5t182 60.5q114 0 181 -61t67 -153q0 -70 -33.5 -120.5t-93.5 -102.5l-170 -148h309v-132h-515v124l268 241q42 38 62 67t20 66z" />
<glyph d="M59 510q10 96 83.5 151.5t176.5 55.5q111 0 178.5 -55.5t67.5 -139.5q0 -58 -31 -96.5t-72 -54.5q50 -15 89 -57.5t39 -113.5q0 -93 -74 -152.5t-191 -59.5q-113 0 -189 57.5t-84 156.5h148q9 -37 42 -60t83 -23q49 0 81 24.5t32 66.5q0 43 -33 65t-86 22h-78v126h67 q49 0 77 23t28 60q0 36 -27 58t-72 22q-44 0 -72 -21t-35 -55h-148z" />
<glyph d="M516 0h-147v139h-335v124l291 442h191v-440h94v-126h-94v-139zM183 265h186v282z" />
<glyph d="M327 119q50 0 81.5 31.5t31.5 82.5q0 50 -32.5 81t-79.5 31q-74 0 -111 -58h-149l33 418h451v-132h-322l-17 -170q56 63 153 63q94 0 160.5 -61t66.5 -169q0 -114 -75 -181t-188 -67q-111 0 -184 58.5t-84 148.5h151q8 -30 38 -53t76 -23z" />
<glyph d="M372 464q92 0 160.5 -62.5t68.5 -164.5q0 -109 -73 -179t-187 -70q-139 0 -216.5 97t-77.5 261q0 181 80.5 276t211.5 95q103 0 171 -56t79 -138h-148q-8 26 -35 45t-67 19q-136 0 -146 -212q57 89 179 89zM336 119q48 0 80 31.5t32 80.5t-32.5 80.5t-81.5 31.5 q-47 0 -80 -31t-33 -81q0 -48 33 -80t82 -32z" />
<glyph d="M570 583l-271 -583h-165l271 573h-340v132h505v-122z" />
<glyph d="M48 196q0 66 37.5 110.5t89.5 60.5q-47 19 -77.5 58t-30.5 97q0 82 69.5 138.5t185.5 56.5q115 0 184.5 -56.5t69.5 -138.5q0 -59 -30.5 -97.5t-76.5 -57.5q50 -16 88 -60t38 -111q0 -91 -76 -149.5t-197 -58.5t-197.5 58.5t-76.5 149.5zM425 505q0 39 -28.5 63t-74.5 24 t-75 -24t-29 -63q0 -37 30 -62t74 -25q43 0 73 25t30 62zM440 208q0 43 -33 70t-85 27q-53 0 -86 -27t-33 -70q0 -42 33 -68.5t86 -26.5t85.5 27t32.5 68z" />
<glyph d="M271 241q-92 0 -160.5 62.5t-68.5 164.5q0 109 72.5 179t186.5 70q139 0 217 -97t78 -261q0 -182 -80.5 -276.5t-212.5 -94.5q-103 0 -171 56t-78 138h148q8 -26 34.5 -45t66.5 -19q138 0 146 213q-56 -90 -178 -90zM306 586q-48 0 -80 -31.5t-32 -80.5t32.5 -80.5 t81.5 -31.5q48 0 81 31t33 81q0 48 -33.5 80t-82.5 32z" />
<glyph horiz-adv-x="444" d="M222 446q84 0 136.5 -63t52.5 -164t-52 -164.5t-137 -63.5t-137.5 63.5t-52.5 164.5t52.5 164t137.5 63zM222 91q35 0 53 36t18 92t-17.5 91.5t-53.5 35.5t-53.5 -35.5t-17.5 -91.5t17.5 -92t53.5 -36z" />
<glyph horiz-adv-x="305" d="M239 438v-438h-116v315l-95 -59v113l103 69h108z" />
<glyph horiz-adv-x="411" d="M198 99h181v-99h-339v93l170 147q45 39 45 65q0 18 -14.5 30t-37.5 12q-47 0 -56 -41h-112q5 61 51 100.5t120 39.5q76 0 121 -39t45 -97q0 -42 -20 -71.5t-58 -60.5z" />
<glyph horiz-adv-x="417" d="M34 312q6 61 55.5 97.5t117.5 36.5q72 0 117.5 -34.5t45.5 -86.5q0 -67 -65 -95q32 -9 57 -36.5t25 -68.5q0 -58 -50 -96t-127 -38q-74 0 -125 38.5t-55 102.5h112q5 -19 23.5 -31t44.5 -12q25 0 42 12t17 33q0 41 -62 41h-50v95h39q27 0 42.5 11t15.5 29 q0 17 -14.5 27.5t-37.5 10.5q-22 0 -37.5 -10.5t-17.5 -25.5h-113z" />
<glyph horiz-adv-x="433" d="M407 172v-93h-58v-79h-112v79h-211v93l173 266h150v-266h58zM137 172h100v151z" />
<glyph horiz-adv-x="421" d="M245 289q60 0 102.5 -37t42.5 -104q0 -72 -51 -114.5t-125 -42.5q-71 0 -120.5 37.5t-55.5 95.5h114q4 -13 20.5 -24t40.5 -11q25 0 42 16t17 40t-17.5 39t-41.5 15q-40 0 -58 -28h-114l21 267h300v-99h-203l-8 -86q36 36 94 36z" />
<glyph horiz-adv-x="430" d="M254 288q59 0 103.5 -38t44.5 -100q0 -67 -48 -113t-125 -46q-92 0 -144.5 62t-52.5 163q0 110 54 170t140 60q68 0 114 -37t53 -91h-111q-6 12 -20.5 21.5t-34.5 9.5q-75 0 -82 -109q35 48 109 48zM224 89q25 0 42.5 16t17.5 38q0 24 -17.5 39.5t-42.5 15.5t-43.5 -15.5 t-18.5 -39.5q0 -22 18 -38t44 -16z" />
<glyph horiz-adv-x="376" d="M21 438h329v-90l-164 -348h-125l163 339h-203v99z" />
<glyph horiz-adv-x="429" d="M32 123q0 37 23 65t56 40q-66 27 -66 94q0 51 47 87.5t123 36.5t123 -36.5t47 -87.5q0 -66 -67 -94q34 -12 56.5 -39.5t22.5 -65.5q0 -56 -51.5 -94t-130.5 -38q-80 0 -131.5 38t-51.5 94zM271 309q0 19 -15.5 31.5t-40.5 12.5t-41 -12.5t-16 -31.5q0 -18 16.5 -30.5 t40.5 -12.5q23 0 39.5 12.5t16.5 30.5zM278 133q0 21 -17.5 35t-45.5 14t-46 -14t-18 -35t18 -34t46 -13t45.5 13t17.5 34z" />
<glyph horiz-adv-x="430" d="M176 150q-59 0 -103.5 37.5t-44.5 100.5q0 67 48.5 112.5t124.5 45.5q91 0 144 -62t53 -163q0 -110 -54 -170t-140 -60q-68 0 -114 37t-53 91h111q14 -30 55 -30q75 0 82 108q-37 -47 -109 -47zM206 348q-25 0 -42.5 -16t-17.5 -38q0 -24 17 -39.5t43 -15.5 q25 0 43.5 15.5t18.5 39.5q0 22 -18 38t-44 16z" />
<glyph horiz-adv-x="444" d="M222 712q84 0 136.5 -63t52.5 -164t-52 -164.5t-137 -63.5t-137.5 63.5t-52.5 164.5t52.5 164t137.5 63zM222 357q35 0 53 36t18 92t-17.5 91.5t-53.5 35.5t-53.5 -35.5t-17.5 -91.5t17.5 -92t53.5 -36z" />
<glyph horiz-adv-x="305" d="M239 704v-438h-116v315l-95 -59v113l103 69h108z" />
<glyph horiz-adv-x="411" d="M198 365h181v-99h-339v93l170 147q45 39 45 65q0 18 -14.5 30t-37.5 12q-47 0 -56 -41h-112q5 61 51 100.5t120 39.5q76 0 121 -39t45 -97q0 -42 -20 -71.5t-58 -60.5z" />
<glyph horiz-adv-x="417" d="M34 578q6 61 55.5 97.5t117.5 36.5q72 0 117.5 -34.5t45.5 -86.5q0 -67 -65 -95q32 -9 57 -36.5t25 -68.5q0 -58 -50 -96t-127 -38q-74 0 -125 38.5t-55 102.5h112q5 -19 23.5 -31t44.5 -12q25 0 42 12t17 33q0 41 -62 41h-50v95h39q27 0 42.5 11t15.5 29 q0 17 -14.5 27.5t-37.5 10.5q-22 0 -37.5 -10.5t-17.5 -25.5h-113z" />
<glyph horiz-adv-x="433" d="M407 438v-93h-58v-79h-112v79h-211v93l173 266h150v-266h58zM137 438h100v151z" />
<glyph horiz-adv-x="421" d="M245 555q60 0 102.5 -37t42.5 -104q0 -72 -51 -114.5t-125 -42.5q-71 0 -120.5 37.5t-55.5 95.5h114q4 -13 20.5 -24t40.5 -11q25 0 42 16t17 40t-17.5 39t-41.5 15q-40 0 -58 -28h-114l21 267h300v-99h-203l-8 -86q36 36 94 36z" />
<glyph horiz-adv-x="430" d="M254 554q59 0 103.5 -38t44.5 -100q0 -67 -48 -113t-125 -46q-92 0 -144.5 62t-52.5 163q0 110 54 170t140 60q68 0 114 -37t53 -91h-111q-6 12 -20.5 21.5t-34.5 9.5q-75 0 -82 -109q35 48 109 48zM224 355q25 0 42.5 16t17.5 38q0 24 -17.5 39.5t-42.5 15.5 t-43.5 -15.5t-18.5 -39.5q0 -22 18 -38t44 -16z" />
<glyph horiz-adv-x="376" d="M21 704h329v-90l-164 -348h-125l163 339h-203v99z" />
<glyph horiz-adv-x="429" d="M32 389q0 37 23 65t56 40q-66 27 -66 94q0 51 47 87.5t123 36.5t123 -36.5t47 -87.5q0 -66 -67 -94q34 -12 56.5 -39.5t22.5 -65.5q0 -56 -51.5 -94t-130.5 -38q-80 0 -131.5 38t-51.5 94zM271 575q0 19 -15.5 31.5t-40.5 12.5t-41 -12.5t-16 -31.5q0 -18 16.5 -30.5 t40.5 -12.5q23 0 39.5 12.5t16.5 30.5zM278 399q0 21 -17.5 35t-45.5 14t-46 -14t-18 -35t18 -34t46 -13t45.5 13t17.5 34z" />
<glyph horiz-adv-x="430" d="M176 416q-59 0 -103.5 37.5t-44.5 100.5q0 67 48.5 112.5t124.5 45.5q91 0 144 -62t53 -163q0 -110 -54 -170t-140 -60q-68 0 -114 37t-53 91h111q14 -30 55 -30q75 0 82 108q-37 -47 -109 -47zM206 614q-25 0 -42.5 -16t-17.5 -38q0 -24 17 -39.5t43 -15.5 q25 0 43.5 15.5t18.5 39.5q0 22 -18 38t-44 16z" />
<glyph horiz-adv-x="295" d="M148 269q37 0 62 -25t25 -62t-25 -62t-62 -25q-38 0 -63.5 25t-25.5 62t25.5 62t63.5 25zM148 609q37 0 62 -25t25 -62t-25 -62t-62 -25q-38 0 -63.5 25t-25.5 62t25.5 62t63.5 25z" />
<glyph horiz-adv-x="295" d="M148 439q37 0 62 -25t25 -62t-25 -62t-62 -25q-38 0 -63.5 25t-25.5 62t25.5 62t63.5 25z" />
<glyph horiz-adv-x="458" d="M229 525q72 0 122.5 -50t50.5 -123q0 -72 -50.5 -122t-122.5 -50t-122.5 50t-50.5 122t50.5 122.5t122.5 50.5z" />
<glyph d="M381 613l-3 -197l186 62l37 -111l-186 -60l115 -158l-94 -69l-115 159l-114 -159l-95 69l115 158l-186 60l37 111l185 -61l-2 196h120z" />
<glyph d="M600 521v-114h-103v-122h103v-113h-103v-107h-115v107h-121v-107h-115v107h-103v113h103v122h-103v114h103v108h115v-108h121v108h115v-108h103zM260 409v-125h123v125h-123z" />
<glyph horiz-adv-x="409" d="M265 794h138l-258 -885h-139z" />
<glyph horiz-adv-x="409" d="M145 794l258 -885h-139l-258 885h139z" />
<glyph horiz-adv-x="388" d="M363 794q-146 -201 -146 -443q0 -241 146 -442h-139q-64 80 -108.5 193.5t-44.5 248.5t44.5 249t108.5 194h139z" />
<glyph horiz-adv-x="388" d="M24 794h140q64 -80 108 -194t44 -249t-44 -248.5t-108 -193.5h-140q146 199 146 442q0 244 -146 443z" />
<glyph horiz-adv-x="400" d="M264 485q0 -116 -91 -134q91 -18 91 -135v-93q0 -51 17 -72t58 -21h33v-121h-40q-209 0 -209 186v98q0 51 -16 74t-56 23h-30v120h30q40 0 56 23.5t16 74.5v100q0 186 209 186h40v-121h-33q-41 0 -58 -21t-17 -72v-95z" />
<glyph horiz-adv-x="400" d="M136 485v95q0 51 -17.5 72t-57.5 21h-34v121h41q208 0 208 -186v-100q0 -51 16 -74.5t56 -23.5h30v-120h-30q-40 0 -56 -23t-16 -74v-98q0 -186 -208 -186h-41v121h34q40 0 57.5 21t17.5 72v93q0 117 90 135q-90 18 -90 134z" />
<glyph horiz-adv-x="388" d="M361 673h-127v-643h127v-121h-267v885h267v-121z" />
<glyph horiz-adv-x="388" d="M27 -91v121h127v643h-127v121h267v-885h-267z" />
<glyph horiz-adv-x="443" d="M59 286v132h325v-132h-325z" />
<glyph horiz-adv-x="500" d="M0 286v132h500v-132h-500z" />
<glyph horiz-adv-x="1000" d="M0 286v132h1000v-132h-1000z" />
<glyph horiz-adv-x="684" d="M204 352l170 -215h-153l-175 215l175 216h153zM467 352l170 -215h-153l-175 215l175 216h153z" />
<glyph horiz-adv-x="684" d="M217 352l-171 216h154l174 -216l-174 -215h-154zM479 352l-170 216h153l175 -216l-175 -215h-153z" />
<glyph horiz-adv-x="421" d="M204 352l170 -215h-153l-175 215l175 216h153z" />
<glyph horiz-adv-x="421" d="M217 352l-171 216h154l174 -216l-174 -215h-154z" />
<glyph horiz-adv-x="262" d="M245 491q-86 -122 -86 -272q0 -152 86 -273h-108q-39 48 -66 119.5t-27 153.5q0 81 27.5 153t65.5 119h108z" />
<glyph horiz-adv-x="262" d="M17 491h109q38 -48 65 -119t27 -153q0 -155 -92 -273h-109q87 120 87 273t-87 272z" />
<glyph horiz-adv-x="262" d="M245 757q-86 -122 -86 -272q0 -152 86 -273h-108q-39 48 -66 119.5t-27 153.5q0 81 27.5 153t65.5 119h108z" />
<glyph horiz-adv-x="262" d="M17 757h109q38 -48 65 -119t27 -153q0 -155 -92 -273h-109q87 120 87 273t-87 272z" />
<glyph d="M252 607h137v-189h181v-132h-181v-189h-137v189h-180v132h180v189z" />
<glyph d="M567 194l-88 -87l-158 157l-158 -158l-88 88l158 158l-158 159l88 87l158 -158l158 158l89 -87l-159 -159z" />
<glyph d="M319 629q34 0 57.5 -23t23.5 -56q0 -34 -23.5 -56.5t-57.5 -22.5t-57.5 22.5t-23.5 56.5q0 33 23.5 56t57.5 23zM570 292h-498v120h498v-120zM319 233q33 0 57 -23t24 -56t-23.5 -55.5t-57.5 -22.5t-57.5 22.5t-23.5 55.5t23.5 56t57.5 23z" />
<glyph d="M80 405v126h482v-126h-482zM80 174v126h482v-126h-482z" />
<glyph d="M370 618h125l-38 -91h105v-120h-156l-45 -109h201v-121h-252l-38 -90h-124l37 90h-105v121h156l45 109h-201v120h252z" />
<glyph d="M75 84v140l308 128l-308 128v140l493 -213v-111z" />
<glyph d="M568 84l-493 212v111l493 213v-140l-309 -128l309 -128v-140z" />
<glyph d="M568 460v-123l-398 -144h398v-115h-493v198l324 119l-324 111v120z" />
<glyph d="M567 626v-120l-325 -111l325 -119v-198h-492v115h398l-398 144v123z" />
<glyph d="M565 351h-180v-153h180v-120h-487v120h179v153h-180v115h180v158h128v-158h180v-115z" />
<glyph d="M459 558h110v-23q0 -77 -44 -121t-107 -44q-39 0 -75.5 18t-64.5 36.5t-47 18.5q-20 0 -33.5 -14.5t-13.5 -36.5v-13h-111v24q0 76 44 120t108 44q39 0 75.5 -18.5t64.5 -36.5t47 -18q20 0 33.5 14.5t13.5 36.5v13zM459 327h110v-24q0 -77 -43.5 -120.5t-107.5 -43.5 q-39 0 -75.5 18t-64.5 36t-47 18q-20 0 -33.5 -14.5t-13.5 -36.5v-13h-111v24q0 76 44 120t108 44q39 0 75.5 -18.5t64.5 -36.5t47 -18q20 0 33.5 14.5t13.5 36.5v14z" />
<glyph d="M460 448h117v-31q0 -80 -45.5 -125t-111.5 -45q-41 0 -77.5 20.5t-64.5 41.5t-48 21q-21 0 -34.5 -15t-13.5 -39v-20h-116v30q0 80 45 125t112 45q41 0 77.5 -20.5t64.5 -41t48 -20.5t33.5 14.5t13.5 38.5v21z" />
<glyph d="M74 487h487v-301h-136v168h-351v133z" />
<glyph horiz-adv-x="917" d="M668 565q98 0 158 -61.5t60 -151.5t-60 -151.5t-158 -61.5q-114 0 -211 117q-96 -117 -208 -117q-98 0 -158 61.5t-60 151.5t60 151.5t158 61.5q112 0 210 -119q96 119 209 119zM256 264q36 0 65 22.5t61 64.5q-32 43 -61 66t-65 23q-40 0 -65 -25t-25 -63t25 -63t65 -25 zM661 264q40 0 65 25t25 63t-25 63t-65 25q-35 0 -64.5 -23t-61.5 -65q32 -42 61 -65t65 -23z" />
<glyph horiz-adv-x="906" d="M471 770q175 0 286.5 -110t111.5 -279q0 -126 -53.5 -183.5t-138.5 -57.5q-91 0 -127 69q-41 -69 -130 -69q-76 0 -127.5 56.5t-51.5 155.5q0 94 51.5 152.5t128.5 58.5q76 0 114 -57v46h124v-256q0 -23 12 -37.5t32 -14.5q60 0 60 137q0 131 -78 211.5t-216 80.5 q-134 0 -225 -89.5t-91 -238.5q0 -150 95 -232.5t234 -82.5q96 0 173 27v-96q-69 -27 -174 -27q-120 0 -217.5 47.5t-157 142t-59.5 221.5q0 126 58 224t154 149.5t212 51.5zM449 249q36 0 59.5 27t23.5 72v7q0 45 -23.5 72t-59.5 27q-34 0 -57 -27.5t-23 -74.5 q0 -46 23 -74.5t57 -28.5z" />
<glyph horiz-adv-x="891" d="M445 42q130 0 216.5 87.5t86.5 222.5t-86.5 222.5t-216.5 87.5q-129 0 -216 -87.5t-87 -222.5t87 -222.5t216 -87.5zM445 -55q-170 0 -286.5 116t-116.5 291q0 176 116.5 292t286.5 116t286.5 -116.5t116.5 -291.5t-116.5 -291t-286.5 -116zM446 242q62 0 76 59h116 q-6 -74 -61 -120.5t-133 -46.5q-91 0 -150.5 60.5t-59.5 157.5q0 98 59 159t151 61q81 0 133 -45.5t61 -117.5h-119q-15 56 -75 56q-39 0 -62.5 -30t-23.5 -83q0 -52 24 -81t64 -29z" />
<glyph horiz-adv-x="891" d="M446 -57q-170 0 -287 116.5t-117 292.5q0 175 117 291.5t287 116.5t286.5 -116.5t116.5 -291.5q0 -176 -116.5 -292.5t-286.5 -116.5zM446 42q129 0 216 87.5t87 222.5t-87 222.5t-216 87.5q-130 0 -217 -87.5t-87 -222.5t87 -222.5t217 -87.5zM608 417q0 -70 -61 -111 l90 -152h-124l-70 124h-48v-124h-110v399h170q71 0 112 -38t41 -98zM443 462h-48v-96h48q23 0 37 13.5t14 35.5t-13.5 34.5t-37.5 12.5z" />
<glyph horiz-adv-x="318" d="M90 794h138v-885h-138v885z" />
<glyph horiz-adv-x="318" d="M228 274v-365h-138v365h138zM90 429v365h138v-365h-138z" />
<glyph horiz-adv-x="414" d="M157 378h100v-111h108v-96h-108v-112h-100v112h-109v96h109v111z" />
<glyph horiz-adv-x="414" d="M50 250v95h313v-95h-313zM50 93v95h313v-95h-313z" />
<glyph horiz-adv-x="414" d="M157 644h100v-111h108v-96h-108v-112h-100v112h-109v96h109v111z" />
<glyph horiz-adv-x="414" d="M50 516v95h313v-95h-313zM50 359v95h313v-95h-313z" />
</font>
</defs>
</svg>
