<?xml version="1.0" standalone="no"?>
<!DOCTYPE svg PUBLIC "-//W3C//DTD SVG 1.1//EN" "http://www.w3.org/Graphics/SVG/1.1/DTD/svg11.dtd" >
<svg xmlns="http://www.w3.org/2000/svg" xmlns:xlink="http://www.w3.org/1999/xlink" version="1.1">
<metadata></metadata>
<defs>
<font id="als_hausslight" horiz-adv-x="629" >
<font-face units-per-em="1000" ascent="800" descent="-200" />
<missing-glyph horiz-adv-x="226" />
<glyph horiz-adv-x="0" />
<glyph horiz-adv-x="0" />
<glyph unicode="&#xd;" horiz-adv-x="226" />
<glyph unicode=" "  horiz-adv-x="226" />
<glyph unicode="&#x09;" horiz-adv-x="226" />
<glyph unicode="&#xa0;" horiz-adv-x="226" />
<glyph unicode="!" horiz-adv-x="287" d="M121 194l-4 531h52l-3 -531h-45zM144 73q17 0 29 -12t12 -30q0 -17 -12 -29t-29 -12q-9 0 -16.5 3t-13 8.5t-9 13.5t-3.5 16q0 18 12 30t30 12z" />
<glyph unicode="&#x22;" horiz-adv-x="366" d="M236 480v245h48l-3 -245h-45zM82 480v245h49l-3 -245h-46z" />
<glyph unicode="#" horiz-adv-x="732" d="M676 515v-43h-138l-38 -219h129v-43h-138l-36 -210h-44l36 210h-214l-36 -210h-46l36 210h-130v43h139l37 219h-131v43h139l36 210h45l-36 -210h214l37 210h45l-37 -210h131zM278 472l-38 -219h214l38 219h-214z" />
<glyph unicode="$" horiz-adv-x="606" d="M57 194h49q9 -39 32.5 -68.5t59.5 -47.5t83 -23v294l-51 8q-76 13 -118.5 55.5t-42.5 110.5q0 85 62.5 137t149.5 56v94h44v-94q83 -7 141 -53.5t72 -125.5h-50q-12 60 -56 93.5t-107 40.5v-282l53 -8q79 -13 125.5 -57.5t46.5 -120.5q0 -87 -63.5 -139.5t-161.5 -55.5 v-99h-44v100q-91 8 -151 55t-73 130zM368 335l-43 7v-288q77 2 126.5 41.5t49.5 104.5q0 56 -35 90.5t-98 44.5zM118 526q0 -50 31.5 -81.5t89.5 -40.5l42 -7v274q-43 -3 -79.5 -19.5t-60 -49.5t-23.5 -76z" />
<glyph unicode="%" horiz-adv-x="854" d="M146 0l506 725h56l-506 -725h-56zM204 691q-34 0 -59 -18t-38 -48t-13 -68q0 -58 29.5 -96t80 -38t80.5 38t30 96t-30 96t-80 38zM46 557q0 77 44.5 127t113.5 50t113.5 -50t44.5 -127t-44 -127t-114 -50q-69 0 -113.5 50t-44.5 127zM650.5 302q-50.5 0 -80 -38 t-29.5 -96t29.5 -96t80 -38t80.5 38t30 96t-30 96t-80.5 38zM493 168q0 77 44.5 127t113.5 50q46 0 82 -23t56 -63.5t20 -90.5q0 -77 -44 -127t-114 -50q-69 0 -113.5 50t-44.5 127z" />
<glyph unicode="&#x26;" horiz-adv-x="727" d="M687 322l-133 -171l142 -151h-62l-110 117l-7 -8q-48 -52 -103 -85t-129 -33q-96 0 -159 56.5t-63 144.5q0 142 189 215l-22 23q-27 26 -41.5 43.5t-28 46t-13.5 58.5q0 66 49.5 111t123.5 45q48 0 86 -19.5t60 -56t22 -81.5q0 -115 -157 -185l193 -208l105 138h58z M487 141l7 8l-210 226q-84 -31 -127 -74t-43 -107q0 -73 49 -115.5t126 -42.5q110 0 198 105zM197 580q0 -20 5.5 -37.5t18.5 -34.5t20 -25t25 -26l33 -34q49 21 80 44.5t46 50.5t15 59q0 52 -35 83t-87 31q-34 0 -61.5 -14t-43.5 -39.5t-16 -57.5z" />
<glyph unicode="'" horiz-adv-x="213" d="M82 480v245h49l-3 -245h-46z" />
<glyph unicode="(" horiz-adv-x="322" d="M291 749q-49 -62 -83.5 -134.5t-53 -154.5t-18.5 -167q0 -128 40.5 -244.5t114.5 -211.5h-50q-67 80 -111.5 199.5t-44.5 256t44.5 256.5t111.5 200h50z" />
<glyph unicode=")" horiz-adv-x="322" d="M31 749h50q68 -80 112 -200t44 -256.5t-44 -256t-112 -199.5h-50q75 95 115 211.5t40 244.5t-40.5 245t-114.5 211z" />
<glyph unicode="*" horiz-adv-x="417" d="M231 734l-1 -147l139 46l12 -38l-139 -46l87 -117l-33 -24l-87 120l-86 -120l-33 24l85 117l-138 46l12 38l141 -46l-2 147h43z" />
<glyph unicode="+" d="M290 521h49v-220h213v-48h-213v-220h-49v220h-213v48h213v220z" />
<glyph unicode="," horiz-adv-x="246" d="M165 30q0 -12 -5 -28l-55 -167h-42l50 158q-14 2 -24 12t-10 26q0 17 12 29t30 12t31 -12t13 -30z" />
<glyph unicode="-" horiz-adv-x="438" d="M62 253v48h315v-48h-315z" />
<glyph unicode="." horiz-adv-x="246" d="M124 73q17 0 29 -12t12 -30q0 -17 -12 -29t-29 -12q-12 0 -21.5 5.5t-15.5 15t-6 20.5q0 18 12.5 30t30.5 12z" />
<glyph unicode="/" horiz-adv-x="347" d="M283 749h49l-268 -912h-49z" />
<glyph unicode="0" horiz-adv-x="661" d="M330.5 734q121.5 0 192 -102t70.5 -269.5t-70.5 -269.5t-192 -102t-192 102t-70.5 269.5t70.5 269.5t192 102zM330.5 38q98.5 0 155 89.5t56.5 235t-56.5 235t-155 89.5t-155 -89.5t-56.5 -235t56.5 -235t155 -89.5z" />
<glyph unicode="1" horiz-adv-x="441" d="M307 725v-725h-51v665l-196 -125v54l201 131h46z" />
<glyph unicode="2" horiz-adv-x="613" d="M479 529q0 69 -48.5 113.5t-121.5 44.5q-74 0 -124.5 -41t-65.5 -108h-49q13 87 79 141.5t161 54.5q94 0 157 -58.5t63 -146.5q0 -36 -10.5 -69t-33.5 -64.5t-41.5 -51.5t-52.5 -53l-251 -244h408v-47h-477v43l288 282q31 30 47 48t35.5 44.5t28 54t8.5 57.5z" />
<glyph unicode="3" horiz-adv-x="628" d="M77 549q17 87 82.5 136t155.5 49q99 0 160 -54t61 -137q0 -42 -16.5 -76.5t-41.5 -55.5t-57 -33q25 -6 49 -19t45.5 -34t34.5 -54t13 -72q0 -86 -68 -147t-174 -61q-101 0 -172.5 53t-83.5 139h50q14 -64 69.5 -104.5t136.5 -40.5q85 0 138 47t53 115q0 70 -51.5 110.5 t-140.5 40.5h-88v47h86q80 0 123 41t43 103q0 65 -46 105t-123 40q-73 0 -122.5 -37t-64.5 -101h-51z" />
<glyph unicode="4" horiz-adv-x="655" d="M488 0h-50v183h-380v43l370 501h60v-497h109v-47h-109v-183zM115 230h323v434z" />
<glyph unicode="5" horiz-adv-x="634" d="M325 38q84 0 138 54.5t54 141.5t-55.5 138.5t-134.5 51.5q-124 0 -191 -107h-49l34 408h409v-47h-366l-26 -297q34 43 84.5 66.5t111.5 23.5q62 0 114.5 -27.5t86.5 -82.5t34 -127q0 -70 -32.5 -126t-88 -86.5t-123.5 -30.5q-100 0 -165.5 52t-81.5 130h52q15 -57 66 -96 t129 -39z" />
<glyph unicode="6" horiz-adv-x="640" d="M340 473q63 0 116.5 -28.5t87.5 -83.5t34 -126q0 -107 -69.5 -175.5t-171.5 -68.5q-125 0 -197 90t-72 253q0 198 74.5 299t197.5 101q44 0 83.5 -13.5t67 -37t45.5 -53t24 -62.5h-50q-15 50 -59 84.5t-111 34.5q-103 0 -163 -88.5t-60 -266.5v-2q26 64 86.5 103.5 t136.5 39.5zM336 38q80 0 135 54.5t55 142.5q0 86 -56 138.5t-136 52.5q-82 0 -139 -54t-57 -135q0 -87 56 -143t142 -56z" />
<glyph unicode="7" horiz-adv-x="571" d="M514 682l-311 -682h-56l309 678h-409v47h467v-43z" />
<glyph unicode="8" horiz-adv-x="641" d="M68 193q0 41 15 76t39 57t49 35.5t48 18.5q-20 7 -39.5 19t-40 31.5t-33 50t-12.5 66.5q0 82 63 134.5t164 52.5t164 -52.5t63 -134.5q0 -36 -12.5 -66.5t-33 -50t-40.5 -31.5t-40 -19q24 -5 48.5 -18.5t48.5 -35.5t39.5 -57t15.5 -76q0 -90 -71 -146t-182 -56t-182 56 t-71 146zM497 545q0 32 -12.5 59t-36 45.5t-56 29t-71.5 10.5q-79 0 -128 -39.5t-49 -104.5q0 -42 24 -75.5t64 -51t89 -17.5q75 0 125.5 40t50.5 104zM523 195q0 48 -27 85.5t-72.5 56.5t-102.5 19q-87 0 -145 -44t-58 -117q0 -70 56.5 -114t146.5 -44t146 44t56 114z" />
<glyph unicode="9" horiz-adv-x="640" d="M301 252q-98 0 -168 66t-70 172.5t69.5 175t171.5 68.5q125 0 197 -90t72 -253q0 -198 -74.5 -299t-197.5 -101q-88 0 -148 48.5t-73 118.5h51q14 -51 58 -85.5t112 -34.5q102 0 162 88.5t60 266.5v1q-26 -64 -86.5 -103t-135.5 -39zM305 687q-80 0 -135.5 -54.5 t-55.5 -142.5q0 -86 56.5 -138.5t136.5 -52.5q82 0 139 54t57 135q0 87 -56 143t-142 56z" />
<glyph unicode=":" horiz-adv-x="246" d="M124 73q17 0 29 -12t12 -30q0 -17 -12 -29t-29 -12q-12 0 -21.5 5.5t-15.5 15t-6 20.5q0 18 12.5 30t30.5 12zM124 504q17 0 29 -12.5t12 -30.5q0 -17 -12 -29t-29 -12q-9 0 -17 3.5t-13.5 9t-9 13t-3.5 15.5q0 18 12.5 30.5t30.5 12.5z" />
<glyph unicode=";" horiz-adv-x="246" d="M165 30q0 -12 -5 -28l-55 -167h-42l50 158q-14 2 -24 12t-10 26q0 17 12 29t30 12t31 -12t13 -30zM123 504q17 0 29 -12.5t12 -30.5q0 -17 -12 -29t-29 -12q-9 0 -17 3.5t-13.5 9t-9 13t-3.5 15.5q0 18 12.5 30.5t30.5 12.5z" />
<glyph unicode="&#x3c;" d="M549 28l-468 228v42l468 228v-52l-404 -197l404 -197v-52z" />
<glyph unicode="=" d="M91 359v47h448v-47h-448zM91 147v47h448v-47h-448z" />
<glyph unicode="&#x3e;" d="M81 28v52l403 197l-403 197v52l468 -228v-42z" />
<glyph unicode="?" horiz-adv-x="538" d="M428 548q0 63 -43 101.5t-114 38.5q-73 0 -118 -38t-60 -101h-50q16 82 76 133.5t153 51.5t150 -52t57 -132q0 -30 -7.5 -56t-16 -42t-28 -36.5t-29.5 -28t-34 -27.5q-5 -3 -19 -13.5t-19 -14.5t-16 -13.5t-15.5 -15.5t-11.5 -16.5t-9.5 -20t-5 -22t-2.5 -27.5v-23h-48 v25q0 32 7 56.5t23.5 44.5t29.5 31.5t40 31.5q6 5 10 7q19 15 30 24.5t26.5 25.5t23.5 30t14 34.5t6 43.5zM245 73q17 0 29 -12t12 -30q0 -17 -12 -29t-29 -12q-18 0 -30 12t-12 29q0 18 12 30t30 12z" />
<glyph unicode="@" horiz-adv-x="932" d="M483 713q115 0 206 -53t140 -142.5t49 -198.5q0 -53 -9.5 -95t-24 -69t-35.5 -45t-42.5 -25.5t-45.5 -7.5q-28 0 -51.5 10t-39.5 28.5t-23 43.5q-23 -40 -62.5 -62.5t-90.5 -22.5q-52 0 -95 25.5t-68.5 75.5t-25.5 115q0 96 54.5 155t136.5 59q48 0 85 -22t59 -58v69h48 v-286q0 -41 22 -64.5t54 -23.5q45 0 74.5 48t29.5 152q0 73 -24.5 137t-68.5 111t-109 74t-143 27q-76 0 -143.5 -26.5t-117.5 -75t-79.5 -122t-29.5 -162.5q0 -59 14 -111.5t40 -93t61 -72.5t78.5 -52.5t92 -31.5t101.5 -11q95 0 165 27v-45q-66 -26 -165 -26 q-91 0 -170 28t-138 80t-93 131.5t-34 176.5t32.5 178.5t89.5 136.5t133 85.5t163 30.5zM458 118q64 0 103 45t39 119v16q0 71 -38.5 116t-103.5 45q-63 0 -103.5 -45.5t-40.5 -123.5t40 -125t104 -47z" />
<glyph unicode="A" horiz-adv-x="667" d="M308 725h51l282 -725h-55l-83 217h-339l-83 -217h-54zM333 661l-152 -397h304z" />
<glyph unicode="B" horiz-adv-x="643" d="M95 0v725h245q104 0 161 -49.5t57 -131.5q0 -44 -16.5 -80t-40 -57t-51.5 -30q24 -5 46.5 -18t43.5 -34t34 -54t13 -72q0 -91 -62 -145t-169 -54h-261zM353 351h-208v-305h208q86 0 134.5 41.5t48.5 112.5q0 69 -48 110t-135 41zM334 679h-189v-282h202q80 0 120 40 t40 103q0 66 -45 102.5t-128 36.5z" />
<glyph unicode="C" horiz-adv-x="723" d="M617 219h51q-7 -43 -28.5 -82.5t-56 -73t-88 -53t-117.5 -19.5q-138 0 -228 101.5t-90 270.5q0 166 88.5 268.5t228.5 102.5q117 0 194.5 -65t94.5 -161h-51q-19 76 -80 127t-158 51q-119 0 -192.5 -88.5t-73.5 -234.5q0 -149 75 -236.5t192 -87.5q101 0 163 53.5 t76 126.5z" />
<glyph unicode="D" horiz-adv-x="722" d="M299 725q168 0 265.5 -94t97.5 -268.5t-97.5 -268.5t-265.5 -94h-204v725h204zM293 47q100 0 170.5 35t109 106t38.5 175q0 155 -83.5 235t-234.5 80h-148v-631h148z" />
<glyph unicode="E" horiz-adv-x="600" d="M536 678h-391v-281h371v-47h-371v-303h391v-47h-441v725h441v-47z" />
<glyph unicode="F" horiz-adv-x="592" d="M145 0h-50v725h436v-47h-386v-288h362v-46h-362v-344z" />
<glyph unicode="G" horiz-adv-x="742" d="M374 356h304v-55q0 -143 -78.5 -226.5t-219.5 -83.5q-143 0 -231.5 104t-88.5 268q0 166 88 268.5t232 102.5q116 0 192.5 -61.5t99.5 -158.5h-53q-23 79 -83.5 125.5t-155.5 46.5q-123 0 -196 -88t-73 -235q0 -144 74 -234t195 -90q118 0 182.5 67.5t64.5 190.5v13h-253 v46z" />
<glyph unicode="H" horiz-adv-x="735" d="M145 0h-50v725h50v-327h445v327h51v-725h-51v349h-445v-349z" />
<glyph unicode="I" horiz-adv-x="239" d="M145 725v-725h-50v725h50z" />
<glyph unicode="J" horiz-adv-x="541" d="M36 176h49q10 -62 50.5 -99.5t106.5 -37.5q51 0 86.5 22.5t53.5 64.5t18 101v498h50v-499q0 -113 -55 -174t-153 -61q-88 0 -143 51.5t-63 133.5z" />
<glyph unicode="K" horiz-adv-x="620" d="M145 0h-50v725h50v-332l375 332h71l-392 -348l403 -377h-74l-383 357v-357z" />
<glyph unicode="L" horiz-adv-x="573" d="M145 725v-678h391v-47h-441v725h50z" />
<glyph unicode="M" horiz-adv-x="891" d="M95 725h57l294 -658l295 658h56v-725h-49v625l-279 -625h-46l-279 625v-625h-49v725z" />
<glyph unicode="N" horiz-adv-x="740" d="M148 725l447 -640v640h51v-725h-50l-451 644v-644h-50v725h53z" />
<glyph unicode="O" horiz-adv-x="766" d="M383 734q145 0 234.5 -103.5t89.5 -268t-89.5 -268t-234.5 -103.5t-234 103.5t-89 268t89 268t234 103.5zM383 39q124 0 198 89t74 234.5t-74 234.5t-198 89t-198 -89t-74 -234.5t74 -234.5t198 -89z" />
<glyph unicode="P" horiz-adv-x="620" d="M330 725q107 0 171 -61t64 -159t-64 -160.5t-169 -62.5h-187v-282h-50v725h235zM324 678h-179v-348h180q87 0 138 47.5t51 127t-51 126.5t-139 47z" />
<glyph unicode="Q" horiz-adv-x="766" d="M383 734q145 0 234.5 -103.5t89.5 -267.5q0 -98 -33.5 -177t-93.5 -128l86 -130h-55l-70 103q-71 -40 -158 -40q-145 0 -234 103.5t-89 268t89 268t234 103.5zM383 39q73 0 131 33l-92 137h57l73 -110q33 28 56 67.5t35 89t12 107.5q0 145 -74 234t-198 89t-198 -89 t-74 -234.5t74 -234.5t198 -89z" />
<glyph unicode="R" horiz-adv-x="640" d="M571 509q0 -79 -48 -138t-129 -75l215 -296h-61l-211 290h-192v-290h-50v725h244q108 0 170 -61.5t62 -154.5zM334 678h-189v-340h190q85 0 134.5 48.5t49.5 122.5q0 75 -48.5 122t-136.5 47z" />
<glyph unicode="S" horiz-adv-x="631" d="M57 185h50q16 -69 74 -108t148 -39q84 0 139 42t55 113q0 58 -36.5 93.5t-105.5 47.5l-142 23q-81 14 -125 58.5t-44 115.5q0 93 70.5 148t168.5 55q63 0 115 -20.5t89.5 -63.5t47.5 -104h-50q-16 70 -70.5 105.5t-131.5 35.5t-132 -40.5t-55 -111.5q0 -106 127 -128 l143 -25q55 -9 95 -31t64 -61.5t24 -93.5q0 -94 -70.5 -149.5t-176.5 -55.5q-109 0 -182.5 50t-88.5 144z" />
<glyph unicode="T" horiz-adv-x="633" d="M35 678v47h563v-47h-256v-678h-51v678h-256z" />
<glyph unicode="U" horiz-adv-x="727" d="M90 278v447h50v-446q0 -115 61.5 -177.5t162.5 -62.5t162 62.5t61 177.5v446h51v-447q0 -137 -76 -212t-198.5 -75t-198 75t-75.5 212z" />
<glyph unicode="V" horiz-adv-x="664" d="M638 725l-281 -725h-50l-280 725h54l251 -658l251 658h55z" />
<glyph unicode="W" horiz-adv-x="986" d="M952 725l-231 -725h-48l-180 636l-179 -636h-48l-231 725h54l200 -638l181 638h48l179 -636l201 636h54z" />
<glyph unicode="X" horiz-adv-x="661" d="M565 0l-235 325l-234 -325h-61l262 363l-260 362h61l233 -323l233 323h60l-259 -362l261 -363h-61z" />
<glyph unicode="Y" horiz-adv-x="638" d="M345 0h-50v300l-273 425h58l239 -375l239 375h59l-272 -423v-302z" />
<glyph unicode="Z" horiz-adv-x="641" d="M65 44l449 634h-449v47h512v-44l-450 -634h450v-47h-512v44z" />
<glyph unicode="[" horiz-adv-x="351" d="M320 705h-157v-823h157v-45h-206v912h206v-44z" />
<glyph unicode="\" horiz-adv-x="347" d="M64 749l268 -912h-49l-268 912h49z" />
<glyph unicode="]" horiz-adv-x="351" d="M31 -163v45h157v823h-157v44h206v-912h-206z" />
<glyph unicode="^" horiz-adv-x="427" d="M390 417h-49l-127 240l-126 -240h-50l156 294h41z" />
<glyph unicode="_" horiz-adv-x="486" d="M0 -69h486v-44h-486v44z" />
<glyph unicode="`" horiz-adv-x="535" d="M193 749h55l95 -146h-53z" />
<glyph unicode="a" horiz-adv-x="539" d="M414 347q0 34 -10.5 60t-30 43t-46 25.5t-58.5 8.5q-24 0 -45 -4.5t-37.5 -13t-30 -20.5t-23 -26.5t-15.5 -31.5h-47q15 62 68 101t131 39q87 0 139 -47.5t52 -133.5v-347h-45v80q-28 -42 -77 -65.5t-111 -23.5q-76 0 -127 41.5t-51 110.5q0 71 53 112t147 41h164v51z M233 35q79 0 130 43t51 116v58h-162q-72 0 -112 -28t-40 -81q0 -49 37.5 -78.5t95.5 -29.5z" />
<glyph unicode="b" horiz-adv-x="604" d="M319 528q99 0 166 -71.5t67 -196.5q0 -126 -66.5 -197.5t-167.5 -71.5q-62 0 -112 28.5t-76 78.5v-98h-47v749h49v-326q18 33 46 56.5t64 36t77 12.5zM316 36q84 0 135.5 61.5t51.5 162.5t-52 162t-135 61q-82 0 -134 -59.5t-52 -155.5v-17q0 -94 51.5 -154.5 t134.5 -60.5z" />
<glyph unicode="c" horiz-adv-x="553" d="M289 36q72 0 114 37t54 88h49q-11 -70 -69.5 -120t-147.5 -50q-101 0 -168.5 73t-67.5 196q0 121 67 194.5t169 73.5q88 0 145.5 -49t71.5 -119h-49q-15 53 -58.5 88t-109.5 35q-81 0 -134 -60.5t-53 -162.5q0 -69 25.5 -120.5t67.5 -77.5t94 -26z" />
<glyph unicode="d" horiz-adv-x="605" d="M285 -9q-98 0 -165 71.5t-67 197.5q0 125 66 196.5t167 71.5q62 0 111 -27.5t77 -76.5v325h48v-749h-46v99q-28 -51 -77.5 -79.5t-113.5 -28.5zM288.5 483q-83.5 0 -135 -61.5t-51.5 -161.5q0 -67 24 -118t66 -78.5t96 -27.5q82 0 135 59.5t53 155.5v17q0 94 -52 154.5 t-135.5 60.5z" />
<glyph unicode="e" horiz-adv-x="559" d="M507 248h-404v-3q0 -95 53 -152t134 -57q63 0 104 28t55 68h50q-16 -58 -69.5 -99.5t-139.5 -41.5q-67 0 -120.5 31t-85 92.5t-31.5 145.5q0 123 65 195.5t167 72.5q100 0 161 -66.5t61 -183.5v-30zM285 483q-77 0 -127 -52t-55 -140h354q0 46 -12.5 82.5t-35 60.5 t-54 36.5t-70.5 12.5z" />
<glyph unicode="f" horiz-adv-x="320" d="M163 0h-49v475h-96v44h96v78q0 74 38.5 113t108.5 39h30v-44h-28q-100 0 -100 -110v-76h128v-44h-128v-475z" />
<glyph unicode="g" horiz-adv-x="604" d="M475 519h46v-505q0 -108 -62 -168t-163 -60q-89 0 -147.5 42t-68.5 107h49q8 -32 29.5 -55t57 -36t81.5 -13q80 0 128 48.5t48 134.5v88q-19 -32 -46.5 -55.5t-63.5 -36t-78 -12.5q-99 0 -165.5 71t-66.5 195q0 122 65.5 193t167.5 71q64 0 113 -28.5t76 -78.5v98z M288 43q83 0 135 59.5t52 152.5v17q0 91 -51 151t-136 60q-83 0 -134.5 -60.5t-51.5 -158.5q0 -100 51.5 -160.5t134.5 -60.5z" />
<glyph unicode="h" horiz-adv-x="579" d="M308 528q82 0 138 -50.5t56 -148.5v-329h-49v321q0 42 -11.5 73.5t-32.5 50.5t-48 28.5t-59 9.5t-61.5 -10t-54 -30t-39.5 -53.5t-15 -76.5v-313h-49v749h49v-308q26 40 73.5 63.5t102.5 23.5z" />
<glyph unicode="i" horiz-adv-x="215" d="M132 519v-519h-49v519h49zM108 716q17 0 29 -12t12 -29.5t-12 -29.5t-29 -12t-29 12t-12 29.5t12 29.5t29 12z" />
<glyph unicode="j" horiz-adv-x="216" d="M-27 -197v45h18q93 0 93 108v563h49v-565q0 -75 -35 -113t-102 -38h-23zM109 716q17 0 29 -12t12 -29.5t-12 -29.5t-29 -12t-29 12t-12 29.5t12 29.5t29 12z" />
<glyph unicode="k" horiz-adv-x="498" d="M132 0h-49v749h49v-460l274 230h67l-289 -243l295 -276h-67l-280 261v-261z" />
<glyph unicode="l" horiz-adv-x="215" d="M132 749v-749h-49v749h49z" />
<glyph unicode="m" horiz-adv-x="885" d="M627 528q35 0 66 -11t57.5 -33.5t42 -61t15.5 -87.5v-335h-49v329q0 77 -39.5 115.5t-99.5 38.5q-63 0 -106.5 -41.5t-43.5 -116.5v-325h-49v329q0 76 -39 115t-99 39q-62 0 -106.5 -42.5t-44.5 -115.5v-325h-49v519h47v-77q24 40 67.5 63t92.5 23q25 0 48.5 -6t45 -18 t39 -32t28.5 -46q23 48 71 75t105 27z" />
<glyph unicode="n" horiz-adv-x="579" d="M83 519h47v-81q25 42 73.5 66t104.5 24q82 0 138 -50.5t56 -148.5v-329h-49v321q0 42 -11.5 73.5t-32.5 50.5t-48 28.5t-59 9.5t-61.5 -10t-54 -30t-39.5 -53.5t-15 -76.5v-313h-49v519z" />
<glyph unicode="o" horiz-adv-x="585" d="M292.5 528q107.5 0 174 -74.5t66.5 -194t-66.5 -194t-173.5 -74.5q-54 0 -98.5 19.5t-76 54.5t-48.5 85t-17 110q0 119 66 193.5t173.5 74.5zM292.5 36q85.5 0 138 61t52.5 162.5t-52.5 162.5t-138 61t-138 -61t-52.5 -162.5t52.5 -162.5t138 -61z" />
<glyph unicode="p" horiz-adv-x="604" d="M319 528q99 0 166 -71.5t67 -196.5q0 -126 -66.5 -197.5t-167.5 -71.5q-62 0 -110.5 28t-75.5 76v-292h-49v716h47v-100q27 51 76.5 80t112.5 29zM316 36q84 0 135.5 61.5t51.5 162.5t-52 162t-135 61q-82 0 -134 -59.5t-52 -155.5v-17q0 -94 51.5 -154.5t134.5 -60.5z " />
<glyph unicode="q" horiz-adv-x="605" d="M285 -9q-98 0 -165 71.5t-67 197.5q0 125 66 196.5t167 71.5q62 0 112.5 -28.5t77.5 -79.5v99h46v-716h-48v293q-28 -50 -77.5 -77.5t-111.5 -27.5zM288.5 483q-83.5 0 -135 -61.5t-51.5 -161.5q0 -67 24 -118t66 -78.5t96 -27.5q82 0 135 59.5t53 155.5v17 q0 94 -52 154.5t-135.5 60.5z" />
<glyph unicode="r" horiz-adv-x="353" d="M302 520h22v-46h-22q-74 0 -122 -47t-48 -133v-294h-49v519h47v-92q52 93 172 93z" />
<glyph unicode="s" horiz-adv-x="503" d="M98 143q15 -53 57.5 -80.5t109.5 -27.5q62 0 101 28.5t39 76.5q0 79 -102 92l-97 12q-65 8 -103.5 41.5t-38.5 92.5q0 64 52.5 107t132.5 43q77 0 129.5 -38.5t62.5 -104.5h-48q-10 46 -48 72.5t-96 26.5q-61 0 -98.5 -29t-37.5 -74q0 -39 26.5 -61.5t74.5 -29.5l98 -13 q44 -6 75 -22t49 -44.5t18 -67.5q0 -69 -53.5 -110.5t-134.5 -41.5q-83 0 -142.5 37.5t-73.5 114.5h48z" />
<glyph unicode="t" horiz-adv-x="331" d="M161 148q0 -104 97 -104h33v-44h-40q-139 0 -139 146v329h-94v44h94v138h49v-138h130v-44h-130v-327z" />
<glyph unicode="u" horiz-adv-x="579" d="M496 0h-46v80q-26 -42 -74 -65.5t-104 -23.5q-82 0 -138 50.5t-56 149.5v328h49v-321q0 -81 42 -121.5t109 -40.5q32 0 61.5 10t54 30t39.5 53.5t15 76.5v313h48v-519z" />
<glyph unicode="v" horiz-adv-x="515" d="M493 519l-211 -519h-50l-210 519h52l182 -457l185 457h52z" />
<glyph unicode="w" horiz-adv-x="778" d="M752 519l-175 -519h-49l-140 447l-139 -447h-48l-174 519h51l148 -446l139 446h49l139 -446l147 446h52z" />
<glyph unicode="x" horiz-adv-x="517" d="M427 0l-171 225l-166 -225h-58l194 260l-192 259h58l167 -225l166 225h58l-194 -259l196 -260h-58z" />
<glyph unicode="y" horiz-adv-x="521" d="M447 519h53l-297 -716h-53l85 204l-213 512h52l187 -453z" />
<glyph unicode="z" horiz-adv-x="504" d="M55 0v40l334 435h-333v44h394v-40l-336 -435h336v-44h-395z" />
<glyph unicode="{" horiz-adv-x="363" d="M197 430q0 -64 -19 -95.5t-63 -41.5q43 -11 62.5 -42.5t19.5 -96.5v-150q0 -45 13 -72.5t36.5 -38.5t60.5 -11h26v-45h-28q-157 0 -157 163v149q0 61 -21.5 91.5t-74.5 30.5h-26v42h26q53 0 74.5 30.5t21.5 91.5v151q0 163 157 163h28v-44h-26q-37 0 -60.5 -11.5 t-36.5 -39t-13 -72.5v-152z" />
<glyph unicode="|" horiz-adv-x="254" d="M104 749h46v-912h-46v912z" />
<glyph unicode="}" horiz-adv-x="363" d="M167 430v152q0 67 -27.5 95t-82.5 28h-26v44h28q156 0 156 -163v-151q0 -30 5 -51.5t16 -38t30 -24.5t46 -8h26v-42h-26q-53 0 -75 -30.5t-22 -91.5v-149q0 -163 -156 -163h-28v45h26q37 0 60.5 11t36.5 38.5t13 72.5v150q0 65 19 96.5t62 42.5q-43 10 -62 41.5t-19 95.5 z" />
<glyph unicode="~" d="M509 351h45v-26q0 -58 -35 -94.5t-88 -36.5q-29 0 -56.5 12t-48.5 29t-41 34.5t-42.5 29.5t-43.5 12q-24 0 -42 -10.5t-28 -30.5t-10 -46v-23h-45v26q0 39 16 69t44 46t64 16q24 0 47.5 -8.5t41 -21.5t36.5 -28t34.5 -28.5t34.5 -22t38 -8.5q35 0 57 24t22 64v22z" />
<glyph unicode="&#xa1;" horiz-adv-x="287" d="M121 324h45l3 -521h-52zM144 528q17 0 29 -12t12 -30q0 -17 -12 -29t-29 -12q-9 0 -16.5 3.5t-13 9t-9 13t-3.5 15.5q0 18 12 30t30 12z" />
<glyph unicode="&#xa2;" horiz-adv-x="579" d="M476 469q-13 48 -54.5 82t-101.5 39v-456q65 5 105 42t51 84h49q-10 -67 -65.5 -116.5t-139.5 -54.5v-98h-43v99q-62 5 -110.5 38t-77.5 94t-29 141q0 118 60.5 190.5t156.5 82.5v98h43v-98q55 -4 99.5 -28.5t70.5 -60.5t35 -78h-49zM109 363q0 -100 47 -159t121 -69v454 q-74 -9 -121 -68.5t-47 -157.5z" />
<glyph unicode="&#xa3;" horiz-adv-x="591" d="M476 332h-268q8 -32 8 -65q0 -122 -103 -220h426v-47h-490v43q53 51 85.5 105t32.5 120q0 29 -10 64h-108v45h92q-1 4 -6 15.5t-6.5 16t-5.5 15t-6 17t-5 16.5t-4.5 17.5t-3.5 17t-2.5 19t-0.5 18.5q0 91 63 148t154 57q85 0 144 -48.5t76 -129.5h-52q-15 61 -60 96 t-109 35q-71 0 -118.5 -42.5t-47.5 -116.5q0 -20 5 -42.5t9 -35t14.5 -38.5t14.5 -35h282v-45z" />
<glyph unicode="&#xa4;" horiz-adv-x="615" d="M524 362.5q0 -77.5 -47 -135.5l96 -96l-34 -32l-95 95q-59 -48 -136 -48q-78 0 -137 48l-94 -95l-34 32l96 96q-47 58 -47 135.5t47 136.5l-96 95l34 32l94 -96q60 49 137 49q76 0 136 -49l95 96l34 -32l-96 -95q47 -59 47 -136.5zM139 363q0 -73 48.5 -122.5 t120.5 -49.5q47 0 86 22.5t61 62t22 87.5q0 72 -48.5 122t-120.5 50q-47 0 -86 -23t-61 -62.5t-22 -86.5z" />
<glyph unicode="&#xa5;" horiz-adv-x="600" d="M516 159h-191v-159h-50v159h-191v43h191v105h-191v43h166l-230 375h56l224 -369l225 369h56l-231 -375h166v-43h-191v-105h191v-43z" />
<glyph unicode="&#xa6;" horiz-adv-x="254" d="M150 215v-378h-46v378h46zM104 371v378h46v-378h-46z" />
<glyph unicode="&#xa7;" horiz-adv-x="534" d="M56 311q0 51 29.5 88t75.5 55q-79 41 -79 123q0 67 52 112t131 45q74 0 127.5 -39t61.5 -102h-49q-9 45 -47.5 71.5t-93.5 26.5q-38 0 -68.5 -14t-47.5 -39.5t-17 -57.5q0 -43 28.5 -68.5t76.5 -34.5l92 -18q69 -13 110 -50.5t41 -96.5q0 -50 -27 -86.5t-70 -54.5 q71 -43 71 -125q0 -27 -9 -52t-26 -44.5t-39.5 -33.5t-50.5 -21.5t-59 -7.5q-84 0 -139 39t-67 112h48q12 -52 53 -80t106 -28q58 0 96.5 31.5t38.5 81.5q0 28 -12 50.5t-35 37.5t-54 20l-104 19q-65 12 -104.5 46.5t-39.5 94.5zM320 195l18 -4q40 13 66.5 43t26.5 73 q0 86 -117 109l-95 19q-4 0 -10 2q-22 -7 -40 -17.5t-33 -25t-23.5 -34t-8.5 -42.5q0 -85 109 -105z" />
<glyph unicode="&#xa8;" horiz-adv-x="535" d="M170 716q17 0 29 -12t12 -29.5t-12 -29.5t-29 -12t-29 12t-12 30q0 7 2 13t6 11t9 9t11 6t13 2zM365.5 716q17.5 0 29.5 -12t12 -29.5t-12 -29.5t-29.5 -12t-29.5 12t-12 29.5t12 29.5t29.5 12z" />
<glyph unicode="&#xa9;" horiz-adv-x="908" d="M454.5 -62q151.5 0 252.5 103.5t101 261.5q0 104 -46.5 187.5t-127 130t-180.5 46.5q-151 0 -252 -103t-101 -261t101 -261.5t252.5 -103.5zM454 -107q-111 0 -202.5 52.5t-144 146.5t-52.5 210.5t52.5 211t144 147t202.5 52.5q84 0 158 -31t127 -85t84 -130.5t31 -163.5 t-31 -163.5t-84 -130.5t-127 -85t-158 -31zM447 125q58 0 91.5 29t41.5 70h46q-7 -59 -56 -100.5t-123 -41.5q-83 0 -139.5 60.5t-56.5 161.5q0 98 56 159.5t140 61.5q74 0 122 -41t57 -98h-46q-11 42 -45.5 69t-87.5 27q-42 0 -75 -21t-53 -62t-20 -95q0 -57 20 -98 t53.5 -61t74.5 -20z" />
<glyph unicode="&#xaa;" horiz-adv-x="379" d="M281 612q0 21 -6.5 37t-19 26.5t-29 15.5t-38.5 5q-37 0 -61.5 -16t-32.5 -42h-44q10 43 48 69.5t93 26.5q62 0 97.5 -31.5t35.5 -90.5v-230h-41v52q-20 -27 -53.5 -42.5t-72.5 -15.5q-53 0 -87 27.5t-34 74.5q0 31 16 54.5t47.5 37t75.5 13.5h106v29zM167 413 q49 0 81.5 29.5t32.5 69.5v35h-101q-47 0 -73 -17.5t-26 -49.5q0 -30 23.5 -48.5t62.5 -18.5z" />
<glyph unicode="&#xab;" horiz-adv-x="560" d="M116 265l183 -212h-59l-183 212l183 211h59zM321 265l183 -212h-59l-183 212l183 211h59z" />
<glyph unicode="&#xac;" d="M87 381h448v-248h-49v201h-399v47z" />
<glyph unicode="&#xad;" horiz-adv-x="438" d="M62 253v48h315v-48h-315z" />
<glyph unicode="&#xae;" horiz-adv-x="620" d="M310 227q-109 0 -183 74.5t-74 187.5t74 188t183 75t183.5 -75t74.5 -188t-74.5 -187.5t-183.5 -74.5zM310 268q92 0 153.5 62.5t61.5 158.5t-61.5 159t-153.5 63t-153.5 -63t-61.5 -159t61.5 -158.5t153.5 -62.5zM410 537q0 -25 -14.5 -46.5t-38.5 -32.5l69 -100h-47 l-63 92h-61v-92h-41v263h103q42 0 67.5 -24t25.5 -60zM314 584h-59v-97h59q12 0 21.5 4t16 10t10.5 15t4 20q0 21 -14 34.5t-38 13.5z" />
<glyph unicode="&#xaf;" horiz-adv-x="535" d="M130 697h276v-43h-276v43z" />
<glyph unicode="&#xb0;" horiz-adv-x="417" d="M369 564.5q0 -44.5 -22 -81.5t-59 -57t-80 -20q-66 0 -113.5 45.5t-47.5 113t47.5 113t113.5 45.5q43 0 80 -20t59 -57t22 -81.5zM93 564.5q0 -49.5 34 -82.5t81 -33t81 33t34 82.5t-34 82.5t-81 33t-81 -33t-34 -82.5z" />
<glyph unicode="&#xb1;" d="M542 271h-205v-202h204v-45h-453v45h201v202h-202v45h202v208h48v-208h205v-45z" />
<glyph unicode="&#xb2;" horiz-adv-x="381" d="M110 413h231v-42h-295v38l170 163q3 3 9.5 9t10 9t9 9t9 10t8.5 10t7.5 10.5t6 11t5 12.5t2.5 13t1 14q0 34 -27 57.5t-66 23.5q-40 0 -67.5 -22t-34.5 -56h-45q7 52 47.5 86t101.5 34q58 0 98 -35t40 -87q0 -22 -7.5 -41.5t-24 -40t-23.5 -28.5t-27 -26z" />
<glyph unicode="&#xb3;" horiz-adv-x="389" d="M47 689q8 50 48.5 82t99.5 32q60 0 99 -32.5t39 -80.5q0 -35 -20.5 -61t-50.5 -36q34 -7 60.5 -34.5t26.5 -71.5q0 -50 -43 -86t-108 -36q-61 0 -106.5 32.5t-51.5 83.5h44q8 -33 39.5 -53.5t74.5 -20.5q46 0 75.5 24t29.5 58q0 38 -29.5 60t-76.5 22h-53v40h50 q43 0 67.5 22t24.5 53q0 32 -25.5 53.5t-66.5 21.5q-39 0 -67 -19.5t-35 -52.5h-45z" />
<glyph unicode="&#xb4;" horiz-adv-x="535" d="M343 749l-98 -146h-52l94 146h56z" />
<glyph unicode="&#xb5;" horiz-adv-x="587" d="M455 519h49v-519h-47v80q-26 -41 -74.5 -65t-104.5 -24q-91 0 -146 63v-251h-49v716h49v-321q0 -81 42.5 -121.5t109.5 -40.5q32 0 61.5 10t54.5 30t40 53.5t15 76.5v313z" />
<glyph unicode="&#xb6;" horiz-adv-x="582" d="M265 725h223v-829h-47v785h-171q-75 0 -120 -40.5t-45 -113.5q0 -69 45.5 -109.5t119.5 -40.5h64v-481h-48v437h-22q-90 0 -149 54t-59 140q0 90 58.5 144t150.5 54z" />
<glyph unicode="&#xb7;" horiz-adv-x="246" d="M124 302q17 0 29 -12.5t12 -29.5t-12 -29.5t-29 -12.5q-18 0 -30.5 12t-12.5 30q0 11 6 21t15.5 15.5t21.5 5.5z" />
<glyph unicode="&#xb8;" horiz-adv-x="535" d="M282 9v-9l-20 -62q34 -1 58.5 -22t24.5 -57q0 -38 -27 -62.5t-79 -24.5h-48v38h47q31 0 47 13.5t16 36.5q0 14 -7 24.5t-21 16t-33 5.5h-25v15l30 88h37z" />
<glyph unicode="&#xb9;" horiz-adv-x="278" d="M195 797v-426h-46v376l-112 -71v47l114 74h44z" />
<glyph unicode="&#xba;" horiz-adv-x="405" d="M203 734q74 0 120.5 -49.5t46.5 -129.5q0 -53 -21.5 -93.5t-59.5 -63t-86 -22.5q-74 0 -120.5 49.5t-46.5 129.5q0 53 21.5 94t59 63t86.5 22zM203 416q54 0 87.5 38.5t33.5 101t-33.5 100.5t-87.5 38q-36 0 -63.5 -17t-43 -49t-15.5 -73q0 -62 34 -100.5t88 -38.5z" />
<glyph unicode="&#xbb;" horiz-adv-x="560" d="M239 265l-182 211h58l184 -211l-184 -212h-58zM444 265l-182 211h58l184 -211l-184 -212h-58z" />
<glyph unicode="&#xbc;" horiz-adv-x="870" d="M195 727v-426h-46v376l-112 -71v47l114 74h44zM121 0l505 725h55l-506 -725h-54zM835 142v-40h-64v-102h-44v102h-223v39l209 286h58v-285h64zM552 142h175v236z" />
<glyph unicode="&#xbd;" horiz-adv-x="904" d="M195 727v-426h-46v376l-112 -71v47l114 74h44zM121 0l505 725h55l-506 -725h-54zM633 42h231v-42h-294v38l170 163l11 11t12.5 12t11 11t11 13t8.5 13t7.5 15t4.5 15.5t2 17.5q0 35 -27.5 58t-66.5 23q-27 0 -48.5 -10t-35.5 -28t-18 -40h-44q7 52 47.5 86.5t100.5 34.5 q38 0 70 -16.5t50 -44.5t18 -62q0 -17 -6.5 -35.5t-12.5 -29.5t-21.5 -28.5t-20 -22t-21.5 -20.5z" />
<glyph unicode="&#xbe;" horiz-adv-x="981" d="M47 619q8 50 48.5 82t99.5 32q60 0 99 -32.5t39 -80.5q0 -35 -20.5 -61t-50.5 -36q34 -7 60.5 -35t26.5 -71q0 -32 -19 -60t-54 -45t-78 -17q-61 0 -106.5 32.5t-51.5 83.5h44q8 -33 39.5 -53.5t74.5 -20.5q46 0 75.5 24t29.5 58q0 38 -29.5 60t-76.5 22h-53v40h50 q43 0 67.5 22t24.5 53q0 32 -25.5 53.5t-66.5 21.5q-39 0 -67 -19.5t-35 -52.5h-45zM232 0l505 725h55l-506 -725h-54zM947 142v-40h-64v-102h-45v102h-223v39l209 286h59v-285h64zM663 142h175v236z" />
<glyph unicode="&#xbf;" horiz-adv-x="538" d="M294 529q11 0 21 -5.5t15.5 -15t5.5 -20.5q0 -18 -12.5 -30t-29.5 -12q-12 0 -21.5 5.5t-15 15.5t-5.5 21q0 17 12.5 29t29.5 12zM110 -29q0 -63 43.5 -101.5t114.5 -38.5q73 0 117.5 38t60.5 101h49q-16 -82 -75.5 -133.5t-152.5 -51.5t-150 52t-57 132q0 25 4 46t14 40 t17.5 31t25.5 28t25.5 22t28.5 23q5 3 19 13.5t19 14.5t16 13.5t15 15.5t11.5 16.5t10 20t5 22t2.5 27.5v23h47v-25q0 -42 -15 -74t-32 -47.5t-52 -42.5q-7 -5 -10 -7q-25 -19 -38.5 -31t-30.5 -32t-24.5 -43t-7.5 -52z" />
<glyph unicode="&#xc0;" horiz-adv-x="667" d="M308 725h51l282 -725h-55l-83 217h-339l-83 -217h-54zM333 661l-152 -397h304zM213 947h56l95 -147h-53z" />
<glyph unicode="&#xc1;" horiz-adv-x="667" d="M308 725h51l282 -725h-55l-83 217h-339l-83 -217h-54zM333 661l-152 -397h304zM456 947l-98 -147h-52l95 147h55z" />
<glyph unicode="&#xc2;" horiz-adv-x="667" d="M308 725h51l282 -725h-55l-83 217h-339l-83 -217h-54zM333 661l-152 -397h304zM234 800h-56l131 147h51l131 -147h-55l-101 109z" />
<glyph unicode="&#xc3;" horiz-adv-x="667" d="M308 725h51l282 -725h-55l-83 217h-339l-83 -217h-54zM333 661l-152 -397h304zM449 927h39v-18q0 -28 -10.5 -50t-29.5 -33.5t-43 -11.5q-26 0 -47 12t-33 26.5t-27.5 26.5t-31.5 12q-22 0 -34.5 -15.5t-12.5 -41.5v-15h-39v17q0 29 11 51t30 33.5t43 11.5q25 0 46 -12 t33 -26.5t28 -26.5t32 -12q21 0 33.5 15.5t12.5 41.5v15z" />
<glyph unicode="&#xc4;" horiz-adv-x="667" d="M308 725h51l282 -725h-55l-83 217h-339l-83 -217h-54zM333 661l-152 -397h304zM233 914q17 0 29 -12t12 -29.5t-12 -29.5t-29 -12t-29 12t-12 29q0 12 5.5 21.5t15 15t20.5 5.5zM437 914q17 0 29 -12t12 -29.5t-12 -29.5t-29 -12t-29 12t-12 29q0 9 3 17t8.5 13t13 8.5 t16.5 3.5z" />
<glyph unicode="&#xc5;" horiz-adv-x="667" d="M308 725h51l282 -725h-55l-83 217h-339l-83 -217h-54zM333 661l-152 -397h304zM428 879q0 -39 -27 -66t-66 -27q-40 0 -67.5 27t-27.5 66q0 25 12.5 46.5t34 33.5t48.5 12q26 0 47.5 -12t33.5 -33.5t12 -46.5zM278 878.5q0 -16.5 8 -29.5t20.5 -20t28.5 -7q23 0 39 16 t16 40.5t-16 40.5t-39 16q-16 0 -28.5 -7t-20.5 -20t-8 -29.5z" />
<glyph unicode="&#xc6;" horiz-adv-x="1003" d="M480 725h458v-47h-382v-281h363v-47h-363v-303h382v-47h-431v217h-296l-139 -217h-56zM240 264h267v416z" />
<glyph unicode="&#xc7;" horiz-adv-x="723" d="M617 219h51q-4 -27 -14.5 -53.5t-26.5 -51.5t-39.5 -46.5t-51.5 -37.5t-64 -26t-76 -12l-18 -54q35 -1 59 -22t24 -57q0 -38 -27 -62.5t-79 -24.5h-48v38h47q21 0 35.5 6.5t21 17.5t6.5 26q0 22 -16 34t-45 12h-24v15l23 71q-129 8 -212 108.5t-83 262.5 q0 166 88.5 268.5t228.5 102.5q117 0 194.5 -65t94.5 -161h-51q-19 76 -80 127t-158 51q-119 0 -192.5 -88.5t-73.5 -234.5q0 -149 75 -236.5t192 -87.5q101 0 163 53.5t76 126.5z" />
<glyph unicode="&#xc8;" horiz-adv-x="600" d="M536 678h-391v-281h371v-47h-371v-303h391v-47h-441v725h441v-47zM197 947h55l95 -147h-52z" />
<glyph unicode="&#xc9;" horiz-adv-x="600" d="M536 678h-391v-281h371v-47h-371v-303h391v-47h-441v725h441v-47zM440 947l-98 -147h-53l95 147h56z" />
<glyph unicode="&#xca;" horiz-adv-x="600" d="M536 678h-391v-281h371v-47h-371v-303h391v-47h-441v725h441v-47zM217 800h-55l131 147h51l131 -147h-56l-101 109z" />
<glyph unicode="&#xcb;" horiz-adv-x="600" d="M536 678h-391v-281h371v-47h-371v-303h391v-47h-441v725h441v-47zM216 914q17 0 29.5 -12t12.5 -29.5t-12.5 -29.5t-29.5 -12q-11 0 -20.5 5.5t-15 15t-5.5 21t5.5 21t15 15t20.5 5.5zM420 914q17 0 29 -12t12 -29.5t-12 -29.5t-29 -12t-29 12t-12 29q0 7 2 13.5t6 11.5 t9 9t11.5 6t12.5 2z" />
<glyph unicode="&#xcc;" horiz-adv-x="239" d="M145 725v-725h-50v725h50zM-2 947h56l94 -147h-52z" />
<glyph unicode="&#xcd;" horiz-adv-x="239" d="M145 725v-725h-50v725h50zM243 947l-98 -147h-52l94 147h56z" />
<glyph unicode="&#xce;" horiz-adv-x="239" d="M145 725v-725h-50v725h50zM25 800h-56l126 147h51l126 -147h-56l-95 109z" />
<glyph unicode="&#xcf;" horiz-adv-x="239" d="M145 725v-725h-50v725h50zM23 914q17 0 29 -12t12 -29.5t-12 -29.5t-29.5 -12t-29.5 12t-12 29q0 12 6 21.5t15 15t21 5.5zM218 914q18 0 30 -12t12 -29.5t-12 -29.5t-29.5 -12t-29.5 12t-12 29q0 12 5.5 21.5t15 15t20.5 5.5z" />
<glyph unicode="&#xd0;" horiz-adv-x="734" d="M311 725q169 0 266.5 -94t97.5 -268.5t-97.5 -268.5t-266.5 -94h-204v350h-88v47h88v328h204zM362 350h-204v-303h147q100 0 170.5 35t109 106t38.5 175q0 155 -83.5 235t-234.5 80h-147v-281h204v-47z" />
<glyph unicode="&#xd1;" horiz-adv-x="740" d="M148 725l447 -640v640h51v-725h-50l-451 644v-644h-50v725h53zM488 927h39v-18q0 -43 -23 -69t-60 -26q-25 0 -46.5 12t-33.5 26.5t-27.5 26.5t-31.5 12q-22 0 -34 -15.5t-12 -41.5v-15h-40v17q0 44 23.5 70t60.5 26q25 0 46.5 -12t33 -26.5t27.5 -26.5t32 -12 q21 0 33.5 15.5t12.5 41.5v15z" />
<glyph unicode="&#xd2;" horiz-adv-x="766" d="M383 734q145 0 234.5 -103.5t89.5 -268t-89.5 -268t-234.5 -103.5t-234 103.5t-89 268t89 268t234 103.5zM383 39q124 0 198 89t74 234.5t-74 234.5t-198 89t-198 -89t-74 -234.5t74 -234.5t198 -89zM262 947h55l95 -147h-53z" />
<glyph unicode="&#xd3;" horiz-adv-x="766" d="M383 734q145 0 234.5 -103.5t89.5 -268t-89.5 -268t-234.5 -103.5t-234 103.5t-89 268t89 268t234 103.5zM383 39q124 0 198 89t74 234.5t-74 234.5t-198 89t-198 -89t-74 -234.5t74 -234.5t198 -89zM505 947l-98 -147h-53l95 147h56z" />
<glyph unicode="&#xd4;" horiz-adv-x="766" d="M383 734q145 0 234.5 -103.5t89.5 -268t-89.5 -268t-234.5 -103.5t-234 103.5t-89 268t89 268t234 103.5zM383 39q124 0 198 89t74 234.5t-74 234.5t-198 89t-198 -89t-74 -234.5t74 -234.5t198 -89zM282 800h-55l130 147h52l131 -147h-56l-101 109z" />
<glyph unicode="&#xd5;" horiz-adv-x="766" d="M383 734q145 0 234.5 -103.5t89.5 -268t-89.5 -268t-234.5 -103.5t-234 103.5t-89 268t89 268t234 103.5zM383 39q124 0 198 89t74 234.5t-74 234.5t-198 89t-198 -89t-74 -234.5t74 -234.5t198 -89zM497 927h40v-18q0 -43 -23.5 -69t-60.5 -26q-25 0 -46.5 12t-33 26.5 t-27.5 26.5t-32 12q-21 0 -33.5 -15.5t-12.5 -41.5v-15h-39v17q0 29 10.5 51t29.5 33.5t43 11.5q25 0 46.5 -12t33.5 -26.5t27.5 -26.5t31.5 -12q22 0 34 15.5t12 41.5v15z" />
<glyph unicode="&#xd6;" horiz-adv-x="766" d="M383 734q145 0 234.5 -103.5t89.5 -268t-89.5 -268t-234.5 -103.5t-234 103.5t-89 268t89 268t234 103.5zM383 39q124 0 198 89t74 234.5t-74 234.5t-198 89t-198 -89t-74 -234.5t74 -234.5t198 -89zM281 914q17 0 29 -12t12 -29.5t-12 -29.5t-29 -12q-11 0 -20.5 5.5 t-15 15t-5.5 20.5q0 9 3.5 17t9 13t13 8.5t15.5 3.5zM485 914q17 0 29 -12t12 -29.5t-12 -29.5t-29 -12t-29 12t-12 29q0 9 3 17t9 13t13.5 8.5t15.5 3.5z" />
<glyph unicode="&#xd7;" d="M525 99l-33 -31l-178 177l-176 -177l-34 31l178 178l-178 178l33 32l177 -178l178 178l32 -32l-178 -178z" />
<glyph unicode="&#xd8;" horiz-adv-x="766" d="M684 762l-80 -117q49 -50 76 -122.5t27 -159.5q0 -165 -89.5 -268.5t-234.5 -103.5q-106 0 -186 58l-60 -86h-55l80 116q-49 50 -75.5 123t-26.5 161q0 164 89 267.5t234 103.5q106 0 187 -59l59 87h55zM111 363q0 -154 80 -241l351 512q-68 52 -159 52q-124 0 -198 -89 t-74 -234zM383 39q124 0 198 89t74 235q0 152 -79 241l-351 -514q64 -51 158 -51z" />
<glyph unicode="&#xd9;" horiz-adv-x="727" d="M90 278v447h50v-446q0 -115 61.5 -177.5t162.5 -62.5t162 62.5t61 177.5v446h51v-447q0 -137 -76 -212t-198.5 -75t-198 75t-75.5 212zM242 947h56l94 -147h-52z" />
<glyph unicode="&#xda;" horiz-adv-x="727" d="M90 278v447h50v-446q0 -115 61.5 -177.5t162.5 -62.5t162 62.5t61 177.5v446h51v-447q0 -137 -76 -212t-198.5 -75t-198 75t-75.5 212zM485 947l-98 -147h-52l95 147h55z" />
<glyph unicode="&#xdb;" horiz-adv-x="727" d="M90 278v447h50v-446q0 -115 61.5 -177.5t162.5 -62.5t162 62.5t61 177.5v446h51v-447q0 -137 -76 -212t-198.5 -75t-198 75t-75.5 212zM263 800h-56l131 147h51l131 -147h-55l-101 109z" />
<glyph unicode="&#xdc;" horiz-adv-x="727" d="M90 278v447h50v-446q0 -115 61.5 -177.5t162.5 -62.5t162 62.5t61 177.5v446h51v-447q0 -137 -76 -212t-198.5 -75t-198 75t-75.5 212zM262 914q17 0 29 -12t12 -29.5t-12 -29.5t-29.5 -12t-29.5 12t-12 29q0 12 6 21.5t15 15t21 5.5zM465.5 914q17.5 0 29.5 -12 t12 -29.5t-12 -29.5t-29.5 -12t-29.5 12t-12 29.5t12 29.5t29.5 12z" />
<glyph unicode="&#xdd;" horiz-adv-x="638" d="M345 0h-50v300l-273 425h58l239 -375l239 375h59l-272 -423v-302zM441 947l-98 -147h-53l95 147h56z" />
<glyph unicode="&#xde;" horiz-adv-x="612" d="M145 0h-50v725h50v-144h184q104 0 166.5 -58.5t62.5 -151.5t-63 -152t-164 -59h-186v-160zM323 534h-178v-327h179q83 0 133 44.5t50 119.5t-50 119t-134 44z" />
<glyph unicode="&#xdf;" horiz-adv-x="590" d="M83 0v516q0 108 60.5 170t157.5 62q90 0 144.5 -53.5t54.5 -130.5q0 -64 -32 -105.5t-80 -55.5q27 -6 52 -19.5t47.5 -36t36.5 -58.5t14 -80q0 -95 -64.5 -152t-175.5 -57h-73v44h70q90 0 141.5 45t51.5 121q0 77 -50.5 121.5t-137.5 44.5h-58v44h48q77 0 118.5 40 t41.5 102q0 61 -41 100.5t-108 39.5q-76 0 -122.5 -49t-46.5 -140v-513h-49z" />
<glyph unicode="&#xe0;" horiz-adv-x="539" d="M414 347q0 34 -10.5 60t-30 43t-46 25.5t-58.5 8.5q-24 0 -45 -4.5t-37.5 -13t-30 -20.5t-23 -26.5t-15.5 -31.5h-47q15 62 68 101t131 39q87 0 139 -47.5t52 -133.5v-347h-45v80q-28 -42 -77 -65.5t-111 -23.5q-76 0 -127 41.5t-51 110.5q0 71 53 112t147 41h164v51z M233 35q79 0 130 43t51 116v58h-162q-72 0 -112 -28t-40 -81q0 -49 37.5 -78.5t95.5 -29.5zM149 749h56l95 -146h-53z" />
<glyph unicode="&#xe1;" horiz-adv-x="539" d="M414 347q0 34 -10.5 60t-30 43t-46 25.5t-58.5 8.5q-24 0 -45 -4.5t-37.5 -13t-30 -20.5t-23 -26.5t-15.5 -31.5h-47q15 62 68 101t131 39q87 0 139 -47.5t52 -133.5v-347h-45v80q-28 -42 -77 -65.5t-111 -23.5q-76 0 -127 41.5t-51 110.5q0 71 53 112t147 41h164v51z M233 35q79 0 130 43t51 116v58h-162q-72 0 -112 -28t-40 -81q0 -49 37.5 -78.5t95.5 -29.5zM392 749l-97 -146h-53l95 146h55z" />
<glyph unicode="&#xe2;" horiz-adv-x="539" d="M414 347q0 34 -10.5 60t-30 43t-46 25.5t-58.5 8.5q-24 0 -45 -4.5t-37.5 -13t-30 -20.5t-23 -26.5t-15.5 -31.5h-47q15 62 68 101t131 39q87 0 139 -47.5t52 -133.5v-347h-45v80q-28 -42 -77 -65.5t-111 -23.5q-76 0 -127 41.5t-51 110.5q0 71 53 112t147 41h164v51z M233 35q79 0 130 43t51 116v58h-162q-72 0 -112 -28t-40 -81q0 -49 37.5 -78.5t95.5 -29.5zM175 603h-56l126 146h52l125 -146h-55l-96 109z" />
<glyph unicode="&#xe3;" horiz-adv-x="539" d="M414 347q0 34 -10.5 60t-30 43t-46 25.5t-58.5 8.5q-24 0 -45 -4.5t-37.5 -13t-30 -20.5t-23 -26.5t-15.5 -31.5h-47q15 62 68 101t131 39q87 0 139 -47.5t52 -133.5v-347h-45v80q-28 -42 -77 -65.5t-111 -23.5q-76 0 -127 41.5t-51 110.5q0 71 53 112t147 41h164v51z M233 35q79 0 130 43t51 116v58h-162q-72 0 -112 -28t-40 -81q0 -49 37.5 -78.5t95.5 -29.5zM380 729h39v-16q0 -44 -22 -70.5t-59 -26.5q-25 0 -45.5 12t-31.5 26.5t-26 26.5t-30 12q-21 0 -32.5 -15t-11.5 -41v-16h-39v17q0 44 22 70t59 26q25 0 45.5 -12t31.5 -26.5 t26 -26.5t30 -12q8 0 15.5 2.5t12.5 7.5t8.5 12t5.5 15.5t2 19.5v15z" />
<glyph unicode="&#xe4;" horiz-adv-x="539" d="M414 347q0 34 -10.5 60t-30 43t-46 25.5t-58.5 8.5q-24 0 -45 -4.5t-37.5 -13t-30 -20.5t-23 -26.5t-15.5 -31.5h-47q15 62 68 101t131 39q87 0 139 -47.5t52 -133.5v-347h-45v80q-28 -42 -77 -65.5t-111 -23.5q-76 0 -127 41.5t-51 110.5q0 71 53 112t147 41h164v51z M233 35q79 0 130 43t51 116v58h-162q-72 0 -112 -28t-40 -81q0 -49 37.5 -78.5t95.5 -29.5zM173 716q17 0 29 -12t12 -29.5t-12 -29.5t-29 -12t-29 12t-12 30q0 7 2 13t6 11t9 9t11 6t13 2zM369 716q17 0 29 -12t12 -29.5t-12 -29.5t-29 -12t-29 12t-12 29.5t12 29.5t29 12z " />
<glyph unicode="&#xe5;" horiz-adv-x="539" d="M414 347q0 34 -10.5 60t-30 43t-46 25.5t-58.5 8.5q-24 0 -45 -4.5t-37.5 -13t-30 -20.5t-23 -26.5t-15.5 -31.5h-47q15 62 68 101t131 39q87 0 139 -47.5t52 -133.5v-347h-45v80q-28 -42 -77 -65.5t-111 -23.5q-76 0 -127 41.5t-51 110.5q0 71 53 112t147 41h164v51z M233 35q79 0 130 43t51 116v58h-162q-72 0 -112 -28t-40 -81q0 -49 37.5 -78.5t95.5 -29.5zM366 681q0 -39 -27.5 -66t-66.5 -27q-40 0 -67.5 27t-27.5 66q0 25 12.5 46.5t34.5 34t48 12.5t47.5 -12.5t34 -34t12.5 -46.5zM215 680.5q0 -24.5 16.5 -40.5t40.5 -16 q23 0 39.5 16.5t16.5 40.5t-16.5 40t-39.5 16q-24 0 -40.5 -16t-16.5 -40.5z" />
<glyph unicode="&#xe6;" horiz-adv-x="917" d="M270 528q44 0 80 -13t61 -39.5t37 -63.5q30 56 81 86t116 30t114.5 -29t77.5 -85.5t28 -133.5v-30h-404v-5q0 -95 53.5 -152t135.5 -57q42 0 76.5 14.5t53.5 35.5t28 46h49q-16 -58 -68.5 -99.5t-138.5 -41.5q-69 0 -123.5 33t-83.5 94q-25 -59 -82 -93t-132 -34 q-77 0 -128 41t-51 110q0 70 53 111t147 41h164v53q0 34 -10.5 60t-30 43t-46 25.5t-58.5 8.5q-24 0 -45 -4.5t-37.5 -13t-30 -20.5t-23 -26.5t-15.5 -31.5h-47q15 62 68.5 101t130.5 39zM233 35q79 0 130 44t51 111v60h-162q-72 0 -112 -28.5t-40 -79.5q0 -49 37 -78 t96 -29zM644 483q-78 0 -127 -51.5t-55 -137.5h354q-2 90 -48 139.5t-124 49.5z" />
<glyph unicode="&#xe7;" horiz-adv-x="553" d="M289 36q72 0 114 37t54 88h49q-11 -68 -65 -116.5t-137 -52.5l-18 -54q23 0 41.5 -9.5t30.5 -27.5t12 -42q0 -38 -27 -62.5t-79 -24.5h-49v38h48q20 0 34.5 6.5t21 17.5t6.5 26q0 22 -15.5 34t-44.5 12h-25v15l24 71q-93 9 -152 81t-59 187q0 121 67 194.5t169 73.5 q88 0 145.5 -49t71.5 -119h-49q-15 53 -58.5 88t-109.5 35q-81 0 -134 -60.5t-53 -162.5q0 -69 25.5 -120.5t67.5 -77.5t94 -26z" />
<glyph unicode="&#xe8;" horiz-adv-x="559" d="M507 248h-404v-3q0 -95 53 -152t134 -57q63 0 104 28t55 68h50q-16 -58 -69.5 -99.5t-139.5 -41.5q-67 0 -120.5 31t-85 92.5t-31.5 145.5q0 123 65 195.5t167 72.5q100 0 161 -66.5t61 -183.5v-30zM285 483q-77 0 -127 -52t-55 -140h354q0 46 -12.5 82.5t-35 60.5 t-54 36.5t-70.5 12.5zM164 749h55l95 -146h-52z" />
<glyph unicode="&#xe9;" horiz-adv-x="559" d="M507 248h-404v-3q0 -95 53 -152t134 -57q63 0 104 28t55 68h50q-16 -58 -69.5 -99.5t-139.5 -41.5q-67 0 -120.5 31t-85 92.5t-31.5 145.5q0 123 65 195.5t167 72.5q100 0 161 -66.5t61 -183.5v-30zM285 483q-77 0 -127 -52t-55 -140h354q0 46 -12.5 82.5t-35 60.5 t-54 36.5t-70.5 12.5zM407 749l-98 -146h-53l95 146h56z" />
<glyph unicode="&#xea;" horiz-adv-x="559" d="M507 248h-404v-3q0 -95 53 -152t134 -57q63 0 104 28t55 68h50q-16 -58 -69.5 -99.5t-139.5 -41.5q-67 0 -120.5 31t-85 92.5t-31.5 145.5q0 123 65 195.5t167 72.5q100 0 161 -66.5t61 -183.5v-30zM285 483q-77 0 -127 -52t-55 -140h354q0 46 -12.5 82.5t-35 60.5 t-54 36.5t-70.5 12.5zM190 603h-56l126 146h51l126 -146h-56l-96 109z" />
<glyph unicode="&#xeb;" horiz-adv-x="559" d="M507 248h-404v-3q0 -95 53 -152t134 -57q63 0 104 28t55 68h50q-16 -58 -69.5 -99.5t-139.5 -41.5q-67 0 -120.5 31t-85 92.5t-31.5 145.5q0 123 65 195.5t167 72.5q100 0 161 -66.5t61 -183.5v-30zM285 483q-77 0 -127 -52t-55 -140h354q0 46 -12.5 82.5t-35 60.5 t-54 36.5t-70.5 12.5zM187 716q18 0 30 -12t12 -29.5t-12 -29.5t-29.5 -12t-29.5 12t-12 30q0 8 3.5 16t9 13.5t13 8.5t15.5 3zM383 716q17 0 29 -12t12 -29.5t-12 -29.5t-29 -12t-29 12t-12 29.5t12 29.5t29 12z" />
<glyph unicode="&#xec;" horiz-adv-x="215" d="M132 519v-519h-49v519h49zM-14 749h55l95 -146h-53z" />
<glyph unicode="&#xed;" horiz-adv-x="215" d="M132 519v-519h-49v519h49zM231 749l-98 -146h-53l95 146h56z" />
<glyph unicode="&#xee;" horiz-adv-x="215" d="M132 519v-519h-49v519h49zM21 603h-55l116 146h52l116 -146h-54l-88 108z" />
<glyph unicode="&#xef;" horiz-adv-x="215" d="M132 519v-519h-49v519h49zM17.5 716q17.5 0 29.5 -12t12 -29.5t-12 -29.5t-29.5 -12t-29.5 12t-12 29.5t12 29.5t29.5 12zM199 716q17 0 29 -12t12 -29.5t-12 -29.5t-29 -12t-29 12t-12 30q0 8 3 16t8.5 13.5t13 8.5t16.5 3z" />
<glyph unicode="&#xf0;" horiz-adv-x="595" d="M274 749q50 -34 83 -64l128 50v-41l-98 -39q147 -153 147 -378q0 -131 -65.5 -208.5t-178.5 -77.5q-73 0 -128 37t-82 96t-27 130q0 117 66 190t169 73q119 0 181 -86q-31 111 -124 208l-130 -52v41l100 39q-43 39 -107 82h66zM291 36q89 0 141 62t52 158 q0 102 -54.5 159t-138.5 57q-85 0 -137 -61.5t-52 -156.5q0 -60 21 -109t65 -79t103 -30z" />
<glyph unicode="&#xf1;" horiz-adv-x="579" d="M83 519h47v-81q25 42 73.5 66t104.5 24q82 0 138 -50.5t56 -148.5v-329h-49v321q0 42 -11.5 73.5t-32.5 50.5t-48 28.5t-59 9.5t-61.5 -10t-54 -30t-39.5 -53.5t-15 -76.5v-313h-49v519zM404 729h39v-16q0 -29 -10 -51t-28.5 -34t-42.5 -12q-25 0 -45.5 12t-32 26.5 t-26 26.5t-29.5 12q-22 0 -33.5 -15t-11.5 -41v-16h-39v17q0 44 22.5 70t59.5 26q25 0 45 -12t31.5 -26.5t26 -26.5t29.5 -12q22 0 33.5 15t11.5 42v15z" />
<glyph unicode="&#xf2;" horiz-adv-x="585" d="M292.5 528q107.5 0 174 -74.5t66.5 -194t-66.5 -194t-173.5 -74.5q-54 0 -98.5 19.5t-76 54.5t-48.5 85t-17 110q0 119 66 193.5t173.5 74.5zM292.5 36q85.5 0 138 61t52.5 162.5t-52.5 162.5t-138 61t-138 -61t-52.5 -162.5t52.5 -162.5t138 -61zM171 749h56l94 -146 h-52z" />
<glyph unicode="&#xf3;" horiz-adv-x="585" d="M292.5 528q107.5 0 174 -74.5t66.5 -194t-66.5 -194t-173.5 -74.5q-54 0 -98.5 19.5t-76 54.5t-48.5 85t-17 110q0 119 66 193.5t173.5 74.5zM292.5 36q85.5 0 138 61t52.5 162.5t-52.5 162.5t-138 61t-138 -61t-52.5 -162.5t52.5 -162.5t138 -61zM414 749l-98 -146h-52 l94 146h56z" />
<glyph unicode="&#xf4;" horiz-adv-x="585" d="M292.5 528q107.5 0 174 -74.5t66.5 -194t-66.5 -194t-173.5 -74.5q-54 0 -98.5 19.5t-76 54.5t-48.5 85t-17 110q0 119 66 193.5t173.5 74.5zM292.5 36q85.5 0 138 61t52.5 162.5t-52.5 162.5t-138 61t-138 -61t-52.5 -162.5t52.5 -162.5t138 -61zM197 603h-56l126 146 h51l126 -146h-56l-95 109z" />
<glyph unicode="&#xf5;" horiz-adv-x="585" d="M292.5 528q107.5 0 174 -74.5t66.5 -194t-66.5 -194t-173.5 -74.5q-54 0 -98.5 19.5t-76 54.5t-48.5 85t-17 110q0 119 66 193.5t173.5 74.5zM292.5 36q85.5 0 138 61t52.5 162.5t-52.5 162.5t-138 61t-138 -61t-52.5 -162.5t52.5 -162.5t138 -61zM402 729h39v-16 q0 -44 -22 -70.5t-60 -26.5q-25 0 -45 12t-31.5 26.5t-26 26.5t-29.5 12q-22 0 -33.5 -15t-11.5 -41v-16h-39v17q0 44 22 70t60 26q25 0 45 -12t31.5 -26.5t26 -26.5t29.5 -12q9 0 16 2.5t12.5 7.5t9 12t5.5 15.5t2 19.5v15z" />
<glyph unicode="&#xf6;" horiz-adv-x="585" d="M292.5 528q107.5 0 174 -74.5t66.5 -194t-66.5 -194t-173.5 -74.5q-54 0 -98.5 19.5t-76 54.5t-48.5 85t-17 110q0 119 66 193.5t173.5 74.5zM292.5 36q85.5 0 138 61t52.5 162.5t-52.5 162.5t-138 61t-138 -61t-52.5 -162.5t52.5 -162.5t138 -61zM195 716q17 0 29 -12 t12 -29.5t-12 -29.5t-29 -12q-12 0 -21 5.5t-15 15t-6 21.5q0 8 3.5 16t9 13.5t13 8.5t16.5 3zM390.5 716q17.5 0 29.5 -12t12 -29.5t-12 -29.5t-29.5 -12t-29.5 12t-12 29.5t12 29.5t29.5 12z" />
<glyph unicode="&#xf7;" d="M314 516q17 0 29 -12.5t12 -29.5t-12 -29t-29 -12q-11 0 -21 5.5t-15.5 15t-5.5 20.5q0 18 12 30t30 12zM552 253h-474v48h474v-48zM314 121q17 0 29 -12.5t12 -30.5q0 -11 -5.5 -20.5t-15 -15t-20.5 -5.5t-21 5.5t-15.5 15t-5.5 20.5q0 18 12 30.5t30 12.5z" />
<glyph unicode="&#xf8;" horiz-adv-x="585" d="M517 558l-62 -92q78 -76 78 -206q0 -120 -66.5 -194.5t-173.5 -74.5q-75 0 -130 36l-44 -66h-51l62 93q-77 74 -77 206q0 119 66 193.5t174 74.5q71 0 128 -36l45 66h51zM102 260q0 -105 55 -166l239 359q-45 30 -103 30q-86 0 -138.5 -61t-52.5 -162zM293 36 q85 0 137.5 61t52.5 163q0 103 -55 164l-238 -358q44 -30 103 -30z" />
<glyph unicode="&#xf9;" horiz-adv-x="579" d="M496 0h-46v80q-26 -42 -74 -65.5t-104 -23.5q-82 0 -138 50.5t-56 149.5v328h49v-321q0 -81 42 -121.5t109 -40.5q32 0 61.5 10t54 30t39.5 53.5t15 76.5v313h48v-519zM168 749h56l94 -146h-52z" />
<glyph unicode="&#xfa;" horiz-adv-x="579" d="M496 0h-46v80q-26 -42 -74 -65.5t-104 -23.5q-82 0 -138 50.5t-56 149.5v328h49v-321q0 -81 42 -121.5t109 -40.5q32 0 61.5 10t54 30t39.5 53.5t15 76.5v313h48v-519zM411 749l-98 -146h-52l94 146h56z" />
<glyph unicode="&#xfb;" horiz-adv-x="579" d="M496 0h-46v80q-26 -42 -74 -65.5t-104 -23.5q-82 0 -138 50.5t-56 149.5v328h49v-321q0 -81 42 -121.5t109 -40.5q32 0 61.5 10t54 30t39.5 53.5t15 76.5v313h48v-519zM194 603h-56l126 146h51l126 -146h-56l-96 109z" />
<glyph unicode="&#xfc;" horiz-adv-x="579" d="M496 0h-46v80q-26 -42 -74 -65.5t-104 -23.5q-82 0 -138 50.5t-56 149.5v328h49v-321q0 -81 42 -121.5t109 -40.5q32 0 61.5 10t54 30t39.5 53.5t15 76.5v313h48v-519zM192 716q17 0 29 -12t12 -29.5t-12 -29.5t-29.5 -12t-29.5 12t-12 30q0 8 3.5 16t9 13.5t13 8.5 t16.5 3zM387 716q17 0 29 -12t12 -29.5t-12 -29.5t-29 -12t-29 12t-12 29.5t12 29.5t29 12z" />
<glyph unicode="&#xfd;" horiz-adv-x="521" d="M447 519h53l-297 -716h-53l85 204l-213 512h52l187 -453zM383 749l-98 -146h-52l95 146h55z" />
<glyph unicode="&#xfe;" horiz-adv-x="604" d="M319 528q99 0 166 -71.5t67 -196.5q0 -126 -66.5 -197.5t-167.5 -71.5q-62 0 -110.5 28t-75.5 76v-292h-49v946h49v-326q27 50 76 77.5t111 27.5zM316 36q84 0 135.5 61.5t51.5 162.5t-52 162t-135 61q-82 0 -134 -59.5t-52 -155.5v-17q0 -94 51.5 -154.5t134.5 -60.5z " />
<glyph unicode="&#xff;" horiz-adv-x="521" d="M447 519h53l-297 -716h-53l85 204l-213 512h52l187 -453zM164 716q17 0 29 -12t12 -29.5t-12 -29.5t-29 -12t-29 12t-12 30q0 11 5.5 20.5t15 15t20.5 5.5zM359.5 716q17.5 0 29.5 -12t12 -29.5t-12 -29.5t-29.5 -12t-29.5 12t-12 29.5t12 29.5t29.5 12z" />
<glyph unicode="&#x100;" horiz-adv-x="667" d="M308 725h51l282 -725h-55l-83 217h-339l-83 -217h-54zM333 661l-152 -397h304zM192 895h286v-43h-286v43z" />
<glyph unicode="&#x101;" horiz-adv-x="539" d="M414 347q0 34 -10.5 60t-30 43t-46 25.5t-58.5 8.5q-24 0 -45 -4.5t-37.5 -13t-30 -20.5t-23 -26.5t-15.5 -31.5h-47q15 62 68 101t131 39q87 0 139 -47.5t52 -133.5v-347h-45v80q-28 -42 -77 -65.5t-111 -23.5q-76 0 -127 41.5t-51 110.5q0 71 53 112t147 41h164v51z M233 35q79 0 130 43t51 116v58h-162q-72 0 -112 -28t-40 -81q0 -49 37.5 -78.5t95.5 -29.5zM133 697h276v-43h-276v43z" />
<glyph unicode="&#x102;" horiz-adv-x="667" d="M308 725h51l282 -725h-55l-83 217h-339l-83 -217h-54zM333 661l-152 -397h304zM230 947q0 -48 29 -78t75.5 -30t76 30t29.5 78h45q-1 -68 -43 -108.5t-107 -40.5t-107.5 41t-43.5 108h46z" />
<glyph unicode="&#x103;" horiz-adv-x="539" d="M414 347q0 34 -10.5 60t-30 43t-46 25.5t-58.5 8.5q-24 0 -45 -4.5t-37.5 -13t-30 -20.5t-23 -26.5t-15.5 -31.5h-47q15 62 68 101t131 39q87 0 139 -47.5t52 -133.5v-347h-45v80q-28 -42 -77 -65.5t-111 -23.5q-76 0 -127 41.5t-51 110.5q0 71 53 112t147 41h164v51z M233 35q79 0 130 43t51 116v58h-162q-72 0 -112 -28t-40 -81q0 -49 37.5 -78.5t95.5 -29.5zM171 749q0 -32 12 -56t34.5 -37.5t53.5 -13.5q46 0 73 29t27 78h45q-1 -68 -40.5 -108.5t-104.5 -40.5t-105 40.5t-40 108.5h45z" />
<glyph unicode="&#x104;" horiz-adv-x="667" d="M308 725h51l282 -725q-37 -20 -63.5 -49t-26.5 -62q0 -19 8 -32t24 -20t38 -7h32v-40h-40q-52 0 -80 24.5t-28 64.5q0 37 23 70.5t56 54.5l-81 213h-339l-83 -217h-54zM333 661l-152 -397h304z" />
<glyph unicode="&#x105;" horiz-adv-x="539" d="M414 347q0 34 -10.5 60t-30 43t-46 25.5t-58.5 8.5q-24 0 -45 -4.5t-37.5 -13t-30 -20.5t-23 -26.5t-15.5 -31.5h-47q15 62 68 101t131 39q87 0 139 -47.5t52 -133.5v-347q-23 -12 -42 -28t-33 -38t-14 -45q0 -19 8 -32t23.5 -20t38.5 -7h32v-40h-40q-35 0 -59.5 11.5 t-37 31.5t-12.5 46q0 41 27 76t64 56v69q-28 -42 -77 -65.5t-111 -23.5q-76 0 -127 41.5t-51 110.5q0 71 53 112t147 41h164v51zM233 35q79 0 130 43t51 116v58h-162q-72 0 -112 -28t-40 -81q0 -49 37.5 -78.5t95.5 -29.5z" />
<glyph unicode="&#x106;" horiz-adv-x="723" d="M617 219h51q-7 -43 -28.5 -82.5t-56 -73t-88 -53t-117.5 -19.5q-138 0 -228 101.5t-90 270.5q0 166 88.5 268.5t228.5 102.5q117 0 194.5 -65t94.5 -161h-51q-19 76 -80 127t-158 51q-119 0 -192.5 -88.5t-73.5 -234.5q0 -149 75 -236.5t192 -87.5q101 0 163 53.5 t76 126.5zM499 947l-98 -147h-53l95 147h56z" />
<glyph unicode="&#x107;" horiz-adv-x="553" d="M289 36q72 0 114 37t54 88h49q-11 -70 -69.5 -120t-147.5 -50q-101 0 -168.5 73t-67.5 196q0 121 67 194.5t169 73.5q88 0 145.5 -49t71.5 -119h-49q-15 53 -58.5 88t-109.5 35q-81 0 -134 -60.5t-53 -162.5q0 -69 25.5 -120.5t67.5 -77.5t94 -26zM411 749l-98 -146h-52 l94 146h56z" />
<glyph unicode="&#x108;" horiz-adv-x="723" d="M617 219h51q-7 -43 -28.5 -82.5t-56 -73t-88 -53t-117.5 -19.5q-138 0 -228 101.5t-90 270.5q0 166 88.5 268.5t228.5 102.5q117 0 194.5 -65t94.5 -161h-51q-19 76 -80 127t-158 51q-119 0 -192.5 -88.5t-73.5 -234.5q0 -149 75 -236.5t192 -87.5q101 0 163 53.5 t76 126.5zM276 800h-56l131 147h52l131 -147h-56l-101 109z" />
<glyph unicode="&#x109;" horiz-adv-x="553" d="M289 36q72 0 114 37t54 88h49q-11 -70 -69.5 -120t-147.5 -50q-101 0 -168.5 73t-67.5 196q0 121 67 194.5t169 73.5q88 0 145.5 -49t71.5 -119h-49q-15 53 -58.5 88t-109.5 35q-81 0 -134 -60.5t-53 -162.5q0 -69 25.5 -120.5t67.5 -77.5t94 -26zM194 603h-56l126 146 h51l126 -146h-56l-96 109z" />
<glyph unicode="&#x10a;" horiz-adv-x="723" d="M617 219h51q-7 -43 -28.5 -82.5t-56 -73t-88 -53t-117.5 -19.5q-138 0 -228 101.5t-90 270.5q0 166 88.5 268.5t228.5 102.5q117 0 194.5 -65t94.5 -161h-51q-19 76 -80 127t-158 51q-119 0 -192.5 -88.5t-73.5 -234.5q0 -149 75 -236.5t192 -87.5q101 0 163 53.5 t76 126.5zM378 914q17 0 29 -12t12 -29.5t-12 -29.5t-29 -12t-29 12t-12 29q0 7 2 13.5t6 11.5t9 9t11 6t13 2z" />
<glyph unicode="&#x10b;" horiz-adv-x="553" d="M289 36q72 0 114 37t54 88h49q-11 -70 -69.5 -120t-147.5 -50q-101 0 -168.5 73t-67.5 196q0 121 67 194.5t169 73.5q88 0 145.5 -49t71.5 -119h-49q-15 53 -58.5 88t-109.5 35q-81 0 -134 -60.5t-53 -162.5q0 -69 25.5 -120.5t67.5 -77.5t94 -26zM290.5 716 q17.5 0 29.5 -12t12 -29.5t-12 -29.5t-29.5 -12t-29.5 12t-12 29.5t12 29.5t29.5 12z" />
<glyph unicode="&#x10c;" horiz-adv-x="723" d="M617 219h51q-7 -43 -28.5 -82.5t-56 -73t-88 -53t-117.5 -19.5q-138 0 -228 101.5t-90 270.5q0 166 88.5 268.5t228.5 102.5q117 0 194.5 -65t94.5 -161h-51q-19 76 -80 127t-158 51q-119 0 -192.5 -88.5t-73.5 -234.5q0 -149 75 -236.5t192 -87.5q101 0 163 53.5 t76 126.5zM276 947l101 -110l101 110h56l-131 -147h-52l-131 147h56z" />
<glyph unicode="&#x10d;" horiz-adv-x="553" d="M289 36q72 0 114 37t54 88h49q-11 -70 -69.5 -120t-147.5 -50q-101 0 -168.5 73t-67.5 196q0 121 67 194.5t169 73.5q88 0 145.5 -49t71.5 -119h-49q-15 53 -58.5 88t-109.5 35q-81 0 -134 -60.5t-53 -162.5q0 -69 25.5 -120.5t67.5 -77.5t94 -26zM194 749l95 -109 l96 109h56l-126 -146h-51l-126 146h56z" />
<glyph unicode="&#x10e;" horiz-adv-x="722" d="M299 725q168 0 265.5 -94t97.5 -268.5t-97.5 -268.5t-265.5 -94h-204v725h204zM293 47q100 0 170.5 35t109 106t38.5 175q0 155 -83.5 235t-234.5 80h-148v-631h148zM218 947l101 -110l101 110h56l-131 -147h-51l-131 147h55z" />
<glyph unicode="&#x10f;" horiz-adv-x="674" d="M285 -9q-98 0 -165 71.5t-67 197.5q0 125 66 196.5t167 71.5q62 0 111 -27.5t77 -76.5v325h48v-749h-46v99q-28 -51 -77.5 -79.5t-113.5 -28.5zM288.5 483q-83.5 0 -135 -61.5t-51.5 -161.5q0 -67 24 -118t66 -78.5t96 -27.5q82 0 135 59.5t53 155.5v17q0 94 -52 154.5 t-135.5 60.5zM679 713q0 -10 -6 -28l-47 -135h-40l42 128q-14 2 -23.5 11.5t-9.5 25.5q0 9 3.5 16t8.5 12t12.5 8t16.5 3q11 0 21 -5t16 -14.5t6 -21.5z" />
<glyph unicode="&#x110;" horiz-adv-x="734" d="M311 725q169 0 266.5 -94t97.5 -268.5t-97.5 -268.5t-266.5 -94h-204v350h-88v47h88v328h204zM362 350h-204v-303h147q100 0 170.5 35t109 106t38.5 175q0 155 -83.5 235t-234.5 80h-147v-281h204v-47z" />
<glyph unicode="&#x111;" horiz-adv-x="608" d="M321 673h153v76h48v-76h77v-43h-77v-630h-46v99q-28 -51 -77.5 -79.5t-113.5 -28.5q-98 0 -165 71.5t-67 197.5q0 125 66 196.5t167 71.5q62 0 111 -27.5t77 -76.5v206h-153v43zM288.5 483q-83.5 0 -135 -61.5t-51.5 -161.5q0 -67 24 -118t66 -78.5t96 -27.5 q82 0 135 59.5t53 155.5v17q0 94 -52 154.5t-135.5 60.5z" />
<glyph unicode="&#x112;" horiz-adv-x="600" d="M536 678h-391v-281h371v-47h-371v-303h391v-47h-441v725h441v-47zM175 895h286v-43h-286v43z" />
<glyph unicode="&#x113;" horiz-adv-x="559" d="M507 248h-404v-3q0 -95 53 -152t134 -57q63 0 104 28t55 68h50q-16 -58 -69.5 -99.5t-139.5 -41.5q-67 0 -120.5 31t-85 92.5t-31.5 145.5q0 123 65 195.5t167 72.5q100 0 161 -66.5t61 -183.5v-30zM285 483q-77 0 -127 -52t-55 -140h354q0 46 -12.5 82.5t-35 60.5 t-54 36.5t-70.5 12.5zM147 697h276v-43h-276v43z" />
<glyph unicode="&#x116;" horiz-adv-x="600" d="M536 678h-391v-281h371v-47h-371v-303h391v-47h-441v725h441v-47zM319 914q17 0 29 -12t12 -29.5t-12 -29.5t-29 -12t-29 12t-12 29q0 9 3.5 17t9 13t13 8.5t15.5 3.5z" />
<glyph unicode="&#x117;" horiz-adv-x="559" d="M507 248h-404v-3q0 -95 53 -152t134 -57q63 0 104 28t55 68h50q-16 -58 -69.5 -99.5t-139.5 -41.5q-67 0 -120.5 31t-85 92.5t-31.5 145.5q0 123 65 195.5t167 72.5q100 0 161 -66.5t61 -183.5v-30zM285 483q-77 0 -127 -52t-55 -140h354q0 46 -12.5 82.5t-35 60.5 t-54 36.5t-70.5 12.5zM286.5 716q17.5 0 29.5 -12t12 -29.5t-12 -29.5t-29.5 -12t-29.5 12t-12 29.5t12 29.5t29.5 12z" />
<glyph unicode="&#x118;" horiz-adv-x="600" d="M536 678h-391v-281h371v-47h-371v-303h391v-47q-37 -20 -63.5 -49t-26.5 -62q0 -19 8 -32t24 -20t38 -7h32v-40h-40q-52 0 -80 24.5t-28 64.5q0 35 20.5 67t52.5 54h-378v725h441v-47z" />
<glyph unicode="&#x119;" horiz-adv-x="559" d="M507 248h-404v-3q0 -95 53 -152t134 -57q63 0 104 28t55 68h50q-20 -70 -84 -109q-1 -1 -14 -9.5t-16 -11t-15 -11t-16.5 -12t-14.5 -12t-14 -14t-10.5 -14.5t-9.5 -16t-5 -16t-2 -18q0 -19 8 -32t23.5 -20t38.5 -7h32v-40h-41q-51 0 -79.5 24.5t-28.5 66.5q0 58 64 111 q-4 0 -12 -0.5t-13 -0.5q-67 0 -120.5 31t-85 92.5t-31.5 145.5q0 123 65 195.5t167 72.5q100 0 161 -66.5t61 -183.5v-30zM285 483q-77 0 -127 -52t-55 -140h354q0 46 -12.5 82.5t-35 60.5t-54 36.5t-70.5 12.5z" />
<glyph unicode="&#x11a;" horiz-adv-x="600" d="M536 678h-391v-281h371v-47h-371v-303h391v-47h-441v725h441v-47zM217 947l101 -110l101 110h56l-131 -147h-51l-131 147h55z" />
<glyph unicode="&#x11b;" horiz-adv-x="559" d="M507 248h-404v-3q0 -95 53 -152t134 -57q63 0 104 28t55 68h50q-16 -58 -69.5 -99.5t-139.5 -41.5q-67 0 -120.5 31t-85 92.5t-31.5 145.5q0 123 65 195.5t167 72.5q100 0 161 -66.5t61 -183.5v-30zM285 483q-77 0 -127 -52t-55 -140h354q0 46 -12.5 82.5t-35 60.5 t-54 36.5t-70.5 12.5zM190 749l95 -109l96 109h56l-126 -146h-51l-126 146h56z" />
<glyph unicode="&#x11c;" horiz-adv-x="742" d="M374 356h304v-55q0 -143 -78.5 -226.5t-219.5 -83.5q-143 0 -231.5 104t-88.5 268q0 166 88 268.5t232 102.5q116 0 192.5 -61.5t99.5 -158.5h-53q-23 79 -83.5 125.5t-155.5 46.5q-123 0 -196 -88t-73 -235q0 -144 74 -234t195 -90q118 0 182.5 67.5t64.5 190.5v13h-253 v46zM279 800h-55l130 147h52l131 -147h-56l-101 109z" />
<glyph unicode="&#x11d;" horiz-adv-x="604" d="M475 519h46v-505q0 -108 -62 -168t-163 -60q-89 0 -147.5 42t-68.5 107h49q8 -32 29.5 -55t57 -36t81.5 -13q80 0 128 48.5t48 134.5v88q-19 -32 -46.5 -55.5t-63.5 -36t-78 -12.5q-99 0 -165.5 71t-66.5 195q0 122 65.5 193t167.5 71q64 0 113 -28.5t76 -78.5v98z M288 43q83 0 135 59.5t52 152.5v17q0 91 -51 151t-136 60q-83 0 -134.5 -60.5t-51.5 -158.5q0 -100 51.5 -160.5t134.5 -60.5zM197 603h-56l126 146h51l126 -146h-56l-95 109z" />
<glyph unicode="&#x11e;" horiz-adv-x="742" d="M374 356h304v-55q0 -143 -78.5 -226.5t-219.5 -83.5q-143 0 -231.5 104t-88.5 268q0 166 88 268.5t232 102.5q116 0 192.5 -61.5t99.5 -158.5h-53q-23 79 -83.5 125.5t-155.5 46.5q-123 0 -196 -88t-73 -235q0 -144 74 -234t195 -90q118 0 182.5 67.5t64.5 190.5v13h-253 v46zM275 947q0 -48 29.5 -78t76 -30t75.5 30t29 78h45q0 -68 -42 -108.5t-108 -40.5q-65 0 -107.5 41t-42.5 108h45z" />
<glyph unicode="&#x11f;" horiz-adv-x="604" d="M475 519h46v-505q0 -108 -62 -168t-163 -60q-89 0 -147.5 42t-68.5 107h49q8 -32 29.5 -55t57 -36t81.5 -13q80 0 128 48.5t48 134.5v88q-19 -32 -46.5 -55.5t-63.5 -36t-78 -12.5q-99 0 -165.5 71t-66.5 195q0 122 65.5 193t167.5 71q64 0 113 -28.5t76 -78.5v98z M288 43q83 0 135 59.5t52 152.5v17q0 91 -51 151t-136 60q-83 0 -134.5 -60.5t-51.5 -158.5q0 -100 51.5 -160.5t134.5 -60.5zM193 749q0 -32 12 -56t34.5 -37.5t53.5 -13.5q45 0 72 29t27 78h46q-1 -68 -40.5 -108.5t-104.5 -40.5q-43 0 -75.5 18.5t-51 52t-19.5 78.5h46z " />
<glyph unicode="&#x120;" horiz-adv-x="742" d="M374 356h304v-55q0 -143 -78.5 -226.5t-219.5 -83.5q-143 0 -231.5 104t-88.5 268q0 166 88 268.5t232 102.5q116 0 192.5 -61.5t99.5 -158.5h-53q-23 79 -83.5 125.5t-155.5 46.5q-123 0 -196 -88t-73 -235q0 -144 74 -234t195 -90q118 0 182.5 67.5t64.5 190.5v13h-253 v46zM381 914q17 0 29 -12t12 -29.5t-12 -29.5t-29 -12t-29 12t-12 29.5t12 29.5t29 12z" />
<glyph unicode="&#x121;" horiz-adv-x="604" d="M475 519h46v-505q0 -108 -62 -168t-163 -60q-89 0 -147.5 42t-68.5 107h49q8 -32 29.5 -55t57 -36t81.5 -13q80 0 128 48.5t48 134.5v88q-19 -32 -46.5 -55.5t-63.5 -36t-78 -12.5q-99 0 -165.5 71t-66.5 195q0 122 65.5 193t167.5 71q64 0 113 -28.5t76 -78.5v98z M288 43q83 0 135 59.5t52 152.5v17q0 91 -51 151t-136 60q-83 0 -134.5 -60.5t-51.5 -158.5q0 -100 51.5 -160.5t134.5 -60.5zM293.5 716q17.5 0 29.5 -12t12 -29.5t-12 -29.5t-29.5 -12t-29.5 12t-12 29.5t12 29.5t29.5 12z" />
<glyph unicode="&#x122;" horiz-adv-x="742" d="M374 356h304v-55q0 -143 -78.5 -226.5t-219.5 -83.5q-143 0 -231.5 104t-88.5 268q0 166 88 268.5t232 102.5q116 0 192.5 -61.5t99.5 -158.5h-53q-23 79 -83.5 125.5t-155.5 46.5q-123 0 -196 -88t-73 -235q0 -144 74 -234t195 -90q118 0 182.5 67.5t64.5 190.5v13h-253 v46zM422 -103q0 -9 -6 -28l-39 -114h-40l35 107q-14 2 -23.5 12t-9.5 25q0 18 11.5 28.5t28.5 10.5q18 0 30.5 -11.5t12.5 -29.5z" />
<glyph unicode="&#x123;" horiz-adv-x="604" d="M475 519h46v-505q0 -108 -62 -168t-163 -60q-89 0 -147.5 42t-68.5 107h49q8 -32 29.5 -55t57 -36t81.5 -13q80 0 128 48.5t48 134.5v88q-19 -32 -46.5 -55.5t-63.5 -36t-78 -12.5q-99 0 -165.5 71t-66.5 195q0 122 65.5 193t167.5 71q64 0 113 -28.5t76 -78.5v98z M288 43q83 0 135 59.5t52 152.5v17q0 91 -51 151t-136 60q-83 0 -134.5 -60.5t-51.5 -158.5q0 -100 51.5 -160.5t134.5 -60.5zM250 645q0 9 6 28l40 114h40l-35 -107q14 -3 23.5 -12.5t9.5 -24.5q0 -9 -3 -16.5t-8.5 -12.5t-13 -7.5t-15.5 -2.5q-19 0 -31.5 11.5t-12.5 29.5 z" />
<glyph unicode="&#x124;" horiz-adv-x="735" d="M145 0h-50v725h50v-327h445v327h51v-725h-51v349h-445v-349zM267 800h-56l131 147h51l131 -147h-55l-101 109z" />
<glyph unicode="&#x125;" horiz-adv-x="579" d="M308 528q82 0 138 -50.5t56 -148.5v-329h-49v321q0 42 -11.5 73.5t-32.5 50.5t-48 28.5t-59 9.5t-61.5 -10t-54 -30t-39.5 -53.5t-15 -76.5v-313h-49v749h49v-308q26 40 73.5 63.5t102.5 23.5zM21 823h-55l116 146h52l116 -146h-54l-88 108z" />
<glyph unicode="&#x126;" horiz-adv-x="751" d="M153 0h-50v556h-77v47h77v122h50v-122h445v122h51v-122h77v-47h-77v-556h-51v343h-445v-343zM153 556v-165h445v165h-445z" />
<glyph unicode="&#x127;" horiz-adv-x="582" d="M9 673h78v76h48v-76h152v-43h-152v-189q26 40 73.5 63.5t102.5 23.5q82 0 138 -50.5t56 -148.5v-329h-49v321q0 81 -42 121.5t-109 40.5q-32 0 -61.5 -10t-54 -30t-39.5 -53.5t-15 -76.5v-313h-48v630h-78v43z" />
<glyph unicode="&#x128;" horiz-adv-x="239" d="M145 725v-725h-50v725h50zM230 927h39v-16q0 -45 -22 -71t-60 -26q-25 0 -45 12t-31.5 26.5t-26 26.5t-29.5 12t-25 -7t-15 -19.5t-5 -30.5v-15h-39v16q0 44 22 70.5t60 26.5q25 0 45 -12t31.5 -26.5t26 -26.5t29.5 -12t25 7t15 19.5t5 30.5v15z" />
<glyph unicode="&#x129;" horiz-adv-x="215" d="M132 519v-519h-49v519h49zM212 729h39v-16q0 -44 -21.5 -70.5t-58.5 -26.5q-24 0 -43.5 12t-30 26.5t-24.5 26.5t-28 12q-13 0 -22.5 -7t-14.5 -19.5t-5 -29.5v-16h-39v17q0 44 21.5 70t58.5 26q24 0 43.5 -12t30 -26.5t24.5 -26.5t28 -12q20 0 31 15t11 42v15z" />
<glyph unicode="&#x12a;" horiz-adv-x="239" d="M145 725v-725h-50v725h50zM-18 895h277v-43h-277v43z" />
<glyph unicode="&#x12b;" horiz-adv-x="215" d="M132 519v-519h-49v519h49zM-4 697h224v-43h-224v43z" />
<glyph unicode="&#x12c;" horiz-adv-x="239" d="M145 725v-725h-50v725h50zM21 947q0 -49 27 -78.5t73 -29.5q30 0 52.5 13.5t34.5 38t12 56.5h46q-1 -68 -40.5 -108.5t-104.5 -40.5q-43 0 -75.5 18t-51 52t-19.5 79h46z" />
<glyph unicode="&#x12d;" horiz-adv-x="215" d="M132 519v-519h-49v519h49zM14 749q0 -49 24.5 -78t69.5 -29q30 0 51.5 13.5t32 37.5t10.5 56h45q0 -23 -4.5 -43t-13 -36t-20.5 -29t-27 -22t-34 -14t-40 -5q-63 0 -100.5 40.5t-38.5 108.5h45z" />
<glyph unicode="&#x12e;" horiz-adv-x="239" d="M145 725v-725q-37 -20 -63 -49t-26 -62q0 -19 8 -32t23.5 -20t38.5 -7h32v-40h-41q-51 0 -79.5 24.5t-28.5 64.5q0 39 25.5 74t60.5 55v717h50z" />
<glyph unicode="&#x12f;" horiz-adv-x="215" d="M132 519v-519q-37 -20 -63.5 -49t-26.5 -62q0 -28 18 -43.5t52 -15.5h32v-40h-40q-51 0 -79.5 24.5t-28.5 64.5t26 75t61 55v510h49zM108 716q17 0 29 -12t12 -29.5t-12 -29.5t-29 -12t-29 12t-12 29.5t12 29.5t29 12z" />
<glyph unicode="&#x130;" horiz-adv-x="239" d="M145 725v-725h-50v725h50zM121 914q17 0 29 -12t12 -29.5t-12 -29.5t-29 -12q-12 0 -21.5 5.5t-15 15t-5.5 21t5.5 21t15 15t21.5 5.5z" />
<glyph unicode="&#x131;" horiz-adv-x="215" d="M132 519v-519h-49v519h49z" />
<glyph unicode="&#x134;" horiz-adv-x="541" d="M36 176h49q10 -62 50.5 -99.5t106.5 -37.5q51 0 86.5 22.5t53.5 64.5t18 101v498h50v-499q0 -113 -55 -174t-153 -61q-88 0 -143 51.5t-63 133.5zM330 800h-56l126 147h51l126 -147h-56l-96 109z" />
<glyph unicode="&#x135;" horiz-adv-x="216" d="M-27 -197v45h18q93 0 93 108v563h49v-565q0 -75 -35 -113t-102 -38h-23zM22 603h-55l116 146h52l116 -146h-54l-88 108z" />
<glyph unicode="&#x136;" horiz-adv-x="620" d="M145 0h-50v725h50v-332l375 332h71l-392 -348l403 -377h-74l-383 357v-357zM374 -103q0 -9 -6 -28l-39 -114h-41l35 107q-14 2 -23.5 12t-9.5 25q0 18 11.5 28.5t29.5 10.5t30.5 -11.5t12.5 -29.5z" />
<glyph unicode="&#x137;" horiz-adv-x="498" d="M132 0h-49v749h49v-460l274 230h67l-289 -243l295 -276h-67l-280 261v-261zM309 -103q0 -9 -6 -28l-39 -114h-40l35 107q-10 2 -17 6.5t-11.5 12.5t-4.5 18q0 18 11 28.5t29 10.5t30.5 -11.5t12.5 -29.5z" />
<glyph unicode="&#x139;" horiz-adv-x="573" d="M145 725v-678h391v-47h-441v725h50zM242 947l-98 -147h-52l94 147h56z" />
<glyph unicode="&#x13a;" horiz-adv-x="215" d="M132 749v-749h-49v749h49zM230 969l-98 -146h-53l95 146h56z" />
<glyph unicode="&#x13b;" horiz-adv-x="573" d="M145 725v-678h391v-47h-441v725h50zM364 -103q0 -9 -7 -28l-39 -114h-40l35 107q-14 2 -23.5 12t-9.5 25q0 18 11.5 28.5t28.5 10.5q19 0 31.5 -11.5t12.5 -29.5z" />
<glyph unicode="&#x13c;" horiz-adv-x="215" d="M132 749v-749h-49v749h49zM149 -103q0 -9 -6 -28l-39 -114h-40l35 107q-14 2 -23.5 12t-9.5 25q0 12 5.5 21t14.5 13.5t20 4.5q18 0 30.5 -11.5t12.5 -29.5z" />
<glyph unicode="&#x13d;" horiz-adv-x="573" d="M145 725v-678h391v-47h-441v725h50zM340 689q0 -9 -6 -28l-47 -135h-40l42 128q-14 3 -23.5 12.5t-9.5 24.5q0 18 11.5 28.5t29.5 10.5t30.5 -11.5t12.5 -29.5z" />
<glyph unicode="&#x13e;" horiz-adv-x="284" d="M132 749v-749h-49v749h49zM288 713q0 -10 -6 -28l-46 -135h-40l42 128q-14 2 -23.5 11.5t-9.5 25.5q0 17 11.5 28t28.5 11q18 0 30.5 -11.5t12.5 -29.5z" />
<glyph unicode="&#x13f;" horiz-adv-x="573" d="M145 725v-678h391v-47h-441v725h50zM355 421q17 0 29.5 -12t12.5 -30q0 -17 -12.5 -29t-29.5 -12t-29.5 12t-12.5 29q0 12 5.5 21.5t15.5 15t21 5.5z" />
<glyph unicode="&#x140;" horiz-adv-x="290" d="M132 749v-749h-49v749h49zM245 405q17 0 29 -12.5t12 -29.5q0 -9 -3 -16.5t-8.5 -13t-13.5 -9t-16 -3.5q-18 0 -30 12t-12 30q0 11 5.5 21t15 15.5t21.5 5.5z" />
<glyph unicode="&#x141;" horiz-adv-x="586" d="M365 475l-207 -99v-329h390v-47h-441v351l-89 -42v48l89 43v325h51v-301l207 99v-48z" />
<glyph unicode="&#x142;" horiz-adv-x="239" d="M6 375l90 44v330h48v-305l90 45v-47l-90 -45v-397h-48v372l-90 -44v47z" />
<glyph unicode="&#x143;" horiz-adv-x="740" d="M148 725l447 -640v640h51v-725h-50l-451 644v-644h-50v725h53zM495 947l-97 -147h-53l95 147h55z" />
<glyph unicode="&#x144;" horiz-adv-x="579" d="M83 519h47v-81q25 42 73.5 66t104.5 24q82 0 138 -50.5t56 -148.5v-329h-49v321q0 42 -11.5 73.5t-32.5 50.5t-48 28.5t-59 9.5t-61.5 -10t-54 -30t-39.5 -53.5t-15 -76.5v-313h-49v519zM416 749l-98 -146h-52l94 146h56z" />
<glyph unicode="&#x145;" horiz-adv-x="740" d="M148 725l447 -640v640h51v-725h-50l-451 644v-644h-50v725h53zM409 -95q0 -9 -6 -28l-39 -114h-41l35 107q-9 2 -16 6.5t-12 12.5t-5 18q0 18 11.5 28.5t29.5 10.5t30.5 -11.5t12.5 -29.5z" />
<glyph unicode="&#x146;" horiz-adv-x="579" d="M83 519h47v-81q25 42 73.5 66t104.5 24q82 0 138 -50.5t56 -148.5v-329h-49v321q0 42 -11.5 73.5t-32.5 50.5t-48 28.5t-59 9.5t-61.5 -10t-54 -30t-39.5 -53.5t-15 -76.5v-313h-49v519zM335 -103q0 -9 -6 -28l-40 -114h-40l35 107q-9 2 -16 6.5t-12 12.5t-5 18 q0 18 11.5 28.5t28.5 10.5q19 0 31.5 -11.5t12.5 -29.5z" />
<glyph unicode="&#x147;" horiz-adv-x="740" d="M148 725l447 -640v640h51v-725h-50l-451 644v-644h-50v725h53zM273 947l101 -110l101 110h55l-130 -147h-52l-131 147h56z" />
<glyph unicode="&#x148;" horiz-adv-x="579" d="M83 519h47v-81q25 42 73.5 66t104.5 24q82 0 138 -50.5t56 -148.5v-329h-49v321q0 42 -11.5 73.5t-32.5 50.5t-48 28.5t-59 9.5t-61.5 -10t-54 -30t-39.5 -53.5t-15 -76.5v-313h-49v519zM199 749l96 -109l95 109h56l-126 -146h-51l-126 146h56z" />
<glyph unicode="&#x14a;" horiz-adv-x="740" d="M595 725h51v-771q0 -74 -36.5 -112.5t-103.5 -38.5h-25v47h20q94 0 94 106v44l-450 644v-644h-50v725h53l447 -642v642z" />
<glyph unicode="&#x14b;" horiz-adv-x="579" d="M308 528q82 0 138 -50.5t56 -147.5v-376q0 -75 -35 -113t-102 -38h-23v45h17q94 0 94 108v366q0 54 -21 91.5t-54 53.5t-76 16q-32 0 -61.5 -10t-54 -30t-39.5 -53.5t-15 -76.5v-313h-49v519h47v-81q25 42 73.5 66t104.5 24z" />
<glyph unicode="&#x14c;" horiz-adv-x="766" d="M383 734q145 0 234.5 -103.5t89.5 -268t-89.5 -268t-234.5 -103.5t-234 103.5t-89 268t89 268t234 103.5zM383 39q124 0 198 89t74 234.5t-74 234.5t-198 89t-198 -89t-74 -234.5t74 -234.5t198 -89zM240 895h286v-43h-286v43z" />
<glyph unicode="&#x14d;" horiz-adv-x="585" d="M292.5 528q107.5 0 174 -74.5t66.5 -194t-66.5 -194t-173.5 -74.5q-54 0 -98.5 19.5t-76 54.5t-48.5 85t-17 110q0 119 66 193.5t173.5 74.5zM292.5 36q85.5 0 138 61t52.5 162.5t-52.5 162.5t-138 61t-138 -61t-52.5 -162.5t52.5 -162.5t138 -61zM154 697h277v-43h-277 v43z" />
<glyph unicode="&#x14e;" horiz-adv-x="766" d="M383 734q145 0 234.5 -103.5t89.5 -268t-89.5 -268t-234.5 -103.5t-234 103.5t-89 268t89 268t234 103.5zM383 39q124 0 198 89t74 234.5t-74 234.5t-198 89t-198 -89t-74 -234.5t74 -234.5t198 -89zM278 947q0 -48 29.5 -78t76 -30t75.5 30t29 78h46q-1 -68 -43 -108.5 t-108 -40.5q-65 0 -107 41t-43 108h45z" />
<glyph unicode="&#x14f;" horiz-adv-x="585" d="M292.5 528q107.5 0 174 -74.5t66.5 -194t-66.5 -194t-173.5 -74.5q-54 0 -98.5 19.5t-76 54.5t-48.5 85t-17 110q0 119 66 193.5t173.5 74.5zM292.5 36q85.5 0 138 61t52.5 162.5t-52.5 162.5t-138 61t-138 -61t-52.5 -162.5t52.5 -162.5t138 -61zM193 749q0 -32 12 -56 t34.5 -37.5t53.5 -13.5q45 0 72 29t27 78h46q-1 -68 -40.5 -108.5t-104.5 -40.5q-43 0 -75.5 18.5t-51 52t-19.5 78.5h46z" />
<glyph unicode="&#x150;" horiz-adv-x="766" d="M383 734q145 0 234.5 -103.5t89.5 -268t-89.5 -268t-234.5 -103.5t-234 103.5t-89 268t89 268t234 103.5zM383 39q124 0 198 89t74 234.5t-74 234.5t-198 89t-198 -89t-74 -234.5t74 -234.5t198 -89zM420 947l-89 -147h-50l86 147h53zM573 947l-89 -147h-50l85 147h54z " />
<glyph unicode="&#x151;" horiz-adv-x="585" d="M292.5 528q107.5 0 174 -74.5t66.5 -194t-66.5 -194t-173.5 -74.5q-54 0 -98.5 19.5t-76 54.5t-48.5 85t-17 110q0 119 66 193.5t173.5 74.5zM292.5 36q85.5 0 138 61t52.5 162.5t-52.5 162.5t-138 61t-138 -61t-52.5 -162.5t52.5 -162.5t138 -61zM332 749l-90 -146h-49 l85 146h54zM480 749l-89 -146h-50l85 146h54z" />
<glyph unicode="&#x152;" horiz-adv-x="1044" d="M980 725v-47h-384v-281h364v-47h-364v-303h384v-47h-543q-81 0 -150 24.5t-119.5 70t-79 114.5t-28.5 154q0 112 49 195t134 125t194 42h543zM111 362.5q0 -148.5 91.5 -232t239.5 -83.5h104v631h-104q-148 0 -239.5 -83.5t-91.5 -232z" />
<glyph unicode="&#x153;" horiz-adv-x="987" d="M293 528q75 0 130 -38.5t82 -106.5q27 69 82 107t128 38q65 0 114.5 -29t77.5 -86.5t28 -134.5v-30h-404v-3q0 -95 53.5 -152t134.5 -57q63 0 104 28t55 68h49q-16 -58 -69 -99.5t-139 -41.5q-74 0 -130 37.5t-83 107.5q-27 -68 -82.5 -106.5t-130.5 -38.5 q-54 0 -98.5 19.5t-76 54.5t-48.5 85t-17 110q0 119 66 193.5t174 74.5zM292.5 36q85.5 0 138 61t52.5 162.5t-52.5 162.5t-138 61t-138 -61t-52.5 -162.5t52.5 -162.5t138 -61zM714 483q-78 0 -127.5 -52t-55.5 -140h355q-2 92 -48 142t-124 50z" />
<glyph unicode="&#x154;" horiz-adv-x="640" d="M571 509q0 -79 -48 -138t-129 -75l215 -296h-61l-211 290h-192v-290h-50v725h244q108 0 170 -61.5t62 -154.5zM334 678h-189v-340h190q85 0 134.5 48.5t49.5 122.5q0 75 -48.5 122t-136.5 47zM441 947l-98 -147h-53l95 147h56z" />
<glyph unicode="&#x155;" horiz-adv-x="353" d="M302 520h22v-46h-22q-74 0 -122 -47t-48 -133v-294h-49v519h47v-92q52 93 172 93zM323 749l-97 -146h-53l95 146h55z" />
<glyph unicode="&#x156;" horiz-adv-x="640" d="M571 509q0 -79 -48 -138t-129 -75l215 -296h-61l-211 290h-192v-290h-50v725h244q108 0 170 -61.5t62 -154.5zM334 678h-189v-340h190q85 0 134.5 48.5t49.5 122.5q0 75 -48.5 122t-136.5 47zM377 -103q0 -9 -6 -28l-39 -114h-41l36 107q-15 2 -24 12t-9 25q0 18 11 28.5 t29 10.5t30.5 -11.5t12.5 -29.5z" />
<glyph unicode="&#x157;" horiz-adv-x="353" d="M302 520h22v-46h-22q-74 0 -122 -47t-48 -133v-294h-49v519h47v-92q52 93 172 93zM149 -103q0 -9 -6 -28l-39 -114h-40l35 107q-14 2 -23.5 12t-9.5 25q0 12 5.5 21t14.5 13.5t20 4.5q18 0 30.5 -11.5t12.5 -29.5z" />
<glyph unicode="&#x158;" horiz-adv-x="640" d="M571 509q0 -79 -48 -138t-129 -75l215 -296h-61l-211 290h-192v-290h-50v725h244q108 0 170 -61.5t62 -154.5zM334 678h-189v-340h190q85 0 134.5 48.5t49.5 122.5q0 75 -48.5 122t-136.5 47zM218 947l101 -110l101 110h56l-131 -147h-51l-131 147h55z" />
<glyph unicode="&#x159;" horiz-adv-x="353" d="M302 520h22v-46h-22q-74 0 -122 -47t-48 -133v-294h-49v519h47v-92q52 93 172 93zM106 749l96 -109l96 109h55l-125 -146h-52l-126 146h56z" />
<glyph unicode="&#x15a;" horiz-adv-x="631" d="M57 185h50q16 -69 74 -108t148 -39q84 0 139 42t55 113q0 58 -36.5 93.5t-105.5 47.5l-142 23q-81 14 -125 58.5t-44 115.5q0 93 70.5 148t168.5 55q63 0 115 -20.5t89.5 -63.5t47.5 -104h-50q-16 70 -70.5 105.5t-131.5 35.5t-132 -40.5t-55 -111.5q0 -106 127 -128 l143 -25q55 -9 95 -31t64 -61.5t24 -93.5q0 -94 -70.5 -149.5t-176.5 -55.5q-109 0 -182.5 50t-88.5 144zM437 947l-98 -147h-53l95 147h56z" />
<glyph unicode="&#x15b;" horiz-adv-x="503" d="M98 143q15 -53 57.5 -80.5t109.5 -27.5q62 0 101 28.5t39 76.5q0 79 -102 92l-97 12q-65 8 -103.5 41.5t-38.5 92.5q0 64 52.5 107t132.5 43q77 0 129.5 -38.5t62.5 -104.5h-48q-10 46 -48 72.5t-96 26.5q-61 0 -98.5 -29t-37.5 -74q0 -39 26.5 -61.5t74.5 -29.5l98 -13 q44 -6 75 -22t49 -44.5t18 -67.5q0 -69 -53.5 -110.5t-134.5 -41.5q-83 0 -142.5 37.5t-73.5 114.5h48zM374 749l-98 -146h-52l94 146h56z" />
<glyph unicode="&#x15c;" horiz-adv-x="631" d="M57 185h50q16 -69 74 -108t148 -39q84 0 139 42t55 113q0 58 -36.5 93.5t-105.5 47.5l-142 23q-81 14 -125 58.5t-44 115.5q0 93 70.5 148t168.5 55q63 0 115 -20.5t89.5 -63.5t47.5 -104h-50q-16 70 -70.5 105.5t-131.5 35.5t-132 -40.5t-55 -111.5q0 -106 127 -128 l143 -25q55 -9 95 -31t64 -61.5t24 -93.5q0 -94 -70.5 -149.5t-176.5 -55.5q-109 0 -182.5 50t-88.5 144zM214 800h-55l130 147h52l131 -147h-56l-101 109z" />
<glyph unicode="&#x15d;" horiz-adv-x="503" d="M98 143q15 -53 57.5 -80.5t109.5 -27.5q62 0 101 28.5t39 76.5q0 79 -102 92l-97 12q-65 8 -103.5 41.5t-38.5 92.5q0 64 52.5 107t132.5 43q77 0 129.5 -38.5t62.5 -104.5h-48q-10 46 -48 72.5t-96 26.5q-61 0 -98.5 -29t-37.5 -74q0 -39 26.5 -61.5t74.5 -29.5l98 -13 q44 -6 75 -22t49 -44.5t18 -67.5q0 -69 -53.5 -110.5t-134.5 -41.5q-83 0 -142.5 37.5t-73.5 114.5h48zM157 603h-56l126 146h51l126 -146h-56l-96 109z" />
<glyph unicode="&#x15e;" horiz-adv-x="631" d="M57 185h50q16 -69 74 -108t148 -39q84 0 139 42t55 113q0 58 -36.5 93.5t-105.5 47.5l-142 23q-81 14 -125 58.5t-44 115.5q0 93 70.5 148t168.5 55q63 0 115 -20.5t89.5 -63.5t47.5 -104h-50q-16 70 -70.5 105.5t-131.5 35.5t-132 -40.5t-55 -111.5q0 -106 127 -128 l143 -25q55 -9 95 -31t64 -61.5t24 -93.5q0 -46 -18 -83.5t-49 -63.5t-73.5 -40.5t-91.5 -16.5l-18 -54q35 -1 59.5 -22t24.5 -57q0 -38 -27 -62.5t-79 -24.5h-49v38h48q20 0 34.5 6.5t21.5 17.5t7 26q0 22 -16 34t-45 12h-25v15l24 71q-100 5 -166 54.5t-80 138.5z" />
<glyph unicode="&#x15f;" horiz-adv-x="503" d="M98 143q15 -53 57.5 -80.5t109.5 -27.5q62 0 101 28.5t39 76.5q0 79 -102 92l-97 12q-65 8 -103.5 41.5t-38.5 92.5q0 64 52.5 107t132.5 43q77 0 129.5 -38.5t62.5 -104.5h-48q-10 46 -48 72.5t-96 26.5q-61 0 -98.5 -29t-37.5 -74q0 -39 26.5 -61.5t74.5 -29.5l98 -13 q44 -6 75 -22t49 -44.5t18 -67.5q0 -66 -48.5 -106.5t-124.5 -44.5l-17 -54q35 -1 59 -22t24 -57q0 -38 -27 -62.5t-79 -24.5h-48v38h47q21 0 35 6.5t21 17.5t7 26q0 22 -16 34t-45 12h-25v15l24 71q-74 5 -126 42.5t-65 108.5h48z" />
<glyph unicode="&#x160;" horiz-adv-x="631" d="M57 185h50q16 -69 74 -108t148 -39q84 0 139 42t55 113q0 58 -36.5 93.5t-105.5 47.5l-142 23q-81 14 -125 58.5t-44 115.5q0 93 70.5 148t168.5 55q63 0 115 -20.5t89.5 -63.5t47.5 -104h-50q-16 70 -70.5 105.5t-131.5 35.5t-132 -40.5t-55 -111.5q0 -106 127 -128 l143 -25q55 -9 95 -31t64 -61.5t24 -93.5q0 -94 -70.5 -149.5t-176.5 -55.5q-109 0 -182.5 50t-88.5 144zM214 947l101 -110l101 110h56l-131 -147h-52l-130 147h55z" />
<glyph unicode="&#x161;" horiz-adv-x="503" d="M98 143q15 -53 57.5 -80.5t109.5 -27.5q62 0 101 28.5t39 76.5q0 79 -102 92l-97 12q-65 8 -103.5 41.5t-38.5 92.5q0 64 52.5 107t132.5 43q77 0 129.5 -38.5t62.5 -104.5h-48q-10 46 -48 72.5t-96 26.5q-61 0 -98.5 -29t-37.5 -74q0 -39 26.5 -61.5t74.5 -29.5l98 -13 q44 -6 75 -22t49 -44.5t18 -67.5q0 -69 -53.5 -110.5t-134.5 -41.5q-83 0 -142.5 37.5t-73.5 114.5h48zM157 749l95 -109l96 109h56l-126 -146h-51l-126 146h56z" />
<glyph unicode="&#x162;" horiz-adv-x="633" d="M35 678v47h563v-47h-256v-678h-6l-21 -62q35 -1 59.5 -22t24.5 -57q0 -38 -27.5 -62.5t-78.5 -24.5h-49v38h47q21 0 35.5 6.5t21 17.5t6.5 26q0 22 -15.5 34t-44.5 12h-25v15l27 79h-5v678h-256z" />
<glyph unicode="&#x163;" horiz-adv-x="331" d="M161 148q0 -104 97 -104h33v-44h-59l-21 -62q23 0 41.5 -9.5t30.5 -27.5t12 -42q0 -38 -27.5 -62.5t-79.5 -24.5h-48v38h47q31 0 47 13.5t16 36.5q0 14 -7 24.5t-20.5 16t-32.5 5.5h-25v15l29 87q-82 26 -82 138v329h-94v44h94v138h49v-138h130v-44h-130v-327z" />
<glyph unicode="&#x164;" horiz-adv-x="633" d="M35 678v47h563v-47h-256v-678h-51v678h-256zM216 947l101 -110l101 110h56l-131 -147h-52l-130 147h55z" />
<glyph unicode="&#x165;" horiz-adv-x="331" d="M161 148q0 -104 97 -104h33v-44h-40q-139 0 -139 146v329h-94v44h94v138h49v-138h130v-44h-130v-327zM312 734q0 -9 -6 -27l-40 -117h-40l36 109q-15 3 -24 12.5t-9 24.5q0 9 3 16.5t8.5 12.5t12.5 8t16 3q18 0 30.5 -11.5t12.5 -30.5z" />
<glyph unicode="&#x166;" horiz-adv-x="633" d="M537 328h-195v-328h-51v328h-194v47h194v303h-256v47h563v-47h-256v-303h195v-47z" />
<glyph unicode="&#x167;" horiz-adv-x="331" d="M18 306h94v169h-94v44h94v138h49v-138h130v-44h-130v-169h130v-43h-130v-115q0 -104 97 -104h33v-44h-40q-139 0 -139 146v117h-94v43z" />
<glyph unicode="&#x168;" horiz-adv-x="727" d="M90 278v447h50v-446q0 -115 61.5 -177.5t162.5 -62.5t162 62.5t61 177.5v446h51v-447q0 -137 -76 -212t-198.5 -75t-198 75t-75.5 212zM478 927h39v-18q0 -28 -10.5 -50t-29.5 -33.5t-43 -11.5q-26 0 -47 12t-33 26.5t-28 26.5t-31 12q-22 0 -34.5 -15.5t-12.5 -41.5v-15 h-39v17q0 29 11 51t29.5 33.5t43.5 11.5t46 -12t33 -26.5t28 -26.5t32 -12q21 0 33.5 15.5t12.5 41.5v15z" />
<glyph unicode="&#x169;" horiz-adv-x="579" d="M496 0h-46v80q-26 -42 -74 -65.5t-104 -23.5q-82 0 -138 50.5t-56 149.5v328h49v-321q0 -81 42 -121.5t109 -40.5q32 0 61.5 10t54 30t39.5 53.5t15 76.5v313h48v-519zM399 729h39v-16q0 -44 -22.5 -70.5t-59.5 -26.5q-25 0 -45 12t-31.5 26.5t-26 26.5t-29.5 12 q-22 0 -33.5 -15t-11.5 -41v-16h-39v17q0 44 22 70t59 26q25 0 45.5 -12t32 -26.5t26 -26.5t29.5 -12q22 0 33.5 15t11.5 42v15z" />
<glyph unicode="&#x16a;" horiz-adv-x="727" d="M90 278v447h50v-446q0 -115 61.5 -177.5t162.5 -62.5t162 62.5t61 177.5v446h51v-447q0 -137 -76 -212t-198.5 -75t-198 75t-75.5 212zM220 895h287v-43h-287v43z" />
<glyph unicode="&#x16b;" horiz-adv-x="579" d="M496 0h-46v80q-26 -42 -74 -65.5t-104 -23.5q-82 0 -138 50.5t-56 149.5v328h49v-321q0 -81 42 -121.5t109 -40.5q32 0 61.5 10t54 30t39.5 53.5t15 76.5v313h48v-519zM151 697h276v-43h-276v43z" />
<glyph unicode="&#x16c;" horiz-adv-x="727" d="M90 278v447h50v-446q0 -115 61.5 -177.5t162.5 -62.5t162 62.5t61 177.5v446h51v-447q0 -137 -76 -212t-198.5 -75t-198 75t-75.5 212zM259 947q0 -32 13 -56.5t37 -38t55 -13.5q23 0 42.5 8t33 22t21.5 34t8 44h45q-1 -68 -43 -108.5t-107 -40.5t-107.5 41t-43.5 108h46 z" />
<glyph unicode="&#x16d;" horiz-adv-x="579" d="M496 0h-46v80q-26 -42 -74 -65.5t-104 -23.5q-82 0 -138 50.5t-56 149.5v328h49v-321q0 -81 42 -121.5t109 -40.5q32 0 61.5 10t54 30t39.5 53.5t15 76.5v313h48v-519zM190 749q0 -24 6.5 -44t19.5 -34t32 -21.5t41 -7.5q46 0 73 29t27 78h46q-1 -68 -40.5 -108.5 t-105.5 -40.5q-64 0 -104 40.5t-41 108.5h46z" />
<glyph unicode="&#x16e;" horiz-adv-x="727" d="M90 278v447h50v-446q0 -115 61.5 -177.5t162.5 -62.5t162 62.5t61 177.5v446h51v-447q0 -137 -76 -212t-198.5 -75t-198 75t-75.5 212zM457 878.5q0 -38.5 -27 -65.5t-66 -27q-40 0 -67.5 27t-27.5 66q0 25 12.5 46.5t34 33.5t48.5 12q39 0 66 -27t27 -65.5zM307 878.5 q0 -24.5 16.5 -40.5t40.5 -16q14 0 27 7t20.5 20.5t7.5 29.5q0 24 -16.5 40t-38.5 16q-24 0 -40.5 -16t-16.5 -40.5z" />
<glyph unicode="&#x16f;" horiz-adv-x="579" d="M496 0h-46v80q-26 -42 -74 -65.5t-104 -23.5q-82 0 -138 50.5t-56 149.5v328h49v-321q0 -81 42 -121.5t109 -40.5q32 0 61.5 10t54 30t39.5 53.5t15 76.5v313h48v-519zM384 681q0 -39 -27 -66t-67 -27t-67 27t-27 66q0 25 12.5 46.5t34 34t47.5 12.5t47.5 -12.5t34 -34 t12.5 -46.5zM234 680.5q0 -24.5 16.5 -40.5t39.5 -16t39.5 16.5t16.5 40.5t-16.5 40t-39.5 16t-39.5 -16t-16.5 -40.5z" />
<glyph unicode="&#x170;" horiz-adv-x="727" d="M90 278v447h50v-446q0 -115 61.5 -177.5t162.5 -62.5t162 62.5t61 177.5v446h51v-447q0 -137 -76 -212t-198.5 -75t-198 75t-75.5 212zM401 947l-90 -147h-49l85 147h54zM553 947l-88 -147h-51l86 147h53z" />
<glyph unicode="&#x171;" horiz-adv-x="579" d="M496 0h-46v80q-26 -42 -74 -65.5t-104 -23.5q-82 0 -138 50.5t-56 149.5v328h49v-321q0 -81 42 -121.5t109 -40.5q32 0 61.5 10t54 30t39.5 53.5t15 76.5v313h48v-519zM329 749l-90 -146h-49l85 146h54zM477 749l-89 -146h-50l85 146h54z" />
<glyph unicode="&#x172;" horiz-adv-x="727" d="M90 278v447h50v-446q0 -115 61.5 -177.5t162.5 -62.5t162 62.5t61 177.5v446h51v-447q0 -177 -124 -250q-5 -4 -20.5 -14t-24.5 -16t-23 -17t-22.5 -20.5t-17.5 -21t-13.5 -24.5t-4.5 -26q0 -28 18.5 -43.5t51.5 -15.5h32v-40h-40q-51 0 -79.5 24.5t-28.5 66.5 q0 58 66 113q-22 -3 -44 -3q-123 0 -198.5 75t-75.5 212z" />
<glyph unicode="&#x173;" horiz-adv-x="579" d="M496 0q-23 -12 -42 -28t-33 -38t-14 -45q0 -28 18 -43.5t52 -15.5h32v-40h-40q-26 0 -46.5 6.5t-34 18.5t-21 28.5t-7.5 35.5q0 40 27 75t63 56v70q-26 -42 -74 -65.5t-104 -23.5q-82 0 -138 50.5t-56 149.5v328h49v-321q0 -81 42 -121.5t109 -40.5q32 0 61.5 10t54 30 t39.5 53.5t15 76.5v313h48v-519z" />
<glyph unicode="&#x174;" horiz-adv-x="986" d="M952 725l-231 -725h-48l-180 636l-179 -636h-48l-231 725h54l200 -638l181 638h48l179 -636l201 636h54zM392 800h-55l131 147h51l131 -147h-56l-101 109z" />
<glyph unicode="&#x175;" horiz-adv-x="778" d="M752 519l-175 -519h-49l-140 447l-139 -447h-48l-174 519h51l148 -446l139 446h49l139 -446l147 446h52zM294 603h-56l126 146h51l126 -146h-56l-96 109z" />
<glyph unicode="&#x176;" horiz-adv-x="638" d="M345 0h-50v300l-273 425h58l239 -375l239 375h59l-272 -423v-302zM218 800h-55l131 147h51l131 -147h-56l-101 109z" />
<glyph unicode="&#x177;" horiz-adv-x="521" d="M447 519h53l-297 -716h-53l85 204l-213 512h52l187 -453zM166 603h-56l126 146h51l126 -146h-56l-95 109z" />
<glyph unicode="&#x178;" horiz-adv-x="638" d="M345 0h-50v300l-273 425h58l239 -375l239 375h59l-272 -423v-302zM217 914q18 0 30 -12t12 -29.5t-12 -29.5t-29.5 -12t-29.5 12t-12 29q0 12 5.5 21.5t15 15t20.5 5.5zM421 914q17 0 29 -12t12 -29.5t-12 -29.5t-29 -12t-29 12t-12 29.5t12 29.5t29 12z" />
<glyph unicode="&#x179;" horiz-adv-x="641" d="M65 44l449 634h-449v47h512v-44l-450 -634h450v-47h-512v44zM443 947l-98 -147h-52l94 147h56z" />
<glyph unicode="&#x17a;" horiz-adv-x="504" d="M55 0v40l334 435h-333v44h394v-40l-336 -435h336v-44h-395zM375 749l-98 -146h-52l94 146h56z" />
<glyph unicode="&#x17b;" horiz-adv-x="641" d="M65 44l449 634h-449v47h512v-44l-450 -634h450v-47h-512v44zM322.5 914q17.5 0 29.5 -12t12 -29.5t-12 -29.5t-29.5 -12t-29.5 12t-12 29.5t12 29.5t29.5 12z" />
<glyph unicode="&#x17c;" horiz-adv-x="504" d="M55 0v40l334 435h-333v44h394v-40l-336 -435h336v-44h-395zM254 716q18 0 30 -12t12 -29.5t-12 -29.5t-29.5 -12t-29.5 12t-12 30q0 8 3.5 16t9 13.5t13 8.5t15.5 3z" />
<glyph unicode="&#x17d;" horiz-adv-x="641" d="M65 44l449 634h-449v47h512v-44l-450 -634h450v-47h-512v44zM220 947l101 -110l101 110h56l-131 -147h-51l-131 147h55z" />
<glyph unicode="&#x17e;" horiz-adv-x="504" d="M55 0v40l334 435h-333v44h394v-40l-336 -435h336v-44h-395zM158 749l95 -109l96 109h56l-126 -146h-51l-126 146h56z" />
<glyph unicode="&#x18f;" horiz-adv-x="737" d="M60 344v34h566q-1 139 -75.5 223.5t-194.5 84.5q-90 0 -149.5 -41t-85.5 -109h-53q26 86 101.5 142t186.5 56q147 0 234.5 -101.5t87.5 -269.5q0 -166 -84 -269t-225 -103q-142 0 -225.5 97.5t-83.5 255.5zM368 39q116 0 185 81t73 212h-516q2 -133 72 -213t186 -80z" />
<glyph unicode="&#x192;" horiz-adv-x="529" d="M152 438h108l21 130q25 157 167 157h34v-44h-33q-34 0 -58 -13t-39.5 -39t-21.5 -67l-21 -124h117v-45h-124l-64 -398q-25 -158 -167 -158h-34v45h33q51 0 80 29t40 89l62 393h-100v45z" />
<glyph unicode="&#x1cd;" horiz-adv-x="667" d="M308 725h51l282 -725h-55l-83 217h-339l-83 -217h-54zM333 661l-152 -397h304zM234 947l101 -110l101 110h55l-131 -147h-51l-131 147h56z" />
<glyph unicode="&#x1ce;" horiz-adv-x="539" d="M414 347q0 34 -10.5 60t-30 43t-46 25.5t-58.5 8.5q-24 0 -45 -4.5t-37.5 -13t-30 -20.5t-23 -26.5t-15.5 -31.5h-47q15 62 68 101t131 39q87 0 139 -47.5t52 -133.5v-347h-45v80q-28 -42 -77 -65.5t-111 -23.5q-76 0 -127 41.5t-51 110.5q0 71 53 112t147 41h164v51z M233 35q79 0 130 43t51 116v58h-162q-72 0 -112 -28t-40 -81q0 -49 37.5 -78.5t95.5 -29.5zM175 749l96 -109l96 109h55l-125 -146h-52l-126 146h56z" />
<glyph unicode="&#x1d1;" horiz-adv-x="766" d="M383 734q145 0 234.5 -103.5t89.5 -268t-89.5 -268t-234.5 -103.5t-234 103.5t-89 268t89 268t234 103.5zM383 39q124 0 198 89t74 234.5t-74 234.5t-198 89t-198 -89t-74 -234.5t74 -234.5t198 -89zM282 947l101 -110l101 110h56l-131 -147h-52l-130 147h55z" />
<glyph unicode="&#x1d2;" horiz-adv-x="585" d="M292.5 528q107.5 0 174 -74.5t66.5 -194t-66.5 -194t-173.5 -74.5q-54 0 -98.5 19.5t-76 54.5t-48.5 85t-17 110q0 119 66 193.5t173.5 74.5zM292.5 36q85.5 0 138 61t52.5 162.5t-52.5 162.5t-138 61t-138 -61t-52.5 -162.5t52.5 -162.5t138 -61zM197 749l96 -109 l95 109h56l-126 -146h-51l-126 146h56z" />
<glyph unicode="&#x1d3;" horiz-adv-x="727" d="M90 278v447h50v-446q0 -115 61.5 -177.5t162.5 -62.5t162 62.5t61 177.5v446h51v-447q0 -137 -76 -212t-198.5 -75t-198 75t-75.5 212zM263 947l101 -110l101 110h55l-131 -147h-51l-131 147h56z" />
<glyph unicode="&#x1d4;" horiz-adv-x="579" d="M496 0h-46v80q-26 -42 -74 -65.5t-104 -23.5q-82 0 -138 50.5t-56 149.5v328h49v-321q0 -81 42 -121.5t109 -40.5q32 0 61.5 10t54 30t39.5 53.5t15 76.5v313h48v-519zM194 749l95 -109l96 109h56l-126 -146h-51l-126 146h56z" />
<glyph unicode="&#x218;" horiz-adv-x="631" d="M57 185h50q16 -69 74 -108t148 -39q84 0 139 42t55 113q0 58 -36.5 93.5t-105.5 47.5l-142 23q-81 14 -125 58.5t-44 115.5q0 93 70.5 148t168.5 55q63 0 115 -20.5t89.5 -63.5t47.5 -104h-50q-16 70 -70.5 105.5t-131.5 35.5t-132 -40.5t-55 -111.5q0 -106 127 -128 l143 -25q55 -9 95 -31t64 -61.5t24 -93.5q0 -94 -70.5 -149.5t-176.5 -55.5q-109 0 -182.5 50t-88.5 144zM369 -103q0 -9 -6 -28l-40 -114h-40l35 107q-14 2 -23.5 12t-9.5 25q0 18 11.5 28.5t28.5 10.5q19 0 31.5 -11.5t12.5 -29.5z" />
<glyph unicode="&#x219;" horiz-adv-x="503" d="M98 143q15 -53 57.5 -80.5t109.5 -27.5q62 0 101 28.5t39 76.5q0 79 -102 92l-97 12q-65 8 -103.5 41.5t-38.5 92.5q0 64 52.5 107t132.5 43q77 0 129.5 -38.5t62.5 -104.5h-48q-10 46 -48 72.5t-96 26.5q-61 0 -98.5 -29t-37.5 -74q0 -39 26.5 -61.5t74.5 -29.5l98 -13 q44 -6 75 -22t49 -44.5t18 -67.5q0 -69 -53.5 -110.5t-134.5 -41.5q-83 0 -142.5 37.5t-73.5 114.5h48zM308 -103q0 -9 -6 -28l-39 -114h-41l36 107q-15 2 -24 12t-9 25q0 18 11 28.5t29 10.5t30.5 -11.5t12.5 -29.5z" />
<glyph unicode="&#x21a;" horiz-adv-x="633" d="M35 678v47h563v-47h-256v-678h-51v678h-256zM359 -103q0 -9 -6 -28l-39 -114h-40l35 107q-14 2 -23.5 12t-9.5 25q0 18 11.5 28.5t28.5 10.5q18 0 30.5 -11.5t12.5 -29.5z" />
<glyph unicode="&#x21b;" horiz-adv-x="331" d="M161 148q0 -104 97 -104h33v-44h-40q-139 0 -139 146v329h-94v44h94v138h49v-138h130v-44h-130v-327zM244 -103q0 -9 -6 -28l-39 -114h-40l35 107q-15 2 -24 12t-9 25q0 18 11.5 28.5t28.5 10.5q9 0 17 -3t13.5 -8t9 -13t3.5 -17z" />
<glyph unicode="&#x237;" horiz-adv-x="216" d="M-27 -197v45h18q93 0 93 108v563h49v-565q0 -75 -35 -113t-102 -38h-23z" />
<glyph unicode="&#x2c6;" horiz-adv-x="535" d="M172 603h-56l126 146h52l125 -146h-55l-96 109z" />
<glyph unicode="&#x2c7;" horiz-adv-x="535" d="M172 749l96 -109l96 109h55l-125 -146h-52l-126 146h56z" />
<glyph unicode="&#x2d8;" horiz-adv-x="535" d="M168 749q0 -32 12 -56t34.5 -37.5t53.5 -13.5q46 0 73 29t27 78h45q-1 -68 -40.5 -108.5t-104.5 -40.5q-43 0 -75.5 18.5t-51 52t-18.5 78.5h45z" />
<glyph unicode="&#x2d9;" horiz-adv-x="535" d="M268 716q17 0 29 -12t12 -29.5t-12 -29.5t-29 -12t-29 12t-12 29.5t12 29.5t29 12z" />
<glyph unicode="&#x2da;" horiz-adv-x="535" d="M362 681q0 -39 -27.5 -66t-66.5 -27q-40 0 -67.5 27t-27.5 66q0 25 12.5 46.5t34 34t48.5 12.5q39 0 66.5 -27t27.5 -66zM211 681q0 -25 16.5 -41t40.5 -16q23 0 39 16.5t16 40.5t-16 40t-39 16q-16 0 -28.5 -7t-20.5 -20t-8 -29z" />
<glyph unicode="&#x2db;" horiz-adv-x="535" d="M330 0q-37 -20 -63.5 -49t-26.5 -62q0 -19 8 -32t24 -20t38 -7h32v-40h-40q-52 0 -80 24.5t-28 64.5q0 43 30 80t69 56z" />
<glyph unicode="&#x2dc;" horiz-adv-x="535" d="M377 729h39v-16q0 -44 -22 -70.5t-59 -26.5q-25 0 -45.5 12t-31.5 26.5t-26 26.5t-30 12q-21 0 -32.5 -15t-11.5 -41v-16h-40v17q0 44 22.5 70t59.5 26q25 0 45.5 -12t31.5 -26.5t26 -26.5t30 -12q8 0 15 2.5t12.5 7.5t9 12t5.5 15.5t2 19.5v15z" />
<glyph unicode="&#x2dd;" horiz-adv-x="535" d="M263 749l-90 -146h-49l85 146h54zM411 749l-89 -146h-50l85 146h54z" />
<glyph unicode="&#x3a9;" horiz-adv-x="782" d="M718 375q0 -109 -45.5 -194.5t-119.5 -134.5h165v-46h-256v46q86 34 145 119.5t59 208.5q0 139 -75.5 225.5t-199.5 86.5t-199.5 -86.5t-75.5 -225.5q0 -123 59.5 -208.5t144.5 -119.5v-46h-255v46h164q-74 49 -119 134.5t-45 194.5q0 158 90.5 258.5t236 100.5 t236 -100.5t90.5 -258.5z" />
<glyph unicode="&#x3c0;" horiz-adv-x="621" d="M171 0h-48v474h-94v45h563v-45h-93v-474h-49v474h-279v-474z" />
<glyph unicode="&#x400;" horiz-adv-x="600" d="M536 678h-391v-281h371v-47h-371v-303h391v-47h-441v725h441v-47zM197 947h55l95 -147h-52z" />
<glyph unicode="&#x401;" horiz-adv-x="600" d="M536 678h-391v-281h371v-47h-371v-303h391v-47h-441v725h441v-47zM216 914q17 0 29.5 -12t12.5 -29.5t-12.5 -29.5t-29.5 -12q-11 0 -20.5 5.5t-15 15t-5.5 21t5.5 21t15 15t20.5 5.5zM420 914q17 0 29 -12t12 -29.5t-12 -29.5t-29 -12t-29 12t-12 29q0 7 2 13.5t6 11.5 t9 9t11.5 6t12.5 2z" />
<glyph unicode="&#x402;" horiz-adv-x="826" d="M538 443q102 0 167 -60t65 -165q0 -99 -62.5 -159t-164.5 -60h-26v47h23q51 0 91 19.5t64 59t24 93.5q0 57 -24.5 97.5t-66.5 60.5t-97 20q-56 0 -107.5 -19.5t-84.5 -49.5v-327h-51v678h-250v47h552v-47h-251v-300q33 27 85 46t114 19z" />
<glyph unicode="&#x403;" horiz-adv-x="566" d="M528 678h-383v-678h-50v725h433v-47zM437 947l-98 -147h-53l95 147h56z" />
<glyph unicode="&#x404;" horiz-adv-x="723" d="M617 215h51q-6 -33 -20.5 -64.5t-39 -61t-57 -51t-76.5 -34.5t-95 -13q-67 0 -125 25.5t-101.5 72t-68.5 117.5t-25 157q0 169 89 270t230 101q115 0 191.5 -64.5t95.5 -157.5h-51q-10 35 -29 65t-47.5 55t-69.5 39.5t-90 14.5q-112 0 -185 -77.5t-82 -210.5h335v-49 h-336q1 -36 7 -69.5t16 -62t24.5 -53t32.5 -44t39.5 -35t45 -25.5t49.5 -15.5t54 -5.5q52 0 95 15.5t71.5 41.5t46.5 56t25 63z" />
<glyph unicode="&#x405;" horiz-adv-x="631" d="M57 185h50q16 -69 74 -108t148 -39q84 0 139 42t55 113q0 58 -36.5 93.5t-105.5 47.5l-142 23q-81 14 -125 58.5t-44 115.5q0 93 70.5 148t168.5 55q63 0 115 -20.5t89.5 -63.5t47.5 -104h-50q-16 70 -70.5 105.5t-131.5 35.5t-132 -40.5t-55 -111.5q0 -106 127 -128 l143 -25q55 -9 95 -31t64 -61.5t24 -93.5q0 -94 -70.5 -149.5t-176.5 -55.5q-109 0 -182.5 50t-88.5 144z" />
<glyph unicode="&#x406;" horiz-adv-x="239" d="M145 725v-725h-50v725h50z" />
<glyph unicode="&#x407;" horiz-adv-x="239" d="M145 725v-725h-50v725h50zM23 914q17 0 29 -12t12 -29.5t-12 -29.5t-29.5 -12t-29.5 12t-12 29q0 12 6 21.5t15 15t21 5.5zM218 914q18 0 30 -12t12 -29.5t-12 -29.5t-29.5 -12t-29.5 12t-12 29q0 12 5.5 21.5t15 15t20.5 5.5z" />
<glyph unicode="&#x408;" horiz-adv-x="541" d="M36 176h49q10 -62 50.5 -99.5t106.5 -37.5q51 0 86.5 22.5t53.5 64.5t18 101v498h50v-499q0 -113 -55 -174t-153 -61q-88 0 -143 51.5t-63 133.5z" />
<glyph unicode="&#x409;" horiz-adv-x="1079" d="M789 441q108 0 172 -61t64 -159q0 -97 -64.5 -159t-169.5 -62h-236v678h-321l-31 -461q-7 -109 -48.5 -163.5t-129.5 -54.5h-18v48h13q65 0 96 40.5t37 132.5l35 505h418v-284h183zM784 393h-178v-346h179q86 0 137 47.5t51 127t-50.5 125.5t-138.5 46z" />
<glyph unicode="&#x40a;" horiz-adv-x="1102" d="M145 0h-50v725h50v-307h444v307h51v-306h178q104 0 167 -57.5t63 -151.5q0 -61 -28.5 -108.5t-80.5 -74.5t-119 -27h-231v371h-444v-371zM813 372h-173v-325h174q83 0 133 44.5t50 118.5q0 75 -50 118.5t-134 43.5z" />
<glyph unicode="&#x40b;" horiz-adv-x="842" d="M38 678v47h552v-47h-251v-300q79 65 197 65q104 0 165.5 -61.5t61.5 -183.5v-198h-50v198q0 100 -49 149t-136 49q-56 0 -106 -19.5t-83 -49.5v-327h-51v678h-250z" />
<glyph unicode="&#x40c;" horiz-adv-x="620" d="M145 0h-50v725h50v-332l375 332h71l-392 -348l403 -377h-74l-383 357v-357zM444 947l-98 -147h-52l94 147h56z" />
<glyph unicode="&#x40d;" horiz-adv-x="738" d="M644 725v-725h-51v643l-448 -643h-50v725h50v-644l448 644h51zM248 947h56l95 -147h-53z" />
<glyph unicode="&#x40e;" horiz-adv-x="648" d="M27 725h55l253 -478l233 478h54l-355 -725h-56l97 195zM222 947q0 -24 8 -44t22 -34t33.5 -22t42.5 -8q46 0 75.5 30t29.5 78h45q-1 -68 -43 -108.5t-107 -40.5q-66 0 -108 41t-43 108h45z" />
<glyph unicode="&#x40f;" horiz-adv-x="732" d="M95 0v725h50v-677h442v677h51v-725h-247v-151h-49v151h-247z" />
<glyph unicode="&#x410;" horiz-adv-x="667" d="M308 725h51l282 -725h-55l-83 217h-339l-83 -217h-54zM333 661l-152 -397h304z" />
<glyph unicode="&#x411;" horiz-adv-x="621" d="M521 678h-376v-253h189q70 0 122.5 -26t80.5 -73.5t28 -111.5q0 -96 -63 -155t-167 -59h-240v725h426v-47zM329 378h-184v-331h184q85 0 135 45t50 122t-50 120.5t-135 43.5z" />
<glyph unicode="&#x412;" horiz-adv-x="643" d="M95 0v725h245q104 0 161 -49.5t57 -131.5q0 -44 -16.5 -80t-40 -57t-51.5 -30q24 -5 46.5 -18t43.5 -34t34 -54t13 -72q0 -91 -62 -145t-169 -54h-261zM353 351h-208v-305h208q86 0 134.5 41.5t48.5 112.5q0 69 -48 110t-135 41zM334 679h-189v-282h202q80 0 120 40 t40 103q0 66 -45 102.5t-128 36.5z" />
<glyph unicode="&#x413;" horiz-adv-x="566" d="M528 678h-383v-678h-50v725h433v-47z" />
<glyph unicode="&#x414;" horiz-adv-x="734" d="M700 48v-186h-49v138h-594v-138h-50v186h53q44 35 65 97.5t31 195.5l25 384h432v-677h87zM205 341q-6 -92 -17 -149.5t-26.5 -88t-39.5 -55.5h440v630h-335z" />
<glyph unicode="&#x415;" horiz-adv-x="600" d="M536 678h-391v-281h371v-47h-371v-303h391v-47h-441v725h441v-47z" />
<glyph unicode="&#x416;" horiz-adv-x="918" d="M434 0v360l-349 -360h-65l359 376l-352 349h68l339 -335v335h50v-335l339 335h68l-352 -348l360 -377h-67l-348 360v-360h-50z" />
<glyph unicode="&#x417;" horiz-adv-x="611" d="M59 544q13 91 81.5 140.5t162.5 49.5q101 0 163 -54.5t62 -137.5q0 -59 -31.5 -101.5t-82.5 -62.5q26 -7 49.5 -20t45 -34t34 -53.5t12.5 -71.5q0 -88 -66 -148t-177 -60t-180 53t-82 146h50q13 -70 67 -111t145 -41q90 0 141 46.5t51 115.5q0 71 -51 111t-140 40h-107 v47h104q81 0 124 41t43 101q0 65 -48 106t-126 41q-77 0 -129 -37t-66 -106h-49z" />
<glyph unicode="&#x418;" horiz-adv-x="738" d="M644 725v-725h-51v643l-448 -643h-50v725h50v-644l448 644h51z" />
<glyph unicode="&#x419;" horiz-adv-x="738" d="M644 725v-725h-51v643l-448 -643h-50v725h50v-644l448 644h51zM265 947q0 -32 13 -56.5t37 -38t55 -13.5q46 0 75.5 30t29.5 78h45q0 -45 -19.5 -79t-53.5 -52t-77 -18q-65 0 -107.5 41t-43.5 108h46z" />
<glyph unicode="&#x41a;" horiz-adv-x="620" d="M145 0h-50v725h50v-332l375 332h71l-392 -348l403 -377h-74l-383 357v-357z" />
<glyph unicode="&#x41b;" horiz-adv-x="700" d="M7 -1v48h13q65 0 96 40.5t37 132.5l35 505h418v-725h-51v678h-321l-31 -461q-7 -109 -48.5 -163.5t-129.5 -54.5h-18z" />
<glyph unicode="&#x41c;" horiz-adv-x="891" d="M95 725h57l294 -658l295 658h56v-725h-49v625l-279 -625h-46l-279 625v-625h-49v725z" />
<glyph unicode="&#x41d;" horiz-adv-x="735" d="M145 0h-50v725h50v-327h445v327h51v-725h-51v349h-445v-349z" />
<glyph unicode="&#x41e;" horiz-adv-x="766" d="M383 734q145 0 234.5 -103.5t89.5 -268t-89.5 -268t-234.5 -103.5t-234 103.5t-89 268t89 268t234 103.5zM383 39q124 0 198 89t74 234.5t-74 234.5t-198 89t-198 -89t-74 -234.5t74 -234.5t198 -89z" />
<glyph unicode="&#x41f;" horiz-adv-x="732" d="M95 725h543v-725h-51v677h-442v-677h-50v725z" />
<glyph unicode="&#x420;" horiz-adv-x="620" d="M330 725q107 0 171 -61t64 -159t-64 -160.5t-169 -62.5h-187v-282h-50v725h235zM324 678h-179v-348h180q87 0 138 47.5t51 127t-51 126.5t-139 47z" />
<glyph unicode="&#x421;" horiz-adv-x="723" d="M617 219h51q-7 -43 -28.5 -82.5t-56 -73t-88 -53t-117.5 -19.5q-138 0 -228 101.5t-90 270.5q0 166 88.5 268.5t228.5 102.5q117 0 194.5 -65t94.5 -161h-51q-19 76 -80 127t-158 51q-119 0 -192.5 -88.5t-73.5 -234.5q0 -149 75 -236.5t192 -87.5q101 0 163 53.5 t76 126.5z" />
<glyph unicode="&#x422;" horiz-adv-x="633" d="M35 678v47h563v-47h-256v-678h-51v678h-256z" />
<glyph unicode="&#x423;" horiz-adv-x="648" d="M27 725h55l253 -478l233 478h54l-355 -725h-56l97 195z" />
<glyph unicode="&#x424;" horiz-adv-x="836" d="M443 670q93 -2 169 -36t123 -103.5t47 -163.5t-47.5 -163.5t-123 -104t-168.5 -34.5v-76h-50v76q-93 0 -169 34.5t-122.5 104t-46.5 163t46.5 163t122.5 104t169 36.5v76h50v-76zM393 111v512q-125 -1 -206.5 -69.5t-81.5 -187t81.5 -186.5t206.5 -69zM443 111 q125 1 206.5 69t81.5 187q0 79 -38.5 137.5t-103.5 88.5t-146 30v-512z" />
<glyph unicode="&#x425;" horiz-adv-x="661" d="M565 0l-235 325l-234 -325h-61l262 363l-260 362h61l233 -323l233 323h60l-259 -362l261 -363h-61z" />
<glyph unicode="&#x426;" horiz-adv-x="756" d="M722 48v-186h-49v138h-578v725h50v-677h439v677h50v-677h88z" />
<glyph unicode="&#x427;" horiz-adv-x="663" d="M518 725h51v-725h-51v346q-79 -59 -194 -59q-114 0 -185.5 65.5t-71.5 191.5v181h50v-180q0 -105 57.5 -157t153.5 -52q113 0 190 61v328z" />
<glyph unicode="&#x428;" horiz-adv-x="998" d="M524 725v-677h329v677h50v-725h-808v725h50v-677h329v677h50z" />
<glyph unicode="&#x429;" horiz-adv-x="1024" d="M991 48v-186h-50v138h-846v725h50v-677h329v677h50v-677h329v677h50v-677h88z" />
<glyph unicode="&#x42a;" horiz-adv-x="729" d="M439 441q107 0 171.5 -61t64.5 -159q0 -97 -64.5 -159t-169.5 -62h-236v678h-170v47h220v-284h184zM434 393h-179v-346h180q57 0 99.5 21.5t65.5 61t23 91.5q0 80 -51 126t-138 46z" />
<glyph unicode="&#x42b;" horiz-adv-x="822" d="M329 441q107 0 171 -61t64 -159q0 -97 -64 -159t-169 -62h-236v725h50v-284h184zM323 393h-178v-346h179q87 0 138 47.5t51 127t-51 125.5t-139 46zM728 725v-725h-50v725h50z" />
<glyph unicode="&#x42c;" horiz-adv-x="619" d="M329 441q107 0 171 -61t64 -159q0 -97 -64 -159t-169 -62h-236v725h50v-284h184zM323 393h-178v-346h179q87 0 138 47.5t51 127t-51 125.5t-139 46z" />
<glyph unicode="&#x42d;" horiz-adv-x="723" d="M276 349v49h334q-9 133 -81 210.5t-184 77.5q-95 0 -154.5 -50t-81.5 -124h-51q20 94 96.5 158t190.5 64q141 0 229.5 -101t88.5 -270q0 -86 -25 -157t-68 -117.5t-101.5 -72t-125.5 -25.5q-63 0 -115.5 19.5t-87 52.5t-56 71.5t-29.5 80.5h51q7 -33 25 -63t46.5 -56 t71.5 -41.5t95 -15.5q114 0 189.5 83t78.5 227h-336z" />
<glyph unicode="&#x42e;" horiz-adv-x="975" d="M145 0h-50v725h50v-327h136q10 151 96 243.5t221 92.5q143 0 230.5 -103.5t87.5 -268t-87.5 -268t-230.5 -103.5q-140 0 -227 99.5t-91 258.5h-135v-349zM598 39q122 0 194 89t72 235t-72 234.5t-194 88.5t-194 -88.5t-72 -235t72 -235t194 -88.5z" />
<glyph unicode="&#x42f;" horiz-adv-x="636" d="M92 0h-60l206 293q-76 18 -121 75.5t-45 137.5q0 64 28.5 114t82.5 77.5t125 27.5h234v-725h-51v284h-198zM124 506q0 -79 50.5 -126.5t137.5 -47.5h179v346h-178q-58 0 -101 -21.5t-65.5 -60.5t-22.5 -90z" />
<glyph unicode="&#x430;" horiz-adv-x="539" d="M414 347q0 34 -10.5 60t-30 43t-46 25.5t-58.5 8.5q-24 0 -45 -4.5t-37.5 -13t-30 -20.5t-23 -26.5t-15.5 -31.5h-47q15 62 68 101t131 39q87 0 139 -47.5t52 -133.5v-347h-45v80q-28 -42 -77 -65.5t-111 -23.5q-76 0 -127 41.5t-51 110.5q0 71 53 112t147 41h164v51z M233 35q79 0 130 43t51 116v58h-162q-72 0 -112 -28t-40 -81q0 -49 37.5 -78.5t95.5 -29.5z" />
<glyph unicode="&#x431;" horiz-adv-x="598" d="M313 522q104 0 168.5 -73.5t64.5 -192.5q0 -71 -27 -130.5t-82 -97t-128 -37.5q-113 0 -180 79t-67 209q0 206 51.5 309t185.5 129l194 38v-48l-186 -33q-99 -18 -143 -84.5t-54 -186.5q29 56 82 87.5t121 31.5zM306.5 36q88.5 0 139 63.5t50.5 156.5q0 96 -51 159 t-136 63q-84 0 -140 -59t-56 -161q0 -97 52.5 -159.5t141 -62.5z" />
<glyph unicode="&#x432;" horiz-adv-x="522" d="M83 0v519h203q52 0 88.5 -17t54 -46t17.5 -68q0 -45 -22 -75t-51 -41q38 -8 67.5 -41t29.5 -87q0 -64 -45.5 -104t-125.5 -40h-216zM293 246h-162v-203h163q60 0 93 28.5t33 75.5q0 46 -32 72.5t-95 26.5zM281 476h-150v-188h151q58 0 86.5 26.5t28.5 69.5q0 29 -13 49.5 t-39 31.5t-64 11z" />
<glyph unicode="&#x433;" horiz-adv-x="450" d="M414 475h-282v-475h-49v519h331v-44z" />
<glyph unicode="&#x434;" horiz-adv-x="600" d="M566 45v-176h-47v131h-459v-131h-48v176h44q59 46 71 200l21 274h342v-474h76zM174 244q-6 -75 -18.5 -121t-42.5 -78h329v430h-250z" />
<glyph unicode="&#x435;" horiz-adv-x="559" d="M507 248h-404v-3q0 -95 53 -152t134 -57q63 0 104 28t55 68h50q-16 -58 -69.5 -99.5t-139.5 -41.5q-67 0 -120.5 31t-85 92.5t-31.5 145.5q0 123 65 195.5t167 72.5q100 0 161 -66.5t61 -183.5v-30zM285 483q-77 0 -127 -52t-55 -140h354q0 46 -12.5 82.5t-35 60.5 t-54 36.5t-70.5 12.5z" />
<glyph unicode="&#x436;" horiz-adv-x="714" d="M380 519v-234l247 234h63l-257 -244l261 -275h-63l-251 263v-263h-46v263l-252 -263h-61l260 274l-257 245h63l247 -234v234h46z" />
<glyph unicode="&#x437;" horiz-adv-x="501" d="M58 382q10 70 65 108t130 38q78 0 126 -39t48 -104q0 -22 -6.5 -42t-17.5 -34t-24.5 -24t-29.5 -16q42 -10 71 -40t29 -83q0 -71 -55 -113t-140 -42q-82 0 -139.5 41t-67.5 114h49q9 -51 52 -81t107 -30q66 0 105.5 30.5t39.5 81.5q0 45 -34 71t-104 26h-85v43h77 q62 0 93.5 28t31.5 71q0 45 -34 71.5t-94 26.5q-58 0 -96.5 -27t-49.5 -75h-47z" />
<glyph unicode="&#x438;" horiz-adv-x="585" d="M502 519v-519h-48v445l-322 -445h-49v519h48v-445l322 445h49z" />
<glyph unicode="&#x439;" horiz-adv-x="585" d="M502 519v-519h-48v445l-322 -445h-49v519h48v-445l322 445h49zM193 749q0 -32 12 -56t34.5 -37.5t53.5 -13.5q45 0 72 29t27 78h46q-1 -68 -40.5 -108.5t-104.5 -40.5q-43 0 -75.5 18.5t-51 52t-19.5 78.5h46z" />
<glyph unicode="&#x43a;" horiz-adv-x="498" d="M132 0h-49v519h49v-230l274 230h67l-289 -243l295 -276h-67l-280 261v-261z" />
<glyph unicode="&#x43b;" horiz-adv-x="565" d="M12 -1v45h11q53 0 75.5 32.5t29.5 106.5l29 336h325v-519h-48v475h-234l-25 -295q-8 -95 -42.5 -138t-105.5 -43h-15z" />
<glyph unicode="&#x43c;" horiz-adv-x="724" d="M83 519h58l222 -459l220 459h58v-519h-48v437l-211 -437h-40l-211 437v-437h-48v519z" />
<glyph unicode="&#x43d;" horiz-adv-x="579" d="M132 0h-49v519h49v-226h316v226h48v-519h-48v247h-316v-247z" />
<glyph unicode="&#x43e;" horiz-adv-x="585" d="M292.5 528q107.5 0 174 -74.5t66.5 -194t-66.5 -194t-173.5 -74.5q-54 0 -98.5 19.5t-76 54.5t-48.5 85t-17 110q0 119 66 193.5t173.5 74.5zM292.5 36q85.5 0 138 61t52.5 162.5t-52.5 162.5t-138 61t-138 -61t-52.5 -162.5t52.5 -162.5t138 -61z" />
<glyph unicode="&#x43f;" horiz-adv-x="576" d="M83 519h410v-519h-48v474h-313v-474h-49v519z" />
<glyph unicode="&#x440;" horiz-adv-x="604" d="M319 528q99 0 166 -71.5t67 -196.5q0 -126 -66.5 -197.5t-167.5 -71.5q-62 0 -110.5 28t-75.5 76v-292h-49v716h47v-100q27 51 76.5 80t112.5 29zM316 36q84 0 135.5 61.5t51.5 162.5t-52 162t-135 61q-82 0 -134 -59.5t-52 -155.5v-17q0 -94 51.5 -154.5t134.5 -60.5z " />
<glyph unicode="&#x441;" horiz-adv-x="553" d="M289 36q72 0 114 37t54 88h49q-11 -70 -69.5 -120t-147.5 -50q-101 0 -168.5 73t-67.5 196q0 121 67 194.5t169 73.5q88 0 145.5 -49t71.5 -119h-49q-15 53 -58.5 88t-109.5 35q-81 0 -134 -60.5t-53 -162.5q0 -69 25.5 -120.5t67.5 -77.5t94 -26z" />
<glyph unicode="&#x442;" horiz-adv-x="493" d="M33 474v45h427v-45h-189v-474h-49v474h-189z" />
<glyph unicode="&#x443;" horiz-adv-x="521" d="M447 519h53l-297 -716h-53l85 204l-213 512h52l187 -453z" />
<glyph unicode="&#x444;" horiz-adv-x="704" d="M376 527q125 -3 200.5 -77.5t75.5 -189.5q0 -116 -75.5 -190.5t-200.5 -77.5v-189h-47v189q-83 2 -146.5 37t-96.5 95t-33 136q0 115 75 189.5t201 77.5v198h47v-198zM329 37v445q-103 -2 -165 -63.5t-62 -159t62 -159t165 -63.5zM603 260q0 97 -62.5 158.5t-164.5 63.5 v-445q68 2 119.5 30t79.5 78t28 115z" />
<glyph unicode="&#x445;" horiz-adv-x="517" d="M427 0l-171 225l-166 -225h-58l194 260l-192 259h58l167 -225l166 225h58l-194 -259l196 -260h-58z" />
<glyph unicode="&#x446;" horiz-adv-x="601" d="M568 45v-176h-48v131h-437v519h49v-474h311v474h48v-474h77z" />
<glyph unicode="&#x447;" horiz-adv-x="534" d="M403 519h48v-519h-48v233q-61 -39 -140 -39q-44 0 -80.5 12.5t-63 37t-41.5 63.5t-15 90v122h48v-121q0 -53 20.5 -89.5t55 -53.5t81.5 -17q75 0 135 41v240z" />
<glyph unicode="&#x448;" horiz-adv-x="804" d="M426 519v-474h247v474h48v-519h-638v519h49v-474h246v474h48z" />
<glyph unicode="&#x449;" horiz-adv-x="831" d="M797 45v-176h-47v131h-667v519h49v-474h246v474h48v-474h247v474h48v-474h76z" />
<glyph unicode="&#x44a;" horiz-adv-x="590" d="M231 519v-186h134q80 0 129 -46t49 -120q0 -73 -49.5 -120t-128.5 -47h-183v475h-149v44h198zM359 288h-128v-244h128q42 0 72.5 16t46 43.5t15.5 63.5q0 18 -4 34t-11.5 29t-19.5 24t-26.5 18.5t-33 11.5t-39.5 4z" />
<glyph unicode="&#x44b;" horiz-adv-x="673" d="M132 519v-186h134q53 0 93.5 -21t62.5 -59t22 -86q0 -73 -49.5 -120t-128.5 -47h-183v519h49zM261 288h-129v-244h129q62 0 97.5 34t35.5 89q0 21 -5.5 39.5t-17 33.5t-27.5 26t-37 16.5t-46 5.5zM590 519v-519h-48v519h48z" />
<glyph unicode="&#x44c;" horiz-adv-x="491" d="M132 519v-186h134q53 0 93.5 -21t62.5 -59t22 -86q0 -73 -49.5 -120t-128.5 -47h-183v519h49zM261 288h-129v-244h129q62 0 97.5 34t35.5 89q0 21 -5.5 39.5t-17 33.5t-27.5 26t-37 16.5t-46 5.5z" />
<glyph unicode="&#x44d;" horiz-adv-x="547" d="M190 291h255q-4 47 -19.5 84t-40 60.5t-56 35.5t-67.5 12q-67 0 -109 -32.5t-56 -79.5h-49q15 66 70.5 111.5t143.5 45.5q103 0 168 -70.5t65 -197.5q0 -124 -67 -196.5t-168 -72.5q-90 0 -146.5 47.5t-66.5 113.5h48q9 -45 50.5 -80.5t114.5 -35.5q78 0 131 56t56 155 h-257v44z" />
<glyph unicode="&#x44e;" horiz-adv-x="773" d="M132 0h-49v519h49v-226h119q10 106 74 170.5t161 64.5q105 0 170 -74.5t65 -194t-65 -194t-170 -74.5q-102 0 -167.5 70.5t-68.5 185.5h-118v-247zM486 36q83 0 134.5 61t51.5 162.5t-51.5 162.5t-134.5 61t-134.5 -61t-51.5 -162.5t51.5 -162.5t134.5 -61z" />
<glyph unicode="&#x44f;" horiz-adv-x="508" d="M425 0h-48v192h-139l-147 -192h-59l152 198q-58 15 -90.5 58t-32.5 100q0 72 48 117.5t132 45.5h184v-519zM110 356q0 -52 36 -86t100 -34h131v239h-131q-63 0 -99.5 -33t-36.5 -86z" />
<glyph unicode="&#x450;" horiz-adv-x="559" d="M507 248h-404v-3q0 -95 53 -152t134 -57q63 0 104 28t55 68h50q-16 -58 -69.5 -99.5t-139.5 -41.5q-67 0 -120.5 31t-85 92.5t-31.5 145.5q0 123 65 195.5t167 72.5q100 0 161 -66.5t61 -183.5v-30zM285 483q-77 0 -127 -52t-55 -140h354q0 46 -12.5 82.5t-35 60.5 t-54 36.5t-70.5 12.5zM164 749h55l95 -146h-52z" />
<glyph unicode="&#x451;" horiz-adv-x="559" d="M507 248h-404v-3q0 -95 53 -152t134 -57q63 0 104 28t55 68h50q-16 -58 -69.5 -99.5t-139.5 -41.5q-67 0 -120.5 31t-85 92.5t-31.5 145.5q0 123 65 195.5t167 72.5q100 0 161 -66.5t61 -183.5v-30zM285 483q-77 0 -127 -52t-55 -140h354q0 46 -12.5 82.5t-35 60.5 t-54 36.5t-70.5 12.5zM187 716q18 0 30 -12t12 -29.5t-12 -29.5t-29.5 -12t-29.5 12t-12 30q0 8 3.5 16t9 13.5t13 8.5t15.5 3zM383 716q17 0 29 -12t12 -29.5t-12 -29.5t-29 -12t-29 12t-12 29.5t12 29.5t29 12z" />
<glyph unicode="&#x452;" horiz-adv-x="582" d="M311 528q82 0 138 -50.5t56 -147.5v-376q0 -75 -35 -113t-102 -38h-23v45h18q93 0 93 108v366q0 54 -20.5 91.5t-54 53.5t-76.5 16q-32 0 -61.5 -10t-54 -30t-39.5 -53.5t-15 -76.5v-313h-48v630h-78v43h78v76h48v-76h152v-43h-152v-189q26 40 73.5 63.5t102.5 23.5z" />
<glyph unicode="&#x453;" horiz-adv-x="450" d="M414 475h-282v-475h-49v519h331v-44zM382 749l-98 -146h-52l95 146h55z" />
<glyph unicode="&#x454;" horiz-adv-x="547" d="M358 291v-44h-256q2 -99 54.5 -155t132.5 -56q73 0 113.5 35t50.5 81h48q-10 -66 -66.5 -113.5t-146.5 -47.5q-101 0 -168 72.5t-67 196.5q0 123 66 195.5t169 72.5q89 0 144 -45.5t69 -111.5h-49q-14 47 -55.5 79.5t-108.5 32.5q-49 0 -88.5 -22t-65 -66t-31.5 -104h255 z" />
<glyph unicode="&#x455;" horiz-adv-x="503" d="M98 143q15 -53 57.5 -80.5t109.5 -27.5q62 0 101 28.5t39 76.5q0 79 -102 92l-97 12q-65 8 -103.5 41.5t-38.5 92.5q0 64 52.5 107t132.5 43q77 0 129.5 -38.5t62.5 -104.5h-48q-10 46 -48 72.5t-96 26.5q-61 0 -98.5 -29t-37.5 -74q0 -39 26.5 -61.5t74.5 -29.5l98 -13 q44 -6 75 -22t49 -44.5t18 -67.5q0 -69 -53.5 -110.5t-134.5 -41.5q-83 0 -142.5 37.5t-73.5 114.5h48z" />
<glyph unicode="&#x456;" horiz-adv-x="215" d="M132 519v-519h-49v519h49zM108 716q17 0 29 -12t12 -29.5t-12 -29.5t-29 -12t-29 12t-12 29.5t12 29.5t29 12z" />
<glyph unicode="&#x457;" horiz-adv-x="215" d="M132 519v-519h-49v519h49zM40 714q8 0 15 -3t12 -8.5t8 -12.5t3 -15q0 -16 -11 -27t-27 -11q-17 0 -28 11t-11 27t11 27.5t28 11.5zM175 714q17 0 28 -11.5t11 -27.5q0 -11 -5 -19.5t-14 -13.5t-20 -5q-7 0 -14.5 3t-12.5 8t-8 12t-3 15q0 16 11.5 27.5t26.5 11.5z" />
<glyph unicode="&#x458;" horiz-adv-x="216" d="M-27 -197v45h18q93 0 93 108v563h49v-565q0 -75 -35 -113t-102 -38h-23zM109 716q17 0 29 -12t12 -29.5t-12 -29.5t-29 -12t-29 12t-12 29.5t12 29.5t29 12z" />
<glyph unicode="&#x459;" horiz-adv-x="841" d="M616 333q80 0 129 -46t49 -120q0 -73 -49 -120t-129 -47h-182v475h-234l-25 -295q-8 -95 -42.5 -138t-105.5 -43h-15v45h11q53 0 75.5 32.5t29.5 106.5l29 336h325v-186h134zM611 288h-129v-244h129q62 0 98 34t36 89q0 26 -9.5 48.5t-26 38.5t-42 25t-56.5 9z" />
<glyph unicode="&#x45a;" horiz-adv-x="843" d="M132 0h-49v519h49v-210h310v210h48v-209h141q75 0 120 -43.5t45 -110.5q0 -68 -45 -112t-121 -44h-188v265h-310v-265zM625 266h-135v-222h135q57 0 90 31.5t33 80t-33 79.5t-90 31z" />
<glyph unicode="&#x45b;" horiz-adv-x="582" d="M9 673h78v76h48v-76h152v-43h-152v-189q26 40 73.5 63.5t102.5 23.5q82 0 138 -50.5t56 -148.5v-329h-49v321q0 81 -42 121.5t-109 40.5q-32 0 -61.5 -10t-54 -30t-39.5 -53.5t-15 -76.5v-313h-48v630h-78v43z" />
<glyph unicode="&#x45c;" horiz-adv-x="498" d="M132 0h-49v519h49v-230l274 230h67l-289 -243l295 -276h-67l-280 261v-261zM383 749l-98 -146h-52l95 146h55z" />
<glyph unicode="&#x45d;" horiz-adv-x="585" d="M502 519v-519h-48v445l-322 -445h-49v519h48v-445l322 445h49zM171 749h56l94 -146h-52z" />
<glyph unicode="&#x45e;" horiz-adv-x="521" d="M447 519h53l-297 -716h-53l85 204l-213 512h52l187 -453zM162 749q0 -32 12 -56t34.5 -37.5t53.5 -13.5q46 0 73 29t27 78h45q-1 -45 -19 -78.5t-50.5 -52t-75.5 -18.5q-65 0 -105 40.5t-41 108.5h46z" />
<glyph unicode="&#x45f;" horiz-adv-x="576" d="M83 0v519h49v-474h313v474h48v-519h-181v-144h-47v144h-182z" />
<glyph unicode="&#x462;" horiz-adv-x="763" d="M35 562v46h202v126h50v-126h232v-46h-232v-137h189q106 0 169 -57.5t63 -154.5q0 -95 -63.5 -154t-167.5 -59h-240v562h-202zM471 378h-184v-331h184q84 0 134.5 44.5t50.5 121.5t-50 121t-135 44z" />
<glyph unicode="&#x463;" horiz-adv-x="622" d="M33 475v44h182v206h49v-206h197v-44h-197v-153h137q80 0 127 -44.5t47 -116t-47.5 -116.5t-126.5 -45h-186v475h-182zM394 278h-130v-234h130q62 0 96.5 33t34.5 85t-34.5 84t-96.5 32z" />
<glyph unicode="&#x472;" horiz-adv-x="766" d="M383 734q145 0 234.5 -103.5t89.5 -268t-89.5 -268t-234.5 -103.5q-146 0 -234.5 103.5t-88.5 268.5t88.5 268t234.5 103zM383 39q122 0 196 86.5t76 229.5q-49 -42 -128 -42q-39 0 -80 12t-70 26.5t-67 26t-72 11.5q-76 0 -127 -41q3 -92 36.5 -162t94.5 -108.5 t141 -38.5zM383 686q-77 0 -136.5 -36t-94 -101.5t-40.5 -152.5q49 42 126 42q40 0 81 -12t70 -26.5t67 -27t72 -12.5q76 0 125 41q-10 130 -82.5 207.5t-187.5 77.5z" />
<glyph unicode="&#x473;" horiz-adv-x="585" d="M292.5 528q107.5 0 174 -74.5t66.5 -194t-66.5 -194t-173.5 -74.5q-54 0 -98.5 19.5t-76 54.5t-48.5 85t-17 110q0 119 66 193.5t173.5 74.5zM293 36q54 0 96.5 26t67 74t26.5 112q-34 -31 -87 -31q-45 0 -108.5 28.5t-99.5 28.5q-54 0 -86 -29q4 -95 56 -152t135 -57z M293 483q-53 0 -94 -23.5t-66 -67t-30 -102.5q36 29 85 29q38 0 74.5 -14t70 -28t64.5 -14q51 0 85 28q-8 88 -59.5 140t-129.5 52z" />
<glyph unicode="&#x474;" horiz-adv-x="741" d="M709 726h18v-47h-14q-32 0 -54.5 -8.5t-40.5 -31.5t-30 -48.5t-31 -73.5l-200 -517h-50l-280 725h54l251 -658l178 467q14 35 24 58t23.5 47t27 38.5t32 26.5t41 17t51.5 5z" />
<glyph unicode="&#x475;" horiz-adv-x="573" d="M543 520h18v-44h-14q-27 0 -47 -11.5t-36 -34t-32 -62.5l-150 -368h-50l-210 519h52l182 -457l131 324q31 76 63.5 105t92.5 29z" />
<glyph unicode="&#x490;" horiz-adv-x="566" d="M528 861v-183h-383v-678h-50v725h384v136h49z" />
<glyph unicode="&#x491;" horiz-adv-x="450" d="M414 648v-173h-282v-475h-49v519h285v129h46z" />
<glyph unicode="&#x492;" horiz-adv-x="578" d="M439 332h-281v-332h-51v332h-88v47h88v346h434v-47h-383v-299h281v-47z" />
<glyph unicode="&#x493;" horiz-adv-x="457" d="M12 280h79v239h330v-44h-282v-195h195v-43h-195v-237h-48v237h-79v43z" />
<glyph unicode="&#x496;" horiz-adv-x="974" d="M940 48v-186h-49v138h-59l-348 360v-360h-50v360l-349 -360h-65l359 376l-352 349h68l339 -335v335h50v-335l339 335h68l-352 -348l314 -329h87z" />
<glyph unicode="&#x497;" horiz-adv-x="751" d="M718 45v-176h-47v131h-40l-251 263v-263h-46v263l-252 -263h-61l260 274l-257 245h63l247 -234v234h46v-234l247 234h63l-257 -244l218 -230h67z" />
<glyph unicode="&#x498;" horiz-adv-x="611" d="M59 544q13 91 81.5 140.5t162.5 49.5q101 0 163 -54.5t62 -137.5q0 -59 -31.5 -101.5t-82.5 -62.5q26 -7 49.5 -20t45 -34t34 -53.5t12.5 -71.5q0 -83 -59 -141.5t-159 -65.5v-151h-50v151q-101 6 -163 58t-74 140h50q13 -70 67 -111t145 -41q90 0 141 46.5t51 115.5 q0 71 -51 111t-140 40h-107v47h104q81 0 124 41t43 101q0 65 -48 106t-126 41q-77 0 -129 -37t-66 -106h-49z" />
<glyph unicode="&#x499;" horiz-adv-x="501" d="M58 382q10 70 65 108t130 38q78 0 126 -39t48 -104q0 -22 -6.5 -42t-17.5 -34t-24.5 -24t-29.5 -16q42 -10 71 -40t29 -83q0 -65 -47.5 -106.5t-122.5 -47.5v-143h-47v143q-75 5 -125.5 45.5t-59.5 108.5h49q9 -51 52 -81t107 -30q66 0 105.5 30.5t39.5 81.5q0 45 -34 71 t-104 26h-85v43h77q62 0 93.5 28t31.5 71q0 45 -34 71.5t-94 26.5q-58 0 -96.5 -27t-49.5 -75h-47z" />
<glyph unicode="&#x49a;" horiz-adv-x="670" d="M637 48v-186h-50v138h-59l-383 357v-357h-50v725h50v-332l375 332h71l-392 -348l351 -329h87z" />
<glyph unicode="&#x49b;" horiz-adv-x="532" d="M499 45v-176h-48v131h-39l-280 261v-261h-49v519h49v-230l274 230h67l-289 -243l247 -231h68z" />
<glyph unicode="&#x49c;" horiz-adv-x="690" d="M145 0h-50v725h50v-328h106v189h46v-185l285 324h63l-306 -348l316 -377h-65l-293 350v-190h-46v191h-106v-351z" />
<glyph unicode="&#x49d;" horiz-adv-x="562" d="M132 0h-49v519h49v-224h88v139h44v-136l213 221h61l-234 -243l239 -276h-62l-217 251v-141h-44v141h-88v-251z" />
<glyph unicode="&#x4a0;" horiz-adv-x="730" d="M255 725v-332l375 332h71l-392 -348l403 -377h-73l-384 357v-357h-50v678h-170v47h220z" />
<glyph unicode="&#x4a1;" horiz-adv-x="597" d="M182 0v474h-149v45h198v-230l274 230h67l-289 -243l295 -276h-67l-280 261v-261h-49z" />
<glyph unicode="&#x4a2;" horiz-adv-x="762" d="M728 48v-186h-49v138h-89v349h-445v-349h-50v725h50v-327h445v327h51v-677h87z" />
<glyph unicode="&#x4a3;" horiz-adv-x="606" d="M573 45v-176h-48v131h-77v247h-316v-247h-49v519h49v-226h316v226h48v-474h77z" />
<glyph unicode="&#x4a4;" horiz-adv-x="1061" d="M145 0h-50v725h50v-327h445v327h434v-47h-383v-678h-51v349h-445v-349z" />
<glyph unicode="&#x4a5;" horiz-adv-x="814" d="M132 0h-49v519h49v-226h316v226h331v-44h-283v-475h-48v247h-316v-247z" />
<glyph unicode="&#x4aa;" horiz-adv-x="723" d="M617 219h51q-6 -41 -26 -79t-52 -70t-80.5 -53.5t-106.5 -24.5v-151h-50v151q-129 9 -211 109t-82 262q0 166 88.5 268.5t228.5 102.5q117 0 194.5 -65t94.5 -161h-51q-19 76 -80 127t-158 51q-119 0 -192.5 -88.5t-73.5 -234.5q0 -149 75 -236.5t192 -87.5 q101 0 163 53.5t76 126.5z" />
<glyph unicode="&#x4ab;" horiz-adv-x="553" d="M289 36q72 0 114 37t54 88h49q-10 -65 -62 -114t-131 -55v-143h-47v143q-93 9 -153 81t-60 187q0 121 67 194.5t169 73.5q88 0 145.5 -49t71.5 -119h-49q-15 53 -58.5 88t-109.5 35q-81 0 -134 -60.5t-53 -162.5q0 -69 25.5 -120.5t67.5 -77.5t94 -26z" />
<glyph unicode="&#x4ac;" horiz-adv-x="633" d="M430 48v-186h-50v138h-89v678h-256v47h563v-47h-256v-630h88z" />
<glyph unicode="&#x4ad;" horiz-adv-x="493" d="M347 45v-176h-47v131h-78v474h-189v45h427v-45h-189v-429h76z" />
<glyph unicode="&#x4ae;" horiz-adv-x="638" d="M345 0h-50v300l-273 425h58l239 -375l239 375h59l-272 -423v-302z" />
<glyph unicode="&#x4af;" horiz-adv-x="521" d="M500 519l-216 -517v-199h-48v199l-214 517h52l186 -453l187 453h53z" />
<glyph unicode="&#x4b0;" horiz-adv-x="638" d="M546 291h-201v-291h-50v291h-202v47h177l-248 387h58l239 -375l239 375h59l-249 -387h178v-47z" />
<glyph unicode="&#x4b1;" horiz-adv-x="521" d="M111 11h121l-210 508h52l186 -453l187 453h53l-213 -508h123v-43h-126v-165h-48v165h-125v43z" />
<glyph unicode="&#x4b2;" horiz-adv-x="707" d="M565 0l-235 325l-234 -325h-61l262 363l-260 362h61l233 -323l233 323h60l-259 -362l226 -315h83v-186h-50v138h-59z" />
<glyph unicode="&#x4b3;" horiz-adv-x="547" d="M427 0l-171 225l-166 -225h-58l194 260l-192 259h58l167 -225l166 225h58l-194 -259l162 -215h63v-176h-47v131h-40z" />
<glyph unicode="&#x4b4;" horiz-adv-x="941" d="M35 678v47h545v-47h-253v-630h441v677h51v-677h88v-186h-49v138h-582v678h-241z" />
<glyph unicode="&#x4b5;" horiz-adv-x="736" d="M33 475v44h413v-44h-183v-430h315v474h48v-474h76v-176h-47v131h-441v475h-181z" />
<glyph unicode="&#x4b6;" horiz-adv-x="690" d="M656 48v-186h-49v138h-89v346q-79 -59 -194 -59q-114 0 -185.5 65.5t-71.5 191.5v181h50v-180q0 -105 57.5 -157t153.5 -52q113 0 190 61v328h51v-677h87z" />
<glyph unicode="&#x4b7;" horiz-adv-x="561" d="M527 45v-176h-47v131h-77v233q-61 -39 -140 -39q-44 0 -80.5 12.5t-63 37t-41.5 63.5t-15 90v122h48v-121q0 -53 20.5 -89.5t55 -53.5t81.5 -17q75 0 135 41v240h48v-474h76z" />
<glyph unicode="&#x4b8;" horiz-adv-x="663" d="M344 108h-45v180q-104 8 -168 72.5t-64 183.5v181h50v-180q0 -97 49 -149t133 -59v198h45v-199q103 4 174 61v328h51v-725h-51v346q-71 -53 -174 -59v-179z" />
<glyph unicode="&#x4b9;" horiz-adv-x="536" d="M284 63h-43v132q-82 6 -130 57.5t-48 144.5v122h48v-121q0 -71 34.5 -111t95.5 -48v147h43v-148q67 4 121 41v240h48v-519h-48v233q-53 -34 -121 -38v-132z" />
<glyph unicode="&#x4ba;" horiz-adv-x="675" d="M145 0h-50v725h50v-327q77 58 194 58q74 0 131 -27t91.5 -85.5t34.5 -143.5v-200h-50v199q0 104 -57.5 156.5t-152.5 52.5q-116 0 -191 -62v-346z" />
<glyph unicode="&#x4bb;" horiz-adv-x="579" d="M308 528q82 0 138 -50.5t56 -148.5v-329h-49v321q0 42 -11.5 73.5t-32.5 50.5t-48 28.5t-59 9.5t-61.5 -10t-54 -30t-39.5 -53.5t-15 -76.5v-313h-49v749h49v-308q26 40 73.5 63.5t102.5 23.5z" />
<glyph unicode="&#x4c0;" horiz-adv-x="239" d="M145 725v-725h-50v725h50z" />
<glyph unicode="&#x4c1;" horiz-adv-x="918" d="M434 0v360l-349 -360h-65l359 376l-352 349h68l339 -335v335h50v-335l339 335h68l-352 -348l360 -377h-67l-348 360v-360h-50zM353 947q0 -48 29.5 -78t75.5 -30q23 0 42.5 8t33.5 22t21.5 34t7.5 44h46q-1 -68 -43 -108.5t-108 -40.5q-65 0 -107 41t-43 108h45z" />
<glyph unicode="&#x4c2;" horiz-adv-x="714" d="M380 519v-234l247 234h63l-257 -244l261 -275h-63l-251 263v-263h-46v263l-252 -263h-61l260 274l-257 245h63l247 -234v234h46zM256 749q0 -32 12 -56t35 -37.5t53.5 -13.5t53 13.5t34.5 37.5t12 56h46q-1 -68 -41 -108.5t-105 -40.5q-42 0 -75 18.5t-51 52t-19 78.5h45 z" />
<glyph unicode="&#x4cf;" horiz-adv-x="215" d="M132 749v-749h-49v749h49z" />
<glyph unicode="&#x4d0;" horiz-adv-x="667" d="M308 725h51l282 -725h-55l-83 217h-339l-83 -217h-54zM333 661l-152 -397h304zM230 947q0 -48 29 -78t75.5 -30t76 30t29.5 78h45q-1 -68 -43 -108.5t-107 -40.5t-107.5 41t-43.5 108h46z" />
<glyph unicode="&#x4d1;" horiz-adv-x="539" d="M414 347q0 34 -10.5 60t-30 43t-46 25.5t-58.5 8.5q-24 0 -45 -4.5t-37.5 -13t-30 -20.5t-23 -26.5t-15.5 -31.5h-47q15 62 68 101t131 39q87 0 139 -47.5t52 -133.5v-347h-45v80q-28 -42 -77 -65.5t-111 -23.5q-76 0 -127 41.5t-51 110.5q0 71 53 112t147 41h164v51z M233 35q79 0 130 43t51 116v58h-162q-72 0 -112 -28t-40 -81q0 -49 37.5 -78.5t95.5 -29.5zM171 749q0 -32 12 -56t34.5 -37.5t53.5 -13.5q46 0 73 29t27 78h45q-1 -68 -40.5 -108.5t-104.5 -40.5t-105 40.5t-40 108.5h45z" />
<glyph unicode="&#x4d2;" horiz-adv-x="667" d="M308 725h51l282 -725h-55l-83 217h-339l-83 -217h-54zM333 661l-152 -397h304zM233 914q17 0 29 -12t12 -29.5t-12 -29.5t-29 -12t-29 12t-12 29q0 12 5.5 21.5t15 15t20.5 5.5zM437 914q17 0 29 -12t12 -29.5t-12 -29.5t-29 -12t-29 12t-12 29q0 9 3 17t8.5 13t13 8.5 t16.5 3.5z" />
<glyph unicode="&#x4d3;" horiz-adv-x="539" d="M414 347q0 34 -10.5 60t-30 43t-46 25.5t-58.5 8.5q-24 0 -45 -4.5t-37.5 -13t-30 -20.5t-23 -26.5t-15.5 -31.5h-47q15 62 68 101t131 39q87 0 139 -47.5t52 -133.5v-347h-45v80q-28 -42 -77 -65.5t-111 -23.5q-76 0 -127 41.5t-51 110.5q0 71 53 112t147 41h164v51z M233 35q79 0 130 43t51 116v58h-162q-72 0 -112 -28t-40 -81q0 -49 37.5 -78.5t95.5 -29.5zM173 716q17 0 29 -12t12 -29.5t-12 -29.5t-29 -12t-29 12t-12 30q0 7 2 13t6 11t9 9t11 6t13 2zM369 716q17 0 29 -12t12 -29.5t-12 -29.5t-29 -12t-29 12t-12 29.5t12 29.5t29 12z " />
<glyph unicode="&#x4d4;" horiz-adv-x="1003" d="M480 725h458v-47h-382v-281h363v-47h-363v-303h382v-47h-431v217h-296l-139 -217h-56zM240 264h267v416z" />
<glyph unicode="&#x4d5;" horiz-adv-x="917" d="M270 528q44 0 80 -13t61 -39.5t37 -63.5q30 56 81 86t116 30t114.5 -29t77.5 -85.5t28 -133.5v-30h-404v-5q0 -95 53.5 -152t135.5 -57q42 0 76.5 14.5t53.5 35.5t28 46h49q-16 -58 -68.5 -99.5t-138.5 -41.5q-69 0 -123.5 33t-83.5 94q-25 -59 -82 -93t-132 -34 q-77 0 -128 41t-51 110q0 70 53 111t147 41h164v53q0 34 -10.5 60t-30 43t-46 25.5t-58.5 8.5q-24 0 -45 -4.5t-37.5 -13t-30 -20.5t-23 -26.5t-15.5 -31.5h-47q15 62 68.5 101t130.5 39zM233 35q79 0 130 44t51 111v60h-162q-72 0 -112 -28.5t-40 -79.5q0 -49 37 -78 t96 -29zM644 483q-78 0 -127 -51.5t-55 -137.5h354q-2 90 -48 139.5t-124 49.5z" />
<glyph unicode="&#x4d6;" horiz-adv-x="600" d="M536 678h-391v-281h371v-47h-371v-303h391v-47h-441v725h441v-47zM213 947q0 -48 29.5 -78t76 -30t75.5 30t29 78h46q-1 -68 -43 -108.5t-108 -40.5q-65 0 -107 41t-43 108h45z" />
<glyph unicode="&#x4d7;" horiz-adv-x="559" d="M507 248h-404v-3q0 -95 53 -152t134 -57q63 0 104 28t55 68h50q-16 -58 -69.5 -99.5t-139.5 -41.5q-67 0 -120.5 31t-85 92.5t-31.5 145.5q0 123 65 195.5t167 72.5q100 0 161 -66.5t61 -183.5v-30zM285 483q-77 0 -127 -52t-55 -140h354q0 46 -12.5 82.5t-35 60.5 t-54 36.5t-70.5 12.5zM185 749q0 -32 12 -56t35 -37.5t53 -13.5q46 0 73 29t27 78h46q-1 -68 -41 -108.5t-105 -40.5q-64 0 -104 40.5t-41 108.5h45z" />
<glyph unicode="&#x4d8;" horiz-adv-x="737" d="M60 344v34h566q-1 139 -75.5 223.5t-194.5 84.5q-90 0 -149.5 -41t-85.5 -109h-53q26 86 101.5 142t186.5 56q147 0 234.5 -101.5t87.5 -269.5q0 -166 -84 -269t-225 -103q-142 0 -225.5 97.5t-83.5 255.5zM368 39q116 0 185 81t73 212h-516q2 -133 72 -213t186 -80z" />
<glyph unicode="&#x4d9;" horiz-adv-x="559" d="M53 247v30h403q0 95 -51.5 150.5t-133.5 55.5q-63 0 -103.5 -27.5t-54.5 -68.5h-50q17 58 70 99.5t139 41.5q105 0 170 -71t65 -197q0 -124 -63.5 -196.5t-165.5 -72.5q-101 0 -163 67.5t-62 188.5zM278 36q78 0 125.5 53.5t51.5 144.5h-353q1 -96 48.5 -147t127.5 -51z " />
<glyph unicode="&#x4da;" horiz-adv-x="737" d="M60 344v34h566q-1 139 -75.5 223.5t-194.5 84.5q-90 0 -149.5 -41t-85.5 -109h-53q26 86 101.5 142t186.5 56q147 0 234.5 -101.5t87.5 -269.5q0 -166 -84 -269t-225 -103q-142 0 -225.5 97.5t-83.5 255.5zM368 39q116 0 185 81t73 212h-516q2 -133 72 -213t186 -80z M265 914q17 0 29 -12t12 -29.5t-12 -29.5t-29 -12t-29 12t-12 29q0 12 5.5 21.5t14.5 15t21 5.5zM469 914q17 0 29 -12t12 -29.5t-12 -29.5t-29.5 -12t-29.5 12t-12 29q0 7 2.5 13.5t6 11.5t8.5 9t11.5 6t13.5 2z" />
<glyph unicode="&#x4db;" horiz-adv-x="559" d="M53 247v30h403q0 95 -51.5 150.5t-133.5 55.5q-63 0 -103.5 -27.5t-54.5 -68.5h-50q17 58 70 99.5t139 41.5q105 0 170 -71t65 -197q0 -124 -63.5 -196.5t-165.5 -72.5q-101 0 -163 67.5t-62 188.5zM278 36q78 0 125.5 53.5t51.5 144.5h-353q1 -96 48.5 -147t127.5 -51z M181 716q17 0 29 -12t12 -29.5t-12 -29.5t-29 -12t-29 12t-12 30q0 7 2 13t6 11t9 9t11.5 6t12.5 2zM377 716q17 0 29 -12t12 -29.5t-12 -29.5t-29 -12t-29 12t-12 29.5t12 29.5t29 12z" />
<glyph unicode="&#x4dc;" horiz-adv-x="918" d="M434 0v360l-349 -360h-65l359 376l-352 349h68l339 -335v335h50v-335l339 335h68l-352 -348l360 -377h-67l-348 360v-360h-50zM356 914q18 0 30 -12t12 -29.5t-12 -29.5t-29.5 -12t-29.5 12t-12 29q0 9 3.5 17t9 13t13 8.5t15.5 3.5zM560 914q17 0 29.5 -12t12.5 -29.5 t-12.5 -29.5t-29.5 -12t-29 12t-12 29q0 12 5.5 21.5t15 15t20.5 5.5z" />
<glyph unicode="&#x4dd;" horiz-adv-x="714" d="M380 519v-234l247 234h63l-257 -244l261 -275h-63l-251 263v-263h-46v263l-252 -263h-61l260 274l-257 245h63l247 -234v234h46zM258.5 716q17.5 0 29.5 -12t12 -29.5t-12 -29.5t-29 -12q-12 0 -21.5 5.5t-15 15t-5.5 21.5q0 17 12 29t29.5 12zM454 716q17 0 29 -12 t12 -29.5t-12 -29.5t-29 -12t-29 12t-12 29.5t12 29.5t29 12z" />
<glyph unicode="&#x4de;" horiz-adv-x="611" d="M59 544q13 91 81.5 140.5t162.5 49.5q101 0 163 -54.5t62 -137.5q0 -59 -31.5 -101.5t-82.5 -62.5q26 -7 49.5 -20t45 -34t34 -53.5t12.5 -71.5q0 -88 -66 -148t-177 -60t-180 53t-82 146h50q13 -70 67 -111t145 -41q90 0 141 46.5t51 115.5q0 71 -51 111t-140 40h-107 v47h104q81 0 124 41t43 101q0 65 -48 106t-126 41q-77 0 -129 -37t-66 -106h-49zM201 914q17 0 29 -12t12 -29.5t-12 -29.5t-29 -12t-29 12t-12 29.5t12 29.5t29 12zM405 914q17 0 29 -12t12 -29.5t-12 -29.5t-29 -12t-29 12t-12 29q0 9 3 17t8.5 13t13 8.5t16.5 3.5z" />
<glyph unicode="&#x4df;" horiz-adv-x="501" d="M58 382q10 70 65 108t130 38q78 0 126 -39t48 -104q0 -22 -6.5 -42t-17.5 -34t-24.5 -24t-29.5 -16q42 -10 71 -40t29 -83q0 -71 -55 -113t-140 -42q-82 0 -139.5 41t-67.5 114h49q9 -51 52 -81t107 -30q66 0 105.5 30.5t39.5 81.5q0 45 -34 71t-104 26h-85v43h77 q62 0 93.5 28t31.5 71q0 45 -34 71.5t-94 26.5q-58 0 -96.5 -27t-49.5 -75h-47zM153 716q18 0 30 -12t12 -29.5t-12 -29.5t-29.5 -12t-29.5 12t-12 30q0 7 2 13t6 11t9 9t11.5 6t12.5 2zM349 716q17 0 29 -12t12 -29.5t-12 -29.5t-29 -12t-29 12t-12 29.5t12 29.5t29 12z " />
<glyph unicode="&#x4e2;" horiz-adv-x="738" d="M644 725v-725h-51v643l-448 -643h-50v725h50v-644l448 644h51zM227 895h286v-43h-286v43z" />
<glyph unicode="&#x4e3;" horiz-adv-x="585" d="M502 519v-519h-48v445l-322 -445h-49v519h48v-445l322 445h49zM154 697h277v-43h-277v43z" />
<glyph unicode="&#x4e4;" horiz-adv-x="738" d="M644 725v-725h-51v643l-448 -643h-50v725h50v-644l448 644h51zM268 914q17 0 29 -12t12 -29.5t-12 -29.5t-29 -12t-29 12t-12 29q0 12 5.5 21.5t15 15t20.5 5.5zM472 914q17 0 29 -12t12 -29.5t-12 -29.5t-29 -12t-29 12t-12 29q0 9 3 17t8.5 13t13 8.5t16.5 3.5z" />
<glyph unicode="&#x4e5;" horiz-adv-x="585" d="M502 519v-519h-48v445l-322 -445h-49v519h48v-445l322 445h49zM195 716q17 0 29 -12t12 -29.5t-12 -29.5t-29 -12q-12 0 -21 5.5t-15 15t-6 21.5q0 8 3.5 16t9 13.5t13 8.5t16.5 3zM390.5 716q17.5 0 29.5 -12t12 -29.5t-12 -29.5t-29.5 -12t-29.5 12t-12 29.5t12 29.5 t29.5 12z" />
<glyph unicode="&#x4e6;" horiz-adv-x="766" d="M383 734q145 0 234.5 -103.5t89.5 -268t-89.5 -268t-234.5 -103.5t-234 103.5t-89 268t89 268t234 103.5zM383 39q124 0 198 89t74 234.5t-74 234.5t-198 89t-198 -89t-74 -234.5t74 -234.5t198 -89zM281 914q17 0 29 -12t12 -29.5t-12 -29.5t-29 -12q-11 0 -20.5 5.5 t-15 15t-5.5 20.5q0 9 3.5 17t9 13t13 8.5t15.5 3.5zM485 914q17 0 29 -12t12 -29.5t-12 -29.5t-29 -12t-29 12t-12 29q0 9 3 17t9 13t13.5 8.5t15.5 3.5z" />
<glyph unicode="&#x4e7;" horiz-adv-x="585" d="M292.5 528q107.5 0 174 -74.5t66.5 -194t-66.5 -194t-173.5 -74.5q-54 0 -98.5 19.5t-76 54.5t-48.5 85t-17 110q0 119 66 193.5t173.5 74.5zM292.5 36q85.5 0 138 61t52.5 162.5t-52.5 162.5t-138 61t-138 -61t-52.5 -162.5t52.5 -162.5t138 -61zM195 716q17 0 29 -12 t12 -29.5t-12 -29.5t-29 -12q-12 0 -21 5.5t-15 15t-6 21.5q0 8 3.5 16t9 13.5t13 8.5t16.5 3zM390.5 716q17.5 0 29.5 -12t12 -29.5t-12 -29.5t-29.5 -12t-29.5 12t-12 29.5t12 29.5t29.5 12z" />
<glyph unicode="&#x4e8;" horiz-adv-x="766" d="M383 734q145 0 234.5 -103.5t89.5 -268t-89.5 -268t-234.5 -103.5t-234 103.5t-89 268t89 268t234 103.5zM383 39q122 0 196 84t76 226h-544q3 -140 77 -225t195 -85zM383 686q-116 0 -188.5 -78.5t-82.5 -210.5h542q-9 127 -80.5 208t-190.5 81z" />
<glyph unicode="&#x4e9;" horiz-adv-x="585" d="M292.5 528q107.5 0 174 -74.5t66.5 -194t-66.5 -194t-173.5 -74.5q-54 0 -98.5 19.5t-76 54.5t-48.5 85t-17 110q0 119 66 193.5t173.5 74.5zM293 36q82 0 133.5 57.5t55.5 150.5h-380q3 -63 27.5 -110t66.5 -72.5t97 -25.5zM293 483q-79 0 -130.5 -53t-59.5 -142h379 q-7 87 -58 141t-131 54z" />
<glyph unicode="&#x4ea;" horiz-adv-x="766" d="M383 734q145 0 234.5 -103.5t89.5 -268t-89.5 -268t-234.5 -103.5t-234 103.5t-89 268t89 268t234 103.5zM383 39q122 0 196 84t76 226h-544q3 -140 77 -225t195 -85zM383 686q-116 0 -188.5 -78.5t-82.5 -210.5h542q-9 127 -80.5 208t-190.5 81zM281 914q17 0 29 -12 t12 -29.5t-12 -29.5t-29 -12q-11 0 -20.5 5.5t-15 15t-5.5 20.5q0 9 3.5 17t9 13t13 8.5t15.5 3.5zM485 914q17 0 29 -12t12 -29.5t-12 -29.5t-29 -12t-29 12t-12 29q0 9 3 17t9 13t13.5 8.5t15.5 3.5z" />
<glyph unicode="&#x4eb;" horiz-adv-x="585" d="M292.5 528q107.5 0 174 -74.5t66.5 -194t-66.5 -194t-173.5 -74.5q-54 0 -98.5 19.5t-76 54.5t-48.5 85t-17 110q0 119 66 193.5t173.5 74.5zM293 36q82 0 133.5 57.5t55.5 150.5h-380q3 -63 27.5 -110t66.5 -72.5t97 -25.5zM293 483q-79 0 -130.5 -53t-59.5 -142h379 q-7 87 -58 141t-131 54zM195 716q17 0 29 -12t12 -29.5t-12 -29.5t-29 -12q-12 0 -21 5.5t-15 15t-6 21.5q0 8 3.5 16t9 13.5t13 8.5t16.5 3zM390.5 716q17.5 0 29.5 -12t12 -29.5t-12 -29.5t-29.5 -12t-29.5 12t-12 29.5t12 29.5t29.5 12z" />
<glyph unicode="&#x4ec;" horiz-adv-x="723" d="M276 349v49h334q-9 133 -81 210.5t-184 77.5q-95 0 -154.5 -50t-81.5 -124h-51q20 94 96.5 158t190.5 64q141 0 229.5 -101t88.5 -270q0 -86 -25 -157t-68 -117.5t-101.5 -72t-125.5 -25.5q-63 0 -115.5 19.5t-87 52.5t-56 71.5t-29.5 80.5h51q7 -33 25 -63t46.5 -56 t71.5 -41.5t95 -15.5q114 0 189.5 83t78.5 227h-336zM243 914q17 0 29 -12t12 -29.5t-12 -29.5t-29 -12q-11 0 -20.5 5.5t-15 15t-5.5 21t5.5 21t15 15t20.5 5.5zM447 914q17 0 29 -12t12 -29.5t-12 -29.5t-29 -12t-29 12t-12 29.5t12 29.5t29 12z" />
<glyph unicode="&#x4ed;" horiz-adv-x="547" d="M190 291h255q-4 47 -19.5 84t-40 60.5t-56 35.5t-67.5 12q-67 0 -109 -32.5t-56 -79.5h-49q15 66 70.5 111.5t143.5 45.5q103 0 168 -70.5t65 -197.5q0 -124 -67 -196.5t-168 -72.5q-90 0 -146.5 47.5t-66.5 113.5h48q9 -45 50.5 -80.5t114.5 -35.5q78 0 131 56t56 155 h-257v44zM164 716q17 0 29 -12t12 -29.5t-12 -29.5t-29 -12t-29 12t-12 30q0 11 5.5 20.5t15 15t20.5 5.5zM359.5 716q17.5 0 29.5 -12t12 -29.5t-12 -29.5t-29.5 -12t-29.5 12t-12 29.5t12 29.5t29.5 12z" />
<glyph unicode="&#x4ee;" horiz-adv-x="648" d="M27 725h55l253 -478l233 478h54l-355 -725h-56l97 195zM184 895h287v-43h-287v43z" />
<glyph unicode="&#x4ef;" horiz-adv-x="521" d="M447 519h53l-297 -716h-53l85 204l-213 512h52l187 -453zM124 697h276v-43h-276v43z" />
<glyph unicode="&#x4f0;" horiz-adv-x="648" d="M27 725h55l253 -478l233 478h54l-355 -725h-56l97 195zM225.5 914q11.5 0 21 -5.5t15 -15t5.5 -21.5q0 -8 -3.5 -16t-9 -13.5t-13 -8.5t-15.5 -3q-12 0 -21.5 5.5t-15 15t-5.5 21t5.5 21t15 15t21 5.5zM430 914q17 0 29 -12t12 -29.5t-12 -29.5t-29.5 -12t-29.5 12 t-12 29q0 12 5.5 21.5t15 15t21.5 5.5z" />
<glyph unicode="&#x4f1;" horiz-adv-x="521" d="M447 519h53l-297 -716h-53l85 204l-213 512h52l187 -453zM164 716q17 0 29 -12t12 -29.5t-12 -29.5t-29 -12t-29 12t-12 30q0 11 5.5 20.5t15 15t20.5 5.5zM359.5 716q17.5 0 29.5 -12t12 -29.5t-12 -29.5t-29.5 -12t-29.5 12t-12 29.5t12 29.5t29.5 12z" />
<glyph unicode="&#x4f2;" horiz-adv-x="648" d="M27 725h55l253 -478l233 478h54l-355 -725h-56l97 195zM365 947l-90 -147h-49l85 147h54zM517 947l-89 -147h-50l86 147h53z" />
<glyph unicode="&#x4f3;" horiz-adv-x="521" d="M447 519h53l-297 -716h-53l85 204l-213 512h52l187 -453zM301 749l-90 -146h-49l85 146h54zM449 749l-89 -146h-50l86 146h53z" />
<glyph unicode="&#x4f4;" horiz-adv-x="663" d="M518 725h51v-725h-51v346q-79 -59 -194 -59q-114 0 -185.5 65.5t-71.5 191.5v181h50v-180q0 -105 57.5 -157t153.5 -52q113 0 190 61v328zM216 914q17 0 29.5 -12t12.5 -29.5t-12.5 -29.5t-29.5 -12q-11 0 -20.5 5.5t-15 15t-5.5 21t5.5 21t15 15t20.5 5.5zM420 914 q17 0 29 -12t12 -29.5t-12 -29.5t-29 -12t-29 12t-12 29q0 7 2 13.5t6 11.5t9 9t11.5 6t12.5 2z" />
<glyph unicode="&#x4f5;" horiz-adv-x="534" d="M403 519h48v-519h-48v233q-61 -39 -140 -39q-44 0 -80.5 12.5t-63 37t-41.5 63.5t-15 90v122h48v-121q0 -53 20.5 -89.5t55 -53.5t81.5 -17q75 0 135 41v240zM160 716q17 0 29 -12t12 -29.5t-12 -29.5t-29.5 -12t-29.5 12t-12 30q0 7 2.5 13t6 11t8.5 9t11.5 6t13.5 2z M355.5 716q17.5 0 29.5 -12t12 -29.5t-12 -29.5t-29.5 -12t-29.5 12t-12 29.5t12 29.5t29.5 12z" />
<glyph unicode="&#x4f6;" horiz-adv-x="566" d="M233 48v-186h-50v138h-88v725h433v-47h-383v-630h88z" />
<glyph unicode="&#x4f7;" horiz-adv-x="450" d="M208 45v-176h-47v131h-78v519h331v-44h-282v-430h76z" />
<glyph unicode="&#x4f8;" horiz-adv-x="822" d="M329 441q107 0 171 -61t64 -159q0 -97 -64 -159t-169 -62h-236v725h50v-284h184zM323 393h-178v-346h179q87 0 138 47.5t51 127t-51 125.5t-139 46zM728 725v-725h-50v725h50zM310 914q17 0 29 -12t12 -29.5t-12 -29.5t-29 -12t-29 12t-12 29q0 9 3 17t8.5 13t13.5 8.5 t16 3.5zM514 914q17 0 29 -12t12 -29.5t-12 -29.5t-29 -12t-29 12t-12 29q0 12 5.5 21.5t15 15t20.5 5.5z" />
<glyph unicode="&#x4f9;" horiz-adv-x="673" d="M132 519v-186h134q53 0 93.5 -21t62.5 -59t22 -86q0 -73 -49.5 -120t-128.5 -47h-183v519h49zM261 288h-129v-244h129q62 0 97.5 34t35.5 89q0 21 -5.5 39.5t-17 33.5t-27.5 26t-37 16.5t-46 5.5zM590 519v-519h-48v519h48zM239 716q17 0 29 -12t12 -29.5t-12 -29.5 t-29 -12t-29 12t-12 30q0 8 3 16t8.5 13.5t13.5 8.5t16 3zM434.5 716q17.5 0 29.5 -12t12 -29.5t-12 -29.5t-29.5 -12t-29.5 12t-12 29.5t12 29.5t29.5 12z" />
<glyph unicode="&#x1e80;" horiz-adv-x="986" d="M952 725l-231 -725h-48l-180 636l-179 -636h-48l-231 725h54l200 -638l181 638h48l179 -636l201 636h54zM372 947h55l95 -147h-52z" />
<glyph unicode="&#x1e81;" horiz-adv-x="778" d="M752 519l-175 -519h-49l-140 447l-139 -447h-48l-174 519h51l148 -446l139 446h49l139 -446l147 446h52zM268 749h55l95 -146h-52z" />
<glyph unicode="&#x1e82;" horiz-adv-x="986" d="M952 725l-231 -725h-48l-180 636l-179 -636h-48l-231 725h54l200 -638l181 638h48l179 -636l201 636h54zM615 947l-98 -147h-52l94 147h56z" />
<glyph unicode="&#x1e83;" horiz-adv-x="778" d="M752 519l-175 -519h-49l-140 447l-139 -447h-48l-174 519h51l148 -446l139 446h49l139 -446l147 446h52zM511 749l-98 -146h-53l95 146h56z" />
<glyph unicode="&#x1e84;" horiz-adv-x="986" d="M952 725l-231 -725h-48l-180 636l-179 -636h-48l-231 725h54l200 -638l181 638h48l179 -636l201 636h54zM391 914q18 0 30 -12t12 -29.5t-12 -29.5t-29.5 -12t-29.5 12t-12 29q0 7 2 13.5t6 11.5t9 9t11.5 6t12.5 2zM595 914q18 0 30 -12t12 -29.5t-12 -29.5t-29.5 -12 t-29.5 12t-12 29q0 12 5.5 21.5t15 15t20.5 5.5z" />
<glyph unicode="&#x1e85;" horiz-adv-x="778" d="M752 519l-175 -519h-49l-140 447l-139 -447h-48l-174 519h51l148 -446l139 446h49l139 -446l147 446h52zM291.5 716q17.5 0 29.5 -12t12 -29.5t-12 -29.5t-29.5 -12t-29.5 12t-12 29.5t12 29.5t29.5 12zM487 716q17 0 29 -12t12 -29.5t-12 -29.5t-29 -12t-29 12t-12 29.5 t12 29.5t29 12z" />
<glyph unicode="&#x1ef2;" horiz-adv-x="638" d="M345 0h-50v300l-273 425h58l239 -375l239 375h59l-272 -423v-302zM198 947h55l95 -147h-52z" />
<glyph unicode="&#x1ef3;" horiz-adv-x="521" d="M447 519h53l-297 -716h-53l85 204l-213 512h52l187 -453zM140 749h56l94 -146h-52z" />
<glyph unicode="&#x2000;" horiz-adv-x="515" />
<glyph unicode="&#x2001;" horiz-adv-x="1030" />
<glyph unicode="&#x2002;" horiz-adv-x="535" />
<glyph unicode="&#x2003;" horiz-adv-x="1030" />
<glyph unicode="&#x2004;" horiz-adv-x="329" />
<glyph unicode="&#x2005;" horiz-adv-x="257" />
<glyph unicode="&#x2006;" horiz-adv-x="154" />
<glyph unicode="&#x2007;" horiz-adv-x="618" />
<glyph unicode="&#x2008;" horiz-adv-x="246" />
<glyph unicode="&#x2009;" horiz-adv-x="195" />
<glyph unicode="&#x200a;" horiz-adv-x="618" />
<glyph unicode="&#x200b;" horiz-adv-x="0" />
<glyph unicode="&#x2010;" horiz-adv-x="438" d="M62 253v48h315v-48h-315z" />
<glyph unicode="&#x2011;" horiz-adv-x="438" d="M62 253v48h315v-48h-315z" />
<glyph unicode="&#x2012;" horiz-adv-x="438" d="M62 253v48h315v-48h-315z" />
<glyph unicode="&#x2013;" horiz-adv-x="515" d="M0 253v48h515v-48h-515z" />
<glyph unicode="&#x2014;" horiz-adv-x="1030" d="M0 253v48h1030v-48h-1030z" />
<glyph unicode="&#x2018;" horiz-adv-x="241" d="M75 530q0 13 5 28l55 167h42l-50 -157q14 -3 24 -13t10 -26q0 -17 -12 -29t-30 -12t-31 12t-13 30z" />
<glyph unicode="&#x2019;" horiz-adv-x="241" d="M166 683q0 -12 -5 -28l-55 -167h-42l50 158q-9 1 -16.5 6t-12.5 13t-5 19q0 18 12 29.5t30 11.5t31 -12t13 -30z" />
<glyph unicode="&#x201a;" horiz-adv-x="246" d="M166 30q0 -12 -5 -28l-55 -167h-42l50 158q-14 2 -24 12t-10 26q0 17 12 29t30 12q12 0 22 -5.5t16 -15t6 -21.5z" />
<glyph unicode="&#x201c;" horiz-adv-x="395" d="M230 530q0 13 5 28l54 167h43l-51 -157q15 -3 24.5 -13t9.5 -26q0 -17 -12 -29t-29 -12q-19 0 -31.5 12t-12.5 30zM75 530q0 13 5 28l55 167h42l-50 -157q14 -3 24 -13t10 -26q0 -17 -12 -29t-30 -12t-31 12t-13 30z" />
<glyph unicode="&#x201d;" horiz-adv-x="395" d="M166 683q0 -12 -5 -28l-55 -167h-42l50 158q-9 1 -16.5 6t-12.5 13t-5 19q0 18 12 29.5t30 11.5t31 -12t13 -30zM320 683q0 -12 -5 -28l-54 -167h-43l51 158q-10 1 -17.5 6t-12 13t-4.5 19q0 18 12 29.5t29 11.5q12 0 22.5 -5.5t16 -15t5.5 -21.5z" />
<glyph unicode="&#x201e;" horiz-adv-x="400" d="M166 30q0 -12 -5 -28l-55 -167h-42l50 158q-14 2 -24 12t-10 26q0 17 12 29t30 12q12 0 22 -5.5t16 -15t6 -21.5zM320 30q0 -12 -5 -28l-54 -167h-43l51 158q-15 2 -24.5 12t-9.5 26q0 17 12 29t29 12q12 0 22.5 -5.5t16 -15t5.5 -21.5z" />
<glyph unicode="&#x2020;" horiz-adv-x="427" d="M383 542h-147v-296h-45v296h-148v44h148v171h45v-171h147v-44z" />
<glyph unicode="&#x2021;" horiz-adv-x="427" d="M383 238h-147v-171h-45v171h-148v44h148v260h-148v44h148v171h45v-171h147v-44h-147v-260h147v-44z" />
<glyph unicode="&#x2022;" horiz-adv-x="362" d="M181 383q32 0 58 -15t41.5 -41t15.5 -58q0 -49 -33.5 -82t-81.5 -33q-47 0 -80 33t-33 81.5t33 81.5t80 33z" />
<glyph unicode="&#x2026;" horiz-adv-x="683" d="M343 73q17 0 29 -12t12 -30q0 -17 -12 -29t-29 -12q-12 0 -21.5 5.5t-15 15t-5.5 20.5q0 18 12 30t30 12zM124 73q17 0 29 -12t12 -30q0 -17 -12 -29t-29 -12q-12 0 -21.5 5.5t-15.5 15t-6 20.5q0 18 12.5 30t30.5 12zM561 73q12 0 21 -5.5t15 -15t6 -21.5 q0 -17 -12.5 -29t-29.5 -12t-29.5 12t-12.5 29q0 18 12.5 30t29.5 12z" />
<glyph unicode="&#x202f;" horiz-adv-x="194" />
<glyph unicode="&#x2030;" horiz-adv-x="1238" d="M146 0l506 725h56l-506 -725h-56zM204 691q-34 0 -59 -18t-38 -48t-13 -68q0 -58 29.5 -96t80 -38t80.5 38t30 96t-30 96t-80 38zM46 557q0 77 44.5 127t113.5 50t113.5 -50t44.5 -127t-44 -127t-114 -50q-69 0 -113.5 50t-44.5 127zM650.5 302q-50.5 0 -80 -38 t-29.5 -96t29.5 -96t80 -38t80.5 38t30 96t-30 96t-80.5 38zM493 168q0 77 44.5 127t113.5 50q46 0 82 -23t56 -63.5t20 -90.5q0 -77 -44 -127t-114 -50q-69 0 -113.5 50t-44.5 127zM1034 302q-50 0 -80 -38t-30 -96t30 -96t80.5 -38t80 38t29.5 96q0 38 -13 68t-38 48 t-59 18zM877 168q0 77 44 127t113 50t113.5 -50t44.5 -127t-44 -127t-114 -50q-69 0 -113 50t-44 127z" />
<glyph unicode="&#x2039;" horiz-adv-x="355" d="M116 265l183 -212h-59l-183 212l183 211h59z" />
<glyph unicode="&#x203a;" horiz-adv-x="355" d="M239 265l-182 211h58l184 -211l-184 -212h-58z" />
<glyph unicode="&#x2044;" horiz-adv-x="245" d="M-158 0l506 725h55l-506 -725h-55z" />
<glyph unicode="&#x205f;" horiz-adv-x="242" />
<glyph unicode="&#x2070;" horiz-adv-x="410" d="M206 803q75 0 119 -61t44 -158t-44 -158t-119 -61t-119.5 61t-44.5 158t44.5 158t119.5 61zM206 407q27 0 49 13.5t36.5 37t22.5 56t8 70.5q0 78 -31 127.5t-85 49.5t-85.5 -49.5t-31.5 -127.5t31.5 -127.5t85.5 -49.5z" />
<glyph unicode="&#x2074;" horiz-adv-x="401" d="M367 513v-40h-64v-102h-44v102h-224v39l209 286h59v-285h64zM83 513h176v236z" />
<glyph unicode="&#x2075;" horiz-adv-x="395" d="M213 648q57 0 98.5 -38t41.5 -101q0 -62 -44 -103t-106 -41q-40 0 -73.5 14t-54.5 39.5t-27 56.5h47q7 -27 36 -47.5t71 -20.5q44 0 74.5 28.5t30.5 73.5t-31 72t-74 27q-71 0 -103 -56h-46l21 245h257v-42h-219l-14 -156q41 49 115 49z" />
<glyph unicode="&#x2076;" horiz-adv-x="396" d="M217 649q58 0 100 -38.5t42 -99.5t-42.5 -103.5t-105.5 -42.5q-78 0 -123.5 54.5t-45.5 150.5q0 112 46.5 172.5t123.5 60.5q56 0 93 -31t44 -73h-45q-7 27 -32.5 44.5t-59.5 17.5q-57 0 -90.5 -47t-34.5 -138q18 34 53.5 53.5t76.5 19.5zM210 406q28 0 51.5 13.5 t37.5 37.5t14 53q0 43 -31 71.5t-73 28.5q-45 0 -77 -29t-32 -70q0 -44 31.5 -74.5t78.5 -30.5z" />
<glyph unicode="&#x2077;" horiz-adv-x="351" d="M29 797h287v-38l-179 -388h-50l177 384h-235v42z" />
<glyph unicode="&#x2078;" horiz-adv-x="398" d="M42 485q0 43 29.5 73.5t61.5 35.5q-30 9 -53 34.5t-23 61.5q0 31 17 56.5t50 41t76 15.5q63 0 102.5 -33t39.5 -80q0 -36 -23.5 -61.5t-52.5 -34.5q32 -5 61 -35.5t29 -73.5q0 -51 -44.5 -85.5t-111.5 -34.5q-68 0 -113 34.5t-45 85.5zM298 687q0 33 -28 54.5t-70 21.5 q-43 0 -71 -21.5t-28 -54.5q0 -32 29 -53.5t70 -21.5q26 0 48.5 9.5t36 27t13.5 38.5zM311 487q0 39 -32 63t-79 24q-48 0 -80 -24t-32 -63q0 -35 32 -59t80 -24q47 0 79 24t32 59z" />
<glyph unicode="&#x2079;" horiz-adv-x="396" d="M179 519q-37 0 -69.5 16.5t-52.5 48.5t-20 73q0 61 43 103.5t105 42.5q79 0 124 -54.5t45 -150.5q0 -112 -46 -172.5t-124 -60.5q-56 0 -93 31t-44 73h46q4 -18 17 -32t32.5 -22t41.5 -8q57 0 91 47t35 138q-18 -34 -53.5 -53.5t-77.5 -19.5zM186 762q-20 0 -39 -8 t-33 -21.5t-22.5 -33t-8.5 -41.5q0 -43 31 -71.5t73 -28.5q45 0 77.5 29t32.5 70q0 44 -31.5 74.5t-79.5 30.5z" />
<glyph unicode="&#x207a;" horiz-adv-x="388" d="M174 731h40v-127h124v-41h-124v-127h-40v127h-124v41h124v127z" />
<glyph unicode="&#x207c;" horiz-adv-x="388" d="M56 628v39h277v-39h-277zM56 501v40h277v-40h-277z" />
<glyph unicode="&#x207d;" horiz-adv-x="216" d="M193 857q-92 -122 -92 -273t92 -274h-45q-39 49 -65.5 120t-26.5 154q0 82 26.5 153.5t65.5 119.5h45z" />
<glyph unicode="&#x207e;" horiz-adv-x="216" d="M24 857h44q25 -30 45 -69.5t34 -93.5t14 -110q0 -82 -27 -153.5t-66 -120.5h-44q91 123 91 274t-91 273z" />
<glyph unicode="&#x2080;" horiz-adv-x="410" d="M206 311q75 0 119 -61t44 -158.5t-44 -158.5t-119 -61t-119.5 61t-44.5 158.5t44.5 158.5t119.5 61zM206 -85q54 0 85 49t31 127.5t-31 128t-85 49.5t-85.5 -49.5t-31.5 -128t31.5 -127.5t85.5 -49z" />
<glyph unicode="&#x2081;" horiz-adv-x="278" d="M195 305v-427h-46v376l-112 -71v48l114 74h44z" />
<glyph unicode="&#x2082;" horiz-adv-x="381" d="M110 -79h231v-43h-295v39l170 162q3 3 10.5 10t11 10.5l10 10t10 11t8.5 11.5t7.5 12.5t5.5 13t4 15t1 14.5q0 35 -27 58.5t-66 23.5q-40 0 -67.5 -22t-34.5 -56h-45q7 51 47.5 85.5t101.5 34.5q58 0 98 -35.5t40 -87.5q0 -21 -7.5 -41t-24 -40t-23.5 -28t-27 -26z" />
<glyph unicode="&#x2083;" horiz-adv-x="389" d="M47 197q8 49 48.5 81.5t99.5 32.5q60 0 99 -32.5t39 -80.5q0 -35 -20.5 -61t-50.5 -36q34 -7 60.5 -35t26.5 -71q0 -33 -19 -61t-54 -45t-78 -17q-61 0 -106.5 33t-51.5 84h44q8 -33 39.5 -53.5t74.5 -20.5q46 0 75.5 24t29.5 58q0 37 -29.5 59t-76.5 22h-53v40h50 q43 0 67.5 22t24.5 54t-25.5 53.5t-66.5 21.5q-39 0 -67 -20t-35 -52h-45z" />
<glyph unicode="&#x2084;" horiz-adv-x="401" d="M367 21v-41h-64v-102h-44v102h-224v40l209 286h59v-285h64zM83 21h176v235z" />
<glyph unicode="&#x2085;" horiz-adv-x="395" d="M213 156q57 0 98.5 -38t41.5 -102q0 -62 -44 -103t-106 -41q-40 0 -73.5 14.5t-54.5 39.5t-27 56h47q7 -27 36 -47t71 -20q44 0 74.5 28.5t30.5 72.5q0 45 -31 72t-74 27q-71 0 -103 -55h-46l21 245h257v-42h-219l-14 -156q41 49 115 49z" />
<glyph unicode="&#x2086;" horiz-adv-x="396" d="M217 157q58 0 100 -38.5t42 -100t-42.5 -104t-105.5 -42.5q-78 0 -123.5 55t-45.5 150q0 76 22 129t60 79t88 26q56 0 93 -31.5t44 -72.5h-45q-7 27 -32.5 44.5t-59.5 17.5q-57 0 -90.5 -47t-34.5 -139q18 35 53.5 54.5t76.5 19.5zM210 -87q42 0 72.5 30t30.5 75 q0 28 -14.5 51t-38.5 35.5t-51 12.5q-45 0 -77 -29t-32 -69q0 -44 31.5 -75t78.5 -31z" />
<glyph unicode="&#x2087;" horiz-adv-x="351" d="M29 311h287v-38l-179 -388h-50l177 384h-235v42z" />
<glyph unicode="&#x2088;" horiz-adv-x="398" d="M42 -7q0 43 29.5 73.5t61.5 35.5q-30 9 -53 34.5t-23 61.5q0 47 39.5 80t103.5 33q63 0 102.5 -33t39.5 -80q0 -36 -23.5 -61.5t-52.5 -34.5q32 -5 61 -35.5t29 -73.5q0 -51 -44.5 -86t-111.5 -35q-68 0 -113 35t-45 86zM298 195q0 33 -28 54.5t-70 21.5q-43 0 -71 -21.5 t-28 -54.5q0 -32 29 -54t70 -22q26 0 48.5 10t36 27.5t13.5 38.5zM311 -5q0 38 -32 62t-79 24q-32 0 -57.5 -10.5t-40 -30t-14.5 -45.5q0 -35 32 -59.5t80 -24.5q47 0 79 24.5t32 59.5z" />
<glyph unicode="&#x2089;" horiz-adv-x="396" d="M179 27q-58 0 -100 38.5t-42 99.5t43 103.5t105 42.5q79 0 124 -54.5t45 -150.5q0 -113 -46 -173.5t-124 -60.5q-56 0 -93 31.5t-44 72.5h46q4 -17 17 -31t32.5 -22t41.5 -8q57 0 91 46.5t35 138.5q-18 -35 -53.5 -54t-77.5 -19zM186 270q-42 0 -72.5 -30t-30.5 -74 q0 -29 15 -52t38.5 -35.5t50.5 -12.5q45 0 77.5 29t32.5 70q0 44 -31.5 74.5t-79.5 30.5z" />
<glyph unicode="&#x208a;" horiz-adv-x="388" d="M174 239h40v-128h124v-40h-124v-128h-40v128h-124v40h124v128z" />
<glyph unicode="&#x208c;" horiz-adv-x="388" d="M56 136v39h277v-39h-277zM56 8v40h277v-40h-277z" />
<glyph unicode="&#x208d;" horiz-adv-x="216" d="M193 365q-92 -122 -92 -273t92 -274h-45q-39 49 -65.5 120t-26.5 154q0 82 26.5 153.5t65.5 119.5h45z" />
<glyph unicode="&#x208e;" horiz-adv-x="216" d="M24 365h44q18 -23 34 -51t29.5 -62.5t21.5 -76t8 -83.5q0 -83 -27 -154t-66 -120h-44q91 123 91 274t-91 273z" />
<glyph unicode="&#x20ac;" horiz-adv-x="669" d="M575 177h50q-7 -36 -24.5 -68t-44.5 -59t-67.5 -43t-89.5 -16q-104 0 -173 72t-88 203h-105v42h101q-2 17 -2 55q0 34 1 50h-100v42h105q19 129 86.5 204t173.5 75q46 0 86.5 -16t68.5 -42t46.5 -58.5t23.5 -66.5h-49q-14 54 -59 95t-117 41q-87 0 -140 -62t-68 -170h259 l-7 -42h-258q-1 -16 -1 -50q0 -20 2 -55h242l-7 -42h-229q16 -109 69.5 -168.5t137.5 -59.5q37 0 68 12t52.5 32.5t35.5 44.5t21 50z" />
<glyph unicode="&#x20b4;" horiz-adv-x="646" d="M46 268v44h554v-44h-400q-54 -37 -54 -98q0 -24 9 -45.5t25.5 -37t38 -27t47 -17t53.5 -5.5q77 0 129 36t68 101h49q-14 -88 -82.5 -136t-163.5 -48q-94 0 -158 48t-64 128q0 64 45 101h-96zM46 415v44h405q51 37 51 97q0 42 -23.5 72.5t-60.5 44.5t-81 14 q-71 0 -118.5 -33t-62.5 -99h-50q6 35 21.5 64t37 50t48.5 36t58.5 22t65.5 7q57 0 105.5 -20t78.5 -60.5t30 -94.5q0 -61 -43 -100h92v-44h-554z" />
<glyph unicode="&#x20b8;" horiz-adv-x="635" d="M53 518v47h530v-47h-240v-518h-50v518h-240zM53 680v45h530v-45h-530z" />
<glyph unicode="&#x20bd;" horiz-adv-x="641" d="M33 136v44h112v109h-112v45h112v391h206q108 0 172 -60t64 -156q0 -98 -64 -159t-170 -61h-157v-109h252v-44h-252v-136h-51v136h-112zM346 678h-150v-342h151q87 0 138 46.5t51 125.5q0 39 -13.5 70.5t-37.5 53.5t-59.5 34t-79.5 12z" />
<glyph unicode="&#x20bf;" horiz-adv-x="619" d="M95 18v690h99v102h44v-102h98v102h44v-107q75 -12 115 -56.5t40 -110.5q0 -62 -30.5 -103.5t-71.5 -56.5q22 -5 43.5 -17t41.5 -32t32 -51.5t12 -68.5q0 -78 -48 -128t-134 -59v-111h-44v109h-98v-109h-44v109h-99zM339 352h-196v-290h196q82 0 128 39t46 107 q0 66 -46 105t-128 39zM320 663h-177v-269h191q76 0 113.5 38.5t37.5 98.5q0 42 -19 71.5t-56 45t-90 15.5z" />
<glyph unicode="&#x2122;" horiz-adv-x="973" d="M458 725h56l164 -365l164 365h56v-426h-43v355l-160 -355h-34l-159 355v-355h-44v426zM30 683v42h353v-42h-153v-384h-46v384h-154z" />
<glyph unicode="&#x2202;" horiz-adv-x="595" d="M274 749q20 -14 30.5 -21t41.5 -33t51.5 -49.5t49 -64.5t45 -83t29.5 -100t13 -121q0 -131 -65.5 -208.5t-178.5 -77.5q-73 0 -128 37t-82 96t-27 130q0 117 66 190t169 73q115 0 177 -80q-14 46 -39 90.5t-52 76.5t-60.5 62.5t-58 48.5t-50.5 34h69zM291 36q89 0 141 62 t52 158q0 102 -54.5 159t-138.5 57q-85 0 -137 -61.5t-52 -156.5q0 -60 21 -109t65 -79t103 -30z" />
<glyph unicode="&#x220f;" horiz-adv-x="670" d="M95 725h481v-869h-51v822h-380v-822h-50v869z" />
<glyph unicode="&#x2211;" horiz-adv-x="581" d="M514 725v-46h-386l259 -389l-260 -388h387v-46h-446v43l261 391l-261 392v43h446z" />
<glyph unicode="&#x221a;" horiz-adv-x="707" d="M590 749h49l-259 -867h-49l-156 372h-118v45h153l143 -345z" />
<glyph unicode="&#x221e;" horiz-adv-x="921" d="M681 480q86 0 140.5 -55.5t54.5 -135t-54.5 -135t-140.5 -55.5q-122 0 -220 148q-20 -31 -40 -54t-47.5 -46t-61 -35.5t-70.5 -12.5q-87 0 -141 55.5t-54 135t54 135t141 55.5q37 0 70.5 -12.5t60.5 -35.5t47 -47t40 -54q21 31 41 54t47.5 46.5t61 36t71.5 12.5zM679 146 q66 0 106 41t40 102q0 41 -17.5 73t-51 51.5t-77.5 19.5q-59 0 -105 -39t-87 -105q20 -31 38.5 -54t42 -44.5t52 -33t59.5 -11.5zM243 146q59 0 105 38.5t87 103.5q-42 67 -87.5 106t-104.5 39q-66 0 -105.5 -41t-39.5 -102.5t39.5 -102.5t105.5 -41z" />
<glyph unicode="&#x222b;" horiz-adv-x="539" d="M492 725v-44h-33q-51 0 -80 -29t-39 -90l-92 -567q-25 -158 -167 -158h-34v45h33q34 0 58.5 12.5t39.5 39t22 66.5l91 568q25 157 167 157h34z" />
<glyph unicode="&#x2248;" d="M505 448h44v-17q0 -23 -6 -43t-17.5 -35t-26.5 -26.5t-33.5 -17t-38.5 -5.5q-32 0 -65 16.5t-55.5 36.5t-51 36.5t-52.5 16.5q-35 0 -56.5 -23t-21.5 -62v-13h-45v18q0 56 35.5 91t86.5 35q33 0 66 -16.5t55.5 -36.5t50.5 -36.5t52 -16.5q35 0 57 23t22 62v13zM505 238 h44v-18q0 -56 -35 -91t-87 -35q-32 0 -65 16.5t-55.5 36.5t-51 36.5t-52.5 16.5q-35 0 -56.5 -23t-21.5 -62v-13h-45v17q0 57 35.5 92t86.5 35q33 0 66 -16.5t55.5 -36.5t50.5 -36.5t52 -16.5q17 0 31.5 6t25 16.5t16.5 26.5t6 36v13z" />
<glyph unicode="&#x2260;" d="M399 520h48l-50 -114h142v-47h-163l-74 -165h237v-47h-258l-50 -114h-49l51 114h-142v47h162l75 165h-237v47h257z" />
<glyph unicode="&#x2264;" d="M548 529v-50l-404 -181l404 -201v-73h-468v45h426l-426 209v42z" />
<glyph unicode="&#x2265;" d="M549 320v-42l-426 -209h426v-45h-468v73l404 201l-404 181v50z" />
<glyph unicode="&#x2460;" horiz-adv-x="960" d="M480 -27q78 0 147.5 29t119.5 78.5t79.5 121t29.5 152.5q0 66 -19 125t-53 105.5t-80.5 80.5t-103.5 52t-119 18q-104 0 -190 -48.5t-136 -136t-50 -196t50 -196.5t135.5 -136.5t189.5 -48.5zM480 -71q-115 0 -211.5 54.5t-152.5 152.5t-56 218.5t56 218t152.5 152.5 t212.5 55q86 0 163.5 -32.5t134 -88.5t89.5 -135.5t33 -169.5q0 -120 -56 -218t-152.5 -152.5t-212.5 -54.5zM517 568v-427h-45v376l-113 -71v47l115 75h43z" />
<glyph unicode="&#x2461;" horiz-adv-x="960" d="M480 -27q78 0 147.5 29t119.5 78.5t79.5 121t29.5 152.5q0 66 -19 125t-53 105.5t-80.5 80.5t-103.5 52t-119 18q-104 0 -190 -48.5t-136 -136t-50 -196t50 -196.5t135.5 -136.5t189.5 -48.5zM480 -71q-115 0 -211.5 54.5t-152.5 152.5t-56 218.5t56 218t152.5 152.5 t212.5 55q86 0 163.5 -32.5t134 -88.5t89.5 -135.5t33 -169.5q0 -120 -56 -218t-152.5 -152.5t-212.5 -54.5zM400 183h230v-42h-294v38l170 163l10 10l10.5 10.5t10.5 10t10 11t8 11.5t8 12.5t5.5 12.5t4 14.5t1.5 15.5q0 23 -12.5 41.5t-34 29t-47.5 10.5q-40 0 -67.5 -22 t-34.5 -56h-44q7 52 47.5 86.5t100.5 34.5q39 0 70.5 -16.5t49.5 -44.5t18 -62q0 -21 -7 -41t-23.5 -40.5t-24 -28l-26.5 -26.5z" />
<glyph unicode="&#x2462;" horiz-adv-x="960" d="M480 -27q78 0 147.5 29t119.5 78.5t79.5 121t29.5 152.5q0 66 -19 125t-53 105.5t-80.5 80.5t-103.5 52t-119 18q-104 0 -190 -48.5t-136 -136t-50 -196t50 -196.5t135.5 -136.5t189.5 -48.5zM480 -71q-115 0 -211.5 54.5t-152.5 152.5t-56 218.5t56 218t152.5 152.5 t212.5 55q86 0 163.5 -32.5t134 -88.5t89.5 -135.5t33 -169.5q0 -120 -56 -218t-152.5 -152.5t-212.5 -54.5zM333 459q8 50 48.5 82.5t98.5 32.5q61 0 99.5 -33t38.5 -81q0 -23 -10 -43.5t-26 -33.5t-35 -19q34 -8 60.5 -35.5t26.5 -70.5q0 -33 -19 -61t-54 -45t-78 -17 q-61 0 -106 32.5t-52 83.5h45q8 -32 39.5 -53t73.5 -21q46 0 75.5 24t29.5 59q0 37 -29.5 59t-76.5 22h-52v40h49q43 0 68 22t25 53q0 32 -26 53.5t-67 21.5q-39 0 -66.5 -19.5t-35.5 -52.5h-44z" />
<glyph unicode="&#x2463;" horiz-adv-x="960" d="M480 -27q78 0 147.5 29t119.5 78.5t79.5 121t29.5 152.5q0 66 -19 125t-53 105.5t-80.5 80.5t-103.5 52t-119 18q-104 0 -190 -48.5t-136 -136t-50 -196t50 -196.5t135.5 -136.5t189.5 -48.5zM480 -71q-115 0 -211.5 54.5t-152.5 152.5t-56 218.5t56 218t152.5 152.5 t212.5 55q86 0 163.5 -32.5t134 -88.5t89.5 -135.5t33 -169.5q0 -120 -56 -218t-152.5 -152.5t-212.5 -54.5zM628 283v-40h-64v-102h-44v102h-223v39l209 287h58v-286h64zM345 283h175v236z" />
<glyph unicode="&#x2464;" horiz-adv-x="960" d="M480 -27q78 0 147.5 29t119.5 78.5t79.5 121t29.5 152.5q0 66 -19 125t-53 105.5t-80.5 80.5t-103.5 52t-119 18q-104 0 -190 -48.5t-136 -136t-50 -196t50 -196.5t135.5 -136.5t189.5 -48.5zM480 -71q-115 0 -211.5 54.5t-152.5 152.5t-56 218.5t56 218t152.5 152.5 t212.5 55q86 0 163.5 -32.5t134 -88.5t89.5 -135.5t33 -169.5q0 -120 -56 -218t-152.5 -152.5t-212.5 -54.5zM492 418q58 0 99 -37.5t41 -101.5q0 -41 -20.5 -74.5t-54.5 -51.5t-75 -18q-60 0 -103 31t-51 79h46q7 -27 36.5 -47.5t70.5 -20.5q45 0 75 29t30 73 q0 45 -30.5 72t-74.5 27q-70 0 -103 -56h-46l21 246h257v-43h-219l-14 -155q41 48 115 48z" />
<glyph unicode="&#x2465;" horiz-adv-x="960" d="M480 -27q78 0 147.5 29t119.5 78.5t79.5 121t29.5 152.5q0 66 -19 125t-53 105.5t-80.5 80.5t-103.5 52t-119 18q-104 0 -190 -48.5t-136 -136t-50 -196t50 -196.5t135.5 -136.5t189.5 -48.5zM480 -71q-115 0 -211.5 54.5t-152.5 152.5t-56 218.5t56 218t152.5 152.5 t212.5 55q86 0 163.5 -32.5t134 -88.5t89.5 -135.5t33 -169.5q0 -120 -56 -218t-152.5 -152.5t-212.5 -54.5zM488 419q58 0 100 -38.5t42 -99.5t-43 -103.5t-105 -42.5q-78 0 -123.5 54.5t-45.5 150.5q0 113 46.5 173.5t123.5 60.5q56 0 93 -31.5t44 -72.5h-45 q-7 26 -32.5 43.5t-59.5 17.5q-57 0 -90.5 -46.5t-35.5 -138.5q12 23 33 40t46 25t52 8zM481 176q42 0 72.5 30t30.5 74q0 43 -31 71.5t-73 28.5q-29 0 -54.5 -13t-40 -36t-14.5 -50q0 -44 31.5 -74.5t78.5 -30.5z" />
<glyph unicode="&#x2466;" horiz-adv-x="960" d="M480 -27q78 0 147.5 29t119.5 78.5t79.5 121t29.5 152.5q0 66 -19 125t-53 105.5t-80.5 80.5t-103.5 52t-119 18q-104 0 -190 -48.5t-136 -136t-50 -196t50 -196.5t135.5 -136.5t189.5 -48.5zM480 -71q-115 0 -211.5 54.5t-152.5 152.5t-56 218.5t56 218t152.5 152.5 t212.5 55q86 0 163.5 -32.5t134 -88.5t89.5 -135.5t33 -169.5q0 -120 -56 -218t-152.5 -152.5t-212.5 -54.5zM336 568h287v-39l-179 -388h-51l178 384h-235v43z" />
<glyph unicode="&#x2467;" horiz-adv-x="960" d="M480 -27q78 0 147.5 29t119.5 78.5t79.5 121t29.5 152.5q0 66 -19 125t-53 105.5t-80.5 80.5t-103.5 52t-119 18q-104 0 -190 -48.5t-136 -136t-50 -196t50 -196.5t135.5 -136.5t189.5 -48.5zM480 -71q-115 0 -211.5 54.5t-152.5 152.5t-56 218.5t56 218t152.5 152.5 t212.5 55q86 0 163.5 -32.5t134 -88.5t89.5 -135.5t33 -169.5q0 -120 -56 -218t-152.5 -152.5t-212.5 -54.5zM322 255q0 44 29.5 74t61.5 36q-18 5 -35 17t-29 33t-12 45q0 31 17 56.5t50.5 41.5t75.5 16q63 0 102.5 -33.5t39.5 -80.5q0 -36 -23 -61t-53 -34q32 -6 61.5 -36 t29.5 -74q0 -51 -45 -85.5t-112 -34.5q-68 0 -113 34.5t-45 85.5zM578 457q0 33 -28 55t-70 22q-43 0 -71 -22t-28 -55q0 -32 29 -53.5t70 -21.5q26 0 48.5 9.5t36 27t13.5 38.5zM591 258q0 25 -15 45t-40 30.5t-56 10.5q-48 0 -80 -24t-32 -62q0 -36 32 -60t80 -24t79.5 24 t31.5 60z" />
<glyph unicode="&#x2468;" horiz-adv-x="960" d="M480 -27q78 0 147.5 29t119.5 78.5t79.5 121t29.5 152.5q0 66 -19 125t-53 105.5t-80.5 80.5t-103.5 52t-119 18q-104 0 -190 -48.5t-136 -136t-50 -196t50 -196.5t135.5 -136.5t189.5 -48.5zM480 -71q-115 0 -211.5 54.5t-152.5 152.5t-56 218.5t56 218t152.5 152.5 t212.5 55q86 0 163.5 -32.5t134 -88.5t89.5 -135.5t33 -169.5q0 -120 -56 -218t-152.5 -152.5t-212.5 -54.5zM472 289q-58 0 -100 38.5t-42 99.5q0 41 19.5 74.5t53.5 53t75 19.5q78 0 123.5 -55t45.5 -150q0 -113 -46.5 -173.5t-123.5 -60.5q-56 0 -93 31.5t-44 72.5h45 q5 -17 18 -31.5t32.5 -22.5t41.5 -8q57 0 90.5 47t35.5 139q-19 -35 -54.5 -54.5t-76.5 -19.5zM479 533q-28 0 -51.5 -13.5t-37.5 -37.5t-14 -54q0 -42 31 -70.5t73 -28.5q45 0 77 29t32 69q0 22 -8 41t-22.5 33.5t-35.5 23t-44 8.5z" />
<glyph unicode="&#x24ea;" horiz-adv-x="960" d="M480 -27q78 0 147.5 29t119.5 78.5t79.5 121t29.5 152.5q0 66 -19 125t-53 105.5t-80.5 80.5t-103.5 52t-119 18q-104 0 -190 -48.5t-136 -136t-50 -196t50 -196.5t135.5 -136.5t189.5 -48.5zM480 -71q-115 0 -211.5 54.5t-152.5 152.5t-56 218.5t56 218t152.5 152.5 t212.5 55q86 0 163.5 -32.5t134 -88.5t89.5 -135.5t33 -169.5q0 -120 -56 -218t-152.5 -152.5t-212.5 -54.5zM480 574q75 0 119 -61t44 -159q0 -64 -19.5 -113.5t-56.5 -77.5t-87 -28t-87.5 28t-57 77.5t-19.5 113.5q0 98 44.5 159t119.5 61zM480 177q54 0 85 49.5t31 127.5 q0 51 -13.5 91t-40 63t-62.5 23t-63 -23t-40.5 -62.5t-13.5 -91t13.5 -91.5t40.5 -63t63 -23z" />
<glyph unicode="&#x25ca;" horiz-adv-x="590" d="M320 725l210 -362l-210 -363h-50l-210 363l210 362h50zM477 363l-182 313l-182 -313l182 -314z" />
<glyph unicode="&#x25fc;" horiz-adv-x="520" d="M0 520h520v-520h-520v520z" />
<glyph d="M579 499v-43h-126v-202h126v-42h-126v-129h-44v129h-189v-129h-44v129h-126v42h126v202h-126v43h126v130h44v-130h189v130h44v-130h126zM220 456v-202h189v202h-189z" />
<glyph horiz-adv-x="322" d="M291 818q-74 -94 -114.5 -211t-40.5 -245t40.5 -244.5t114.5 -211.5h-50q-67 80 -111.5 199.5t-44.5 256.5q0 92 22.5 181t56.5 156.5t77 118.5h50z" />
<glyph horiz-adv-x="216" d="M193 486q-92 -122 -92 -273q0 -150 92 -274h-45q-39 49 -65.5 120t-26.5 154t26.5 154t65.5 119h45z" />
<glyph horiz-adv-x="216" d="M193 787q-92 -122 -92 -273t92 -274h-45q-39 49 -65.5 120t-26.5 154q0 82 26.5 153.5t65.5 119.5h45z" />
<glyph horiz-adv-x="322" d="M31 818h50q68 -80 112 -200t44 -256.5t-44 -256t-112 -199.5h-50q75 95 115 211.5t40 244.5t-40.5 245t-114.5 211z" />
<glyph horiz-adv-x="216" d="M24 486h44q25 -30 45 -69t34 -93.5t14 -110.5q0 -82 -27 -153.5t-66 -120.5h-44q91 124 91 274q0 151 -91 273z" />
<glyph horiz-adv-x="216" d="M24 787h44q25 -30 45 -69.5t34 -93.5t14 -110q0 -82 -27 -153.5t-66 -120.5h-44q91 123 91 274t-91 273z" />
<glyph d="M336 612v-244l233 75l13 -41l-232 -77l144 -197l-35 -26l-146 199l-143 -199l-35 26l142 199l-231 75l14 41l231 -74v243h45z" />
<glyph d="M290 608h49v-221h213v-47h-213v-221h-49v221h-213v47h213v221z" />
<glyph horiz-adv-x="388" d="M174 362h40v-128h124v-40h-124v-128h-40v128h-124v40h124v128z" />
<glyph horiz-adv-x="388" d="M174 661h40v-127h124v-41h-124v-127h-40v127h-124v41h124v127z" />
<glyph horiz-adv-x="438" d="M62 340v47h315v-47h-315z" />
<glyph horiz-adv-x="347" d="M283 818h49l-268 -912h-49z" />
<glyph horiz-adv-x="410" d="M206 433q75 0 119 -61t44 -158.5t-44 -158.5t-119 -61t-119.5 61t-44.5 158.5t44.5 158.5t119.5 61zM206 36q54 0 85 49.5t31 127.5t-31 127.5t-85 49.5t-85.5 -49.5t-31.5 -127.5t31.5 -127.5t85.5 -49.5z" />
<glyph horiz-adv-x="410" d="M206 733q75 0 119 -61t44 -158t-44 -158t-119 -61t-119.5 61t-44.5 158t44.5 158t119.5 61zM206 337q54 0 85 49.5t31 127.5t-31 127.5t-85 49.5t-85.5 -49.5t-31.5 -127.5t31.5 -127.5t85.5 -49.5z" />
<glyph d="M314 735q121 0 191.5 -102.5t70.5 -269.5t-70.5 -269.5t-191.5 -102.5q-120 0 -190 102.5t-70 269.5t70 269.5t190 102.5zM314 38q98 0 154 89.5t56 235.5t-56 235.5t-154 89.5q-97 0 -153 -89.5t-56 -235.5t56 -235.5t153 -89.5z" />
<glyph horiz-adv-x="278" d="M195 426v-426h-46v376l-112 -71v47l114 74h44z" />
<glyph horiz-adv-x="278" d="M195 727v-426h-46v376l-112 -71v47l114 74h44z" />
<glyph d="M407 726v-726h-52v666l-214 -125v54l218 131h48z" />
<glyph horiz-adv-x="381" d="M110 42h231v-42h-295v38l170 163q3 3 10.5 10t11 10.5l10 10t10 11t8.5 11t7.5 12.5t5.5 13t4 14.5t1 15.5q0 35 -27 58t-66 23q-40 0 -67.5 -22t-34.5 -56h-45q7 52 47.5 86.5t101.5 34.5q58 0 98 -35.5t40 -87.5q0 -21 -7.5 -41t-24 -40.5t-23.5 -28t-27 -26.5z" />
<glyph horiz-adv-x="381" d="M110 343h231v-42h-295v38l170 163q3 2 12 10.5t12 12t11 11.5t11 13t8.5 13t7.5 15t4 15.5t2 17.5q0 34 -27 57.5t-66 23.5q-40 0 -67.5 -22t-34.5 -56h-45q7 52 47.5 86t101.5 34q58 0 98 -35t40 -87q0 -22 -7.5 -41.5t-24 -40t-23.5 -28.5t-27 -26z" />
<glyph d="M487 530q0 69 -49 113.5t-121 44.5q-74 0 -125 -41t-65 -108h-50q13 87 80 141.5t161 54.5t157.5 -58.5t63.5 -146.5q0 -37 -11 -70.5t-35 -65.5t-42 -51.5t-50 -51.5l-253 -244h409v-47h-478v43l290 284l28.5 28.5t26.5 28t26 33t18.5 33t14.5 39.5t4 41z" />
<glyph horiz-adv-x="389" d="M47 318q8 50 48.5 82.5t99.5 32.5q60 0 99 -33t39 -81q0 -34 -20.5 -60.5t-50.5 -36.5q15 -3 30 -11t28 -21t21 -32t8 -42q0 -49 -43 -85.5t-108 -36.5q-61 0 -106.5 32.5t-51.5 83.5h44q8 -32 39.5 -53t74.5 -21q46 0 75.5 24t29.5 58q0 38 -29.5 60t-76.5 22h-53v40h50 q29 0 50.5 11t31.5 27.5t10 36.5q0 32 -25.5 53.5t-66.5 21.5q-39 0 -67 -19.5t-35 -52.5h-45z" />
<glyph horiz-adv-x="389" d="M47 619q8 50 48.5 82t99.5 32q60 0 99 -32.5t39 -80.5q0 -35 -20.5 -61t-50.5 -36q34 -7 60.5 -35t26.5 -71q0 -32 -19 -60t-54 -45t-78 -17q-61 0 -106.5 32.5t-51.5 83.5h44q8 -33 39.5 -53.5t74.5 -20.5q46 0 75.5 24t29.5 58q0 38 -29.5 60t-76.5 22h-53v40h50 q43 0 67.5 22t24.5 53q0 32 -25.5 53.5t-66.5 21.5q-39 0 -67 -19.5t-35 -52.5h-45z" />
<glyph d="M77 550q17 86 82.5 135.5t155.5 49.5q98 0 159.5 -54t61.5 -137q0 -42 -16.5 -77t-41.5 -56t-57 -32q25 -6 48 -19t45 -34t35.5 -54t13.5 -73q0 -86 -68.5 -147t-173.5 -61q-101 0 -172.5 53t-83.5 139h50q14 -64 69.5 -104.5t136.5 -40.5q85 0 138 47t53 115 q0 70 -52 111t-140 41h-88v47h86q80 0 123 41t43 103q0 65 -46.5 105t-122.5 40q-48 0 -87 -17t-64.5 -48t-35.5 -73h-51z" />
<glyph horiz-adv-x="401" d="M367 142v-40h-64v-102h-44v102h-224v39l209 286h59v-285h64zM83 142h176v236z" />
<glyph horiz-adv-x="401" d="M367 443v-40h-64v-102h-44v102h-224v39l209 286h59v-285h64zM83 443h176v236z" />
<glyph d="M475 0h-51v183h-378v43l369 502h60v-498h109v-47h-109v-183zM104 230h320v434z" />
<glyph horiz-adv-x="395" d="M213 277q37 0 68.5 -16t51.5 -48t20 -75q0 -62 -44 -103t-106 -41q-40 0 -73.5 14.5t-54.5 39.5t-27 56h47q7 -27 36 -47.5t71 -20.5q44 0 74.5 29t30.5 73q0 45 -31 72t-74 27q-71 0 -103 -56h-46l21 245h257v-42h-219l-14 -155q41 48 115 48z" />
<glyph horiz-adv-x="395" d="M213 578q57 0 98.5 -38t41.5 -101q0 -62 -44 -103t-106 -41q-40 0 -73.5 14t-54.5 39t-27 57h47q7 -27 36 -47.5t71 -20.5q44 0 74.5 28.5t30.5 73.5t-31 72t-74 27q-71 0 -103 -56h-46l21 245h257v-42h-219l-14 -156q41 49 115 49z" />
<glyph d="M323 38q83 0 137.5 54.5t54.5 141.5q0 88 -55.5 139.5t-135.5 51.5q-124 0 -190 -108h-50l34 409h410v-47h-366l-26 -297q70 90 196 90q96 0 165 -65t69 -173q0 -106 -69.5 -174.5t-173.5 -68.5q-100 0 -165.5 52t-81.5 130h52q15 -57 66 -96t129 -39z" />
<glyph horiz-adv-x="396" d="M217 278q58 0 100 -38.5t42 -99.5t-42.5 -103.5t-105.5 -42.5q-78 0 -123.5 54.5t-45.5 150.5q0 75 22 128.5t60 79.5t88 26q56 0 93 -31.5t44 -72.5h-45q-7 26 -32.5 43.5t-59.5 17.5q-57 0 -90.5 -46.5t-34.5 -138.5q18 35 53.5 54t76.5 19zM210 35q42 0 72.5 30 t30.5 74q0 43 -31 71.5t-73 28.5q-45 0 -77 -29t-32 -70q0 -44 31.5 -74.5t78.5 -30.5z" />
<glyph horiz-adv-x="396" d="M217 579q58 0 100 -38.5t42 -99.5t-42.5 -103.5t-105.5 -42.5q-78 0 -123.5 54.5t-45.5 150.5q0 112 46.5 172.5t123.5 60.5q56 0 93 -31t44 -73h-45q-7 27 -32.5 44.5t-59.5 17.5q-57 0 -90.5 -47t-34.5 -138q18 34 53.5 53.5t76.5 19.5zM210 336q21 0 40 8t32.5 21.5 t22 33t8.5 41.5q0 43 -31 71.5t-73 28.5q-45 0 -77 -29t-32 -70q0 -44 31.5 -74.5t78.5 -30.5z" />
<glyph d="M334 474q63 0 116.5 -28.5t87.5 -84t34 -126.5q0 -107 -69.5 -175.5t-171.5 -68.5q-125 0 -196.5 90t-71.5 253q0 199 74 300t197 101q88 0 147.5 -48.5t72.5 -117.5h-50q-15 50 -58.5 84.5t-111.5 34.5q-102 0 -162 -89t-60 -267v-2q27 65 87 104.5t135 39.5zM330 38 q80 0 135 54.5t55 142.5q0 86 -56 139t-136 53q-82 0 -138.5 -54.5t-56.5 -135.5q0 -86 55.5 -142.5t141.5 -56.5z" />
<glyph horiz-adv-x="351" d="M29 426h287v-38l-179 -388h-50l177 384h-235v42z" />
<glyph horiz-adv-x="351" d="M29 727h287v-38l-179 -388h-50l177 384h-235v42z" />
<glyph d="M546 683l-315 -683h-57l313 679h-414v47h473v-43z" />
<glyph horiz-adv-x="398" d="M42 114q0 44 29.5 74t61.5 36q-19 5 -35.5 17t-28.5 33t-12 45q0 47 39.5 80.5t103.5 33.5q42 0 75 -16t50 -41.5t17 -56.5q0 -36 -23.5 -61.5t-52.5 -33.5q20 -4 40 -17t35 -38t15 -55q0 -33 -20 -60.5t-56 -43.5t-80 -16q-68 0 -113 34.5t-45 85.5zM298 316 q0 33 -28 54.5t-70 21.5q-43 0 -71 -21.5t-28 -54.5q0 -32 29 -53.5t70 -21.5q40 0 69 21.5t29 53.5zM311 116q0 39 -32 63t-79 24q-32 0 -57.5 -10.5t-40 -30.5t-14.5 -46q0 -35 32 -59t80 -24q47 0 79 24t32 59z" />
<glyph horiz-adv-x="398" d="M42 415q0 43 29.5 73.5t61.5 35.5q-30 9 -53 34.5t-23 61.5q0 47 39.5 80t103.5 33q63 0 102.5 -33t39.5 -80q0 -36 -23.5 -61.5t-52.5 -34.5q20 -3 40 -16.5t35 -38t15 -54.5q0 -51 -44.5 -85.5t-111.5 -34.5q-68 0 -113 34.5t-45 85.5zM298 617q0 33 -28 54.5t-70 21.5 q-28 0 -50.5 -9.5t-35.5 -27t-13 -39.5q0 -32 29 -53.5t70 -21.5q26 0 48.5 9.5t36 27t13.5 38.5zM311 417q0 39 -32 63t-79 24q-48 0 -80 -24t-32 -63q0 -35 32 -59t80 -24q47 0 79 24t32 59z" />
<glyph d="M63 193q0 41 15.5 76.5t39.5 57.5t48.5 35.5t47.5 18.5q-20 7 -40.5 19t-40.5 32t-32 50t-12 66q0 82 62.5 134.5t163.5 52.5t164 -52.5t63 -134.5q0 -37 -13 -67.5t-33.5 -50t-40 -31.5t-39.5 -18q24 -5 49 -18.5t48.5 -36t39 -57.5t15.5 -76q0 -90 -71.5 -146 t-181.5 -56q-111 0 -181.5 56t-70.5 146zM491 546q0 64 -49 104t-127 40t-127 -39.5t-49 -104.5q0 -64 50.5 -104t125.5 -40t125.5 40t50.5 104zM517 195q0 73 -57.5 117.5t-144.5 44.5t-144.5 -44.5t-57.5 -117.5q0 -70 56 -114t146 -44q89 0 145.5 44.5t56.5 113.5z" />
<glyph horiz-adv-x="396" d="M179 148q-58 0 -100 38.5t-42 100t43 104t105 42.5q79 0 124 -55t45 -150q0 -113 -46 -173.5t-124 -60.5q-56 0 -93 31.5t-44 72.5h46q4 -18 17 -32t32.5 -22t41.5 -8q57 0 91 47t35 138q-18 -34 -53.5 -53.5t-77.5 -19.5zM186 391q-42 0 -72.5 -29.5t-30.5 -74.5 q0 -43 31 -71.5t73 -28.5q45 0 77.5 29t32.5 70q0 44 -31.5 74.5t-79.5 30.5z" />
<glyph horiz-adv-x="396" d="M179 449q-58 0 -100 38.5t-42 99.5t43 103.5t105 42.5q79 0 124 -54.5t45 -150.5q0 -112 -46 -172.5t-124 -60.5q-56 0 -93 31t-44 73h46q4 -18 17 -32t32.5 -22t41.5 -8q57 0 91 47t35 138q-18 -34 -53.5 -53.5t-77.5 -19.5zM186 692q-42 0 -72.5 -30t-30.5 -74 q0 -43 31 -71.5t73 -28.5q45 0 77.5 29t32.5 70q0 44 -31.5 74.5t-79.5 30.5z" />
<glyph d="M295 252q-63 0 -116.5 28.5t-87 84t-33.5 126.5q0 107 69 175.5t171 68.5q61 0 111 -22.5t85 -66t53.5 -108t18.5 -146.5q0 -199 -74 -300t-197 -101q-88 0 -147.5 48.5t-72.5 118.5h51q14 -51 58 -85.5t111 -34.5q102 0 162 89t60 267v2q-27 -66 -87 -105t-135 -39z M299 688q-80 0 -135 -54.5t-55 -142.5q0 -86 56 -139t136 -53q82 0 138.5 54.5t56.5 135.5q0 87 -55.5 143t-141.5 56z" />
<glyph horiz-adv-x="246" d="M124 188q17 0 29 -12t12 -30q0 -17 -12 -29t-29 -12q-12 0 -21.5 5.5t-15.5 15t-6 20.5q0 18 12.5 30t30.5 12zM124 619q11 0 20.5 -5.5t15 -15.5t5.5 -21q0 -17 -12 -29t-29 -12q-12 0 -21.5 5.5t-15.5 15t-6 20.5q0 18 12.5 30t30.5 12z" />
<glyph d="M549 113l-468 229v41l468 229v-53l-404 -196l404 -197v-53z" />
<glyph d="M91 446v46h448v-46h-448zM91 234v46h448v-46h-448z" />
<glyph horiz-adv-x="388" d="M56 258v39h277v-39h-277zM56 130v40h277v-40h-277z" />
<glyph horiz-adv-x="388" d="M56 558v39h277v-39h-277zM56 431v40h277v-40h-277z" />
<glyph d="M81 113v53l403 197l-403 196v53l468 -229v-41z" />
<glyph horiz-adv-x="932" d="M483 786q115 0 206 -53t140 -142.5t49 -198.5q0 -44 -6.5 -80.5t-17.5 -62.5t-26 -45.5t-32.5 -31t-36 -17t-38.5 -5.5q-28 0 -51.5 10t-39.5 28.5t-23 43.5q-23 -40 -62.5 -62.5t-90.5 -22.5q-52 0 -95 25.5t-68.5 75.5t-25.5 116q0 95 54.5 154t136.5 59q48 0 85 -22 t59 -58v69h48v-286q0 -41 22 -64t54 -23q45 0 74.5 47.5t29.5 151.5q0 73 -24.5 137t-68.5 111t-109 74.5t-143 27.5q-76 0 -143.5 -27t-117.5 -75.5t-79.5 -122t-29.5 -162t31 -160t84 -117.5t122.5 -70t149.5 -24q95 0 165 26v-45q-66 -26 -165 -26q-91 0 -170 28t-138 80 t-93 131.5t-34 176.5t32.5 178.5t89.5 136.5t133 85.5t163 30.5zM458 192q64 0 103 44.5t39 118.5v16q0 71 -38.5 116.5t-103.5 45.5q-63 0 -103.5 -46t-40.5 -123q0 -79 40 -125.5t104 -46.5z" />
<glyph horiz-adv-x="351" d="M320 774h-157v-823h157v-45h-206v912h206v-44z" />
<glyph horiz-adv-x="347" d="M64 818l268 -912h-49l-268 912h49z" />
<glyph horiz-adv-x="351" d="M31 -94v45h157v823h-157v44h206v-912h-206z" />
<glyph horiz-adv-x="605" d="M285 -9q-98 0 -165 71.5t-67 197.5q0 125 66 196.5t167 71.5q62 0 112.5 -28.5t77.5 -79.5v99h46v-519h-46v99q-14 -25 -33.5 -45t-44 -34t-53 -21.5t-60.5 -7.5zM288.5 483q-83.5 0 -135 -61.5t-51.5 -161.5q0 -67 24 -118t66 -78.5t96 -27.5q82 0 135 59.5t53 155.5v17 q0 94 -52 154.5t-135.5 60.5z" />
<glyph horiz-adv-x="363" d="M197 499q0 -64 -19 -95.5t-63 -41.5q43 -11 62.5 -42.5t19.5 -95.5v-151q0 -45 13 -72.5t36.5 -38.5t60.5 -11h26v-45h-28q-157 0 -157 163v149q0 61 -21.5 91.5t-74.5 30.5h-26v42h26q53 0 74.5 30.5t21.5 91.5v151q0 163 157 163h28v-44h-26q-56 0 -83 -28t-27 -95 v-152z" />
<glyph horiz-adv-x="254" d="M104 818h46v-912h-46v912z" />
<glyph horiz-adv-x="363" d="M167 499v152q0 67 -27.5 95t-82.5 28h-26v44h28q156 0 156 -163v-151q0 -30 5 -51.5t16 -38t30 -24.5t46 -8h26v-42h-26q-53 0 -75 -30.5t-22 -91.5v-149q0 -163 -156 -163h-28v45h26q37 0 60.5 11t36.5 38.5t13 72.5v151q0 32 4.5 55.5t14.5 40.5t25.5 26.5t36.5 15.5 q-43 10 -62 41.5t-19 95.5z" />
<glyph d="M509 438h45v-26q0 -59 -35 -95.5t-88 -36.5q-29 0 -56.5 12t-48.5 29.5t-41 34.5t-42.5 29.5t-43.5 12.5q-36 0 -58 -24t-22 -64v-23h-45v26q0 59 35 95.5t89 36.5q28 0 55.5 -12t48.5 -29.5t41.5 -34.5t42.5 -29t44 -12q23 0 41 10.5t28 30.5t10 46v23z" />
<glyph horiz-adv-x="254" d="M150 284v-378h-46v378h46zM104 440v378h46v-378h-46z" />
<glyph horiz-adv-x="918" d="M459.5 -2q151.5 0 252.5 103t101 261.5t-101 261.5t-253 103q-99 0 -179.5 -46.5t-127 -130t-46.5 -187.5q0 -159 101 -262t252.5 -103zM459.5 -47q-111.5 0 -203 52.5t-144 146.5t-52.5 210.5t52.5 210.5t144 146.5t203 52.5t203 -52.5t144 -146.5t52.5 -210.5 t-52.5 -210.5t-144 -146.5t-203 -52.5zM452 184q40 0 69.5 15.5t44 37t19.5 46.5h46q-3 -28 -17 -53t-36.5 -45t-55 -31.5t-70.5 -11.5q-83 0 -139.5 60.5t-56.5 161.5q0 65 26.5 116t71 78t98.5 27q74 0 122 -41t57 -98h-46q-7 27 -23.5 48t-45 34.5t-64.5 13.5 q-64 0 -106 -48.5t-42 -129.5q0 -85 42 -132.5t106 -47.5z" />
<glyph d="M87 468h448v-249h-49v201h-399v48z" />
<glyph horiz-adv-x="918" d="M459 -47q-83 0 -157 31t-127 85t-84 130.5t-31 163.5q0 116 52.5 210t144 146.5t203 52.5t203 -52.5t144 -146.5t52.5 -210.5t-52.5 -210.5t-144 -146.5t-203.5 -52.5zM459.5 -2q151.5 0 252.5 103t101 261.5t-101 261.5t-252.5 103t-252 -103t-100.5 -261.5 t100.5 -261.5t252 -103zM610 443q0 -43 -25.5 -78t-66.5 -49l120 -163h-54l-114 156h-104v-156h-46v420h152q61 0 99.5 -36.5t38.5 -93.5zM468 531h-102v-180h102q42 0 68.5 25.5t26.5 65.5q0 26 -11.5 46.5t-33 31.5t-50.5 11z" />
<glyph d="M542 356h-205v-202h204v-45h-453v45h201v202h-202v46h202v208h48v-208h205v-46z" />
<glyph horiz-adv-x="246" d="M124 405q17 0 29 -12.5t12 -29.5t-12 -29.5t-29 -12.5q-18 0 -30.5 12t-12.5 30q0 17 12.5 29.5t30.5 12.5z" />
<glyph d="M525 184l-33 -31l-178 178l-176 -178l-34 31l178 179l-178 178l33 32l177 -179l178 179l32 -32l-178 -178z" />
<glyph horiz-adv-x="605" d="M285 -9q-98 0 -165 71.5t-67 197.5q0 125 66 196.5t167 71.5q62 0 112.5 -28.5t77.5 -79.5v99h46v-519h-46v99q-14 -25 -33.5 -45t-44 -34t-53 -21.5t-60.5 -7.5zM288.5 483q-83.5 0 -135 -61.5t-51.5 -161.5q0 -67 24 -118t66 -78.5t96 -27.5q82 0 135 59.5t53 155.5v17 q0 94 -52 154.5t-135.5 60.5zM171 749h56l94 -146h-52z" />
<glyph horiz-adv-x="605" d="M285 -9q-98 0 -165 71.5t-67 197.5q0 125 66 196.5t167 71.5q62 0 112.5 -28.5t77.5 -79.5v99h46v-519h-46v99q-14 -25 -33.5 -45t-44 -34t-53 -21.5t-60.5 -7.5zM288.5 483q-83.5 0 -135 -61.5t-51.5 -161.5q0 -67 24 -118t66 -78.5t96 -27.5q82 0 135 59.5t53 155.5v17 q0 94 -52 154.5t-135.5 60.5zM414 749l-98 -146h-52l94 146h56z" />
<glyph horiz-adv-x="605" d="M285 -9q-98 0 -165 71.5t-67 197.5q0 125 66 196.5t167 71.5q62 0 112.5 -28.5t77.5 -79.5v99h46v-519h-46v99q-14 -25 -33.5 -45t-44 -34t-53 -21.5t-60.5 -7.5zM288.5 483q-83.5 0 -135 -61.5t-51.5 -161.5q0 -67 24 -118t66 -78.5t96 -27.5q82 0 135 59.5t53 155.5v17 q0 94 -52 154.5t-135.5 60.5zM197 603h-56l126 146h51l126 -146h-56l-95 109z" />
<glyph horiz-adv-x="605" d="M285 -9q-98 0 -165 71.5t-67 197.5q0 125 66 196.5t167 71.5q62 0 112.5 -28.5t77.5 -79.5v99h46v-519h-46v99q-14 -25 -33.5 -45t-44 -34t-53 -21.5t-60.5 -7.5zM288.5 483q-83.5 0 -135 -61.5t-51.5 -161.5q0 -67 24 -118t66 -78.5t96 -27.5q82 0 135 59.5t53 155.5v17 q0 94 -52 154.5t-135.5 60.5zM402 729h39v-16q0 -44 -22 -70.5t-60 -26.5q-25 0 -45 12t-31.5 26.5t-26 26.5t-29.5 12q-22 0 -33.5 -15t-11.5 -41v-16h-39v17q0 44 22 70t60 26q25 0 45 -12t31.5 -26.5t26 -26.5t29.5 -12q9 0 16 2.5t12.5 7.5t9 12t5.5 15.5t2 19.5v15z " />
<glyph horiz-adv-x="605" d="M285 -9q-98 0 -165 71.5t-67 197.5q0 125 66 196.5t167 71.5q62 0 112.5 -28.5t77.5 -79.5v99h46v-519h-46v99q-14 -25 -33.5 -45t-44 -34t-53 -21.5t-60.5 -7.5zM288.5 483q-83.5 0 -135 -61.5t-51.5 -161.5q0 -67 24 -118t66 -78.5t96 -27.5q82 0 135 59.5t53 155.5v17 q0 94 -52 154.5t-135.5 60.5zM195 716q17 0 29 -12t12 -29.5t-12 -29.5t-29 -12q-12 0 -21 5.5t-15 15t-6 21.5q0 8 3.5 16t9 13.5t13 8.5t16.5 3zM390.5 716q17.5 0 29.5 -12t12 -29.5t-12 -29.5t-29.5 -12t-29.5 12t-12 29.5t12 29.5t29.5 12z" />
<glyph horiz-adv-x="605" d="M285 -9q-98 0 -165 71.5t-67 197.5q0 125 66 196.5t167 71.5q62 0 112.5 -28.5t77.5 -79.5v99h46v-519h-46v99q-14 -25 -33.5 -45t-44 -34t-53 -21.5t-60.5 -7.5zM288.5 483q-83.5 0 -135 -61.5t-51.5 -161.5q0 -67 24 -118t66 -78.5t96 -27.5q82 0 135 59.5t53 155.5v17 q0 94 -52 154.5t-135.5 60.5zM387 681q0 -39 -27 -66t-66 -27q-40 0 -67.5 27t-27.5 66q0 25 12.5 46.5t34 34t48.5 12.5q25 0 47 -12.5t34 -34t12 -46.5zM237 681q0 -25 16.5 -41t40.5 -16q22 0 38.5 16.5t16.5 40.5t-16.5 40t-38.5 16q-16 0 -29 -7t-20.5 -20t-7.5 -29z " />
<glyph d="M314 602q17 0 29 -12.5t12 -30.5q0 -17 -12 -29t-29 -12q-11 0 -21 5.5t-15.5 15t-5.5 20.5q0 18 12 30.5t30 12.5zM552 339h-474v47h474v-47zM314 206q17 0 29 -12.5t12 -29.5t-12 -29t-29 -12q-11 0 -21 5.5t-15.5 15t-5.5 20.5q0 18 12 30t30 12z" />
<glyph horiz-adv-x="605" d="M285 -9q-98 0 -165 71.5t-67 197.5q0 125 66 196.5t167 71.5q62 0 112.5 -28.5t77.5 -79.5v99h46v-519h-46v99q-14 -25 -33.5 -45t-44 -34t-53 -21.5t-60.5 -7.5zM288.5 483q-83.5 0 -135 -61.5t-51.5 -161.5q0 -67 24 -118t66 -78.5t96 -27.5q82 0 135 59.5t53 155.5v17 q0 94 -52 154.5t-135.5 60.5zM154 697h277v-43h-277v43z" />
<glyph horiz-adv-x="605" d="M285 -9q-98 0 -165 71.5t-67 197.5q0 125 66 196.5t167 71.5q62 0 112.5 -28.5t77.5 -79.5v99h46v-519h-46v99q-14 -25 -33.5 -45t-44 -34t-53 -21.5t-60.5 -7.5zM288.5 483q-83.5 0 -135 -61.5t-51.5 -161.5q0 -67 24 -118t66 -78.5t96 -27.5q82 0 135 59.5t53 155.5v17 q0 94 -52 154.5t-135.5 60.5zM193 749q0 -32 12 -56t34.5 -37.5t53.5 -13.5q45 0 72 29t27 78h46q-1 -68 -40.5 -108.5t-104.5 -40.5q-43 0 -75.5 18.5t-51 52t-19.5 78.5h46z" />
<glyph horiz-adv-x="605" d="M285 -9q-98 0 -165 71.5t-67 197.5q0 125 66 196.5t167 71.5q62 0 112.5 -28.5t77.5 -79.5v99h46v-519q-37 -20 -63 -49t-26 -62q0 -28 18 -43.5t52 -15.5h32v-40h-41q-51 0 -79.5 24.5t-28.5 64.5t26.5 75t63.5 56v89q-14 -25 -33.5 -45t-44 -34t-53 -21.5t-60.5 -7.5z M288.5 483q-83.5 0 -135 -61.5t-51.5 -161.5q0 -67 24 -118t66 -78.5t96 -27.5q82 0 135 59.5t53 155.5v17q0 94 -52 154.5t-135.5 60.5z" />
<glyph horiz-adv-x="605" d="M285 -9q-98 0 -165 71.5t-67 197.5q0 125 66 196.5t167 71.5q62 0 112.5 -28.5t77.5 -79.5v99h46v-519h-46v99q-14 -25 -33.5 -45t-44 -34t-53 -21.5t-60.5 -7.5zM288.5 483q-83.5 0 -135 -61.5t-51.5 -161.5q0 -67 24 -118t66 -78.5t96 -27.5q82 0 135 59.5t53 155.5v17 q0 94 -52 154.5t-135.5 60.5zM197 749l96 -109l95 109h56l-126 -146h-51l-126 146h56z" />
<glyph horiz-adv-x="760" d="M726 48v-186h-49v138h-594v-138h-49v186h58l263 677h51l261 -677h59zM380 656l-234 -608h467z" />
<glyph horiz-adv-x="918" d="M434 0v360l-349 -360h-65l359 376l-352 349h68l339 -335v335h50v-335l339 335h68l-352 -348l360 -377h-67l-348 360v-360h-50z" />
<glyph horiz-adv-x="620" d="M145 0h-50v725h50v-332l375 332h71l-392 -348l403 -377h-74l-383 357v-357z" />
<glyph horiz-adv-x="660" d="M30 0l275 725h50l275 -725h-54l-246 656l-246 -656h-54z" />
<glyph horiz-adv-x="605" d="M285 -9q-98 0 -165 71.5t-67 197.5q0 125 66 196.5t167 71.5q62 0 112.5 -28.5t77.5 -79.5v99h46v-519h-46v99q-14 -25 -33.5 -45t-44 -34t-53 -21.5t-60.5 -7.5zM288.5 483q-83.5 0 -135 -61.5t-51.5 -161.5q0 -67 24 -118t66 -78.5t96 -27.5q82 0 135 59.5t53 155.5v17 q0 94 -52 154.5t-135.5 60.5z" />
<glyph horiz-adv-x="587" d="M222 698q-41 0 -65.5 -18.5t-24.5 -50.5q0 -71 153 -102q81 -16 117 -35q24 -12 44.5 -29t37 -38.5t27.5 -47.5t17.5 -57.5t6.5 -66.5q0 -111 -65 -186.5t-176 -75.5q-75 0 -131 36t-83 95t-27 130q0 95 46 161.5t126 87.5q-143 39 -143 129q0 52 38 83t100 31h274v-46 h-272zM294 36q59 0 103.5 30t66 78.5t21.5 108.5q0 48 -14 89t-39 69.5t-60.5 44.5t-77.5 16q-88 0 -140 -62t-52 -157q0 -92 51.5 -154.5t140.5 -62.5z" />
<glyph horiz-adv-x="567" d="M368 403q25 -7 48.5 -21.5t46 -37t35.5 -58.5t13 -80q0 -93 -58 -154t-158 -61q-102 0 -159.5 59t-57.5 159v333q0 97 55.5 154.5t148.5 57.5q59 0 103.5 -26t67 -67.5t22.5 -90.5q0 -117 -107 -167zM295 36q79 0 122.5 48.5t43.5 122.5q0 79 -50.5 124.5t-140.5 45.5 h-144v-167q0 -80 45 -127t124 -47zM126 542v-121h143q76 0 116 41.5t40 105.5q0 60 -39 100.5t-105 40.5q-71 0 -113 -44t-42 -123z" />
<glyph horiz-adv-x="503" d="M407 143h47q-14 -76 -73.5 -114t-142.5 -38q-82 0 -135 39t-53 108q0 110 143 137l97 19q50 9 75.5 30.5t25.5 59.5q0 45 -36.5 72.5t-98.5 27.5q-56 0 -94.5 -26.5t-49.5 -72.5h-47q11 66 63.5 104.5t129.5 38.5q80 0 131.5 -41t51.5 -105q0 -58 -37.5 -88.5 t-104.5 -43.5l-97 -18q-102 -19 -102 -95q0 -48 38 -75t101 -27q66 0 110 28t58 80z" />
<glyph horiz-adv-x="604" d="M475 519h46v-505q0 -108 -62 -168t-163 -60q-89 0 -147.5 42t-68.5 107h49q8 -32 29.5 -55t57 -36t81.5 -13q80 0 128 48.5t48 134.5v88q-19 -32 -46.5 -55.5t-63.5 -36t-78 -12.5q-99 0 -165.5 71t-66.5 195q0 122 65.5 193t167.5 71q64 0 113 -28.5t76 -78.5v98z M288 43q83 0 135 59.5t52 152.5v17q0 91 -51 151t-136 60q-83 0 -134.5 -60.5t-51.5 -158.5q0 -100 51.5 -160.5t134.5 -60.5z" />
<glyph horiz-adv-x="714" d="M380 749v-464l247 234h63l-257 -244l261 -275h-63l-251 263v-263h-46v263l-252 -263h-61l260 274l-257 245h63l247 -234v464h46z" />
<glyph horiz-adv-x="532" d="M92 1q4 -72 54 -117t127 -45t121.5 46t44.5 119q0 74 -49.5 114.5t-139.5 40.5h-73v44h72q76 0 117.5 40t41.5 101q0 63 -39 101t-105 38q-70 0 -113 -40t-52 -108h-47q8 86 65.5 139.5t147.5 53.5q87 0 139.5 -52t52.5 -130q0 -62 -33 -104.5t-74 -57.5q22 -5 44 -17.5 t44.5 -33t36 -54.5t13.5 -75q0 -92 -58.5 -151t-157.5 -59q-100 0 -161.5 58t-66.5 149h48z" />
<glyph horiz-adv-x="579" d="M496 0h-46v80q-26 -42 -74 -65.5t-104 -23.5q-82 0 -138 50.5t-56 149.5v328h49v-321q0 -81 42 -121.5t109 -40.5q32 0 61.5 10t54 30t39.5 53.5t15 76.5v313h48v-519z" />
<glyph horiz-adv-x="579" d="M496 0h-46v80q-26 -42 -74 -65.5t-104 -23.5q-82 0 -138 50.5t-56 149.5v328h49v-321q0 -81 42 -121.5t109 -40.5q32 0 61.5 10t54 30t39.5 53.5t15 76.5v313h48v-519zM190 749q0 -24 6.5 -44t19.5 -34t32 -21.5t41 -7.5q46 0 73 29t27 78h46q-1 -68 -40.5 -108.5 t-105.5 -40.5q-64 0 -104 40.5t-41 108.5h46z" />
<glyph horiz-adv-x="498" d="M132 0h-49v749h49v-460l274 230h67l-289 -243l295 -276h-67l-280 261v-261z" />
<glyph horiz-adv-x="535" d="M32 0l211 519h51l210 -519h-53l-182 457l-185 -457h-52z" />
<glyph horiz-adv-x="579" d="M132 0h-49v519h49v-226h316v226h48v-519h-48v247h-316v-247z" />
<glyph horiz-adv-x="579" d="M83 519h47v-81q25 42 73.5 66t104.5 24q82 0 138 -50.5t56 -148.5v-329h-49v321q0 42 -11.5 73.5t-32.5 50.5t-48 28.5t-59 9.5t-61.5 -10t-54 -30t-39.5 -53.5t-15 -76.5v-313h-49v519z" />
<glyph horiz-adv-x="885" d="M627 528q35 0 66 -11t57.5 -33.5t42 -61t15.5 -87.5v-335h-49v329q0 77 -39.5 115.5t-99.5 38.5q-63 0 -106.5 -41.5t-43.5 -116.5v-325h-49v329q0 76 -39 115t-99 39q-62 0 -106.5 -42.5t-44.5 -115.5v-325h-49v519h47v-77q24 40 67.5 63t92.5 23q25 0 48.5 -6t45 -18 t39 -32t28.5 -46q23 48 71 75t105 27z" />
<glyph horiz-adv-x="606" d="M533 44h40v-175h-48v131h-10q-31 0 -48 17.5t-17 51.5v11q-26 -42 -74 -65.5t-104 -23.5q-82 0 -138 50.5t-56 149.5v328h49v-321q0 -81 42 -121.5t109 -40.5q32 0 61.5 10t54 30t39.5 53.5t15 76.5v313h48v-429q0 -26 8 -36t29 -10z" />
<glyph horiz-adv-x="534" d="M403 519h48v-519h-48v233q-61 -39 -140 -39q-44 0 -80.5 12.5t-63 37t-41.5 63.5t-15 90v122h48v-121q0 -53 20.5 -89.5t55 -53.5t81.5 -17q75 0 135 41v240z" />
<glyph horiz-adv-x="885" d="M259 -9q-35 0 -66 11t-57.5 33.5t-42 61t-15.5 87.5v335h49v-328q0 -78 39.5 -116.5t99.5 -38.5q63 0 106.5 41.5t43.5 116.5v325h49v-328q0 -77 39 -116t99 -39q62 0 106.5 42.5t44.5 115.5v325h48v-519h-46v77q-24 -40 -67.5 -63t-93.5 -23q-51 0 -95 25.5t-66 75.5 q-23 -47 -71 -74t-104 -27z" />
<glyph horiz-adv-x="912" d="M259 -9q-35 0 -66 11t-57.5 33.5t-42 61t-15.5 87.5v335h49v-328q0 -78 39.5 -116.5t99.5 -38.5q63 0 106.5 41.5t43.5 116.5v325h49v-328q0 -77 39 -116t99 -39q62 0 106.5 42.5t44.5 115.5v325h48v-429q0 -26 8 -36t28 -10h41v-175h-48v131h-10q-31 0 -48 17.5 t-17 51.5v8q-24 -40 -67.5 -63t-93.5 -23q-51 0 -95 25.5t-66 75.5q-23 -47 -71 -74t-104 -27z" />
<glyph horiz-adv-x="603" d="M231 519v-186h141q55 0 97 -22t64.5 -60.5t22.5 -87.5q0 -76 -51 -124t-131 -48q-55 0 -98 21.5t-68.5 65t-25.5 102.5v295h-149v44h198zM367 288h-136v-107q0 -70 40.5 -107.5t102.5 -37.5q59 0 96 35t37 92t-37 91t-103 34z" />
<glyph horiz-adv-x="499" d="M127 519v-186h141q83 0 133.5 -47.5t50.5 -122.5q0 -76 -51 -124t-131 -48q-84 0 -138 50.5t-54 138.5v339h49zM263 288h-136v-107q0 -70 40.5 -107.5t102.5 -37.5q59 0 96 35t37 92t-37 91t-103 34z" />
<glyph horiz-adv-x="773" d="M132 0h-49v749h49v-456h119q10 106 74 170.5t161 64.5q105 0 170 -74.5t65 -194t-65 -194t-170 -74.5q-102 0 -167.5 70.5t-68.5 185.5h-118v-247zM486 36q83 0 134.5 61t51.5 162.5t-51.5 162.5t-134.5 61t-134.5 -61t-51.5 -162.5t51.5 -162.5t134.5 -61z" />
<glyph horiz-adv-x="579" d="M496 0h-46v80q-26 -42 -74 -65.5t-104 -23.5q-82 0 -138 50.5t-56 149.5v328h49v-321q0 -81 42 -121.5t109 -40.5q32 0 61.5 10t54 30t39.5 53.5t15 76.5v313h48v-519zM168 749h56l94 -146h-52z" />
<glyph horiz-adv-x="605" d="M285 -9q-98 0 -165 71.5t-67 197.5q0 125 66 196.5t167 71.5q62 0 112.5 -28.5t77.5 -79.5v99h46v-519h-46v99q-14 -25 -33.5 -45t-44 -34t-53 -21.5t-60.5 -7.5zM288.5 483q-83.5 0 -135 -61.5t-51.5 -161.5q0 -67 24 -118t66 -78.5t96 -27.5q82 0 135 59.5t53 155.5v17 q0 94 -52 154.5t-135.5 60.5zM193 749q0 -32 12 -56t34.5 -37.5t53.5 -13.5q45 0 72 29t27 78h46q-1 -68 -40.5 -108.5t-104.5 -40.5q-43 0 -75.5 18.5t-51 52t-19.5 78.5h46z" />
<glyph horiz-adv-x="605" d="M285 -9q-98 0 -165 71.5t-67 197.5q0 125 66 196.5t167 71.5q62 0 112.5 -28.5t77.5 -79.5v99h46v-519h-46v99q-14 -25 -33.5 -45t-44 -34t-53 -21.5t-60.5 -7.5zM288.5 483q-83.5 0 -135 -61.5t-51.5 -161.5q0 -67 24 -118t66 -78.5t96 -27.5q82 0 135 59.5t53 155.5v17 q0 94 -52 154.5t-135.5 60.5zM195 716q17 0 29 -12t12 -29.5t-12 -29.5t-29 -12q-12 0 -21 5.5t-15 15t-6 21.5q0 8 3.5 16t9 13.5t13 8.5t16.5 3zM390.5 716q17.5 0 29.5 -12t12 -29.5t-12 -29.5t-29.5 -12t-29.5 12t-12 29.5t12 29.5t29.5 12z" />
<glyph horiz-adv-x="515" d="M0 340v47h515v-47h-515z" />
<glyph horiz-adv-x="1030" d="M0 340v47h1030v-47h-1030z" />
<glyph horiz-adv-x="362" d="M181 477q32 0 58 -15t41.5 -41.5t15.5 -57.5q0 -49 -33.5 -82t-81.5 -33q-47 0 -80 33t-33 81.5t33 81.5t80 33z" />
<glyph horiz-adv-x="355" d="M116 363l183 -213h-59l-183 213l183 211h59z" />
<glyph horiz-adv-x="355" d="M239 363l-182 211h58l184 -211l-184 -213h-58z" />
<glyph horiz-adv-x="921" d="M681 553q86 0 140.5 -55.5t54.5 -135t-54.5 -135t-140.5 -55.5q-122 0 -220 148q-20 -30 -40 -53.5t-47.5 -46.5t-61 -35.5t-70.5 -12.5q-87 0 -141 55.5t-54 135t54 135t141 55.5q37 0 70.5 -12.5t60.5 -35.5t47 -46.5t40 -54.5q17 24 32 43t36.5 40t43.5 34.5t50 22.5 t59 9zM679 219q66 0 106 41t40 102.5t-40 102.5t-106 41q-59 0 -105 -39t-87 -104q27 -43 52 -72t62 -50.5t78 -21.5zM243 219q59 0 105 38.5t87 104.5q-42 66 -87.5 105t-104.5 39q-66 0 -105.5 -41t-39.5 -102.5t39.5 -102.5t105.5 -41z" />
<glyph d="M505 536h44v-18q0 -56 -35 -91.5t-87 -35.5q-32 0 -65 17t-55.5 36.5t-51 36t-52.5 16.5q-35 0 -56.5 -22.5t-21.5 -61.5v-13h-45v17q0 56 35.5 91.5t86.5 35.5q33 0 66 -16.5t55.5 -36.5t50.5 -36.5t52 -16.5q35 0 57 22.5t22 61.5v14zM505 325h44v-17q0 -56 -35 -91.5 t-87 -35.5q-32 0 -65 16.5t-55.5 36.5t-51 36.5t-52.5 16.5q-35 0 -56.5 -22.5t-21.5 -61.5v-13h-45v17q0 56 35.5 91.5t86.5 35.5q33 0 66 -16.5t55.5 -36.5t50.5 -36.5t52 -16.5q35 0 57 22.5t22 61.5v13z" />
<glyph d="M399 607h48l-50 -115h142v-46h-163l-74 -166h237v-46h-258l-50 -115h-49l51 115h-142v46h162l75 166h-237v46h257z" />
<glyph d="M548 615v-51l-404 -181l404 -201v-73h-468v45h426l-426 210v42z" />
<glyph d="M549 406v-42l-426 -210h426v-45h-468v73l404 201l-404 181v51z" />
<glyph horiz-adv-x="560" d="M116 363l183 -213h-59l-183 213l183 211h59zM321 363l183 -213h-59l-183 213l183 211h59z" />
<glyph horiz-adv-x="560" d="M239 363l-182 211h58l184 -211l-184 -213h-58zM444 363l-182 211h58l184 -211l-184 -213h-58z" />
<glyph horiz-adv-x="215" d="M132 519v-519h-49v519h49zM108 716q17 0 29 -12t12 -29.5t-12 -29.5t-29 -12t-29 12t-12 29.5t12 29.5t29 12z" />
</font>
</defs>
</svg>
