<svg width="14" height="30" viewBox="0 0 14 30" fill="none" xmlns="http://www.w3.org/2000/svg">
<rect width="14" height="30" fill="#3214B4"/>
<path d="M2 21H12V18.632H6.10122L8.40489 16.952C9.71379 16.008 10.6387 15.224 11.1449 14.6C11.6684 13.976 11.9302 13.224 11.9302 12.328C11.9302 11.176 11.4939 10.216 10.6038 9.448C9.71379 8.664 8.5445 8.28 7.07853 8.28C5.90925 8.28 4.86213 8.536 3.93717 9.048C3.02967 9.544 2.41885 10.296 2.08726 11.272L4.68761 12.28C5.14136 11.24 5.9267 10.712 7.06108 10.712C8.17801 10.712 9.01571 11.448 9.01571 12.344C9.01571 12.808 8.85864 13.224 8.52705 13.608C8.19546 13.992 7.61955 14.504 6.7644 15.144L2 18.728V21Z" fill="white"/>
</svg>
