<svg width="11" height="30" viewBox="0 0 11 30" fill="none" xmlns="http://www.w3.org/2000/svg">
<rect width="11" height="30" fill="#3214B4"/>
<path fill-rule="evenodd" clip-rule="evenodd" d="M6.96307 14.66C7.62307 14.66 7.96307 14.36 7.96307 13.76C7.96307 12.88 7.20306 12.16 5.86307 12.16C4.64307 12.16 3.74307 12.72 3.20307 13.86L1.38307 12.82C2.22307 11 3.74307 10.1 5.92307 10.1C7.92307 10.1 9.26308 10.82 9.92307 12.28C10.1631 12.82 10.2831 13.46 10.2831 14.2V21H7.94307V19.54C7.28307 20.64 6.24307 21.18 4.80307 21.18C3.76307 21.18 2.90307 20.88 2.22307 20.3C1.54307 19.72 1.20307 18.96 1.20307 18.04V17.92C1.20307 15.44 3.76307 14.66 5.64307 14.66H6.96307ZM5.28307 19.28C6.90307 19.28 7.94307 18.28 7.94307 16.68V16.34H5.64307C5.14307 16.34 4.66307 16.48 4.22307 16.74C3.80307 17 3.58307 17.36 3.58307 17.82C3.58307 18.7 4.26307 19.28 5.28307 19.28Z" fill="white"/>
</svg>
