<svg width="12" height="30" viewBox="0 0 12 30" fill="none" xmlns="http://www.w3.org/2000/svg">
<rect width="12" height="30" fill="#3214B4"/>
<path fill-rule="evenodd" clip-rule="evenodd" d="M8.35916 13.76C8.35916 14.36 8.01916 14.66 7.35916 14.66H6.03916C3.93374 14.66 1.59916 15.6276 1.59916 18.04C1.59916 18.96 1.93916 19.72 2.61916 20.3C3.29916 20.88 4.15916 21.18 5.19916 21.18C6.63916 21.18 7.67916 20.64 8.33916 19.54V21H10.6792V14.2C10.6792 13.46 10.5592 12.82 10.3192 12.28C9.65916 10.82 8.31916 10.1 6.31916 10.1C4.13916 10.1 2.61916 11 1.77916 12.82L3.59916 13.86C4.13916 12.72 5.03916 12.16 6.25916 12.16C7.59916 12.16 8.35916 12.88 8.35916 13.76ZM8.33916 16.68C8.33916 18.28 7.29916 19.28 5.67916 19.28C4.65916 19.28 3.97916 18.7 3.97916 17.82C3.97916 17.36 4.19916 17 4.61916 16.74C5.05916 16.48 5.53916 16.34 6.03916 16.34H8.33916V16.68Z" fill="white"/>
</svg>
