<?xml version="1.0" encoding="UTF-8" standalone="no"?>
<svg width="279px" height="61px" viewBox="0 0 279 61" version="1.1" xmlns="http://www.w3.org/2000/svg" xmlns:xlink="http://www.w3.org/1999/xlink">
    <!-- Generator: Sketch 3.6.1 (26313) - http://www.bohemiancoding.com/sketch -->
    <title>logo</title>
    <desc>Created with Sketch.</desc>
    <defs>
        <path id="path-1" d="M0,0.807352941 L278.191433,0.807352941 L278.191433,61 L0,61 L0,0.807352941 Z"></path>
        <path id="path-3" d="M0,0.807352941 L278.191433,0.807352941 L278.191433,61 L0,61"></path>
    </defs>
    <g id="design" stroke="none" stroke-width="1" fill="none" fill-rule="evenodd">
        <g transform="translate(-25.000000, -52.000000)" id="Group-45">
            <g transform="translate(0.000000, 47.000000)">
                <g id="Group-39-Copy" transform="translate(0.000000, 4.000000)">
                    <g id="Group-34" transform="translate(25.000000, 1.000000)">
                        <g id="logo">
                            <g id="Group-24">
                                <g id="Group-4">
                                    <mask id="mask-2" fill="white">
                                        <use xlink:href="#path-1"></use>
                                    </mask>
                                    <g id="Clip-3"></g>
                                    <path d="M39.942493,33.8603824 C37.6376331,38.9413235 32.5676522,42.4667647 26.6802191,42.4667647 C18.6212064,42.4667647 12.092251,35.8751765 12.092251,27.7460294 C12.092251,19.6115 18.6212064,13.0181176 26.6802191,13.0181176 C32.5676522,13.0181176 37.6376331,16.5471471 39.942493,21.6173235 L39.942493,4.37585294 C36.0347159,2.11347059 31.5120726,0.807352941 26.6802191,0.807352941 C11.9465312,0.807352941 -0.000710828025,12.8674118 -0.000710828025,27.7460294 C-0.000710828025,42.6174706 11.9465312,54.6793235 26.6802191,54.6793235 C31.5120726,54.6793235 36.0347159,53.3785882 39.942493,51.1108235 L39.942493,33.8603824 Z" id="Fill-2" fill="#3CB3E7" mask="url(#mask-2)"></path>
                                </g>
                                <path d="M212.856208,46.5699118 C212.856208,50.02 215.219711,52.1532059 218.10745,52.1532059 C220.780164,52.1532059 222.768705,50.3967647 223.605705,48.4537353 L223.605705,44.6878824 C222.768705,42.7412647 220.780164,40.9866176 218.10745,40.9866176 C215.219711,40.9866176 212.856208,43.1180294 212.856208,46.5699118 M223.854495,41.5499706 L223.854495,39.04 L226.090049,39.04 L226.090049,54.0980294 L223.605705,54.0980294 L223.605705,51.8374412 C222.518138,53.1256176 220.685979,54.473 217.826673,54.473 C213.567036,54.473 210.371864,51.0875 210.371864,46.5699118 C210.371864,42.0523235 213.567036,38.6650294 217.826673,38.6650294 C220.685979,38.6650294 222.518138,40.0142059 223.854495,41.5499706" id="Fill-15" fill="#3CB3E7"></path>
                                <path d="M176.211069,39.0396412 L170.741247,46.3506706 L176.520279,54.0976706 L173.66275,54.0976706 L169.310706,48.1376118 L164.930228,54.0976706 L162.070922,54.0976706 L167.881941,46.3506706 L162.383687,39.0396412 L165.239438,39.0396412 L169.310706,44.5942294 L173.355317,39.0396412 L176.211069,39.0396412 Z" id="Fill-19" fill="#3CB3E7"></path>
                                <path d="M184.544639,41.0492324 C181.500518,41.0492324 179.078371,43.08735 179.078371,46.5697324 C179.078371,50.0521147 181.500518,52.0902324 184.544639,52.0902324 C187.58876,52.0902324 190.014461,50.0521147 190.014461,46.5697324 C190.014461,43.08735 187.58876,41.0492324 184.544639,41.0492324 M184.544639,38.66485 C188.615906,38.66485 192.500582,41.4259971 192.500582,46.5697324 C192.500582,51.7152618 188.615906,54.4728206 184.544639,54.4728206 C180.508913,54.4728206 176.59225,51.7152618 176.59225,46.5697324 C176.59225,41.4259971 180.508913,38.66485 184.544639,38.66485" id="Fill-21" fill="#3CB3E7"></path>
                                <path d="M197.778835,51.9032853 L203.374829,51.9032853 C204.926211,51.9032853 206.045765,51.4332265 206.045765,49.7700794 C206.045765,47.9777559 204.707631,47.5758735 203.463682,47.5758735 L197.778835,47.5758735 L197.778835,51.9032853 Z M197.778835,45.4103735 L203.214892,45.4103735 C204.519262,45.4103735 205.546408,44.9080206 205.546408,43.3704618 C205.546408,41.6750206 204.268695,41.2336676 203.214892,41.2336676 L197.778835,41.2336676 L197.778835,45.4103735 Z M195.294491,54.0992853 L195.294491,39.0394618 L203.463682,39.0394618 C206.074198,39.0394618 208.062739,40.4514324 208.062739,43.1192853 C208.062739,44.6891382 207.195529,45.9432265 206.074198,46.4419912 C207.28616,46.85105 208.528332,48.0441382 208.528332,49.9261676 C208.528332,52.40205 206.944962,54.0992853 203.714249,54.0992853 L195.294491,54.0992853 Z" id="Fill-23" fill="#3CB3E7"></path>
                                <path d="M229.849441,54.0985676 L229.849441,39.0405382 L232.333785,39.0405382 L232.333785,45.4096559 L240.970345,45.4096559 L240.970345,39.0405382 L243.454689,39.0405382 L243.454689,54.0985676 L240.970345,54.0985676 L240.970345,47.72945 L232.333785,47.72945 L232.333785,54.0985676 L229.849441,54.0985676 Z" id="Fill-25" fill="#3CB3E7"></path>
                                <path d="M246.95374,54.0985676 L246.95374,39.0405382 L249.43453,39.0405382 L249.43453,50.0510382 L258.570447,39.0405382 L260.681606,39.0405382 L260.681606,54.0985676 L258.199039,54.0985676 L258.199039,43.0862735 L249.066676,54.0985676 L246.95374,54.0985676 Z" id="Fill-27" fill="#3CB3E7"></path>
                                <g id="Group-38">
                                    <g id="Group-35">
                                        <g id="Group-31">
                                            <mask id="mask-4" fill="white">
                                                <use xlink:href="#path-3"></use>
                                            </mask>
                                            <g id="Clip-30"></g>
                                            <path d="M271.207903,40.9860794 C268.659585,40.9860794 266.299636,42.5236382 266.113043,45.4695794 L275.774973,45.4695794 C275.993553,43.8710206 274.998394,40.9860794 271.207903,40.9860794 M271.051521,38.6644912 C276.800343,38.6644912 278.913279,43.4009618 277.980317,47.6709618 L266.113043,47.6709618 C266.422254,50.8375794 269.251349,52.1544618 272.263483,52.1544618 C274.099196,52.1544618 275.897591,51.6503147 277.175304,50.9290794 L277.175304,53.3762559 C275.806961,54.0992853 273.852183,54.4742559 271.892075,54.4742559 C267.47961,54.4742559 263.626922,51.9337853 263.626922,46.5693735 C263.626922,41.30005 267.511597,38.6644912 271.051521,38.6644912" id="Fill-29" fill="#3CB3E7" mask="url(#mask-4)"></path>
                                        </g>
                                    </g>
                                </g>
                                <path d="M218.742753,24.0121118 L218.742753,12.1799059 L213.804275,12.1799059 L213.804275,8.36740588 L228.134568,8.36740588 L228.134568,12.1799059 L223.19609,12.1799059 L223.19609,24.0121118 L218.742753,24.0121118 Z" id="Fill-34" fill="#1D4382"></path>
                                <path d="M204.463639,20.8916029 C201.911767,20.8916029 200.490111,18.6005147 200.490111,16.1892206 C200.490111,13.7779265 201.911767,11.4868382 204.463639,11.4868382 C207.045722,11.4868382 208.462047,13.7779265 208.462047,16.1892206 C208.462047,18.6005147 207.045722,20.8916029 204.463639,20.8916029 M204.463639,7.91295588 C200.530983,7.91295588 196.921754,10.0641029 196.088308,14.2838676 L193.641283,14.2838676 L193.641283,8.36866176 L189.154181,8.36866176 L189.154181,24.0115735 L193.641283,24.0115735 L193.641283,18.0945735 L196.088308,18.0945735 C196.921754,22.3143382 200.530983,24.4708676 204.463639,24.4708676 C208.982729,24.4708676 213.018455,21.6648676 213.018455,16.1892206 C213.018455,10.7117794 208.982729,7.91295588 204.463639,7.91295588" id="Fill-36" fill="#1D4382"></path>
                                <path d="M181.028528,8.36794412 L177.860012,8.36794412 L173.351585,8.36794412 L173.305382,8.36794412 L171.581624,18.2553265 C171.345273,19.6062971 170.394541,20.3992971 169.123936,20.1732382 L169.123936,24.0575029 C169.20035,24.0754441 169.276764,24.0933853 169.356732,24.1059441 C172.958853,24.7500324 175.343681,22.7854735 175.988757,19.0770324 L177.193611,12.1804441 L181.028528,12.1804441 L181.028528,24.01265 L185.519184,24.01265 L185.519184,12.1804441 L185.519184,8.36794412 L181.028528,8.36794412 Z" id="Fill-38" fill="#1D4382"></path>
                            </g>
                            <g id="Group-37" transform="translate(40.000000, 0.000000)">
                                <path d="M0,53.8719706 L13.4186561,53.8719706 L13.4186561,0 L0,0 L0,53.8719706 Z" id="Fill-1" fill="#1D4382"></path>
                                <path d="M36.4445159,46.7990294 C36.4445159,51.1067059 32.9845605,54.5962647 28.7249236,54.5962647 C24.4564013,54.5962647 21,51.1067059 21,46.7990294 C21,42.4931471 24.4564013,39 28.7249236,39 C32.9845605,39 36.4445159,42.4931471 36.4445159,46.7990294" id="Fill-5" fill="#1D4382"></path>
                                <path d="M119.554815,11.5738824 C117.006497,11.5738824 115.584841,13.8649706 115.584841,16.2762647 C115.584841,18.6875588 117.006497,20.9786471 119.554815,20.9786471 C122.136898,20.9786471 123.556777,18.6875588 123.556777,16.2762647 C123.556777,13.8649706 122.136898,11.5738824 119.554815,11.5738824 M119.554815,8 C124.077459,8 128.111408,10.7988235 128.111408,16.2762647 C128.111408,21.7519118 124.077459,24.5579118 119.554815,24.5579118 C115.067713,24.5579118 111,21.7519118 111,16.2762647 C111,10.7988235 115.067713,8 119.554815,8" id="Fill-7" fill="#1D4382"></path>
                                <path d="M63.4337831,31 C65.6106939,31 67.7236302,31.5023529 69.5593436,32.4729706 L69.5593436,35.1085294 C67.9741971,34.0428235 65.918127,33.5081765 63.8709423,33.5081765 C59.3625155,33.5081765 54.6728276,36.2370294 54.6426174,42.5128529 C54.6106302,48.3778235 59.4567003,51.2035588 63.965127,51.2035588 C66.2006811,51.2035588 68.2158786,50.6707059 69.7121716,49.6014118 L69.7121716,52.2351765 C67.9084455,53.1770882 65.7350888,53.7099412 63.4017958,53.7099412 C57.9355283,53.7099412 51.9699041,49.8220882 52.0001143,42.5128529 C52.0321015,34.8914412 57.7791461,31 63.4337831,31" id="Fill-9" fill="#3CB3E7"></path>
                                <path d="M74.4982548,54.0580294 L74.4982548,41.3197941 L69,41.3197941 L69,39 L82.4577516,39 L82.4577516,41.3197941 L76.9861529,41.3197941 L76.9861529,54.0580294 L74.4982548,54.0580294 Z" id="Fill-11" fill="#3CB3E7"></path>
                                <path d="M93.9825987,40.3215882 C91.3098854,40.3215882 89.3248981,42.0780294 88.4843439,44.0246471 L88.4843439,47.7887059 C89.3248981,49.7317353 91.3098854,51.4899706 93.9825987,51.4899706 C96.8738917,51.4899706 99.2338408,49.3549706 99.2338408,45.9048824 C99.2338408,42.4547941 96.8738917,40.3215882 93.9825987,40.3215882 M94.2633758,38 C98.5194586,38 101.721739,41.3890882 101.721739,45.9048824 C101.721739,50.4224706 98.5194586,53.8097647 94.2633758,53.8097647 C91.4076242,53.8097647 89.575465,52.4623824 88.4843439,51.1742059 L88.4843439,60.3349706 L86,60.3349706 L86,38.3749706 L88.2391083,38.3749706 L88.2391083,40.8849412 C89.575465,39.3491765 91.4076242,38 94.2633758,38" id="Fill-13" fill="#3CB3E7"></path>
                                <path d="M105.484344,45.9048824 C105.484344,49.3549706 107.847847,51.4881765 110.73914,51.4881765 C113.408299,51.4881765 115.396841,49.7317353 116.237395,47.7887059 L116.237395,44.0228529 C115.396841,42.0762353 113.408299,40.3215882 110.73914,40.3215882 C107.847847,40.3215882 105.484344,42.453 105.484344,45.9048824 M116.486185,40.8849412 L116.486185,38.3749706 L118.721739,38.3749706 L118.721739,53.433 L116.237395,53.433 L116.237395,51.1724118 C115.149828,52.4605882 113.314115,53.8079706 110.458363,53.8079706 C106.198726,53.8079706 103,50.4224706 103,45.9048824 C103,41.3872941 106.198726,38 110.458363,38 C113.314115,38 115.149828,39.3491765 116.486185,40.8849412" id="Fill-17" fill="#3CB3E7"></path>
                                <path d="M85.2671207,20.764 C82.6850379,20.764 81.2509424,18.8963235 81.2509424,16.677 C81.2509424,14.4558824 82.6850379,12.3944412 85.2671207,12.3944412 C87.8811908,12.3944412 89.3170634,14.4558824 89.3170634,16.677 C89.3170634,18.8963235 87.8811908,20.764 85.2671207,20.764 M85.427057,9.05917647 C83.930764,9.05917647 82.4735666,9.49873529 81.2029615,10.2020294 C81.6436748,9.00535294 82.5730825,7.84097059 84.3821398,7.18432353 C87.1899105,6.16885294 91.7498723,5.98226471 92.4198277,4.85197059 L92.4198277,1 C90.8968787,2.49270588 85.0894137,2.13388235 81.4215411,4.5075 C78.755936,6.23523529 76.7602863,10.2666176 77.0232927,16.0831471 C77.0232927,21.4116765 80.8564328,24.2984118 85.427057,24.2984118 C89.8181971,24.2984118 93.7366366,21.7166765 93.7366366,16.677 C93.7366366,11.6355294 89.8181971,9.05917647 85.427057,9.05917647" id="Fill-32" fill="#1D4382"></path>
                                <path d="M61.4588535,14.7644706 C63.1221911,10.3814412 64.769535,5.96252941 64.8495032,5.53194118 C64.9294713,5.96252941 66.5714841,10.3814412 68.2241592,14.7644706 L61.4588535,14.7644706 Z M71.6592357,23.8175882 L76.665242,23.8175882 L67.4671274,1 L62.2354331,1 L53,23.8175882 L58.0060064,23.8175882 C58.0060064,23.8175882 58.883879,21.5300882 60.0087643,18.5805588 L69.6706943,18.5805588 C70.7849172,21.5300882 71.6592357,23.8175882 71.6592357,23.8175882 L71.6592357,23.8175882 Z" id="Fill-40" fill="#1D4382"></path>
                                <path d="M104.750293,8 C106.458057,8 107.981006,8.39291176 109.370675,9.14285294 L109.370675,12.8279706 C108.268892,12.0439412 106.881,11.6097647 105.391815,11.6097647 C102.941236,11.6097647 100.581287,13.1509118 100.581287,16.3121471 C100.581287,19.3119118 102.911025,21.0145294 105.326064,21.0145294 C106.975185,21.0145294 108.402172,20.5785588 109.528834,19.8322059 L109.528834,23.5496176 C108.016548,24.1990882 106.42607,24.5937941 104.458854,24.5937941 C100.22765,24.5937941 96,22.1143235 96,16.5417941 C96,10.5440588 100.449783,8 104.750293,8" id="Fill-42" fill="#1D4382"></path>
                            </g>
                        </g>
                    </g>
                </g>
            </g>
        </g>
    </g>
</svg>