<svg width="48" height="48" viewBox="0 0 48 48" fill="none" xmlns="http://www.w3.org/2000/svg">
<path d="M23.2929 15.2929C22.9024 15.6834 22.9024 16.3166 23.2929 16.7071L29.5858 23H16C15.4477 23 15 23.4477 15 24C15 24.5523 15.4477 25 16 25H29.5858L23.2929 31.2929C22.9024 31.6834 22.9024 32.3166 23.2929 32.7071C23.6834 33.0976 24.3166 33.0976 24.7071 32.7071L32.7071 24.7071C33.0976 24.3166 33.0976 23.6834 32.7071 23.2929L24.7071 15.2929C24.3166 14.9024 23.6834 14.9024 23.2929 15.2929Z" fill="#B8BFCC"/>
<path fill-rule="evenodd" clip-rule="evenodd" d="M24 3C35.598 3 45 12.402 45 24C45 35.598 35.598 45 24 45C12.402 45 3 35.598 3 24C3 12.402 12.402 3 24 3ZM43 24C43 13.5066 34.4934 5 24 5C13.5066 5 5 13.5066 5 24C5 34.4934 13.5066 43 24 43C34.4934 43 43 34.4934 43 24Z" fill="#B8BFCC"/>
</svg>
