<svg width="13" height="30" viewBox="0 0 13 30" fill="none" xmlns="http://www.w3.org/2000/svg">
<rect width="13" height="30" fill="#3214B4"/>
<path fill-rule="evenodd" clip-rule="evenodd" d="M12.58 14.62C12.58 14.94 12.56 15.18 12.54 15.36H4.44C4.46 16.16 4.78 16.82 5.4 17.36C6.02 17.88 6.74 18.14 7.56 18.14C8.9 18.14 9.86 17.58 10.44 16.48L12.16 17.62C11.26 19.28 9.52 20.2 7.6 20.2C6.02 20.2 4.68 19.68 3.6 18.62C2.54 17.56 2 16.22 2 14.64C2 13.1 2.52 11.8 3.54 10.72C4.56 9.64 5.84 9.1 7.38 9.1C9 9.1 10.28 9.6 11.2 10.62C12.12 11.64 12.58 12.96 12.58 14.62ZM10.16 13.56C10.08 12.06 8.9 11.14 7.38 11.14C5.92 11.14 4.78 12.1 4.56 13.56H10.16Z" fill="white"/>
</svg>
