<svg width="132" height="32" viewBox="0 0 132 32" fill="none" xmlns="http://www.w3.org/2000/svg">
<path d="M113.187 5.552C113.134 5.38132 113.107 5.18665 113.107 4.96799C113.107 4.776 113.134 4.58133 113.187 4.384C113.246 4.18665 113.336 4.01334 113.459 3.86398C113.539 3.76801 113.648 3.67734 113.787 3.59198C113.931 3.50665 114.107 3.46399 114.315 3.46399C114.523 3.46399 114.694 3.50665 114.827 3.59198C114.966 3.67734 115.078 3.78131 115.163 3.90399C115.243 4.02133 115.307 4.16266 115.355 4.328C115.408 4.48801 115.435 4.67734 115.435 4.896C115.435 5.09866 115.411 5.29865 115.363 5.496C115.315 5.69333 115.238 5.86667 115.131 6.01599C114.998 6.20267 114.854 6.32266 114.699 6.37598C114.55 6.42932 114.419 6.45599 114.307 6.45599C114.274 6.45599 114.24 6.45462 114.205 6.45184C114.184 6.4502 114.162 6.44806 114.141 6.44543L114.116 6.44232L114.099 6.44C114.024 6.42932 113.947 6.40799 113.867 6.37598C113.787 6.33865 113.707 6.29065 113.627 6.23199C113.547 6.168 113.472 6.08533 113.403 5.98398C113.318 5.86133 113.246 5.71732 113.187 5.552Z" fill="#00ABFF"/>
<path d="M118.414 3.552C118.542 3.49332 118.675 3.46399 118.814 3.46399C119.134 3.46399 119.387 3.56 119.574 3.75198C119.76 3.944 119.854 4.216 119.854 4.56799H117.774C117.774 4.41333 117.8 4.26932 117.854 4.13599C117.912 3.99731 117.99 3.88 118.086 3.784C118.182 3.68265 118.291 3.60532 118.414 3.552Z" fill="#00ABFF"/>
<path d="M126.248 6.37598C126.115 6.42932 125.968 6.45599 125.808 6.45599C125.536 6.45599 125.333 6.39734 125.2 6.28C125.072 6.16266 125.008 6.01599 125.008 5.84C125.008 5.78052 125.013 5.72379 125.024 5.6698C125.035 5.61728 125.051 5.56735 125.072 5.51999C125.12 5.41867 125.195 5.33331 125.296 5.26398C125.403 5.18933 125.541 5.13333 125.712 5.09598C125.888 5.05865 126.107 5.03998 126.368 5.03998H126.896V5.39999C126.896 5.55466 126.869 5.69598 126.816 5.82401C126.763 5.952 126.688 6.064 126.592 6.16C126.496 6.25067 126.381 6.32266 126.248 6.37598Z" fill="#00ABFF"/>
<path fill-rule="evenodd" clip-rule="evenodd" d="M132 0H108V9H132V0ZM113.107 0.903992H112.355V7H113.075V6.42398H113.091C113.166 6.52533 113.24 6.608 113.315 6.672C113.395 6.73599 113.486 6.79465 113.587 6.84799C113.613 6.86154 113.64 6.87448 113.667 6.88684C113.683 6.89417 113.699 6.90128 113.716 6.90814C113.736 6.91675 113.757 6.92502 113.778 6.93298C113.808 6.94415 113.839 6.95468 113.87 6.96457C113.91 6.97748 113.952 6.98929 113.995 7C114.15 7.04266 114.312 7.064 114.483 7.064C114.664 7.064 114.827 7.04266 114.971 7C115.115 6.95734 115.243 6.90134 115.355 6.832C115.467 6.76266 115.563 6.68799 115.643 6.608C115.723 6.52264 115.79 6.44 115.843 6.35999C115.987 6.14667 116.088 5.90665 116.147 5.63998C116.206 5.37332 116.235 5.12265 116.235 4.888C116.235 4.63733 116.2 4.38931 116.131 4.14398C116.067 3.89865 115.96 3.67999 115.811 3.48801C115.688 3.328 115.518 3.18399 115.299 3.056C115.08 2.92267 114.792 2.85599 114.435 2.85599C114.131 2.85599 113.851 2.92267 113.595 3.056C113.488 3.11465 113.398 3.18134 113.323 3.25598C113.271 3.3038 113.224 3.35416 113.18 3.40704C113.16 3.43085 113.141 3.45517 113.123 3.47998H113.107V0.903992ZM118.19 6.91998C118.446 7.01599 118.734 7.064 119.054 7.064C119.235 7.064 119.392 7.056 119.526 7.03998C119.556 7.03644 119.586 7.03265 119.615 7.02863L119.628 7.02673L119.656 7.02255C119.683 7.01834 119.71 7.01389 119.735 7.00916C119.789 6.99921 119.839 6.98816 119.886 6.97598C119.992 6.94931 120.083 6.92267 120.158 6.896C120.238 6.86398 120.31 6.832 120.374 6.79999V6.048C120.219 6.15466 120.032 6.25067 119.814 6.336C119.6 6.41599 119.374 6.45599 119.134 6.45599C118.712 6.45599 118.387 6.33331 118.158 6.08798C117.928 5.83731 117.8 5.51733 117.774 5.12799H120.654V4.91998C120.654 4.22131 120.491 3.70398 120.166 3.36798C119.846 3.02667 119.395 2.85599 118.814 2.85599C118.552 2.85599 118.31 2.90399 118.086 3C117.862 3.09598 117.667 3.23465 117.502 3.41599C117.336 3.59732 117.206 3.81866 117.11 4.07999C117.019 4.336 116.974 4.62399 116.974 4.944C116.974 5.27466 117.022 5.57065 117.118 5.832C117.214 6.09332 117.352 6.31732 117.534 6.504C117.715 6.68533 117.934 6.82401 118.19 6.91998ZM122.692 1.73599V2.91998H123.82V3.52798H122.692V5.728C122.692 5.80267 122.703 5.888 122.724 5.98398C122.746 6.07999 122.794 6.17065 122.868 6.25598C122.911 6.30399 122.972 6.34933 123.052 6.392C123.132 6.43466 123.234 6.45599 123.356 6.45599C123.522 6.45599 123.682 6.40799 123.836 6.31198V6.952C123.623 7.02667 123.402 7.064 123.172 7.064C123.018 7.064 122.86 7.04266 122.7 7C122.54 6.95734 122.404 6.888 122.292 6.79199C122.138 6.664 122.039 6.51733 121.996 6.35199C121.959 6.18134 121.94 6.02399 121.94 5.88V3.52798H121.052V2.91998H121.94V1.97598L122.692 1.73599ZM124.568 6.728C124.813 6.952 125.168 7.064 125.632 7.064C125.867 7.064 126.104 7.01865 126.344 6.92798C126.584 6.83731 126.789 6.67465 126.96 6.44H126.976V7H127.648V4.51999C127.648 3.92798 127.52 3.504 127.264 3.24799C127.013 2.98666 126.608 2.85599 126.048 2.85599C125.845 2.85599 125.621 2.88531 125.376 2.944C125.136 2.99731 124.904 3.08533 124.68 3.20798V3.86398C124.92 3.70932 125.147 3.60532 125.36 3.552C125.579 3.49332 125.808 3.46399 126.048 3.46399C126.613 3.46399 126.896 3.73599 126.896 4.28V4.47998H126.368C125.968 4.47998 125.629 4.51465 125.352 4.58398C125.08 4.64798 124.859 4.74133 124.688 4.86398C124.517 4.98132 124.395 5.12534 124.32 5.29599C124.245 5.46133 124.208 5.64267 124.208 5.84C124.208 6.20798 124.328 6.504 124.568 6.728Z" fill="#00ABFF"/>
<path fill-rule="evenodd" clip-rule="evenodd" d="M101.573 16.9306H101.608V17.996H104V8.67395H101.608V9.73941H101.573C101.149 9.11933 100.143 8.53 99.1296 8.53C96.4739 8.53 94.7491 10.2217 94.7491 13.3352C94.7491 16.4483 96.4739 18.14 99.1296 18.14C100.143 18.14 101.074 17.588 101.573 16.9306ZM99.4633 10.2939C98.4262 10.2939 97.1966 11.1756 97.1966 13.3352C97.1966 15.4944 98.4262 16.3765 99.4633 16.3765C100.497 16.3765 101.73 15.4944 101.73 13.3352C101.73 11.1756 100.497 10.2939 99.4633 10.2939Z" fill="#29303D"/>
<path fill-rule="evenodd" clip-rule="evenodd" d="M10.2091 30.088C9.76903 30.088 9.37299 30.022 9.02096 29.89C8.66892 29.758 8.36823 29.5673 8.11887 29.318C7.86951 29.0613 7.67883 28.7533 7.54681 28.394C7.4148 28.0347 7.34879 27.6277 7.34879 27.173C7.34879 26.733 7.41113 26.337 7.53581 25.985C7.66783 25.6257 7.84751 25.3213 8.07487 25.072C8.30222 24.8227 8.56992 24.632 8.87795 24.5C9.18598 24.368 9.51968 24.302 9.87904 24.302C10.6785 24.302 11.2982 24.5367 11.7382 25.006C12.1856 25.468 12.4093 26.1793 12.4093 27.14V27.426H8.4489C8.48557 27.9613 8.66159 28.4013 8.97696 28.746C9.29232 29.0833 9.7397 29.252 10.3191 29.252C10.6491 29.252 10.9608 29.197 11.2542 29.087C11.5549 28.9697 11.8116 28.8377 12.0243 28.691V29.725C11.9362 29.769 11.8372 29.813 11.7272 29.857C11.6245 29.8937 11.4999 29.9303 11.3532 29.967C11.2138 30.0037 11.0488 30.033 10.8581 30.055C10.6748 30.077 10.4584 30.088 10.2091 30.088ZM9.87904 25.138C9.68836 25.138 9.50501 25.1783 9.32899 25.259C9.16031 25.3323 9.00996 25.4387 8.87795 25.578C8.74593 25.71 8.63959 25.8713 8.55891 26.062C8.48557 26.2453 8.4489 26.4433 8.4489 26.656H11.3092C11.3092 26.172 11.1808 25.798 10.9241 25.534C10.6675 25.27 10.3191 25.138 9.87904 25.138Z" fill="#29303D"/>
<path d="M1.46383 26.667H4.32411V24.39H5.35822V30H4.32411V27.503H1.46383V30H0.42973V24.39H1.46383V26.667Z" fill="#29303D"/>
<path fill-rule="evenodd" clip-rule="evenodd" d="M18.8263 29.164V24.39H15.0419L15.0199 25.336C15.0052 25.842 14.9869 26.2857 14.9649 26.667C14.9429 27.0483 14.9025 27.3857 14.8439 27.679C14.7852 27.9723 14.7045 28.24 14.6018 28.482C14.5065 28.7167 14.3782 28.944 14.2168 29.164H13.6448V31.584H14.6348V30H18.6282V31.584H19.6183V29.164H18.8263ZM17.7922 25.226V29.164H15.1299C15.2986 28.9367 15.4306 28.702 15.5259 28.46C15.6286 28.218 15.7056 27.9577 15.757 27.679C15.8156 27.4003 15.856 27.096 15.878 26.766C15.9 26.436 15.9183 26.0693 15.933 25.666L15.944 25.226H17.7922Z" fill="#29303D"/>
<path fill-rule="evenodd" clip-rule="evenodd" d="M21.2347 24.39H23.3249C23.721 24.39 24.0583 24.4267 24.337 24.5C24.6157 24.5733 24.8431 24.6797 25.0191 24.819C25.1951 24.951 25.3234 25.1123 25.4041 25.303C25.4848 25.4937 25.5251 25.7063 25.5251 25.941C25.5251 26.183 25.4518 26.3993 25.3051 26.59C25.1584 26.7807 24.9421 26.9347 24.656 27.052C25.0154 27.1693 25.2868 27.3417 25.4701 27.569C25.6535 27.789 25.7452 28.0457 25.7452 28.339C25.7452 28.845 25.5655 29.2483 25.2061 29.549C24.8467 29.8497 24.293 30 23.5449 30H21.2347V24.39ZM22.2688 27.492V29.186H23.5449C23.919 29.186 24.1903 29.109 24.359 28.955C24.535 28.801 24.623 28.5957 24.623 28.339C24.623 28.0823 24.535 27.877 24.359 27.723C24.1903 27.569 23.919 27.492 23.5449 27.492H22.2688ZM22.2688 25.204V26.678H23.3249C23.699 26.678 23.9703 26.6083 24.139 26.469C24.315 26.3223 24.403 26.1463 24.403 25.941C24.403 25.7357 24.315 25.5633 24.139 25.424C23.9703 25.2773 23.699 25.204 23.3249 25.204H22.2688Z" fill="#29303D"/>
<path d="M27.8295 24.39V30H29.1386L31.8559 25.6H31.8779V30H32.912V24.39H31.6029L28.8856 28.79H28.8636V24.39H27.8295Z" fill="#29303D"/>
<path d="M39.0684 26.854H39.1454L40.9936 24.39H42.2477L40.1245 27.063L42.5667 30H41.2466L39.1454 27.305H39.0684V30H38.0343V27.305H37.9573L35.8561 30H34.5359L36.9782 27.063L34.855 24.39H36.1091L37.9573 26.854H38.0343V24.39H39.0684V26.854Z" fill="#29303D"/>
<path d="M44.1883 24.39V30H45.4975L48.2147 25.6H48.2367V30H49.2708V24.39H47.9617L45.2444 28.79H45.2224V24.39H44.1883Z" fill="#29303D"/>
<path d="M51.6318 24.39H53.249L54.7342 27.58L56.2193 24.39H57.7925V30H56.7584V25.38H56.7364L55.2292 28.57H54.1951L52.688 25.38H52.666V30H51.6318V24.39Z" fill="#29303D"/>
<path fill-rule="evenodd" clip-rule="evenodd" d="M61.4808 29.879C61.8328 30.0183 62.2179 30.088 62.6359 30.088C63.054 30.088 63.439 30.0183 63.791 29.879C64.1431 29.7397 64.4438 29.5417 64.6931 29.285C64.9498 29.0283 65.1478 28.724 65.2872 28.372C65.4265 28.02 65.4962 27.6277 65.4962 27.195C65.4962 26.7697 65.4265 26.381 65.2872 26.029C65.1478 25.6697 64.9498 25.3617 64.6931 25.105C64.4438 24.8483 64.1431 24.6503 63.791 24.511C63.439 24.3717 63.054 24.302 62.6359 24.302C62.2179 24.302 61.8328 24.3717 61.4808 24.511C61.1288 24.6503 60.8244 24.8483 60.5677 25.105C60.3184 25.3617 60.124 25.6697 59.9847 26.029C59.8453 26.381 59.7756 26.7697 59.7756 27.195C59.7756 27.6277 59.8453 28.02 59.9847 28.372C60.124 28.724 60.3184 29.0283 60.5677 29.285C60.8244 29.5417 61.1288 29.7397 61.4808 29.879ZM63.318 29.109C63.1053 29.2043 62.8779 29.252 62.6359 29.252C62.3939 29.252 62.1665 29.2043 61.9539 29.109C61.7412 29.0137 61.5542 28.878 61.3928 28.702C61.2388 28.5187 61.1141 28.3023 61.0188 28.053C60.9234 27.7963 60.8757 27.5103 60.8757 27.195C60.8757 26.8797 60.9234 26.5973 61.0188 26.348C61.1141 26.0913 61.2388 25.875 61.3928 25.699C61.5542 25.5157 61.7412 25.3763 61.9539 25.281C62.1665 25.1857 62.3939 25.138 62.6359 25.138C62.8706 25.138 63.0943 25.1857 63.307 25.281C63.5197 25.3763 63.7067 25.5157 63.868 25.699C64.0294 25.875 64.1577 26.0913 64.2531 26.348C64.3484 26.5973 64.3961 26.8797 64.3961 27.195C64.3961 27.5103 64.3484 27.7963 64.2531 28.053C64.1577 28.3023 64.0294 28.5187 63.868 28.702C63.714 28.878 63.5307 29.0137 63.318 29.109Z" fill="#29303D"/>
<path d="M71.2921 25.457C71.2041 25.3983 71.0978 25.347 70.9731 25.303C70.8704 25.2663 70.7421 25.2297 70.5881 25.193C70.4414 25.1563 70.2727 25.138 70.082 25.138C69.5173 25.138 69.0626 25.3177 68.7179 25.677C68.3805 26.029 68.2118 26.535 68.2118 27.195C68.2118 27.855 68.3805 28.3647 68.7179 28.724C69.0626 29.076 69.5173 29.252 70.082 29.252C70.2727 29.252 70.4414 29.2373 70.5881 29.208C70.7421 29.1713 70.8704 29.1347 70.9731 29.098C71.0978 29.054 71.2041 28.999 71.2921 28.933V29.835C71.2041 29.8863 71.0941 29.9303 70.9621 29.967C70.8521 30.0037 70.7127 30.033 70.5441 30.055C70.3827 30.077 70.192 30.088 69.972 30.088C69.5466 30.088 69.1579 30.0183 68.8059 29.879C68.4612 29.7397 68.1605 29.5453 67.9038 29.296C67.6544 29.0393 67.4601 28.735 67.3207 28.383C67.1814 28.0237 67.1117 27.6277 67.1117 27.195C67.1117 26.7623 67.1814 26.37 67.3207 26.018C67.4601 25.6587 67.6544 25.3543 67.9038 25.105C68.1605 24.8483 68.4612 24.6503 68.8059 24.511C69.1579 24.3717 69.5466 24.302 69.972 24.302C70.192 24.302 70.3827 24.3167 70.5441 24.346C70.7127 24.368 70.8521 24.3973 70.9621 24.434C71.0941 24.4707 71.2041 24.511 71.2921 24.555V25.457Z" fill="#29303D"/>
<path d="M77.0357 25.226V24.39H72.1072V25.226H74.0544V30H75.0885V25.226H77.0357Z" fill="#29303D"/>
<path d="M78.6234 24.39H79.6575V28.79H79.6795L82.3967 24.39H83.7059V30H82.6718V25.6H82.6498L79.9325 30H78.6234V24.39Z" fill="#29303D"/>
<path d="M2.84428 18.144C2.38824 18.144 1.9802 18.114 1.62016 18.054C1.27213 18.006 0.978096 17.952 0.738073 17.892C0.450044 17.82 0.20402 17.73 0 17.622V15.786C0.240024 15.894 0.498049 15.99 0.774076 16.074C1.0141 16.146 1.27813 16.212 1.56615 16.272C1.86618 16.32 2.17221 16.344 2.48424 16.344C3.24032 16.344 3.85838 16.164 4.33843 15.804C4.81848 15.432 5.1065 14.832 5.20251 14.004H1.54815V12.312H5.14851C5.00449 11.604 4.69846 11.1 4.23042 10.8C3.77437 10.488 3.13231 10.332 2.30423 10.332C2.0162 10.332 1.74617 10.356 1.49415 10.404C1.24212 10.452 1.0201 10.506 0.828082 10.566C0.61206 10.638 0.40804 10.716 0.216021 10.8V8.96401C0.420041 8.88001 0.648064 8.80801 0.900089 8.74801C1.11611 8.68801 1.37414 8.64001 1.67417 8.60401C1.97419 8.55601 2.30423 8.53201 2.66426 8.53201C3.45634 8.53201 4.16441 8.64601 4.78847 8.87401C5.41253 9.10201 5.94059 9.43201 6.37263 9.86401C6.80467 10.284 7.1347 10.794 7.36273 11.394C7.59075 11.994 7.70476 12.666 7.70476 13.41C7.70476 14.118 7.59075 14.766 7.36273 15.354C7.1347 15.93 6.81067 16.428 6.39063 16.848C5.97059 17.256 5.46054 17.574 4.86048 17.802C4.26042 18.03 3.58835 18.144 2.84428 18.144Z" fill="#29303D"/>
<path d="M12.5583 8.67601V12.906H12.6483L15.6366 8.67601H18.3729L14.9165 13.086L18.8589 18H15.7806L12.6483 13.536H12.5583V18H10.1101V8.67601H12.5583Z" fill="#29303D"/>
<path fill-rule="evenodd" clip-rule="evenodd" d="M20.1814 11.268C19.9414 11.868 19.8214 12.558 19.8214 13.338C19.8214 14.118 19.9414 14.808 20.1814 15.408C20.4215 16.008 20.7515 16.512 21.1715 16.92C21.6036 17.316 22.1136 17.622 22.7017 17.838C23.2897 18.042 23.9318 18.144 24.6279 18.144C25.3239 18.144 25.966 18.042 26.5541 17.838C27.1421 17.622 27.6462 17.316 28.0662 16.92C28.4983 16.512 28.8343 16.008 29.0743 15.408C29.3143 14.808 29.4344 14.118 29.4344 13.338C29.4344 12.558 29.3143 11.868 29.0743 11.268C28.8343 10.668 28.4983 10.17 28.0662 9.77401C27.6462 9.36601 27.1421 9.06001 26.5541 8.85601C25.966 8.64001 25.3239 8.53201 24.6279 8.53201C23.9318 8.53201 23.2897 8.64001 22.7017 8.85601C22.1136 9.06001 21.6036 9.36601 21.1715 9.77401C20.7515 10.17 20.4215 10.668 20.1814 11.268ZM22.5757 14.724C22.4437 14.34 22.3777 13.878 22.3777 13.338C22.3777 12.798 22.4437 12.336 22.5757 11.952C22.7077 11.568 22.8817 11.256 23.0977 11.016C23.3138 10.764 23.5538 10.584 23.8178 10.476C24.0818 10.356 24.3519 10.296 24.6279 10.296C24.8919 10.296 25.1559 10.356 25.42 10.476C25.696 10.584 25.942 10.764 26.158 11.016C26.3741 11.256 26.5481 11.568 26.6801 11.952C26.8121 12.336 26.8781 12.798 26.8781 13.338C26.8781 13.878 26.8121 14.34 26.6801 14.724C26.5481 15.108 26.3741 15.426 26.158 15.678C25.942 15.918 25.696 16.098 25.42 16.218C25.1559 16.326 24.8919 16.38 24.6279 16.38C24.3519 16.38 24.0818 16.326 23.8178 16.218C23.5538 16.098 23.3138 15.918 23.0977 15.678C22.8817 15.426 22.7077 15.108 22.5757 14.724Z" fill="#29303D"/>
<path d="M36.1463 18.144C35.3182 18.144 34.5981 18.006 33.9861 17.73C33.374 17.454 32.864 17.088 32.4559 16.632C32.0599 16.164 31.7659 15.636 31.5738 15.048C31.3818 14.46 31.2858 13.86 31.2858 13.248C31.2858 12.624 31.3938 12.03 31.6098 11.466C31.8259 10.89 32.1439 10.386 32.5639 9.95401C32.984 9.52201 33.506 9.18001 34.1301 8.92801C34.7662 8.66401 35.4982 8.53201 36.3263 8.53201C36.6383 8.53201 36.9744 8.55001 37.3344 8.58601C37.6945 8.62201 38.0485 8.68801 38.3965 8.78401V10.602C38.1685 10.506 37.9225 10.434 37.6584 10.386C37.4064 10.326 37.1004 10.296 36.7404 10.296C36.3323 10.296 35.9483 10.368 35.5882 10.512C35.2402 10.656 34.9342 10.866 34.6702 11.142C34.4181 11.406 34.2141 11.73 34.0581 12.114C33.9141 12.486 33.8421 12.906 33.8421 13.374C33.8421 13.794 33.9021 14.19 34.0221 14.562C34.1541 14.922 34.3341 15.24 34.5621 15.516C34.8022 15.78 35.0902 15.99 35.4262 16.146C35.7623 16.302 36.1463 16.38 36.5783 16.38C37.2384 16.38 37.8925 16.242 38.5405 15.966V17.784C38.3125 17.856 37.9885 17.934 37.5684 18.018C37.1604 18.102 36.6864 18.144 36.1463 18.144Z" fill="#29303D"/>
<path d="M43.207 13.572V8.67601H40.7588V18H43.369L47.4914 11.43H47.5455L47.4734 13.176V18H49.9217V8.67601H47.1854L43.171 15.246H43.135L43.207 13.572Z" fill="#29303D"/>
<path d="M57.1765 18.144C56.3484 18.144 55.6283 18.006 55.0163 17.73C54.4042 17.454 53.8942 17.088 53.4861 16.632C53.0901 16.164 52.7961 15.636 52.604 15.048C52.412 14.46 52.316 13.86 52.316 13.248C52.316 12.624 52.424 12.03 52.64 11.466C52.8561 10.89 53.1741 10.386 53.5941 9.95401C54.0142 9.52201 54.5362 9.18001 55.1603 8.92801C55.7964 8.66401 56.5284 8.53201 57.3565 8.53201C57.6685 8.53201 58.0046 8.55001 58.3646 8.58601C58.7246 8.62201 59.0787 8.68801 59.4267 8.78401V10.602C59.1987 10.506 58.9527 10.434 58.6886 10.386C58.4366 10.326 58.1306 10.296 57.7706 10.296C57.3625 10.296 56.9785 10.368 56.6184 10.512C56.2704 10.656 55.9644 10.866 55.7003 11.142C55.4483 11.406 55.2443 11.73 55.0883 12.114C54.9443 12.486 54.8723 12.906 54.8723 13.374C54.8723 13.794 54.9323 14.19 55.0523 14.562C55.1843 14.922 55.3643 15.24 55.5923 15.516C55.8324 15.78 56.1204 15.99 56.4564 16.146C56.7925 16.302 57.1765 16.38 57.6085 16.38C58.2686 16.38 58.9227 16.242 59.5707 15.966V17.784C59.3427 17.856 59.0187 17.934 58.5986 18.018C58.1906 18.102 57.7166 18.144 57.1765 18.144Z" fill="#29303D"/>
<path d="M68.9039 10.476V8.67601H60.6231V10.476H63.5394V18H65.9876V10.476H68.9039Z" fill="#29303D"/>
<path fill-rule="evenodd" clip-rule="evenodd" d="M72.4217 14.076C72.4337 14.376 72.4997 14.664 72.6197 14.94C72.7397 15.216 72.9137 15.462 73.1417 15.678C73.3697 15.894 73.6518 16.068 73.9878 16.2C74.3358 16.32 74.7379 16.38 75.1939 16.38C75.734 16.38 76.244 16.326 76.7241 16.218C77.2041 16.098 77.6662 15.936 78.1102 15.732V17.568C77.6302 17.748 77.1141 17.892 76.5621 18C76.01 18.096 75.452 18.144 74.8879 18.144C74.1918 18.144 73.5378 18.048 72.9257 17.856C72.3136 17.664 71.7796 17.37 71.3235 16.974C70.8795 16.578 70.5255 16.08 70.2614 15.48C69.9974 14.88 69.8654 14.166 69.8654 13.338C69.8654 12.582 69.9854 11.91 70.2254 11.322C70.4775 10.722 70.8135 10.218 71.2335 9.81001C71.6536 9.39001 72.1396 9.07201 72.6917 8.85601C73.2557 8.64001 73.8498 8.53201 74.4739 8.53201C75.1819 8.53201 75.776 8.64001 76.256 8.85601C76.7481 9.06001 77.1501 9.32401 77.4621 9.64801C77.7862 9.97201 78.0322 10.332 78.2002 10.728C78.3802 11.112 78.5123 11.49 78.5963 11.862C78.6803 12.234 78.7283 12.57 78.7403 12.87C78.7643 13.17 78.7763 13.386 78.7763 13.518V14.076H72.4217ZM76.256 12.402C76.268 12.006 76.214 11.67 76.094 11.394C75.986 11.118 75.836 10.896 75.644 10.728C75.4519 10.548 75.2419 10.422 75.0139 10.35C74.7859 10.266 74.5579 10.224 74.3298 10.224C74.0538 10.224 73.8018 10.284 73.5738 10.404C73.3457 10.512 73.1477 10.662 72.9797 10.854C72.8117 11.046 72.6737 11.28 72.5657 11.556C72.4697 11.82 72.4217 12.102 72.4217 12.402H76.256Z" fill="#29303D"/>
<path d="M84.7486 8.67601H81.1843V18H83.6325V11.196H83.6685L85.5407 15.696H87.9889L89.8611 11.196H89.8971V18H92.3454V8.67601H88.889L86.8188 13.716L84.7486 8.67601Z" fill="#29303D"/>
</svg>
