<svg width="132" height="32" viewBox="0 0 132 32" fill="none" xmlns="http://www.w3.org/2000/svg">
<path d="M2.83402 18.9998C5.79359 18.9998 7.67695 17.0336 7.67695 14.0748C7.67695 10.9663 5.79359 9 2.65465 9C1.2197 9 0.215242 9.44943 0.215242 9.44943V11.3595C0.215242 11.3595 1.14796 10.8726 2.29591 10.8726C3.9461 10.8726 4.84294 11.4719 5.12993 12.9325H1.54257V14.6928H5.18374C4.98643 16.4156 3.96404 17.1272 2.47528 17.1272C1.2197 17.1272 0 16.5467 0 16.5467V18.4568C0 18.4568 1.04033 18.9998 2.83402 18.9998Z" fill="black"/>
<path fill-rule="evenodd" clip-rule="evenodd" d="M100.56 17.7415H100.523C100.004 18.4256 99.0351 19 97.9806 19C95.2174 19 93.4227 17.2397 93.4227 14.0002C93.4227 10.7604 95.2174 9 97.9806 9C99.0351 9 100.081 9.61325 100.523 10.2585H100.56V9.14979H103V18.8502H100.56V17.7415ZM95.9693 14.0002C95.9693 11.753 97.2487 10.8355 98.3278 10.8355C99.4029 10.8355 100.686 11.753 100.686 14.0002C100.686 16.247 99.4029 17.165 98.3278 17.165C97.2487 17.165 95.9693 16.247 95.9693 14.0002Z" fill="black"/>
<path d="M9.77679 9.15213V18.8523H12.2162V14.2082H12.3059L15.4269 18.8523H18.4941L14.5659 13.7401L18.0098 9.15213H15.2834L12.3059 13.5528H12.2162V9.15213H9.77679Z" fill="black"/>
<path fill-rule="evenodd" clip-rule="evenodd" d="M19.1562 13.9999C19.1562 17.2395 21.183 18.9998 23.9453 18.9998C26.7076 18.9998 28.7344 17.2395 28.7344 13.9999C28.7344 10.7603 26.7076 9 23.9453 9C21.183 9 19.1562 10.7603 19.1562 13.9999ZM21.7032 13.9999C21.7032 11.7528 22.8691 10.8352 23.9453 10.8352C25.0215 10.8352 26.1874 11.7528 26.1874 13.9999C26.1874 16.2471 25.0215 17.1646 23.9453 17.1646C22.8691 17.1646 21.7032 16.2471 21.7032 13.9999Z" fill="black"/>
<path d="M35.2861 18.9998C36.3444 18.9998 37.2233 18.7751 37.6717 18.6253V16.7339C37.0439 17.0148 36.3623 17.1646 35.7166 17.1646C34.0126 17.1646 32.9902 15.7976 32.9902 14.0374C32.9902 12.0898 34.2458 10.8352 35.878 10.8352C36.5955 10.8352 37.0798 10.9663 37.5282 11.1535V9.26217C36.8287 9.0749 36.0753 9 35.4655 9C32.1651 9 30.4432 11.3221 30.4432 13.9063C30.4432 16.4718 31.9678 18.9998 35.2861 18.9998Z" fill="black"/>
<path d="M40.326 9.15213V18.8523H42.9268L47.0344 12.0172H47.0882L47.0164 13.8337V18.8523H49.4558V9.15213H46.7294L42.7295 15.9872H42.6936L42.7654 14.2457V9.15213H40.326Z" fill="black"/>
<path d="M56.191 18.9998C57.2493 18.9998 58.1282 18.7751 58.5766 18.6253V16.7339C57.9488 17.0148 57.2672 17.1646 56.6215 17.1646C54.9175 17.1646 53.8951 15.7976 53.8951 14.0374C53.8951 12.0898 55.1507 10.8352 56.7829 10.8352C57.5004 10.8352 57.9847 10.9663 58.4331 11.1535V9.26217C57.7336 9.0749 56.9802 9 56.3704 9C53.07 9 51.3481 11.3221 51.3481 13.9063C51.3481 16.4718 52.8727 18.9998 56.191 18.9998Z" fill="black"/>
<path d="M60.012 9.15213V11.0247H62.9178V18.8523H65.3572V11.0247H68.263V9.15213H60.012Z" fill="black"/>
<path fill-rule="evenodd" clip-rule="evenodd" d="M78.0582 14.7677V14.1872C78.0582 13.3258 77.9864 9 73.7713 9C71.278 9 69.1794 10.8726 69.1794 13.9999C69.1794 17.4268 71.4036 18.9998 74.1838 18.9998C75.2959 18.9998 76.4438 18.7751 77.3945 18.4006V16.4905C76.5156 16.9025 75.5649 17.1646 74.4887 17.1646C72.6592 17.1646 71.7982 16.0036 71.7265 14.7677H78.0582ZM71.7265 13.0261C71.7444 11.7528 72.5516 10.7603 73.6278 10.7603C74.5246 10.7603 75.5829 11.397 75.547 13.0261H71.7265Z" fill="black"/>
<path d="M80.4135 18.8523H82.8529V11.7738H82.8888L84.7542 16.4554H87.1936L89.059 11.7738H89.0949V18.8523H91.5343V9.15213H88.0904L86.0277 14.3955L83.965 9.15213H80.4135V18.8523Z" fill="black"/>
<path fill-rule="evenodd" clip-rule="evenodd" d="M9.77091 30.4555C10.7644 30.4555 11.2391 30.2517 11.5923 30.0819V29.0176C11.1728 29.3233 10.5436 29.595 9.8813 29.595C8.72223 29.595 8.08198 28.8138 8.00471 27.7155H11.9787V27.4212C11.9787 25.4624 11.0404 24.5 9.43975 24.5C8.00471 24.5 6.90083 25.6322 6.90083 27.4551C6.90083 29.3233 8.00471 30.4555 9.77091 30.4555ZM9.43975 25.3605C10.3229 25.3605 10.8748 25.9266 10.8748 26.923H8.00471C8.00471 26.0398 8.66703 25.3605 9.43975 25.3605Z" fill="black"/>
<path d="M1.03765 24.5952H0V30.3696H1.03765V27.7994H3.90773V30.3696H4.94538V24.5952H3.90773V26.9389H1.03765V24.5952Z" fill="black"/>
<path fill-rule="evenodd" clip-rule="evenodd" d="M14.5666 24.5952L14.5445 25.5689C14.5004 27.6636 14.39 28.592 13.7387 29.5091H13.1647V32H14.1582V30.3696H18.1653V32H19.1588V29.5091H18.364V24.5952H14.5666ZM14.6549 29.5091C15.3283 28.5807 15.4166 27.5617 15.4608 25.9086L15.4718 25.4557H17.3263V29.5091H14.6549Z" fill="black"/>
<path fill-rule="evenodd" clip-rule="evenodd" d="M20.7291 30.3696H23.0472C24.5375 30.3696 25.255 29.6902 25.255 28.6599C25.255 28.0598 24.8797 27.573 24.1622 27.3352C24.7362 27.0974 25.0342 26.6898 25.0342 26.1917C25.0342 25.2179 24.4271 24.5952 22.8265 24.5952H20.7291V30.3696ZM23.0472 27.7881C23.7979 27.7881 24.129 28.1278 24.129 28.6599C24.129 29.1921 23.7979 29.5317 23.0472 29.5317H21.7667V27.7881H23.0472ZM22.8265 25.4331C23.5771 25.4331 23.9083 25.7727 23.9083 26.1917C23.9083 26.6106 23.5771 26.9502 22.8265 26.9502H21.7667V25.4331H22.8265Z" fill="black"/>
<path d="M28.5986 30.3696L31.3251 25.8407H31.3472V30.3696H32.3849V24.5952H31.0713L28.3447 29.1241H28.3226V24.5952H27.2849V30.3696H28.5986Z" fill="black"/>
<path d="M38.5214 24.5952H37.4838V27.1314H37.4065L35.552 24.5952H34.2936L36.424 27.3465L33.9734 30.3696H35.2981L37.4065 27.5956H37.4838V30.3696H38.5214V27.5956H38.5987L40.7071 30.3696H42.0318L39.5811 27.3465L41.7116 24.5952H40.4532L38.5987 27.1314H38.5214V24.5952Z" fill="black"/>
<path d="M44.9217 30.3696L47.6483 25.8407H47.6704V30.3696H48.708V24.5952H47.3944L44.6678 29.1241H44.6457V24.5952H43.6081V30.3696H44.9217Z" fill="black"/>
<path d="M51.0133 30.3696H52.0509V25.6142H52.073L53.5853 28.8977H54.623L56.1353 25.6142H56.1573V30.3696H57.195V24.5952H55.6165L54.1262 27.8787L52.636 24.5952H51.0133V30.3696Z" fill="black"/>
<path fill-rule="evenodd" clip-rule="evenodd" d="M62.0051 30.4555C63.6941 30.4555 64.8752 29.244 64.8752 27.4778C64.8752 25.7115 63.6941 24.5 62.0051 24.5C60.3162 24.5 59.1351 25.7115 59.1351 27.4778C59.1351 29.244 60.3162 30.4555 62.0051 30.4555ZM62.0051 29.595C61.0448 29.595 60.2389 28.7685 60.2389 27.4778C60.2389 26.187 61.0448 25.3605 62.0051 25.3605C62.9545 25.3605 63.7714 26.187 63.7714 27.4778C63.7714 28.7685 62.9655 29.595 62.0051 29.595Z" fill="black"/>
<path d="M70.6553 24.7604C70.6553 24.7604 70.2137 24.5 69.3306 24.5C67.6307 24.5 66.4606 25.7002 66.4606 27.4778C66.4606 29.2554 67.6307 30.4555 69.3306 30.4555C70.2137 30.4555 70.6553 30.1951 70.6553 30.1951V29.2667C70.6553 29.2667 70.2137 29.595 69.441 29.595C68.3151 29.595 67.5644 28.8251 67.5644 27.4778C67.5644 26.1304 68.3151 25.3605 69.441 25.3605C70.2137 25.3605 70.6553 25.6888 70.6553 25.6888V24.7604Z" fill="black"/>
<path d="M71.3974 24.5952V25.4557H73.3512V30.3696H74.3889V25.4557H76.3427V24.5952H71.3974Z" fill="black"/>
<path d="M79.2137 30.3696L81.9403 25.8407H81.9623V30.3696H83V24.5952H81.6864L78.9598 29.1241H78.9377V24.5952H77.9001V30.3696H79.2137Z" fill="black"/>
<path d="M113.059 3.9514C112.821 4.23955 112.721 4.65229 112.721 5.0261C112.721 5.44664 112.844 5.78151 113.005 6.01514C113.274 6.40453 113.634 6.47462 113.872 6.47462C114.087 6.47462 114.409 6.40453 114.662 6.04629C114.87 5.75815 114.954 5.3454 114.954 4.95601C114.954 4.53548 114.847 4.21618 114.693 3.99034C114.532 3.75671 114.279 3.56201 113.88 3.56201C113.481 3.56201 113.212 3.76449 113.059 3.9514Z" fill="#00ABFF"/>
<path d="M119.304 4.6345C119.304 3.94918 118.92 3.55979 118.306 3.55979C117.769 3.55979 117.309 4.02706 117.309 4.6345H119.304Z" fill="#00ABFF"/>
<path d="M124.468 5.87275C124.468 6.21541 124.721 6.4724 125.235 6.4724C125.841 6.4724 126.279 6.04408 126.279 5.44442V5.09398H125.772C124.775 5.09398 124.468 5.40549 124.468 5.87275Z" fill="#00ABFF"/>
<path fill-rule="evenodd" clip-rule="evenodd" d="M132 0H107V8.99919H132V0ZM112 7.00418H112.691V6.44347H112.706C112.844 6.63816 112.99 6.75498 113.182 6.85622C113.419 6.98082 113.711 7.06648 114.041 7.06648C114.739 7.06648 115.138 6.69267 115.345 6.38117C115.622 5.96842 115.721 5.39991 115.721 4.94823C115.721 4.46539 115.599 3.95919 115.315 3.58538C115.077 3.27387 114.678 2.97015 113.995 2.97015C113.703 2.97015 113.427 3.04024 113.189 3.16484C112.982 3.27387 112.844 3.42184 112.737 3.57759H112.721V1.06995H112V7.00418ZM118.536 7.06427C119.227 7.06427 119.557 6.92409 119.802 6.80727V6.07523C119.511 6.2855 119.073 6.4724 118.613 6.4724C117.807 6.4724 117.362 5.93505 117.309 5.17964H120.071V4.97716C120.071 3.62988 119.419 2.96793 118.306 2.96793C117.309 2.96793 116.541 3.7467 116.541 5.00052C116.541 6.2855 117.309 7.06427 118.536 7.06427ZM121.427 3.03591V2.11696L122.148 1.88333V3.03591H123.23V3.62778H122.148V5.7694C122.148 5.91736 122.171 6.11985 122.317 6.28339C122.401 6.37684 122.547 6.47808 122.785 6.47808C122.938 6.47808 123.099 6.43135 123.245 6.3379V6.96092C123.046 7.03101 122.823 7.06995 122.608 7.06995C122.309 7.06995 121.979 6.99207 121.764 6.80516C121.473 6.55596 121.427 6.19772 121.427 5.91737V3.62778H120.575V3.03591H121.427ZM125.066 7.06427C125.511 7.06427 126.018 6.90851 126.34 6.45683H126.355V7.00197H127V4.58777C127 3.43519 126.54 2.96793 125.465 2.96793C125.082 2.96793 124.575 3.06917 124.153 3.31059V3.94918C124.614 3.65325 125.005 3.55979 125.465 3.55979C126.01 3.55979 126.279 3.83237 126.279 4.35414V4.54884H125.772C124.238 4.54884 123.701 5.09398 123.701 5.87275C123.701 6.58922 124.184 7.06427 125.066 7.06427Z" fill="#00ABFF"/>
</svg>
