<svg width="176" height="40" viewBox="0 0 176 40" fill="none" xmlns="http://www.w3.org/2000/svg">
<path fill-rule="evenodd" clip-rule="evenodd" d="M12.1264 8.75733C12.7037 8.33508 13.3238 7.97462 13.9764 7.68187C15.3891 7.00733 17.6709 6.35278 20.5137 6.35278C20.6464 6.35278 20.7818 6.35369 20.9182 6.35642C23.3482 6.40187 26.2309 7.26096 27.9927 9.04551C28.2909 9.41915 28.4655 9.79369 28.53 10.081C29.9273 10.8082 30.7427 11.4901 31.1937 12.2828C31.3944 12.7085 31.4546 13.187 31.3655 13.6491C31.9464 13.9991 32.2282 14.3091 32.53 14.7101C32.7209 15.0391 32.8709 15.4101 32.9164 15.7464C32.9791 16.1837 33.0218 16.691 32.57 17.2855C33.0437 17.5301 33.4291 18.2091 33.4755 18.4991C33.7109 19.5746 33.0218 20.6319 32.1409 21.4491C31.1082 22.3728 28.8282 23.4755 26.98 23.9619C24.3911 24.6326 22.0059 25.0275 19.9182 25.3732C19.0604 25.5152 18.2527 25.6489 17.5018 25.7901C18.6618 26.0764 20.2309 26.4519 22.79 26.4519C28.2709 26.4519 33.1082 23.8064 33.1082 23.8064C33.1082 23.8064 33.0018 24.1391 32.8918 24.4482C29.41 26.6064 23.8864 27.5064 21.5191 27.3973C19.1327 27.2855 17.1127 26.9128 15.1346 26.2946C14.5337 26.4728 13.9309 26.6719 13.3518 26.9128C16.3627 28.3219 18.64 28.6319 21.1991 28.8282C23.82 29.0282 28.1655 28.3864 31.8173 27.0246C31.7354 27.1096 31.6731 27.2136 31.6118 27.3159C31.5445 27.4281 31.4785 27.5383 31.3891 27.6191C29.5182 28.6319 25.5637 29.6455 23.5637 29.7337C21.5837 29.8228 19.1773 29.7337 17.07 29.3355C15.2636 28.9637 13.7782 28.3864 12.2318 27.6864C11.9546 27.9019 11.8255 28.1701 11.7591 28.4791C17.8027 31.7164 23.4327 31.7819 29.8646 29.7337L29.2809 30.3064C22.2073 33.2592 16.6827 32.1119 12.4027 29.9973C12.373 29.984 12.3422 29.9706 12.3111 29.9571C12.187 29.9032 12.0563 29.8464 11.9546 29.7773C12.3637 30.4828 15.6291 32.9273 19.2837 33.2364C21.8018 33.4564 24.8746 33.0155 26.7018 32.2682L25.6273 32.8391C24.7446 33.281 22.4018 34.2955 19.1327 34.0737C14.77 33.7646 12.3173 31.7819 11.2209 30.7482C10.7046 30.261 10.47 29.7119 10.3191 29.0282C9.3291 28.5001 8.70547 27.9473 8.19183 27.1101C7.89001 26.6482 7.95365 26.0991 8.01729 25.6337L8.15092 25.241C7.67547 24.8855 7.18092 24.511 6.9882 24.1382C6.55547 23.3455 6.81638 22.6591 7.11638 22.1319C6.85729 21.8237 6.62001 21.5164 6.51638 21.2073C6.38638 20.8546 6.36547 20.4982 6.40547 20.1037C6.49274 19.4446 6.83729 18.8301 7.2891 18.2991C8.23274 17.1746 9.74183 16.2946 12.2964 15.4355C14.2492 14.7679 15.2955 14.5376 16.5488 14.2619C16.9116 14.182 17.2918 14.0983 17.7164 13.9991C18.5561 13.7999 19.4576 13.651 20.374 13.4996C21.8744 13.2518 23.4148 12.9973 24.7891 12.5046C18.6173 11.4046 12.2127 12.4164 6.9882 16.0928L7.33092 15.0582C12.0164 11.9301 17.1991 10.081 25.9709 11.6464C26.4437 11.3582 26.7227 11.0719 26.8537 10.5001C24.6591 9.68551 22.2746 9.39915 19.2 9.44187C16.4464 9.53096 11.4791 10.5846 8.81729 12.1973L9.63001 11.161C11.4791 10.0346 16.3155 8.56097 19.9518 8.49369C22.5082 8.42915 23.82 8.58097 26.8746 9.41915C26.611 8.92767 26.0499 8.66207 25.2212 8.26973C25.1639 8.24261 25.1053 8.21488 25.0455 8.18642C22.1027 6.84187 16.6182 6.70824 12.1264 8.75733ZM28.3555 11.161C28.2709 11.4701 27.9509 11.8446 27.7346 12.0873C28.4009 12.2637 29.0891 12.5246 29.7318 12.7701C29.6473 12.1528 28.96 11.5582 28.3555 11.161ZM27.3325 14.4917C27.6416 14.5879 27.9501 14.6839 28.2709 14.7737C28.2813 14.779 28.2929 14.7815 28.3046 14.781C28.5282 14.781 29.2646 14.0828 29.3918 13.891C28.6564 13.5619 27.7527 13.2291 26.7891 12.9664C26.3564 13.3201 25.8646 13.6264 25.1309 13.9155C25.9622 14.0651 26.649 14.2789 27.3325 14.4917ZM30.9164 14.7955C30.6791 15.0837 30.42 15.3237 30.1418 15.5446C30.2534 15.5991 30.3626 15.6497 30.4696 15.6993C30.7944 15.8497 31.0992 15.9908 31.3891 16.2055C31.6673 15.6546 31.4955 15.3019 30.9164 14.7955ZM12.913 16.8657C11.5888 17.2768 6.53104 18.8467 8.06456 21.0091C8.06556 21.0091 8.07097 21.0028 8.08136 20.9906C8.22256 20.8253 9.28245 19.5838 12.6409 18.5846C14.9953 17.8762 17.41 17.4256 19.8623 16.968C22.0678 16.5565 24.3037 16.1392 26.5537 15.5237C24.7037 15.0182 23.6682 14.7955 21.7164 15.0391C18.8782 15.3919 15.7373 16.0046 13.0509 16.8228C13.0111 16.8353 12.9649 16.8496 12.913 16.8657ZM15.5891 19.5319C14.3409 19.8182 10.9209 20.6319 9.24365 22.0873C9.56062 22.3543 9.80035 22.4815 10.0793 22.6295C10.2164 22.7023 10.3629 22.78 10.5327 22.8819C11.2209 22.4182 12.1673 21.9773 13.5673 21.6001C15.7809 20.9993 17.4993 20.7099 19.4503 20.3812C19.6369 20.3498 19.8257 20.318 20.0173 20.2855C22.1873 19.9491 26.2937 19.0691 28.5509 18.231C29.3055 17.9691 29.9909 17.6155 30.4846 17.1946C30.3337 17.0201 28.8718 16.2946 28.8282 16.361C27.9291 16.801 26.6391 17.2391 24.7891 17.7046C24.0773 17.889 22.8932 18.107 21.4289 18.3767C19.7532 18.6852 17.7107 19.0613 15.5891 19.5319ZM14.5955 23.1037C13.8455 23.2982 13.0709 23.541 12.3637 23.8501C13.0709 24.2255 13.8455 24.5564 14.6182 24.8655C16.1655 24.4028 16.9 24.2037 19.1327 23.8291C20.928 23.5029 22.7199 23.1586 24.5082 22.7964C27.9291 22.0437 32.9373 20.4128 31.6046 18.2991C31.537 18.3578 31.4694 18.412 31.402 18.4661C31.3189 18.5328 31.236 18.5994 31.1537 18.6737C30.1418 19.4637 28.53 20.1037 26.3164 20.701C23.7483 21.4135 21.5744 21.7824 19.4962 22.135C17.8519 22.414 16.2676 22.6828 14.5955 23.1037ZM8.51246 23.301C8.45681 23.2648 8.39974 23.2277 8.34001 23.1891C8.1682 23.5891 8.51547 24.0246 8.85729 24.2246C8.95079 24.1288 9.06217 24.0405 9.16945 23.9555C9.23323 23.905 9.29557 23.8556 9.35183 23.8064C9.01272 23.6267 8.77871 23.4744 8.51246 23.301ZM10.127 25.2159C10.6314 25.5179 11.1404 25.8124 11.6537 26.0991C12.0329 25.8602 12.4356 25.6607 12.8555 25.5037C12.6023 25.3867 12.3422 25.2706 12.0794 25.1533C11.6948 24.9816 11.3043 24.8073 10.9209 24.6237C10.6203 24.8208 10.3423 25.0179 10.127 25.2159ZM10.6247 26.9138C10.2709 26.7212 9.91862 26.5294 9.56638 26.2946C9.54365 26.7146 9.80365 27.0891 10.3418 27.5528C10.4046 27.3301 10.5136 27.1564 10.6646 26.9355L10.6247 26.9138Z" fill="#0D356C"/>
<path fill-rule="evenodd" clip-rule="evenodd" d="M0.727051 19.89C0.727051 9.22275 9.1916 0.554565 19.6052 0.554565C29.9961 0.554565 38.4589 9.22184 38.4589 19.8891C38.4589 30.5346 29.9952 39.2018 19.6043 39.2018C9.1925 39.2028 0.727051 30.5337 0.727051 19.89ZM1.67069 19.89C1.67069 30.0037 9.71614 38.2364 19.6052 38.2364C29.4752 38.2364 37.5152 30 37.5152 19.89C37.5152 9.76002 29.4789 1.52184 19.6052 1.52184C9.7116 1.52184 1.67069 9.75729 1.67069 19.89Z" fill="#0D356C"/>
<path d="M163.743 11.4855H167.399L167.377 17.39H168.171L170.257 11.4855H174.214L171.374 19.2873L174.623 27.9218H170.343L168.237 21.3127H167.377L167.399 27.9218H163.743V11.4855Z" fill="#0D356C"/>
<path d="M151.427 11.4855H155.06V17.4136H157.661V11.4864H161.293V27.9218H157.661V21.3346H155.06V27.9218H151.426L151.427 11.4855Z" fill="#0D356C"/>
<path fill-rule="evenodd" clip-rule="evenodd" d="M138.764 27.9436H142.547L143 25.1018H145.598L146.052 27.9436H149.834L146.653 11.51H141.965L138.764 27.9436ZM144.309 16.4864L144.997 21.4882H143.599L144.309 16.4864Z" fill="#0D356C"/>
<path fill-rule="evenodd" clip-rule="evenodd" d="M128.614 27.9218H133.043C134.01 27.9218 138.031 27.5018 138.052 22.5218C138.052 18.3418 134.936 17.6127 132.915 17.6127H132.248V15.4309H137.172V11.4864H128.614V27.9218ZM132.248 24.6164V20.8946H132.785C133.236 20.8946 134.399 20.9155 134.399 22.6127C134.399 24.3327 133.236 24.6164 132.785 24.6164H132.248Z" fill="#0D356C"/>
<path d="M114.19 11.4855H117.351L120.142 15.3636L122.962 11.4855H126.1V27.9218H122.378V17.8973L120.142 20.7609L117.908 17.8973V27.9218H114.19V11.4855Z" fill="#0D356C"/>
<path fill-rule="evenodd" clip-rule="evenodd" d="M106.514 28.1209C110.921 28.1209 112.403 23.8891 112.403 19.6827C112.403 15.4764 110.921 11.2446 106.514 11.2446C102.106 11.2446 100.624 15.4764 100.624 19.6827C100.624 23.8891 102.106 28.1209 106.514 28.1209ZM106.514 24.1318C105.2 24.1318 104.536 22.57 104.536 19.6827C104.536 16.7955 105.2 15.2318 106.514 15.2318C107.827 15.2318 108.49 16.7955 108.49 19.6827C108.49 22.57 107.826 24.1318 106.514 24.1318Z" fill="#0D356C"/>
<path fill-rule="evenodd" clip-rule="evenodd" d="M89.8508 27.9218H93.5708V22.5036H94.819C98.4935 22.5036 99.6344 19.1091 99.6344 16.9473C99.6344 14.8336 98.3208 11.4855 94.819 11.4855H89.8508V27.9218ZM93.5708 15.0991H94.4526C95.2908 15.0991 95.829 15.6282 95.829 16.9936C95.829 18.7573 94.9244 18.8864 94.4526 18.8864H93.5708V15.0991Z" fill="#0D356C"/>
<path d="M77.5753 11.4855H87.7226V27.9218H84.0026V15.4518H81.2944V27.9218H77.5753V11.4855Z" fill="#0D356C"/>
<path d="M69.9426 17.8546C70.5435 17.8546 71.6417 17.4573 71.6417 16.2455C71.6417 14.8155 70.3735 14.7246 70.0063 14.7246C69.5772 14.7246 68.7608 14.7927 67.9644 15.1891L67.9226 11.6173C69.1899 11.2882 70.0935 11.1991 71.1672 11.1991C74.2217 11.1991 75.5763 13.3818 75.5763 15.5173C75.5763 17.59 74.4144 18.8427 73.2763 19.3282V19.4827C74.3726 19.8382 75.8335 20.9146 75.8335 23.4273C75.8335 26.5355 73.7281 28.2518 71.0181 28.2518C69.5772 28.2318 68.6308 28.0336 67.4908 27.3946L67.5572 23.9773C68.6099 24.4418 69.319 24.4846 70.0299 24.4846C71.2335 24.4846 71.7054 23.58 71.7054 22.9218C71.7054 21.9946 71.1254 21.3791 69.8572 21.3791H68.3517V17.8546H69.9426Z" fill="#0D356C"/>
<path fill-rule="evenodd" clip-rule="evenodd" d="M55.3254 27.9218H59.0863L59.5599 25.0782H62.1617L62.6126 27.9218H66.3735L63.1917 11.4855H58.5054L55.3254 27.9218ZM60.849 16.4436L61.5581 21.4673H60.139L60.849 16.4436Z" fill="#0D356C"/>
<path d="M48.1235 11.4855H55.7526V15.5827H51.9054V27.9218H48.1235V11.4855Z" fill="#0D356C"/>
</svg>
