<?xml version="1.0" standalone="no"?>
<!DOCTYPE svg PUBLIC "-//W3C//DTD SVG 1.1//EN" "http://www.w3.org/Graphics/SVG/1.1/DTD/svg11.dtd" >
<svg xmlns="http://www.w3.org/2000/svg" xmlns:xlink="http://www.w3.org/1999/xlink" version="1.1">
<metadata></metadata>
<defs>
<font id="gorditathin" horiz-adv-x="608" >
<font-face units-per-em="1000" ascent="754" descent="-246" />
<missing-glyph horiz-adv-x="284" />
<glyph horiz-adv-x="0" />
<glyph horiz-adv-x="333" />
<glyph unicode=" "  horiz-adv-x="284" />
<glyph unicode="&#x09;" horiz-adv-x="284" />
<glyph unicode="&#xa0;" horiz-adv-x="284" />
<glyph unicode="!" horiz-adv-x="230" d="M123 169h-16l-3 591h22zM88 19q0 17 13.5 24t27.5 0t13 -24q0 -17 -13.5 -24t-27 0t-13.5 24z" />
<glyph unicode="&#x22;" horiz-adv-x="302" d="M81 559l-5 168v11q0 17 11.5 17t11.5 -17v-11l-4 -168h-14zM209 559l-5 168v11q0 17 11.5 17t11.5 -17v-11l-4 -168h-14z" />
<glyph unicode="#" horiz-adv-x="766" d="M664 216h-143l-45 -216h-21l45 216h-295l-45 -216h-21l44 216h-143v20h147l59 289h-145v19h149l45 216h21l-44 -216h295l44 216h21l-43 -216h137v-19h-141l-60 -289h139v-20zM209 236h294l61 289h-296z" />
<glyph unicode="$" horiz-adv-x="582" d="M523 203q0 -89 -63 -148q-32 -28 -71 -43t-86 -16v-95h-20v95q-158 7 -228 189l19 10q33 -84 82.5 -129.5t126.5 -49.5v371l-51 14q-53 14 -86.5 34t-52.5 54.5t-19 83.5q0 82 61 139q61 56 148 60v92h20v-92q80 -3 134.5 -45t82.5 -113l-19 -10q-12 32 -29.5 57.5 t-41.5 45.5t-56.5 32t-70.5 14v-351l46 -13q82 -21 128 -68t46 -118zM239 419l44 -13v347q-76 -5 -132 -55q-56 -49 -56 -123q0 -63 34 -99t110 -57zM341 372l-38 10v-366q84 1 140 52q58 51 58 133q0 64 -42 107t-118 64z" />
<glyph unicode="%" horiz-adv-x="838" d="M330 475q-50 -49 -120 -49q-71 0 -122 49q-49 51 -49 122q0 70 49 120q51 50 122 50t120 -50q50 -49 50 -120t-50 -122zM159 0l494 760h24l-495 -760h-23zM315 703q-43 45 -105.5 45t-105.5 -45q-44 -43 -44 -106t44 -108q43 -44 105.5 -44t105.5 44q44 45 44 108 t-44 106zM749 45q-49 -51 -120 -51t-122 51q-49 51 -49 121q0 71 49 120q51 50 122 50q70 0 120 -50q50 -49 50 -120t-50 -121zM734 273q-43 44 -105.5 44t-105.5 -44q-44 -44 -44 -107t44 -108q43 -44 105.5 -44t105.5 44q44 45 44 108t-44 107z" />
<glyph unicode="&#x26;" horiz-adv-x="663" d="M632 0h-27l-107 116q-109 -123 -236 -123q-86 0 -146.5 45.5t-60.5 130.5q0 40 25 75q24 38 52 62q17 14 83 65l29 20l-49 53q-82 88 -82 158q0 68 48.5 116.5t123.5 48.5q79 0 127 -48t48 -116q0 -46 -28 -83t-88 -82l-69 -50l223 -242q65 87 107 194l19 -6 q-47 -114 -114 -201zM285 748q-63 0 -107 -41q-43 -39 -43 -102q0 -67 75 -147l51 -54l74 53q31 22 48 38q23 20 39 50t16 59q0 42 -19.5 75t-54.5 51t-79 18zM484 131l-226 245l-30 -22l-20 -14l-24 -18q-1 -1 -3 -2.5t-4.5 -3.5t-6 -5t-7.5 -5l-22 -20q-30 -30 -38 -43 q-26 -43 -26 -74q0 -75 54 -116q54 -40 131 -40q118 0 222 118z" />
<glyph unicode="'" horiz-adv-x="175" d="M81 559l-5 167v12q0 17 11.5 17t11.5 -17v-12l-4 -167h-14z" />
<glyph unicode="(" horiz-adv-x="383" d="M358 -101l-10 -14q-140 79 -216 200.5t-76 271.5v4q0 150 76 272t216 201l10 -14q-280 -164 -280 -459v-2q0 -294 280 -460z" />
<glyph unicode=")" horiz-adv-x="382" d="M25 820l10 14q140 -79 216 -200.5t76 -271.5v-4q0 -150 -76 -272.5t-216 -200.5l-10 14q281 164 281 460v2q0 293 -281 459z" />
<glyph unicode="*" horiz-adv-x="501" d="M264 553l113 -144l-16 -12l-111 149l-110 -149l-17 12l113 144l-180 56l7 20l180 -63l-3 194h21l-3 -194l180 63l7 -20z" />
<glyph unicode="+" horiz-adv-x="575" d="M280 374v224h21v-224h222v-19h-222v-228h-21v228h-227v19h227z" />
<glyph unicode="," horiz-adv-x="226" d="M113 -6q-12 0 -20 8t-8 19q0 5 1.5 9.5t4 8t6 6t7.5 3.5t9 1q13 0 22.5 -12t9.5 -30v-1q0 -60 -55 -103l-13 13q46 37 47 81q-4 -3 -11 -3z" />
<glyph unicode="-" horiz-adv-x="439" d="M362 317v-18h-284v18h284z" />
<glyph unicode="." horiz-adv-x="208" d="M78 21q0 12 8 20t19 8q7 0 13.5 -3.5t10 -10t3.5 -14.5q0 -7 -3.5 -13t-10 -10t-13.5 -4q-11 0 -19 8t-8 19z" />
<glyph unicode="/" horiz-adv-x="425" d="M362 790h22l-318 -795h-22z" />
<glyph unicode="0" horiz-adv-x="739" d="M370 -8q-74 0 -134.5 33.5t-98.5 89.5q-76 115 -76 264q0 98 32 184q34 85 105 145q73 60 172 60q73 0 133.5 -33t98.5 -91q76 -114 76 -264q0 -57 -12 -112t-37.5 -105t-61 -88t-86.5 -60.5t-111 -22.5zM369 748q-42 0 -79 -11.5t-65.5 -32t-52 -48.5t-40 -60.5 t-28 -68.5t-17 -72.5t-5.5 -72.5q0 -136 69 -247q35 -57 92.5 -90t128.5 -33q56 0 104.5 22t81 59t55.5 85t33.5 99t10.5 102q0 136 -69 246q-34 56 -91.5 89.5t-127.5 33.5z" />
<glyph unicode="1" horiz-adv-x="365" d="M252 760v-760h-21v733l-201 -128l-10 17l213 138h19z" />
<glyph unicode="2" horiz-adv-x="594" d="M56 0v19l283 265q92 88 130 144q40 59 40 122q0 84 -59 141t-149 57q-63 0 -118 -34q-70 -44 -98 -135l-20 9q22 76 85 128t152 52q102 0 165 -63q64 -62 64 -154q0 -69 -41 -129q-39 -60 -131 -146l-276 -257h453v-19h-480z" />
<glyph unicode="3" horiz-adv-x="591" d="M513 198q0 80 -60 130q-60 49 -161 49h-75v20h74q91 0 147 50q59 51 59 124q0 74 -57 124q-56 53 -148 53q-66 0 -117 -34q-67 -41 -98 -132l-20 9q22 75 85 126t151 51q100 0 163 -57q62 -56 62 -140q0 -62 -42 -113t-114 -69q80 -15 126.5 -68t46.5 -124 q0 -92 -69 -149q-70 -56 -173 -56q-90 0 -155 51q-64 49 -90 127l20 8q27 -79 91 -126q60 -40 133 -40q92 0 156 51q65 51 65 135z" />
<glyph unicode="4" horiz-adv-x="631" d="M473 193v-193h-21v193h-426v26l420 541h27v-548h124v-19h-124zM452 734l-405 -522h405v522z" />
<glyph unicode="5" horiz-adv-x="603" d="M294 -8q-89 0 -159 56q-69 55 -85 134l22 5q16 -79 79 -128q64 -47 144 -47q85 0 160 63q74 62 74 164q0 99 -69 159q-69 61 -160 61q-122 0 -196 -90l-24 8l64 383h371v-20h-354l-58 -348q76 86 197 86q108 0 179 -68t71 -171q0 -105 -77 -176q-75 -71 -179 -71z" />
<glyph unicode="6" horiz-adv-x="635" d="M582 247q0 -104 -75 -180q-74 -75 -180 -75q-92 0 -157 53q-64 53 -86 120q-21 62 -21 165q0 92 19 170t56 138.5t98.5 94.5t139.5 34q110 0 199 -89l-11 -15q-87 85 -189 85q-103 0 -172 -65q-119 -113 -119 -367h1q28 83 98 125q70 44 146 44q110 0 181 -70 q72 -70 72 -168zM327 466q-94 0 -164 -63t-70 -158q0 -98 68 -165.5t166 -67.5q96 0 165 69q69 72 69 165.5t-69 156.5t-165 63z" />
<glyph unicode="7" horiz-adv-x="542" d="M155 0h-24l364 740h-470v20h492v-22z" />
<glyph unicode="8" horiz-adv-x="637" d="M575 195q0 -96 -75 -149q-74 -54 -181 -54q-111 0 -184 54q-73 53 -73 149q0 69 50.5 123t141.5 73q-169 48 -169 183q0 89 71 141t164 52q91 0 162 -52q72 -53 72 -141q0 -41 -18 -76.5t-56.5 -63t-94.5 -42.5q94 -19 142 -76q48 -56 48 -121zM531 576q0 74 -62 123 q-62 50 -151 50q-87 0 -149 -50q-62 -49 -62 -124q-1 -53 33 -95.5t82.5 -62.5t96.5 -18q88 0 150 48q62 49 62 129zM554 194q0 82 -70 134.5t-166 52.5q-95 0 -166 -51q-69 -51 -69 -137q0 -85 69 -135q71 -48 167 -48q97 0 166 48q69 50 69 136z" />
<glyph unicode="9" horiz-adv-x="635" d="M52 513q0 105 75 180q74 75 180 75q93 0 157 -53q64 -51 86 -119q21 -63 21 -165q0 -92 -19 -170t-56 -138.5t-98 -95t-140 -34.5q-110 0 -199 89l12 16q87 -85 188 -85q103 0 173 65q118 112 118 366h-1q-27 -82 -98 -126q-71 -43 -145 -43q-112 0 -183 70t-71 168z M307 295q95 0 164 62q70 63 70 158q0 97 -69 166q-68 68 -164.5 68t-164.5 -71q-69 -70 -69 -164t69 -157q67 -62 164 -62z" />
<glyph unicode=":" horiz-adv-x="208" d="M105 525q16 0 23 -14t0 -28t-23 -14q-17 -1 -23.5 13.5t0 29t23.5 13.5zM78 21q0 12 8 20t19 8q7 0 13.5 -3.5t10 -10t3.5 -14.5q0 -7 -3.5 -13t-10 -10t-13.5 -4q-11 0 -19 8t-8 19z" />
<glyph unicode=";" horiz-adv-x="233" d="M124 525q13 0 20 -9t7 -19t-7 -19t-20 -9q-16 -1 -23 13.5t0 29t23 13.5zM117 -6q-11 0 -19 8t-8 19q0 13 8 20.5t19 7.5q14 0 23 -12t9 -30v-1q0 -60 -54 -103l-14 13q47 37 48 81q-4 -3 -12 -3z" />
<glyph unicode="&#x3c;" horiz-adv-x="626" d="M40 373l502 263v-21l-486 -252l486 -253v-22l-502 263v22z" />
<glyph unicode="=" horiz-adv-x="606" d="M526 489v-20h-445v20h445zM526 260v-19h-445v19h445z" />
<glyph unicode="&#x3e;" horiz-adv-x="625" d="M586 351l-503 -263v22l486 253l-486 252v21l503 -263v-22z" />
<glyph unicode="?" horiz-adv-x="469" d="M322 402q-61 -51 -83 -86q-23 -35 -25 -90l-1 -57h-17v58q0 59 21 95q22 36 73 79l30 26q43 35 63.5 71.5t20.5 86.5q0 67 -48.5 115.5t-121.5 48.5q-61 0 -111 -39.5t-71 -103.5l-19 10q24 70 78.5 110.5t122.5 40.5q84 0 138 -52q54 -53 54 -130q0 -56 -25 -98t-79 -85 zM233 21q1 -16 -13 -23t-28.5 0t-13.5 23q0 17 14 24t27.5 0t13.5 -24z" />
<glyph unicode="@" horiz-adv-x="845" d="M804 373q0 -85 -50 -165q-50 -81 -127 -81q-42 0 -60.5 28t-11.5 71h-2q-27 -46 -70.5 -72.5t-91.5 -26.5q-68 0 -112 48q-43 48 -43 114q0 83 55 146q57 63 142 63q52 0 92.5 -30.5t52.5 -82.5h1l19 109h20l-45 -267q-2 -10 -0.5 -23.5t5.5 -26.5t16.5 -22t33.5 -9 q45 0 82 40q36 38 55 88.5t19 97.5q0 136 -97 223q-96 88 -236 88q-154 0 -262.5 -111.5t-108.5 -264.5q0 -156 103 -259t262 -103q55 0 114 19.5t102 51.5l10 -16q-43 -34 -106 -54q-63 -21 -120 -21q-167 0 -276 108q-110 110 -110 274q0 162 115 278q114 117 276 117 q146 0 250 -92t104 -237zM570 343q0 57 -38 95q-40 40 -98 40q-76 0 -127 -56t-51 -133q0 -57 40 -100t99 -43q66 0 113 45q48 45 58 113l1 10q3 15 3 29z" />
<glyph unicode="A" horiz-adv-x="725" d="M695 0l-101 225h-463l-102 -225h-22l346 760h20l346 -760h-24zM363 732l-222 -488h443z" />
<glyph unicode="B" horiz-adv-x="700" d="M369 0h-256v760h247q134 0 199 -65q48 -50 48 -128q0 -44 -18.5 -81t-52 -61.5t-78.5 -34.5q82 -12 133 -64q52 -51 52 -126q0 -93 -70.5 -146.5t-203.5 -53.5zM358 740h-224v-343h242q101 0 155.5 46t54.5 124t-59.5 125.5t-168.5 47.5zM388 377h-254v-358h235 q119 0 186 47.5t67 131.5q0 83 -60.5 131t-173.5 48z" />
<glyph unicode="C" horiz-adv-x="809" d="M57 379q0 164 106 276q107 112 267 112q67 0 126 -21t100 -57q78 -67 108 -159l-19 -9q-29 83 -98 148q-25 24 -58.5 41.5t-74.5 27.5t-85 10q-152 0 -251 -109q-99 -107 -99 -258q0 -153 99 -262q100 -107 253 -107q43 0 84.5 10t74.5 27.5t58 40.5q70 66 99 151l19 -9 q-29 -88 -109 -161q-41 -37 -100.5 -58t-126.5 -21q-164 0 -268 112q-105 112 -105 275z" />
<glyph unicode="D" horiz-adv-x="766" d="M314 0h-201v760h202q180 0 292.5 -110t112.5 -271q0 -168 -114.5 -273.5t-291.5 -105.5zM314 740h-180v-721h181q165 0 274 102q109 103 109 257q0 155 -108 258q-110 104 -276 104z" />
<glyph unicode="E" horiz-adv-x="631" d="M134 397h400v-20h-400v-358h437v-19h-458v760h453v-20h-432v-343z" />
<glyph unicode="F" horiz-adv-x="600" d="M134 0h-21v760h449v-20h-428v-352h396v-19h-396v-369z" />
<glyph unicode="G" horiz-adv-x="829" d="M397 345h381v-20q0 -138 -98 -236q-97 -97 -250 -97q-161 0 -267 111q-106 110 -106 276q0 164 105 276q107 112 269 112q119 0 205 -64q86 -62 125 -164l-19 -8q-38 99 -119 158t-193 59q-154 0 -252 -108q-99 -106 -99 -259q0 -156 100.5 -262.5t250.5 -106.5 q136 0 232 86q96 87 96 225v3h-361v19z" />
<glyph unicode="H" horiz-adv-x="797" d="M134 760v-363h529v363h22v-760h-22v377h-529v-377h-21v760h21z" />
<glyph unicode="I" horiz-adv-x="246" d="M134 760v-760h-21v760h21z" />
<glyph unicode="J" horiz-adv-x="573" d="M271 -8q-139 0 -201 163l18 11q58 -154 181 -154q84 0 131.5 48.5t47.5 135.5v564h21v-564q0 -94 -53 -149t-145 -55z" />
<glyph unicode="K" horiz-adv-x="627" d="M113 760h21v-760h-21v760zM167 396l463 -396h-32l-464 396l440 364h33z" />
<glyph unicode="L" horiz-adv-x="559" d="M532 0h-419v760h21v-741h398v-19z" />
<glyph unicode="M" horiz-adv-x="997" d="M863 0v728l-355 -728h-19l-355 728v-728h-21v760h29l357 -733l357 733h29v-760h-22z" />
<glyph unicode="N" horiz-adv-x="823" d="M691 33v727h20v-760h-21l-557 728v-728h-20v760h21z" />
<glyph unicode="O" horiz-adv-x="860" d="M430 -8q-162 0 -268 112q-105 112 -105 275.5t105 275.5q107 112 268 112q162 0 267 -112q106 -112 106 -275q0 -164 -106 -275q-105 -113 -267 -113zM431 12q152 0 252 106q99 107 99 260.5t-101 261.5q-100 108 -252 108t-251 -107q-99 -106 -99 -260q0 -155 99 -262 q101 -107 253 -107z" />
<glyph unicode="P" horiz-adv-x="641" d="M320 319h-186v-319h-21v760h212q90 0 153 -27t94 -76t31 -116q0 -105 -74.5 -163.5t-208.5 -58.5zM323 740h-189v-401h187q126 0 193.5 54t67.5 146q0 95 -67.5 148t-191.5 53z" />
<glyph unicode="Q" horiz-adv-x="861" d="M810 10l-14 -16l-111 97q-103 -99 -255 -99q-162 0 -268 112q-105 112 -105 275.5t105 275.5q107 112 268 112q162 0 267 -112q106 -112 106 -275q0 -164 -104 -273zM431 12q141 0 238 94l-171 149l14 16l172 -151q98 107 98 258q0 154 -101 262q-100 108 -252 108 t-251 -107q-99 -106 -99 -260q0 -155 99 -262q101 -107 253 -107z" />
<glyph unicode="R" horiz-adv-x="670" d="M134 0h-21v760h227q131 0 201.5 -57t70.5 -157q0 -101 -77 -159q-75 -58 -205 -58h-196v-329zM337 740h-203v-392h196q121 0 191 53.5t70 142.5q0 92 -66 144t-188 52zM630 0h-27l-261 335l24 5z" />
<glyph unicode="S" horiz-adv-x="582" d="M296 -8q-169 0 -241 189l19 10q34 -88 87.5 -133.5t136.5 -45.5q84 0 144 51q59 51 59 134q0 64 -42 107t-118 64l-109 29q-53 14 -86.5 34t-52.5 54.5t-19 83.5q0 86 65 142q66 57 155 57q162 0 226 -158l-19 -10q-25 68 -77.5 108.5t-130.5 40.5t-138 -51.5t-60 -126.5 q0 -63 34 -99t110 -57l110 -30q82 -21 128 -68t46 -118q0 -92 -65 -150q-65 -57 -162 -57z" />
<glyph unicode="T" horiz-adv-x="592" d="M569 760v-20h-262v-740h-21v740h-263v20h546z" />
<glyph unicode="U" horiz-adv-x="754" d="M102 300v460h21v-460q0 -137 68 -213t187 -76q127 0 189 79q63 81 63 208v462h22v-459q0 -145 -71.5 -227.5t-203.5 -82.5q-133 0 -204 84t-71 225z" />
<glyph unicode="V" horiz-adv-x="726" d="M374 0h-22l-325 760h23l314 -734l313 734h22z" />
<glyph unicode="W" horiz-adv-x="1059" d="M793 0h-23l-240 721l-241 -721h-23l-234 760h22l224 -732l243 732h17l244 -732l224 732h21z" />
<glyph unicode="X" horiz-adv-x="668" d="M50 760l285 -356l284 356h26l-297 -373l309 -387h-27l-295 372l-296 -372h-27l309 387l-297 373h26z" />
<glyph unicode="Y" horiz-adv-x="676" d="M349 327v-327h-21v327l-298 433h25l285 -414l281 414h25z" />
<glyph unicode="Z" horiz-adv-x="594" d="M46 760h510v-20l-502 -721h504v-19h-528v19l502 721h-486v20z" />
<glyph unicode="[" horiz-adv-x="391" d="M356 -92v-17h-250v937h250v-16h-229v-904h229z" />
<glyph unicode="\" horiz-adv-x="425" d="M382 -5h-22l-318 795h22z" />
<glyph unicode="]" horiz-adv-x="391" d="M265 -92v904h-229v16h250v-937h-250v17h229z" />
<glyph unicode="^" horiz-adv-x="538" d="M479 437h-24l-186 304l-186 -304h-24l199 323h22z" />
<glyph unicode="_" horiz-adv-x="507" d="M0 -89h507v-19h-507v19z" />
<glyph unicode="`" horiz-adv-x="162" d="M150 606h-15l-121 167h30z" />
<glyph unicode="a" horiz-adv-x="546" d="M462 0h-21v127h-1q-27 -67 -84.5 -101.5t-129.5 -34.5q-76 0 -124 38.5t-48 105.5q0 71 59 107q61 37 143 37h185v49q0 85 -45 132t-129 47q-135 0 -188 -116l-18 9q27 58 79 92.5t127 34.5q90 0 142.5 -52t52.5 -147v-328zM441 211v50h-183q-41 0 -82 -11 q-27 -7 -49 -22.5t-36.5 -39.5t-14.5 -52q0 -59 42.5 -92t108.5 -33q89 0 151 55q63 56 63 145z" />
<glyph unicode="b" horiz-adv-x="649" d="M347 -8q-87 0 -149 48q-64 49 -85 122v-162h-21v790h21v-432q21 73 85 122q62 48 149 48q110 0 180 -80q71 -78 71 -188q0 -109 -70 -189q-70 -79 -181 -79zM576 258v1q0 104 -65 177q-64 72 -166 72q-104 0 -169 -74t-65 -173v-3q0 -98 66 -173q66 -73 168 -73 q104 0 167 70q64 72 64 176z" />
<glyph unicode="c" horiz-adv-x="586" d="M520 152l19 -8q-24 -70 -83.5 -111.5t-144.5 -41.5q-106 0 -183 77q-76 77 -76 191q0 112 75 190q76 78 185 78q83 0 143 -41t83 -110l-18 -7q-21 62 -75.5 100t-133.5 38q-99 0 -168 -72t-69 -175t69 -177q68 -72 169 -72q79 0 132 38t76 103z" />
<glyph unicode="d" horiz-adv-x="650" d="M53 258q0 110 70 190q71 80 181 80q87 0 149 -48q64 -49 85 -122v432h21v-790h-21v162q-21 -73 -85 -122q-62 -48 -149 -48q-111 0 -181 78.5t-70 187.5zM75 259v-1q0 -104 64 -176q65 -70 167 -70t167 73q67 75 67 173v3q0 98 -67 173q-66 74 -167 74q-102 0 -167 -72 q-64 -73 -64 -177z" />
<glyph unicode="e" horiz-adv-x="586" d="M537 261h-463v-1q0 -102 67 -177q68 -72 169 -72q63 0 115.5 30.5t78.5 80.5l18 -10q-21 -37 -53.5 -64t-73.5 -42t-86 -15q-110 0 -184 79q-73 78 -73 190v2q0 106 72 185q72 80 176 80q81 0 136 -39q100 -69 101 -227zM300 507q-89 0 -155.5 -68t-70.5 -160h442 q-2 44 -14.5 82.5t-37 72.5t-67 53.5t-97.5 19.5z" />
<glyph unicode="f" horiz-adv-x="316" d="M261 773q-51 0 -82 -32.5t-31 -90.5v-132h153v-18h-153v-500h-20v500h-102v18h102v133q0 64 35.5 102.5t97.5 38.5q25 0 46 -6v-20q-24 7 -46 7z" />
<glyph unicode="g" horiz-adv-x="650" d="M538 518h21v-511q0 -132 -72 -199q-71 -67 -182 -67q-92 0 -152 39t-98 119l18 10q37 -77 92 -113t139 -36q110 0 172 63.5t62 181.5v157q-21 -73 -85 -122q-62 -48 -149 -48q-111 0 -181 78.5t-70 187.5q0 110 70 190q71 80 181 80q87 0 149 -48q64 -49 85 -122v160z M540 258v3q0 98 -67 173q-66 74 -167 74q-102 0 -167 -72q-64 -73 -64 -177v-1q0 -104 64 -176q65 -70 167 -70t167 73q67 75 67 173z" />
<glyph unicode="h" horiz-adv-x="606" d="M92 790h21v-413q16 59 67 103q54 47 133 47q98 0 153.5 -59.5t55.5 -164.5v-303h-21v301q0 96 -50 150.5t-140 54.5q-81 0 -140 -62q-58 -61 -58 -150v-294h-21v790z" />
<glyph unicode="i" horiz-adv-x="200" d="M74 697q-1 17 13 24t27.5 0t12.5 -24q0 -12 -8.5 -19.5t-18.5 -7.5t-18 7.5t-8 19.5zM90 518h21v-518h-21v518z" />
<glyph unicode="j" horiz-adv-x="226" d="M153 697q0 -11 -7.5 -19.5t-18.5 -8.5q-8 0 -14 4t-9.5 10.5t-3.5 13.5q0 12 8 20t19 8t18.5 -8.5t7.5 -19.5zM-28 -237q12 -2 26 -2q42 0 69 15t38 38.5t11 56.5v647h21v-646q0 -131 -139 -131q-3 0 -26 2v20z" />
<glyph unicode="k" horiz-adv-x="489" d="M113 0h-21v790h21v-790zM113 283l323 235h34l-325 -236l339 -282h-31z" />
<glyph unicode="l" horiz-adv-x="204" d="M92 790h21v-790h-21v790z" />
<glyph unicode="m" horiz-adv-x="936" d="M852 0h-21v308q0 60 -21 105t-60 69.5t-90 24.5q-70 0 -125 -60q-53 -59 -53 -143v-304h-20v306q0 93 -47 147t-125 54q-67 0 -123 -60q-54 -60 -54 -144v-303h-21v518h21v-135q12 56 63 100t115 44q75 0 121.5 -41.5t62.5 -112.5q16 61 67 107.5t119 46.5 q92 0 141.5 -61.5t49.5 -155.5v-310z" />
<glyph unicode="n" horiz-adv-x="606" d="M92 518h21v-141q16 59 67 103q54 47 133 47q98 0 153.5 -59.5t55.5 -164.5v-303h-21v301q0 96 -50 150.5t-140 54.5q-81 0 -140 -62q-58 -61 -58 -150v-294h-21v518z" />
<glyph unicode="o" horiz-adv-x="634" d="M317 -9q-114 0 -189 77q-76 77 -76 191t76 191q77 77 190 77q116 0 189 -77q75 -78 75 -190q0 -114 -76 -191q-74 -78 -189 -78zM317 507q-106 0 -174.5 -71.5t-68.5 -175.5q0 -106 70 -178q71 -71 174 -71q105 0 174 71.5t69 176.5t-70 177q-69 71 -174 71z" />
<glyph unicode="p" horiz-adv-x="649" d="M347 -8q-87 0 -149 48q-64 49 -85 122v-417h-21v773h21v-160q21 73 85 122q62 48 149 48q110 0 180 -80q71 -78 71 -188q0 -109 -70 -189q-70 -79 -181 -79zM576 258v1q0 104 -65 177q-64 72 -166 72q-104 0 -169 -74t-65 -173v-3q0 -98 66 -173q66 -73 168 -73 q104 0 167 70q64 72 64 176z" />
<glyph unicode="q" horiz-adv-x="650" d="M53 258q0 110 70 190q71 80 181 80q87 0 149 -48q64 -49 85 -122v160h21v-773h-21v417q-21 -73 -85 -122q-62 -48 -149 -48q-111 0 -181 78.5t-70 187.5zM75 259v-1q0 -104 64 -176q65 -70 167 -70t167 73q67 75 67 173v3q0 98 -67 173q-66 74 -167 74q-102 0 -167 -72 q-64 -73 -64 -177z" />
<glyph unicode="r" horiz-adv-x="342" d="M92 518h21v-151q21 72 80 116t139 42v-20h-11q-98 0 -153 -70t-55 -171v-264h-21v518z" />
<glyph unicode="s" horiz-adv-x="464" d="M237 -9q-131 0 -189 122l17 9q29 -58 70.5 -84.5t102.5 -26.5q58 0 103 34q47 35 47 85q0 56 -38 80q-37 26 -123 45q-87 19 -125 47q-37 28 -37 88t53 98q54 39 117 39q121 0 170 -110l-17 -10q-47 101 -155 101q-53 0 -100 -34q-47 -33 -47 -83q0 -52 33 -77 q34 -23 115 -40q94 -21 134.5 -52t40.5 -91q0 -62 -53 -101q-52 -39 -119 -39z" />
<glyph unicode="t" horiz-adv-x="333" d="M296 19v-19q-13 -4 -38 -4q-71 0 -101 30.5t-30 100.5v373h-105v18h105v148h20v-148h149v-18h-149v-370q0 -62 24.5 -88t86.5 -26q25 0 38 3z" />
<glyph unicode="u" horiz-adv-x="606" d="M514 0h-20v141q-17 -59 -69 -104q-53 -46 -132 -46q-98 0 -153.5 59.5t-55.5 164.5v303h21v-301q0 -96 51 -151t139 -55q81 0 140 61q59 62 59 152v294h20v-518z" />
<glyph unicode="v" horiz-adv-x="539" d="M280 0h-21l-233 518h22l222 -497l221 497h22z" />
<glyph unicode="w" horiz-adv-x="830" d="M614 0h-20l-179 492l-174 -492h-22l-191 518h22l180 -493l175 493h21l179 -493l176 493h21z" />
<glyph unicode="x" horiz-adv-x="515" d="M468 0l-211 251l-211 -251h-25l223 264l-213 254h25l201 -242l202 242h24l-214 -254l224 -264h-25z" />
<glyph unicode="y" horiz-adv-x="557" d="M162 -255h-22l137 282l-253 491h23l241 -470l228 470h21z" />
<glyph unicode="z" horiz-adv-x="482" d="M440 518v-18l-377 -482h378v-18h-404v18l377 482h-368v18h394z" />
<glyph unicode="{" horiz-adv-x="390" d="M355 -89v-20h-16q-73 0 -117.5 14t-61.5 38.5t-20.5 58.5t5.5 75l17 109q12 81 -24 122.5t-105 41.5h-12v20h12q65 0 103 39q39 41 26 125l-17 108q-9 41 -5 75.5t20 59t60.5 38.5t118.5 13l16 -1v-18h-14q-86 0 -127.5 -18t-49 -55t2.5 -94l16 -106q3 -15 3.5 -30 t-1.5 -34.5t-9.5 -36t-19.5 -32t-33.5 -26.5t-49.5 -16v-1q34 -6 57.5 -22t34.5 -34.5t16 -42.5t4.5 -41.5t-3.5 -37.5l-16 -105q-10 -57 -2.5 -94t49.5 -54.5t128 -17.5h14z" />
<glyph unicode="|" horiz-adv-x="231" d="M106 864h20v-977h-20v977z" />
<glyph unicode="}" horiz-adv-x="391" d="M36 -109v20h13q87 0 128.5 17.5t49.5 54.5t-2 94l-16 105q-4 19 -4 37.5t5 42t16.5 42t35 34.5t57.5 22v1q-34 6 -58 21t-35.5 33.5t-16.5 42t-4.5 41.5t3.5 37l16 106q10 57 2.5 94t-49.5 55t-128 18h-13v18l17 1q73 1 117.5 -13t61 -38.5t20 -59t-5.5 -75.5l-17 -108 q-13 -83 25 -125q40 -39 104 -39h12v-20h-12q-65 0 -104 -41q-38 -39 -25 -123l17 -109q9 -41 5.5 -75t-20 -58.5t-60.5 -38.5t-118 -14h-17z" />
<glyph unicode="~" horiz-adv-x="584" d="M403 225q-18 0 -31.5 3.5t-27 13t-26 22t-29.5 34.5q-18 23 -34 39q-13 14 -33 24.5t-40 10.5q-86 0 -91 -145h-15q0 78 28 120.5t78 42.5q22 0 40.5 -7.5t39 -26t46.5 -51.5q47 -61 95 -61q86 0 91 144h15q0 -78 -28 -120.5t-78 -42.5z" />
<glyph unicode="&#xa1;" horiz-adv-x="205" d="M129 500q0 -17 -13.5 -24t-27 0t-12.5 24q0 16 13 23t26.5 0t13.5 -23zM94 350h17l2 -591h-22z" />
<glyph unicode="&#xa2;" horiz-adv-x="586" d="M520 152l19 -8q-24 -68 -81 -109.5t-138 -43.5v-90h-19v90q-104 5 -177 81q-72 76 -72 187q0 109 72 186q71 77 177 82v91h19v-91q81 -2 138.5 -42.5t79.5 -108.5l-18 -7q-20 61 -72 98.5t-128 39.5v-496q74 2 126 40t74 101zM301 11v496q-95 -4 -161 -76t-66 -171 q0 -100 65 -173q22 -24 47 -40.5t53.5 -25.5t61.5 -10z" />
<glyph unicode="&#xa3;" horiz-adv-x="595" d="M541 108l16 -11q-23 -50 -64.5 -79t-93.5 -29q-39 0 -96.5 25.5t-92.5 25.5q-45 0 -131 -40l-12 22q79 53 117.5 106t38.5 119q0 44 -35 109h-129v19h118l-13 22l-14 23q-19 35 -24 46q-2 4 -8.5 22t-8.5 25q-6 29 -6 49q0 78 63 142q64 64 156 64q80 0 135.5 -40.5 t76.5 -105.5l-20 -10q-18 61 -69 99t-122 38q-81 0 -140 -56.5t-59 -130.5q0 -38 18 -77q2 -5 7.5 -17t8.5 -17l22 -40l21 -36h217v-19h-207q33 -63 33 -108q0 -119 -126 -210v-1q55 22 96 22q33 0 93 -25q63 -25 94 -25q92 0 140 99z" />
<glyph unicode="&#xa4;" horiz-adv-x="648" d="M75 -2l-15 15l97 96q-59 62 -59 152q0 92 59 155l-96 96l15 14l96 -96q60 56 153 56q91 0 153 -56l96 96l14 -14l-95 -96q58 -64 58 -151q0 -90 -59 -155l97 -97l-15 -15l-97 98q-62 -56 -153 -56q-90 0 -152 55zM118 264q0 -87 59 -147q59 -59 148 -59t146 59 q59 60 59 145q0 86 -60 145q-60 61 -147 61q-89 0 -146 -60q-59 -59 -59 -144z" />
<glyph unicode="&#xa5;" horiz-adv-x="671" d="M633 760l-281 -409h225v-19h-231v-152h231v-19h-231v-161h-21v161h-230v19h230v152h-230v19h224l-281 409h25l274 -398l272 398h24z" />
<glyph unicode="&#xa6;" horiz-adv-x="227" d="M124 864v-378h-20v378h20zM104 266h20v-379h-20v379z" />
<glyph unicode="&#xa7;" horiz-adv-x="615" d="M366 505q104 -22 156.5 -54.5t52.5 -84.5q0 -54 -54 -91q-55 -36 -149 -33v-1q133 -37 133 -123q0 -36 -21.5 -64.5t-63 -45t-98.5 -16.5q-81 0 -136 40t-83 111l18 10q57 -141 202 -141q74 0 117 29t43 77q0 34 -24 57.5t-72 41.5t-133 36q-76 17 -122 37.5t-66.5 46 t-20.5 59.5q0 51 53 87q54 37 147 34v1q-63 15 -97.5 47.5t-34.5 75.5q0 54 56 90q56 37 130 37t125 -38t77 -102l-19 -10q-24 61 -70 96t-115 35q-67 0 -115 -33q-47 -32 -47 -75q-6 -51 72 -91q14 -7 49 -18l51 -14q5 -1 15 -3.5t21.5 -4.5t22.5 -5zM362 485 q-68 16 -129 16q-69 0 -119 -30q-48 -29 -48 -73t45 -73t147 -51q72 -16 129 -16q70 0 117 30q50 31 50 76q0 41 -45.5 69.5t-146.5 51.5z" />
<glyph unicode="&#xa8;" horiz-adv-x="233" d="M16 697q-1 17 13 24t27.5 0t12.5 -24q0 -12 -8.5 -19.5t-18.5 -7.5t-18 7.5t-8 19.5zM168 697q0 13 8.5 20t18.5 7t18.5 -7t8.5 -20q0 -12 -8.5 -19.5t-18.5 -7.5t-18.5 7.5t-8.5 19.5z" />
<glyph unicode="&#xa9;" horiz-adv-x="878" d="M821 380q0 -159 -113 -273q-112 -114 -269.5 -114t-269.5 114q-111 113 -111 273q0 162 111 274q112 113 269.5 113t269.5 -113q113 -113 113 -274zM798 380q0 154 -105 260q-105 108 -254.5 108t-254 -107.5t-104.5 -260.5t104 -259q106 -106 254 -106q150 0 256 106 q104 106 104 259zM447 143q-95 0 -163 67q-67 69 -67 170t67 169q68 69 164 69q74 0 126.5 -36.5t74.5 -98.5l-19 -8q-18 56 -66 89.5t-117 33.5q-87 0 -148 -64q-60 -63 -60 -153t60 -155q61 -64 149 -64q46 0 83 16t61.5 43.5t37.5 65.5l19 -9q-21 -62 -74 -98.5 t-128 -36.5z" />
<glyph unicode="&#xaa;" horiz-adv-x="544" d="M424 736h18v-362h-18v109h-1q-16 -51 -59 -82.5t-100 -31.5q-77 0 -126 55q-49 56 -49 131q0 76 49.5 131.5t125.5 55.5q57 0 100 -31.5t59 -82.5h1v108zM425 555v2q0 65 -45.5 116.5t-113.5 51.5q-70 0 -113.5 -49.5t-43.5 -120.5t43 -120q46 -49 114 -49q69 0 113 50 q46 52 46 119zM442 230h-350v17h350v-17z" />
<glyph unicode="&#xab;" horiz-adv-x="518" d="M229 120l-178 172l178 172l13 -13l-164 -159l164 -159zM429 120l-177 172l177 172l13 -13l-164 -159l164 -159z" />
<glyph unicode="&#xac;" horiz-adv-x="635" d="M529 261v216h-461v19h481v-235h-20z" />
<glyph unicode="&#xad;" horiz-adv-x="439" d="M362 317v-18h-284v18h284z" />
<glyph unicode="&#xae;" horiz-adv-x="606" d="M303 267q-102 0 -175 73q-72 74 -72 177t72 177q72 73 175 73t174 -73q73 -73 73 -177q0 -103 -73 -177q-71 -73 -174 -73zM303 286q94 0 159 68q66 69 66 163t-66 163q-65 68 -159 68t-159 -68q-66 -69 -66 -163t66 -163q65 -68 159 -68zM329 495l85 -123h-23l-84 122 h-72v-122h-20v289h99q49 0 74.5 -22.5t25.5 -59.5q0 -35 -22.5 -57t-62.5 -27zM395 578q0 29 -21.5 47t-62.5 18h-76v-132h76q40 0 62 19t22 48z" />
<glyph unicode="&#xaf;" horiz-adv-x="360" d="M19 630v19h322v-19h-322z" />
<glyph unicode="&#xb0;" horiz-adv-x="452" d="M57 598q0 69 50 119q49 50 119 50t119 -50q50 -50 50 -119q0 -71 -49.5 -120.5t-119.5 -49.5t-119.5 49.5t-49.5 120.5zM78 598q0 -63 42 -108q44 -44 106 -44q63 0 105 44q43 45 43 108q0 62 -43 105q-42 45 -105 45t-106 -45q-42 -44 -42 -105z" />
<glyph unicode="&#xb1;" horiz-adv-x="618" d="M302 383v215h20v-215h217v-19h-217v-227h-20v227h-222v19h222zM83 0v19h452v-19h-452z" />
<glyph unicode="&#xb2;" horiz-adv-x="443" d="M69 413v19l170 144q57 48 80 82t23 72q0 48 -34 81.5t-86 33.5q-38 0 -73 -21q-41 -28 -58 -81l-18 8q9 33 31 59t52.5 40t65.5 14q62 0 102 -39.5t40 -93.5q0 -33 -17.5 -65t-37 -51t-57.5 -51l-156 -132h272v-19h-299z" />
<glyph unicode="&#xb3;" horiz-adv-x="410" d="M351 526q0 -48 -43 -85q-41 -36 -107 -36q-53 0 -94 31.5t-56 81.5l19 8q14 -48 51 -75q36 -27 81 -27q54 0 90 30q38 31 38 75t-35.5 72.5t-92.5 28.5h-54v18h54q50 0 84 27t34 71q0 41 -33 70t-85 29q-39 0 -73 -21q-40 -27 -57 -79l-19 8q15 50 56 80.5t94 30.5 q62 0 100 -35q38 -34 38 -81q0 -39 -24.5 -68t-67.5 -40q48 -12 75 -41.5t27 -72.5z" />
<glyph unicode="&#xb4;" horiz-adv-x="158" d="M120 773h30l-120 -167h-16z" />
<glyph unicode="&#xb5;" horiz-adv-x="636" d="M121 132l2 -92v-199h-20v677h20v-301q0 -96 51 -151t139 -55q82 0 140 61q59 62 59 152v294h21v-518h-21v141q-16 -59 -69 -104q-53 -46 -132 -46q-75 0 -124 36t-66 105z" />
<glyph unicode="&#xb6;" horiz-adv-x="472" d="M347 0v392h-110q-83 0 -141 53q-58 54 -58 131q0 76 58 130t141 54h132v-760h-22z" />
<glyph unicode="&#xb7;" horiz-adv-x="208" d="M105 335q16 0 23 -14t0 -28t-23 -14q-17 -1 -23.5 13.5t0 29t23.5 13.5z" />
<glyph unicode="&#xb8;" horiz-adv-x="232" d="M211 -73q0 -75 -40 -118t-111 -43q-24 0 -41 4v19q17 -4 41 -4q63 0 96.5 38t33.5 106q0 40 -21 74q9 4 20 1q22 -42 22 -77z" />
<glyph unicode="&#xb9;" horiz-adv-x="258" d="M153 412v418l-112 -65l-10 15l125 75h18v-443h-21z" />
<glyph unicode="&#xba;" horiz-adv-x="549" d="M275 369q-80 0 -133 53q-53 54 -53 132q0 80 53 134q54 54 133 54t132.5 -53.5t53.5 -131.5q0 -81 -54 -134q-52 -54 -132 -54zM109 556q0 -71 47 -120q48 -50 119.5 -50t118.5 49t47 120q0 70 -48 120t-119.5 50t-118.5 -49q-46 -48 -46 -120zM458 230h-366v17h366v-17z " />
<glyph unicode="&#xbb;" horiz-adv-x="518" d="M77 133l164 159l-164 159l13 13l177 -172l-177 -172zM277 133l164 159l-164 159l13 13l178 -172l-178 -172z" />
<glyph unicode="&#xbc;" horiz-adv-x="745" d="M159 317v418l-112 -66l-10 16l125 75h17v-443h-20zM612 760l-495 -760h-24l495 760h24zM627 101v-101h-21v101h-254v23l249 319h26v-324h77v-18h-77zM606 419l-234 -300h234v300z" />
<glyph unicode="&#xbd;" horiz-adv-x="788" d="M179 760v-443h-20v418l-112 -66l-10 16l125 75h17zM588 760l-495 -760h24l495 760h-24zM736 18v-18h-299v18l170 145q57 48 80.5 81.5t23.5 72.5q0 48 -34.5 81.5t-85.5 33.5q-39 0 -73 -22q-41 -28 -58 -80l-19 8q15 50 56 81.5t94 31.5q62 0 101.5 -39.5t39.5 -93.5 q0 -30 -16 -62t-38 -54q-19 -20 -57 -52l-156 -132h271z" />
<glyph unicode="&#xbe;" horiz-adv-x="852" d="M345 430q0 -48 -42 -85q-42 -36 -108 -36q-35 0 -65.5 14.5t-52.5 40t-31 58.5l18 8q15 -48 51 -75t81 -27q54 0 90 30q38 30 38 75q0 44 -35.5 72.5t-92.5 28.5h-53v18h53q50 0 84 27t34 71q0 41 -33 70t-85 29q-39 0 -73 -21q-40 -27 -57 -79l-18 8q14 50 55 80.5 t94 30.5q62 0 100 -35q39 -34 39 -81q0 -39 -25 -68t-68 -40q48 -12 75 -41.5t27 -72.5zM203 0l494 760h25l-495 -760h-24zM735 119h78v-18h-78v-101h-20v101h-255v23l250 319h25v-324zM715 419l-235 -300h235v300z" />
<glyph unicode="&#xbf;" horiz-adv-x="469" d="M237 500q-2 16 12.5 23t28.5 0t13 -23q0 -17 -13.5 -24t-27 0t-13.5 24zM147 119q62 51 84 86q23 35 24 90l1 57h18v-58q0 -58 -23 -95q-23 -38 -72 -79l-30 -26q-43 -37 -63.5 -72.5t-20.5 -85.5q0 -67 48.5 -115.5t122.5 -48.5q61 0 111 39.5t70 103.5l19 -10 q-23 -70 -78 -110.5t-122 -40.5q-84 0 -138 52q-54 53 -54 130q0 56 24.5 98t78.5 85z" />
<glyph unicode="&#xc0;" horiz-adv-x="725" d="M371 828h-16l-121 168h30zM695 0l-101 225h-463l-102 -225h-22l346 760h20l346 -760h-24zM363 732l-222 -488h443z" />
<glyph unicode="&#xc1;" horiz-adv-x="725" d="M463 996h30l-121 -168h-16zM373 760l346 -760h-24l-101 225h-463l-102 -225h-22l346 760h20zM141 244h443l-221 488z" />
<glyph unicode="&#xc2;" horiz-adv-x="725" d="M235 829h-21l140 167h20l140 -167h-21l-129 146zM695 0l-101 225h-463l-102 -225h-22l346 760h20l346 -760h-24zM363 732l-222 -488h443z" />
<glyph unicode="&#xc3;" horiz-adv-x="725" d="M305 944q24 0 42.5 -12.5t43.5 -42.5q33 -42 66 -42q59 0 60 96h17q0 -55 -20.5 -85.5t-56.5 -30.5q-27 2 -42 12.5t-40 38.5q-20 25 -34.5 36t-35.5 11q-59 0 -61 -96h-16q-1 55 19.5 85t57.5 30zM353 760h20l346 -760h-24l-101 225h-463l-102 -225h-22zM363 732 l-222 -488h443z" />
<glyph unicode="&#xc4;" horiz-adv-x="725" d="M256 910q0 5 2 10t5.5 9t8.5 6t10 2q12 0 19.5 -8t7.5 -19q0 -12 -7.5 -20t-19.5 -8q-11 0 -18.5 8t-7.5 20zM420 910q0 11 8 19t19 8t18.5 -8t7.5 -19q0 -12 -7.5 -20t-18.5 -8t-19 8t-8 20zM373 760l346 -760h-24l-101 225h-463l-102 -225h-22l346 760h20zM141 244h443 l-221 488z" />
<glyph unicode="&#xc5;" horiz-adv-x="725" d="M265 821q0 40 28.5 68.5t69.5 28.5q40 0 68.5 -28.5t28.5 -68.5q0 -33 -20.5 -59t-52.5 -34l332 -728h-24l-101 225h-463l-102 -225h-22l332 728q-33 9 -53.5 34t-20.5 59zM363 900q-17 0 -31.5 -6t-24.5 -16t-16 -25t-6 -31.5t6 -31.5t16 -25.5t24.5 -16.5t31.5 -6 q33 0 55 23t22 57q0 21 -10.5 39t-28.5 28.5t-38 10.5zM359 726l-218 -482h443l-218 482h-7z" />
<glyph unicode="&#xc6;" horiz-adv-x="985" d="M922 740h-406v-343h372v-20h-372v-358h409v-19h-430v225h-337l-139 -225h-25l469 760h459v-20zM474 740l-304 -496h325v496h-21z" />
<glyph unicode="&#xc7;" horiz-adv-x="809" d="M57 379q0 164 106 276q107 112 267 112q67 0 126 -21t100 -57q78 -67 108 -159l-19 -9q-29 83 -98 148q-25 24 -58.5 41.5t-74.5 27.5t-85 10q-152 0 -251 -109q-99 -107 -99 -258q0 -153 99 -262q100 -107 253 -107q43 0 84.5 10t74.5 27.5t58 40.5q70 66 99 151l19 -9 q-29 -88 -109 -161q-41 -37 -100.5 -58t-126.5 -21q-164 0 -268 112q-105 112 -105 275zM464 -73q0 -49 -18.5 -85.5t-52.5 -56t-81 -19.5q-24 0 -40 4v19q16 -4 39 -4q64 0 97 38t33 106q0 38 -20 74q11 5 20 1q23 -42 23 -77z" />
<glyph unicode="&#xc8;" horiz-adv-x="631" d="M357 828h-16l-121 168h31zM566 740h-432v-343h400v-20h-400v-358h437v-19h-458v760h453v-20z" />
<glyph unicode="&#xc9;" horiz-adv-x="631" d="M434 996h30l-122 -168h-15zM134 397h400v-20h-400v-358h437v-19h-458v760h453v-20h-432v-343z" />
<glyph unicode="&#xca;" horiz-adv-x="631" d="M213 829h-21l140 167h21l140 -167h-22l-129 146zM566 740h-432v-343h400v-20h-400v-358h437v-19h-458v760h453v-20z" />
<glyph unicode="&#xcb;" horiz-adv-x="631" d="M231 910q0 11 8 19t19 8t19 -8t8 -19q0 -8 -3.5 -14.5t-9.5 -10t-14 -3.5q-11 0 -19 8t-8 20zM396 910q0 11 7.5 19t19.5 8q11 0 18.5 -8t7.5 -19q0 -8 -3.5 -14.5t-9.5 -10t-13 -3.5q-12 0 -19.5 8t-7.5 20zM134 397h400v-20h-400v-358h437v-19h-458v760h453v-20h-432 v-343z" />
<glyph unicode="&#xcc;" horiz-adv-x="246" d="M129 828h-16l-121 168h30zM134 760v-760h-21v760h21z" />
<glyph unicode="&#xcd;" horiz-adv-x="246" d="M223 996h30l-120 -168h-17zM134 760v-760h-21v760h21z" />
<glyph unicode="&#xce;" horiz-adv-x="246" d="M-6 829h-20l139 167h21l140 -167h-22l-129 146zM113 0v760h21v-760h-21z" />
<glyph unicode="&#xcf;" horiz-adv-x="246" d="M15 910q0 11 7.5 19t19.5 8q11 0 18.5 -8t7.5 -19q0 -12 -7.5 -20t-18.5 -8q-12 0 -19.5 8t-7.5 20zM178 910q0 22 22 26q23 3 30 -15l2 -11q0 -17 -13.5 -24t-27 0t-13.5 24zM134 760v-760h-21v760h21z" />
<glyph unicode="&#xd0;" horiz-adv-x="777" d="M315 0h-202v760h202q180 0 292.5 -110t112.5 -271q0 -168 -115 -273q-113 -106 -290 -106zM315 740h-181v-721h182q165 0 274 102q108 102 108 257t-108 258q-110 104 -275 104zM34 377v20h383v-20h-383z" />
<glyph unicode="&#xd1;" horiz-adv-x="823" d="M338 944q24 0 42.5 -12.5t43.5 -42.5q33 -42 66 -42q59 0 60 96h16q1 -55 -19.5 -85.5t-56.5 -30.5q-27 2 -42 12.5t-40 38.5q-20 25 -34.5 36t-35.5 11q-59 0 -61 -96h-16q-1 55 19.5 85t57.5 30zM691 33v727h20v-760h-21l-557 728v-728h-20v760h21z" />
<glyph unicode="&#xd2;" horiz-adv-x="860" d="M442 828h-16l-120 168h30zM430 -8q-162 0 -268 112q-105 112 -105 275.5t105 275.5q107 112 268 112q162 0 267 -112q106 -112 106 -275q0 -164 -106 -275q-105 -113 -267 -113zM431 12q152 0 252 106q99 107 99 260.5t-101 261.5q-100 108 -252 108t-251 -107 q-99 -106 -99 -260q0 -155 99 -262q101 -107 253 -107z" />
<glyph unicode="&#xd3;" horiz-adv-x="860" d="M526 996h31l-121 -168h-17zM430 -8q-162 0 -268 112q-105 112 -105 275.5t105 275.5q107 112 268 112q162 0 267 -112q106 -112 106 -275q0 -164 -106 -275q-105 -113 -267 -113zM431 12q152 0 252 106q99 107 99 260.5t-101 261.5q-100 108 -252 108t-251 -107 q-99 -106 -99 -260q0 -155 99 -262q101 -107 253 -107z" />
<glyph unicode="&#xd4;" horiz-adv-x="860" d="M302 829h-21l140 167h20l140 -167h-21l-129 146zM430 -8q-162 0 -268 112q-105 112 -105 275.5t105 275.5q107 112 268 112q162 0 267 -112q106 -112 106 -275q0 -164 -106 -275q-105 -113 -267 -113zM431 12q152 0 252 106q99 107 99 260.5t-101 261.5 q-100 108 -252 108t-251 -107q-99 -106 -99 -260q0 -155 99 -262q101 -107 253 -107z" />
<glyph unicode="&#xd5;" horiz-adv-x="860" d="M356 944q25 0 43 -12.5t43 -42.5q33 -42 66 -42q59 0 60 96h17q0 -27 -5 -49t-15 -36.5t-24.5 -22.5t-32.5 -8q-27 2 -42 12.5t-39 38.5q-21 25 -35.5 36t-35.5 11q-59 0 -60 -96h-17q0 55 20.5 85t56.5 30zM430 -8q-162 0 -268 112q-105 112 -105 275.5t105 275.5 q107 112 268 112q162 0 267 -112q106 -112 106 -275q0 -164 -106 -275q-105 -113 -267 -113zM431 12q152 0 252 106q99 107 99 260.5t-101 261.5q-100 108 -252 108t-251 -107q-99 -106 -99 -260q0 -155 99 -262q101 -107 253 -107z" />
<glyph unicode="&#xd6;" horiz-adv-x="860" d="M322 910q0 11 8 19t19 8t18.5 -8t7.5 -19q0 -8 -3.5 -14.5t-9.5 -10t-13 -3.5t-13.5 3.5t-10 10t-3.5 14.5zM486 910q0 12 8.5 19t18.5 7t18.5 -7t8.5 -19q0 -17 -13.5 -24t-27 0t-13.5 24zM430 -8q-162 0 -268 112q-105 112 -105 275.5t105 275.5q107 112 268 112 q162 0 267 -112q106 -112 106 -275q0 -164 -106 -275q-105 -113 -267 -113zM431 12q152 0 252 106q99 107 99 260.5t-101 261.5q-100 108 -252 108t-251 -107q-99 -106 -99 -260q0 -155 99 -262q101 -107 253 -107z" />
<glyph unicode="&#xd7;" horiz-adv-x="564" d="M502 520l-207 -208l207 -207l-13 -15l-208 208l-207 -208l-15 14l209 208l-209 208l15 14l207 -208l208 208z" />
<glyph unicode="&#xd8;" horiz-adv-x="866" d="M795 797l15 -12l-114 -127q108 -111 108 -278q0 -164 -106 -275q-105 -113 -267 -113q-143 0 -247 92l-109 -123l-15 13l111 123q-113 113 -113 282q0 164 105 276q107 112 268 112q149 0 252 -96zM80 381q0 -162 103 -268l486 543q-98 92 -239 92q-152 0 -252 -107 q-98 -106 -98 -260zM783 378q0 160 -100 264l-485 -543q97 -87 234 -87q152 0 252 106q99 107 99 260z" />
<glyph unicode="&#xd9;" horiz-adv-x="753" d="M394 828h-17l-120 168h30zM102 300v460h21v-460q0 -137 68 -213t187 -76q127 0 189 79q63 81 63 208v462h22v-459q0 -145 -71.5 -227.5t-203.5 -82.5q-133 0 -204 84t-71 225z" />
<glyph unicode="&#xda;" horiz-adv-x="753" d="M469 996h31l-121 -168h-16zM652 301q0 -145 -71.5 -227.5t-203.5 -82.5q-133 0 -204 84t-71 225v460h21v-460q0 -137 68 -213t187 -76q127 0 189 79q63 81 63 208v462h22v-459z" />
<glyph unicode="&#xdb;" horiz-adv-x="753" d="M248 829h-21l140 167h21l140 -167h-22l-129 146zM102 300v460h21v-460q0 -137 68 -213t187 -76q127 0 189 79q63 81 63 208v462h22v-459q0 -145 -71.5 -227.5t-203.5 -82.5q-133 0 -204 84t-71 225z" />
<glyph unicode="&#xdc;" horiz-adv-x="753" d="M269 910q-1 16 13 23t27.5 0t12.5 -23q0 -17 -13.5 -24t-26.5 0t-13 24zM433 910q0 11 8 19t19 8q5 0 10.5 -2t9 -6t5.5 -9t2 -10q0 -12 -8 -20t-19 -8t-19 8t-8 20zM652 301q0 -145 -71.5 -227.5t-203.5 -82.5q-133 0 -204 84t-71 225v460h21v-460q0 -137 68 -213 t187 -76q127 0 189 79q63 81 63 208v462h22v-459z" />
<glyph unicode="&#xdd;" horiz-adv-x="676" d="M429 996h30l-121 -168h-16zM621 760h25l-297 -433v-327h-21v327l-298 433h25l285 -414z" />
<glyph unicode="&#xde;" horiz-adv-x="640" d="M113 760h21v-155h191q134 0 206 -58t72 -160q0 -105 -74.5 -163.5t-208.5 -58.5h-186v-165h-21v760zM323 586h-189v-402h187q126 0 193.5 54t67.5 147q0 94 -67.5 147.5t-191.5 53.5z" />
<glyph unicode="&#xdf;" horiz-adv-x="598" d="M411 -9q-115 0 -169 97l17 11q51 -89 153 -89q50 0 91 31q41 32 41 85q0 45 -28.5 78t-92.5 66q-73 36 -101 63q-27 25 -27 61q0 25 12 47q9 16 19.5 28.5t20.5 22l30 28.5l31 27q60 52 60 95q0 58 -47 94q-47 37 -117 37q-89 0 -140 -64q-51 -65 -51 -168v-541h-21v539 q0 116 58 185q59 68 154 68q83 0 133 -43q51 -42 51 -106q0 -23 -14 -47q-13 -24 -26 -38q-13 -15 -43 -40l-10 -9q-45 -40 -62.5 -63.5t-17.5 -50.5q0 -31 27 -53q24 -18 96 -57q70 -36 99 -75q28 -37 28 -82q0 -62 -46 -100q-46 -37 -108 -37z" />
<glyph unicode="&#xe0;" horiz-adv-x="548" d="M294 606h-17l-120 167h30zM462 0h-21v127h-1q-27 -67 -84.5 -101.5t-129.5 -34.5q-76 0 -124 38.5t-48 105.5q0 71 59 107q61 37 143 37h185v49q0 85 -45 132t-129 47q-135 0 -188 -116l-18 9q27 58 79 92.5t127 34.5q90 0 142.5 -52t52.5 -147v-328zM441 211v50h-183 q-41 0 -82 -11q-27 -7 -49 -22.5t-36.5 -39.5t-14.5 -52q0 -59 42.5 -92t108.5 -33q89 0 151 55q63 56 63 145z" />
<glyph unicode="&#xe1;" horiz-adv-x="548" d="M364 773h30l-121 -167h-16zM462 0h-21v127h-1q-27 -67 -84.5 -101.5t-129.5 -34.5q-76 0 -124 38.5t-48 105.5q0 71 59 107q61 37 143 37h185v49q0 85 -45 132t-129 47q-135 0 -188 -116l-18 9q27 58 79 92.5t127 34.5q90 0 142.5 -52t52.5 -147v-328zM441 211v50h-183 q-41 0 -82 -11q-27 -7 -49 -22.5t-36.5 -39.5t-14.5 -52q0 -59 42.5 -92t108.5 -33q89 0 151 55q63 56 63 145z" />
<glyph unicode="&#xe2;" horiz-adv-x="548" d="M138 606h-21l140 167h20l140 -167h-21l-129 147zM462 0h-21v127h-1q-27 -67 -84.5 -101.5t-129.5 -34.5q-76 0 -124 38.5t-48 105.5q0 71 59 107q61 37 143 37h185v49q0 85 -45 132t-129 47q-135 0 -188 -116l-18 9q27 58 79 92.5t127 34.5q90 0 142.5 -52t52.5 -147 v-328zM441 211v50h-183q-41 0 -82 -11q-27 -7 -49 -22.5t-36.5 -39.5t-14.5 -52q0 -59 42.5 -92t108.5 -33q89 0 151 55q63 56 63 145z" />
<glyph unicode="&#xe3;" horiz-adv-x="546" d="M190 722q25 0 43 -12.5t43 -44.5q34 -41 67 -41q59 0 61 96h15q1 -54 -19.5 -84.5t-56.5 -30.5q-16 0 -29.5 5.5t-25 16t-26.5 28.5q-21 26 -36.5 36.5t-35.5 10.5q-59 0 -60 -96h-16q0 55 20 85.5t56 30.5zM462 0h-21v127h-1q-27 -67 -84.5 -101.5t-129.5 -34.5 q-76 0 -124 38.5t-48 105.5q0 71 59 107q61 37 143 37h185v49q0 85 -45 132t-129 47q-135 0 -188 -116l-18 9q27 58 79 92.5t127 34.5q90 0 142.5 -52t52.5 -147v-328zM441 211v50h-183q-41 0 -82 -11q-27 -7 -49 -22.5t-36.5 -39.5t-14.5 -52q0 -59 42.5 -92t108.5 -33 q89 0 151 55q63 56 63 145z" />
<glyph unicode="&#xe4;" horiz-adv-x="548" d="M158 697q0 11 7.5 19.5t18.5 8.5q12 0 19.5 -8t7.5 -20q0 -11 -7.5 -19.5t-19.5 -8.5q-11 0 -18.5 8.5t-7.5 19.5zM310 697q0 8 3.5 14t10 10t14.5 4q7 0 13 -4t9.5 -10t3.5 -14q0 -7 -3.5 -13.5t-9.5 -10.5t-13 -4q-12 0 -20 8.5t-8 19.5zM462 0h-21v127h-1 q-27 -67 -84.5 -101.5t-129.5 -34.5q-76 0 -124 38.5t-48 105.5q0 71 59 107q61 37 143 37h185v49q0 85 -45 132t-129 47q-135 0 -188 -116l-18 9q27 58 79 92.5t127 34.5q90 0 142.5 -52t52.5 -147v-328zM441 211v50h-183q-41 0 -82 -11q-27 -7 -49 -22.5t-36.5 -39.5 t-14.5 -52q0 -59 42.5 -92t108.5 -33q89 0 151 55q63 56 63 145z" />
<glyph unicode="&#xe5;" horiz-adv-x="548" d="M334 518q40 -12 68.5 -37t44 -64t15.5 -89v-328h-21v127h-1q-27 -67 -84.5 -101.5t-129.5 -34.5q-76 0 -124 38.5t-48 105.5q0 71 59 107q61 37 143 37h185v49q0 85 -45 132t-129 47q-135 0 -188 -116l-18 9q42 91 135 117q-28 25 -28 66q0 40 28.5 68.5t68.5 28.5 t68 -29q29 -28 29 -68t-28 -65zM187 583q0 -37 28 -61q29 5 52 5q30 0 47 -4q28 22 28 60q0 32 -22.5 56t-54.5 24q-23 0 -40.5 -10.5t-27.5 -28.5t-10 -41zM441 211v50h-183q-41 0 -82 -11q-27 -7 -49 -22.5t-36.5 -39.5t-14.5 -52q0 -59 42.5 -92t108.5 -33q89 0 151 55 q63 56 63 145z" />
<glyph unicode="&#xe6;" horiz-adv-x="925" d="M441 422q35 49 86.5 77t109.5 28q81 0 136 -39q100 -69 102 -227h-465v-1q0 -103 68 -177q69 -72 171 -72q62 0 114 30.5t79 80.5l17 -10q-31 -56 -88 -88.5t-124 -32.5q-68 0 -124 31.5t-91 88.5q-29 -59 -83.5 -89.5t-120.5 -30.5h-2q-76 0 -124 38.5t-48 105.5 q0 71 59 107q61 37 143 37h135q4 65 38 124q-18 48 -60.5 76t-101.5 28q-135 0 -188 -116l-18 9q27 58 79 92.5t127 34.5q61 0 107 -28t67 -77zM637 507q-88 0 -154.5 -68t-71.5 -160h443q-2 44 -15 82.5t-37.5 72.5t-66.5 53.5t-98 19.5zM421 131q-31 58 -31 129v1h-132 q-41 0 -82 -11q-27 -7 -49 -22.5t-36.5 -39.5t-14.5 -52q0 -59 42.5 -92t108.5 -33q64 0 117 32.5t77 87.5z" />
<glyph unicode="&#xe7;" horiz-adv-x="586" d="M520 152l19 -8q-24 -67 -79 -108t-133 -45q16 -36 16 -64q0 -75 -40 -118t-111 -43q-25 0 -42 4v19q17 -4 41 -4q64 0 97 38t33 106q0 32 -14 62q-106 2 -181 78q-74 76 -74 190q0 112 75 190q76 78 185 78q83 0 143 -41t83 -110l-18 -7q-21 62 -75.5 100t-133.5 38 q-99 0 -168 -72t-69 -175t69 -177q68 -72 169 -72q79 0 132 38t76 103z" />
<glyph unicode="&#xe8;" horiz-adv-x="588" d="M312 606h-16l-120 167h30zM537 261h-463v-1q0 -102 67 -177q68 -72 169 -72q63 0 115.5 30.5t78.5 80.5l18 -10q-21 -37 -53.5 -64t-73.5 -42t-86 -15q-110 0 -184 79q-73 78 -73 190v2q0 106 72 185q72 80 176 80q81 0 136 -39q100 -69 101 -227zM300 507 q-89 0 -155.5 -68t-70.5 -160h442q-2 44 -14.5 82.5t-37 72.5t-67 53.5t-97.5 19.5z" />
<glyph unicode="&#xe9;" horiz-adv-x="588" d="M395 773h30l-120 -167h-17zM537 261h-463v-1q0 -102 67 -177q68 -72 169 -72q63 0 115.5 30.5t78.5 80.5l18 -10q-21 -37 -53.5 -64t-73.5 -42t-86 -15q-110 0 -184 79q-73 78 -73 190v2q0 106 72 185q72 80 176 80q81 0 136 -39q100 -69 101 -227zM300 507 q-89 0 -155.5 -68t-70.5 -160h442q-2 44 -14.5 82.5t-37 72.5t-67 53.5t-97.5 19.5z" />
<glyph unicode="&#xea;" horiz-adv-x="588" d="M175 606h-22l140 167h20l140 -167h-20l-129 147zM537 261h-463v-1q0 -102 67 -177q68 -72 169 -72q63 0 115.5 30.5t78.5 80.5l18 -10q-21 -37 -53.5 -64t-73.5 -42t-86 -15q-110 0 -184 79q-73 78 -73 190v2q0 106 72 185q72 80 176 80q81 0 136 -39q100 -69 101 -227z M300 507q-89 0 -155.5 -68t-70.5 -160h442q-2 44 -14.5 82.5t-37 72.5t-67 53.5t-97.5 19.5z" />
<glyph unicode="&#xeb;" horiz-adv-x="588" d="M197 697q0 13 8.5 20t18.5 7t18.5 -7t8.5 -20q0 -12 -8.5 -19.5t-18.5 -7.5t-18.5 7.5t-8.5 19.5zM350 697q0 6 2 11t5.5 8.5t8.5 6t10 2.5q12 0 20 -8t8 -20q0 -11 -8 -19.5t-20 -8.5q-5 0 -10 2.5t-8.5 6t-5.5 9t-2 10.5zM537 261h-463v-1q0 -102 67 -177 q68 -72 169 -72q63 0 115.5 30.5t78.5 80.5l18 -10q-21 -37 -53.5 -64t-73.5 -42t-86 -15q-110 0 -184 79q-73 78 -73 190v2q0 106 72 185q72 80 176 80q81 0 136 -39q100 -69 101 -227zM300 507q-89 0 -155.5 -68t-70.5 -160h442q-2 44 -14.5 82.5t-37 72.5t-67 53.5 t-97.5 19.5z" />
<glyph unicode="&#xec;" horiz-adv-x="200" d="M111 606h-16l-121 167h30zM111 0h-21v518h21v-518z" />
<glyph unicode="&#xed;" horiz-adv-x="201" d="M198 773h30l-120 -167h-17zM90 518h21v-518h-21v518z" />
<glyph unicode="&#xee;" horiz-adv-x="200" d="M-28 606h-21l139 167h22l139 -167h-21l-129 147zM111 0h-21v518h21v-518z" />
<glyph unicode="&#xef;" horiz-adv-x="200" d="M-3 697q0 13 8.5 20t18.5 7t18.5 -7t8.5 -20q0 -12 -8.5 -19.5t-18.5 -7.5t-18.5 7.5t-8.5 19.5zM150 697q0 11 8 19.5t19 8.5t19 -8t8 -20q0 -11 -8 -19.5t-19 -8.5q-8 0 -14 4t-9.5 10.5t-3.5 13.5zM90 518h21v-518h-21v518z" />
<glyph unicode="&#xf0;" horiz-adv-x="635" d="M449 767l10 -18l-119 -54q238 -194 238 -420v-5q0 -117 -77 -198q-76 -81 -187 -81q-110 0 -186 78t-76 190q0 109 73 186q74 79 185 79q62 0 121.5 -30t104.5 -86h1q-52 147 -217 277l-178 -82l-10 19l169 77q-64 47 -116 77l11 16q99 -62 126 -83zM315 11 q102 0 172 75.5t70 179.5q0 57 -10 92q-21 53 -90 100q-69 46 -144 46q-103 0 -171 -72q-68 -71 -68 -173t69 -176q69 -72 172 -72z" />
<glyph unicode="&#xf1;" d="M231 722q25 0 43 -12.5t43 -44.5q33 -41 67 -41q59 0 60 96h16q1 -54 -19.5 -84.5t-56.5 -30.5q-24 0 -41.5 11.5t-39.5 38.5q-15 18 -25.5 27.5t-22 14.5t-24.5 5q-59 0 -60 -96h-16q-1 55 19.5 85.5t56.5 30.5zM92 0v518h21v-141q16 58 68 103q53 47 132 47 q98 0 153.5 -59.5t55.5 -164.5v-303h-21v301q0 96 -50 150.5t-140 54.5q-81 0 -140 -62q-58 -61 -58 -150v-294h-21z" />
<glyph unicode="&#xf2;" horiz-adv-x="636" d="M331 606h-17l-120 167h30zM317 -9q-114 0 -189 77q-76 77 -76 191t76 191q77 77 190 77q115 0 189 -78q76 -77 76 -189q0 -114 -76 -191q-76 -78 -190 -78zM317 507q-104 0 -174 -71q-69 -72 -69 -176q0 -106 70 -178q71 -71 174 -71q105 0 174 71q70 72 70 177t-70 177 q-69 71 -175 71z" />
<glyph unicode="&#xf3;" horiz-adv-x="635" d="M418 773h30l-120 -167h-17zM317 -9q-114 0 -189 77q-76 77 -76 191t76 191q77 77 190 77q115 0 189 -78q76 -77 76 -189q0 -114 -76 -191q-76 -78 -190 -78zM317 507q-104 0 -174 -71q-69 -72 -69 -176q0 -106 70 -178q71 -71 174 -71q105 0 174 71q70 72 70 177t-70 177 q-69 71 -175 71z" />
<glyph unicode="&#xf4;" horiz-adv-x="635" d="M188 606h-21l140 167h21l140 -167h-22l-129 147zM317 -9q-114 0 -189 77q-76 77 -76 191t76 191q77 77 190 77q115 0 189 -78q76 -77 76 -189q0 -114 -76 -191q-76 -78 -190 -78zM317 507q-104 0 -174 -71q-69 -72 -69 -176q0 -106 70 -178q71 -71 174 -71q105 0 174 71 q70 72 70 177t-70 177q-69 71 -175 71z" />
<glyph unicode="&#xf5;" horiz-adv-x="635" d="M242 722q18 0 32.5 -7t26 -18t28.5 -32q33 -41 67 -41q58 0 60 96h15q1 -54 -19 -84.5t-56 -30.5q-17 0 -30.5 5.5t-25 16t-26.5 28.5q-21 26 -36.5 36.5t-35.5 10.5q-58 0 -60 -96h-15q-1 55 19.5 85.5t55.5 30.5zM317 -9q-114 0 -189 77q-76 77 -76 191t76 191 q77 77 190 77q115 0 189 -78q76 -77 76 -189q0 -114 -76 -191q-76 -78 -190 -78zM317 507q-104 0 -174 -71q-69 -72 -69 -176q0 -106 70 -178q71 -71 174 -71q105 0 174 71q70 72 70 177t-70 177q-69 71 -175 71z" />
<glyph unicode="&#xf6;" horiz-adv-x="635" d="M216 697q0 8 3.5 14t10 10t13.5 4q8 0 14 -4t9.5 -10t3.5 -14q0 -11 -8 -19.5t-19 -8.5t-19 8.5t-8 19.5zM369 697q-1 17 13 24t27.5 0t12.5 -24q0 -12 -8.5 -19.5t-18.5 -7.5t-18 7.5t-8 19.5zM317 -9q-114 0 -189 77q-76 77 -76 191t76 191q77 77 190 77q115 0 189 -78 q76 -77 76 -189q0 -114 -76 -191q-76 -78 -190 -78zM317 507q-104 0 -174 -71q-69 -72 -69 -176q0 -106 70 -178q71 -71 174 -71q105 0 174 71q70 72 70 177t-70 177q-69 71 -175 71z" />
<glyph unicode="&#xf7;" horiz-adv-x="645" d="M296 557q-1 22 22 26q22 3 29 -15q3 -5 2 -11q0 -17 -13 -24t-26.5 0t-13.5 24zM558 373v-18h-471v18h471zM296 170q-1 22 22 26q22 3 29 -15q3 -5 2 -11q0 -13 -8 -20t-18 -7t-18.5 7t-8.5 20z" />
<glyph unicode="&#xf8;" horiz-adv-x="638" d="M572 550l13 -12l-79 -86q78 -76 78 -192q0 -114 -76 -191q-76 -78 -189 -78q-101 0 -174 63l-78 -85l-13 12l78 85q-78 76 -78 193q0 114 76 191q75 77 189 77q104 0 176 -63zM76 260q0 -108 70 -179l334 368q-65 58 -162 58q-105 0 -173.5 -71.5t-68.5 -175.5zM319 11 q105 0 174 71q70 72 70 177q0 106 -70 178l-335 -368q66 -58 161 -58z" />
<glyph unicode="&#xf9;" d="M319 606h-16l-121 167h30zM514 0h-20v141q-17 -59 -69 -104q-53 -46 -132 -46q-98 0 -153.5 59.5t-55.5 164.5v303h21v-301q0 -96 51 -151t139 -55q81 0 140 61q59 62 59 152v294h20v-518z" />
<glyph unicode="&#xfa;" d="M394 773h30l-121 -167h-16zM514 518v-518h-20v141q-17 -59 -69 -104q-53 -46 -132 -46q-98 0 -153.5 59.5t-55.5 164.5v303h21v-301q0 -96 51 -151t139 -55q81 0 140 61q59 62 59 152v294h20z" />
<glyph unicode="&#xfb;" d="M171 606h-22l141 167h20l140 -167h-21l-129 147zM514 0h-20v141q-17 -59 -69 -104q-53 -46 -132 -46q-98 0 -153.5 59.5t-55.5 164.5v303h21v-301q0 -96 51 -151t139 -55q81 0 140 61q59 62 59 152v294h20v-518z" />
<glyph unicode="&#xfc;" d="M198 697q0 11 7.5 19.5t18.5 8.5q12 0 19.5 -8t7.5 -20q0 -11 -7.5 -19.5t-19.5 -8.5q-11 0 -18.5 8.5t-7.5 19.5zM350 697q0 12 8 20t19 8q6 0 10.5 -2.5t8 -6t6 -8.5t2.5 -11q0 -11 -8 -19.5t-19 -8.5t-19 8.5t-8 19.5zM514 518v-518h-20v141q-17 -59 -69 -104 q-53 -46 -132 -46q-98 0 -153.5 59.5t-55.5 164.5v303h21v-301q0 -96 51 -151t139 -55q81 0 140 61q59 62 59 152v294h20z" />
<glyph unicode="&#xfd;" horiz-adv-x="561" d="M374 773h30l-120 -167h-16zM518 518h21l-376 -773h-22l137 282l-252 491h22l241 -470z" />
<glyph unicode="&#xfe;" horiz-adv-x="649" d="M598 256q0 -109 -70 -186q-71 -78 -181 -78q-86 0 -148 48q-63 48 -86 122v-417h-21v1045h21v-439q23 74 86 122q62 48 148 48q109 0 180 -78q71 -76 71 -187zM576 255v1q0 104 -65 175q-63 70 -166 70t-168 -73q-65 -72 -65 -170v-3q0 -98 66 -172q65 -71 167 -71 q105 0 167 69q64 70 64 174z" />
<glyph unicode="&#xff;" horiz-adv-x="560" d="M181 697q0 11 8 19.5t19 8.5t19 -8t8 -20q0 -11 -8 -19.5t-19 -8.5q-8 0 -14 4t-9.5 10.5t-3.5 13.5zM334 697q0 12 7.5 20t19.5 8q11 0 18.5 -8.5t7.5 -19.5t-7.5 -19.5t-18.5 -8.5q-12 0 -19.5 8.5t-7.5 19.5zM518 518h21l-376 -773h-22l137 282l-252 491h22l241 -470z " />
<glyph unicode="&#x100;" horiz-adv-x="725" d="M524 862h-321v19h321v-19zM373 760l346 -760h-24l-101 225h-463l-102 -225h-22l346 760h20zM141 244h443l-221 488z" />
<glyph unicode="&#x101;" horiz-adv-x="548" d="M424 630h-321v19h321v-19zM462 0h-21v127h-1q-27 -67 -84.5 -101.5t-129.5 -34.5q-76 0 -124 38.5t-48 105.5q0 71 59 107q61 37 143 37h185v49q0 85 -45 132t-129 47q-135 0 -188 -116l-18 9q27 58 79 92.5t127 34.5q90 0 142.5 -52t52.5 -147v-328zM441 211v50h-183 q-41 0 -82 -11q-27 -7 -49 -22.5t-36.5 -39.5t-14.5 -52q0 -59 42.5 -92t108.5 -33q89 0 151 55q63 56 63 145z" />
<glyph unicode="&#x102;" horiz-adv-x="725" d="M217 994h17q1 -41 16 -71.5t43.5 -47.5t68.5 -17q59 0 92 36t35 100h16q0 -71 -39.5 -113t-104 -42t-104.5 42t-40 113zM695 0l-101 225h-463l-102 -225h-22l346 760h20l346 -760h-24zM363 732l-222 -488h443z" />
<glyph unicode="&#x103;" horiz-adv-x="548" d="M118 761h17q2 -62 36 -98.5t92 -36.5q59 0 92.5 36t35.5 99h16q0 -23 -4.5 -44.5t-13.5 -38.5t-22 -30.5t-29 -22.5t-35 -14t-40 -5q-65 0 -105 42t-40 113zM462 0h-21v127h-1q-27 -67 -84.5 -101.5t-129.5 -34.5q-76 0 -124 38.5t-48 105.5q0 71 59 107q61 37 143 37 h185v49q0 85 -45 132t-129 47q-135 0 -188 -116l-18 9q27 58 79 92.5t127 34.5q90 0 142.5 -52t52.5 -147v-328zM441 211v50h-183q-41 0 -82 -11q-27 -7 -49 -22.5t-36.5 -39.5t-14.5 -52q0 -59 42.5 -92t108.5 -33q89 0 151 55q63 56 63 145z" />
<glyph unicode="&#x104;" horiz-adv-x="728" d="M631 -127q0 -47 35 -70.5t86 -19.5v-18q-18 -2 -22 -2q-53 0 -86.5 28.5t-33.5 79.5q0 61 88 129h-3l-101 225h-463l-102 -225h-22l346 760h20l346 -760q-60 -53 -74 -81q-14 -25 -14 -46zM141 244h443l-221 488z" />
<glyph unicode="&#x105;" horiz-adv-x="548" d="M375 -127q0 -47 35 -70.5t86 -19.5v-18q-18 -2 -23 -2q-53 0 -86.5 28.5t-33.5 79.5q0 31 25.5 66t63.5 63h-1v127h-1q-27 -67 -84.5 -101.5t-129.5 -34.5q-76 0 -124 38.5t-48 105.5q0 71 59 107q61 37 143 37h185v49q0 85 -45 132t-129 47q-135 0 -188 -116l-18 9 q27 58 79 92.5t127 34.5q90 0 142.5 -52t52.5 -147v-328h1l-40 -35q-14 -14 -31 -41q-17 -28 -17 -51zM441 211v50h-183q-41 0 -82 -11q-27 -7 -49 -22.5t-36.5 -39.5t-14.5 -52q0 -59 42.5 -92t108.5 -33q89 0 151 55q63 56 63 145z" />
<glyph unicode="&#x106;" horiz-adv-x="809" d="M527 996h31l-122 -168h-16zM57 379q0 164 106 276q107 112 267 112q67 0 126 -21t100 -57q78 -67 108 -159l-19 -9q-29 83 -98 148q-25 24 -58.5 41.5t-74.5 27.5t-85 10q-152 0 -251 -109q-99 -107 -99 -258q0 -153 99 -262q100 -107 253 -107q43 0 84.5 10t74.5 27.5 t58 40.5q70 66 99 151l19 -9q-29 -88 -109 -161q-41 -37 -100.5 -58t-126.5 -21q-164 0 -268 112q-105 112 -105 275z" />
<glyph unicode="&#x107;" horiz-adv-x="586" d="M407 773h30l-120 -167h-16zM520 152l19 -8q-24 -70 -83.5 -111.5t-144.5 -41.5q-106 0 -183 77q-76 77 -76 191q0 112 75 190q76 78 185 78q83 0 143 -41t83 -110l-18 -7q-21 62 -75.5 100t-133.5 38q-99 0 -168 -72t-69 -175t69 -177q68 -72 169 -72q79 0 132 38t76 103 z" />
<glyph unicode="&#x108;" horiz-adv-x="814" d="M306 829h-22l140 167h21l140 -167h-21l-129 146zM57 379q0 164 106 276q107 112 267 112q67 0 126 -21t100 -57q78 -67 108 -159l-19 -9q-29 83 -98 148q-25 24 -58.5 41.5t-74.5 27.5t-85 10q-152 0 -251 -109q-99 -107 -99 -258q0 -153 99 -262q100 -107 253 -107 q43 0 84.5 10t74.5 27.5t58 40.5q70 66 99 151l19 -9q-29 -88 -109 -161q-41 -37 -100.5 -58t-126.5 -21q-164 0 -268 112q-105 112 -105 275z" />
<glyph unicode="&#x109;" horiz-adv-x="586" d="M185 606h-21l140 167h20l140 -167h-21l-129 147zM520 152l19 -8q-24 -70 -83.5 -111.5t-144.5 -41.5q-106 0 -183 77q-76 77 -76 191q0 112 75 190q76 78 185 78q83 0 143 -41t83 -110l-18 -7q-21 62 -75.5 100t-133.5 38q-99 0 -168 -72t-69 -175t69 -177 q68 -72 169 -72q79 0 132 38t76 103z" />
<glyph unicode="&#x10a;" horiz-adv-x="809" d="M407 910q0 16 13.5 23t27.5 0t13 -23q0 -17 -13.5 -24t-27 0t-13.5 24zM57 379q0 164 106 276q107 112 267 112q67 0 126 -21t100 -57q78 -67 108 -159l-19 -9q-29 83 -98 148q-25 24 -58.5 41.5t-74.5 27.5t-85 10q-152 0 -251 -109q-99 -107 -99 -258q0 -153 99 -262 q100 -107 253 -107q43 0 84.5 10t74.5 27.5t58 40.5q70 66 99 151l19 -9q-29 -88 -109 -161q-41 -37 -100.5 -58t-126.5 -21q-164 0 -268 112q-105 112 -105 275z" />
<glyph unicode="&#x10b;" horiz-adv-x="586" d="M286 697q0 8 3.5 14t10 10t13.5 4t13.5 -4t10 -10t3.5 -14q0 -7 -3.5 -13.5t-10 -10.5t-13.5 -4q-11 0 -19 8.5t-8 19.5zM520 152l19 -8q-24 -70 -83.5 -111.5t-144.5 -41.5q-106 0 -183 77q-76 77 -76 191q0 112 75 190q76 78 185 78q83 0 143 -41t83 -110l-18 -7 q-21 62 -75.5 100t-133.5 38q-99 0 -168 -72t-69 -175t69 -177q68 -72 169 -72q79 0 132 38t76 103z" />
<glyph unicode="&#x10c;" horiz-adv-x="809" d="M563 996h21l-140 -167h-21l-140 167h22l129 -146zM57 379q0 164 106 276q107 112 267 112q67 0 126 -21t100 -57q78 -67 108 -159l-19 -9q-29 83 -98 148q-25 24 -58.5 41.5t-74.5 27.5t-85 10q-152 0 -251 -109q-99 -107 -99 -258q0 -153 99 -262q100 -107 253 -107 q43 0 84.5 10t74.5 27.5t58 40.5q70 66 99 151l19 -9q-29 -88 -109 -161q-41 -37 -100.5 -58t-126.5 -21q-164 0 -268 112q-105 112 -105 275z" />
<glyph unicode="&#x10d;" horiz-adv-x="586" d="M443 764h21l-140 -167h-20l-140 167h20l129 -146zM520 152l19 -8q-24 -70 -83.5 -111.5t-144.5 -41.5q-106 0 -183 77q-76 77 -76 191q0 112 75 190q76 78 185 78q83 0 143 -41t83 -110l-18 -7q-21 62 -75.5 100t-133.5 38q-99 0 -168 -72t-69 -175t69 -177 q68 -72 169 -72q79 0 132 38t76 103z" />
<glyph unicode="&#x10e;" horiz-adv-x="766" d="M452 996h21l-139 -167h-22l-139 167h21l129 -146zM314 0h-201v760h202q180 0 292.5 -110t112.5 -271q0 -168 -114.5 -273.5t-291.5 -105.5zM314 740h-180v-721h181q165 0 274 102q109 103 109 257q0 155 -108 258q-110 104 -276 104z" />
<glyph unicode="&#x10f;" horiz-adv-x="671" d="M667 791h26l-30 -194h-13zM52 258q0 110 70 190q71 80 181 80q87 0 149 -48q64 -49 85 -122v432h21v-790h-21v162q-21 -73 -85 -122q-62 -48 -149 -48q-111 0 -181 78.5t-70 187.5zM74 259v-1q0 -104 64 -176q65 -70 167 -70q103 0 168 73q66 75 66 173v3q0 98 -67 173 q-66 74 -167 74q-102 0 -167 -72q-64 -73 -64 -177z" />
<glyph unicode="&#x110;" horiz-adv-x="844" d="M394 0h-202v760h202q180 0 292 -109q112 -110 112 -272q0 -168 -114 -273q-113 -106 -290 -106zM394 740h-181v-721h182q164 0 273 102t109 257t-109 258q-109 104 -274 104zM113 377v20h384v-20h-384z" />
<glyph unicode="&#x111;" horiz-adv-x="652" d="M633 645h-75v-645h-21v162q-21 -73 -85 -122q-62 -48 -149 -48q-111 0 -181 78.5t-70 187.5q0 110 70 190q71 80 181 80q87 0 149 -48q64 -49 85 -122v287h-215v18h215v127h21v-127h75v-18zM74 259v-1q0 -104 64 -176q65 -70 167 -70q103 0 168 73q66 75 66 173v3 q0 98 -67 173q-66 74 -167 74q-102 0 -167 -72q-64 -73 -64 -177z" />
<glyph unicode="&#x112;" horiz-adv-x="631" d="M503 862h-321v19h321v-19zM134 397h400v-20h-400v-358h437v-19h-458v760h453v-20h-432v-343z" />
<glyph unicode="&#x113;" horiz-adv-x="588" d="M463 630h-322v19h322v-19zM537 261h-463v-1q0 -102 67 -177q68 -72 169 -72q63 0 115.5 30.5t78.5 80.5l18 -10q-21 -37 -53.5 -64t-73.5 -42t-86 -15q-110 0 -184 79q-73 78 -73 190v2q0 106 72 185q72 80 176 80q81 0 136 -39q100 -69 101 -227zM300 507 q-89 0 -155.5 -68t-70.5 -160h442q-2 44 -14.5 82.5t-37 72.5t-67 53.5t-97.5 19.5z" />
<glyph unicode="&#x116;" horiz-adv-x="631" d="M316 910q0 7 3.5 13.5t9.5 10t13 3.5q6 0 11 -2t8.5 -6t6 -9t2.5 -10q0 -12 -8 -20t-20 -8q-10 0 -18 8t-8 20zM134 397h400v-20h-400v-358h437v-19h-458v760h453v-20h-432v-343z" />
<glyph unicode="&#x117;" horiz-adv-x="588" d="M275 697q0 12 7.5 20t19.5 8q7 0 13 -4t9.5 -10t3.5 -14q0 -11 -7.5 -19.5t-18.5 -8.5q-12 0 -19.5 8.5t-7.5 19.5zM537 261h-463v-1q0 -102 67 -177q68 -72 169 -72q63 0 115.5 30.5t78.5 80.5l18 -10q-21 -37 -53.5 -64t-73.5 -42t-86 -15q-110 0 -184 79 q-73 78 -73 190v2q0 106 72 185q72 80 176 80q81 0 136 -39q100 -69 101 -227zM300 507q-89 0 -155.5 -68t-70.5 -160h442q-2 44 -14.5 82.5t-37 72.5t-67 53.5t-97.5 19.5z" />
<glyph unicode="&#x118;" horiz-adv-x="632" d="M485 -127q0 -47 34.5 -70.5t84.5 -19.5v-18q-17 -2 -21 -2q-35 0 -62 12.5t-42.5 37t-15.5 58.5q0 61 88 129h-438v760h453v-20h-432v-343h400v-20h-400v-358h437v-19q-33 -29 -38 -35q-14 -13 -31 -40t-17 -52z" />
<glyph unicode="&#x119;" horiz-adv-x="588" d="M310 11q63 0 115.5 30.5t78.5 80.5l18 -10q-50 -89 -154 -114q-85 -71 -85 -125q0 -32 17.5 -53.5t44 -30.5t59.5 -6v-18q-18 -2 -23 -2q-53 0 -86.5 28.5t-33.5 79.5q0 56 80 122q-29 -2 -32 -2q-110 0 -184 79q-73 78 -73 190v2q0 106 72 185q72 80 176 80 q81 0 136 -39q100 -69 101 -227h-463v-1q0 -102 67 -177q68 -72 169 -72zM300 507q-89 0 -155.5 -68t-70.5 -160h442q-2 44 -14.5 82.5t-37 72.5t-67 53.5t-97.5 19.5z" />
<glyph unicode="&#x11a;" horiz-adv-x="631" d="M471 996h22l-140 -167h-20l-140 167h20l129 -146zM566 740h-432v-343h400v-20h-400v-358h437v-19h-458v760h453v-20z" />
<glyph unicode="&#x11b;" horiz-adv-x="588" d="M432 764h21l-140 -167h-20l-141 167h22l129 -146zM537 261h-463v-1q0 -102 67 -177q68 -72 169 -72q63 0 115.5 30.5t78.5 80.5l18 -10q-21 -37 -53.5 -64t-73.5 -42t-86 -15q-110 0 -184 79q-73 78 -73 190v2q0 106 72 185q72 80 176 80q81 0 136 -39q100 -69 101 -227z M300 507q-89 0 -155.5 -68t-70.5 -160h442q-2 44 -14.5 82.5t-37 72.5t-67 53.5t-97.5 19.5z" />
<glyph unicode="&#x11c;" horiz-adv-x="829" d="M304 829h-22l140 167h21l140 -167h-21l-129 146zM397 345h381v-20q0 -138 -98 -236q-97 -97 -250 -97q-161 0 -267 111q-106 110 -106 276q0 164 105 276q107 112 269 112q119 0 205 -64q86 -62 125 -164l-19 -8q-38 99 -119 158t-193 59q-154 0 -252 -108 q-99 -106 -99 -259q0 -156 100.5 -262.5t250.5 -106.5q136 0 232 86q96 87 96 225v3h-361v19z" />
<glyph unicode="&#x11d;" horiz-adv-x="651" d="M178 606h-21l140 167h21l140 -167h-22l-129 147zM538 518h21v-511q0 -132 -72 -199q-71 -67 -182 -67q-92 0 -152 39t-98 119l18 10q37 -77 92 -113t139 -36q110 0 172 63.5t62 181.5v157q-21 -73 -85 -122q-62 -48 -149 -48q-111 0 -181 78.5t-70 187.5q0 110 70 190 q71 80 181 80q87 0 149 -48q64 -49 85 -122v160zM540 258v3q0 98 -67 173q-66 74 -167 74q-102 0 -167 -72q-64 -73 -64 -177v-1q0 -104 64 -176q65 -70 167 -70t167 73q67 75 67 173z" />
<glyph unicode="&#x11e;" horiz-adv-x="829" d="M288 994h17q2 -62 35.5 -99t92.5 -37t92 36.5t36 99.5h16q0 -36 -10.5 -65t-30 -49t-46 -30.5t-57.5 -10.5q-65 0 -105 42t-40 113zM397 345h381v-20q0 -138 -98 -236q-97 -97 -250 -97q-161 0 -267 111q-106 110 -106 276q0 164 105 276q107 112 269 112q119 0 205 -64 q86 -62 125 -164l-19 -8q-38 99 -119 158t-193 59q-154 0 -252 -108q-99 -106 -99 -259q0 -156 100.5 -262.5t250.5 -106.5q136 0 232 86q96 87 96 225v3h-361v19z" />
<glyph unicode="&#x11f;" horiz-adv-x="651" d="M162 761h16q3 -63 36 -99t92.5 -36t92 36t35.5 99h16q0 -71 -39.5 -113t-104 -42t-104.5 42t-40 113zM538 518h21v-511q0 -132 -72 -199q-71 -67 -182 -67q-92 0 -152 39t-98 119l18 10q37 -77 92 -113t139 -36q110 0 172 63.5t62 181.5v157q-21 -73 -85 -122 q-62 -48 -149 -48q-111 0 -181 78.5t-70 187.5q0 110 70 190q71 80 181 80q87 0 149 -48q64 -49 85 -122v160zM540 258v3q0 98 -67 173q-66 74 -167 74q-102 0 -167 -72q-64 -73 -64 -177v-1q0 -104 64 -176q65 -70 167 -70t167 73q67 75 67 173z" />
<glyph unicode="&#x120;" horiz-adv-x="829" d="M404 910q0 12 8 19t18.5 7t19 -7t8.5 -19q0 -17 -13.5 -24t-27 0t-13.5 24zM397 345h381v-20q0 -138 -98 -236q-97 -97 -250 -97q-161 0 -267 111q-106 110 -106 276q0 164 105 276q107 112 269 112q119 0 205 -64q86 -62 125 -164l-19 -8q-38 99 -119 158t-193 59 q-154 0 -252 -108q-99 -106 -99 -259q0 -156 100.5 -262.5t250.5 -106.5q136 0 232 86q96 87 96 225v3h-361v19z" />
<glyph unicode="&#x121;" horiz-adv-x="650" d="M289 697q0 12 8 20t19 8q7 0 13 -4t9.5 -10t3.5 -14q0 -11 -7.5 -19.5t-18.5 -8.5t-19 8.5t-8 19.5zM538 518h21v-511q0 -132 -72 -199q-71 -67 -182 -67q-92 0 -152 39t-98 119l18 10q37 -77 92 -113t139 -36q110 0 172 63.5t62 181.5v157q-21 -73 -85 -122 q-62 -48 -149 -48q-111 0 -181 78.5t-70 187.5q0 110 70 190q71 80 181 80q87 0 149 -48q64 -49 85 -122v160zM540 258v3q0 98 -67 173q-66 74 -167 74q-102 0 -167 -72q-64 -73 -64 -177v-1q0 -104 64 -176q65 -70 167 -70t167 73q67 75 67 173z" />
<glyph unicode="&#x122;" horiz-adv-x="829" d="M397 345h381v-20q0 -138 -98 -236q-97 -97 -250 -97q-161 0 -267 111q-106 110 -106 276q0 164 105 276q107 112 269 112q119 0 205 -64q86 -62 125 -164l-19 -8q-38 99 -119 158t-193 59q-154 0 -252 -108q-99 -106 -99 -259q0 -156 100.5 -262.5t250.5 -106.5 q136 0 232 86q96 87 96 225v3h-361v19zM430 -123q-16 0 -23 13.5t0 27t23 13.5q13 0 22.5 -12t9.5 -30v-1q0 -26 -14.5 -53.5t-40.5 -46.5l-11 11q45 37 46 81q-6 -3 -12 -3z" />
<glyph unicode="&#x123;" horiz-adv-x="650" d="M319 653q16 0 22.5 -13.5t0 -27.5t-23.5 -14q-14 0 -22.5 12t-8.5 30v1q0 26 15 53.5t38 47.5l13 -12q-46 -36 -46 -80q4 3 12 3zM538 518h21v-511q0 -132 -72 -199q-71 -67 -182 -67q-92 0 -152 39t-98 119l18 10q37 -77 92 -113t139 -36q110 0 172 63.5t62 181.5v157 q-21 -73 -85 -122q-62 -48 -149 -48q-111 0 -181 78.5t-70 187.5q0 110 70 190q71 80 181 80q87 0 149 -48q64 -49 85 -122v160zM540 258v3q0 98 -67 173q-66 74 -167 74q-102 0 -167 -72q-64 -73 -64 -177v-1q0 -104 64 -176q65 -70 167 -70t167 73q67 75 67 173z" />
<glyph unicode="&#x126;" horiz-adv-x="800" d="M113 760h22v-160h529v160h22v-160h79v-19h-79v-581h-22v377h-529v-377h-22v581h-78v19h78v160zM664 581h-529v-184h529v184z" />
<glyph unicode="&#x127;" d="M113 790v-127h215v-18h-215v-268q16 58 68 103q53 47 132 47q98 0 153.5 -59.5t55.5 -164.5v-303h-21v301q0 96 -50 150.5t-140 54.5q-81 0 -140 -62q-58 -61 -58 -150v-294h-21v645h-76v18h76v127h21z" />
<glyph unicode="&#x128;" horiz-adv-x="246" d="M48 944q24 0 42.5 -12.5t43.5 -42.5q33 -42 66 -42q59 0 60 96h16q1 -37 -8.5 -63t-26.5 -39.5t-41 -13.5q-27 2 -42.5 12.5t-39.5 38.5q-13 17 -21.5 25.5t-21.5 15t-27 6.5q-59 0 -61 -96h-16q-1 55 19.5 85t57.5 30zM113 0v760h21v-760h-21z" />
<glyph unicode="&#x129;" horiz-adv-x="201" d="M24 722q25 0 43 -12.5t44 -44.5q33 -41 67 -41q58 0 60 96h15q1 -54 -19.5 -84.5t-55.5 -30.5q-25 0 -42.5 11.5t-39.5 38.5q-21 26 -36.5 36.5t-35.5 10.5q-58 0 -60 -96h-15q-1 55 19 85.5t56 30.5zM90 518h21v-518h-21v518z" />
<glyph unicode="&#x12a;" horiz-adv-x="246" d="M254 862h-262v19h262v-19zM134 760v-760h-21v760h21z" />
<glyph unicode="&#x12b;" horiz-adv-x="200" d="M228 630h-255v19h255v-19zM90 518h21v-518h-21v518z" />
<glyph unicode="&#x12c;" horiz-adv-x="246" d="M-21 994h16q2 -62 36 -99t92 -37q60 0 93 36t35 100h17q0 -71 -40 -113t-105 -42q-42 0 -74.5 18.5t-51 54t-18.5 82.5zM113 0v760h21v-760h-21z" />
<glyph unicode="&#x12d;" horiz-adv-x="201" d="M-44 761h17q2 -63 35.5 -99t92.5 -36q24 0 44 6t35 17.5t26 28.5t16.5 38t5.5 45h16q0 -71 -39.5 -113t-103.5 -42t-104.5 42t-40.5 113zM111 0h-21v518h21v-518z" />
<glyph unicode="&#x12e;" horiz-adv-x="246" d="M167 -217v-18q-18 -2 -22 -2q-54 0 -87.5 28.5t-33.5 79.5q0 60 89 129v760h21v-760l-40 -35q-14 -14 -31 -41q-16 -28 -16 -51q0 -47 34.5 -70.5t85.5 -19.5z" />
<glyph unicode="&#x12f;" horiz-adv-x="200" d="M74 697q-1 17 13 24t27.5 0t12.5 -24q0 -12 -8.5 -19.5t-18.5 -7.5t-18 7.5t-8 19.5zM144 -217v-18q-18 -2 -23 -2q-53 0 -86.5 28.5t-33.5 79.5q0 60 89 129v518h21v-518l-25 -22q-11 -10 -38 -48q-25 -33 -25 -57q0 -47 35 -70.5t86 -19.5z" />
<glyph unicode="&#x130;" horiz-adv-x="246" d="M97 910q0 7 3.5 13.5t9.5 10t13 3.5q12 0 19.5 -8t7.5 -19q0 -12 -7.5 -20t-19.5 -8q-11 0 -18.5 8t-7.5 20zM134 760v-760h-21v760h21z" />
<glyph unicode="&#x131;" horiz-adv-x="200" d="M90 518h21v-518h-21v518z" />
<glyph unicode="&#x132;" horiz-adv-x="819" d="M134 760v-760h-21v760h21zM517 -8q-138 0 -201 163l19 11q58 -154 180 -154q84 0 132 48.5t48 135.5v564h21v-564q0 -94 -53 -149t-146 -55z" />
<glyph unicode="&#x133;" horiz-adv-x="426" d="M74 697q-1 17 13 24t27.5 0t12.5 -24q0 -12 -8.5 -19.5t-18.5 -7.5t-18 7.5t-8 19.5zM354 697q0 -11 -7.5 -19.5t-18.5 -8.5q-8 0 -14 4t-9.5 10.5t-3.5 13.5q0 12 7.5 20t19.5 8q5 0 10 -2.5t8.5 -6t5.5 -8.5t2 -11zM90 518h21v-518h-21v518zM173 -237q11 -2 26 -2 q61 0 89.5 30t28.5 80v647h21v-646q0 -131 -139 -131q-3 0 -26 2v20z" />
<glyph unicode="&#x136;" horiz-adv-x="627" d="M113 760h21v-760h-21v760zM167 396l463 -396h-32l-464 396l440 364h33zM332 -69q13 0 22.5 -12t9.5 -30v-1q0 -26 -14.5 -53.5t-40.5 -46.5l-11 11q46 37 46 81q-5 -3 -12 -3q-16 0 -22.5 13.5t0 27t22.5 13.5z" />
<glyph unicode="&#x137;" horiz-adv-x="491" d="M113 0h-20v790h20v-790zM113 283l323 235h35l-325 -236l339 -282h-31zM259 -123q-16 0 -22.5 13.5t0 27t22.5 13.5q14 0 23 -12t9 -30v-1q0 -26 -14.5 -53.5t-39.5 -46.5l-12 11q47 37 47 81q-6 -3 -13 -3z" />
<glyph unicode="&#x139;" horiz-adv-x="559" d="M231 996h30l-120 -168h-17zM532 0h-419v760h21v-741h398v-19z" />
<glyph unicode="&#x13a;" horiz-adv-x="204" d="M200 1024h31l-121 -167h-16zM92 790h21v-790h-21v790z" />
<glyph unicode="&#x13b;" horiz-adv-x="559" d="M532 0h-419v760h21v-741h398v-19zM325 -123q-16 0 -22.5 13.5t0 27t22.5 13.5q14 0 23 -12t9 -30v-1q0 -26 -14.5 -53.5t-39.5 -46.5l-12 11q45 37 47 81q-6 -3 -13 -3z" />
<glyph unicode="&#x13c;" horiz-adv-x="204" d="M92 790h21v-790h-21v790zM104 -123q-17 0 -23 13.5t0.5 27t22.5 13.5q14 0 23 -12t9 -30v-1q0 -26 -14.5 -53.5t-40.5 -46.5l-11 11q45 37 46 81q-5 -3 -12 -3z" />
<glyph unicode="&#x13d;" horiz-adv-x="559" d="M445 776h25l-30 -193h-12zM532 0h-419v760h21v-741h398v-19z" />
<glyph unicode="&#x13e;" horiz-adv-x="242" d="M232 791h24l-29 -194h-14zM102 790h20v-790h-20v790z" />
<glyph unicode="&#x13f;" horiz-adv-x="559" d="M532 0h-419v760h21v-741h398v-19zM489 394q16 0 23 -14t0 -27.5t-23 -13.5q-17 -2 -23.5 12.5t0 29t23.5 13.5z" />
<glyph unicode="&#x140;" horiz-adv-x="310" d="M102 790h20v-790h-20v790zM230 366q0 11 8 19t19 8q12 0 19.5 -8t7.5 -19q0 -12 -7.5 -20t-19.5 -8q-11 0 -19 8t-8 20z" />
<glyph unicode="&#x141;" horiz-adv-x="570" d="M145 345v-326h397v-19h-419v335l-102 -48v21l102 48v404h22v-393l255 123v-21z" />
<glyph unicode="&#x142;" horiz-adv-x="296" d="M269 467l-109 -57v-410h-20v399l-108 -57v21l108 56v371h20v-360l109 57v-20z" />
<glyph unicode="&#x143;" horiz-adv-x="823" d="M508 996h30l-120 -168h-16zM691 33v727h20v-760h-21l-557 728v-728h-20v760h21z" />
<glyph unicode="&#x144;" horiz-adv-x="610" d="M406 773h30l-120 -167h-16zM92 0v518h21v-141q16 58 68 103q53 47 132 47q98 0 153.5 -59.5t55.5 -164.5v-303h-21v301q0 96 -50 150.5t-140 54.5q-81 0 -140 -62q-58 -61 -58 -150v-294h-21z" />
<glyph unicode="&#x145;" horiz-adv-x="823" d="M691 33v727h20v-760h-21l-557 728v-728h-20v760h21zM409 -123q-16 0 -22.5 13.5t0 27t22.5 13.5q14 0 23 -11.5t9 -30.5v-1q0 -16 -6.5 -34.5t-18.5 -35.5t-28 -30l-13 11q47 37 47 81q-6 -3 -13 -3z" />
<glyph unicode="&#x146;" d="M92 518h21v-141q16 58 68 103q53 47 132 47q98 0 153.5 -59.5t55.5 -164.5v-303h-21v301q0 96 -50 150.5t-140 54.5q-81 0 -140 -62q-58 -61 -58 -150v-294h-21v518zM309 -123q-16 0 -22.5 13.5t0 27t22.5 13.5q14 0 23 -12t9 -30v-1q0 -26 -14.5 -53.5t-39.5 -46.5 l-12 11q46 37 47 81q-6 -3 -13 -3z" />
<glyph unicode="&#x147;" horiz-adv-x="823" d="M556 986h21l-140 -166h-20l-141 166h22l129 -145zM113 760h21l557 -727v727h20v-760h-21l-557 728v-728h-20v760z" />
<glyph unicode="&#x148;" d="M434 764h21l-141 -167h-20l-140 167h22l129 -146zM92 518h21v-141q16 58 68 103q53 47 132 47q98 0 153.5 -59.5t55.5 -164.5v-303h-21v301q0 96 -50 150.5t-140 54.5q-81 0 -140 -62q-58 -61 -58 -150v-294h-21v518z" />
<glyph unicode="&#x14a;" horiz-adv-x="823" d="M691 760h20v-888q0 -131 -138 -131q-4 0 -27 2v20q12 -2 27 -2q61 0 89.5 30t28.5 80v128l-558 729v-728h-20v760h21l557 -727v727z" />
<glyph unicode="&#x14b;" d="M501 -129v430q0 96 -50 150.5t-140 54.5q-81 0 -140 -62q-58 -61 -58 -150v-294h-21v518h21v-141q16 58 68 103q53 47 132 47q98 0 153.5 -59.5t55.5 -164.5v-431q0 -131 -139 -131q-3 0 -26 2v20q12 -2 26 -2q42 0 69 15t38 38.5t11 56.5z" />
<glyph unicode="&#x14c;" horiz-adv-x="860" d="M590 862h-321v19h321v-19zM430 -8q-162 0 -268 112q-105 112 -105 275.5t105 275.5q107 112 268 112q162 0 267 -112q106 -112 106 -275q0 -164 -106 -275q-105 -113 -267 -113zM431 12q152 0 252 106q99 107 99 260.5t-101 261.5q-100 108 -252 108t-251 -107 q-99 -106 -99 -260q0 -155 99 -262q101 -107 253 -107z" />
<glyph unicode="&#x14d;" horiz-adv-x="637" d="M479 630h-321v19h321v-19zM317 -9q-114 0 -189 77q-76 77 -76 191t76 191q77 77 190 77q115 0 189 -78q76 -77 76 -189q0 -114 -76 -191q-76 -78 -190 -78zM317 507q-104 0 -174 -71q-69 -72 -69 -176q0 -106 70 -178q71 -71 174 -71q105 0 174 71q70 72 70 177t-70 177 q-69 71 -175 71z" />
<glyph unicode="&#x150;" horiz-adv-x="860" d="M454 996h30l-120 -168h-17zM594 996h31l-122 -168h-15zM430 -8q-162 0 -268 112q-105 112 -105 275.5t105 275.5q107 112 268 112q162 0 267 -112q106 -112 106 -275q0 -164 -106 -275q-105 -113 -267 -113zM431 12q152 0 252 106q99 107 99 260.5t-101 261.5 q-100 108 -252 108t-251 -107q-99 -106 -99 -260q0 -155 99 -262q101 -107 253 -107z" />
<glyph unicode="&#x151;" horiz-adv-x="635" d="M343 773h30l-121 -167h-15zM483 773h30l-121 -167h-16zM317 -9q-114 0 -189 77q-76 77 -76 191t76 191q77 77 190 77q115 0 189 -78q76 -77 76 -189q0 -114 -76 -191q-76 -78 -190 -78zM317 507q-104 0 -174 -71q-69 -72 -69 -176q0 -106 70 -178q71 -71 174 -71 q105 0 174 71q70 72 70 177t-70 177q-69 71 -175 71z" />
<glyph unicode="&#x152;" horiz-adv-x="1280" d="M763 760h453v-20h-431v-343h398v-20h-398v-358h435v-19h-457v211q0 39 1 45h-1q-30 -120 -118 -192q-86 -72 -215 -72q-162 0 -268 112q-105 112 -105 275.5t105 275.5q107 112 268 112q129 0 216 -72q87 -73 117 -194h1q-1 5 -1 44v215zM79 381q0 -155 99 -262 q101 -107 253 -107q149 0 240 104q92 107 92 258v6q0 154 -93 260q-91 108 -241 108q-152 0 -251 -107q-99 -106 -99 -260z" />
<glyph unicode="&#x153;" horiz-adv-x="1095" d="M571 194q-20 -89 -89 -146q-68 -57 -165 -57q-114 0 -189 77q-76 77 -76 191t76 191q77 77 190 77q96 0 164 -57q69 -55 89 -144q21 88 86 143q66 58 152 58q82 0 135 -39q100 -69 102 -227h-464v-1q0 -102 67 -177q68 -72 171 -72q62 0 114.5 30.5t79.5 80.5l16 -10 q-30 -56 -87 -88.5t-124 -32.5q-94 0 -160 57q-67 56 -88 146zM317 507q-106 0 -174.5 -71.5t-68.5 -175.5q0 -106 70 -178q71 -71 174 -71q105 0 174 71.5t69 176.5t-70 177q-69 71 -174 71zM809 507q-90 0 -155 -68q-67 -68 -71 -160h441q-1 43 -13.5 82.5t-37.5 73 t-67 53t-97 19.5z" />
<glyph unicode="&#x154;" horiz-adv-x="670" d="M415 996h30l-120 -168h-17zM134 329v-329h-21v760h227q131 0 201.5 -57t70.5 -157q0 -101 -77 -159q-75 -58 -205 -58h-196zM134 740v-392h196q121 0 191 53.5t70 142.5q0 92 -66 144t-188 52h-203zM342 335l24 5l264 -340h-27z" />
<glyph unicode="&#x155;" horiz-adv-x="343" d="M266 773h30l-120 -167h-17zM94 518h20v-151q22 72 81 116t138 42v-20h-10q-98 0 -153 -70q-56 -70 -56 -171v-264h-20v518z" />
<glyph unicode="&#x156;" horiz-adv-x="670" d="M134 0h-21v760h227q131 0 201.5 -57t70.5 -157q0 -101 -77 -159q-75 -58 -205 -58h-196v-329zM337 740h-203v-392h196q121 0 191 53.5t70 142.5q0 92 -66 144t-188 52zM630 0h-27l-261 335l24 5zM334 -123q-16 0 -23 13.5t0 27t23 13.5q13 0 22.5 -12t9.5 -30v-1 q0 -26 -14.5 -53.5t-40.5 -46.5l-11 11q46 37 46 81q-6 -3 -12 -3z" />
<glyph unicode="&#x157;" horiz-adv-x="343" d="M94 518h20v-151q22 72 81 116t138 42v-20h-10q-98 0 -153 -70q-56 -70 -56 -171v-264h-20v518zM117 -123q-11 0 -18.5 7.5t-7.5 19.5t7.5 19.5t18.5 7.5q14 0 23 -12t9 -30v-1q0 -17 -6 -35t-18.5 -35.5t-29.5 -29.5l-13 11q47 37 48 81q-7 -3 -13 -3z" />
<glyph unicode="&#x158;" horiz-adv-x="670" d="M458 996h21l-139 -167h-22l-140 167h22l129 -146zM134 0h-21v760h227q131 0 201.5 -57t70.5 -157q0 -101 -77 -159q-75 -58 -205 -58h-196v-329zM337 740h-203v-392h196q121 0 191 53.5t70 142.5q0 92 -66 144t-188 52zM630 0h-27l-261 335l24 5z" />
<glyph unicode="&#x159;" horiz-adv-x="343" d="M340 764h22l-140 -167h-20l-140 167h20l129 -146zM114 518v-151q22 72 81 116t138 42v-20h-10q-98 0 -153 -70q-56 -70 -56 -171v-264h-20v518h20z" />
<glyph unicode="&#x15a;" horiz-adv-x="582" d="M383 996h30l-121 -168h-16zM296 -8q-169 0 -241 189l19 10q34 -88 87.5 -133.5t136.5 -45.5q84 0 144 51q59 51 59 134q0 64 -42 107t-118 64l-109 29q-53 14 -86.5 34t-52.5 54.5t-19 83.5q0 86 65 142q66 57 155 57q162 0 226 -158l-19 -10q-25 68 -77.5 108.5 t-130.5 40.5t-138 -51.5t-60 -126.5q0 -63 34 -99t110 -57l110 -30q82 -21 128 -68t46 -118q0 -92 -65 -150q-65 -57 -162 -57z" />
<glyph unicode="&#x15b;" horiz-adv-x="464" d="M325 773h31l-121 -167h-17zM237 -9q-131 0 -189 122l17 9q29 -58 70.5 -84.5t102.5 -26.5q58 0 103 34q47 35 47 85q0 56 -38 80q-37 26 -123 45q-87 19 -125 47q-37 28 -37 88t53 98q54 39 117 39q121 0 170 -110l-17 -10q-47 101 -155 101q-53 0 -100 -34 q-47 -33 -47 -83q0 -52 33 -77q34 -23 115 -40q94 -21 134.5 -52t40.5 -91q0 -62 -53 -101q-52 -39 -119 -39z" />
<glyph unicode="&#x15c;" horiz-adv-x="582" d="M165 829h-21l139 167h22l139 -167h-21l-129 146zM296 -8q-169 0 -241 189l19 10q34 -88 87.5 -133.5t136.5 -45.5q84 0 144 51q59 51 59 134q0 64 -42 107t-118 64l-109 29q-53 14 -86.5 34t-52.5 54.5t-19 83.5q0 86 65 142q66 57 155 57q162 0 226 -158l-19 -10 q-25 68 -77.5 108.5t-130.5 40.5t-138 -51.5t-60 -126.5q0 -63 34 -99t110 -57l110 -30q82 -21 128 -68t46 -118q0 -92 -65 -150q-65 -57 -162 -57z" />
<glyph unicode="&#x15d;" horiz-adv-x="464" d="M106 606h-22l140 167h21l140 -167h-21l-129 147zM237 -9q-131 0 -189 122l17 9q29 -58 70.5 -84.5t102.5 -26.5q58 0 103 34q47 35 47 85q0 56 -38 80q-37 26 -123 45q-87 19 -125 47q-37 28 -37 88t53 98q54 39 117 39q121 0 170 -110l-17 -10q-47 101 -155 101 q-53 0 -100 -34q-47 -33 -47 -83q0 -52 33 -77q34 -23 115 -40q94 -21 134.5 -52t40.5 -91q0 -62 -53 -101q-52 -39 -119 -39z" />
<glyph unicode="&#x15e;" horiz-adv-x="582" d="M523 199q0 -86 -58 -143q-56 -55 -148 -63q17 -34 17 -66q0 -75 -40.5 -118t-111.5 -43q-25 0 -41 4v19q16 -4 40 -4q64 0 97 38t33 106q0 35 -15 63q-169 0 -241 189l19 10q34 -88 87.5 -133.5t136.5 -45.5q84 0 144 51q59 51 59 134q0 64 -42 107t-118 64l-109 29 q-79 21 -118.5 60.5t-39.5 111.5q0 86 65 142q66 57 155 57q162 0 226 -158l-19 -10q-25 68 -77.5 108.5t-130.5 40.5t-138 -51.5t-60 -126.5q0 -63 34 -99t110 -57l110 -30q174 -48 174 -186z" />
<glyph unicode="&#x15f;" horiz-adv-x="464" d="M409 131q0 -56 -46 -95q-45 -38 -108 -44q17 -34 17 -65q0 -75 -40.5 -118t-111.5 -43q-24 0 -40 4v19q16 -4 40 -4q63 0 96.5 38t33.5 106q0 32 -14 62q-130 0 -188 122l17 9q29 -58 70.5 -84.5t102.5 -26.5q58 0 103 34q47 35 47 85q0 56 -38 80q-37 26 -123 45 q-87 19 -125 47q-37 28 -37 88t53 98q54 39 117 39q121 0 170 -110l-17 -10q-47 101 -155 101q-53 0 -100 -34q-47 -33 -47 -83q0 -52 33 -77q34 -23 115 -40q94 -21 134.5 -52t40.5 -91z" />
<glyph unicode="&#x160;" horiz-adv-x="582" d="M416 996h21l-139 -167h-22l-139 167h21l129 -146zM296 -8q-169 0 -241 189l19 10q34 -88 87.5 -133.5t136.5 -45.5q84 0 144 51q59 51 59 134q0 64 -42 107t-118 64l-109 29q-53 14 -86.5 34t-52.5 54.5t-19 83.5q0 86 65 142q66 57 155 57q162 0 226 -158l-19 -10 q-25 68 -77.5 108.5t-130.5 40.5t-138 -51.5t-60 -126.5q0 -63 34 -99t110 -57l110 -30q82 -21 128 -68t46 -118q0 -92 -65 -150q-65 -57 -162 -57z" />
<glyph unicode="&#x161;" horiz-adv-x="464" d="M357 764h21l-139 -167h-21l-140 167h21l129 -146zM237 -9q-131 0 -189 122l17 9q29 -58 70.5 -84.5t102.5 -26.5q58 0 103 34q47 35 47 85q0 56 -38 80q-37 26 -123 45q-87 19 -125 47q-37 28 -37 88t53 98q54 39 117 39q121 0 170 -110l-17 -10q-47 101 -155 101 q-53 0 -100 -34q-47 -33 -47 -83q0 -52 33 -77q34 -23 115 -40q94 -21 134.5 -52t40.5 -91q0 -62 -53 -101q-52 -39 -119 -39z" />
<glyph unicode="&#x162;" horiz-adv-x="592" d="M328 -73q0 -49 -18 -85.5t-52.5 -56t-80.5 -19.5q-25 0 -42 4v19q17 -4 41 -4q63 0 96.5 38t33.5 106q0 37 -19 71h-1v740h-263v20h546v-20h-262v-740q21 -39 21 -73z" />
<glyph unicode="&#x163;" horiz-adv-x="334" d="M259 16q24 0 38 3l-1 -19q-13 -4 -37 -4q-32 0 -55 6q21 -38 21 -75q0 -49 -18 -85.5t-52.5 -56t-80.5 -19.5q-24 0 -41 4v19q17 -4 40 -4q42 0 71.5 17.5t44 49.5t14.5 77q0 46 -25 83q-50 27 -50 115v373h-105v18h105v148h20v-148h148v-18h-148v-370q0 -62 24.5 -88 t86.5 -26z" />
<glyph unicode="&#x164;" horiz-adv-x="592" d="M426 996h21l-140 -167h-21l-140 167h22l129 -146zM23 740v20h546v-20h-262v-740h-21v740h-263z" />
<glyph unicode="&#x165;" horiz-adv-x="334" d="M291 791h24l-29 -194h-13zM296 0q-13 -4 -37 -4q-71 0 -101 30.5t-30 100.5v373h-105v18h105v148h20v-148h148v-18h-148v-370q0 -62 24.5 -88t86.5 -26q24 0 38 3z" />
<glyph unicode="&#x166;" horiz-adv-x="592" d="M569 740h-262v-343h184v-20h-184v-377h-21v377h-157v20h157v343h-263v20h546v-20z" />
<glyph unicode="&#x167;" horiz-adv-x="343" d="M304 500h-149v-204h134v-19h-134v-147q0 -62 24.5 -88t86.5 -26q23 0 38 3v-19q-13 -4 -38 -4q-72 0 -101.5 30.5t-29.5 100.5v150h-101v19h101v204h-105v18h105v148h20v-148h149v-18z" />
<glyph unicode="&#x168;" horiz-adv-x="753" d="M299 944q25 0 43 -12.5t43 -42.5q33 -42 66 -42q59 0 60 96h17q0 -55 -20.5 -85.5t-56.5 -30.5q-19 2 -33 8.5t-23 15t-25 27.5q-21 25 -35.5 36t-35.5 11q-59 0 -60 -96h-17q0 37 9 63t26.5 39t41.5 13zM652 301q0 -145 -71.5 -227.5t-203.5 -82.5q-133 0 -204 84 t-71 225v460h21v-460q0 -137 68 -213t187 -76q127 0 189 79q63 81 63 208v462h22v-459z" />
<glyph unicode="&#x169;" d="M226 722q17 0 31.5 -7t26 -18t28.5 -32q33 -41 67 -41q59 0 60 96h16q1 -54 -19.5 -84.5t-56.5 -30.5q-24 0 -41.5 11.5t-39.5 38.5q-21 26 -36.5 36.5t-35.5 10.5q-59 0 -60 -96h-16q0 55 20 85.5t56 30.5zM514 518v-518h-20v141q-17 -59 -69 -104q-53 -46 -132 -46 q-98 0 -153.5 59.5t-55.5 164.5v303h21v-301q0 -96 51 -151t139 -55q81 0 140 61q59 62 59 152v294h20z" />
<glyph unicode="&#x16a;" horiz-adv-x="753" d="M537 862h-321v19h321v-19zM652 301q0 -145 -71.5 -227.5t-203.5 -82.5q-133 0 -204 84t-71 225v460h21v-460q0 -137 68 -213t187 -76q127 0 189 79q63 81 63 208v462h22v-459z" />
<glyph unicode="&#x16b;" horiz-adv-x="609" d="M463 630h-322v19h322v-19zM514 518v-518h-20v141q-17 -59 -69 -104q-53 -46 -132 -46q-98 0 -153.5 59.5t-55.5 164.5v303h21v-301q0 -96 51 -151t139 -55q81 0 140 61q59 62 59 152v294h20z" />
<glyph unicode="&#x16e;" horiz-adv-x="753" d="M281 905q0 41 28.5 69t68.5 28t68.5 -28t28.5 -69q0 -40 -28.5 -68t-68.5 -28t-68.5 28t-28.5 68zM378 985q-34 0 -55.5 -22.5t-21.5 -56.5q0 -23 9.5 -41t27.5 -28.5t40 -10.5q33 0 55.5 23t22.5 57q0 21 -10.5 39t-28.5 29t-39 11zM652 301q0 -145 -71.5 -227.5 t-203.5 -82.5q-133 0 -204 84t-71 225v460h21v-460q0 -137 68 -213t187 -76q127 0 189 79q63 81 63 208v462h22v-459z" />
<glyph unicode="&#x16f;" horiz-adv-x="609" d="M204 683q0 40 28.5 68.5t68.5 28.5q26 0 48.5 -13t35.5 -35.5t13 -48.5q0 -41 -28.5 -69t-68.5 -28t-68.5 28t-28.5 69zM301 762q-34 0 -56 -22.5t-22 -56.5q0 -33 22 -56t56 -23q32 0 54.5 23t22.5 56q0 32 -22.5 55.5t-54.5 23.5zM514 518v-518h-20v141 q-17 -59 -69 -104q-53 -46 -132 -46q-98 0 -153.5 59.5t-55.5 164.5v303h21v-301q0 -96 51 -151t139 -55q81 0 140 61q59 62 59 152v294h20z" />
<glyph unicode="&#x170;" horiz-adv-x="753" d="M469 996h31l-121 -168h-16zM652 301q0 -145 -71.5 -227.5t-203.5 -82.5q-133 0 -204 84t-71 225v460h21v-460q0 -137 68 -213t187 -76q127 0 189 79q63 81 63 208v462h22v-459z" />
<glyph unicode="&#x171;" d="M323 773h30l-120 -167h-17zM463 773h30l-121 -167h-16zM514 518v-518h-20v141q-17 -59 -69 -104q-53 -46 -132 -46q-98 0 -153.5 59.5t-55.5 164.5v303h21v-301q0 -96 51 -151t139 -55q81 0 140 61q59 62 59 152v294h20z" />
<glyph unicode="&#x172;" horiz-adv-x="753" d="M630 760h22v-459q0 -124 -53.5 -203.5t-153.5 -99.5q-84 -71 -84 -125q0 -47 35 -70.5t85 -19.5v-18q-17 -2 -22 -2q-35 0 -62 12.5t-42.5 37t-15.5 58.5q0 58 81 122q-37 -2 -43 -2q-133 0 -204 84t-71 225v460h21v-460q0 -137 68 -213t187 -76q127 0 189 79 q63 81 63 208v462z" />
<glyph unicode="&#x173;" d="M428 -127q0 -47 34.5 -70.5t84.5 -19.5v-18q-17 -2 -21 -2q-54 0 -87.5 28.5t-33.5 79.5q0 61 89 129v141q-17 -59 -69 -104q-53 -46 -132 -46q-98 0 -153.5 59.5t-55.5 164.5v303h21v-301q0 -96 51 -151t139 -55q81 0 140 61q59 62 59 152v294h20v-518q-33 -29 -39 -35 q-13 -13 -30 -40t-17 -52z" />
<glyph unicode="&#x174;" horiz-adv-x="1059" d="M401 829h-22l140 167h21l140 -167h-21l-129 146zM793 0h-23l-240 721l-241 -721h-23l-234 760h22l224 -732l243 732h17l244 -732l224 732h21z" />
<glyph unicode="&#x175;" horiz-adv-x="832" d="M288 606h-21l139 167h22l139 -167h-21l-129 147zM616 0h-21l-179 492l-174 -492h-22l-191 518h22l180 -493l175 493h21l179 -493l177 493h20z" />
<glyph unicode="&#x176;" horiz-adv-x="676" d="M210 829h-21l140 167h21l140 -167h-21l-129 146zM349 327v-327h-21v327l-298 433h25l285 -414l281 414h25z" />
<glyph unicode="&#x177;" horiz-adv-x="560" d="M159 606h-20l139 167h21l139 -167h-20l-129 147zM163 -255h-22l137 282l-252 491h22l241 -470l229 470h21z" />
<glyph unicode="&#x178;" horiz-adv-x="676" d="M230 910q0 11 7.5 19t18.5 8q6 0 11 -2t8.5 -6t5.5 -9t2 -10q0 -12 -7.5 -20t-19.5 -8q-11 0 -18.5 8t-7.5 20zM394 910q-1 16 13 23t27.5 0t12.5 -23q0 -17 -13.5 -24t-26.5 0t-13 24zM621 760h25l-297 -433v-327h-21v327l-298 433h25l285 -414z" />
<glyph unicode="&#x179;" horiz-adv-x="594" d="M391 996h30l-121 -168h-16zM46 760h510v-20l-502 -721h504v-19h-528v19l502 721h-486v20z" />
<glyph unicode="&#x17a;" horiz-adv-x="484" d="M327 773h30l-120 -167h-17zM440 518v-18l-377 -482h378v-18h-404v18l378 482h-368v18h393z" />
<glyph unicode="&#x17b;" horiz-adv-x="594" d="M268 910q0 12 8.5 19t18.5 7t18.5 -7t8.5 -19q0 -17 -13.5 -24t-27 0t-13.5 24zM46 760h510v-20l-502 -721h504v-19h-528v19l502 721h-486v20z" />
<glyph unicode="&#x17c;" horiz-adv-x="483" d="M211 697q0 23 22 26q23 4 30 -14q2 -5 2 -12q0 -12 -8.5 -19.5t-18.5 -7.5t-18.5 7.5t-8.5 19.5zM440 518v-18l-377 -482h378v-18h-404v18l378 482h-368v18h393z" />
<glyph unicode="&#x17d;" horiz-adv-x="594" d="M430 996h21l-140 -167h-20l-141 167h22l129 -146zM532 740h-486v20h510v-20l-502 -721h504v-19h-528v19z" />
<glyph unicode="&#x17e;" horiz-adv-x="483" d="M371 764h21l-140 -167h-20l-140 167h21l129 -146zM47 500v18h393v-18l-377 -482h378v-18h-404v18l378 482h-368z" />
<glyph unicode="&#x192;" horiz-adv-x="566" d="M534 761v-17h-12q-70 0 -114 -41t-58 -113l-14 -72h151v-18h-154l-67 -343q-15 -78 -62.5 -122t-124.5 -44q-13 0 -16 1v18h11q143 0 173 157l64 333h-129v18h133l15 76q15 79 63.5 123.5t123.5 44.5q2 0 8.5 -0.5t8.5 -0.5z" />
<glyph unicode="&#x1b5;" horiz-adv-x="604" d="M304 377l-250 -358h504v-19h-528v19l249 358h-229v20h243l239 343h-486v20h510v-20l-239 -343h245v-20h-258z" />
<glyph unicode="&#x1b6;" horiz-adv-x="487" d="M255 261l-190 -243h378v-18h-404v18l190 243h-179v17h192l174 222h-368v18h394v-18l-173 -222h175v-17h-189z" />
<glyph unicode="&#x1cd;" horiz-adv-x="725" d="M492 996h21l-141 -167h-20l-140 167h22l129 -146zM695 0l-101 225h-463l-102 -225h-22l346 760h20l346 -760h-24zM363 732l-222 -488h443z" />
<glyph unicode="&#x1ce;" horiz-adv-x="548" d="M396 764h21l-140 -167h-21l-140 167h22l129 -146zM462 0h-21v127h-1q-27 -67 -84.5 -101.5t-129.5 -34.5q-76 0 -124 38.5t-48 105.5q0 71 59 107q61 37 143 37h185v49q0 85 -45 132t-129 47q-135 0 -188 -116l-18 9q27 58 79 92.5t127 34.5q90 0 142.5 -52t52.5 -147 v-328zM441 211v50h-183q-41 0 -82 -11q-27 -7 -49 -22.5t-36.5 -39.5t-14.5 -52q0 -59 42.5 -92t108.5 -33q89 0 151 55q63 56 63 145z" />
<glyph unicode="&#x1cf;" horiz-adv-x="265" d="M263 996h20l-139 -167h-21l-139 167h21l129 -146zM122 0v760h22v-760h-22z" />
<glyph unicode="&#x1d0;" horiz-adv-x="200" d="M230 764h21l-139 -167h-22l-139 167h21l129 -146zM111 0h-21v518h21v-518z" />
<glyph unicode="&#x1d1;" horiz-adv-x="860" d="M561 996h21l-140 -167h-21l-140 167h22l129 -146zM430 -8q-162 0 -268 112q-105 112 -105 275.5t105 275.5q107 112 268 112q162 0 267 -112q106 -112 106 -275q0 -164 -106 -275q-105 -113 -267 -113zM431 12q152 0 252 106q99 107 99 260.5t-101 261.5 q-100 108 -252 108t-251 -107q-99 -106 -99 -260q0 -155 99 -262q101 -107 253 -107z" />
<glyph unicode="&#x1d2;" horiz-adv-x="635" d="M446 764h22l-141 -167h-20l-140 167h21l129 -146zM317 -9q-114 0 -189 77q-76 77 -76 191t76 191q77 77 190 77q115 0 189 -78q76 -77 76 -189q0 -114 -76 -191q-76 -78 -190 -78zM317 507q-104 0 -174 -71q-69 -72 -69 -176q0 -106 70 -178q71 -71 174 -71q105 0 174 71 q70 72 70 177t-70 177q-69 71 -175 71z" />
<glyph unicode="&#x1d3;" horiz-adv-x="753" d="M505 996h22l-140 -167h-21l-140 167h21l129 -146zM102 300v460h21v-460q0 -137 68 -213t187 -76q127 0 189 79q63 81 63 208v462h22v-459q0 -145 -71.5 -227.5t-203.5 -82.5q-133 0 -204 84t-71 225z" />
<glyph unicode="&#x1d4;" d="M429 764h21l-140 -167h-21l-140 167h22l129 -146zM514 0h-20v141q-17 -59 -69 -104q-53 -46 -132 -46q-98 0 -153.5 59.5t-55.5 164.5v303h21v-301q0 -96 51 -151t139 -55q81 0 140 61q59 62 59 152v294h20v-518z" />
<glyph unicode="&#x1d5;" horiz-adv-x="753" d="M538 943h-321v18h321v-18zM269 834q0 7 3.5 13.5t9.5 10t13 3.5q11 0 19 -8t8 -19q0 -7 -3.5 -13.5t-10 -10.5t-13.5 -4q-11 0 -18.5 8.5t-7.5 19.5zM433 834q0 11 7.5 19t19.5 8q11 0 18.5 -8t7.5 -19q0 -7 -3.5 -13.5t-9.5 -10.5t-13 -4q-6 0 -11 2.5t-8.5 6t-5.5 8.5 t-2 11zM652 301q0 -145 -71.5 -227.5t-203.5 -82.5q-133 0 -204 84t-71 225v460h21v-460q0 -137 68 -213t187 -76q127 0 189 79q63 81 63 208v462h22v-459z" />
<glyph unicode="&#x1d6;" d="M462 791h-322v18h322v-18zM197 656q-1 22 22 26q22 3 29 -15q3 -5 2 -11q0 -13 -8 -20t-18 -7t-18.5 7t-8.5 20zM349 656q0 12 8.5 19t19 7t19 -7t8.5 -19q0 -13 -8.5 -20t-19 -7t-19 7t-8.5 20zM514 518v-518h-20v141q-17 -59 -69 -104q-53 -46 -132 -46 q-98 0 -153.5 59.5t-55.5 164.5v303h21v-301q0 -96 51 -151t139 -55q81 0 140 61q59 62 59 152v294h20z" />
<glyph unicode="&#x1d7;" horiz-adv-x="753" d="M467 1089h29l-115 -158h-16zM269 834q0 7 3.5 13.5t9.5 10t13 3.5q11 0 19 -8t8 -19q0 -7 -3.5 -13.5t-10 -10.5t-13.5 -4q-11 0 -18.5 8.5t-7.5 19.5zM433 834q0 11 7.5 19t19.5 8q11 0 18.5 -8t7.5 -19q0 -7 -3.5 -13.5t-9.5 -10.5t-13 -4q-6 0 -11 2.5t-8.5 6 t-5.5 8.5t-2 11zM652 301q0 -145 -71.5 -227.5t-203.5 -82.5q-133 0 -204 84t-71 225v460h21v-460q0 -137 68 -213t187 -76q127 0 189 79q63 81 63 208v462h22v-459z" />
<glyph unicode="&#x1d8;" d="M400 920h30l-115 -158h-15zM197 656q-1 22 22 26q22 3 29 -15q3 -5 2 -11q0 -13 -8 -20t-18 -7t-18.5 7t-8.5 20zM349 656q0 12 8.5 19t19 7t19 -7t8.5 -19q0 -13 -8.5 -20t-19 -7t-19 7t-8.5 20zM514 518v-518h-20v141q-17 -59 -69 -104q-53 -46 -132 -46 q-98 0 -153.5 59.5t-55.5 164.5v303h21v-301q0 -96 51 -151t139 -55q81 0 140 61q59 62 59 152v294h20z" />
<glyph unicode="&#x1d9;" horiz-adv-x="753" d="M499 1089h21l-131 -157h-21l-131 157h20l121 -135zM269 834q0 7 3.5 13.5t9.5 10t13 3.5q11 0 19 -8t8 -19q0 -7 -3.5 -13.5t-10 -10.5t-13.5 -4q-11 0 -18.5 8.5t-7.5 19.5zM433 834q0 11 7.5 19t19.5 8q11 0 18.5 -8t7.5 -19q0 -7 -3.5 -13.5t-9.5 -10.5t-13 -4 q-6 0 -11 2.5t-8.5 6t-5.5 8.5t-2 11zM102 300v460h21v-460q0 -137 68 -213t187 -76q127 0 189 79q63 81 63 208v462h22v-459q0 -145 -71.5 -227.5t-203.5 -82.5q-133 0 -204 84t-71 225z" />
<glyph unicode="&#x1da;" d="M420 920h21l-130 -158h-21l-130 158h21l120 -136zM197 656q-1 22 22 26q22 3 29 -15q3 -5 2 -11q0 -13 -8 -20t-18 -7t-18.5 7t-8.5 20zM349 656q0 12 8.5 19t19 7t19 -7t8.5 -19q0 -13 -8.5 -20t-19 -7t-19 7t-8.5 20zM514 0h-20v141q-17 -59 -69 -104q-53 -46 -132 -46 q-98 0 -153.5 59.5t-55.5 164.5v303h21v-301q0 -96 51 -151t139 -55q81 0 140 61q59 62 59 152v294h20v-518z" />
<glyph unicode="&#x1db;" horiz-adv-x="753" d="M389 931h-17l-114 158h30zM322 834q0 -17 -13.5 -24t-27 0t-13.5 24q0 13 8.5 20t18.5 7t18.5 -7t8.5 -20zM486 834q0 -12 -8 -20t-19 -8t-18.5 8.5t-7.5 19.5q0 7 3.5 13.5t9.5 10t13 3.5q11 0 19 -8t8 -19zM102 300v460h21v-460q0 -137 68 -213t187 -76q127 0 189 79 q63 81 63 208v462h22v-459q0 -145 -71.5 -227.5t-203.5 -82.5q-133 0 -204 84t-71 225z" />
<glyph unicode="&#x1dc;" d="M305 762h-17l-113 158h29zM197 656q-1 22 22 26q22 3 29 -15q3 -5 2 -11q0 -13 -8 -20t-18 -7t-18.5 7t-8.5 20zM349 656q0 12 8.5 19t19 7t19 -7t8.5 -19q0 -13 -8.5 -20t-19 -7t-19 7t-8.5 20zM514 0h-20v141q-17 -59 -69 -104q-53 -46 -132 -46q-98 0 -153.5 59.5 t-55.5 164.5v303h21v-301q0 -96 51 -151t139 -55q81 0 140 61q59 62 59 152v294h20v-518z" />
<glyph unicode="&#x1e6;" horiz-adv-x="829" d="M561 996h20l-140 -167h-20l-140 167h22l129 -146zM397 345h381v-20q0 -138 -98 -236q-97 -97 -250 -97q-161 0 -267 111q-106 110 -106 276q0 164 105 276q107 112 269 112q119 0 205 -64q86 -62 125 -164l-19 -8q-38 99 -119 158t-193 59q-154 0 -252 -108 q-99 -106 -99 -259q0 -156 100.5 -262.5t250.5 -106.5q136 0 232 86q96 87 96 225v3h-361v19z" />
<glyph unicode="&#x1e7;" horiz-adv-x="650" d="M434 764h21l-141 -167h-20l-140 167h22l129 -146zM538 518h21v-511q0 -132 -72 -199q-71 -67 -182 -67q-92 0 -152 39t-98 119l18 10q37 -77 92 -113t139 -36q110 0 172 63.5t62 181.5v157q-21 -73 -85 -122q-62 -48 -149 -48q-111 0 -181 78.5t-70 187.5q0 110 70 190 q71 80 181 80q87 0 149 -48q64 -49 85 -122v160zM540 258v3q0 98 -67 173q-66 74 -167 74q-102 0 -167 -72q-64 -73 -64 -177v-1q0 -104 64 -176q65 -70 167 -70t167 73q67 75 67 173z" />
<glyph unicode="&#x1e8;" horiz-adv-x="628" d="M352 829h-20l-140 167h20l129 -146l129 146h22zM114 760h22v-760h-22v760zM168 396l463 -396h-33l-462 396l440 364h33z" />
<glyph unicode="&#x1e9;" horiz-adv-x="491" d="M113 0h-20v790h20v-790zM223 764l129 -146l130 146h20l-139 -167h-21l-139 167h20zM113 283l323 235h35l-325 -236l339 -282h-31z" />
<glyph unicode="&#x1f4;" horiz-adv-x="829" d="M529 996h30l-121 -168h-16zM397 345h381v-20q0 -138 -98 -236q-97 -97 -250 -97q-161 0 -267 111q-106 110 -106 276q0 164 105 276q107 112 269 112q119 0 205 -64q86 -62 125 -164l-19 -8q-38 99 -119 158t-193 59q-154 0 -252 -108q-99 -106 -99 -259 q0 -156 100.5 -262.5t250.5 -106.5q136 0 232 86q96 87 96 225v3h-361v19z" />
<glyph unicode="&#x1f5;" horiz-adv-x="651" d="M403 773h30l-121 -167h-16zM538 518h21v-511q0 -132 -72 -199q-71 -67 -182 -67q-92 0 -152 39t-98 119l18 10q37 -77 92 -113t139 -36q110 0 172 63.5t62 181.5v157q-21 -73 -85 -122q-62 -48 -149 -48q-111 0 -181 78.5t-70 187.5q0 110 70 190q71 80 181 80 q87 0 149 -48q64 -49 85 -122v160zM540 258v3q0 98 -67 173q-66 74 -167 74q-102 0 -167 -72q-64 -73 -64 -177v-1q0 -104 64 -176q65 -70 167 -70t167 73q67 75 67 173z" />
<glyph unicode="&#x1fa;" horiz-adv-x="725" d="M478 1052h31l-105 -144q25 -12 40.5 -36t15.5 -51q0 -33 -20.5 -59t-52.5 -34l332 -728h-24l-101 225h-463l-102 -225h-22l332 728q-33 9 -53.5 34t-20.5 59q0 40 28.5 68.5t69.5 28.5q17 0 27 -4zM363 900q-17 0 -31.5 -6t-24.5 -16t-16 -25t-6 -31.5t6 -31.5t16 -25.5 t24.5 -16.5t31.5 -6q33 0 55 23t22 57q0 21 -10.5 39t-28.5 28.5t-38 10.5zM359 726l-218 -482h443l-218 482h-7z" />
<glyph unicode="&#x1fb;" horiz-adv-x="548" d="M334 518q40 -12 68.5 -37t44 -64t15.5 -89v-328h-21v127h-1q-27 -67 -84.5 -101.5t-129.5 -34.5q-76 0 -124 38.5t-48 105.5q0 71 59 107q61 37 143 37h185v49q0 85 -45 132t-129 47q-135 0 -188 -116l-18 9q42 91 135 117q-28 25 -28 66q0 40 28.5 68.5t68.5 28.5 q13 0 31 -5l89 140h30l-105 -147q24 -11 38 -34.5t14 -50.5q0 -40 -28 -65zM314 523q28 22 28 60q0 32 -22.5 56t-54.5 24q-23 0 -40.5 -10.5t-27.5 -28.5t-10 -41q0 -37 28 -61q29 5 52 5q30 0 47 -4zM441 211v50h-183q-41 0 -82 -11q-27 -7 -49 -22.5t-36.5 -39.5 t-14.5 -52q0 -59 42.5 -92t108.5 -33q89 0 151 55q63 56 63 145z" />
<glyph unicode="&#x1fc;" horiz-adv-x="985" d="M663 996h31l-122 -168h-15zM922 740h-406v-343h372v-20h-372v-358h409v-19h-430v225h-337l-139 -225h-25l469 760h459v-20zM474 740l-304 -496h325v496h-21z" />
<glyph unicode="&#x1fd;" horiz-adv-x="926" d="M541 773h30l-121 -167h-15zM441 422q35 49 86.5 77t109.5 28q81 0 136 -39q100 -69 102 -227h-465v-1q0 -103 68 -177q69 -72 171 -72q62 0 114 30.5t79 80.5l17 -10q-31 -56 -88 -88.5t-124 -32.5q-68 0 -124 31.5t-91 88.5q-29 -59 -83.5 -89.5t-120.5 -30.5h-2 q-76 0 -124 38.5t-48 105.5q0 71 59 107q61 37 143 37h135q4 65 38 124q-18 48 -60.5 76t-101.5 28q-135 0 -188 -116l-18 9q27 58 79 92.5t127 34.5q61 0 107 -28t67 -77zM637 507q-88 0 -154.5 -68t-71.5 -160h443q-2 44 -15 82.5t-37.5 72.5t-66.5 53.5t-98 19.5z M421 131q-31 58 -31 129v1h-132q-41 0 -82 -11q-27 -7 -49 -22.5t-36.5 -39.5t-14.5 -52q0 -59 42.5 -92t108.5 -33q64 0 117 32.5t77 87.5z" />
<glyph unicode="&#x1fe;" horiz-adv-x="866" d="M561 996l-122 -168h-15l107 168h30zM795 797l15 -12l-114 -127q108 -111 108 -278q0 -164 -106 -275q-105 -113 -267 -113q-143 0 -247 92l-109 -123l-15 13l111 123q-113 113 -113 282q0 164 105 276q107 112 268 112q149 0 252 -96zM80 381q0 -162 103 -268l486 543 q-98 92 -239 92q-152 0 -252 -107q-98 -106 -98 -260zM783 378q0 160 -100 264l-485 -543q97 -87 234 -87q152 0 252 106q99 107 99 260z" />
<glyph unicode="&#x1ff;" horiz-adv-x="638" d="M448 773l-120 -167h-17l107 167h30zM572 550l13 -12l-79 -86q78 -76 78 -192q0 -114 -76 -191q-76 -78 -189 -78q-101 0 -174 63l-78 -85l-13 12l78 85q-78 76 -78 193q0 114 76 191q75 77 189 77q104 0 176 -63zM76 260q0 -108 70 -179l334 368q-65 58 -162 58 q-105 0 -173.5 -71.5t-68.5 -175.5zM319 11q105 0 174 71q70 72 70 177q0 106 -70 178l-335 -368q66 -58 161 -58z" />
<glyph unicode="&#x218;" horiz-adv-x="582" d="M296 -8q-169 0 -241 189l19 10q34 -88 87.5 -133.5t136.5 -45.5q84 0 144 51q59 51 59 134q0 64 -42 107t-118 64l-109 29q-53 14 -86.5 34t-52.5 54.5t-19 83.5q0 86 65 142q66 57 155 57q162 0 226 -158l-19 -10q-25 68 -77.5 108.5t-130.5 40.5t-138 -51.5t-60 -126.5 q0 -63 34 -99t110 -57l110 -30q82 -21 128 -68t46 -118q0 -92 -65 -150q-65 -57 -162 -57zM288 -123q-16 0 -23 13.5t0 27t23 13.5q9 0 16 -5.5t11 -15t4 -21.5v-1q0 -16 -6.5 -34.5t-18.5 -35.5t-28 -30l-13 11q46 37 48 81q-8 -3 -13 -3z" />
<glyph unicode="&#x219;" horiz-adv-x="464" d="M237 -9q-131 0 -189 122l17 9q29 -58 70.5 -84.5t102.5 -26.5q58 0 103 34q47 35 47 85q0 56 -38 80q-37 26 -123 45q-87 19 -125 47q-37 28 -37 88t53 98q54 39 117 39q121 0 170 -110l-17 -10q-47 101 -155 101q-53 0 -100 -34q-47 -33 -47 -83q0 -52 33 -77 q34 -23 115 -40q94 -21 134.5 -52t40.5 -91q0 -62 -53 -101q-52 -39 -119 -39zM237 -123q-9 0 -15 4t-8.5 10t-2.5 13t2.5 13t8.5 10t15 4q13 0 22 -11.5t9 -30.5v-1q0 -16 -7 -34.5t-19 -35.5t-28 -30l-12 11q46 37 47 81q-7 -3 -12 -3z" />
<glyph unicode="&#x21a;" horiz-adv-x="592" d="M569 760v-20h-262v-740h-21v740h-263v20h546zM297 -123q-16 0 -22.5 13.5t0 27t22.5 13.5q14 0 23 -12t9 -30v-1q0 -26 -14.5 -53.5t-39.5 -46.5l-12 11q45 37 46 81q-5 -3 -12 -3z" />
<glyph unicode="&#x21b;" horiz-adv-x="334" d="M297 19l-1 -19q-13 -4 -37 -4q-71 0 -101 30.5t-30 100.5v373h-105v18h105v148h20v-148h148v-18h-148v-370q0 -62 24.5 -88t86.5 -26q24 0 38 3zM200 -123q-12 0 -19 8.5t-7 18.5t7 18.5t19 8.5q9 0 16.5 -5.5t11.5 -15t4 -21.5v-1q0 -17 -6.5 -35.5t-19 -35.5t-28.5 -29 l-12 11q46 37 46 81q-5 -3 -12 -3z" />
<glyph unicode="&#x2c6;" horiz-adv-x="318" d="M10 606l139 167h21l140 -167h-21l-129 147l-129 -147h-21z" />
<glyph unicode="&#x2dc;" horiz-adv-x="343" d="M95 722q25 0 43 -12.5t43 -44.5q33 -41 67 -41q59 0 60 96h16q0 -36 -9 -62t-26 -39.5t-41 -13.5t-41.5 11.5t-39.5 38.5q-21 26 -36.5 36.5t-35.5 10.5q-59 0 -60 -96h-16q0 55 20 85.5t56 30.5z" />
<glyph unicode="&#x401;" horiz-adv-x="631" d="M231 910q0 11 8 19t19 8t19 -8t8 -19q0 -8 -3.5 -14.5t-9.5 -10t-14 -3.5q-11 0 -19 8t-8 20zM396 910q0 11 7.5 19t19.5 8q11 0 18.5 -8t7.5 -19q0 -8 -3.5 -14.5t-9.5 -10t-13 -3.5q-12 0 -19.5 8t-7.5 20zM134 397h400v-20h-400v-358h437v-19h-458v760h453v-20h-432 v-343z" />
<glyph unicode="&#x402;" horiz-adv-x="794" d="M525 739h-280v-361q71 54 133.5 78.5t134.5 24.5q108 0 173 -65q66 -64 66 -175q0 -118 -67 -184q-65 -65 -169 -65q-51 0 -97 20l7 17q41 -18 93 -18q39 0 74.5 12t67.5 38t50.5 72t18.5 107q0 98 -59 160t-158 62q-73 0 -134 -26q-59 -24 -134 -81v-355h-21v739h-202 v21h503v-21z" />
<glyph unicode="&#x403;" horiz-adv-x="553" d="M387 996h31l-121 -168h-16zM526 740h-392v-740h-21v760h413v-20z" />
<glyph unicode="&#x404;" horiz-adv-x="809" d="M57 379q0 164 106 276q107 112 267 112q67 0 126 -21t100 -57q78 -67 108 -159l-19 -9q-29 83 -98 148q-25 24 -58.5 41.5t-74.5 27.5t-85 10q-152 0 -251 -109q-99 -107 -99 -258q0 -153 99 -262q100 -107 253 -107q43 0 84.5 10t74.5 27.5t58 40.5q70 66 99 151l19 -9 q-29 -88 -109 -161q-41 -37 -100.5 -58t-126.5 -21q-164 0 -268 112q-105 112 -105 275zM490 397v-20h-421v20h421z" />
<glyph unicode="&#x405;" horiz-adv-x="582" d="M296 -8q-169 0 -241 189l19 10q34 -88 87.5 -133.5t136.5 -45.5q84 0 144 51q59 51 59 134q0 64 -42 107t-118 64l-109 29q-53 14 -86.5 34t-52.5 54.5t-19 83.5q0 86 65 142q66 57 155 57q162 0 226 -158l-19 -10q-25 68 -77.5 108.5t-130.5 40.5t-138 -51.5t-60 -126.5 q0 -63 34 -99t110 -57l110 -30q82 -21 128 -68t46 -118q0 -92 -65 -150q-65 -57 -162 -57z" />
<glyph unicode="&#x406;" horiz-adv-x="246" d="M134 760v-760h-21v760h21z" />
<glyph unicode="&#x407;" horiz-adv-x="246" d="M15 910q0 11 7.5 19t19.5 8q11 0 18.5 -8t7.5 -19q0 -12 -7.5 -20t-18.5 -8q-12 0 -19.5 8t-7.5 20zM178 910q0 22 22 26q23 3 30 -15l2 -11q0 -17 -13.5 -24t-27 0t-13.5 24zM134 760v-760h-21v760h21z" />
<glyph unicode="&#x408;" horiz-adv-x="573" d="M271 -8q-139 0 -201 163l18 11q58 -154 181 -154q84 0 131.5 48.5t47.5 135.5v564h21v-564q0 -94 -53 -149t-145 -55z" />
<glyph unicode="&#x409;" horiz-adv-x="1175" d="M1149 226q0 -108 -73.5 -167t-190.5 -59h-257v740h-376l-46 -433q-11 -100 -55 -196q-23 -50 -59.5 -80.5t-79.5 -32.5v19q41 5 74.5 38t54.5 84q32 82 44 172l48 449h416v-327h231q121 0 195 -54q74 -52 74 -153zM1128 224q0 52 -22 91t-60 59q-72 39 -167 39h-230v-394 h237q45 0 86.5 11.5t77.5 34.5t57 64t21 95z" />
<glyph unicode="&#x40a;" horiz-adv-x="1206" d="M659 395h-525v-395h-21v760h21v-346h525v346h21v-346h246q79 0 136.5 -23t87.5 -67.5t30 -106.5q0 -103 -69 -160t-180 -57h-272v395zM1159 215q0 101 -76 143q-66 37 -161 37h-242v-376h249q63 0 111 19q53 19 86 65.5t33 111.5z" />
<glyph unicode="&#x40b;" horiz-adv-x="807" d="M752 0h-22v264q0 88 -55 139t-162 51q-73 0 -134 -25q-59 -25 -134 -82v-347h-21v739h-202v21h503v-21h-280v-368q69 53 132 77.5t136 24.5q112 0 175.5 -53.5t63.5 -155.5v-264z" />
<glyph unicode="&#x40c;" horiz-adv-x="627" d="M448 996l-120 -168h-17l107 168h30zM113 760h21v-760h-21v760zM167 396l463 -396h-32l-464 396l440 364h33z" />
<glyph unicode="&#x40e;" horiz-adv-x="652" d="M334 839q-56 0 -97 36.5t-59 105.5l17 4q17 -60 53.5 -93.5t85.5 -33.5t86.5 33.5t53.5 93.5l16 -4q-20 -69 -60.5 -105.5t-95.5 -36.5zM624 760h23l-287 -583q-46 -94 -100 -139.5t-131 -45.5q-59 0 -107 39l11 17q47 -36 95 -36q82 0 135 56q43 46 77 116l-328 576h24 l315 -554z" />
<glyph unicode="&#x40f;" horiz-adv-x="784" d="M113 0v760h21v-741h517v741h21v-760h-268v-156h-23v156h-268z" />
<glyph unicode="&#x410;" horiz-adv-x="725" d="M695 0l-101 225h-463l-102 -225h-22l346 760h20l346 -760h-24zM363 732l-222 -488h443z" />
<glyph unicode="&#x411;" horiz-adv-x="691" d="M386 0h-273v760h490v-20h-469v-321h243q126 0 196.5 -51t70.5 -152q0 -107 -68 -161.5t-190 -54.5zM376 400h-242v-381h250q95 0 161 39q36 22 56.5 62.5t20.5 95.5q0 104 -82 147q-69 37 -164 37z" />
<glyph unicode="&#x412;" horiz-adv-x="700" d="M369 0h-256v760h247q134 0 199 -65q48 -50 48 -128q0 -44 -18.5 -81t-52 -61.5t-78.5 -34.5q82 -12 133 -64q52 -51 52 -126q0 -93 -70.5 -146.5t-203.5 -53.5zM358 740h-224v-343h242q101 0 155.5 46t54.5 124t-59.5 125.5t-168.5 47.5zM388 377h-254v-358h235 q119 0 186 47.5t67 131.5q0 83 -60.5 131t-173.5 48z" />
<glyph unicode="&#x413;" horiz-adv-x="553" d="M526 740h-392v-740h-21v760h413v-20z" />
<glyph unicode="&#x414;" horiz-adv-x="745" d="M678 -156v156h-645v-156h-21v175h2q40 0 74 33.5t55 87.5q38 100 46 184l47 436h382v-741h81v-175h-21zM597 740h-342l-45 -420q-5 -52 -19 -110q-13 -55 -45 -113q-30 -55 -73 -78h524v721z" />
<glyph unicode="&#x415;" horiz-adv-x="631" d="M134 397h400v-20h-400v-358h437v-19h-458v760h453v-20h-432v-343z" />
<glyph unicode="&#x416;" horiz-adv-x="928" d="M17 760h32l405 -364l-421 -396h-31l421 396zM454 760h21v-760h-21v760zM506 396l421 -396h-31l-421 396l405 364h31z" />
<glyph unicode="&#x417;" horiz-adv-x="595" d="M517 198q0 80 -60 130q-60 49 -163 49h-94v20h93q93 0 149 50q59 51 59 124q0 74 -57 124q-56 53 -150 53q-64 0 -118 -33q-67 -42 -99 -134l-20 9q22 75 86 127q63 51 152 51q102 0 165 -57q62 -56 62 -140q0 -59 -43 -112q-42 -51 -115 -70q80 -15 127.5 -68t47.5 -124 q0 -92 -70 -149q-69 -56 -174 -56q-91 0 -157 52q-64 49 -90 127l20 8q26 -81 93 -127q61 -40 133 -40q94 0 159 51q64 51 64 135z" />
<glyph unicode="&#x418;" horiz-adv-x="805" d="M693 0h-23v728l-530 -728h-27v760h21v-731l532 731h27v-760z" />
<glyph unicode="&#x419;" horiz-adv-x="805" d="M402 839q-56 0 -96.5 36.5t-58.5 105.5l16 4q11 -40 31 -68t47.5 -43.5t60.5 -15.5q49 0 86 33.5t54 93.5l16 -4q-20 -69 -60.5 -105.5t-95.5 -36.5zM666 760h27v-760h-23v728l-530 -728h-27v760h21v-731z" />
<glyph unicode="&#x41a;" horiz-adv-x="627" d="M113 760h21v-760h-21v760zM167 396l463 -396h-32l-464 396l440 364h33z" />
<glyph unicode="&#x41b;" horiz-adv-x="766" d="M12 -2v19q41 5 74.5 38t54.5 84q36 90 43 172l48 449h421v-760h-22v740h-380l-45 -433q-11 -102 -55 -196q-23 -50 -59.5 -80.5t-79.5 -32.5z" />
<glyph unicode="&#x41c;" horiz-adv-x="997" d="M863 0v728l-355 -728h-19l-355 728v-728h-21v760h29l357 -733l357 733h29v-760h-22z" />
<glyph unicode="&#x41d;" horiz-adv-x="797" d="M134 760v-363h529v363h22v-760h-22v377h-529v-377h-21v760h21z" />
<glyph unicode="&#x41e;" horiz-adv-x="860" d="M430 -8q-162 0 -268 112q-105 112 -105 275.5t105 275.5q107 112 268 112q162 0 267 -112q106 -112 106 -275q0 -164 -106 -275q-105 -113 -267 -113zM431 12q152 0 252 106q99 107 99 260.5t-101 261.5q-100 108 -252 108t-251 -107q-99 -106 -99 -260q0 -155 99 -262 q101 -107 253 -107z" />
<glyph unicode="&#x41f;" horiz-adv-x="784" d="M672 760v-760h-21v740h-517v-740h-21v760h559z" />
<glyph unicode="&#x420;" horiz-adv-x="643" d="M321 319h-186v-319h-22v760h213q134 0 206 -58.5t72 -160.5q0 -105 -74.5 -163.5t-208.5 -58.5zM324 740h-189v-401h186q126 0 194 53.5t68 146.5q0 94 -67.5 147.5t-191.5 53.5z" />
<glyph unicode="&#x421;" horiz-adv-x="809" d="M57 379q0 164 106 276q107 112 267 112q67 0 126 -21t100 -57q78 -67 108 -159l-19 -9q-29 83 -98 148q-25 24 -58.5 41.5t-74.5 27.5t-85 10q-152 0 -251 -109q-99 -107 -99 -258q0 -153 99 -262q100 -107 253 -107q43 0 84.5 10t74.5 27.5t58 40.5q70 66 99 151l19 -9 q-29 -88 -109 -161q-41 -37 -100.5 -58t-126.5 -21q-164 0 -268 112q-105 112 -105 275z" />
<glyph unicode="&#x422;" horiz-adv-x="593" d="M570 760v-20h-263v-740h-21v740h-262v20h546z" />
<glyph unicode="&#x423;" horiz-adv-x="652" d="M624 760h23l-287 -583q-46 -94 -100 -139.5t-131 -45.5q-59 0 -107 39l11 17q47 -36 95 -36q82 0 135 56q43 46 77 116l-328 576h24l315 -554z" />
<glyph unicode="&#x424;" horiz-adv-x="884" d="M481 56h-28v-79h-21v79h-28q-162 0 -258 89q-98 89 -98 236t98 236t258 89h28v78h21v-78h28q160 0 258 -89t98 -236t-98 -236q-97 -89 -258 -89zM432 76v611h-28q-152 0 -244 -84q-91 -82 -91 -222q0 -139 93 -222q94 -83 242 -83h28zM481 687h-28v-611h28q148 0 242 83 q93 83 93 222t-92.5 222.5t-242.5 83.5z" />
<glyph unicode="&#x425;" horiz-adv-x="668" d="M50 760l285 -356l284 356h26l-297 -373l309 -387h-27l-295 372l-296 -372h-27l309 387l-297 373h26z" />
<glyph unicode="&#x426;" horiz-adv-x="802" d="M113 760h21v-741h517v741h21v-741h83v-175h-23v156h-619v760z" />
<glyph unicode="&#x427;" horiz-adv-x="710" d="M598 0h-22v374q-63 -34 -137 -60q-75 -26 -136 -26q-120 0 -181.5 54t-61.5 153v265h21v-267q0 -88 57 -137t162 -49q57 0 135 27q72 24 141 63v363h22v-760z" />
<glyph unicode="&#x428;" horiz-adv-x="1177" d="M113 760h21v-741h444v741h21v-741h445v741h21v-760h-952v760z" />
<glyph unicode="&#x429;" horiz-adv-x="1194" d="M113 760h22v-740h443v740h22v-740h443v740h22v-740h83v-176h-23v156h-1012v760z" />
<glyph unicode="&#x42a;" horiz-adv-x="761" d="M15 740v20h207v-327h232q121 0 195 -54q75 -52 75 -153q0 -108 -74 -167t-191 -59h-257v740h-187zM702 224q0 34 -10 63.5t-28.5 51.5t-43.5 35q-72 39 -167 39h-231v-394h238q45 0 86.5 11.5t77.5 34.5t57 64t21 95z" />
<glyph unicode="&#x42b;" horiz-adv-x="939" d="M634 226q0 -108 -73.5 -167t-190.5 -59h-257v760h21v-327h231q121 0 195 -54q74 -52 74 -153zM806 0v760h21v-760h-21zM613 224q0 52 -22 91t-60 59q-72 39 -167 39h-230v-394h238q45 0 86.5 11.5t77 34.5t56.5 64t21 95z" />
<glyph unicode="&#x42c;" horiz-adv-x="672" d="M634 226q0 -108 -73.5 -167t-190.5 -59h-257v760h21v-327h231q121 0 195 -54q74 -52 74 -153zM613 224q0 52 -22 91t-60 59q-72 39 -167 39h-230v-394h238q45 0 86.5 11.5t77 34.5t56.5 64t21 95z" />
<glyph unicode="&#x42d;" horiz-adv-x="809" d="M753 381q0 -163 -105 -276t-267 -113q-67 0 -126.5 21t-101.5 58q-80 73 -109 161l19 9q29 -83 99 -151q39 -36 96.5 -57t123.5 -21q153 0 250 108q99 109 99 259t-99 259q-97 110 -248 110q-66 0 -123 -21t-96 -58q-69 -64 -100 -148l-19 9q31 89 110 159q21 18 46 32 t54 24.5t62 16t67 5.5q159 0 263 -112q105 -112 105 -274zM741 397v-20h-421v20h421z" />
<glyph unicode="&#x42e;" horiz-adv-x="1091" d="M674 767q157 0 258 -112.5t101 -274.5q0 -164 -101 -276q-100 -112 -258 -112t-258 108.5t-103 269.5h-179v-370h-21v760h21v-371h179q5 160 105 269q101 109 256 109zM675 12q147 0 242 106.5t95 259.5q0 155 -96 262q-95 108 -243 108q-149 0 -244 -107 q-94 -105 -94 -260q0 -154 95 -263q96 -106 245 -106z" />
<glyph unicode="&#x42f;" horiz-adv-x="671" d="M559 760v-760h-22v316h-223l-245 -316h-27l246 318q-72 6 -123 35t-78 77t-27 111q0 101 71 160t205 59h223zM537 336v404h-202q-121 0 -187.5 -54t-66.5 -147q0 -92 66.5 -147.5t184.5 -55.5h205z" />
<glyph unicode="&#x430;" horiz-adv-x="546" d="M462 0h-21v127h-1q-27 -67 -84.5 -101.5t-129.5 -34.5q-76 0 -124 38.5t-48 105.5q0 71 59 107q61 37 143 37h185v49q0 85 -45 132t-129 47q-135 0 -188 -116l-18 9q27 58 79 92.5t127 34.5q90 0 142.5 -52t52.5 -147v-328zM441 211v50h-183q-41 0 -82 -11 q-27 -7 -49 -22.5t-36.5 -39.5t-14.5 -52q0 -59 42.5 -92t108.5 -33q89 0 151 55q63 56 63 145z" />
<glyph unicode="&#x431;" horiz-adv-x="646" d="M334 -10q-77 0 -138.5 37.5t-93.5 107.5q-27 56 -27 129v34q0 69 5 122q4 48 22 102q25 76 87.5 123.5t182.5 80.5l187 45l6 -18l-191 -49q-134 -33 -199 -99q-23 -22 -38 -49t-23.5 -60t-12.5 -66.5t-6 -77.5q28 87 95 129q69 44 150 44q104 0 179 -75q76 -74 76 -189 q0 -120 -75 -196q-75 -75 -186 -75zM335 507q-106 0 -173 -71q-66 -72 -66 -176t66 -178q67 -72 172.5 -72t171.5 71q67 72 67 178q0 108 -70 177q-67 71 -168 71z" />
<glyph unicode="&#x432;" horiz-adv-x="580" d="M92 0v518h242q73 0 119.5 -32.5t46.5 -90.5q0 -48 -28 -81t-73 -45q60 -12 94 -45t34 -82q0 -64 -49 -103t-135 -39h-251zM113 500v-225h216q80 0 114 36q35 37 35 83q0 49 -38.5 77.5t-107.5 28.5h-219zM113 257v-239h227q74 0 119.5 33t45.5 91q0 53 -45.5 84 t-133.5 31h-213z" />
<glyph unicode="&#x433;" horiz-adv-x="438" d="M113 0h-21v518h327v-18h-306v-500z" />
<glyph unicode="&#x434;" horiz-adv-x="609" d="M539 0h-491v-160h-20v179q35 3 63 44q41 58 55 160l32 295h319v-500h63v-178h-21v160zM477 500h-281l-31 -280q-7 -63 -32 -123q-23 -60 -64 -79h408v482z" />
<glyph unicode="&#x435;" horiz-adv-x="586" d="M537 261h-463v-1q0 -102 67 -177q68 -72 169 -72q63 0 115.5 30.5t78.5 80.5l18 -10q-21 -37 -53.5 -64t-73.5 -42t-86 -15q-110 0 -184 79q-73 78 -73 190v2q0 106 72 185q72 80 176 80q81 0 136 -39q100 -69 101 -227zM300 507q-89 0 -155.5 -68t-70.5 -160h442 q-2 44 -14.5 82.5t-37 72.5t-67 53.5t-97.5 19.5z" />
<glyph unicode="&#x436;" horiz-adv-x="734" d="M55 518l302 -243l-311 -275h-30l310 275l-302 243h31zM377 518v-518h-20v518h20zM719 0h-30l-312 275l302 243h32l-303 -243z" />
<glyph unicode="&#x437;" horiz-adv-x="455" d="M226 -9q-67 0 -115 30.5t-76 91.5l18 8q54 -110 173 -110q66 0 112 36t46 87q0 26 -11.5 48.5t-32.5 38.5t-50.5 25t-63.5 9h-76v18h75q64 0 105.5 33t41.5 83t-42 83q-42 35 -105 35q-116 0 -170 -109l-17 8q26 58 75.5 89.5t111.5 31.5q72 0 120 -41q49 -40 49 -94 q0 -44 -30.5 -78.5t-80.5 -48.5v-1q58 -14 89.5 -48.5t31.5 -84.5q0 -56 -52 -98t-126 -42z" />
<glyph unicode="&#x438;" horiz-adv-x="620" d="M529 518v-518h-21v486l-395 -486h-21v518h21v-485l395 485h21z" />
<glyph unicode="&#x439;" horiz-adv-x="620" d="M309 606q-55 0 -96 36.5t-59 105.5l17 3q17 -59 53 -92t85 -33q50 0 87.5 33t52.5 92l17 -3q-20 -69 -60.5 -105.5t-96.5 -36.5zM92 518h21v-485l395 485h21v-518h-21v486l-395 -486h-21v518z" />
<glyph unicode="&#x43a;" horiz-adv-x="490" d="M436 518h34l-325 -243l340 -275h-32l-340 275zM92 0v517h21v-517h-21z" />
<glyph unicode="&#x43b;" horiz-adv-x="603" d="M491 500h-308l-31 -284q-4 -41 -13.5 -76.5t-24.5 -68t-39.5 -52t-56.5 -21.5v20q92 9 114 199l33 301h346v-518h-20v500z" />
<glyph unicode="&#x43c;" horiz-adv-x="754" d="M116 518l261 -496l259 496h26v-518h-21v485l-253 -485h-21l-255 486v-486h-20v518h24z" />
<glyph unicode="&#x43d;" horiz-adv-x="614" d="M113 279h388v239h21v-518h-21v261h-388v-261h-21v518h21v-239z" />
<glyph unicode="&#x43e;" horiz-adv-x="634" d="M317 -9q-114 0 -189 77q-76 77 -76 191t76 191q77 77 190 77q116 0 189 -77q75 -78 75 -190q0 -114 -76 -191q-74 -78 -189 -78zM317 507q-106 0 -174.5 -71.5t-68.5 -175.5q0 -106 70 -178q71 -71 174 -71q105 0 174 71.5t69 176.5t-70 177q-69 71 -174 71z" />
<glyph unicode="&#x43f;" horiz-adv-x="603" d="M511 0h-20v500h-378v-500h-21v518h419v-518z" />
<glyph unicode="&#x440;" horiz-adv-x="649" d="M347 -8q-87 0 -149 48q-64 49 -85 122v-417h-21v773h21v-160q21 73 85 122q62 48 149 48q110 0 180 -80q71 -78 71 -188q0 -109 -70 -189q-70 -79 -181 -79zM576 258v1q0 104 -65 177q-64 72 -166 72q-104 0 -169 -74t-65 -173v-3q0 -98 66 -173q66 -73 168 -73 q104 0 167 70q64 72 64 176z" />
<glyph unicode="&#x441;" horiz-adv-x="586" d="M520 152l19 -8q-24 -70 -83.5 -111.5t-144.5 -41.5q-106 0 -183 77q-76 77 -76 191q0 112 75 190q76 78 185 78q83 0 143 -41t83 -110l-18 -7q-21 62 -75.5 100t-133.5 38q-99 0 -168 -72t-69 -175t69 -177q68 -72 169 -72q79 0 132 38t76 103z" />
<glyph unicode="&#x442;" horiz-adv-x="460" d="M443 500h-201v-500h-23v500h-201v18h425v-18z" />
<glyph unicode="&#x443;" horiz-adv-x="557" d="M140 -255l137 282l-253 491h23l241 -470l228 470h21l-375 -773h-22z" />
<glyph unicode="&#x444;" horiz-adv-x="837" d="M782 260q0 -121 -55 -195t-150 -74q-42 0 -75.5 18t-72.5 60v-306h-21v306q-41 -42 -73.5 -60t-74.5 -18q-94 0 -148 74q-56 74 -56 197q0 116 54.5 191t149.5 75q27 0 51 -9t46.5 -25.5t50.5 -45.5v312h21v-312q42 43 75 61.5t73 18.5q95 0 150 -75q55 -74 55 -193z M408 93v332q-80 83 -144 83t-108 -39q-78 -70 -78 -211q0 -46 10 -88.5t31 -79t58 -58t87 -21.5q68 0 144 82zM760 261q0 61 -17 114.5t-61 93.5q-44 39 -108 39q-36 0 -69 -20t-76 -63v-332q41 -42 74 -62t71 -20q50 0 87 21t58 58t31 79.5t10 91.5z" />
<glyph unicode="&#x445;" horiz-adv-x="515" d="M257 251l-211 -251h-25l223 264l-213 254h25l201 -242l202 242h24l-214 -254l224 -264h-25z" />
<glyph unicode="&#x446;" horiz-adv-x="621" d="M511 18h61v-178h-20v160h-460v518h21v-500h378v500h20v-500z" />
<glyph unicode="&#x447;" horiz-adv-x="543" d="M451 0h-20v235q-39 -27 -96 -45t-113 -18q-54 0 -92 16.5t-58 50.5t-20 82v197h21v-197q0 -65 41 -97.5t108 -32.5q50 0 107.5 18.5t101.5 47.5v261h20v-518z" />
<glyph unicode="&#x448;" horiz-adv-x="894" d="M440 18v500h20v-500h323v500h19v-518h-710v518h21v-500h327z" />
<glyph unicode="&#x449;" horiz-adv-x="912" d="M113 518v-500h327v500h20v-500h323v500h19v-500h61v-178h-19v160h-752v518h21z" />
<glyph unicode="&#x44a;" horiz-adv-x="638" d="M601 161q0 -73 -50 -117t-137 -44h-242v500h-154v18h174v-210h217q91 0 141.5 -39t50.5 -108zM580 161q0 30 -11.5 54t-34 40.5t-54.5 25.5t-73 9h-215v-272h220q80 0 124 39.5t44 103.5z" />
<glyph unicode="&#x44b;" horiz-adv-x="767" d="M92 0v518h21v-210h216q90 0 141.5 -39t51.5 -108q0 -73 -50 -117t-137 -44h-243zM675 518v-518h-20v518h20zM113 290v-272h220q80 0 124 39.5t44 103.5q0 59 -46 94t-127 35h-215z" />
<glyph unicode="&#x44c;" horiz-adv-x="557" d="M92 0v518h21v-210h216q90 0 141.5 -39t51.5 -108q0 -73 -50 -117t-137 -44h-243zM113 290v-272h220q80 0 124 39.5t44 103.5q0 59 -46 94t-127 35h-215z" />
<glyph unicode="&#x44d;" horiz-adv-x="586" d="M275 527q109 0 184 -78q75 -77 75 -190q0 -114 -76 -191q-75 -77 -183 -77q-84 0 -143.5 41.5t-83.5 111.5l19 8q23 -65 76 -103t132 -38q101 0 169 72q69 74 69 177v1h-298v18h297q-7 98 -75 162q-68 66 -162 66q-78 0 -132.5 -38t-75.5 -100l-19 7q24 69 84 110t143 41 z" />
<glyph unicode="&#x44e;" horiz-adv-x="820" d="M513 527q112 0 183 -78q71 -76 71 -189q0 -111 -72 -190q-71 -79 -183 -79q-110 0 -181 74q-72 74 -73 187h-145v-252h-21v518h21v-247h145q4 109 77 183q72 73 178 73zM513 11q104 0 168 70q65 71 65 178q0 106 -65 177t-169 71q-103 0 -168 -71q-66 -71 -66 -176 q0 -107 66 -179q67 -70 169 -70z" />
<glyph unicode="&#x44f;" horiz-adv-x="555" d="M444 210h-206l-168 -210h-25l169 212q-50 5 -87 25t-57 53.5t-20 76.5q0 68 51 109.5t138 41.5h225v-518h-20v210zM444 229v271h-205q-78 0 -122.5 -36.5t-44.5 -96.5q0 -65 48 -102q49 -36 119 -36h205z" />
<glyph unicode="&#x451;" horiz-adv-x="586" d="M197 697q-1 23 22 26q22 4 29 -14q3 -5 2 -12q0 -12 -8 -19.5t-18 -7.5t-18.5 7.5t-8.5 19.5zM349 697q0 11 8 19.5t19 8.5q12 0 20 -8t8 -20q0 -11 -8 -19.5t-20 -8.5q-7 0 -13 4t-10 10.5t-4 13.5zM537 261h-463v-1q0 -102 67 -177q68 -72 169 -72q63 0 115.5 30.5 t78.5 80.5l18 -10q-21 -37 -53.5 -64t-73.5 -42t-86 -15q-110 0 -184 79q-73 78 -73 190v2q0 106 72 185q72 80 176 80q81 0 136 -39q100 -69 101 -227zM300 507q-89 0 -155.5 -68t-70.5 -160h442q-2 44 -14.5 82.5t-37 72.5t-67 53.5t-97.5 19.5z" />
<glyph unicode="&#x452;" horiz-adv-x="582" d="M522 303v-431q0 -131 -139 -131q-3 0 -26 2v20q10 -2 26 -2q42 0 69 15t38 38.5t11 56.5v430q0 96 -50 150.5t-140 54.5q-81 0 -140 -62q-58 -61 -58 -150v-294h-21v645h-76v18h76v127h21v-127h215v-18h-215v-268q16 59 67 103q54 47 133 47q98 0 153.5 -59.5 t55.5 -164.5z" />
<glyph unicode="&#x453;" horiz-adv-x="438" d="M345 773l-121 -167h-16l106 167h31zM113 0h-21v518h327v-18h-306v-500z" />
<glyph unicode="&#x454;" horiz-adv-x="586" d="M520 152l19 -8q-24 -70 -83.5 -111.5t-144.5 -41.5q-106 0 -183 77q-76 77 -76 191q0 112 75 190q76 78 185 78q83 0 143 -41t83 -110l-18 -7q-21 62 -75.5 100t-133.5 38q-93 0 -162 -66q-67 -64 -74 -162h297v-18h-298v-1q0 -103 69 -177q68 -72 169 -72q79 0 132 38 t76 103z" />
<glyph unicode="&#x455;" horiz-adv-x="464" d="M237 -9q-131 0 -189 122l17 9q29 -58 70.5 -84.5t102.5 -26.5q58 0 103 34q47 35 47 85q0 56 -38 80q-37 26 -123 45q-87 19 -125 47q-37 28 -37 88t53 98q54 39 117 39q121 0 170 -110l-17 -10q-47 101 -155 101q-53 0 -100 -34q-47 -33 -47 -83q0 -52 33 -77 q34 -23 115 -40q94 -21 134.5 -52t40.5 -91q0 -62 -53 -101q-52 -39 -119 -39z" />
<glyph unicode="&#x456;" horiz-adv-x="200" d="M74 697q-1 17 13 24t27.5 0t12.5 -24q0 -12 -8.5 -19.5t-18.5 -7.5t-18 7.5t-8 19.5zM111 518v-518h-21v518h21z" />
<glyph unicode="&#x457;" horiz-adv-x="200" d="M-3 697q0 13 8.5 20t18.5 7t18.5 -7t8.5 -20q0 -12 -8.5 -19.5t-18.5 -7.5t-18.5 7.5t-8.5 19.5zM150 697q0 11 8 19.5t19 8.5t19 -8t8 -20q0 -11 -8 -19.5t-19 -8.5q-8 0 -14 4t-9.5 10.5t-3.5 13.5zM111 518v-518h-21v518h21z" />
<glyph unicode="&#x458;" horiz-adv-x="226" d="M153 697q0 -11 -7.5 -19.5t-18.5 -8.5q-8 0 -14 4t-9.5 10.5t-3.5 13.5q0 12 8 20t19 8t18.5 -8.5t7.5 -19.5zM-28 -237q12 -2 26 -2q42 0 69 15t38 38.5t11 56.5v647h21v-646q0 -131 -139 -131q-3 0 -26 2v20z" />
<glyph unicode="&#x459;" horiz-adv-x="956" d="M511 518v-210h217q91 0 142 -39t51 -108q0 -73 -50.5 -117t-137.5 -44h-242v500h-308l-31 -284q-4 -41 -13.5 -76.5t-24.5 -68t-39.5 -52t-56.5 -21.5v20q92 9 114 199l33 301h346zM511 290v-272h220q54 0 92.5 19t57 50.5t18.5 73.5q0 61 -45.5 95t-126.5 34h-216z" />
<glyph unicode="&#x45a;" horiz-adv-x="967" d="M931 154q0 -71 -48.5 -112.5t-136.5 -41.5h-245v275h-388v-275h-21v518h21v-225h388v225h21v-225h218q91 0 141 -36t50 -103zM910 153q0 60 -44.5 91t-128.5 31h-215v-257h220q83 0 125.5 36t42.5 99z" />
<glyph unicode="&#x45b;" horiz-adv-x="606" d="M113 663h215v-18h-215v-268q16 59 67 103q54 47 133 47q98 0 153.5 -59.5t55.5 -164.5v-303h-21v301q0 96 -50 150.5t-140 54.5q-81 0 -140 -62q-58 -61 -58 -150v-294h-21v645h-76v18h76v127h21v-127z" />
<glyph unicode="&#x45c;" horiz-adv-x="490" d="M376 773l-120 -167h-16l106 167h30zM436 518h34l-325 -243l340 -275h-32l-340 275zM92 0v517h21v-517h-21z" />
<glyph unicode="&#x45e;" horiz-adv-x="557" d="M282 606q-56 0 -96.5 36.5t-58.5 105.5l17 3q16 -59 52.5 -92t85.5 -33q33 0 61 14.5t48.5 43t30.5 67.5l16 -3q-19 -69 -59.5 -105.5t-96.5 -36.5zM140 -255l137 282l-253 491h23l241 -470l228 470h21l-375 -773h-22z" />
<glyph unicode="&#x45f;" horiz-adv-x="603" d="M92 518h21v-500h378v500h20v-518h-200v-160h-19v160h-200v518z" />
<glyph unicode="&#x490;" horiz-adv-x="553" d="M526 905v-165h-392v-740h-21v760h391v145h22z" />
<glyph unicode="&#x491;" horiz-adv-x="438" d="M419 500h-306v-500h-21v518h308v149h19v-167z" />
<glyph unicode="&#x496;" horiz-adv-x="943" d="M49 760l405 -364l-421 -396h-31l421 396l-406 364h32zM475 760v-760h-21v760h21zM936 19v-175h-22v156h-18l-421 396l405 364h31l-405 -364l400 -377h30z" />
<glyph unicode="&#x497;" horiz-adv-x="746" d="M55 518l302 -243l-311 -275h-30l310 275l-302 243h31zM377 518v-518h-20v518h20zM726 18v-178h-21v160h-16l-312 275l302 243h32l-303 -243l290 -257h28z" />
<glyph unicode="&#x498;" horiz-adv-x="595" d="M539 197q0 -90 -67 -146.5t-169 -58.5v-148h-23v148q-86 5 -147 56t-85 123l20 8q26 -81 93 -127q61 -40 133 -40q94 0 159 51q64 51 64 135q0 80 -60 130q-60 49 -163 49h-94v20h93q93 0 149 50q59 51 59 124q0 74 -57 124q-56 53 -150 53q-64 0 -118 -33 q-67 -42 -99 -134l-20 9q22 75 86 127q63 51 152 51q102 0 165 -57q62 -56 62 -140q0 -59 -43 -112q-42 -51 -115 -70q80 -15 127.5 -68t47.5 -124z" />
<glyph unicode="&#x499;" horiz-adv-x="455" d="M226 -9q-67 0 -115 30.5t-76 91.5l18 8q54 -110 173 -110q66 0 112 36t46 87q0 26 -11.5 48.5t-32.5 38.5t-50.5 25t-63.5 9h-76v18h75q64 0 105.5 33t41.5 83t-42 83q-42 35 -105 35q-116 0 -170 -109l-17 8q26 58 75.5 89.5t111.5 31.5q72 0 120 -41q49 -40 49 -94 q0 -44 -30.5 -78.5t-80.5 -48.5v-1q58 -14 89.5 -48.5t31.5 -84.5q0 -56 -52 -98t-126 -42zM238 5v-165h-21v165h21z" />
<glyph unicode="&#x49a;" horiz-adv-x="651" d="M134 760v-760h-21v760h21zM651 19v-175h-21v156h-32l-464 396l440 364h33l-440 -364l440 -377h44z" />
<glyph unicode="&#x49b;" horiz-adv-x="517" d="M113 275l323 243h34l-325 -243l318 -257h45v-178h-20v160h-35zM113 0h-21v517h21v-517z" />
<glyph unicode="&#x4a2;" horiz-adv-x="813" d="M663 0v377h-529v-377h-21v760h21v-363h529v363h22v-741h81v-175h-21v156h-82z" />
<glyph unicode="&#x4a3;" horiz-adv-x="632" d="M563 -160v160h-62v261h-388v-261h-21v518h21v-239h388v239h21v-500h61v-178h-20z" />
<glyph unicode="&#x4aa;" horiz-adv-x="809" d="M747 241l19 -9q-30 -90 -106 -158q-39 -36 -96.5 -58t-123.5 -24v-148h-21v148q-103 1 -187.5 54.5t-130.5 141.5t-44 191q0 164 106 276q107 112 267 112q67 0 126 -21t100 -57q78 -67 108 -159l-19 -9q-29 83 -98 148q-25 24 -58.5 41.5t-74.5 27.5t-85 10 q-152 0 -251 -109q-99 -107 -99 -258q0 -153 99 -262q100 -107 253 -107q43 0 84.5 10t74.5 27.5t58 40.5q70 66 99 151z" />
<glyph unicode="&#x4ab;" horiz-adv-x="586" d="M520 152l19 -8q-23 -68 -80 -109t-138 -44v-151h-20v151q-104 5 -177 81q-72 76 -72 187q0 112 75 190q76 78 185 78q83 0 143 -41t83 -110l-18 -7q-21 62 -75.5 100t-133.5 38q-99 0 -168 -72t-69 -175t69 -177q68 -72 169 -72q79 0 132 38t76 103z" />
<glyph unicode="&#x4ac;" horiz-adv-x="593" d="M286 0v740h-263v20h546v-20h-262v-721h53v-175h-21v156h-53z" />
<glyph unicode="&#x4ad;" horiz-adv-x="463" d="M292 -160v160h-73v500h-201v18h425v-18h-201v-482h70v-178h-20z" />
<glyph unicode="&#x4b2;" horiz-adv-x="697" d="M630 0l-295 372l-296 -372h-27l309 387l-297 373h26l285 -356l284 356h26l-297 -373l293 -368h51v-175h-22v156h-40z" />
<glyph unicode="&#x4b3;" horiz-adv-x="544" d="M505 -160v160h-37l-211 251l-211 -251h-25l223 264l-213 254h25l201 -242l202 242h24l-214 -254l208 -246h49v-178h-21z" />
<glyph unicode="&#x4b6;" horiz-adv-x="728" d="M659 0h-82l-1 374q-63 -34 -137 -60q-75 -26 -136 -26q-120 0 -181.5 54t-61.5 153v265h21v-267q0 -88 57 -137t162 -49q57 0 135 27q72 24 141 63v363h22v-741h83v-175h-22v156z" />
<glyph unicode="&#x4b7;" horiz-adv-x="562" d="M513 18v-178h-20v160h-62v235q-39 -27 -96 -45t-113 -18q-54 0 -92 16.5t-58 50.5t-20 82v197h21v-197q0 -65 41 -97.5t108 -32.5q50 0 107.5 18.5t101.5 47.5v261h20v-500h62z" />
<glyph unicode="&#x4c0;" horiz-adv-x="246" d="M134 0h-21v760h21v-760z" />
<glyph unicode="&#x4c1;" horiz-adv-x="928" d="M462 839q-37 0 -67.5 16t-53 48t-34.5 78l16 4q17 -60 53.5 -93.5t85.5 -33.5t86.5 33.5t53.5 93.5l16 -4q-20 -69 -60.5 -105.5t-95.5 -36.5zM49 760l405 -364l-421 -396h-31l421 396l-406 364h32zM475 760v-760h-21v760h21zM927 0h-31l-421 396l405 364h31l-405 -364z " />
<glyph unicode="&#x4c2;" horiz-adv-x="734" d="M368 606q-56 0 -97 37t-59 105l16 3q17 -59 53.5 -92t86 -33t86.5 33t53 92l16 -3q-20 -69 -60 -105.5t-95 -36.5zM55 518l302 -243l-311 -275h-30l310 275l-302 243h31zM377 518v-518h-20v518h20zM719 0h-30l-312 275l302 243h32l-303 -243z" />
<glyph unicode="&#x4cf;" horiz-adv-x="200" d="M111 518v-518h-21v518h21z" />
<glyph unicode="&#x4d0;" horiz-adv-x="725" d="M363 839q-56 0 -96.5 36.5t-58.5 105.5l16 4q11 -40 31.5 -68t48 -43.5t59.5 -15.5q49 0 86.5 33.5t53.5 93.5l16 -4q-19 -69 -60 -105.5t-96 -36.5zM594 225h-463l-102 -225h-22l346 760h20l346 -760h-24zM141 244h443l-221 488z" />
<glyph unicode="&#x4d1;" horiz-adv-x="546" d="M262 606q-56 0 -96.5 36.5t-57.5 105.5l15 3q17 -59 53.5 -92t85.5 -33q33 0 61 14.5t48 43t32 67.5l15 -3q-19 -69 -60 -105.5t-96 -36.5zM462 0h-21v127h-1q-27 -67 -84.5 -101.5t-129.5 -34.5q-76 0 -124 38.5t-48 105.5q0 71 59 107q61 37 143 37h185v49 q0 85 -45 132t-129 47q-135 0 -188 -116l-18 9q27 58 79 92.5t127 34.5q90 0 142.5 -52t52.5 -147v-328zM441 211v50h-183q-41 0 -82 -11q-27 -7 -49 -22.5t-36.5 -39.5t-14.5 -52q0 -59 42.5 -92t108.5 -33q89 0 151 55q63 56 63 145z" />
<glyph unicode="&#x4d2;" horiz-adv-x="725" d="M256 910q0 5 2 10t5.5 9t8.5 6t10 2q12 0 19.5 -8t7.5 -19q0 -12 -7.5 -20t-19.5 -8q-11 0 -18.5 8t-7.5 20zM420 910q0 11 8 19t19 8t18.5 -8t7.5 -19q0 -12 -7.5 -20t-18.5 -8t-19 8t-8 20zM353 760h20l346 -760h-24l-101 225h-463l-102 -225h-22zM363 732l-222 -488 h443z" />
<glyph unicode="&#x4d3;" horiz-adv-x="546" d="M157 697q0 12 8 20t19 8t18.5 -8.5t7.5 -19.5t-7.5 -19.5t-18.5 -8.5t-19 8.5t-8 19.5zM309 697q0 17 14 24t27.5 0t12.5 -24q0 -12 -8.5 -19.5t-18.5 -7.5t-18.5 7.5t-8.5 19.5zM462 0h-21v127h-1q-27 -67 -84.5 -101.5t-129.5 -34.5q-76 0 -124 38.5t-48 105.5 q0 71 59 107q61 37 143 37h185v49q0 85 -45 132t-129 47q-135 0 -188 -116l-18 9q27 58 79 92.5t127 34.5q90 0 142.5 -52t52.5 -147v-328zM441 211v50h-183q-41 0 -82 -11q-27 -7 -49 -22.5t-36.5 -39.5t-14.5 -52q0 -59 42.5 -92t108.5 -33q89 0 151 55q63 56 63 145z" />
<glyph unicode="&#x4d4;" horiz-adv-x="985" d="M516 740v-343h372v-20h-372v-358h409v-19h-430v225h-337l-139 -225h-25l469 760h459v-20h-406zM170 244h325v496h-21z" />
<glyph unicode="&#x4d5;" horiz-adv-x="925" d="M441 422q35 49 86.5 77t109.5 28q81 0 136 -39q100 -69 102 -227h-465v-1q0 -103 68 -177q69 -72 171 -72q62 0 114 30.5t79 80.5l17 -10q-31 -56 -88 -88.5t-124 -32.5q-68 0 -124 31.5t-91 88.5q-29 -59 -83.5 -89.5t-120.5 -30.5h-2q-76 0 -124 38.5t-48 105.5 q0 71 59 107q61 37 143 37h135q4 65 38 124q-18 48 -60.5 76t-101.5 28q-135 0 -188 -116l-18 9q27 58 79 92.5t127 34.5q61 0 107 -28t67 -77zM637 507q-88 0 -154.5 -68t-71.5 -160h443q-2 44 -15 82.5t-37.5 72.5t-66.5 53.5t-98 19.5zM421 131q-31 58 -31 129v1h-132 q-41 0 -82 -11q-27 -7 -49 -22.5t-36.5 -39.5t-14.5 -52q0 -59 42.5 -92t108.5 -33q64 0 117 32.5t77 87.5z" />
<glyph unicode="&#x4d6;" horiz-adv-x="631" d="M341 839q-55 0 -96 36.5t-59 105.5l17 4q11 -40 31 -68t47.5 -43.5t59.5 -15.5q50 0 87 33.5t54 93.5l16 -4q-20 -69 -60.5 -105.5t-96.5 -36.5zM566 760v-20h-432v-343h400v-20h-400v-358h437v-19h-458v760h453z" />
<glyph unicode="&#x4d7;" horiz-adv-x="586" d="M296 606q-56 0 -96.5 36.5t-58.5 105.5l16 3q17 -59 53.5 -92t85.5 -33q50 0 87 33t53 92l16 -3q-19 -69 -60 -105.5t-96 -36.5zM537 261h-463v-1q0 -102 67 -177q68 -72 169 -72q63 0 115.5 30.5t78.5 80.5l18 -10q-21 -37 -53.5 -64t-73.5 -42t-86 -15q-110 0 -184 79 q-73 78 -73 190v2q0 106 72 185q72 80 176 80q81 0 136 -39q100 -69 101 -227zM300 507q-89 0 -155.5 -68t-70.5 -160h442q-2 44 -14.5 82.5t-37 72.5t-67 53.5t-97.5 19.5z" />
<glyph unicode="&#x4dc;" horiz-adv-x="928" d="M381 882q-11 0 -19 8t-8 20q0 11 8 19t19 8t18.5 -8t7.5 -19q0 -8 -3.5 -14.5t-9.5 -10t-13 -3.5zM518 910q0 12 8.5 19t18.5 7t18.5 -7t8.5 -19q0 -17 -13.5 -24t-27 0t-13.5 24zM49 760l405 -364l-421 -396h-31l421 396l-406 364h32zM475 760v-760h-21v760h21zM927 0 h-31l-421 396l405 364h31l-405 -364z" />
<glyph unicode="&#x4dd;" horiz-adv-x="734" d="M290 669q-7 0 -13 4t-9.5 10.5t-3.5 13.5q0 11 7.5 19.5t18.5 8.5q12 0 19.5 -8t7.5 -20q0 -11 -7.5 -19.5t-19.5 -8.5zM443 669q-11 0 -19 8.5t-8 19.5q0 12 8 20t19 8q7 0 13.5 -4t9.5 -10t3 -14q0 -11 -7.5 -19.5t-18.5 -8.5zM55 518l302 -243l-311 -275h-30l310 275 l-302 243h31zM377 518v-518h-20v518h20zM719 0h-30l-312 275l302 243h32l-303 -243z" />
<glyph unicode="&#x4de;" horiz-adv-x="595" d="M182 910q0 12 8.5 19t19 7t19 -7t8.5 -19q0 -17 -13.5 -24t-27.5 0t-14 24zM347 910q0 7 3.5 13.5t9.5 10t13 3.5q6 0 11 -2t8.5 -6t6 -9t2.5 -10q0 -12 -8 -20t-20 -8q-10 0 -18 8t-8 20zM517 198q0 80 -60 130q-60 49 -163 49h-94v20h93q93 0 149 50q59 51 59 124 q0 74 -57 124q-56 53 -150 53q-64 0 -118 -33q-67 -42 -99 -134l-20 9q22 75 86 127q63 51 152 51q102 0 165 -57q62 -56 62 -140q0 -59 -43 -112q-42 -51 -115 -70q80 -15 127.5 -68t47.5 -124q0 -92 -70 -149q-69 -56 -174 -56q-91 0 -157 52q-64 49 -90 127l20 8 q26 -81 93 -127q61 -40 133 -40q94 0 159 51q64 51 64 135z" />
<glyph unicode="&#x4df;" horiz-adv-x="455" d="M121 697q0 23 22 26q22 4 30 -14q2 -5 2 -12q0 -12 -8.5 -19.5t-18.5 -7.5t-18.5 7.5t-8.5 19.5zM274 697q0 11 8 19.5t19 8.5t19 -8t8 -20q0 -11 -8 -19.5t-19 -8.5t-19 8.5t-8 19.5zM226 -9q-67 0 -115 30.5t-76 91.5l18 8q54 -110 173 -110q66 0 112 36t46 87 q0 26 -11.5 48.5t-32.5 38.5t-50.5 25t-63.5 9h-76v18h75q64 0 105.5 33t41.5 83t-42 83q-42 35 -105 35q-116 0 -170 -109l-17 8q26 58 75.5 89.5t111.5 31.5q72 0 120 -41q49 -40 49 -94q0 -44 -30.5 -78.5t-80.5 -48.5v-1q58 -14 89.5 -48.5t31.5 -84.5q0 -56 -52 -98 t-126 -42z" />
<glyph unicode="&#x4e2;" horiz-adv-x="805" d="M242 862v19h323v-19h-323zM670 0v728l-530 -728h-27v760h21v-731l532 731h27v-760h-23z" />
<glyph unicode="&#x4e3;" horiz-adv-x="621" d="M149 630v19h321v-19h-321zM529 518v-518h-21v486l-395 -486h-21v518h21v-485l395 485h21z" />
<glyph unicode="&#x4e4;" horiz-adv-x="805" d="M294 910q0 12 8.5 19t18.5 7t18.5 -7t8.5 -19q0 -17 -13.5 -24t-27 0t-13.5 24zM459 910q0 7 3.5 13.5t9.5 10t13 3.5q8 0 14 -3.5t9.5 -10t3.5 -13.5q0 -12 -7.5 -20t-19.5 -8q-11 0 -18.5 8t-7.5 20zM670 0v728l-530 -728h-27v760h21v-731l532 731h27v-760h-23z" />
<glyph unicode="&#x4e5;" horiz-adv-x="621" d="M207 697q0 13 8.5 20t18.5 7t18.5 -7t8.5 -20q0 -12 -8.5 -19.5t-18.5 -7.5t-18.5 7.5t-8.5 19.5zM360 697q0 11 7.5 19.5t18.5 8.5q12 0 19.5 -8t7.5 -20q0 -11 -7.5 -19.5t-19.5 -8.5q-11 0 -18.5 8.5t-7.5 19.5zM529 518v-518h-21v486l-395 -486h-21v518h21v-485 l395 485h21z" />
<glyph unicode="&#x4e6;" horiz-adv-x="860" d="M322 910q0 11 8 19t19 8t18.5 -8t7.5 -19q0 -8 -3.5 -14.5t-9.5 -10t-13 -3.5t-13.5 3.5t-10 10t-3.5 14.5zM486 910q0 12 8.5 19t18.5 7t18.5 -7t8.5 -19q0 -17 -13.5 -24t-27 0t-13.5 24zM430 -8q-162 0 -268 112q-105 112 -105 275.5t105 275.5q107 112 268 112 q162 0 267 -112q106 -112 106 -275q0 -164 -106 -275q-105 -113 -267 -113zM431 12q152 0 252 106q99 107 99 260.5t-101 261.5q-100 108 -252 108t-251 -107q-99 -106 -99 -260q0 -155 99 -262q101 -107 253 -107z" />
<glyph unicode="&#x4e7;" horiz-adv-x="634" d="M216 697q0 11 8 19.5t18 8.5q12 0 20 -8t8 -20q0 -11 -8 -19.5t-20 -8.5q-7 0 -13 4t-9.5 10.5t-3.5 13.5zM369 697q0 12 7.5 20t19.5 8q7 0 13 -4t9.5 -10t3.5 -14q0 -11 -7.5 -19.5t-18.5 -8.5q-12 0 -19.5 8.5t-7.5 19.5zM317 -9q-114 0 -189 77q-76 77 -76 191 t76 191q77 77 190 77q116 0 189 -77q75 -78 75 -190q0 -114 -76 -191q-74 -78 -189 -78zM317 507q-106 0 -174.5 -71.5t-68.5 -175.5q0 -106 70 -178q71 -71 174 -71q105 0 174 71.5t69 176.5t-70 177q-69 71 -174 71z" />
<glyph unicode="&#x4e8;" horiz-adv-x="860" d="M430 767q162 0 267 -112q106 -112 106 -275q0 -164 -106 -275q-105 -113 -267 -113t-268 112q-105 112 -105 275.5t105 275.5q107 112 268 112zM79 397h703q-8 148 -107 249q-99 102 -246.5 102t-246.5 -102q-98 -102 -103 -249zM431 12q152 0 252 106q99 107 99 259 h-703q1 -152 101 -259q101 -106 251 -106z" />
<glyph unicode="&#x4e9;" horiz-adv-x="634" d="M317 -9q-114 0 -189 77q-76 77 -76 191t76 191q77 77 190 77q116 0 189 -77q75 -78 75 -190q0 -114 -76 -191q-74 -78 -189 -78zM74 270h487q-5 101 -73 169t-171 68q-104 0 -171 -68q-68 -67 -72 -169zM318 11q103 0 172 69q69 70 71 171h-487q3 -103 72 -171 q71 -69 172 -69z" />
<glyph unicode="&#x4ea;" horiz-adv-x="860" d="M349 882q-7 0 -13.5 3.5t-10 10t-3.5 14.5q0 11 8 19t19 8t18.5 -8t7.5 -19q0 -8 -3.5 -14.5t-9.5 -10t-13 -3.5zM486 910q0 12 8.5 19t18.5 7t18.5 -7t8.5 -19q0 -17 -13.5 -24t-27 0t-13.5 24zM430 767q162 0 267 -112q106 -112 106 -275q0 -164 -106 -275 q-105 -113 -267 -113t-268 112q-105 112 -105 275.5t105 275.5q107 112 268 112zM79 397h703q-8 148 -107 249q-99 102 -246.5 102t-246.5 -102q-98 -102 -103 -249zM431 12q152 0 252 106q99 107 99 259h-703q1 -152 101 -259q101 -106 251 -106z" />
<glyph unicode="&#x4eb;" horiz-adv-x="634" d="M216 697q0 11 8 19.5t18 8.5q12 0 20 -8t8 -20q0 -11 -8 -19.5t-20 -8.5q-7 0 -13 4t-9.5 10.5t-3.5 13.5zM369 697q0 12 7.5 20t19.5 8q7 0 13 -4t9.5 -10t3.5 -14q0 -11 -7.5 -19.5t-18.5 -8.5q-12 0 -19.5 8.5t-7.5 19.5zM317 -9q-114 0 -189 77q-76 77 -76 191 t76 191q77 77 190 77q116 0 189 -77q75 -78 75 -190q0 -114 -76 -191q-74 -78 -189 -78zM561 270q-5 101 -73 169t-171 68q-104 0 -171 -68q-68 -67 -72 -169h487zM318 11q103 0 172 69q69 70 71 171h-487q3 -103 72 -171q71 -69 172 -69z" />
<glyph unicode="&#x4ec;" horiz-adv-x="818" d="M316 882q-11 0 -18.5 8t-7.5 20q0 5 2 10t5.5 9t8.5 6t10 2q12 0 19.5 -8t7.5 -19q0 -12 -7.5 -20t-19.5 -8zM481 882q-6 0 -11 2t-8.5 6t-5.5 9t-2 11q0 11 8 19t19 8t18.5 -8t7.5 -19q0 -8 -3.5 -14.5t-9.5 -10t-13 -3.5zM389 767q162 0 267 -112t105 -276 q0 -163 -104 -275q-105 -112 -267 -112q-70 0 -131 22t-103 61q-79 73 -108 158l20 8q8 -23 20 -45.5t31 -49.5t45.5 -50t58.5 -42.5t75 -30.5t91 -11q151 0 250.5 106.5t100.5 258.5h-411v20h411q-6 145 -105 248q-97 103 -244 103q-116 0 -197 -60q-49 -37 -79.5 -83 t-40.5 -84l-21 8q28 92 116 166q89 72 220 72z" />
<glyph unicode="&#x4ed;" horiz-adv-x="586" d="M216 669q-11 0 -19 8.5t-8 19.5q0 8 3.5 14t10 10t13.5 4t13.5 -4t9.5 -10t3 -14q0 -7 -3 -13.5t-9.5 -10.5t-13.5 -4zM341 697q0 17 14 24t27.5 0t12.5 -24q0 -12 -8.5 -19.5t-18.5 -7.5t-18.5 7.5t-8.5 19.5zM275 527q109 0 184 -78q75 -77 75 -190q0 -114 -76 -191 q-75 -77 -183 -77q-84 0 -143.5 41.5t-83.5 111.5l19 8q23 -65 76 -103t132 -38q101 0 169 72q69 74 69 177v1h-298v18h297q-7 98 -75 162q-68 66 -162 66q-78 0 -132.5 -38t-75.5 -100l-19 7q24 69 84 110t143 41z" />
<glyph unicode="&#x4ee;" horiz-adv-x="652" d="M174 862v19h321v-19h-321zM624 760h23l-287 -583q-46 -94 -100 -139.5t-131 -45.5q-59 0 -107 39l11 17q47 -36 95 -36q82 0 135 56q43 46 77 116l-328 576h24l315 -554z" />
<glyph unicode="&#x4ef;" horiz-adv-x="557" d="M120 630v19h322v-19h-322zM288 48l228 470h21l-375 -773h-22l137 282l-253 491h23z" />
<glyph unicode="&#x4f0;" horiz-adv-x="652" d="M223 910q0 11 8 19t19 8t18.5 -8t7.5 -19q0 -12 -7.5 -20t-18.5 -8t-19 8t-8 20zM387 910q0 16 13.5 23t27 0t12.5 -23q0 -17 -13 -24t-26.5 0t-13.5 24zM624 760h23l-287 -583q-46 -94 -100 -139.5t-131 -45.5q-59 0 -107 39l11 17q47 -36 95 -36q82 0 135 56 q43 46 77 116l-328 576h24l315 -554z" />
<glyph unicode="&#x4f1;" horiz-adv-x="557" d="M179 697q0 11 8.5 19.5t19.5 8.5t19 -8t8 -20q0 -11 -8 -19.5t-19 -8.5t-19.5 8.5t-8.5 19.5zM333 697q0 12 7.5 20t19.5 8q5 0 10 -2.5t8.5 -6t5.5 -8.5t2 -11q0 -11 -7.5 -19.5t-18.5 -8.5q-8 0 -14 4t-9.5 10.5t-3.5 13.5zM288 48l228 470h21l-375 -773h-22l137 282 l-253 491h23z" />
<glyph unicode="&#x4f2;" horiz-adv-x="652" d="M382 996l-121 -168h-17l107 168h31zM522 996l-121 -168h-16l106 168h31zM624 760h23l-287 -583q-46 -94 -100 -139.5t-131 -45.5q-59 0 -107 39l11 17q47 -36 95 -36q82 0 135 56q43 46 77 116l-328 576h24l315 -554z" />
<glyph unicode="&#x4f3;" horiz-adv-x="557" d="M343 773l-121 -167h-16l106 167h31zM483 773l-121 -167h-16l106 167h31zM288 48l228 470h21l-375 -773h-22l137 282l-253 491h23z" />
<glyph unicode="&#x4f4;" horiz-adv-x="710" d="M220 910q0 7 3.5 13.5t10 10t13.5 3.5q5 0 9 -1.5t7 -4t5.5 -6t4 -7.5t1.5 -8q0 -12 -8 -20t-19 -8t-19 8t-8 20zM384 910q0 22 22 26q22 3 30 -15q2 -5 1 -11q0 -17 -13 -24t-26.5 0t-13.5 24zM576 760h22v-760h-22v374q-63 -34 -137 -60q-75 -26 -136 -26 q-120 0 -181.5 54t-61.5 153v265h21v-267q0 -88 57 -137t162 -49q57 0 135 27q72 24 141 63v363z" />
<glyph unicode="&#x4f5;" horiz-adv-x="543" d="M149 697q0 11 8 19.5t19 8.5t19 -8t8 -20q0 -11 -8 -19.5t-19 -8.5t-19 8.5t-8 19.5zM302 697q0 12 7.5 20t19.5 8q5 0 10 -2.5t8.5 -6t5.5 -8.5t2 -11q0 -11 -7.5 -19.5t-18.5 -8.5q-8 0 -14 4t-9.5 10.5t-3.5 13.5zM431 518h20v-518h-20v235q-39 -27 -96 -45t-113 -18 q-54 0 -92 16.5t-58 50.5t-20 82v197h21v-197q0 -65 41 -97.5t108 -32.5q50 0 107.5 18.5t101.5 47.5v261z" />
<glyph unicode="&#x4f8;" horiz-adv-x="939" d="M396 882q-11 0 -18.5 8t-7.5 20q0 11 7.5 19t18.5 8t19 -8t8 -19q0 -8 -3.5 -14.5t-10 -10t-13.5 -3.5zM561 882q-8 0 -14 3.5t-9.5 10t-3.5 14.5q0 11 7.5 19t19.5 8q10 0 18 -8t8 -19q0 -8 -3.5 -14.5t-9.5 -10t-13 -3.5zM134 760v-327h231q121 0 195 -54 q74 -52 74 -153q0 -108 -73.5 -167t-190.5 -59h-257v760h21zM827 760v-760h-22v760h22zM134 413v-394h238q45 0 86.5 11.5t77 34.5t56.5 64t21 95q0 52 -22 91t-60 59q-72 39 -167 39h-230z" />
<glyph unicode="&#x4f9;" horiz-adv-x="767" d="M280 697q0 11 8.5 19.5t18.5 8.5q12 0 20 -8t8 -20q0 -11 -8 -19.5t-20 -8.5q-10 0 -18.5 8.5t-8.5 19.5zM434 697q0 12 7.5 20t19.5 8q11 0 18.5 -8.5t7.5 -19.5t-7.5 -19.5t-18.5 -8.5q-12 0 -19.5 8.5t-7.5 19.5zM92 0v518h21v-210h216q90 0 141.5 -39t51.5 -108 q0 -73 -50 -117t-137 -44h-243zM675 518v-518h-20v518h20zM113 290v-272h220q80 0 124 39.5t44 103.5q0 59 -46 94t-127 35h-215z" />
<glyph unicode="&#x1e20;" horiz-adv-x="829" d="M584 862h-321v19h321v-19zM397 345h381v-20q0 -138 -98 -236q-97 -97 -250 -97q-161 0 -267 111q-106 110 -106 276q0 164 105 276q107 112 269 112q119 0 205 -64q86 -62 125 -164l-19 -8q-38 99 -119 158t-193 59q-154 0 -252 -108q-99 -106 -99 -259 q0 -156 100.5 -262.5t250.5 -106.5q136 0 232 86q96 87 96 225v3h-361v19z" />
<glyph unicode="&#x1e21;" horiz-adv-x="653" d="M468 630h-322v19h322v-19zM538 518h21v-511q0 -132 -72 -199q-71 -67 -182 -67q-92 0 -152 39t-98 119l18 10q37 -77 92 -113t139 -36q110 0 172 63.5t62 181.5v157q-21 -73 -85 -122q-62 -48 -149 -48q-111 0 -181 78.5t-70 187.5q0 110 70 190q71 80 181 80 q87 0 149 -48q64 -49 85 -122v160zM540 258v3q0 98 -67 173q-66 74 -167 74q-102 0 -167 -72q-64 -73 -64 -177v-1q0 -104 64 -176q65 -70 167 -70t167 73q67 75 67 173z" />
<glyph unicode="&#x1e30;" horiz-adv-x="627" d="M448 996l-120 -168h-17l107 168h30zM113 760h21v-760h-21v760zM167 396l463 -396h-32l-464 396l440 364h33z" />
<glyph unicode="&#x1e31;" horiz-adv-x="491" d="M113 0h-20v790h20v-790zM363 773h30l-120 -167h-17zM113 283l323 235h35l-325 -236l339 -282h-31z" />
<glyph unicode="&#x1e60;" horiz-adv-x="582" d="M266 910q0 11 7.5 19t19.5 8q11 0 18.5 -8t7.5 -19q0 -8 -3.5 -14.5t-9.5 -10t-13 -3.5q-8 0 -14 3.5t-9.5 10t-3.5 14.5zM296 -8q-169 0 -241 189l19 10q34 -88 87.5 -133.5t136.5 -45.5q84 0 144 51q59 51 59 134q0 64 -42 107t-118 64l-109 29q-53 14 -86.5 34 t-52.5 54.5t-19 83.5q0 86 65 142q66 57 155 57q162 0 226 -158l-19 -10q-25 68 -77.5 108.5t-130.5 40.5t-138 -51.5t-60 -126.5q0 -63 34 -99t110 -57l110 -30q82 -21 128 -68t46 -118q0 -92 -65 -150q-65 -57 -162 -57z" />
<glyph unicode="&#x1e61;" horiz-adv-x="464" d="M207 697q0 8 3.5 14t9.5 10t14 4q7 0 13 -4t9.5 -10t3.5 -14q0 -7 -3.5 -13.5t-9.5 -10.5t-13 -4q-12 0 -19.5 8.5t-7.5 19.5zM237 -9q-131 0 -189 122l17 9q29 -58 70.5 -84.5t102.5 -26.5q58 0 103 34q47 35 47 85q0 56 -38 80q-37 26 -123 45q-87 19 -125 47 q-37 28 -37 88t53 98q54 39 117 39q121 0 170 -110l-17 -10q-47 101 -155 101q-53 0 -100 -34q-47 -33 -47 -83q0 -52 33 -77q34 -23 115 -40q94 -21 134.5 -52t40.5 -91q0 -62 -53 -101q-52 -39 -119 -39z" />
<glyph unicode="&#x1e80;" horiz-adv-x="1059" d="M541 828h-15l-122 168h31zM793 0h-23l-240 721l-241 -721h-23l-234 760h22l224 -732l243 732h17l244 -732l224 732h21z" />
<glyph unicode="&#x1e81;" horiz-adv-x="832" d="M427 606h-17l-120 167h30zM616 0h-21l-179 492l-174 -492h-22l-191 518h22l180 -493l175 493h21l179 -493l177 493h20z" />
<glyph unicode="&#x1e82;" horiz-adv-x="1059" d="M628 996h30l-121 -168h-16zM1006 760h21l-234 -760h-23l-240 721l-241 -721h-23l-234 760h22l224 -732l243 732h17l244 -732z" />
<glyph unicode="&#x1e83;" horiz-adv-x="832" d="M513 773h30l-120 -167h-17zM783 518h20l-187 -518h-21l-179 492l-174 -492h-22l-191 518h22l180 -493l175 493h21l179 -493z" />
<glyph unicode="&#x1e84;" horiz-adv-x="1059" d="M421 910q-1 22 22 26q22 3 30 -15l1 -11q0 -17 -13 -24t-26.5 0t-13.5 24zM585 910q0 12 8.5 19t18.5 7t18.5 -7t8.5 -19q0 -17 -13.5 -24t-27 0t-13.5 24zM1006 760h21l-234 -760h-23l-240 721l-241 -721h-23l-234 760h22l224 -732l243 732h17l244 -732z" />
<glyph unicode="&#x1e85;" horiz-adv-x="832" d="M314 697q0 11 8 19.5t18 8.5q12 0 20 -8t8 -20q0 -11 -8 -19.5t-20 -8.5q-10 0 -18 8.5t-8 19.5zM467 697q0 12 7.5 20t19.5 8q5 0 10 -2.5t8.5 -6t5.5 -8.5t2 -11q0 -11 -7.5 -19.5t-18.5 -8.5q-8 0 -14 4t-9.5 10.5t-3.5 13.5zM783 518h20l-187 -518h-21l-179 492 l-174 -492h-22l-191 518h22l180 -493l175 493h21l179 -493z" />
<glyph unicode="&#x1e90;" horiz-adv-x="594" d="M165 829h-21l140 167h21l139 -167h-21l-129 146zM532 740h-486v20h510v-20l-502 -721h504v-19h-528v19z" />
<glyph unicode="&#x1e91;" horiz-adv-x="484" d="M112 606h-22l140 167h21l140 -167h-21l-129 147zM47 500v18h393v-18l-377 -482h378v-18h-404v18l378 482h-368z" />
<glyph unicode="&#x1ebc;" horiz-adv-x="631" d="M264 944q25 0 43 -12.5t43 -42.5q33 -42 66 -42q59 0 60 96h17q0 -55 -20.5 -85.5t-56.5 -30.5q-27 2 -42 12.5t-39 38.5q-21 25 -35.5 36t-35.5 11q-59 0 -60 -96h-17q-1 55 20 85t57 30zM134 397h400v-20h-400v-358h437v-19h-458v760h453v-20h-432v-343z" />
<glyph unicode="&#x1ebd;" horiz-adv-x="586" d="M220 722q25 0 43 -12.5t44 -44.5q33 -41 66 -41q59 0 61 96h15q1 -54 -19.5 -84.5t-56.5 -30.5q-24 0 -41.5 11.5t-39.5 38.5q-21 26 -36.5 36.5t-35.5 10.5q-58 0 -60 -96h-15q-1 37 8 63t26 39.5t41 13.5zM537 261h-463v-1q0 -102 67 -177q68 -72 169 -72 q63 0 115.5 30.5t78.5 80.5l18 -10q-21 -37 -53.5 -64t-73.5 -42t-86 -15q-110 0 -184 79q-73 78 -73 190v2q0 106 72 185q72 80 176 80q81 0 136 -39q100 -69 101 -227zM300 507q-89 0 -155.5 -68t-70.5 -160h442q-2 44 -14.5 82.5t-37 72.5t-67 53.5t-97.5 19.5z" />
<glyph unicode="&#x1ef2;" horiz-adv-x="676" d="M352 828h-16l-121 168h30zM349 327v-327h-21v327l-298 433h25l285 -414l281 414h25z" />
<glyph unicode="&#x1ef3;" horiz-adv-x="561" d="M300 606h-17l-120 167h30zM163 -255h-22l137 282l-252 491h22l241 -470l229 470h21z" />
<glyph unicode="&#x2000;" horiz-adv-x="544" />
<glyph unicode="&#x2001;" horiz-adv-x="1089" />
<glyph unicode="&#x2002;" horiz-adv-x="544" />
<glyph unicode="&#x2003;" horiz-adv-x="1089" />
<glyph unicode="&#x2004;" horiz-adv-x="363" />
<glyph unicode="&#x2005;" horiz-adv-x="272" />
<glyph unicode="&#x2006;" horiz-adv-x="181" />
<glyph unicode="&#x2007;" horiz-adv-x="181" />
<glyph unicode="&#x2008;" horiz-adv-x="136" />
<glyph unicode="&#x2009;" horiz-adv-x="217" />
<glyph unicode="&#x200a;" horiz-adv-x="60" />
<glyph unicode="&#x2010;" horiz-adv-x="439" d="M362 317v-18h-284v18h284z" />
<glyph unicode="&#x2011;" horiz-adv-x="439" d="M362 317v-18h-284v18h284z" />
<glyph unicode="&#x2012;" horiz-adv-x="439" d="M362 317v-18h-284v18h284z" />
<glyph unicode="&#x2013;" horiz-adv-x="600" d="M523 316v-18h-445v18h445z" />
<glyph unicode="&#x2014;" horiz-adv-x="1002" d="M924 316v-18h-846v18h846z" />
<glyph unicode="&#x2018;" horiz-adv-x="201" d="M99 670q16 0 23 -13.5t0 -27.5t-23 -14q-14 0 -23 12t-9 31v1q0 60 54 102l14 -12q-46 -37 -48 -82q5 3 12 3z" />
<glyph unicode="&#x2019;" horiz-adv-x="203" d="M111 706q-12 0 -20 8t-8 19q0 6 2.5 11.5t6 9t8.5 5.5t11 2q13 0 22.5 -12t9.5 -30v-1q0 -60 -55 -103l-13 13q46 37 47 81q-4 -3 -11 -3z" />
<glyph unicode="&#x201a;" horiz-adv-x="227" d="M113 -6q-11 0 -19 8t-8 19q0 13 8 20.5t19 7.5q14 0 23.5 -12t9.5 -30v-1q0 -60 -55 -103l-13 13q46 37 47 81q-4 -3 -12 -3z" />
<glyph unicode="&#x201c;" horiz-adv-x="323" d="M99 670q16 0 23 -13.5t0 -27.5t-23 -14q-14 0 -23 12t-9 31v1q0 60 54 102l14 -12q-46 -37 -48 -82q5 3 12 3zM222 670q8 0 14.5 -4t9 -10t2.5 -13.5t-2.5 -13.5t-9 -10t-14.5 -4q-14 0 -23 12t-9 31v1q0 60 54 102l14 -12q-46 -37 -48 -82q5 3 12 3z" />
<glyph unicode="&#x201d;" horiz-adv-x="326" d="M111 706q-12 0 -20 8t-8 19q0 6 2.5 11.5t6 9t8.5 5.5t11 2q13 0 22.5 -12t9.5 -30v-1q0 -60 -55 -103l-13 13q46 37 47 81q-4 -3 -11 -3zM234 706q-12 0 -19.5 8t-7.5 19q0 13 7.5 20.5t19.5 7.5q14 0 23 -12t9 -30v-1q0 -27 -15 -55.5t-41 -47.5l-12 13q46 37 47 81 q-4 -3 -11 -3z" />
<glyph unicode="&#x201e;" horiz-adv-x="352" d="M113 -6q-11 0 -19 8t-8 19q0 13 8 20.5t19 7.5q14 0 23.5 -12t9.5 -30v-1q0 -60 -55 -103l-13 13q46 37 47 81q-4 -3 -12 -3zM237 -6q-12 0 -19.5 8t-7.5 19q0 13 7.5 20.5t19.5 7.5q13 0 22.5 -12t9.5 -30v-1q0 -27 -15 -55.5t-41 -47.5l-12 13q46 37 47 81 q-4 -3 -11 -3z" />
<glyph unicode="&#x2020;" horiz-adv-x="594" d="M286 478v241h21v-241h204v-17h-204v-461h-21v461h-203v17h203z" />
<glyph unicode="&#x2021;" horiz-adv-x="596" d="M288 17v486h-223v17h223v199h20v-199h224v-17h-224v-486h224v-17h-224v-200h-20v200h-223v17h223z" />
<glyph unicode="&#x2022;" horiz-adv-x="497" d="M249 526q69 0 119 -52q49 -51 49 -120t-49 -120q-48 -50 -119 -50q-70 0 -119 50q-49 51 -49 120t49 120q50 52 119 52z" />
<glyph unicode="&#x2026;" horiz-adv-x="515" d="M78 21q0 12 8 20t19 8q7 0 13.5 -3.5t10 -10t3.5 -14.5q0 -7 -3.5 -13t-10 -10t-13.5 -4q-11 0 -19 8t-8 19zM231 21q0 8 3.5 14.5t10 10t13.5 3.5q12 0 19.5 -8t7.5 -20q0 -5 -2 -10t-5.5 -8.5t-8.5 -6t-11 -2.5q-11 0 -19 8t-8 19zM384 21q0 12 8 20t19 8q12 0 19.5 -8 t7.5 -20q0 -11 -7.5 -19t-19.5 -8q-11 0 -19 8t-8 19z" />
<glyph unicode="&#x202f;" horiz-adv-x="217" />
<glyph unicode="&#x2030;" horiz-adv-x="1232" d="M330 475q-50 -49 -120 -49q-71 0 -122 49q-49 51 -49 122q0 70 49 120q51 50 122 50t120 -50q50 -49 50 -120t-50 -122zM159 0l494 760h24l-495 -760h-23zM315 703q-43 45 -105.5 45t-105.5 -45q-44 -43 -44 -106t44 -108q43 -44 105.5 -44t105.5 44q44 45 44 108 t-44 106zM749 45q-49 -51 -120 -51t-122 51q-49 51 -49 121q0 71 49 120q51 50 122 50q70 0 120 -50q50 -49 50 -120t-50 -121zM1023 336q71 0 121 -50q50 -49 50 -120t-50 -121q-49 -51 -121 -51q-70 0 -120.5 50.5t-50.5 121.5t49 120q51 50 122 50zM734 273 q-43 44 -105.5 44t-105.5 -44q-44 -44 -44 -107t44 -108q43 -44 105.5 -44t105.5 44q44 45 44 108t-44 107zM1129 273q-43 44 -106 44q-62 0 -106 -44t-44 -107t44 -108q44 -44 106 -44q63 0 106 44q44 45 44 108t-44 107z" />
<glyph unicode="&#x2039;" horiz-adv-x="318" d="M242 133l-14 -13l-177 172l177 172l14 -13l-164 -159z" />
<glyph unicode="&#x203a;" horiz-adv-x="318" d="M77 133l164 159l-164 159l13 13l177 -172l-177 -172z" />
<glyph unicode="&#x203d;" horiz-adv-x="469" d="M321 402q-58 -48 -82 -86q-23 -35 -25 -90l-1 -57h-19v461h20v-326q22 55 89 108q47 39 74 77.5t27 95.5q0 67 -48.5 115.5t-121.5 48.5q-61 0 -111 -39.5t-71 -103.5l-19 10q24 70 78.5 110.5t122.5 40.5q83 0 137 -53q55 -52 55 -129q0 -56 -25 -98t-80 -85zM233 21 q0 -7 -4 -13t-10 -10t-13 -4q-12 0 -20 8t-8 19q0 5 1 9.5t4 7.5l6 6t7.5 4t9.5 1q11 0 19 -8t8 -20z" />
<glyph unicode="&#x2042;" horiz-adv-x="896" d="M574 417l-16 -13l-110 150l-110 -150l-17 13l113 143l-180 56l6 19l180 -62l-3 187h22l-3 -187l179 62l7 -19l-180 -56zM357 4l-17 -13l-110 150l-111 -150l-16 13l112 143l-179 56l7 20l180 -63l-4 186h22l-3 -186l180 63l7 -20l-182 -56zM792 4l-16 -13l-111 150 l-110 -150l-17 13l114 143l-181 56l7 20l181 -63l-3 186h20l-3 -186l181 63l6 -20l-180 -56z" />
<glyph unicode="&#x2044;" horiz-adv-x="548" d="M509 760h25l-495 -760h-24z" />
<glyph unicode="&#x2051;" horiz-adv-x="515" d="M384 417l-16 -13l-111 150l-111 -150l-16 13l112 143l-179 56l7 19l180 -62l-4 187h22l-3 -187l180 62l7 -19l-181 -56zM384 4l-16 -13l-111 150l-111 -150l-16 13l112 143l-179 56l7 20l180 -63l-4 186h22l-3 -186l180 63l7 -20l-181 -56z" />
<glyph unicode="&#x205f;" horiz-adv-x="272" />
<glyph unicode="&#x20a4;" horiz-adv-x="603" d="M549 108l16 -11q-23 -50 -64.5 -79t-94.5 -29q-38 0 -95.5 25.5t-92.5 25.5q-45 0 -132 -40l-11 22q79 53 117.5 106t38.5 119q0 3 -2 21h-162v19h158q-6 23 -17 46q-12 24 -32 58l-28 47h-81v20h72q-28 58 -28 104q0 78 63 142q64 64 156 64q80 0 135.5 -40.5 t75.5 -105.5l-19 -10q-18 61 -69 99t-122 38q-81 0 -140 -56.5t-59 -130.5q0 -47 31 -104h263v-20h-253l20 -36q16 -27 23 -41q20 -33 31 -74h179v-19h-175q1 -5 1 -20q0 -119 -126 -210v-1q55 22 96 22q32 0 93 -25q63 -25 93 -25q93 0 141 99z" />
<glyph unicode="&#x20a6;" horiz-adv-x="893" d="M746 462v-152h87v-19h-87v-291h-20l-224 291h-334v-291h-21v291h-87v19h87v152h-87v19h87v279h22l213 -279h344v279h20v-279h87v-19h-87zM168 481h189l-189 247v-247zM488 310l-116 152h-204v-152h320zM726 462h-329l115 -152h214v152zM726 291h-198l198 -259v259z" />
<glyph unicode="&#x20a9;" horiz-adv-x="1090" d="M786 0l-122 365h-237l-122 -365h-24l-112 365h-117v18h111l-115 377h22l115 -377h227l124 377h18l125 -377h227l115 377h22l-116 -377h111v-18h-116l-113 -365h-23zM545 721l-112 -338h225zM294 28l111 337h-214zM797 28l103 337h-214z" />
<glyph unicode="&#x20aa;" horiz-adv-x="941" d="M598 194h-20v214q0 212 -214 212h-231v-620h-20v638h250q235 0 235 -230v-214zM809 638h20v-408q0 -230 -235 -230h-251v441h21v-423h231q214 0 214 212v408z" />
<glyph unicode="&#x20ab;" horiz-adv-x="668" d="M551 645v-645h-20v162q-22 -73 -86 -122q-62 -48 -149 -48q-111 0 -180.5 78.5t-69.5 187.5q0 110 69 190q71 80 181 80q87 0 149 -48q64 -49 86 -122v287h-216v18h216v127h20v-127h58v-18h-58zM67 259v-1q0 -104 64 -176q65 -70 167 -70q103 0 168 73q67 75 67 173v3 q0 98 -67 173q-66 74 -168 74t-167 -72q-64 -73 -64 -177zM551 -142v-18h-482v18h482z" />
<glyph unicode="&#x20ac;" horiz-adv-x="877" d="M815 241l19 -9q-29 -88 -109 -161q-41 -37 -100.5 -58t-126.5 -21q-139 0 -236 82q-98 83 -127 211h-87v20h84q-7 31 -7 74q0 44 7 77h-84v19h88q30 129 127.5 210.5t234.5 81.5q67 0 126 -21t100 -57q77 -67 108 -159l-19 -9q-29 83 -98 148q-25 24 -58.5 41.5 t-74.5 27.5t-85 10q-126 0 -219 -78q-91 -76 -120 -195h415l-7 -19h-413q-7 -31 -7 -75q0 -34 7 -76h367l-6 -20h-356q29 -119 121 -197q91 -76 220 -76q65 0 122 21t95 57q70 66 99 151z" />
<glyph unicode="&#x20ae;" horiz-adv-x="626" d="M327 740v-303l-21 -9v312h-263v20h546v-20h-262zM327 417v20l201 90v-21zM306 428v-21l-197 -87v20zM306 407l21 10v-150l-21 -10v150zM327 247v20l201 89v-19zM306 257v-19l-197 -89v21zM306 238l21 9v-247h-21v238z" />
<glyph unicode="&#x20b1;" horiz-adv-x="733" d="M140 546v214h202q89 0 151.5 -26.5t94 -74t33.5 -113.5h76v-19h-77q-5 -99 -79 -153.5t-203 -54.5h-177v-319h-21v527h-88v19h88zM161 740v-194h438q-1 60 -31 103.5t-88.5 67t-139.5 23.5h-179zM161 527v-188h177q122 0 188.5 49.5t71.5 138.5h-437z" />
<glyph unicode="&#x20b4;" horiz-adv-x="663" d="M400 397l-110 -30q-73 -20 -118 -59h419v-19h-440q-38 -45 -38 -104q0 -86 63 -130q62 -43 149 -43q98 0 160 57q62 58 77 138l20 -6q-14 -87 -86 -149q-72 -60 -171 -60q-102 0 -168 51t-66 144q0 58 33 102h-54v19h71q52 53 141 77l111 30q60 16 97 45h-420v19h440 q32 38 32 97q0 79 -59 125q-58 47 -140 47q-39 0 -73 -11t-57.5 -28t-41.5 -39t-28.5 -43t-15.5 -41l-20 6q13 68 78 122q65 53 158 53t157 -51t64 -138q0 -60 -30 -99h57v-19h-72q-40 -42 -119 -63z" />
<glyph unicode="&#x20b8;" horiz-adv-x="655" d="M55 740v20h546v-20h-546zM318 569h-263v20h546v-20h-261v-569h-22v569z" />
<glyph unicode="&#x20b9;" horiz-adv-x="612" d="M204 324h-134v19h111q124 0 191 50.5t70 140.5h-372v19h372q-3 88 -70 137.5t-189 49.5h-113v20h496v-20h-156l-103 2q152 -42 157 -189h102v-19h-102q-3 -91 -64.5 -145t-171.5 -63l219 -326h-26z" />
<glyph unicode="&#x20ba;" horiz-adv-x="606" d="M169 0v296l-110 -50v21l110 49v151l-110 -50v20l110 49v274h21v-264l249 111v-20l-249 -111v-150l249 110v-19l-249 -111v-287q142 2 239 90q99 90 120 202l20 -3q-24 -125 -131 -217q-105 -91 -255 -91h-14z" />
<glyph unicode="&#x20bd;" horiz-adv-x="640" d="M153 168v151h-96v20h96v421h170q90 0 153 -27t94 -76t31 -116q0 -105 -74 -163.5t-209 -58.5h-143v-151h211v-20h-211v-148h-22v148h-96v20h96zM175 740v-401h143q127 0 194.5 53.5t67.5 146.5q0 95 -67 148t-193 53h-145z" />
<glyph unicode="&#x2122;" horiz-adv-x="960" d="M195 743v-421h-19v421h-137v17h293v-17h-137zM848 322v412l-196 -412h-19l-196 407v-407h-20v438h26l200 -416l196 416h29v-438h-20z" />
<glyph unicode="&#x25fc;" horiz-adv-x="518" d="M0 519h519v-519h-519v519z" />
</font>
</defs>
</svg>
