<svg width="132" height="32" viewBox="0 0 132 32" fill="none" xmlns="http://www.w3.org/2000/svg">
<path fill-rule="evenodd" clip-rule="evenodd" d="M59.3999 12H60.7499L61.8499 9.84999H63.0999V12H64.2499V5.89999H61.9499C60.3499 5.89999 59.5499 6.69999 59.5499 7.89999C59.5499 8.74999 59.9499 9.39999 60.6999 9.69999L59.3999 12ZM63.0999 8.94999H61.9499C61.0999 8.94999 60.6999 8.54999 60.6999 7.89999C60.6999 7.24999 61.0999 6.84999 61.9499 6.84999H63.0999V8.94999Z" fill="#29303D"/>
<path fill-rule="evenodd" clip-rule="evenodd" d="M54.2999 12.1C54.9999 12.1 55.7999 11.85 56.2999 11.15V12H57.2999V8.29999C57.2999 6.49999 56.5999 5.79999 54.8999 5.79999C54.2999 5.79999 53.4999 5.94999 52.8499 6.34999V7.34999C53.5499 6.89999 54.1999 6.74999 54.8999 6.74999C55.7499 6.74999 56.1499 7.14999 56.1499 7.99999V8.29999H55.3499C52.9499 8.29999 52.0999 9.14999 52.0999 10.35C52.1999 11.35 52.9499 12.1 54.2999 12.1ZM54.5999 11.2C53.7999 11.2 53.3999 10.8 53.3999 10.3C53.3999 9.59999 53.8999 9.09999 55.4499 9.09999H56.2499V9.64999C56.1999 10.5 55.5499 11.2 54.5999 11.2Z" fill="#29303D"/>
<path d="M45.7999 5.89999H44.6499V12H45.7999V9.29999H48.8999V12H50.0499V5.89999H48.8999V8.39999H45.7999V5.89999Z" fill="#29303D"/>
<path d="M34.1499 12H41.6999V13.75H42.7999V11.1H41.8999V5.89999H40.7499V11.1H38.5999V5.89999H37.4499V11.1H35.2999V5.89999H34.1499V12Z" fill="#29303D"/>
<path d="M27.4999 12L30.4999 7.19999V12H31.6499V5.89999H30.1999L27.2499 10.7V5.89999H26.0999V12H27.4999Z" fill="#29303D"/>
<path d="M18.5499 12.1C19.8499 12.1 20.4499 10.7 20.4499 6.94999V6.79999H22.4999V12H23.6499V5.89999H19.4499V6.39999C19.4499 9.79999 19.1999 11.05 18.3999 11.05C18.1999 11.05 18.0499 11 18.0499 11V12C17.9999 12 18.2999 12.1 18.5499 12.1Z" fill="#29303D"/>
<path d="M12.1499 12L15.0999 7.19999V12H16.2499V5.89999H14.7999L11.8499 10.7V5.89999H10.6999V12H12.1499Z" fill="#29303D"/>
<path d="M3.9499 5.89999V8.59999H3.8999L1.8999 5.89999H0.499902L2.7999 8.79999L0.149902 12H1.5999L3.8999 9.04999H3.9999V12H5.1499V9.04999H5.2499L7.4999 12H8.9499L6.2999 8.79999L8.5999 5.89999H7.2499L5.2499 8.59999H5.1499V5.89999H3.9499Z" fill="#29303D"/>
<path d="M81.2002 27H83.6002V20.2H83.6502L85.5002 24.7H87.9502L89.8002 20.2H89.8502V27H92.3002V17.7H88.8502L86.8002 22.75L84.7502 17.7H81.2002V27Z" fill="#29303D"/>
<path fill-rule="evenodd" clip-rule="evenodd" d="M78.8502 23V22.5C78.8502 21.65 78.8002 17.5 74.5502 17.5C72.0502 17.5 69.9502 19.3 69.9502 22.3C69.9502 25.6 72.2002 27.1 74.9502 27.1C76.0502 27.1 77.2002 26.9 78.1502 26.5V24.65C77.2502 25.05 76.3002 25.3 75.2502 25.3C73.4002 25.3 72.5502 24.2 72.5002 23H78.8502ZM72.5002 21.4C72.5002 20.2 73.3502 19.2 74.4002 19.2C75.3002 19.2 76.3502 19.8 76.3502 21.4H72.5002Z" fill="#29303D"/>
<path d="M60.5002 17.7V19.5H63.4002V27H65.8502V19.5H68.7502V17.7H60.5002Z" fill="#29303D"/>
<path d="M56.7502 27.15C57.8002 27.15 58.7002 26.95 59.1502 26.8V25C58.5002 25.25 57.8502 25.4 57.2002 25.4C55.5002 25.4 54.4502 24.1 54.4502 22.4C54.4502 20.55 55.7002 19.3 57.3502 19.3C58.0502 19.3 58.5502 19.45 59.0002 19.6V17.8C58.3002 17.6 57.5502 17.55 56.9502 17.55C53.6502 17.55 51.9002 19.8 51.9002 22.25C51.9002 24.7 53.4002 27.15 56.7502 27.15Z" fill="#29303D"/>
<path d="M40.5002 17.7V27H43.1002L47.2002 20.45H47.2502L47.2002 22.2V27H49.6502V17.7H46.9002L42.9002 24.25H42.8502L42.9002 22.6V17.7H40.5002Z" fill="#29303D"/>
<path d="M36.0002 27.15C37.0502 27.15 37.9502 26.95 38.4002 26.8V25C37.7502 25.25 37.1002 25.4 36.4502 25.4C34.7502 25.4 33.7002 24.1 33.7002 22.4C33.7002 20.55 34.9502 19.3 36.6002 19.3C37.3002 19.3 37.8002 19.45 38.2502 19.6V17.8C37.5502 17.6 36.8002 17.55 36.2002 17.55C32.9002 17.55 31.1502 19.8 31.1502 22.25C31.1502 24.7 32.7002 27.15 36.0002 27.15Z" fill="#29303D"/>
<path fill-rule="evenodd" clip-rule="evenodd" d="M19.8002 22.35C19.8002 25.45 21.8502 27.15 24.6002 27.15C27.3502 27.15 29.4002 25.45 29.4002 22.35C29.4002 19.25 27.3502 17.55 24.6002 17.55C21.8502 17.55 19.8002 19.2 19.8002 22.35ZM22.3502 22.35C22.3502 20.2 23.5002 19.3 24.6002 19.3C25.7002 19.3 26.8502 20.2 26.8502 22.35C26.8502 24.5 25.7002 25.4 24.6002 25.4C23.5002 25.4 22.3502 24.5 22.3502 22.35Z" fill="#29303D"/>
<path d="M10.4002 17.7V27H12.8502V22.55H12.9502L16.1002 27H19.2002L15.2502 22.1L18.7002 17.7H15.9502L12.9502 21.95H12.8502V17.7H10.4002Z" fill="#29303D"/>
<path d="M3.3002 27.15C6.2502 27.15 8.1502 25.25 8.1502 22.4C8.1502 19.4 6.2502 17.5 3.1002 17.5C1.6502 17.5 0.650195 17.95 0.650195 17.95V19.8C0.650195 19.8 1.6002 19.35 2.7502 19.35C4.4002 19.35 5.3002 19.95 5.6002 21.35H2.0002V23H5.6502C5.4502 24.65 4.4502 25.35 2.9502 25.35C1.7002 25.35 0.450195 24.8 0.450195 24.8V26.65C0.450195 26.6391 0.500485 26.6569 0.59792 26.6913C0.94571 26.8144 1.89414 27.15 3.3002 27.15Z" fill="#29303D"/>
<path fill-rule="evenodd" clip-rule="evenodd" d="M103.75 17.7V27H101.3V25.95H101.25C100.75 26.6 99.7999 27.15 98.7999 27.15C96.1499 27.15 94.3999 25.45 94.3999 22.35C94.3999 19.25 96.1499 17.55 98.7999 17.55C99.7999 17.55 100.85 18.15 101.25 18.75H101.3V17.7H103.75ZM99.1999 25.4C100.2 25.4 101.45 24.5 101.45 22.35C101.45 20.2 100.2 19.3 99.1999 19.3C98.1999 19.3 96.9499 20.2 96.9499 22.35C96.9499 24.5 98.1499 25.4 99.1999 25.4Z" fill="#29303D"/>
<path d="M125.35 14.85C125.35 15.2 125.6 15.45 126.15 15.45C126.8 15.45 127.25 15 127.25 14.4V14.05H126.7C125.65 14.05 125.35 14.35 125.35 14.85Z" fill="#00AAFF"/>
<path d="M119.7 13.55C119.7 12.85 119.3 12.45 118.65 12.45C118.05 12.45 117.6 12.95 117.6 13.55H119.7Z" fill="#00AAFF"/>
<path d="M113.1 12.85C112.85 13.15 112.75 13.55 112.75 13.95C112.75 14.4 112.85 14.75 113.05 15C113.35 15.4 113.7 15.45 113.95 15.45C114.15 15.45 114.5 15.35 114.75 15C114.95 14.7 115.05 14.3 115.05 13.9C115.05 13.45 114.95 13.15 114.8 12.9C114.65 12.65 114.35 12.45 113.95 12.45C113.55 12.45 113.25 12.65 113.1 12.85Z" fill="#00AAFF"/>
<path fill-rule="evenodd" clip-rule="evenodd" d="M108 9H132V18H108V9ZM127.35 15.45C127 15.9 126.45 16.05 126 16.05C125.05 16.05 124.55 15.6 124.55 14.85C124.55 14.05 125.1 13.5 126.7 13.5H127.25V13.25C127.25 12.75 126.95 12.45 126.4 12.45C125.95 12.45 125.55 12.55 125.05 12.85V12.2C125.45 11.95 126 11.85 126.4 11.85C127.5 11.85 128 12.3 128 13.5V16H127.35V15.45ZM121.95 11.95V11L122.65 10.7V11.9H123.8V12.5H122.65V14.7C122.65 14.85 122.7 15.1 122.85 15.25C122.95 15.35 123.1 15.45 123.35 15.45C123.55 15.45 123.7 15.4 123.85 15.3V15.95C123.65 16 123.4 16.05 123.2 16.05C122.85 16.05 122.5 16 122.3 15.8C122 15.55 121.95 15.2 121.95 14.9V12.55H121.05V11.95H121.95ZM120.125 15.81C119.877 15.9097 119.527 16.05 118.85 16.05C117.6 16.05 116.8 15.25 116.75 13.95C116.75 12.65 117.55 11.85 118.6 11.85C119.75 11.85 120.45 12.5 120.45 13.9V14.1H117.55C117.6 14.9 118.05 15.45 118.9 15.45C119.4 15.45 119.85 15.25 120.15 15.05V15.8L120.125 15.81ZM112.7 16H112V9.79999H112.75V12.4C112.85 12.25 113 12.1 113.2 12C113.45 11.85 113.75 11.8 114.05 11.8C114.8 11.8 115.2 12.15 115.45 12.45C115.7 12.85 115.85 13.35 115.85 13.85C115.85 14.3 115.75 14.9 115.45 15.3C115.25 15.6 114.85 16 114.1 16C113.75 16 113.45 15.95 113.2 15.8C113 15.7 112.85 15.6 112.7 15.4V16Z" fill="#00AAFF"/>
</svg>
