<svg width="198" height="40" viewBox="0 0 198 40" fill="none" xmlns="http://www.w3.org/2000/svg">
<path fill-rule="evenodd" clip-rule="evenodd" d="M198 0H54V10H0V40H68V30H198V0Z" fill="#3214B4"/>
<path d="M186.72 6V8H181.66V6H186.72Z" fill="white"/>
<path fill-rule="evenodd" clip-rule="evenodd" d="M93.3955 13.76C93.3955 14.36 93.0555 14.66 92.3955 14.66H91.0755C89.1955 14.66 86.6355 15.44 86.6355 17.92V18.04C86.6355 18.96 86.9755 19.72 87.6555 20.3C88.3355 20.88 89.1955 21.18 90.2355 21.18C91.6755 21.18 92.7155 20.64 93.3755 19.54V21H95.7155V14.2C95.7155 13.46 95.5955 12.82 95.3555 12.28C94.6955 10.82 93.3555 10.1 91.3555 10.1C89.1755 10.1 87.6555 11 86.8155 12.82L88.6355 13.86C89.1755 12.72 90.0755 12.16 91.2955 12.16C92.6355 12.16 93.3955 12.88 93.3955 13.76ZM93.3755 16.68C93.3755 18.28 92.3355 19.28 90.7155 19.28C89.6955 19.28 89.0155 18.7 89.0155 17.82C89.0155 17.36 89.2355 17 89.6555 16.74C90.0955 16.48 90.5755 16.34 91.0755 16.34H93.3755V16.68Z" fill="white"/>
<path d="M62.9893 21V10.32H65.3693V14.82H65.4693L69.7093 10.32H72.8693L67.9893 15.44L73.2093 21H69.9893L65.4693 16.06H65.3693V21H62.9893Z" fill="white"/>
<path fill-rule="evenodd" clip-rule="evenodd" d="M74.908 21H80.668C81.748 21 82.668 20.76 83.428 20.3C84.188 19.82 84.568 19.08 84.568 18.1C84.568 17.4 84.348 16.82 83.928 16.32C83.508 15.82 82.988 15.52 82.408 15.42C83.548 14.92 84.128 14.1 84.128 13C84.128 11.3 82.648 10.32 80.568 10.32H74.908V21ZM77.248 12.24H80.108C82.128 12.08 82.248 14.74 80.048 14.7H77.248V12.24ZM77.248 16.42H80.228C81.328 16.42 82.128 16.86 82.128 17.68C82.128 18.56 81.428 19.04 80.328 19.04H77.248V16.42Z" fill="white"/>
<path fill-rule="evenodd" clip-rule="evenodd" d="M100.279 24.3H97.9394V18.9H97.9794C98.4794 18.9 98.9194 18.68 99.2994 18.26C100.079 17.4 100.299 16.4 100.439 15.34L101.059 10.32H108.999V18.86H110.359V24.3H108.019V21H100.279V24.3ZM106.599 18.86V12.46H103.179L102.779 15.56C102.579 17.08 102.059 18.18 101.199 18.86H106.599Z" fill="white"/>
<path fill-rule="evenodd" clip-rule="evenodd" d="M122.766 11.8C123.746 12.92 124.226 14.2 124.226 15.62C124.226 17.12 123.726 18.42 122.726 19.52C121.726 20.62 120.466 21.16 118.926 21.16C118.386 21.16 117.766 21.02 117.066 20.74C116.366 20.44 115.846 20.02 115.466 19.44V26.26H113.086V10.32H115.406V11.98C115.806 11.32 116.346 10.86 117.046 10.56C117.746 10.26 118.386 10.12 118.986 10.12C120.546 10.12 121.806 10.68 122.766 11.8ZM118.626 12.26C117.686 12.26 116.906 12.58 116.306 13.24C115.726 13.9 115.426 14.7 115.426 15.64C115.426 16.58 115.726 17.38 116.306 18.04C116.906 18.68 117.686 19 118.626 19C119.566 19 120.346 18.68 120.926 18.04C121.526 17.38 121.826 16.58 121.826 15.64C121.826 14.7 121.526 13.9 120.926 13.24C120.346 12.58 119.566 12.26 118.626 12.26Z" fill="white"/>
<path fill-rule="evenodd" clip-rule="evenodd" d="M131.999 14.66C132.659 14.66 132.999 14.36 132.999 13.76C132.999 12.88 132.239 12.16 130.899 12.16C129.679 12.16 128.779 12.72 128.239 13.86L126.419 12.82C127.259 11 128.779 10.1 130.959 10.1C132.959 10.1 134.299 10.82 134.959 12.28C135.199 12.82 135.319 13.46 135.319 14.2V21H132.979V19.54C132.319 20.64 131.279 21.18 129.839 21.18C128.799 21.18 127.939 20.88 127.259 20.3C126.579 19.72 126.239 18.96 126.239 18.04V17.92C126.239 15.44 128.799 14.66 130.679 14.66H131.999ZM130.319 19.28C131.939 19.28 132.979 18.28 132.979 16.68V16.34H130.679C130.179 16.34 129.699 16.48 129.259 16.74C128.839 17 128.619 17.36 128.619 17.82C128.619 18.7 129.299 19.28 130.319 19.28Z" fill="white"/>
<path d="M140.727 12.46H137.267V10.32H146.607V12.46H143.127V21H140.727V12.46Z" fill="white"/>
<path d="M151.203 21H148.823V10.32H151.203V14.56H156.043V10.32H158.423V21H156.043V16.64H151.203V21Z" fill="white"/>
<path fill-rule="evenodd" clip-rule="evenodd" d="M166.996 13.84C169.616 13.84 171.356 15 171.356 17.32C171.356 19.54 169.876 21 167.176 21H161.816V10.32H164.196V13.84H166.996ZM166.856 19C168.256 19 168.956 18.44 168.956 17.3C168.956 16.24 168.096 15.7 166.816 15.7H164.196V19H166.856Z" fill="white"/>
<path d="M173.556 21H175.936V10.32H173.556V21Z" fill="white"/>
<path d="M179.34 21H181.64L186.7 13.88V21H189.02V10.32H186.72L181.66 17.46V10.32H179.34V21Z" fill="white"/>
<path fill-rule="evenodd" clip-rule="evenodd" d="M35.6163 24.62C35.6163 24.94 35.5963 25.18 35.5763 25.36H27.4763C27.4963 26.16 27.8163 26.82 28.4363 27.36C29.0563 27.88 29.7763 28.14 30.5963 28.14C31.9363 28.14 32.8963 27.58 33.4763 26.48L35.1963 27.62C34.2963 29.28 32.5563 30.2 30.6363 30.2C29.0563 30.2 27.7163 29.68 26.6363 28.62C25.5763 27.56 25.0363 26.22 25.0363 24.64C25.0363 23.1 25.5563 21.8 26.5763 20.72C27.5963 19.64 28.8763 19.1 30.4163 19.1C32.0363 19.1 33.3163 19.6 34.2363 20.62C35.1563 21.64 35.6163 22.96 35.6163 24.62ZM33.1963 23.56C33.1163 22.06 31.9363 21.14 30.4163 21.14C28.9563 21.14 27.8163 22.1 27.5963 23.56H33.1963Z" fill="white"/>
<path d="M9.56494 19.32V30H11.8849V22.02L15.2049 30H16.9649L20.2249 21.98V30H22.5649V19.32H19.1849L16.0849 26.98L12.9249 19.32H9.56494Z" fill="white"/>
<path d="M36.6662 21.46H40.1262V30H42.5262V21.46H46.0062V19.32H36.6662V21.46Z" fill="white"/>
<path fill-rule="evenodd" clip-rule="evenodd" d="M59.162 24.62C59.162 23.2 58.682 21.92 57.702 20.8C56.742 19.68 55.482 19.12 53.922 19.12C53.322 19.12 52.682 19.26 51.982 19.56C51.282 19.86 50.742 20.32 50.342 20.98V19.32H48.022V35.26H50.402V28.44C50.782 29.02 51.302 29.44 52.002 29.74C52.702 30.02 53.322 30.16 53.862 30.16C55.402 30.16 56.662 29.62 57.662 28.52C58.662 27.42 59.162 26.12 59.162 24.62ZM51.242 22.24C51.842 21.58 52.622 21.26 53.562 21.26C54.502 21.26 55.282 21.58 55.862 22.24C56.462 22.9 56.762 23.7 56.762 24.64C56.762 25.58 56.462 26.38 55.862 27.04C55.282 27.68 54.502 28 53.562 28C52.622 28 51.842 27.68 51.242 27.04C50.662 26.38 50.362 25.58 50.362 24.64C50.362 23.7 50.662 22.9 51.242 22.24Z" fill="white"/>
</svg>
