<svg width="134" height="34" viewBox="0 0 134 34" fill="none" xmlns="http://www.w3.org/2000/svg">
<path fill-rule="evenodd" clip-rule="evenodd" d="M10 4H34V28H24V34H0V10H10V4Z" fill="#1E22AA"/>
<path d="M21.95 18H26V19.8H19V18.1C19 18.1 20.43 17.44 21.36 16.94C22.57 16.3 23.89 15.43 23.99 14.24C24.07 13.32 23.28 12.62 22.31 12.62C21.2 12.62 20.6 13.25 20.26 14.27L18.75 13.7C19.21 12.47 20.25 11.11 22.29 11.11C24.33 11.11 25.78 12.55 25.78 14.23C25.78 16.1594 23.7862 16.9811 22.3701 17.5647C22.2228 17.6254 22.0819 17.6835 21.95 17.74V18Z" fill="white"/>
<path d="M7 26V18H9.6L12 23.7L14.4 18H17V26H15.2V20H15L12.69 26H11.3L9 20H8.8V26H7Z" fill="white"/>
<path d="M131.5 0.5H126.5V2H131.5V0.5Z" fill="#1F212E"/>
<path fill-rule="evenodd" clip-rule="evenodd" d="M88.09 5.88C88.71 4.51 89.83 3.84 91.44 3.84C92.92 3.84 93.91 4.38 94.38 5.47C94.56 5.88 94.65 6.36 94.65 6.91V12H93.05V10.91H92.79C92.3 11.63 91.6 12.14 90.61 12.14C89.85 12.14 89.21 11.91 88.71 11.48C88.21 11.05 87.96 10.48 87.96 9.79V9.7C87.96 7.84 89.84 7.26 91.23 7.26H92.2C92.69 7.26 92.94 7.04 92.94 6.59C92.94 5.93 92.38 5.39 91.39 5.39C90.49 5.39 89.83 5.81 89.43 6.66L88.09 5.88ZM90.97 10.71C92.16 10.71 92.93 9.96 92.93 8.76H92.94V8.51H91.24C90.87 8.51 90.51 8.62 90.19 8.81C89.88 9.01 89.72 9.28 89.72 9.62C89.72 10.28 90.22 10.71 90.97 10.71Z" fill="#1F212E"/>
<path fill-rule="evenodd" clip-rule="evenodd" d="M82.75 3.85C82.31 3.85 81.84 3.95 81.32 4.18C80.88 4.37 80.52 4.86 80.25 5.24H79.99V4H78.4V16H80.16V10.83H80.3C80.57 11.2 80.88 11.6 81.34 11.8C81.86 12.01 82.31 12.11 82.71 12.11C83.85 12.11 84.78 11.71 85.51 10.88C86.25 10.06 86.62 9.08 86.62 7.96C86.62 6.9 86.27 5.94 85.54 5.1C84.83 4.27 83.9 3.85 82.75 3.85ZM84.19 9.79C83.76 10.27 83.19 10.51 82.49 10.51C81.8 10.51 81.22 10.27 80.78 9.79C80.35 9.3 80.13 8.7 80.13 7.99C80.13 7.29 80.35 6.69 80.78 6.19C81.22 5.7 81.8 5.46 82.49 5.46C83.18 5.46 83.76 5.7 84.19 6.19C84.63 6.68 84.85 7.28 84.85 7.99C84.85 8.69 84.63 9.29 84.19 9.79Z" fill="#1F212E"/>
<path d="M49.29 4H46.96L43.83 7.37H43.76V4H42V12H43.76V8.3H43.83L47.16 12H49.54L45.69 7.84L49.29 4Z" fill="#1F212E"/>
<path fill-rule="evenodd" clip-rule="evenodd" d="M72.26 26.83H72.12V31.99H70.36V19.99H71.95V21.23H72.21C72.48 20.85 72.84 20.36 73.28 20.17C73.8 19.94 74.27 19.84 74.71 19.84C75.86 19.84 76.79 20.26 77.5 21.1C78.23 21.94 78.58 22.9 78.58 23.96C78.58 25.08 78.21 26.06 77.47 26.88C76.74 27.71 75.81 28.11 74.67 28.11C74.27 28.11 73.82 28.01 73.3 27.8C72.84 27.6 72.53 27.2 72.26 26.83ZM74.45 21.45C73.76 21.45 73.18 21.69 72.74 22.18C72.31 22.68 72.09 23.27 72.09 23.98C72.09 24.69 72.31 25.29 72.74 25.78C73.18 26.26 73.76 26.5 74.45 26.5C75.15 26.5 75.72 26.26 76.15 25.78C76.59 25.28 76.81 24.68 76.81 23.98C76.81 23.27 76.59 22.67 76.15 22.18C75.72 21.69 75.14 21.45 74.45 21.45Z" fill="#1F212E"/>
<path d="M46.16 28L43.71 22V28H42V20H44.48L46.79 25.74L49.1 20H51.59V28H49.86V22L47.46 28H46.16Z" fill="#1F212E"/>
<path fill-rule="evenodd" clip-rule="evenodd" d="M57.55 28.15C58.97 28.15 60.25 27.46 60.91 26.22L59.64 25.37C59.21 26.19 58.5 26.61 57.52 26.61C56.92 26.61 56.38 26.42 55.93 26.03C55.47 25.63 55.24 25.13 55.22 24.53H61.19C61.1919 24.5058 61.1941 24.4798 61.1964 24.4521C61.2068 24.3309 61.22 24.1753 61.22 23.98C61.22 22.74 60.88 21.75 60.2 20.98C59.52 20.22 58.58 19.84 57.38 19.84C56.24 19.84 55.3 20.24 54.55 21.05C53.8 21.86 53.41 22.83 53.41 23.99C53.41 25.17 53.81 26.18 54.59 26.97C55.4 27.76 56.38 28.15 57.55 28.15ZM57.39 21.36C58.51 21.36 59.38 22.05 59.44 23.17H55.31C55.47 22.08 56.31 21.36 57.39 21.36Z" fill="#1F212E"/>
<path d="M66.31 28H64.54V21.6H61.99V20H68.88V21.6H66.31V28Z" fill="#1F212E"/>
<path fill-rule="evenodd" clip-rule="evenodd" d="M57.2 6.01C57.2 6.83 56.77 7.45 55.93 7.82C56.36 7.9 56.74 8.12 57.05 8.5C57.36 8.87 57.52 9.31 57.52 9.83C57.52 10.57 57.24 11.12 56.68 11.48C56.12 11.82 55.44 12 54.64 12H50.64V4H54.57C56.11 4 57.2 4.73 57.2 6.01ZM52.37 7.28H54.19C55.81 7.31 55.72 5.32 54.23 5.44H52.37V7.28ZM52.38 10.53H54.4C55.21 10.53 55.72 10.17 55.73 9.51C55.73 8.9 55.14 8.57 54.33 8.57H52.38V10.53Z" fill="#1F212E"/>
<path fill-rule="evenodd" clip-rule="evenodd" d="M62.38 3.84C60.77 3.84 59.65 4.51 59.03 5.88L60.37 6.66C60.77 5.81 61.43 5.39 62.33 5.39C63.32 5.39 63.88 5.93 63.88 6.59C63.88 7.04 63.63 7.26 63.14 7.26H62.17C60.78 7.26 58.9 7.84 58.9 9.7V9.79C58.9 10.48 59.15 11.05 59.65 11.48C60.15 11.91 60.79 12.14 61.55 12.14C62.54 12.14 63.24 11.63 63.73 10.91H63.99V12H65.59V6.91C65.59 6.36 65.5 5.88 65.32 5.47C64.84 4.38 63.85 3.84 62.38 3.84ZM63.87 8.76C63.87 9.96 63.1 10.71 61.91 10.71C61.16 10.71 60.66 10.28 60.66 9.62C60.66 9.28 60.82 9.01 61.13 8.81C61.45 8.62 61.81 8.51 62.18 8.51H63.88V8.76H63.87Z" fill="#1F212E"/>
<path d="M95.73 4H102.61V5.6H100.05V12H98.28V5.6H95.73V4Z" fill="#1F212E"/>
<path d="M110.96 4H109.2V7.18H105.63V4H103.88V12H105.63V8.73H109.2V12H110.96V4Z" fill="#1F212E"/>
<path d="M121.48 4H123.24V12H121.48V4Z" fill="#1F212E"/>
<path d="M132.59 4H130.89L127.16 9.35V4H125.45V12H127.14L130.88 6.67V12H132.59V4Z" fill="#1F212E"/>
<path fill-rule="evenodd" clip-rule="evenodd" d="M115.07 6.64H117.14C119.07 6.64 120.36 7.51 120.34 9.24C120.34 10.91 119.25 12 117.26 12H113.31V4H115.07V6.64ZM115.08 10.5H117.04C118.07 10.5 118.59 10.08 118.59 9.23C118.59 8.43 117.95 8.03 117.01 8.03H115.08V10.5Z" fill="#1F212E"/>
<path fill-rule="evenodd" clip-rule="evenodd" d="M69.5 4H75.37V10.4H76.37V14.47H74.64V12H68.93V14.47H67.2V10.39H68.34C68.41 10.24 68.72 9.43 68.91 8.47C69.26 6.69 69.5 4 69.5 4ZM70 10.4H73.58V5.61H71.06C71.06 5.61 70.84 7.09 70.56 8.44C70.37 9.39 70.09 10.18 70 10.4Z" fill="#1F212E"/>
</svg>
