<svg width="45" height="40" viewBox="0 0 45 40" fill="none" xmlns="http://www.w3.org/2000/svg">
<path d="M45 0H15V10H0V40H30V30H45V0Z" fill="#3214B4"/>
<path d="M34 21H26V20.3442C26 18.658 26.891 17.2873 28.6732 16.2273L30.0496 15.4088C30.0909 15.3794 30.1445 15.3429 30.2105 15.3005C30.2553 15.2718 30.3055 15.2404 30.3614 15.2066C30.4999 15.1228 30.599 15.0587 30.6584 15.0193C30.7771 14.9305 30.9357 14.8023 31.1337 14.6347C31.4602 14.3389 31.6236 13.974 31.6236 13.55C31.6236 13.1457 31.4752 12.8005 31.1781 12.5244C30.891 12.2483 30.4999 12.1053 30.0147 12.1053C29.5842 12.1053 29.2079 12.2483 28.8811 12.5392C28.4999 12.8646 28.3268 13.3823 28.3563 14.0874L26.0892 13.7768C26.0991 13.0126 26.2574 12.3568 26.5593 11.8144C26.8615 11.2721 27.2773 10.8481 27.8069 10.5522C28.4455 10.1874 29.1931 10 30.0595 10C31.2722 10 32.2277 10.3451 32.9258 11.0403C33.6038 11.6961 33.9405 12.5146 33.9405 13.4957C33.9405 14.2896 33.7227 14.9601 33.2821 15.5025C32.8762 16.035 32.3563 16.4836 31.7327 16.8386L30.0297 17.879C29.3812 18.2537 29.0147 18.6647 28.9258 19H34V21Z" fill="white"/>
<path d="M10.4981 30H8V19H11.5L15 27L18.5 19H22V30H19.5V21.5L16 30H14L10.4981 21.5V30Z" fill="white"/>
</svg>
