<svg width="33" height="29" viewBox="0 0 33 29" fill="none" xmlns="http://www.w3.org/2000/svg">
<path d="M0.934377 0.00113834C0.678024 0.0254078 0.439985 0.145145 0.267076 0.336802C0.0941663 0.528458 -0.00110069 0.778164 9.59655e-06 1.03681V27.9643C3.69225e-05 28.239 0.108671 28.5024 0.30202 28.6966C0.495369 28.8908 0.757599 29 1.03104 29H26.8067C27.0801 29 27.3424 28.8908 27.5357 28.6966C27.7291 28.5024 27.8377 28.239 27.8377 27.9643V17.0412L32.6545 12.6881C32.7561 12.5968 32.8387 12.4862 32.8977 12.3627C32.9567 12.2393 32.991 12.1053 32.9984 11.9686C33.0059 11.8319 32.9865 11.695 32.9413 11.5658C32.8961 11.4366 32.8261 11.3175 32.7351 11.2155C32.6441 11.1135 32.534 11.0305 32.4111 10.9713C32.2882 10.912 32.1549 10.8776 32.0188 10.8701C31.8827 10.8626 31.7464 10.8821 31.6178 10.9275C31.4891 10.9729 31.3707 11.0433 31.2691 11.1346L26.114 15.7952C26.0062 15.8933 25.9204 16.0133 25.8621 16.1472C25.8038 16.281 25.7743 16.4258 25.7757 16.5719V19.6789H21.1361C21.1038 19.6774 21.0716 19.6774 21.0394 19.6789C20.904 19.6853 20.7711 19.7184 20.6484 19.7763C20.5258 19.8342 20.4156 19.9159 20.3244 20.0165C20.2331 20.1172 20.1625 20.235 20.1165 20.3631C20.0705 20.4912 20.0501 20.6271 20.0565 20.7632C20.0628 20.8992 20.0958 21.0326 20.1535 21.1559C20.2112 21.2791 20.2925 21.3897 20.3927 21.4813C20.493 21.573 20.6102 21.6439 20.7378 21.6901C20.8653 21.7362 21.0006 21.7567 21.1361 21.7503H25.7757V26.9287H14.4344V22.2681C14.4365 22.1294 14.4109 21.9916 14.3591 21.863C14.3072 21.7344 14.2302 21.6176 14.1325 21.5195C14.0348 21.4214 13.9185 21.344 13.7905 21.2919C13.6625 21.2398 13.5254 21.2141 13.3872 21.2163C13.2518 21.2184 13.1182 21.2473 12.9939 21.3013C12.8696 21.3553 12.7572 21.4334 12.6629 21.531C12.5687 21.6287 12.4945 21.7441 12.4446 21.8706C12.3948 21.997 12.3702 22.1321 12.3723 22.2681V26.9287H2.06206V17.0898H13.4034C13.6768 17.0897 13.939 16.9806 14.1324 16.7864C14.3257 16.5922 14.4344 16.3287 14.4344 16.0541V12.8985L19.2512 8.54545C19.4129 8.40888 19.529 8.22572 19.5837 8.02073C19.6384 7.81574 19.629 7.59883 19.557 7.39933C19.4849 7.19983 19.3536 7.02739 19.1808 6.90532C19.008 6.78325 18.802 6.71746 18.5907 6.71683C18.3226 6.71036 18.0626 6.80904 17.8658 6.99194L12.7106 11.6525C12.6029 11.7506 12.517 11.8706 12.4587 12.0045C12.4004 12.1384 12.371 12.2831 12.3723 12.4292V15.0184H2.06206V2.07249H12.3723V6.73302C12.3704 6.87026 12.3956 7.00651 12.4466 7.13386C12.4975 7.26122 12.5732 7.37713 12.6691 7.47487C12.765 7.5726 12.8793 7.65021 13.0054 7.70319C13.1314 7.75616 13.2667 7.78344 13.4034 7.78344C13.54 7.78344 13.6753 7.75616 13.8013 7.70319C13.9274 7.65021 14.0417 7.5726 14.1376 7.47487C14.2335 7.37713 14.3092 7.26122 14.3601 7.13386C14.4111 7.00651 14.4363 6.87026 14.4344 6.73302V2.07249H25.7757V7.76869C25.7737 7.90593 25.799 8.04218 25.8499 8.16954C25.9009 8.29689 25.9765 8.41281 26.0724 8.51054C26.1684 8.60828 26.2827 8.68589 26.4087 8.73886C26.5348 8.79183 26.6701 8.81911 26.8067 8.81911C26.9433 8.81911 27.0786 8.79183 27.2047 8.73886C27.3307 8.68589 27.445 8.60828 27.5409 8.51054C27.6369 8.41281 27.7125 8.29689 27.7635 8.16954C27.8144 8.04218 27.8397 7.90593 27.8377 7.76869V1.03681C27.8377 0.762143 27.7291 0.49873 27.5357 0.30451C27.3424 0.110289 27.0801 0.00116579 26.8067 0.00113834H1.03104C0.998834 -0.000379446 0.966579 -0.000379446 0.934377 0.00113834Z" fill="#2F3441"/>
</svg>
