<svg width="50" height="50" viewBox="0 0 50 50" fill="none" xmlns="http://www.w3.org/2000/svg">
<g clip-path="url(#clip0)">
<path d="M25 0L0 12.75V18.125L25 5.5L50 18.125V12.75L25 0ZM4.25 23.625H10.25V35.875H14.5V19.75H0V35.875H4.25V23.625ZM16.5 19.75V35.875H23L28.375 23.125V35.875H32.625V19.75H26.25L20.75 32.625V19.75H16.5ZM34.625 19.75V35.875H38.875V30.75L40.125 29.5L45 35.875H50L43 26.625L50 19.75H44.5L38.875 25.75V19.75H34.625Z" fill="white"/>
<path d="M42.875 41.7511L41.875 44.5011H43.75L42.875 41.7511Z" fill="white"/>
<path d="M0 50.0004H50V37.8754H0V50.0004ZM41.75 40.5004H44L46.5 47.3754H44.75L44.25 46.0004H41.375L40.875 47.3754H39.125L41.75 40.5004ZM31.875 40.5004H38.125V47.3754H36.5V42.0004H33.5V47.3754H31.875V40.5004ZM24.25 40.5004H30.5V47.3754H28.875V42.0004H25.875V47.3754H24.25V40.5004ZM18.375 40.5004L20 43.5004L21.625 40.5004H23.375L19.5 47.3754H17.75L19.125 45.0004L16.375 40.5004H18.375ZM10.5 40.5004H14C15.375 40.5004 16.375 41.2504 16.375 42.7504C16.375 44.2504 15.25 45.0004 14 45.0004H12.125V47.3754H10.5V40.5004ZM4.25 40.5004H9.5V42.0004H5.875V47.3754H4.25V40.5004Z" fill="white"/>
<path d="M14.875 42.7512C14.875 42.1262 14.5 41.8762 13.875 41.8762H12.125V43.6262H13.875C14.375 43.6262 14.875 43.3762 14.875 42.7512Z" fill="white"/>
</g>
<defs>
<clipPath id="clip0">
<rect width="50" height="50" fill="white"/>
</clipPath>
</defs>
</svg>
