<svg width="86" height="86" viewBox="0 0 86 86" fill="none" xmlns="http://www.w3.org/2000/svg">
<g clip-path="url(#clip0)">
<path d="M43 0L0 21.93V31.175L43 9.46L86 31.175V21.93L43 0ZM7.31 40.635H17.63V61.705H24.94V33.97H0V61.705H7.31V40.635ZM28.38 33.97V61.705H39.56L48.805 39.775V61.705H56.115V33.97H45.15L35.69 56.115V33.97H28.38ZM59.555 33.97V61.705H66.865V52.89L69.015 50.74L77.4 61.705H86L73.96 45.795L86 33.97H76.54L66.865 44.29V33.97H59.555Z" fill="#0A055F"/>
<path d="M73.7445 71.8066L72.0245 76.5366H75.2495L73.7445 71.8066Z" fill="#FF4114"/>
<path d="M0 85.9954H86V65.1404H0V85.9954ZM71.81 69.6554H75.68L79.98 81.4804H76.97L76.11 79.1154H71.165L70.305 81.4804H67.295L71.81 69.6554V69.6554ZM54.825 69.6554H65.575V81.4804H62.78V72.2354H57.62V81.4804H54.825V69.6554ZM41.71 69.6554H52.46V81.4804H49.665V72.2354H44.505V81.4804H41.71V69.6554ZM31.605 69.6554L34.4 74.8154L37.195 69.6554H40.205L33.54 81.4804H30.53L32.895 77.3954L28.165 69.6554H31.605V69.6554ZM18.06 69.6554H24.08C26.445 69.6554 28.165 70.9454 28.165 73.5254C28.165 76.1054 26.23 77.3954 24.08 77.3954H20.855V81.4804H18.06V69.6554V69.6554ZM7.31 69.6554H16.34V72.2354H10.105V81.4804H7.31V69.6554V69.6554Z" fill="#FF4114"/>
<path d="M25.5844 73.5321C25.5844 72.4571 24.9394 72.0271 23.8644 72.0271H20.8544V75.0371H23.8644C24.7244 75.0371 25.5844 74.6071 25.5844 73.5321V73.5321Z" fill="#FF4114"/>
</g>
<defs>
<clipPath id="clip0">
<rect width="86" height="86" fill="white"/>
</clipPath>
</defs>
</svg>
