<svg width="14" height="30" viewBox="0 0 14 30" fill="none" xmlns="http://www.w3.org/2000/svg">
<rect width="14" height="30" fill="#3214B4"/>
<path fill-rule="evenodd" clip-rule="evenodd" d="M12.1256 14.62C12.1256 13.2 11.6456 11.92 10.6656 10.8C9.70563 9.68 8.44563 9.12 6.88563 9.12C6.28563 9.12 5.64563 9.26 4.94563 9.56C4.24562 9.86 3.70563 10.32 3.30563 10.98V9.32H0.985626V25.26H3.36562V18.44C3.74562 19.02 4.26563 19.44 4.96563 19.74C5.66563 20.02 6.28562 20.16 6.82562 20.16C8.36562 20.16 9.62563 19.62 10.6256 18.52C11.6256 17.42 12.1256 16.12 12.1256 14.62ZM4.20563 12.24C4.80563 11.58 5.58563 11.26 6.52563 11.26C7.46563 11.26 8.24563 11.58 8.82563 12.24C9.42563 12.9 9.72562 13.7 9.72562 14.64C9.72562 15.58 9.42563 16.38 8.82563 17.04C8.24563 17.68 7.46563 18 6.52563 18C5.58563 18 4.80563 17.68 4.20563 17.04C3.62563 16.38 3.32562 15.58 3.32562 14.64C3.32562 13.7 3.62563 12.9 4.20563 12.24Z" fill="white"/>
</svg>
