<svg width="14" height="30" viewBox="0 0 14 30" fill="none" xmlns="http://www.w3.org/2000/svg">
<rect width="14" height="30" fill="#3214B4"/>
<path fill-rule="evenodd" clip-rule="evenodd" d="M11.7298 11.8C12.7098 12.92 13.1898 14.2 13.1898 15.62C13.1898 17.12 12.6898 18.42 11.6898 19.52C10.6898 20.62 9.42979 21.16 7.88979 21.16C7.34978 21.16 6.72978 21.02 6.02979 20.74C5.32979 20.44 4.80978 20.02 4.42979 19.44V26.26H2.04978V10.32H4.36979V11.98C4.76979 11.32 5.30979 10.86 6.00979 10.56C6.70979 10.26 7.34979 10.12 7.94979 10.12C9.50979 10.12 10.7698 10.68 11.7298 11.8ZM7.58979 12.26C6.64979 12.26 5.86978 12.58 5.26978 13.24C4.68978 13.9 4.38979 14.7 4.38979 15.64C4.38979 16.58 4.68978 17.38 5.26978 18.04C5.86978 18.68 6.64979 19 7.58979 19C8.52979 19 9.30978 18.68 9.88979 18.04C10.4898 17.38 10.7898 16.58 10.7898 15.64C10.7898 14.7 10.4898 13.9 9.88979 13.24C9.30978 12.58 8.52979 12.26 7.58979 12.26Z" fill="white"/>
</svg>
