<svg width="390" height="80" viewBox="0 0 390 80" fill="none" xmlns="http://www.w3.org/2000/svg">
<path d="M292.115 0H9V80H292.115V0Z" fill="#245F34"/>
<path d="M9 0H0V80H9V0Z" fill="#FFCB05"/>
<path d="M39.1089 16.0203L38.3223 15.2531V5.97937H37.4232V14.3731L36.6365 13.6059V5.97937H35.7487V12.7259L34.9508 11.9475V5.97937H34.063V14.8244L39.9968 20.6797V5.97937H39.1089V16.0203Z" fill="#FFCB05"/>
<path d="M40.8062 25.5874L46.7399 19.7321V15.9752L40.8062 21.808V25.5874Z" fill="#FFCB05"/>
<path d="M40.8062 40.4117L46.7399 34.5564V30.5852L40.8062 36.4067V40.4117Z" fill="#FFCB05"/>
<path d="M46.7399 24.6397L40.8062 30.495V26.7156L46.7399 20.8828V24.6397Z" fill="#FFCB05"/>
<path d="M46.7399 29.5473L40.8062 35.4026V31.6119L46.7399 25.7904V29.5473Z" fill="#FFCB05"/>
<path d="M34.063 34.5564L39.9968 40.4117V36.4067L34.063 30.5852V34.5564Z" fill="#FFCB05"/>
<path d="M45.0654 12.7259L45.8521 11.9475V5.97937H46.7399V14.8244L40.8062 20.6797V5.97937H41.7052V16.0203L42.4919 15.2531V5.97937H43.3797V14.3731L44.1664 13.6059V5.97937H45.0654V12.7259Z" fill="#FFCB05"/>
<path d="M34.063 19.7321L39.9968 25.5874V21.808L34.063 15.9752V19.7321Z" fill="#FFCB05"/>
<path d="M39.9968 30.495L34.063 24.6397V20.8828L39.9968 26.7156V30.495Z" fill="#FFCB05"/>
<path d="M34.063 29.536L39.9968 35.4026V31.6119L34.063 25.7904V29.536Z" fill="#FFCB05"/>
<path fill-rule="evenodd" clip-rule="evenodd" d="M69.4299 32.6272C69.8457 32.6272 70.1829 32.977 70.1717 33.3944V33.857C70.1717 34.2744 69.8233 34.6241 69.4187 34.6241H67.2947V35.2785H68.3511V36.2036H67.2947V37.1625H68.3511V38.9112H67.2947V38.1215H65.7213V38.9112H64.6649V37.1625H65.7213V36.2036H64.6649V35.2785H65.7213V34.6241H54.9888C55.2922 35.098 55.4721 35.6621 55.4721 36.2713C55.4721 37.9974 54.0785 39.3964 52.3591 39.3964C50.6509 39.3964 49.2573 37.9974 49.2573 36.2713C49.2573 35.5944 49.4821 34.9626 49.8417 34.4549C49.572 34.2744 49.3922 33.9698 49.3922 33.62C49.3922 33.2703 49.572 32.9657 49.8417 32.7852C49.4708 32.2775 49.2573 31.657 49.2573 30.9801C49.2573 29.2539 50.6396 27.855 52.3591 27.855C54.0785 27.855 55.4721 29.2539 55.4721 30.9801C55.4721 31.5893 55.2922 32.1534 54.9888 32.6272H69.4299ZM52.3591 37.8846C53.2469 37.8846 53.9661 37.1626 53.9661 36.2713C53.9661 35.6169 53.2132 34.0487 53.2132 34.06V33.2139C53.2132 33.2139 53.9661 31.6457 53.9661 30.9913C53.9661 30.1001 53.2469 29.378 52.3591 29.378C51.4825 29.378 50.7632 30.1001 50.7632 30.9913C50.7632 31.3185 50.8532 31.6231 51.0217 31.8713L51.4713 32.6272C51.2015 32.8754 51.0217 33.2364 51.0217 33.6313C51.0217 34.0375 51.1903 34.3872 51.4713 34.6354L51.0217 35.3913C50.8644 35.6395 50.7632 35.9441 50.7632 36.2713C50.7632 37.1626 51.4825 37.8846 52.3591 37.8846Z" fill="#FFCB05"/>
<path d="M49.055 13.1886C48.628 13.1886 48.2009 13.1999 47.7739 13.2224V15.0501C48.1897 15.0275 48.6167 15.0163 49.055 15.0163C62.7769 15.0163 73.9027 26.1854 73.9027 39.9606C73.9027 53.7358 62.7769 64.9049 49.055 64.9049C35.3219 64.9049 24.1961 53.7358 24.1961 39.9606C24.1961 32.3114 27.6237 25.4746 33.0181 20.8941V18.5588C26.5561 23.4439 22.3867 31.2058 22.3867 39.9493C22.3867 54.7286 34.3217 66.71 49.055 66.71C63.7771 66.71 75.7121 54.7286 75.7121 39.9493C75.7233 25.17 63.7771 13.1886 49.055 13.1886Z" fill="white"/>
<path d="M28.6572 34.6242V30.7319C28.6572 30.7319 29.2866 32.8868 31.6691 35.2898C32.4582 36.082 33.3732 36.9735 34.5279 38.0985C35.1986 38.7519 35.9502 39.4842 36.8049 40.3216C36.884 40.3983 36.969 40.4783 37.0583 40.5624C38.0988 41.5421 39.7381 43.0857 39.7381 46.6281V50.9378C39.356 49.9789 39.0638 49.4148 37.3444 47.7338C37.2657 47.6548 31.7365 42.1944 31.1971 41.6641C30.2755 40.739 28.6572 38.3472 28.6572 34.6242Z" fill="white"/>
<path d="M34.5392 47.722C35.2099 48.3754 35.9615 49.1076 36.8162 49.9449C36.9047 50.0328 37.001 50.1247 37.1028 50.222C38.1378 51.2102 39.7493 52.749 39.7493 56.2515V60.8094L39.7214 60.7391C39.3521 59.8106 39.0329 59.0082 37.3556 57.3684C37.3158 57.3284 35.3648 55.4132 33.6639 53.7435L33.6366 53.7167C32.4702 52.5717 31.4273 51.5478 31.2083 51.3326C30.3542 50.3511 28.6685 47.9819 28.6685 44.2589V40.8969C28.6685 40.8969 29.2978 42.5214 31.6803 44.9132C32.4694 45.7054 33.3845 46.597 34.5392 47.722Z" fill="white"/>
<path d="M69.0814 52.1788C68.7217 52.7768 68.3284 53.3634 67.9126 53.9275V48.5912H69.0814V52.1788Z" fill="white"/>
<path d="M71.3402 47.2824C71.5088 46.7635 71.6549 46.2445 71.7898 45.7142H67.9238V46.6732H68.5082C69.5421 46.6393 70.6884 46.6281 71.3402 47.2824Z" fill="white"/>
<path fill-rule="evenodd" clip-rule="evenodd" d="M45.571 43.5256H42.1208V62.4228C41.7725 62.3213 41.4242 62.1972 41.0759 62.0731L41.0757 42.4877H45.5822C47.414 42.4877 48.5266 43.2097 48.8975 44.6651C49.3021 43.2774 50.3697 42.5779 52.1116 42.5779H53.1343C54.584 42.5779 55.573 43.063 56.0899 44.022L55.8539 42.8374H72.3179C72.295 43.06 72.2616 43.2774 72.2285 43.4931L72.2283 43.4942L72.2278 43.4981C72.2125 43.5977 72.1972 43.6971 72.1831 43.7964H65.1479V57.0865C64.5186 57.6844 63.8443 58.2598 63.1363 58.79V52.6865C63.1363 51.547 62.9115 50.8476 61.7765 50.4414L63.1363 43.8641H60.6077L60.2031 51.0394H59.9109L59.5064 43.8641H57.1014L58.3039 50.4414C57.225 50.8137 56.9665 51.6147 56.9665 52.6865V62.1295C56.4945 62.2987 56.0113 62.4566 55.5168 62.592V52.2691H53.1343V63.1336C52.7971 63.2013 52.46 63.2464 52.1116 63.2915V45.7707H53.1343V51.2311H55.5168V46.1204C55.5168 45.2066 55.3482 44.5635 54.9998 44.1912C54.4073 43.5964 53.3447 43.6168 52.4867 43.6333C52.352 43.6359 52.2224 43.6384 52.1004 43.6384C51.2238 43.6384 50.5945 43.8189 50.2461 44.1912C49.9089 44.5523 49.7179 45.1953 49.7179 46.1204V63.4607C49.4931 63.472 49.2796 63.472 49.0548 63.472H48.7064V57.6957C48.212 58.8013 47.1668 59.3428 45.571 59.3428V63.2238C45.2226 63.1674 44.8742 63.111 44.5258 63.0433V58.3162C44.6832 58.3162 44.8742 58.3162 45.054 58.3387C45.8969 58.3387 46.9083 58.3388 47.459 57.7859C47.8186 57.4475 47.9872 56.8157 47.9872 55.9131V45.9399C47.9872 45.0374 47.8299 44.4169 47.459 44.0671C47.0881 43.7174 46.47 43.5256 45.571 43.5256ZM62.8441 49.9901L63.9792 51.0732V44.0897L62.8441 49.9901Z" fill="white"/>
<path fill-rule="evenodd" clip-rule="evenodd" d="M90.7713 31.0139C92.2997 31.0139 94.0079 31.0703 95.4914 32.0744C96.4804 32.7288 97.6379 34.0262 97.6379 36.339C97.6379 38.8887 96.0308 41.8784 91.603 41.8784H87.8719V48.8506H84.6128V31.0139H90.7713ZM87.8719 39.2836L90.955 39.2836C91.6813 39.2842 92.6819 39.285 93.491 38.5277C94.0641 38.0087 94.3676 37.1287 94.3676 36.3728C94.3676 35.6733 94.0754 34.8385 93.5135 34.3421C92.9403 33.8457 92.0413 33.6088 91.0298 33.6088H87.8719V39.2836Z" fill="white"/>
<path fill-rule="evenodd" clip-rule="evenodd" d="M104.909 35.3236C102.897 35.3236 101.548 36.0795 100.638 36.9369C99.3008 38.2118 98.5928 40.1861 98.5928 42.2169C98.5928 44.2476 99.2895 46.2219 100.638 47.4968C101.537 48.3542 102.886 49.1101 104.909 49.1101C106.92 49.1101 108.269 48.3542 109.179 47.4968C110.528 46.2219 111.225 44.2476 111.225 42.2169C111.225 40.1861 110.528 38.2118 109.179 36.9369C108.28 36.0795 106.932 35.3236 104.909 35.3236ZM104.92 46.9214C103.785 46.9214 103.133 46.3009 102.852 45.9624C102.639 45.7255 101.863 44.6876 101.863 42.2169C101.863 39.7461 102.65 38.7082 102.852 38.4713C103.133 38.1328 103.785 37.5123 104.92 37.5123C106.055 37.5123 106.707 38.1328 106.988 38.4713C107.201 38.7082 107.977 39.7461 107.977 42.2169C107.977 44.6876 107.201 45.7255 106.988 45.9624C106.707 46.3009 106.066 46.9214 104.92 46.9214Z" fill="white"/>
<path d="M120.924 38.4939C121.249 38.9903 121.508 39.7687 121.564 40.4456L124.329 40.0959C124.138 38.9226 123.621 37.6252 122.767 36.7677C121.912 35.8878 120.564 35.3124 118.934 35.3124C117.024 35.3124 115.383 36.2488 114.428 37.3882C113.754 38.2005 112.899 39.701 112.899 42.2282C112.899 44.9358 113.855 46.6507 114.866 47.6097C115.619 48.3204 116.889 49.0989 118.856 49.0989C120.62 49.0989 121.856 48.4558 122.665 47.7225C123.621 46.8312 124.16 45.4774 124.317 44.2589L121.575 43.9205C121.53 44.6087 121.261 45.3871 120.879 45.9286C120.384 46.6056 119.732 46.9102 118.957 46.9102C117.867 46.9102 117.192 46.2333 116.855 45.7143C116.338 44.8794 116.159 43.4241 116.159 42.2056C116.159 41.4497 116.203 39.7913 116.855 38.7195C117.271 38.02 117.945 37.5011 118.957 37.5011C119.991 37.5011 120.609 38.0313 120.924 38.4939Z" fill="white"/>
<path d="M133.78 38.4939C134.117 38.9903 134.364 39.7687 134.421 40.4456L137.163 40.0959C136.972 38.9226 136.455 37.6252 135.601 36.7677C134.746 35.8878 133.398 35.3124 131.768 35.3124C129.847 35.3124 128.217 36.2488 127.262 37.3882C126.588 38.2005 125.733 39.701 125.733 42.2282C125.733 44.9358 126.689 46.6507 127.7 47.6097C128.453 48.3204 129.723 49.0989 131.69 49.0989C133.454 49.0989 134.69 48.4558 135.499 47.7225C136.466 46.8312 137.005 45.4774 137.163 44.2589L134.421 43.9205C134.376 44.6087 134.117 45.3871 133.724 45.9286C133.229 46.6056 132.577 46.9102 131.802 46.9102C130.712 46.9102 130.038 46.2333 129.701 45.7143C129.184 44.8794 129.004 43.4241 129.004 42.2056C129.004 41.4497 129.06 39.7913 129.701 38.7195C130.116 38.02 130.791 37.5011 131.802 37.5011C132.847 37.5011 133.465 38.0313 133.78 38.4939Z" fill="white"/>
<path fill-rule="evenodd" clip-rule="evenodd" d="M148.85 48.0158C149.626 47.4742 150.57 46.5604 151.031 45.0035L148.131 44.6425C148.052 45.0486 147.873 45.4886 147.434 45.9624C146.715 46.7183 145.827 46.9214 145.13 46.9214C144.243 46.9214 142.973 46.5604 142.276 45.105C141.832 44.1808 141.837 43.0366 141.838 42.8135L141.838 42.7922H151.222V42.1943C151.222 40.6825 150.806 38.9451 149.896 37.6928C149.053 36.4969 147.446 35.3236 144.928 35.3236C142.939 35.3236 141.624 36.1585 140.916 36.7564C139.702 37.7718 138.59 39.5656 138.59 42.2733C138.59 44.4055 139.343 46.1994 140.354 47.2373C141.444 48.3542 143.254 49.1101 145.041 49.1101C146.468 49.1101 147.816 48.7152 148.85 48.0158ZM147.401 38.6292C147.794 39.1933 147.974 40.062 147.974 40.8066V40.8179H141.939C141.939 39.8477 142.298 39.0466 142.714 38.5277C143.231 37.9072 144.085 37.4108 145.074 37.4108C146.03 37.4108 146.917 37.9072 147.401 38.6292Z" fill="white"/>
<path d="M164.033 48.8506V35.5831H155.166L155.144 36.9934C155.121 38.7533 155.087 39.9267 154.964 41.8784L154.951 42.0523C154.842 43.5003 154.71 45.2616 153.716 46.064C153.379 46.3235 152.862 46.5379 152.469 46.5604H152.21V48.8506C152.469 48.9296 152.727 48.9522 152.986 48.9522C153.357 48.9522 153.716 48.8958 154.054 48.7942C154.627 48.6363 155.425 48.2978 156.076 47.4404C157.185 45.9313 157.333 43.2342 157.413 41.7862L157.413 41.7702C157.417 41.6977 157.421 41.6283 157.425 41.5625C157.447 41.0715 157.468 40.6615 157.49 40.2318L157.492 40.1883L157.492 40.186L157.492 40.1844L157.493 40.1785L157.493 40.1755C157.525 39.545 157.559 38.8633 157.605 37.8169H161.021V48.8506H164.033Z" fill="white"/>
<path fill-rule="evenodd" clip-rule="evenodd" d="M173.518 40.3215H170.214V35.5831H167.213V48.8506H173.788C175.592 48.8506 176.565 48.1229 176.821 47.9319L176.845 47.9142C177.44 47.4178 178.216 46.4589 178.216 44.5635C178.216 43.8302 178.103 42.4764 177.126 41.5174C176.035 40.4231 174.372 40.3215 173.518 40.3215ZM172.563 46.662H170.203V42.4989H172.563C172.979 42.4989 173.63 42.5553 174.147 42.8938C174.743 43.2887 174.945 43.8528 174.945 44.5861C174.945 45.4209 174.586 45.9061 174.271 46.1994C173.754 46.6394 173.136 46.662 172.563 46.662Z" fill="white"/>
<path d="M44.5259 45.5789H45.571V56.2515H44.5259V45.5789Z" fill="white"/>
<path d="M59.5063 61.0238C59.866 60.8433 60.2368 60.6515 60.5852 60.4485V52.3706H59.5063V61.0238Z" fill="white"/>
<path fill-rule="evenodd" clip-rule="evenodd" d="M223.899 34.1277H232.474V31.0139H219.752V48.828H228.046C229.597 48.828 231.08 48.6475 232.372 47.3501C233.227 46.4927 233.901 45.1389 233.901 43.3225C233.901 41.382 233.069 40.0282 231.754 39.1143C230.406 38.1779 229.08 38.0764 227.709 38.0764H223.899V34.1277ZM227.237 45.7255H223.899V41.0999H227.135C227.675 41.0999 228.428 41.1563 229.023 41.7543C229.518 42.2394 229.675 42.8148 229.675 43.3902C229.675 43.8866 229.597 44.5296 229.023 45.105C228.428 45.703 227.866 45.7255 227.237 45.7255Z" fill="white"/>
<path fill-rule="evenodd" clip-rule="evenodd" d="M197.613 35.3236C195.59 35.3236 194.253 36.0795 193.342 36.9369C191.994 38.2118 191.297 40.1861 191.297 42.2169C191.297 44.2476 191.994 46.2219 193.342 47.4968C194.241 48.3542 195.59 49.1101 197.613 49.1101C199.624 49.1101 200.973 48.3542 201.883 47.4968C203.232 46.2219 203.929 44.2476 203.929 42.2169C203.929 40.1861 203.232 38.2118 201.883 36.9369C200.984 36.0795 199.636 35.3236 197.613 35.3236ZM197.613 46.9214C196.478 46.9214 195.826 46.3009 195.545 45.9624C195.343 45.7255 194.556 44.6876 194.556 42.2169C194.556 39.7461 195.343 38.7082 195.545 38.4713C195.826 38.1328 196.478 37.5123 197.613 37.5123C198.748 37.5123 199.4 38.1328 199.681 38.4713C199.894 38.7082 200.67 39.7461 200.67 42.2169C200.67 44.6876 199.883 45.7255 199.681 45.9624C199.4 46.3009 198.748 46.9214 197.613 46.9214Z" fill="white"/>
<path d="M185.015 39.7236L182.576 35.5831H179.058L183.093 41.9574L178.586 48.8506H181.34L184.498 43.8528L187.498 48.8506H191.027L186.442 41.5964L190.297 35.5831H187.555L185.015 39.7236Z" fill="white"/>
<path d="M205.536 39.1707C205.918 37.5574 206.929 36.6774 207.66 36.2374C208.098 35.9554 209.323 35.3236 211.391 35.3236C212.683 35.3236 214.009 35.5605 214.998 36.1021C216.448 36.9031 216.808 38.0764 216.808 38.9113C216.808 39.8251 216.369 41.5625 214.111 41.822V41.8784C214.886 41.9799 215.74 42.3184 216.257 42.8712C216.718 43.3676 217.089 44.1912 217.089 45.0825C217.089 46.4137 216.313 47.5758 215.324 48.2301C214.133 49.0086 212.504 49.1101 211.29 49.1101C210.065 49.1101 208.211 48.9747 206.907 47.9368C206.188 47.3614 205.513 46.3686 205.3 45.1276L208.019 44.665C208.121 45.0825 208.357 45.703 208.671 46.064C209.346 46.8424 210.402 46.9214 211.076 46.9214C211.751 46.9214 212.481 46.8424 213.043 46.4588C213.56 46.0978 213.818 45.6014 213.818 44.9471C213.818 44.4055 213.717 43.9543 213.245 43.5707C212.65 43.0856 211.852 43.0066 211.099 43.0066H209.728V40.9758H211.099C211.616 40.9758 212.369 40.8743 212.784 40.66C213.324 40.3666 213.639 39.9041 213.639 39.1482C213.639 38.7307 213.481 38.3359 213.099 38.0313C212.504 37.5349 211.649 37.5123 211.211 37.5123C210.615 37.5123 209.728 37.5913 209.008 38.2118C208.694 38.4713 208.278 38.9677 208.154 39.7461L205.536 39.1707Z" fill="white"/>
<path fill-rule="evenodd" clip-rule="evenodd" d="M236.025 39.2836C236.441 37.4897 237.61 36.5759 238.307 36.1585C239.34 35.5605 240.712 35.3236 242.42 35.3236C244.6 35.3236 246.803 35.6169 247.78 37.6702C248.252 38.6372 248.247 39.6793 248.242 40.5997L248.241 40.7456L248.241 40.863V45.985C248.241 47.0568 248.398 48.0383 248.623 48.8506H244.87C244.769 48.3316 244.69 47.6209 244.667 46.7409C244.173 47.6209 242.982 49.1101 240.24 49.1101C239.026 49.1101 237.778 48.7942 236.924 48.0947C236.093 47.4178 235.576 46.3235 235.576 45.1276C235.576 43.7963 236.149 42.2169 238.396 41.2805C239.846 40.6825 242.206 40.4794 243.274 40.423L244.521 40.3666V40.0733C244.521 39.7123 244.499 38.9338 244.128 38.5164C243.633 37.941 242.645 37.9184 242.262 37.9184C241.723 37.9184 241.071 37.9749 240.532 38.3133C240.195 38.5164 239.756 38.9338 239.599 39.6671L236.025 39.2836ZM243.364 42.5779C242.071 42.6794 240.768 42.8148 240.049 43.7173C239.835 43.9768 239.633 44.3717 239.633 44.9132C239.633 45.4886 239.914 45.8722 240.206 46.0865C240.565 46.3686 241.116 46.504 241.633 46.504C242.409 46.504 243.319 46.1655 243.836 45.545C243.914 45.466 244.533 44.6876 244.533 43.1758V42.4763L243.364 42.5779Z" fill="white"/>
<path d="M255.119 40.5584V35.5831H251.253V48.8506H255.119V43.2887H259.288V48.8506H263.143V35.5831H259.288V40.5584H255.119Z" fill="white"/>
<path d="M270.009 35.5831V40.6826H271.043C272.156 40.6826 272.628 40.1297 272.909 39.5318C273.173 38.9574 273.302 38.448 273.424 37.9703C273.55 37.4722 273.668 37.0085 273.92 36.5421C274.314 35.8088 274.831 35.6283 275.168 35.5831H278.348C277.932 36.0231 277.573 36.5421 277.337 37.0159C277.072 37.5611 276.822 38.3298 276.613 38.9682C276.494 39.3338 276.389 39.6566 276.303 39.8703C275.988 40.7051 275.471 41.54 274.156 41.6415V41.6866C274.853 41.7995 275.584 42.1605 276.123 42.9615C276.46 43.4579 276.696 44.1123 277.056 45.1163C277.383 46.0601 277.543 46.4442 277.822 47.1167L277.91 47.3276L277.923 47.3581C278.174 47.9383 278.333 48.3071 278.764 48.8394H275.134C274.561 48.6589 274.179 48.264 273.718 46.9102C273.552 46.431 273.451 46.0961 273.367 45.8177C273.268 45.4932 273.193 45.2456 273.066 44.9358L272.886 44.462C272.493 43.4692 271.976 43.2661 271.178 43.2661H270.009V48.8281H266.144V35.5831H270.009Z" fill="white"/>
<path d="M328 0H314V80H328V0Z" fill="#248341"/>
<path d="M301 0H292V80H301V0Z" fill="#248341"/>
<path d="M350 0H341V80H350V0Z" fill="#6AA744"/>
<path d="M377 0H368V80H377V0Z" fill="#A6CE39"/>
<path d="M333 0H328V80H333V0Z" fill="#A6CE39"/>
<path d="M310 0H305V80H310V0Z" fill="#245F34"/>
<path d="M363 0H359V80H363V0Z" fill="#FFCB05"/>
<path d="M390 0H385V80H390V0Z" fill="#FFCB05"/>
</svg>
