<svg width="11" height="30" viewBox="0 0 11 30" fill="none" xmlns="http://www.w3.org/2000/svg">
<rect width="11" height="30" fill="#3214B4"/>
<path fill-rule="evenodd" clip-rule="evenodd" d="M0.871658 21H6.63166C7.71166 21 8.63166 20.76 9.39166 20.3C10.1517 19.82 10.5317 19.08 10.5317 18.1C10.5317 17.4 10.3117 16.82 9.89166 16.32C9.47166 15.82 8.95166 15.52 8.37166 15.42C9.51167 14.92 10.0917 14.1 10.0917 13C10.0917 11.3 8.61166 10.32 6.53166 10.32H0.871658V21ZM3.21166 12.24H6.07166C8.09166 12.08 8.21166 14.74 6.01166 14.7H3.21166V12.24ZM3.21166 16.42H6.19167C7.29166 16.42 8.09166 16.86 8.09166 17.68C8.09166 18.56 7.39166 19.04 6.29166 19.04H3.21166V16.42Z" fill="white"/>
</svg>
