<svg width="128" height="24" viewBox="0 0 128 24" fill="none" xmlns="http://www.w3.org/2000/svg">
<path fill-rule="evenodd" clip-rule="evenodd" d="M70.4869 7.40719V5.55H69.5915V7.40719H69.5726L68.0908 5.55H67.0252L68.7403 7.51899L67 9.89794H68.135L69.5726 7.73639H69.5915V9.89794H70.4869V7.73639H70.5058L71.9435 9.89794H73.0785L71.3382 7.51899L73.0532 5.55H71.9876L70.5058 7.40719H70.4869ZM74.5195 7.78608V5.55H73.6241V9.89794H74.6961L76.2535 7.26433L76.5562 6.60593H76.5751L76.5562 7.65564V9.89794H77.4515V5.55H76.3796L74.8348 8.20845L74.5195 8.84201H74.5006L74.5195 7.78608ZM78.3978 9.94763C78.2801 9.94763 78.154 9.93107 78.0195 9.89794V9.20848C78.0741 9.2209 78.1225 9.22918 78.1645 9.23333C78.2107 9.23747 78.257 9.23954 78.3032 9.23954C78.3663 9.23954 78.423 9.23125 78.4735 9.21469C78.5281 9.19399 78.5765 9.15465 78.6185 9.09668C78.6647 9.0387 78.7047 8.95589 78.7383 8.84822C78.7719 8.74056 78.7993 8.59563 78.8203 8.41343C78.8455 8.23123 78.8644 8.00969 78.877 7.74881C78.8896 7.4838 78.8959 7.16495 78.8959 6.79227V5.55H81.7965V9.89794H80.9011V6.32021H79.7346V6.79227C79.7346 7.47137 79.7072 8.01797 79.6526 8.43206C79.5979 8.84615 79.5139 9.165 79.4004 9.38861C79.2911 9.61222 79.1524 9.76129 78.9842 9.83583C78.8161 9.91036 78.6206 9.94763 78.3978 9.94763ZM83.6358 7.78608V5.55H82.7404V9.89794H83.8124L85.3698 7.26433L85.6725 6.60593H85.6914L85.6725 7.65564V9.89794H86.5679V5.55H85.4959L83.9511 8.20845L83.6358 8.84201H83.6169L83.6358 7.78608ZM88.4095 5.55V9.12773H89.8976V5.55H90.793V9.12773H92.2811V5.55H93.1764V9.12773H93.6746V10.8296H92.8359V9.89794H87.5141V5.55H88.4095ZM95.2029 7.3016V5.55H94.3075V9.89794H95.2029V8.0159H96.9936V9.89794H97.889V5.55H96.9936V7.3016H95.2029ZM100.191 5.55H101.199L102.902 9.89794H101.893L101.553 8.91655H99.7744L99.4339 9.89794H98.4881L100.191 5.55ZM101.307 8.20224L100.67 6.35126H100.657L100.02 8.20224H101.307ZM103.472 6.93513C103.472 7.24155 103.533 7.50036 103.655 7.71155C103.781 7.91859 103.983 8.07387 104.261 8.1774L103.283 9.89794H104.349L105.143 8.32026H105.749V9.89794H106.644V5.55H105.194C104.904 5.55 104.651 5.58313 104.437 5.64938C104.223 5.71564 104.044 5.81088 103.901 5.9351C103.758 6.05519 103.651 6.20012 103.58 6.3699C103.508 6.53967 103.472 6.72808 103.472 6.93513ZM104.607 7.45688C104.481 7.3368 104.418 7.16288 104.418 6.93513C104.418 6.70738 104.481 6.53346 104.607 6.41338C104.733 6.29329 104.929 6.23325 105.194 6.23325H105.749V7.63701H105.194C104.929 7.63701 104.733 7.57697 104.607 7.45688ZM67.7756 17.9503C67.9689 17.9834 68.1623 18 68.3557 18C68.7298 18 69.0619 17.9462 69.3519 17.8385C69.6462 17.7267 69.8921 17.5714 70.0897 17.3727C70.2915 17.1739 70.4449 16.9337 70.55 16.6521C70.6551 16.3706 70.7076 16.0558 70.7076 15.708C70.7076 15.3726 70.653 15.0724 70.5437 14.8074C70.4386 14.5382 70.2873 14.3105 70.0897 14.1241C69.8963 13.9378 69.663 13.797 69.3898 13.7018C69.1207 13.6024 68.8202 13.5527 68.4881 13.5527C68.2485 13.5527 68.0278 13.5692 67.826 13.6024C67.6284 13.6355 67.4435 13.681 67.2711 13.739V14.4533C67.4267 14.3954 67.5864 14.3498 67.7504 14.3167C67.9185 14.2835 68.0993 14.267 68.2926 14.267C68.5701 14.267 68.7992 14.3043 68.9799 14.3788C69.1607 14.4533 69.3057 14.5444 69.415 14.6521C69.5285 14.7597 69.6105 14.8778 69.6609 15.0061C69.7114 15.1345 69.745 15.2504 69.7618 15.354H67.908V16.0683H69.7618C69.7576 16.238 69.7261 16.3975 69.6672 16.5465C69.6084 16.6915 69.5222 16.8198 69.4087 16.9316C69.2952 17.0393 69.1523 17.1263 68.9799 17.1925C68.8118 17.2546 68.6142 17.2857 68.3872 17.2857C68.2064 17.2857 68.0173 17.2671 67.8197 17.2298C67.6263 17.1925 67.412 17.1242 67.1766 17.0248V17.795C67.3825 17.8654 67.5822 17.9172 67.7756 17.9503ZM72.389 15.4596V13.6024H71.4936V17.9503H72.389V15.7888H72.4079L74.0473 17.9503H75.1823L73.2276 15.5714L75.0688 13.6024H74.0032L72.4079 15.4596H72.389ZM77.435 13.5527C77.7082 13.5527 77.973 13.5941 78.2294 13.6769C78.4901 13.7597 78.7213 13.8922 78.923 14.0744C79.1248 14.2525 79.2867 14.4823 79.4086 14.7639C79.5347 15.0455 79.5977 15.383 79.5977 15.7763C79.5977 16.1697 79.5347 16.5072 79.4086 16.7888C79.2867 17.0704 79.1248 17.3023 78.923 17.4845C78.7213 17.6625 78.4901 17.793 78.2294 17.8758C77.973 17.9586 77.7082 18 77.435 18C77.1617 18 76.8948 17.9586 76.6342 17.8758C76.3777 17.793 76.1486 17.6625 75.9469 17.4845C75.7451 17.3023 75.5811 17.0704 75.455 16.7888C75.3331 16.5072 75.2722 16.1697 75.2722 15.7763C75.2722 15.383 75.3331 15.0455 75.455 14.7639C75.5811 14.4823 75.7451 14.2525 75.9469 14.0744C76.1486 13.8922 76.3777 13.7597 76.6342 13.6769C76.8948 13.5941 77.1617 13.5527 77.435 13.5527ZM77.435 14.1738C77.3509 14.1738 77.2395 14.1883 77.1008 14.2173C76.9662 14.2463 76.8317 14.3146 76.6972 14.4223C76.5669 14.5299 76.4534 14.6914 76.3567 14.9068C76.2642 15.1179 76.218 15.4078 76.218 15.7763C76.218 16.1449 76.2642 16.4368 76.3567 16.6521C76.4534 16.8633 76.5669 17.0227 76.6972 17.1304C76.8317 17.2381 76.9662 17.3064 77.1008 17.3354C77.2395 17.3644 77.3509 17.3789 77.435 17.3789C77.519 17.3789 77.6283 17.3644 77.7628 17.3354C77.9016 17.3064 78.0361 17.2381 78.1664 17.1304C78.3009 17.0227 78.4144 16.8633 78.5069 16.6521C78.6036 16.4368 78.6519 16.1449 78.6519 15.7763C78.6519 15.4078 78.6036 15.1179 78.5069 14.9068C78.4144 14.6914 78.3009 14.5299 78.1664 14.4223C78.0361 14.3146 77.9016 14.2463 77.7628 14.2173C77.6283 14.1883 77.519 14.1738 77.435 14.1738ZM81.7061 17.882C81.9793 17.9607 82.2525 18 82.5258 18C82.7023 18 82.8873 17.9855 83.0807 17.9565C83.274 17.9275 83.4695 17.8799 83.6671 17.8137V17.0497C83.5578 17.0994 83.4233 17.149 83.2635 17.1987C83.108 17.2443 82.9167 17.2671 82.6897 17.2671C82.4921 17.2671 82.3009 17.2401 82.1159 17.1863C81.9352 17.1283 81.7754 17.0414 81.6367 16.9254C81.498 16.8054 81.3866 16.6521 81.3025 16.4658C81.2184 16.2753 81.1764 16.0496 81.1764 15.7888C81.1764 15.5652 81.2121 15.3622 81.2836 15.18C81.3551 14.9937 81.4581 14.8343 81.5926 14.7018C81.7271 14.5693 81.891 14.4678 82.0844 14.3974C82.282 14.3229 82.5048 14.2856 82.7528 14.2856C82.9419 14.2856 83.108 14.3022 83.2509 14.3353C83.398 14.3684 83.5368 14.4098 83.6671 14.4595V13.7018C83.4989 13.6479 83.3371 13.6107 83.1815 13.5899C83.0302 13.5651 82.8663 13.5527 82.6897 13.5527C82.3408 13.5527 82.0171 13.6003 81.7187 13.6955C81.4202 13.7866 81.1596 13.9274 80.9368 14.1179C80.7182 14.3043 80.5459 14.5382 80.4198 14.8198C80.2936 15.1014 80.2306 15.4285 80.2306 15.8012C80.2306 16.1987 80.2978 16.5362 80.4324 16.8136C80.5711 17.0911 80.7497 17.3188 80.9683 17.4969C81.1869 17.6708 81.4328 17.7992 81.7061 17.882ZM85.3184 13.6024V15.8385L85.2994 16.8944H85.3184L85.6336 16.2608L87.1785 13.6024H88.2504V17.9503H87.355V15.708L87.3739 14.6583H87.355L87.0524 15.3167L85.4949 17.9503H84.423V13.6024H85.3184ZM89.7768 17.4969C89.9954 17.6708 90.2413 17.7992 90.5145 17.882C90.7877 17.9607 91.061 18 91.3342 18C91.5108 18 91.6957 17.9855 91.8891 17.9565C92.0825 17.9275 92.2779 17.8799 92.4755 17.8137V17.0497C92.3662 17.0994 92.2317 17.149 92.0719 17.1987C91.9164 17.2443 91.7252 17.2671 91.4982 17.2671C91.3006 17.2671 91.1093 17.2401 90.9244 17.1863C90.7436 17.1283 90.5839 17.0414 90.4451 16.9254C90.3064 16.8054 90.195 16.6521 90.111 16.4658C90.0269 16.2753 89.9848 16.0496 89.9848 15.7888C89.9848 15.5652 90.0206 15.3622 90.092 15.18C90.1635 14.9937 90.2665 14.8343 90.401 14.7018C90.5355 14.5693 90.6995 14.4678 90.8928 14.3974C91.0904 14.3229 91.3132 14.2856 91.5612 14.2856C91.7504 14.2856 91.9164 14.3022 92.0593 14.3353C92.2065 14.3684 92.3452 14.4098 92.4755 14.4595V13.7018C92.3074 13.6479 92.1455 13.6107 91.99 13.5899C91.8386 13.5651 91.6747 13.5527 91.4982 13.5527C91.1493 13.5527 90.8256 13.6003 90.5271 13.6955C90.2287 13.7866 89.968 13.9274 89.7452 14.1179C89.5266 14.3043 89.3543 14.5382 89.2282 14.8198C89.1021 15.1014 89.039 15.4285 89.039 15.8012C89.039 16.1987 89.1063 16.5362 89.2408 16.8136C89.3795 17.0911 89.5582 17.3188 89.7768 17.4969ZM96.3274 13.6024V14.3726H95.0537V17.9503H94.1583V14.3726H92.8846V13.6024H96.3274ZM99.5632 14.3726V13.6024H96.9275V17.9503H99.5632V17.1801H97.8229V16.0683H99.4055V15.354H97.8229V14.3726H99.5632ZM100.383 13.6024H101.752L102.716 15.8385L103.681 13.6024H104.986V17.9503H104.091V14.5341H104.078L103.101 16.7702H102.269L101.291 14.5341H101.279V17.9503H100.383V13.6024ZM108.298 13.6024H107.289L105.586 17.9503H106.532L106.872 16.9689H108.651L108.991 17.9503H110L108.298 13.6024ZM107.768 14.4036L108.405 16.2546H107.118L107.755 14.4036H107.768Z" fill="#0A2896"/>
<path fill-rule="evenodd" clip-rule="evenodd" d="M53.4929 20H56.1352C57.1375 20 57.7449 19.7577 58.1702 19.2129C58.3828 18.9402 58.6865 18.4558 58.6865 17.5476C58.6865 16.6393 58.3828 16.0034 57.7753 15.5494C57.411 15.2767 56.9248 15.1255 56.1048 15.1255H53.4929V20ZM50 23V5.5H61.5L60.5 8.5H53.4929V12.3123H56.3174C58.5954 12.3123 59.7798 12.8573 60.5999 13.5537C61.2378 14.0987 62.3311 15.3098 62.3311 17.7015C62.3311 20.0632 61.2073 21.365 60.2657 22.031C59.1724 22.788 58.0184 23 55.6798 23H50ZM39.5 23V8.5H34.4831V5.5H48.5L47.5 8.5H43V23H39.5ZM25.5 12.4941H27.4672C28.0743 12.4941 28.378 12.4941 28.682 12.4031C29.5021 12.161 30.0182 11.4343 30.0182 10.4353C30.0182 9.2543 29.4716 8.73984 28.682 8.49752C28.3479 8.40672 28.0137 8.37637 27.3456 8.37637H25.5V12.4941ZM25.5 15.3981V20H27.953C28.682 20 29.3501 19.9396 29.836 19.4853C30.3219 19.0313 30.5345 18.4561 30.5345 17.6991C30.5345 17.1239 30.3828 16.5788 30.0791 16.1853C29.5627 15.5494 28.9248 15.3981 27.8315 15.3981H25.5ZM31.1422 13.6748V13.7353C31.8103 13.9776 32.4479 14.4015 32.7821 14.6739C33.8148 15.5218 34.2705 16.642 34.2705 18.0951C34.2705 20.4871 32.9947 22.2129 30.8991 22.7577C30.2612 22.9393 29.5932 23 28.3479 23H22V5.5H27.6189C28.7731 5.5 29.5627 5.56071 30.2612 5.74231C32.2962 6.28739 33.6326 7.68004 33.6326 9.89018C33.6326 11.0711 33.2073 12.0702 32.5088 12.7362C32.2051 13.039 31.7798 13.4024 31.1422 13.6748Z" fill="#0A2896"/>
<path fill-rule="evenodd" clip-rule="evenodd" d="M4 1L3 4H18L19 1H4ZM17.5 5.5H2.5L1.5 8.5H16.5L17.5 5.5ZM16 10H1L0 13H15L16 10Z" fill="#00AAFF"/>
</svg>
